<svg xmlns="http://www.w3.org/2000/svg" viewBox="47 49 418 414">
  <path d="m456.8 242.4l-26-4.2a8 8 0 0 1-6.7-6.8c-0.5-3.2-1-6.5-1.7-9.6a8 8 0 0 1 4-8.6l23-12.8a8 8 0 0 0 4-10l-4-11a8 8 0 0 0-9.5-5l-25.9 5a8 8 0 0 1-8.6-4q-2.2-4.2-4.8-8.4a8.2 8.2 0 0 1 0.7-9.6l17.3-19.9a8 8 0 0 0 0.3-10.6l-7.5-9a7.9 7.9 0 0 0-10.5-1.5l-22.7 13.6a8 8 0 0 1-9.4-0.9c-2.3-2.1-4.8-4.2-7.3-6.2a8 8 0 0 1-2.5-9.1l9.4-24.8a8 8 0 0 0-3.3-10.1l-10.2-6a8 8 0 0 0-10.4 2.3l-16.6 20.8a7.2 7.2 0 0 1-8.5 2.5s-5.6-2.3-9.8-3.7a8 8 0 0 1-5.5-7.7l0.4-26.4a8 8 0 0 0-6.6-8.5l-11.6-2a8 8 0 0 0-9 5.6l-8.7 25a8 8 0 0 1-7.8 5.5h-9.7a8 8 0 0 1-7.8-5.4l-8.6-25a8 8 0 0 0-9-5.7l-11.7 2a8 8 0 0 0-6.6 8.4l0.4 26.5a8 8 0 0 1-5.5 7.7c-2.3 1-7.3 2.8-9.7 3.7c-2.8 1-6 0.2-8.8-2.9l-16.5-20.3a8 8 0 0 0-10.3-2.2l-10.3 6a8 8 0 0 0-3.3 10l9.5 24.8a8 8 0 0 1-2.5 9l-7.4 6.3a8 8 0 0 1-9.4 0.9l-22.5-14a8 8 0 0 0-10.5 1.6l-7.5 9a8 8 0 0 0 0.3 10.6l17.3 20a8 8 0 0 1 0.7 9.4q-2.5 4-4.8 8.4a8.1 8.1 0 0 1-8.6 4.2l-25.9-5a8 8 0 0 0-9.4 5l-4 11a8 8 0 0 0 4 9.9l23 12.8a8 8 0 0 1 3.9 8.6l-1.7 9.5a8 8 0 0 1-6.6 6.9l-26.2 4.1a8 8 0 0 0-7.1 8v11.7a7.9 7.9 0 0 0 7.1 8l26 4.1a8 8 0 0 1 6.7 6.8c0.5 3.2 1 6.4 1.7 9.5a8 8 0 0 1-4 8.7l-23 12.8a8 8 0 0 0-4 10l4 11a8 8 0 0 0 9.5 5l25.9-5a8 8 0 0 1 8.6 4q2.2 4.2 4.8 8.4a8.2 8.2 0 0 1-0.7 9.6l-17.3 20a8 8 0 0 0-0.3 10.5l7.5 9a7.9 7.9 0 0 0 10.5 1.6l22.7-13.7a8 8 0 0 1 9.4 1l7.4 6.1a8 8 0 0 1 2.5 9.2l-9.4 24.7a8 8 0 0 0 3.3 10.1l10.2 6a8 8 0 0 0 10.3-2.3l16.8-20.6c2.1-2.6 5.5-3.7 8.2-2.6c3.4 1.4 5.7 2.2 10 3.6a8 8 0 0 1 5.4 7.7l-0.4 26.5a8 8 0 0 0 6.6 8.4l11.6 2a8 8 0 0 0 9.1-5.6l8.6-25a8 8 0 0 1 7.8-5.4h9.8a8 8 0 0 1 7.8 5.4l8.6 25a8 8 0 0 0 9 5.6l11.7-2a8 8 0 0 0 6.6-8.4l-0.4-26.5a8 8 0 0 1 5.5-7.7c4.2-1.4 7-2.5 9.6-3.5s5.8-1 8.3 2l17 21a8 8 0 0 0 10.5 2.3l10.2-6a8 8 0 0 0 3.3-10l-9.4-24.8a8 8 0 0 1 2.5-9.1l7.4-6.2a8 8 0 0 1 9.4-1l22.6 13.8a8 8 0 0 0 10.5-1.5l7.5-9a8 8 0 0 0-0.3-10.7l-17.3-20a8 8 0 0 1-0.7-9.4q2.5-4 4.8-8.4a8.1 8.1 0 0 1 8.6-4.1l25.9 5a8 8 0 0 0 9.4-5l4-11a8 8 0 0 0-4-10l-23-12.8a8 8 0 0 1-4-8.6c0.7-3.2 1.3-6.3 1.8-9.5a8 8 0 0 1 6.6-6.8l26-4.2a8 8 0 0 0 7.2-8v-11.7a8.3 8.3 0 0 0-7.3-7.7zm-200.7-130.3a143.8 143.8 0 0 1 139.4 108.1a16 16 0 0 1-15.5 19.9h-105.3a16 16 0 0 1-13.9-8l-52.1-91.8a16 16 0 0 1 9.8-23.4a147 147 0 0 1 37.6-4.8zm-144 144a144 144 0 0 1 43.6-103.4a16 16 0 0 1 25.2 3.5l52.3 91.9a16 16 0 0 1 0 15.9l-52.7 91.7a16 16 0 0 1-25.2 3.3a144 144 0 0 1-43.2-102.9zm144 144a146.9 146.9 0 0 1-38.2-5a16 16 0 0 1-9.8-23.4l52.6-91.5a16 16 0 0 1 14-8h105.3a16 16 0 0 1 15.5 19.8a143.8 143.8 0 0 1-139.4 108.1z"/>
</svg>