<?xml version="1.0" encoding="UTF-8" standalone="no"?>
<svg xmlns="http://www.w3.org/2000/svg" viewBox="0 0 96 96">
  <rect width="96" height="96" fill="#fff" rx="16" ry="16"/>
  <path d="m48.27 32a9.07 9.07 0 0 0-2.69 0.4c-1.95 0.71-3.6 1.48-5.3 4.59l3.5 9.22l2.06-5.54c0.75-2.11 3.3-1.96 4.16 0.16l6.6 17.56s1.11 2.8 1.71 3.38a6.2 6.2 0 0 0 4.91 2.21c0.94-0.02 1.3-0.1 2.1-0.39a6.48 6.48 0 0 0 4.03-5.7l0.04-19.18c-0.08-2.76-0.59-4.31-2.36-5.63a6.46 6.46 0 0 0-6.12-0.53a7.12 7.12 0 0 0-3.84 4.79l3.35 9.34l2.6-7.49v17.73l-6.97-19.46a8.78 8.78 0 0 0-3.5-4.33a8.23 8.23 0 0 0-4.28-1.13zm-15.51 0.02c-0.94 0.02-1.3 0.1-2.09 0.36a6.48 6.48 0 0 0-4.04 5.7l-0.01 19.18c0.07 2.77 0.58 4.32 2.35 5.64a6.46 6.46 0 0 0 6.12 0.53a7.15 7.15 0 0 0 3.84-4.79l-3.35-9.34l-2.61 7.49v-17.72l6.97 19.47a8.72 8.72 0 0 0 3.5 4.32a8.78 8.78 0 0 0 6.97 0.74c1.95-0.71 3.6-1.47 5.3-4.59l-3.5-9.22l-2.06 5.54c-0.75 2.11-3.3 1.95-4.16-0.16l-6.62-17.56s-1.1-2.8-1.7-3.38a6.21 6.21 0 0 0-4.91-2.21z"/>
  <path fill="#00bfbd" d="m62.51 12.44a6.93 6.93 0 0 0-7.11 7.06v0.03a6.9 6.9 0 0 0 7 7.03c2.64 0 4.2-0.94 5.6-2.44l-1.92-1.93c-1.07 0.97-2.03 1.6-3.59 1.6c-2.34 0-3.96-1.96-3.96-4.3v-0.03c0-2.34 1.66-4.25 3.96-4.25c1.37 0 2.44 0.58 3.5 1.54l1.9-2.2a7.04 7.04 0 0 0-5.38-2.1zm-28.66 0.13l-5.85 13.75h3.06l1.25-3.06h5.77l1.25 3.06h3.13l-5.85-13.75zm9.4 0.1v13.63h6.5c3.08 0 5.1-1.24 5.1-3.74v-0.03c0-1.83-0.97-2.75-2.55-3.35c0.98-0.54 1.8-1.4 1.8-2.95v-0.03c0-0.94-0.33-1.7-0.95-2.33c-0.78-0.77-2-1.2-3.57-1.2zm2.93 2.64h2.96c1.27 0 1.97 0.5 1.97 1.4v0.04c0 1.02-0.84 1.44-2.17 1.44v0.01h-2.76zm-11 0.87l1.82 4.42h-3.63zm10.99 4.51h3.47c1.55 0 2.23 0.57 2.23 1.48v0.04c0 1-0.8 1.48-2.13 1.48h-3.57zm3.58 52.33a7.34 7.34 0 1 0 6.77 10.16h-3.32a4.46 4.46 0 0 1-3.47 1.64a4.48 4.48 0 1 1 4.48-4.52h2.88a7.34 7.34 0 0 0-7.34-7.28zm-29.33 0.53v13.71h3.24v-13.71zm3.86 0l5.45 13.71h2.66l5.46-13.71h-3.5l-3.24 8.76l-3.29-8.76zm14.21 0v13.71h3.24v-13.71zm17.38 0l4.87 13.71h2.69l2.47-8.32l2.53 8.32h2.67l4.9-13.71h-3.52l-2.7 8.77l-2.43-8.77h-2.81l-2.44 8.83l-2.74-8.83z"/>
  <path d="m54.2 80.3l-6.2-3.6v7.2z"/>
  <circle fill="#00bfbd" cx="22" cy="70" r="2"/>
</svg>