<svg xmlns="http://www.w3.org/2000/svg" viewBox="0 0 8528 2968">
  <rect
    id="bg"
    fill="#ccc"
    fill-opacity="0"
    width="8528"
    height="2968"
    x="0"
    y="0"/>
  <path
    id="outlinejoin"
    fill="#fff"
    d="m5201 790a1469 1469 0 0 0-146.2 222.2c-8 15.6-17.7 27.5-33.3 9c-160.7-190-400.8-236.5-534.2-236.5v1894.8h1282z"/>
  <path
    id="outlinearm"
    fill="#fff"
    d="m1182 784.7c-492.2 0-894.2 372.1-894.2 942.8c0 570.7 360.1 952 894.2 952h4014v-1099.6c0-106.8-9.3-364.2-174.5-558.7c-161.1-189.7-400.8-236.5-534.2-236.5z"/>
  <path
    id="outline64"
    fill="#fff"
    d="m5946.3 292.2a530.2 530.2 0 0 0-133.3 32.8a1185 1185 0 0 0-153.3 72.4c-65.5 37-128.2 79-187.5 125.3c-66.6 51.7-108 90-149.7 132c-15 15-71 71.5-121.4 135.3a1571.6 1571.6 0 0 0-146.3 222.2c-55.7 102.5-120.2 248.7-152.6 414.1a1629 1629 0 0 0-29.2 312.2c0 525 385 941 896.3 941c312 0 593.4-179.5 764.4-429.5h610.3v391h866v-391h229v-868h-229v-391h-288l412-703h-993l-479 816.5l-452-816.5h-178.2c-28.5 0-58.6 1.2-85.5 4.2z"/>
  <path
    id="arm"
    fill="#080225"
    d="m1182 1072.7c-329 0-606.2 248.8-606.2 654.8c0 343.8 221 664 606.2 664c88.9 0 244.4-20.9 371.8-169v130.5h290.4v-1247.7h-290.4v145.2c-118.5-154.1-279.9-177.8-371.8-177.8zm1597.5 0c-65.2 0-121.5 8.9-177.8 41.5c-41.5 23.7-88.9 65.2-121.5 103.7v-112.6h-290.4v1247.7h290.4v-646.1c0-82.9 0-201.5 80-287.4c56.3-59.3 118.6-68.2 180.8-68.2c29.7 0 83 2.9 148.2 44.4l118.5-263.7c-80-47.4-157.1-59.3-228.2-59.3zm1014.4 0c-94.8 0-210.4 29.7-308.2 148.2v-115.6h-290.5v1247.7h290.4v-643c0-106.7 5.9-213.4 56.3-284.5c38.6-53.4 100.8-91.9 171.9-91.9c103.8 0 148.2 62.2 166 109.6c11.9 26.6 26.7 82.9 26.7 222.2v687.6h290.4v-643c0-106.7 5.9-213.4 56.3-284.5c38.6-53.4 100.8-91.9 171.9-91.9c103.7 0 148.1 62.2 165.9 109.6c11.9 26.6 26.7 82.9 26.7 222.2v687.6h290.4v-770.6c0-180.8-41.5-272.6-65.2-314.1c-71.1-124.5-204.5-195.6-355.6-195.6c-109.6 0-266.7 35.6-370.4 183.7c-71.1-121.5-192.6-183.7-323-183.7zm-2575.1 260.8c183.7 0 352.6 130.4 352.6 403c0 260.8-168.9 394-352.6 394c-210.4 0-346.7-180.7-346.7-397c0-222.2 136.3-400 346.7-400z"/>
  <path
    id="64"
    fill="#080225"
    d="m6031.8 560.5l-15.5 3.3c-149.7 31.9-298.2 124.6-426.3 234.4a1450 1450 0 0 0-152.1 156.8c-124.7 152.7-220 350.5-254.4 533.8c-15.5 82.3-22.1 166-22.5 249.7c0 359.5 272.4 651 608.3 651c329.6 0 596.7-256.8 596.7-573.5c0-308.2-225.5-558-503.7-558a471.4 471.4 0 0 0-196 42.6c-15.1 6.9-30.3 14-44.2 22.9c-37.2 23.7-76.5 55.6-103.7 89.5c-6.2 7.7-12.1 15.8-12.6 15.5c-0.4-0.4 2.5-17.3 7.8-34.9c40.2-133.5 104-241.1 205.3-349.7c101.3-108.6 258.8-227 418.6-261.1l15.5-3.3zm1274.2 15.5l-686 1169v217h812v391h290v-391h229v-292h-229v-391h-290v391h-435l642-1094zm-1536.7 937.8a302.2 302.2 0 1 1 1.4 604.4a302.2 302.2 0 0 1-1.4-604.4z"/>
</svg>