<svg viewBox="0 0 1080 1080" xmlns="http://www.w3.org/2000/svg">
<path d="m554 1023.8l-0.3-2l-0.3-1.8l3.3 0.2l3-0.7l2.7 1v0.1l1.7 1l-3.6 0.4h-3.5l-0.4 1.8l-0.2 1.5zm77-71.6l-2.4-1.3l2.2-2.4l2.6-1.8l0.5-0.2l1.8-1.7l3.6-0.7v2.4l-2 2l-2.6 2zm-101.8 79.8l-2-1.8l-0.1-2.3l0.2-1.6l0.5-2l2.8-1.1l2.7-1l2.9-0.8l3.1-0.8l3.5 0.2l2.1 1.3v1.6l-3.3 1.2l-1.3 1.3l-1 1.7l-0.9 1.4l-1.1 1.4l-1.3 1.5h-1l-3 0.7zm153.6-44l-2.4 2l0.3 1.6l-2.4-0.7l-1.3-1.2l1.8-2l3.8-1.6l2.7 0.1zm3.5-6.3l-4.5 2.5l0.8-0.9l1.7-2l3.2-2.2l1.5 0.9zm-22.2 37.2l-3 1.3l-1.4 1.4h-4.8l2-0.8l2-1.5l2.6-1.4l2-1.8l3.2-1l3.9-0.4v1l-3.2 1.5zm-70.1 30.3l-1.6-1l-0.6-1l-0.3-1.1l2.7-1l2.4-1.1l3.5-0.8v1.3l2.7-1l2.4-1.1l3 0.1l1.8 0.9l-1.6 1.6l-1.4 0.8l-3.4 0.6l0.8 1.4l1 0.8l2.8 1.6l-0.3 1.4l-2.4 0.9l-2.8-0.4l-1.8-0.6l-2.6-0.7l-2.2-0.8zm-20.4 17.4l1.5-0.5h3.2l3.1-0.5l2.4-0.7l2.4-0.7l1.3-0.7l-0.2-0.7l-0.9-0.5l-2.3-0.4l2-0.7l3.3-0.6l1.3-0.9l1.4-0.8l1.2-1.2l-0.3-0.7l-2.2-0.7l-2.4-0.3l-3.2-0.1l-3.2-0.3l-2-0.7l-1.5-0.8l-1.6-0.8l-2-0.6l-1.6-0.8l-2-2.3l-1.5-1l-0.9-1l-1.5-1l-0.5-1.5l0.7-1.4l0.8-1.2l3-0.8l0.3-1.2l0.7-1.2l2.6-1.7l2.5-1l2.1-1.2l2.3-1.2l0.3-1.6l3.1-0.9l3.7-0.7l2.8-1l3.2-1l-2.2-1l-3.5 0.3l-3.2-0.3l-2.4-0.8l0.8-1.5l3.3-0.5l1.4-1.6l-1.7-1.3l-1.6-1.2l-3.2-0.6l-1.9-1.1l-3.3-0.8l-3.7 0.2l-3.5-0.4l-3-0.7l-3.4-0.7h-3.8l-3.8-0.7l-2.8-1l-3-1l-1.8-2l-1-1.5l-1 1.6l-1.6 1.4l-2 1.4l-2.5 1.2l-2.3 1.2h-3.4l-3.2-0.7l-2.4-1.1l-1.3 1.7l-2.3 1l-3.6-0.3l-3.2 0.6l-3.1 0.4h-7l-3.1 0.5l-0.1 1.5l-0.5 1.4l-1.2 1.4l3.3 0.5h3.8l3.3 0.5l-0.4 1.5l-2 2.6l-1.3 0.6l-3.2 0.4l-3.8 0.3l-3.2 0.5l-3.3 0.5l-3 0.8h-3.5l-3.2-0.3l-1.7-0.2l-3.3-0.7l-3.5-0.5l-3.3-0.2l-3.4-0.1l-3.3-0.2l-4.3-0.2l-3.5 0.1h-3.4l-2.6 0.6l1 1.3l-2.7 0.6h-3.1l-3.3-0.5l-3.7-0.5l-4-0.5l-4-0.1l-3.6 0.2l-3.3-0.4l-2.4-1.4l0.9-1l-2.4-1.4l-2.3 0.4h-3.5l-1.8-1.5l1.8-0.7l-2.2-1.5l-3.8-1.5l-3.3-1.4l-1.9-1.6l2-0.9l-4.4-1.2l-3.1-1.2l-3-1.5l-3-1.5l-3.6-1.4l-3.1-1.6l-3-1.2l-3.7-1l0.6-1.1l-2.7-1.6l2.4-1.2l1.9-0.8l-3.2-1.8l-3.8-0.8l-3.6-1.7l-1.4-2.2l2.5-0.5l-4-1.5l-2.4-1.9l-1.8-2l-1-1.8l-0.3-1.9l-0.6-1.8l2.3-0.4l1.8-0.8l-2.5-2.1l-1.3-2l-0.9-2l-1-2l-1.8-2l-1.7-2l-2.9-2.1l-2-2l-1.3-2.1l-2.8-2l-5-2.2l-3-1.8l1-1.7h3l1.8-1l-1-2.2l3-0.4l2.2-0.8l-2-2.5l-3.9-1.8l-1.5-2.3l-2.8-3l-1-2.3l-1.5-3l-1.7-2.2l-1.7-2.4l-1.6-2.3l1.4-1.5l-2.5-3.1l-2-2.4l0.7-1.8l-1.5-2.7l-2.8-1.8l-1.7-2.8l-1-2.6l-0.4-2.8l0.2-2.3l1.4-1.6l1.7-1.6l3.2-0.4l3.6 1.8l3.7-0.3h3l2.4-1.7h3l3.3-0.3l1.7-1.5l-0.5-2.5l-2-3.6l3.1-0.7l2.4-1.2l2.4-1.1l2.2-1.4l1.7-1.7l9.2 4l2 1.4l3.2 2.5l0.4 2.9l1.7 3.1l3.3 1.7l1.5-1.8l2.8 2.1l2.2 2.6l2.5 2.7l3.5 0.4l2.4-1.2l0.3-2.5l-2.1-2.7l-2.3-2.4l-1.5-2.4l-1.1-2.5l-2.2-2.3l-2.7-3.4l0.5-1.5l1.8-2l1-2.1l1-2.5l-1.7-3l-2-2.6l-1-3.3l0.5-3l0.6-2.5l-0.9-2.9l0.2-2l0.8-2l3-1l1.7-2l1.9-2.1l3.2-1.2l0.3-2.9l-2.4-5.2l2.6 1.4l4 2.5l3.4 0.1l3.1-0.7l2-2l3.4-0.8l2.8-1l1.4-1.5l2.8-0.6l3.3 0.6l2-2l3.3-1.2l2.3-2l3.8-0.2l0.7-3l0.2-3l1.1-2.8l1.3-6.8l2.7 0.4l3.7 1.3l3.6 2l6.4 3.5l3.4-0.7l3.1-0.7l3.3-1.7l3.4-1.9l2-2.7l1.7-2.7l4-1l2.1-2.2l3.4 1l2.5 2.2l3.2 2l4-0.8l2.9 1.7l4.7 1.5l4.6 0.2l3.6-1l2.4-2.7l2-2.6l3.3-0.9l3.5 0.9l4 0.5l3.3-1.4h3.3l3.3 0.6l3.5 0.8l3.3-1.5l4-1.2l3.8-0.3l4.3 0.1l3.5-0.6l3.4-0.5l1.4-3.9l0.5-3.3l2.2 2.3l0.3 3.7l0.9 3.3l1.2 2.8l2.9 1.6l4.2-0.1l4.7 0.3l3.4-0.2l4.7 0.6l3.5 0.3l4.6 1l3.8 1.2l1.7 2.8l-1.6 2.7l1.5 2.7l3 2.4l3 2.6l3.7 2.2l3.8 2.1l2.7 2l3.4 1l3.2-2l1.8 2.7l1 3l1.8 2.4l3.1 1.7l2.9 1.9l-0.3 3.2l2 2.7l0.5 3.1l2.2 2.2l3 1l2.5 1.4l3.1 1.1l2.5 1.8l2 2l1.1 2.7l1.3 2.4l-0.1 2.7l-2.6 2.3l-3.2 1.6l-3.5 2.3l-2.8 1.8l-3.3 2.1l-3.6-0.2l-3.1 1.6l-3.8 0.2l-3 2l-3.3 1.9l-3 1.3l-3 2.3l-2.3 2.1l-2.4 2.7l-1.8 2.3l-1 2.7l-1.6 2.4l-1.1 2.4l2.2 2l-1.8 2.7l-3.5-0.2l-3.4 0.4l-3-0.8l-4 2.9l-2.4 2.7l-2.4 2l-2.4 1.9l0.1 2.5l-1.3 2.5l-1 2.4l-0.3 2.4l-0.3 2.2l-0.2 2.2l0.2 2.5l-2.5 2.7l0.9 2l-0.4 0.5l-1.3 1.7l3.5-0.1l-0.7 2.2l-0.8 1.7l4.7-2l-1.2 2h0.3l0.8-0.3l1-0.2l0.8-0.3h0.4v0.1l-2.4 2.2l3.8-1h0.6l3 0.7l-1.5 1.3l-0.8 0.6l-2 1.8l-1.2 2l-2 1.9l-1 2.2l3.1 0.6l-1 2.2l-2.6 1.5l3 0.7l2.7 1l4.4-0.4v-2l1.8-2l3.4-1.2l1.4-2l4.1-0.8l3.9-0.6l3.4-0.6l3.7-1l2-1.9l2.8-1.4l2.2-2l0.4 2l2.2 1.5l-2.6 2l3.1 0.7l3.8 0.7h3.2l3.7-1l2.2-1.8l2.3-2l-0.1-2.2l0.5-2.1v-2.2l3-1.7l2-2.3l2.7-2l9.7-4l-0.6 0.8l-2.1 2l1.8 1.7l2 1.4l-3.4 2.2l1.5 1.5l2.5 1l2.9 0.8l3.3 0.5l1.3 1.7l3.4-1l3.2-1.3l3.3-0.5l1.9 1.3l-3 1.6l2 1.6l2.5 1l0.2 2l0.9 1.6l2 1.5l1.8 1.2l1.7 1.3l-0.7 1.3l-0.9 1l0.8 2l-2 2.1l-0.5 2l0.6 1.7l-1.6 2l-1.7 2.1l-0.6 2l-1.2 2l-1.4 2l-0.8 1.8l1.6 1.3l0.1 1.7l-3 1.7l0.2 1.6l1.6 1.5l-3.2 0.8l-3.3 0.3l-3.4 0.7l1.1 1.5l-4.4 1.3l-2.6 1.5l-3.5 1.2l-1.4 1.7l-0.5 1.6l-2.4 1.6l-3 1.4l-3.3 1.2l2.2 1.1l3.4-0.2l3.2-0.2l2.6-1.4l3.6-0.3l3 0.1l6 0.2l-2.3 0.8l-2.7 1.6l-1.8 1.7l-3.2 1.2l-3.8 0.9h-3.1l-2.9 1.5l-1.5 1.6l-1.4 1.7l-1.7 1.5l-3.4 0.7l-2.3 1.5l2.6 2.1h-4.3l-3.4 0.8l-2.2 1.4h-3.9l-3 1l-3.3 0.8l-3.7 0.4v1.5l0.6 1h-4l-2.8 1.2l-3.3 0.2l-3-0.4l-2.7 1.1l-1.7 1.2l-1.5 1.3l-2.6 1l-3.2 1.1l-2.8 1l-2 1.1l-0.7 1.1l0.5 1.2l1.4 1l2 0.8l2 0.7l2 0.7l1.8 0.6l1.2 0.9l0.8 0.8l-0.4 1l-0.2 1.1l0.5 0.9l1.8 0.7l1.4 0.6l-0.5 1l-1.2 1l-1.5 1l-1.7 0.8l-2.4 1l-0.5 0.8l-1.6 0.7l-2 0.7l-3.6 0.6l-2 0.7l-2.4 0.6l-3.2 0.5l-2.6 0.7l-1.9 0.6l-3.1 0.4l-2.7-0.1l1.1-0.6zm72.8-465.6l6 4.2l4-0.6l5.6-0.8l3.9 1.4l-1.9 10.9l-2.9 2.7l-2.2 7.2l-1.8-3l-5.8 5.6l-1.3-0.7l-4-1l-2.5-8.4l0.2-6.2l-2.5-8.6l0.9-4.2zm168.7 55.3l-0.5 4.1l5.3-1.4l-0.3 4.3l-1.8 3.5l-4 2.8l-6.4 4.3l-4.3 2l-0.3 5l-3.9-2l-6 1l-4 4.7l-7.3 7l-5.9 1.8l-3.7 1.2l-4.5-2.3l-2-4.3l-5.2-3l0.6-3.5l5.8-5l10.6-5.4h4.1l5.3-1.5l6.7-2.2l5.3-2.8l5.4-5.1l3-1.1l3-4.3l5.6-2zm27.7-35.4l-0.3 11l2.8-5.6l1.3 3.7l-2.3 6.8l2.7 5.1l3.1 2.8l4.5-1.4l2 2.6l-5 6.6l-4 3.8l-3.7-2.5l-2.7 1.7l-1.4 3.8l-1.5 1l-4.3 3.4l-5.4 4.2l-5.6 1l0.3-2.6l-1.4-2.4l6.4-5.1l0.7-5.6l-3.8-6.4l1.6-3l5.2-0.8l4-6l2.4-5.5l0.5-6.9l0.8-1.4l-1-5l-1-9.8l0.2-7.3l2.4 0.4l1 6.4l3.3 4.6zm-4.4-143.9l-3.1 1l-3.3-4l-4.1-6l-3.6-6.5l-3.4-8l-0.4-3.4l3 1.3l3.5 4.6l2.5 4.3l1.7 3.3l4.6 7.9zm83-2.6l1.4 3.7l-2.1 3.8l-4-1.3l-3-3l0.3-4.1l3-1.5l2.5 2.8zm6.9-0.7l-4.2-0.7v-3.6l3.4 0.2l2 0.8l4-0.3l-1 4zm4.8 0.3l-0.6 0.1l1-4l1.2 0.4zm-78.9-44l-2.6 0.1l-1.7-4.8l0.7-2.1zm-3-15.3v7.3l-1.7-1.9l-1.6-0.2l-0.6-2.8l1-6.6zm-190.3-62.1l2.7 7.3l5.9-2.5l2.6 4.2l4 4l-1.2 3.8l1.3 7.8l1 4.6l2 1.5l1.7 8l-1.3 4.4l2.2 6.5l8.7 6.3l5.5 5.3l5.1 5l-1.3 2l4 6.5l2 10.4l3.5-1.3l2.7 4.6l2.2-1v9.9l4.9 6.8l3 4.3l5 8.8l1 7.8l-0.8 5.2l-1.6 5.5l2.2 8.6l-2 8l-2.2 3.8l-3.6 7.6l-1 5.3l-2.8 6.2l-5 7.5l-6.3 3.3l-4.1 6.4l-3.3 4l-3.8 7.5l-3.7 4l-3.2 6.4l-2.3 6.2l-0.2 3l-4.7 2.3l-7.9-1.2l-7.2 2.6l-3.9 3l-5 3.2l-5-5l-4.1-2.3l1.9-4.7l-4.2 1.2l-7.2 5.8l-5.8-3.4l-3.9-2l-4-1.1l-6.7-3.5l-4-6.2l-0.7-7.2l-1.2-4.9l-3.4-4.1l-7.1-1.8l2.9-4.3l-1.3-7l-4.2 6.1l-7 1.2l4.4-4.9l1.6-5.3l3.3-4.3l-0.1-7l-6.9 7.5l-5 2.9l-3.4 7.2l-5.8-4.1l0.5-5l-4.5-7l-4-3.7l1.6-2l-10-6.1l-5.5-0.4l-7.6-4.7l-14.3 0.8l-10.3 3.5l-9 3.3l-7.5-0.4l-8.1 5.2l-6.7 2.5l-1.2 5l-2.7 4l-6.5 0.6l-4.8 1.2l-7-1.1l-5.3 1.5l-5.3 1l-4 5.4l-2.2-0.2l-3.5 3.1l-3.3 3.4l-5.5 0.3l-5 0.7l-8.8-4.8l-4.2-1.2l-0.6-5.3l3.5-1.8l1-2.3l-0.7-3.3v-6.6l-1.5-5.4l-5.3-8.7l-2-5l-0.4-5.4l-3.9-5.5l-0.5-2.7l-4-3l-2-7.1l-5.5-6.5l-1.6-3.7l4 3.3l-3.7-8l4.3 2l2.8 3.1l-0.7-4.6l-4.9-6.6l-1.1-2.7l-2.2-2.4l0.2-5.4l1.5-2.6l0.6-4.7l-1.5-5.2l2.7-7l1.4 6.8l2.9-6.8l6.5-4.1l3.8-4.5l6.2-4.2l3.8-1.2l2.4 0.8l6.5-4.2l5.2-1.6l1.1-2.1l2.3-1l4.8-0.4l9-3.5l4.5-4.4l2-5l5-5l0.2-3.6v-4.8l5.9-8l4 7.4l3.7-2l-3.3-4l2.7-4.5l4 1.6l0.9-6.7l4.8-4.6l2-3.6l4.6-1.7v-2.5l4 0.9l0.2-2.2l4-1.4l4.3-1.3l6.8 3.8l5 5.1h5.7l5.8 0.8l-2-4.8l4.4-7l4-2.3l-1.3-2.2l4-5l5.5-3l4.7 1.2l7.7-1.5l-0.2-4.4l-6.7-3l5-1.1l6 2.3l4.8 3.6l7.7 2.6l2.6-0.8l5.6 3l5.4-2.2l3.4 1l2.2-1.6l4 4.6l-2.5 4.4l-3.6 3.3l-3 0.1l0.9 3.5l-2.8 4.2l-3.3 4.2l0.6 2.5l7 5.3l6.8 3.3l4.4 3.3l6.3 5.8l2.5 0.2l4.5 2.7l1.2 2.9l8.2 3.8l6-2.4l2-4.6l2-3.7l1.4-4.7l3-6.7l-1-4.4l0.8-2.4l-0.7-5.1l1.5-6.4l1.8-1.6l-1.3-3l2.4-4.3l2-4.5l0.2-2.5l3.5-2.7l2.4 4.5l0.3 5.4l2.2 1.3l0.2 3.7l3 4.8l0.4 5zm158.2 9.7l1.9 3.7l-5.4-2l-2.5-6.2l4.5 3.6zm-365.6-44.4l-3.8 0.5l-12.2-4.6l8.4-2.6l4.8 2.1l3.3 2.3zm356.1 35.8l-3.1-0.8l-4.8-2.5l-1.6-1.9l0.8-3.1l5.2 3l2.4 2.7zm6.8 0l-1.4 1.1l-5.2-9.2l-1.2-5.5l2.7 1l2.3 7.5zm-329-39.2l-7.8 2.4l-1.1-1l0.7-3l3.9-5.3l9-3.9l1-2l8-2.3l6.4-0.5l3-1.1l3.4 1l-3.3 2.3l-9.6 4l-7.7 2.8zm-60.1-11.9l3.3 1.9l5.6-1.4l2.4 3.3l-10.4 3l-6.3 1.9l-4.8 0.5l2.9-5.2l5-0.7zm45.7-4.4l-1.3 4.7l-13.7 3.5l-12.1 0.1l-0.2-3l7.2-2.5l5.8 2l6.1-1.1zm330 40.1l0.2 1.8l-6-5.5l-4.3-4.4l-2.9-3.7l1.3-0.5l3.6 3.2l6.4 6zm-18.4-14l-1.7-0.1l-3.5-3l-3.2-4.3l0.5-1.2l4.8 4.9zm-440.1-18.3l16.7-2.8l1.8-3.8l16.5 0.9l3.5 4.8l13.4-0.8l11.2 3.3l-10.1 4.7l-10-1.7l-8 1.6l-9.1 1l-8.3 0.2l-10.3-1l-6.4 0.5l-3.5 1.9l-15.8 0.3l-1.7-3.1l-7.8 1.3l5.4-9.3l10.4-2l7.1 1.5l3.6-0.2zm238-24.7l-4.8 5.4l-0.9-6.2l1.7-2.9l2-2.6l2 2.4zm188.6 34.6l-2.4 0.2l-3.5-4.1l-3.4-6.2l-1.5-6.7l1.2-0.4l0.8 2.6l2.5 2.5l3.8 6.3l3.8 3.9zm-32.6-19.3l-4.6-0.3l-1.5 2l-4.8 0.9l-4.5 1l-4.7-1l-7.1-3.9l-5-3.2l0.9-2.4l7.8 2.7l4.9 0.4l1.4-3.6h1.3l0.7 4.5l5 0.5l2.5-2.3l5-1.7l-0.8-5l5.2 1l1.7 1.8l-0.3 4.4zm-225.6-38.1l-3.5 2.7l-6.4-1.2l-1.9-3.4l9.5-0.7zm30.1-3.3l3.4 6.1l-7.9-3.3l-7.8-0.6l-5.3 0.6l-6.4-0.2l2.2-4.4l11.5-0.5zm205.7 36l-2.7 1.4l-1.5-5.1l-1.9-3.6l-3.8-3.5l-4.9-4.5l-6.2-3.7l2.4-1.4l4.7 3.2l2.9 2.5l3.6 2.7l3.4 4.2l3.2 3.3zm-171.4-50.6l2.6 12.8l9.6 5.3l7.9-8l10.6-4l8.3 0.7l7.9 3.4l6.8 3.5l9.8 2.5l15.9 7.4l16.7 7l6 5l5 4.8l1.2 5l14.7 7.6l2 4.8l-8.2-0.6l1.7 5.8l7.7 6.9l5.2 10l5 0.6l-0.5 3.7l6.6 2.8l-2.7 1l9 5.5l-1.2 2.3l-5.8-0.7l-2-2.6l-7.3-2.4l-8.8-3l-6.5-6.6l-4.8-5.5l-4.3-8l-11.5-5.6l-7.7 1.3l-5.6 2l1 6.3l-7.3 2l-5-2l-9.3-1.5l-8-7.8l-9.2-2.6l-2.3 2.2l-11.6-0.7l4-6.5l5.9-1.8l-2.2-9.2l-4.3-7.2l-18-8.1l-7.6-1.1l-13.9-8l-2.8 3.8l-3.5 0.6l-2.2-3v-3.5l-7.1-4l10-2.7l6.7 0.4l-0.7-2.1l-13.7-0.4l-3.7-4.8l-8.4-1.5l-4-4l12.7-1.7l4.8-2.4l15 3.7zm-83.2-19.4l-7.5 8l-7 1.8l-9-0.9l-15.4 1.7l-8 1.8l-1.4 6l8.3 6l5-3.9l17.3-4l-0.8 3.7l-4-0.9l-4 4.9l-8.2 3.7l8.9 9.4l-1.7 2.9l8.4 8.6v5.3l-4.9 2.8l-3.7-2.6l4.4-7l-9 3.9l-2.3-2l1.1-3.3l-6.7-4l0.6-7.9l-6.1 3l0.9 9.2l0.5 11.6l-5.8 1.7l-4-2l2.6-7.7l-1.6-7.6l-3.8 0.4l-3-5.1l3.8-5.6l1.3-6.4l4.6-12.1l1.9-3.4l7.9-6.3l7.2 1.6h11.7l10.7-1l9.2-5.9zm32.2 1.2l-0.5 6.6l-4.8-0.6l-1.4 4.7l3.8 4l-2.6 1l-3.8-4.9l-2.7-9.7l1.9-6l3-2.8l0.7 4l5.5 0.6zm-206.3 81.8l-9.3 2.6l-7.4-4.8l-11-3.4l-3.7-3.8l-6.5-4.5l-4.2-4.6l-6.3-9l-7.1-4l-2.4-5.7l-2.8-4.9l-7-2.1l-4-4.9l-5.7-1.9l-7.6-5l-0.4-3.3l5-1.7l11.9-3.1l6.6 4.6l6 2.8l4.2 1.6l7.5 5.4l8.3-2.5l6.9 3l4.7 5l6.4 1.6l-3.3 7.3l4.8 1.3l3-0.6l1.5 5l3 3.6l6.3-1l4.3 4l-1.9 10.4zm106-80.3l10.2 5.8l-10.8 2.2l-3.1 5.6l0.4 6.9l-8.7 6.5l-0.2 7.8l-3.3 12.7l-1.4-2.7l-10.2 5.1l-3.7-4.3l-6.4 0.6l-4.5-1.8l-10.5 4.8l-3.4-3.3l-5.8 1.6l-7.3 0.5l-1.5-10.2l-4.4-1.3l-4.2-5.7l-1.2-6.4l1-7.3l5.3-6.1l6.4 1.2l6.9-2.7l1.8-6.7l3.8-2.1l10.8-3.6l6.5-6.9l4.5-5.3l3.7-3.3l7.8-5l7-6l4.8-6.1l3.7-0.6l4.5 3l0.4 3l5.9 1.3l7.6 1.2l-0.7 3l-6.2 1l1.6 3.3l-6.8 3.3l-5.3 7.2l6.6 6.2zm79-53.3l1 4.5l0.5 3.8l-3.3 6.5l-3.3-7l-4.4 3.8l3 5l-2.7 3.4l-11-3.5l-2.4-5l2.8-3.4l-5.7-2.9l-3 3h-4.3l-7 4.5l-1.4-2l3.7-6l5.9-2.4l5-2.9l3.2 2.9l7-2.3l1.7-3l6.5-0.6l-0.5-5.1l7.4 2.8l0.8 3.4zm-367.4 119l-5.5 5.2l-2.2-3.8l0.3-9.6l4.5-13.2l3.5 1l2 3.1l2 5.5l-1.8 8zm345.8-130.5l-3.4 2.4l-3 4.4l-2.9 2.2l-5.5-4.2l2-2l2.3-2l1.1-4.1l5-0.7l-1.5 4.5l7-6.8zm-50.2 10.8l-12.3 8l4.6-5.4l6.8-4.9l5.6-5.2l5-7l1.4 5.1l-6.1 4.3zm31.4-19.9l5.4 1.6l5.8-0.5l-0.3 2.7l-4.3 3.1l-5.9 2.4l-0.2-3l0.8-3.3zm33-3.8l2.4 7l-7-1.3l0.1 2.1l2.2 4l-4.4 1.7l-0.3-4.6l-2.8-0.2l-1.3-3.9l5.4 0.2v-2.4l-5.5-4.5l8.7-0.4zm-35.9-3.4l-2.6 5.7l-3.8-2.8l-4.3-4.4l7.7-0.5zm0.2-32l5.3 1l2.9-1.6l0.7 1.4l-1.6 2.4l2.7 3.9l-2.6 5l-5.4 2.4l-1.7 4.9l1.7 4.7l4.8 0.2l4-1l11.1 2.7l-1 3.4l3 1.3l-1.1 3l-7-2.7l-3.2-3l-2.4 2.5l-5.6-3.3l-8.2 1.6l-4.4-1l0.6-2.6l2.9-1.8l-2.6-1.1l-1.3 2.3l-4.2-3l-1.1-2.6l0.1-5.6l3.4 1.6l1.6-9.2l3.3-5.4zm-94.3 12.5l-7.7 4.2l-6.4-0.2l0.7-4.8l4.5-3.4l9.4-3.5l4.7-0.8l1.5 1.7l-4.1 3.2zm95.1-35.3l-4 4.5l-4-3.9l-0.6-3.5l5.6-5.3l7.2-4.2l3.6 1.1l-1.8 3zm111.8-50l1.1 1.3l-4.1 1.8l-3.3-1.2l-4 0.7l-1.9 2l-5.1-1.2v-1.6l4-2l4.5 0.6l3-1.3zm45.5-5.6l-2 2.1l1.9 1.7l-3.2 1.8l-9.3 0.6l-13.3-0.9l-10.3 3.2l-5.4-1.6l-0.7-2.6l-13.3 0.2l-9 1.3h-9.1l8 2.6l-5 6l-5.2 1.6l-3.9-1.5l2-3.3l-5-1l-3.2-2.5l7.4-1l4-2.1l7.7-1.6l5.5-2l15-0.4l8.2 1l6.8-4.8l5.2 1.7l10-2l3.8-0.7l3.3-2.8l-2.3-2.8l2.3-1.2l7.1 0.4l5.5 3.8l0.8 2l-5.4 2zm11-14.3l5 1h3.9l3.4 2.4l-9.4-1l-4.4 1.4l-11.5-2.8l-2.4 2l-7.6-0.9l-2-2.2l2.4-1.2l7.1 0.7l0.1-2.4l0.9-1l9 2.7zm-25.7-11.5l2.4 0.3l2 0.2l2.7 0.3l3.2 0.6l3.3 0.6l-0.5 1.6l-1.4 1.2l7.6 2.2l0.9 1l-5.7-1.5l-3 0.6l-2.3-1.4l-0.7-1.2l-2.3-1.4l0.3-0.6l-1.8-1.1l-5-0.8l-1.6-0.3h-3l1 1l-0.7 1.3l-7.6 0.7l-1.4 0.7l-7.8 1.2l-8.1 1.4l-4 0.9l-8.8 0.7l-4.3-0.1l-4.5-1l-9 1.2l-1 0.7l-2.7-0.1l-3 0.7l-2.1 0.7l0.2 1.6l-3.7 0.5l-1.2 0.4l-2.8 0.8l-4.8 0.5l-3.1 0.7l-0.4 1l-0.9 0.4l2.9 0.3l4 1l6.2 3.2l1.9 1.9v3.4l-3 1.7l-7 0.7l-6.2 1.5l-7 0.5l-0.6-1.7l1.7-2.5l-3-3l5.6-0.7l-4.8-2.2l-3.5-0.4l-1 0.5l-2.2 0.4l-0.1-0.5l-1.9-0.2l-1.9-0.3l2.2-1.3l1.8-0.4l-0.5-0.5l2-1.4l-0.3-0.4l-4.2-0.1l-3.2-0.5l-10.2 1.4l-5.6 1.6l-8 1.4l4.2-1.6l-1.1-0.8l6.2-2.2l-3.3-0.9l-6.4 1.4l-8.8 2.5l-5 2l-7.1 1l-4.2 1.7l3 1.4l5.7-0.2l-0.3 1.2l5.5 0.2l8.9-2.8l6.1 0.5l4.8-0.3l0.8 1.4l-10.7 1.7l-4 2l-7.7 2.3l-4.6 2.6l7.6 1l2.2 3l4 2.9l4.8 2.4l-0.7 2.8l-5.2 1.5l1.6 2l4.5 0.8l-1.8 3.4l-2.6 3.5l-4.6 0.7l-6.7 5.3l-7.6 6.6l-8.7 6.5l-12.2 5.8l-12.4 5.8l-9.5 2l-5.5 3.1l-2.6-1.2l-5.2 3.4l-12 4.7l-9 2.5l-4 6.2l-4.6 1.3l-1.3-3.5l2.4-2.4l-10.6 0.6l-4 1.8l-11.9 7.1l-7.9 7l-2.6 4.3l4.9 4.4l6.2 5.8l7 1.9l4.3 3.7l2.5 10.6l-2.4 11.5l-7.6 5.9l-10.2 6.5l-7.4 7.3l-11.1 9l-2.7-3.5l2.8-5.2l-5.7-2.2l-6.9 1l-2.9-2.5l-3.2-5.5l-6.8-0.8l-6.9 2.3l2-5.4l-7 2.3l-1.8 7.3l-5.6 11l-3.4 6.8v4.7l5.1-1.5l2.7 5.2l0.9 5.6l4.1 2.5l5-0.7l4 2.4h1.8l4.6 3l3.2 3.7l0.3 4.8l-1 3.6l0.7 2.3l0.5 4.2l2.9 1.2l3.1 5.7l-0.2 2.6l-6 2.2l-7.7-3.3l-9.6-3l-0.9-3.4l-4.5-3.4l-0.9-5.7l-2.7-3l1.3-5.5l-1.6-2.5l-3-1.6l-1-3l-4-2.5l-3.4-2l-1.7 4.5l-1.2-3.3l1.4-4.6l3-7.3v-4.8l3-5.9l-2-3l1.8-7.3l-2.5-2.2l-1-6.6l0.2-7.3l-2-3.9l-5.7 5l-9.5 7.6l-4 1.1l-4.2 0.4l4.4-8.6v-5l-3.5-4.4l1.5-2.4l-3.9 1l-3.3-2.5l-1-2l0.7-2.7l-0.2-2.1l-1.6-1.9l-6 2.7l-0.4 2l-3.3 4l-2.4 0.2l-1.4 1.5l-1.6 0.3l-2.3 0.8l-1.8 2.5l-4.4 2.2l-8.4 5.3l-1.4 4.1l-4.7 5.3l-10.6 9l-9.5 11.2l-6 6.7l-7.3 7.8l-1 3l-3.4 3.4l-6 5.8l-2.9 2.1l-3.2 6.2l-1.1 7.7l-1 5.3l-4 8l-2.5 11.7l-3.2 2.5l-3.6 7.2l1.4 1l-5.6 5.8l-2.6 6.2l-2.6 3.7l-4.3-2.6l-0.8-7.9l-0.6-5.3l-1.1-1.8l-1.3-4.3l1-7.3l0.3-3.5l-1.8-5.1l2.4-10.8l1.7-6.8l3.3-7.6l1.7-5l-8.4 10l-2.9 2.2l-2-1.8l3.1-4.2v-1.2h-2l-2.2 1.7l1.3-3l-1.5-2.2l10.3-14.2l17.7-21.8l18.9-20.8l19.8-19.8l21-18.8l21.8-17.6l22.8-16.5l23.5-15.3l24.4-14l25-12.7l25.7-11.3l26.2-10l26.8-8.7l27-7.2l27.6-5.8l27.7-4.3l28-3l28-1.3h28l13.9 0.6h-1.1l8.6 0.4l3.2 0.3l5.5 0.5l3 0.2l6 0.5l9.3 1.2z" fill="#090"/>
<circle cx="540" cy="540" r="538.4" fill="none" stroke="#060" stroke-width="3"/>
</svg>
