<?xml version="1.0" encoding="UTF-8" standalone="no"?> <svg xmlns="http://www.w3.org/2000/svg" version="1.1" viewBox="0 0 440 288"><path fill="#fff" d="M 42,0 C 18.804041,0 0,18.804041 0,42 v 204 c 0,23.19596 18.804041,42 42,42 h 356 c 23.19596,0 42,-18.80404 42,-42 V 42 C 440,18.804041 421.19596,0 398,0 z"/><path d="m 138.27013,113.35244 c 0,4.60955 0.49833,8.34703 1.37041,11.08785 0.99666,2.74082 2.24249,5.7308 3.98665,8.96995 0.62291,0.99666 0.87207,1.99332 0.87207,2.8654 0,1.24582 -0.74749,2.49165 -2.36707,3.73747 l -7.8487,5.23247 c -1.12124,0.7475 -2.24249,1.12125 -3.23915,1.12125 -1.24582,0 -2.49165,-0.62292 -3.73748,-1.74416 -1.74415,-1.86874 -3.23914,-3.86206 -4.48497,-5.85538 -1.24582,-2.11791 -2.49165,-4.48498 -3.86206,-7.35038 -9.71744,11.4616 -21.926537,17.1924 -36.627284,17.1924 -10.464938,0 -18.811973,-2.98998 -24.91652,-8.96994 -6.104547,-5.97997 -9.219112,-13.95326 -9.219112,-23.91986 0,-10.58952 3.737478,-19.185724 11.337016,-25.664019 7.599539,-6.478295 17.690729,-9.717443 30.522737,-9.717443 4.235809,0 8.5962,0.373748 13.205753,0.996661 4.60956,0.622913 9.3437,1.619574 14.327,2.740817 v -9.094529 c 0,-9.468278 -1.99332,-16.071156 -5.85538,-19.933216 -3.98664,-3.862061 -10.7141,-5.7308 -20.306964,-5.7308 -4.360391,0 -8.845365,0.49833 -13.454921,1.619574 -4.609556,1.121243 -9.09453,2.491652 -13.454921,4.235808 -1.993321,0.872078 -3.488313,1.370409 -4.360391,1.619574 -0.872078,0.249165 -1.494991,0.373748 -1.993321,0.373748 -1.744157,0 -2.616235,-1.245826 -2.616235,-3.862061 v -6.104547 c 0,-1.993322 0.249165,-3.488313 0.872078,-4.360391 0.622913,-0.872078 1.744157,-1.744157 3.488313,-2.616235 4.360391,-2.242487 9.59286,-4.111226 15.697408,-5.606217 6.104547,-1.619574 12.582842,-2.367069 19.434885,-2.367069 14.825329,0 25.664019,3.36373 32.640639,10.09119 6.85205,6.727461 10.34036,16.943234 10.34036,30.64732 v 40.364765 z m -50.580532,18.93655 c 4.111226,0 8.347034,-0.74749 12.832012,-2.24248 4.48497,-1.495 8.47161,-4.23581 11.83534,-7.97329 1.99332,-2.36707 3.48832,-4.9833 4.23581,-7.97329 0.7475,-2.98998 1.24583,-6.60287 1.24583,-10.83868 v -5.232472 c -3.6129,-0.872079 -7.47496,-1.619574 -11.4616,-2.117905 -3.98665,-0.49833 -7.848706,-0.747495 -11.710767,-0.747495 -8.347034,0 -14.451581,1.619574 -18.562807,4.983302 -4.111226,3.36373 -6.104547,8.09787 -6.104547,14.327 0,5.85538 1.494991,10.21577 4.609556,13.20576 2.989982,3.11456 7.350373,4.60955 13.081173,4.60955 z m 100.039832,13.45492 c -2.24249,0 -3.73748,-0.37374 -4.73414,-1.24582 -0.99666,-0.7475 -1.86874,-2.49165 -2.61624,-4.85872 L 151.10214,43.337016 c -0.74749,-2.491652 -1.12124,-4.111226 -1.12124,-4.983304 0,-1.993321 0.99666,-3.114565 2.98998,-3.114565 h 12.2091 c 2.36706,0 3.98664,0.373748 4.85872,1.245826 0.99666,0.747496 1.74415,2.491652 2.49165,4.858722 l 20.92988,82.473685 19.43488,-82.473685 c 0.62291,-2.491652 1.37041,-4.111226 2.36707,-4.858722 0.99666,-0.747495 2.74082,-1.245826 4.9833,-1.245826 h 9.96661 c 2.36707,0 3.98665,0.373748 4.98331,1.245826 0.99666,0.747496 1.86874,2.491652 2.36707,4.858722 l 19.68405,83.470345 21.55279,-83.470345 c 0.74749,-2.491652 1.61957,-4.111226 2.49165,-4.858722 0.99666,-0.747495 2.61623,-1.245826 4.85872,-1.245826 h 11.58618 c 1.99332,0 3.11457,0.996661 3.11457,3.114565 0,0.622913 -0.12459,1.245826 -0.24917,1.993322 -0.12458,0.747495 -0.37375,1.744156 -0.87208,3.114565 l -30.0244,96.302351 c -0.7475,2.49165 -1.61958,4.11122 -2.61624,4.85872 -0.99666,0.7475 -2.61623,1.24583 -4.73414,1.24583 h -10.7141 c -2.36707,0 -3.98664,-0.37375 -4.9833,-1.24583 -0.99667,-0.87208 -1.86874,-2.49165 -2.36707,-4.9833 L 224.97962,59.283589 205.7939,139.51478 c -0.62291,2.49166 -1.37041,4.11123 -2.36707,4.98331 -0.99666,0.87208 -2.74081,1.24582 -4.9833,1.24582 z m 160.08864,3.36373 c -6.4783,0 -12.95659,-0.74749 -19.18572,-2.24248 -6.22913,-1.49499 -11.08786,-3.11457 -14.327,-4.98331 -1.99332,-1.12124 -3.36373,-2.36707 -3.86206,-3.48831 -0.49833,-1.12124 -0.7475,-2.36707 -0.7475,-3.48831 v -6.35372 c 0,-2.61623 0.99666,-3.86206 2.8654,-3.86206 0.7475,0 1.49499,0.12459 2.24249,0.37375 0.74749,0.24917 1.86874,0.7475 3.11456,1.24583 4.23581,1.86874 8.84537,3.36373 13.70409,4.36039 4.9833,0.99666 9.84202,1.49499 14.82533,1.49499 7.8487,0 13.95325,-1.37041 18.18906,-4.11123 4.23581,-2.74081 6.47829,-6.72746 6.47829,-11.83534 0,-3.48832 -1.12124,-6.35372 -3.36373,-8.72078 -2.24248,-2.36707 -6.47829,-4.48498 -12.58284,-6.4783 l -18.06448,-5.606217 c -9.09453,-2.8654 -15.82199,-7.101208 -19.93321,-12.707425 -4.11123,-5.481635 -6.22913,-11.586182 -6.22913,-18.064477 0,-5.232469 1.12124,-9.842026 3.36373,-13.828669 2.24248,-3.986643 5.23247,-7.474956 8.96994,-10.215773 3.73748,-2.8654 7.97329,-4.983304 12.95659,-6.478295 C 341.21519,32.622913 346.44766,32 351.92929,32 c 2.74082,0 5.60622,0.124582 8.34704,0.49833 2.8654,0.373748 5.48163,0.872078 8.09787,1.370409 2.49165,0.622913 4.85872,1.245826 7.1012,1.993321 2.24249,0.747496 3.98665,1.494991 5.23247,2.242487 1.74416,0.996661 2.98999,1.993322 3.73748,3.114565 0.7475,0.996661 1.12124,2.367069 1.12124,4.111226 v 5.855382 c 0,2.616235 -0.99666,3.986643 -2.8654,3.986643 -0.99666,0 -2.61623,-0.49833 -4.73413,-1.494991 -7.10121,-3.239148 -15.0745,-4.858721 -23.91986,-4.858721 -7.10121,0 -12.70743,1.121243 -16.56949,3.488312 -3.86206,2.36707 -5.85538,5.979965 -5.85538,11.087852 0,3.488313 1.24582,6.478295 3.73748,8.845364 2.49165,2.36707 7.1012,4.734139 13.70408,6.852043 l 17.69073,5.606217 c 8.96995,2.8654 15.44824,6.852043 19.3103,11.95993 3.86207,5.107891 5.7308,10.963271 5.7308,17.441561 0,5.35705 -1.12124,10.21578 -3.23914,14.45158 -2.24249,4.23581 -5.23247,7.97329 -9.09453,10.96327 -3.86206,3.11457 -8.47162,5.35706 -13.82867,6.97663 -5.60622,1.74416 -11.4616,2.61623 -17.81531,2.61623 z" fill="#252f3e"/><path d="m 382.20189,171.65369 c -13.59198,-0.15487 -30.2877,2.60505 -42.73037,11.34139 -3.6129,2.61624 -2.99144,6.10455 0.9952,5.60622 13.33033,-1.61957 42.73183,-5.10934 47.9643,1.61812 5.23246,6.60286 -5.85441,34.38481 -10.83771,46.71847 -1.49499,3.73748 1.74367,5.23296 5.1074,2.36756 21.92651,-18.43822 27.65685,-56.93328 23.17188,-62.5395 -2.10233,-2.56951 -11.67778,-4.97561 -23.6707,-5.11226 z m -346.748414,7.43603 c -2.744707,0.3387 -3.981774,3.65425 -1.085231,6.27049 C 83.204576,229.4624 147.86209,256 219.6216,256 c 51.2034,0 110.75494,-16.07265 151.74258,-46.34618 6.72745,-4.98331 0.87109,-12.58236 -5.98094,-9.4678 -45.97093,19.43486 -95.92865,28.90462 -141.40125,28.90462 -67.39912,0 -132.554481,-18.56283 -185.37745,-49.21012 -1.152388,-0.68521 -2.236161,-0.90371 -3.151064,-0.7908 z" fill="#f90"/></svg>