<?xml version="1.0" encoding="UTF-8"?>
<svg role="img" viewBox="0 0 196 72" xmlns="http://www.w3.org/2000/svg" xmlns:xlink="http://www.w3.org/1999/xlink">
<!-- Open in GIMP and export to PNG as 1568 px by 576 px with 300 pixels per inch -->
  <title> Business Aspect ⯃ </title>
<!-- &nbsp;Business&nbsp;Aspect&nbsp;&#x2BC3;&nbsp; -->
  <defs>
    <path id="logo-outline" d="m127.5 22.5 19-19h27l19 19v27l-19 19h-27l-19-19zm38 0-11 11v16l11-11z" />
      <g id="business-aspect">
        <g id="business">
          <path id="01-01-b" d="m3 23v19h8.4c1.08 0 2.05-0.14 2.91-0.38a7.06 7.06 0 0 0 2.23-1.03a4.5 4.5 0 0 0 1.96-3.79c0-0.75-0.12-1.26-0.37-1.76a4.3 4.3 0 0 0-0.97-1.3a5.04 5.04 0 0 0-1.43-0.93a9 9 0 0 0-1.6-0.58c0.4-0.16 0.8-0.36 1.2-0.6c0.4-0.25 0.76-0.55 1.09-0.91c0.32-0.37 0.57-0.8 0.77-1.28a4.46 4.46 0 0 0-0.98-4.75a5.63 5.63 0 0 0-2.13-1.24a9.95 9.95 0 0 0-3.12-0.45zm1.5 1.5h6.48c0.78 0 1.67 0.08 2.27 0.24c0.6 0.15 1.1 0.39 1.51 0.7a3.01 3.01 0 0 1 1.24 2.36c0 0.85-0.16 1.35-0.5 1.83c-0.34 0.47-0.68 0.75-1.14 1.04a5.6 5.6 0 0 1-1.63 0.64c-0.58 0.14-1.17 0.19-1.89 0.19h-6.34zm0 8.5h6.32a11 11 0 0 1 2.42 0.24c0.73 0.15 1.36 0.34 1.93 0.66c0.54 0.31 1.02 0.7 1.37 1.21c0.3 0.46 0.46 1 0.46 1.59c0 1.18-0.64 2.03-1.45 2.7a5.1 5.1 0 0 1-1.88 0.8c-0.73 0.2-1.86 0.3-2.27 0.3h-6.9z" />
          <path id="01-02-u" d="m20 23v11c0 1.32 0.21 2.61 0.6 3.6a7.04 7.04 0 0 0 4.15 4.07a9.6 9.6 0 0 0 3.25 0.53a9.4 9.4 0 0 0 3.25-0.53a6.79 6.79 0 0 0 2.5-1.57c0.7-0.7 1.26-1.47 1.65-2.5c0.38-1.02 0.6-2.26 0.6-3.6v-11h-1.5v11c0 0.96-0.11 1.78-0.4 2.6c-0.29 0.82-0.7 1.65-1.3 2.3a4.94 4.94 0 0 1-2.05 1.35c-0.8 0.29-1.74 0.45-2.75 0.45c-1 0-1.95-0.15-2.75-0.45c-0.8-0.3-1.47-0.75-2.05-1.35a6.53 6.53 0 0 1-1.3-2.3a7.1 7.1 0 0 1-0.4-2.6v-11z" />
          <path id="01-03-s" d="m39.9 23.9a5.5 5.5 0 0 0-1.7 1.8c-0.38 0.71-0.5 1.5-0.5 2.3c0 0.8 0.11 1.23 0.4 1.8c0.29 0.57 0.76 1.07 1.3 1.5c0.54 0.43 1.33 0.76 1.9 1c0.57 0.24 0.95 0.35 1.5 0.5c0.55 0.15 1.28 0.28 1.8 0.4s0.87 0.18 1.3 0.3c0.43 0.12 0.81 0.19 1.3 0.4c0.49 0.21 1.2 0.55 1.6 0.9c0.4 0.35 0.64 0.72 0.8 1.1c0.16 0.38 0.2 0.5 0.2 1.1c0 0.6-0.16 1.04-0.4 1.5a3.76 3.76 0 0 1-2.4 1.9a8.51 8.51 0 0 1-4 0.1c-0.74-0.17-1.59-0.47-2.4-0.9a11.47 11.47 0 0 1-2.4-1.7l-1 1.2c0.57 0.57 1.82 1.42 2.8 1.9c0.98 0.48 2.16 0.82 3 1a8.05 8.05 0 0 0 6.4-1.2a4.79 4.79 0 0 0 1.4-1.6c0.33-0.65 0.5-1.4 0.5-2.2a4.3 4.3 0 0 0-1.4-3.4c-0.52-0.47-1.44-0.86-1.98-1.1c-0.54-0.24-0.73-0.26-1.22-0.4s-1.13-0.27-1.7-0.4c-0.57-0.13-1.2-0.26-1.7-0.4s-0.81-0.2-1.3-0.4a10.8 10.8 0 0 1-1.6-0.8c-0.38-0.25-0.47-0.25-0.7-0.6c-0.23-0.35-0.5-0.9-0.5-1.5s0.15-1.22 0.4-1.7s0.55-0.78 1-1.1a6.75 6.75 0 0 1 3.4-0.9c0.6 0 1.28 0.03 1.8 0.1a6.42 6.42 0 0 1 2.6 0.9c0.45 0.26 1.4 1 1.4 1l0.9-1.3a10.9 10.9 0 0 0-3-1.7a8.53 8.53 0 0 0-1.7-0.4c-0.62-0.09-1.2-0.1-2-0.1a7.16 7.16 0 0 0-4.1 1.1z" />
          <path id="01-04-i" d="m53.2 23v19h1.5v-19z" />
          <path id="01-05-n" d="m57.2 23v19h1.5v-16.5l12 16.5h1.5v-19h-1.5v16.5l-12-16.5z" />
          <path id="01-06-e" d="m74.5 42h14.2v-1.5h-12.7v-7.5l11.2 0v-1.5h-11.2v-7h12.7v-1.5h-14.2z" />
          <path id="01-07-s" d="m92.4 23.9a5.5 5.5 0 0 0-1.7 1.8c-0.38 0.71-0.5 1.5-0.5 2.3c0 0.8 0.11 1.23 0.4 1.8c0.29 0.57 0.76 1.07 1.3 1.5c0.54 0.43 1.33 0.76 1.9 1c0.57 0.24 0.95 0.35 1.5 0.5c0.55 0.15 1.28 0.28 1.8 0.4s0.87 0.18 1.3 0.3c0.43 0.12 0.81 0.19 1.3 0.4c0.49 0.21 1.2 0.55 1.6 0.9c0.4 0.35 0.64 0.72 0.8 1.1c0.16 0.38 0.2 0.5 0.2 1.1c0 0.6-0.16 1.04-0.4 1.5a3.76 3.76 0 0 1-1 1.2c-0.4 0.32-0.83 0.52-1.4 0.7a8 8 0 0 1-4 0.1a11.58 11.58 0 0 1-2.4-0.9a6.25 6.25 0 0 1-1.6-1.1l-1 1.2c0.43 0.43 1.17 0.9 2 1.3s2.16 0.82 3 1a8.05 8.05 0 0 0 6.4-1.2a4.79 4.79 0 0 0 1.4-1.6c0.33-0.65 0.5-1.4 0.5-2.2c0-0.8-0.07-1.22-0.3-1.8a4.3 4.3 0 0 0-1.1-1.6c-0.52-0.47-1.44-0.86-1.98-1.1c-0.54-0.24-0.73-0.26-1.22-0.4s-1.13-0.27-1.7-0.4s-1.2-0.26-1.7-0.4s-0.81-0.2-1.3-0.4a10.8 10.8 0 0 1-1.6-0.8c-0.38-0.25-0.47-0.25-0.7-0.6c-0.23-0.35-0.5-0.9-0.5-1.5s0.15-1.22 0.4-1.7s0.55-0.78 1-1.1a5.63 5.63 0 0 1 1.7-0.7a6.75 6.75 0 0 1 1.7-0.2c0.6 0 1.28 0.03 1.8 0.1a6.42 6.42 0 0 1 2.6 0.9c0.45 0.26 1.4 1 1.4 1l0.9-1.3a10.9 10.9 0 0 0-3-1.7a8.53 8.53 0 0 0-1.7-0.4c-0.62-0.09-1.2-0.1-2-0.1a7.16 7.16 0 0 0-4.1 1.1z" />
          <use id="01-08-s" href="#01-07-s" xlink:href="#01-07-s" transform="translate(14.5 0)" />
        </g>
        <g id="aspect">
          <path id="02-01-a" d="m23.9 46l-8.6 19h3.5l2-4.5h9.4l2 4.5h3.5l-8.6-19zm1.6 4l3.4 7.5h-6.8z" />
          <path id="02-02-s" d="m50 48.2a11.1 11.1 0 0 0-7-2.3c-1 0-1.86 0.13-2.7 0.4c-0.84 0.27-1.51 0.62-2.1 1.1a5.05 5.05 0 0 0-1.4 1.7a6 6 0 0 0-0.5 2.4c0 0.8 0.2 1.59 0.5 2.2a4 4 0 0 0 1.2 1.4c0.6 0.46 1.28 0.83 2 1.1c0.82 0.33 2.07 0.57 2.9 0.8c0.83 0.23 1.52 0.4 2.1 0.6c0.58 0.2 1.05 0.35 1.39 0.59c0.34 0.24 0.51 0.42 0.67 0.74c0.15 0.32 0.17 0.5 0.17 1.1c0 0.6-0.3 1.11-0.93 1.57c-0.64 0.46-1.8 0.6-2.8 0.6c-1 0-1.96-0.33-2.9-0.8a11.81 11.81 0 0 1-2.6-2l-1.9 2.2c0.35 0.35 1.17 1.1 1.9 1.6s1.58 0.97 2.5 1.3c0.92 0.33 2.2 0.6 3 0.6c0.8 0 2.13-0.11 3-0.37a7.13 7.13 0 0 0 2.2-1.05a4.75 4.75 0 0 0 1.9-2.88c0.11-0.48 0.1-0.7 0.1-1.3a4.7 4.7 0 0 0-1.7-3.6a7.18 7.18 0 0 0-2-1.1c-0.78-0.33-1.87-0.57-2.7-0.8c-0.83-0.23-1.7-0.39-2.3-0.6c-0.6-0.21-0.97-0.39-1.3-0.6c-0.33-0.21-0.51-0.3-0.7-0.6a2 2 0 0 1-0.3-1.2c0-0.6 0.24-1.05 0.8-1.5a4.6 4.6 0 0 1 2.5-0.7c0.8 0 1.72 0.19 2.6 0.5a11 11 0 0 1 2.6 1.4z" />
          <path id="02-03-p" d="m52.2 46v19h3.5v-6h3.8c1.08 0 2.08-0.13 3.03-0.41a7.52 7.52 0 0 0 2.47-1.22a5.76 5.76 0 0 0 2.3-4.67v-0.4a6.5 6.5 0 0 0-0.52-2.61a5.66 5.66 0 0 0-1.48-2a6.46 6.46 0 0 0-2.33-1.25c-0.9-0.29-1.94-0.44-3.07-0.44zm3.5 3h3.9c1.28 0 2.31 0.28 3.07 0.85c0.76 0.57 1.13 1.34 1.13 2.45v0.4a2.9 2.9 0 0 1-1.12 2.36c-0.75 0.63-1.78 0.94-3.08 0.94h-3.9z" />
          <path id="02-04-e" d="m68.8 46v19h14.4v-3h-11v-5h9.3v-3h-9.3v-5h11v-3z" />
          <path id="02-05-c" d="m100.5 48.45c-0.72-0.72-1.98-1.5-3.1-1.95c-1.12-0.45-2.69-0.7-3.9-0.7s-3.02 0.2-4.3 0.7a9.75 9.75 0 0 0-3.2 2.1a9.7 9.7 0 0 0-2.2 3.1a9.82 9.82 0 0 0-0.8 3.8a9.56 9.56 0 0 0 3 6.9a9.24 9.24 0 0 0 3.2 2.1c1.27 0.48 3.1 0.7 4.3 0.7c1.2 0 2.66-0.2 3.9-0.7c1.24-0.5 2.32-1.26 3.3-2.2l-2.2-2.3a7.54 7.54 0 0 1-5 2.2a6.04 6.04 0 0 1-4.8-1.9c-1.43-1.43-2.2-2.78-2.2-4.8s0.77-3.37 2.2-4.8a6.02 6.02 0 0 1 4.8-1.9c2.03 0 3.72 0.92 5 2.2l2-2.45z" />
          <path id="02-06-t" d="m102 46v3h6.25v16h3.5v-16h6.25v-3z" />
        </g>
      </g>
    <style>
      .altwhite0 {fill:#fff;fill-opacity:1;stroke:#fff;stroke-linecap:square;stroke-linejoin:arcs;stroke-opacity:0.125;stroke-width:1.3}
      .white-bg0 {fill:#fff;fill-opacity:1;stroke:#fff;stroke-linecap:square;stroke-linejoin:arcs;stroke-opacity:0.125;stroke-width:1.5}
      .white-bg1 {fill:#fff;fill-opacity:1;stroke:#fff;stroke-linecap:square;stroke-linejoin:arcs;stroke-opacity:0.217;stroke-width:1.3}
      .white-bg2 {fill:#fff;fill-opacity:1;stroke:#fff;stroke-linecap:square;stroke-linejoin:arcs;stroke-opacity:0.279;stroke-width:1.1}
      .white-bg3 {fill:#fff;fill-opacity:1;stroke:#fff;stroke-linecap:square;stroke-linejoin:arcs;stroke-opacity:0.331;stroke-width:0.9}
      .white-bg4 {fill:#fff;fill-opacity:1;stroke:#fff;stroke-linecap:square;stroke-linejoin:arcs;stroke-opacity:0.375;stroke-width:0.7}
      .white-bg5 {fill:#fff;fill-opacity:1;stroke:#fff;stroke-linecap:square;stroke-linejoin:arcs;stroke-opacity:0.415;stroke-width:0.5}
      .white-bg6 {fill:#fff;fill-opacity:1;stroke:#fff;stroke-linecap:square;stroke-linejoin:arcs;stroke-opacity:0.451;stroke-width:0.3}
      .white-bg7 {fill:#fff;fill-opacity:1;stroke:#fff;stroke-linecap:square;stroke-linejoin:arcs;stroke-opacity:1;stroke-width:0.1}
      .textblue0 {fill:#04202e;fill-opacity:1;stroke:#fff;stroke:none}
      .logoblue1 {fill:#92d2f3;fill-opacity:1;stroke:#fff;stroke-linecap:square;stroke-linejoin:arcs;stroke-opacity:1;stroke-width:0.01}
      .logoblue2 {fill:#73adde;fill-opacity:1;stroke:#fff;stroke-linecap:square;stroke-linejoin:arcs;stroke-opacity:1;stroke-width:0.02}
      .logoblue3 {fill:#58c8df;fill-opacity:1;stroke:#fff;stroke-linecap:square;stroke-linejoin:arcs;stroke-opacity:1;stroke-width:0.02}
      .logoblue4 {fill:#00aeef;fill-opacity:1;stroke:#fff;stroke-linecap:square;stroke-linejoin:arcs;stroke-opacity:1;stroke-width:0.03}
      .logoblue5 {fill:#0072bc;fill-opacity:1;stroke:#fff;stroke-linecap:square;stroke-linejoin:arcs;stroke-opacity:1;stroke-width:0.03}
      .logoblue6 {fill:#03428e;fill-opacity:1;stroke:#fff;stroke-linecap:square;stroke-linejoin:arcs;stroke-opacity:1;stroke-width:0.01}
      .logoblue7 {fill:#001c54;fill-opacity:1;stroke:#fff;stroke-linecap:square;stroke-linejoin:arcs;stroke-opacity:1;stroke-width:0.02}
    </style>
  </defs>
  <rect id="set-transparent-pixels-to-white" width="196" height="72" x="0" y="0" fill="#fff" fill-opacity="0" />
<!-- When uncommented, this puts in a grey background to test the white glow around everything
  <rect id="test-white-glow" width="196" height="72" x="0" y="0" fill="#808080" fill-opacity="1" />
End of grey background test comment -->
  <g id="business-aspect-text-bg">
    <use class="white-bg0" href="#business-aspect" xlink:href="#business-aspect" />
    <use class="white-bg1" href="#business-aspect" xlink:href="#business-aspect" />
    <use class="white-bg2" href="#business-aspect" xlink:href="#business-aspect" />
    <use class="white-bg3" href="#business-aspect" xlink:href="#business-aspect" />
    <use class="white-bg4" href="#business-aspect" xlink:href="#business-aspect" />
    <use class="white-bg5" href="#business-aspect" xlink:href="#business-aspect" />
    <use class="white-bg6" href="#business-aspect" xlink:href="#business-aspect" />
    <use class="white-bg7" href="#business-aspect" xlink:href="#business-aspect" />
  </g>
  <use id="business-aspect-text" class="textblue0" href="#business-aspect" xlink:href="#business-aspect" />
  <g id="logo-bg">
    <use class="white-bg0" href="#logo-outline" xlink:href="#logo-outline" />
    <use class="white-bg1" href="#logo-outline" xlink:href="#logo-outline" />
    <use class="white-bg2" href="#logo-outline" xlink:href="#logo-outline" />
    <use class="white-bg3" href="#logo-outline" xlink:href="#logo-outline" />
    <use class="white-bg4" href="#logo-outline" xlink:href="#logo-outline" />
    <use class="white-bg5" href="#logo-outline" xlink:href="#logo-outline" />
    <use class="white-bg6" href="#logo-outline" xlink:href="#logo-outline" />
    <use class="white-bg7" href="#logo-outline" xlink:href="#logo-outline" />
  </g>
  <g id="logo">
    <use class="logoblue1" href="#logo-outline" xlink:href="#logo-outline" />
    <path class="logoblue6" d="m127.5 22.5h27v11l-8 8zm0 27h19v19zm19 19h27l-13.5-13.5z" />
    <path class="logoblue7" d="m127.5 22.5l19 19v8h-19zm19 27h8l5.5 5.5-13.5 13.5z" />
    <path class="logoblue5" d="m165.5 22.5h8v8l-8 8zm-11 11v16h-8v-8z" />
    <path class="logoblue2" d="m154.5 22.5l5.5-5.5l5.5 5.5-11 11zm19 0h19v27l-19-19zm19 27h-27l-5.5 5.5l13.5 13.5z" />
    <path class="logoblue3" d="m127.5 22.5l19-19l13.5 13.5l-5.5 5.5zm38 16v11l-5.5 5.5l-5.5-5.5z" />
    <path class="logoblue4" d="m173.5 3.5v19h-8l-5.5-5.5z" />
  </g>
</svg>
