<?xml version="1.0" encoding="UTF-8" standalone="yes"?>
<svg xmlns="http://www.w3.org/2000/svg" xmlns:xlink="http://www.w3.org/1999/xlink" viewBox="0 0 92 92">
  <defs>
    <style>
      .white-bg0 {fill:#fff;fill-opacity:1;stroke:#fff;stroke-linecap:square;stroke-linejoin:arcs;stroke-opacity:0.125;stroke-width:1.5}
      .white-bg1 {fill:#fff;fill-opacity:1;stroke:#fff;stroke-linecap:square;stroke-linejoin:arcs;stroke-opacity:0.217;stroke-width:1.3}
      .white-bg2 {fill:#fff;fill-opacity:1;stroke:#fff;stroke-linecap:square;stroke-linejoin:arcs;stroke-opacity:0.279;stroke-width:1.1}
      .white-bg3 {fill:#fff;fill-opacity:1;stroke:#fff;stroke-linecap:square;stroke-linejoin:arcs;stroke-opacity:0.331;stroke-width:0.9}
      .white-bg4 {fill:#fff;fill-opacity:1;stroke:#fff;stroke-linecap:square;stroke-linejoin:arcs;stroke-opacity:0.375;stroke-width:0.7}
      .white-bg5 {fill:#fff;fill-opacity:1;stroke:#fff;stroke-linecap:square;stroke-linejoin:arcs;stroke-opacity:0.415;stroke-width:0.5}
      .white-bg6 {fill:#fff;fill-opacity:1;stroke:#fff;stroke-linecap:square;stroke-linejoin:arcs;stroke-opacity:0.451;stroke-width:0.3}
      .white-bg7 {fill:#fff;fill-opacity:1;stroke:#fff;stroke-linecap:square;stroke-linejoin:arcs;stroke-opacity:1;stroke-width:0.1}
    </style>
    <path id="logo-outline" d="m76.34 23.16-1.65-5.21a.15.15 0 0 0-.16-.1c-.07 0-.12.06-.12.17v5.94l-3.94-4.16c-.14-.14-.28 0-.21.15l2.57 5-5.36-1.71c-.15-.07-.29.14-.15.29l5.48 3.86c-.02.3-.06.56-.2.9a70.71 70.71 0 0 0-24.04-4.51c-.2-1.64-.44-3.8-.63-5.19-9.82 0-18.75 1.72-20.75 2.15.11 1.3.33 3.53.5 5.35-2.5.6-5 1.29-7.44 2.09-1.64.5-3.22 1.07-4.86 1.64-.2 3.17-.33 6.3-.4 9.47l-6.97.48s.54 1.86 1.2 4.71L2.5 45.99a5.64 5.64 0 0 1 3.3 6.5c4.87.07 5.21 2.87 5 5.74l.68-.47c.12 1.21.2 2.42.25 3.62l4.19-.55a60.71 60.71 0 0 0 3.9 17.29 87.42 87.42 0 0 1 16.2-3.8c.12 3.67.2 8.09.32 11.53a107.1 107.1 0 0 1 20.9-2.15l.44-8.66h.06c1.93.29 3.7.84 5.56 1.05 1.92-7.13 3.82-14.3 5.6-21.52 2.2-.2 4.67-.35 6.94-.56a58.98 58.98 0 0 0-2.9-17.21c.4-1.97.79-3.94 1.16-5.9.54-.27 1-.5 1.6-.5.89 0 1.56-.27 2.2-.91l6.89.4c.15 0 .2-.21.07-.29l-4.94-2.07 5-2.22c.18-.08.1-.22 0-.21l-5.43.57 3.36-4.22c.08-.14-.08-.3-.22-.21l-4.5 2.93 1.14-5.44c0-.15-.2-.2-.28-.07l-2.65 4.5z"/>
  </defs>
  <g id="logo-bg">
    <use xlink:href="#logo-outline" class="white-bg0" href="#logo-outline"/>
    <use xlink:href="#logo-outline" class="white-bg1" href="#logo-outline"/>
    <use xlink:href="#logo-outline" class="white-bg2" href="#logo-outline"/>
    <use xlink:href="#logo-outline" class="white-bg3" href="#logo-outline"/>
    <use xlink:href="#logo-outline" class="white-bg4" href="#logo-outline"/>
    <use xlink:href="#logo-outline" class="white-bg5" href="#logo-outline"/>
    <use xlink:href="#logo-outline" class="white-bg6" href="#logo-outline"/>
    <use xlink:href="#logo-outline" class="white-bg7" href="#logo-outline"/>
  </g>
  <g id="logo">
    <path fill="#054166" d="m57.74 73.83l-0.5 9.87a107.82 107.82 0 0 0-20.9 2.15c-0.14-3.87-0.21-9.02-0.35-12.88a88.57 88.57 0 0 1 21.75 0.86zm-49.74-34.06s3.37 11.59 3.73 21.6l13.24-1.71l-2.44-20.9zm39.93-21.18c0.22 1.57 0.5 4.22 0.72 5.87c-7.08-0.15-13.95 1.64-20.82 3.29c-0.14-1.72-0.5-5.3-0.65-7.01c1-0.22 2-0.43 3-0.58a119.15 119.15 0 0 1 12.39-1.43zm20.47 35.99c1.36-6.01 2.72-11.95 4.08-17.89h0.42a58.98 58.98 0 0 1 2.94 17.32c-2.3 0.21-4.8 0.35-7.01 0.57z"/>
    <path fill="#fff" d="m49.3 24.09c-8.88.15-34.35 22.26-34.35 22.26l-2.36 1.14-1.29 1.1 3.6-1.3 6.06 9.5-1.15 21.33c12.58-4.14 23.04-5.44 34.2-3.5 1.5.28 2.15.2 3.73.42 1.93.29 3.49.7 5.56 1.05l10.8-45.2c.54-.26 1-.5 1.6-.5.89 0 1.56-.26 2.2-.9.47-.47.68-1.14.68-1.8a2.9 2.9 0 0 0-2.88-2.9 2.82 2.82 0 0 0-2.9 2.6c-.03.31-.1.64-.2.9-1.3 3.11-13.51-4.42-23.3-4.2z"/>
    <path fill="#4fc6e0" d="m14.95 46.35a70.03 70.03 0 0 1 28.83-7.37c4-.12 7.99-.67 11.88-1.64a51.42 51.42 0 0 0 15.24-6.87 4.3 4.3 0 0 0 1.7-2.18c-1.22-.43-2.42-.9-3.63-1.25a67.25 67.25 0 0 0-17.24-3.16 79.55 79.55 0 0 0-16.53.8 89.03 89.03 0 0 0-14.96 3.5c-1.64.5-3.22 1.07-4.86 1.64-.36 5.51-.5 10.95-.43 16.53z"/>
    <path fill="#ef404a" d="m19.82 78.12a55.28 55.28 0 0 1-3.37-12.66c-.43-3.3-.71-6.59-1.07-9.88 0-.29-.36-7.15-.36-7.15l-.12-1.14a58.17 58.17 0 0 1 7.92-1.94 64.2 64.2 0 0 1 9.8-1.07c2.04 0 4.05.5 5.87 1.43A5.7 5.7 0 0 1 41.71 50a8.64 8.64 0 0 1-.64 4.44 37.1 37.1 0 0 1-4.08 7.37 59.41 59.41 0 0 1-12.45 12.95l-4.34 3.23z"/>
    <path fill="#8857a4" d="m57.74 75.04 1.5-1.93a21.18 21.18 0 0 0 2.79-4.58c.8-1.88.77-4-.08-5.87a5.45 5.45 0 0 0-2.79-2.86c-1.43-.64-2.86-1.14-4.29-1.72-1.36-.57-2.72-1.14-4.08-1.78a4.25 4.25 0 0 1-1.29-.93 3.99 3.99 0 0 1-1.21-4.51 11.17 11.17 0 0 1 2.07-3.58 37.11 37.11 0 0 1 6.52-6 112.55 112.55 0 0 1 15.66-9.67c.43-.21.99-.43 1.56-.72-2.86 15.24-6.8 30.32-10.8 45.2-1.86-.21-3.63-.76-5.56-1.05z"/>
    <path fill="#00ae4d" d="m25.2 76.49c.42-.33 7.4-3.54 14.58-11.25 1.36-1.43 2.72-2.86 4.08-4.37a2.96 2.96 0 0 1 2.07-1.07c3.24-.28 6.44.84 8.8 3.08a6.8 6.8 0 0 1 2.08 4.36c.02.7-.08 1.4-.29 2.08a20.9 20.9 0 0 1-2.36 4.93l-.26.34a61 61 0 0 0-6.96-.7 70.1 70.1 0 0 0-8.94.2 93 93 0 0 0-9.6 1.6c-1.6.38-3.2.8-3.2.8z"/>
    <path fill="#fff" d="m44.21 38.48c1.08 0 1.58-.57 1.43-1.5a5.51 5.51 0 0 0-4.15-4c-1.21-.22-1.93.5-1.57 1.71a5.38 5.38 0 0 0 3.8 3.72 4.03 4.03 0 0 1 .5.07z"/>
    <path fill="#ffcb05" d="m74.52 17.85c-0.06 0-0.11 0.06-0.11 0.17v5.94l-3.94-4.16c-0.14-0.14-0.28 0-0.21 0.15l2.57 5l-5.36-1.71c-0.15-0.07-0.29 0.14-0.15 0.29l5.48 3.86c0.42-3.6 5.73-3.32 5.78 0.3a2.9 2.9 0 0 1-0.68 1.8l6.89 0.4c0.15 0 0.2-0.21 0.07-0.29l-4.94-2.07l5-2.22c0.18-0.08 0.1-0.22 0-0.21l-5.43 0.57l3.36-4.22c0.08-0.14-0.08-0.3-0.22-0.21l-4.5 2.93l1.14-5.44c0-0.15-0.2-0.2-0.28-0.07l-2.65 4.5l-1.65-5.21a0.15 0.15 0 0 0-0.17-0.1zm-64.08 26.35l-7.94 1.8a5.65 5.65 0 0 1 3.3 6.49c4.87 0.07 5.21 2.87 5 5.74l7.3-5c0.34-5.35-4.7-5.25-5.14-5.23c0.14-0.52 0.11-1.07-0.08-1.58a3.91 3.91 0 0 0-2.44-2.22z"/>
    <path fill="#ffaa01" d="m5.9 51.99c0 .21-.1.36-.1.5l7.15-4.42c.15-.54.13-1.12-.07-1.65z" opacity=".8"/>
  </g>
</svg>