<svg xmlns="http://www.w3.org/2000/svg" viewBox="0 0 96 96">
<defs>
<clipPath id="a">
<path d="m89 77.3c-14 0-19 2.7-27 5.4a70 70 0 0 1-37.5 5.8c-11.7-1.3-17.5-6.5-17.5-9v-53.5c1.5 1.5 7.5 5.8 16.5 6.8c2.8 0.2 7 0.5 9 0.5c13.9 0 22.6-3.5 30.5-6.5c7.8-3 15.5-6.8 26-6z"/>
</clipPath>
</defs>
<path d="m93.6 14.8a69.2 69.2 0 0 0-31.6 5.9c-8 3.1-16.2 6.3-29.5 6.3c-1.9 0-5.3-0.2-8-0.5c-11.7-1.3-20.5-7.1-20.5-12.5c0-1.5 0.7-2.8 2-4c3.5-3.6 10.4-6 20-6s19 3.4 19 6.5c0 3-8.4 6.5-19 6.5c-5.4 0-7-1.9-7-3c0-1.7 3.4-3 7-3c2.7 0 3.9 0.7 4.5 1.5l2.5-2c-2-2-4.3-2.5-7-2.5c-5.2 0-10 1.8-10 6c0 3.5 3.6 6 10 6a36 36 0 0 0 19-4.5v7.4l3-0.6v-11.8c0-5.5-12.3-9.5-22-9.5s-17.2 1.8-22.2 6.8a8.6 8.6 0 0 0-2.8 6.2v65.5c0 7 9.5 13.4 23.2 15c2.8 0.3 6.3 0.5 8.3 0.5c13.9 0 22.6-3.5 30.5-6.6c8.2-3.2 19-6 30.3-4.9c0.9 0 1.7-0.6 1.7-1.5v-65.7c0-0.8-0.6-1.4-1.4-1.5zm-1.6 65.5c-11-0.8-22.2 2.3-30 5.4a72.3 72.3 0 0 1-37.5 5.8c-11.7-1.3-20.5-7-20.5-12v-59c3.9 4 11.2 8 20.2 9a75.6 75.6 0 0 0 38.8-5.8a68.4 68.4 0 0 1 29-6z"/>
<path clip-path="url(#a)" d="m82 12.5a7 7 0 1 0 0 14a7 7 0 0 0 0-14zm0 3a4 4 0 1 1 0 8a4 4 0 0 1 0-8zm-75 5.5a7 7 0 1 0 0 14a7 7 0 0 0 0-14zm60 0a7 7 0 1 0 0 14a7 7 0 0 0 0-14zm-60 3a4 4 0 1 1 0 8a4 4 0 0 1 0-8zm60 0a4 4 0 1 1 0 8a4 4 0 0 1 0-8zm-45 5.5a7 7 0 1 0 0 14a7 7 0 0 0 0-14zm30 0a7 7 0 1 0 0 14a7 7 0 0 0 0-14zm30 0a7 7 0 1 0 0 14a7 7 0 0 0 0-14zm-60 3a4 4 0 1 1 0 8a4 4 0 0 1 0-8zm30 0a4 4 0 1 1 0 8a4 4 0 0 1 0-8zm30 0a4 4 0 1 1 0 8a4 4 0 0 1 0-8zm-75 5.5a7 7 0 1 0 0 14a7 7 0 0 0 0-14zm30 0a7 7 0 1 0 0 14a7 7 0 0 0 0-14zm30 0a7 7 0 1 0 0 14a7 7 0 0 0 0-14zm-60 3a4 4 0 1 1 0 8a4 4 0 0 1 0-8zm30 0a4 4 0 1 1 0 8a4 4 0 0 1 0-8zm30 0a4 4 0 1 1 0 8a4 4 0 0 1 0-8zm-45 5.5a7 7 0 1 0 0 14a7 7 0 0 0 0-14zm30 0a7 7 0 1 0 0 14a7 7 0 0 0 0-14zm30 0a7 7 0 1 0 0 14a7 7 0 0 0 0-14zm-60 3a4 4 0 1 1 0 8a4 4 0 0 1 0-8zm30 0a4 4 0 1 1 0 8a4 4 0 0 1 0-8zm30 0a4 4 0 1 1 0 8a4 4 0 0 1 0-8zm-75 5.5a7 7 0 1 0 0 14a7 7 0 0 0 0-14zm30 0a7 7 0 1 0 0 14a7 7 0 0 0 0-14zm30 0a7 7 0 1 0 0 14a7 7 0 0 0 0-14zm-60 3a4 4 0 1 1 0 8a4 4 0 0 1 0-8zm30 0a4 4 0 1 1 0 8a4 4 0 0 1 0-8zm30 0a4 4 0 1 1 0 8a4 4 0 0 1 0-8zm-45 5.5a7 7 0 1 0 0 14a7 7 0 0 0 0-14zm30 0a7 7 0 1 0 0 14a7 7 0 0 0 0-14zm30 0a7 7 0 1 0 0 14a7 7 0 0 0 0-14zm-60 3a4 4 0 1 1 0 8a4 4 0 0 1 0-8zm30 0a4 4 0 1 1 0 8a4 4 0 0 1 0-8zm30 0a4 4 0 1 1 0 8a4 4 0 0 1 0-8zm-75 5.5a7 7 0 1 0 0 14a7 7 0 0 0 0-14zm30 0a7 7 0 1 0 0 14a7 7 0 0 0 0-14zm30 0a7 7 0 1 0 0 14a7 7 0 0 0 0-14zm-60 3a4 4 0 1 1 0 8a4 4 0 0 1 0-8zm30 0a4 4 0 1 1 0 8a4 4 0 0 1 0-8zm30 0a4 4 0 1 1 0 8a4 4 0 0 1 0-8zm-45 5.5a7 7 0 1 0 0 14a7 7 0 0 0 0-14zm30 0a7 7 0 1 0 0 14a7 7 0 0 0 0-14zm-30 3a4 4 0 1 1 0 8a4 4 0 0 1 0-8zm30 0a4 4 0 1 1 0 8a4 4 0 0 1 0-8z"/>
</svg>