<?xml version="1.0" encoding="UTF-8" standalone="no"?> <svg viewBox="0 0 72 64" version="1.1" xmlns="http://www.w3.org/2000/svg"><path d="m 14,44 a 4,4 0 0 1 -8,0 v -2 a 4,4 0 0 1 8,0 z" style="fill:none;stroke:#000;stroke-width:2px;stroke-linecap:square;stroke-linejoin:round"/><path d="m 1.1,62.9 c 0,0 0.5,-5 1,-8 0.5,-3 2,-4 4,-4 H 8 l 7,8.1 h 6 c 0,0 0.5,4 -3,4 h-6 l-5-6" style="fill:none;stroke:#000;stroke-width:2px;stroke-linecap:square;stroke-linejoin:round"/><path d="m 17,55 3,-5 h 14 l -6,10 h -3.5" style="fill:none;stroke:#000;stroke-width:2px;stroke-linecap:square;stroke-linejoin:round"/><path d="m 58,44 a 4,4 0 0 0 8,0 v -2 a 4,4 0 0 0 -8,0 z" style="fill:none;stroke:#000;stroke-width:2px;stroke-linecap:square;stroke-linejoin:round"/><path d="m 70.9,62.9 c 0,0 -0.5,-5 -1,-8 -0.5,-3 -2,-4 -4,-4 h -1.9 l -7,8.1 h -6 c 0,0 -0.5,4 3,4 h 6 l 5,-6" style="fill:none;stroke:#000;stroke-width:2px;stroke-linecap:square;stroke-linejoin:round"/><path d="m 55,55 -3,-5 h -14 l 6,10 h 3.5" style="fill:none;stroke:#000;stroke-width:2px;stroke-linecap:square;stroke-linejoin:round"/><line x1="9" y1="63" x2="63" y2="63" style="fill:none;stroke:#000;stroke-width:2px;stroke-linecap:square;stroke-linejoin:round"/><path d="M39.5 32l8.1-9.5 8 5 8 -9" style="fill:none;stroke:#000;stroke-width:2px;stroke-linecap:square;stroke-linejoin:square"/><rect x="1" y="16" width="22" height="16" rx="6" style="fill:none;stroke:#000;stroke-width:2px"/><text transform="translate(3 28)" style="font-size:12px;fill:#000;font-family:Arial;font-weight:800">&lt;/&gt;</text><circle cx="23" cy="33.5" r="3.5" style="fill:none;stroke:#000;stroke-width:2px;stroke-linecap:square;stroke-linejoin:square"/><circle cx="19" cy="37.5" r="2" style="fill:none;stroke:#000;stroke-width:2px;stroke-linecap:square;stroke-linejoin:square"/><path d="M58.5 18l6.5 5.5 1.5-8.5z" fill="#000"/><path d="M41 34.3v6.2h4v-10.7z" fill="#000"/><path d="M46.7 27.6v12.9h4v-12.8l-2.7-1.7z" fill="#000"/><path d="M56.4 37v-6l-4-2.5v12h2z" fill="#000"/><path d="M62 35v-11l-4 5v7z" fill="#000"/><path d="M34.5,0c-4,-0.02,-7.5,3.5,-7.5,7.5c0,1.25,0.28,2.36,0.8,3.4c0.51,1.01,2.2,2.6,2.2,2.6v2.5a1,1,0,0,0,0.37,0.72c0.18,0.18,0.45,0.28,0.7,0.28h0.1l6.87,-0.55c0.52,-0.05,0.97,-0.47,0.97,-1v-1.88s1.68,-1.62,2.19,-2.67a7.5,7.5,0,0,0,-6.7,-10.9zm3,12.13a0.99,0.99,0,0,0,-0.5,0.87v1.52l-5,0.4v-1.92c0,-0.35,-0.14,-0.68,-0.44,-0.88a5,5,0,0,1,-2.56,-4.62a5.45,5.45,0,0,1,5.5,-5.5c3.03,0,5.5,2.42,5.5,5.5c-0.03,2,-0.93,3.78,-2.5,4.62zm1.4,6.44a1,1,0,0,1,-0.93,1.08l-6.81,0.5h-0.08c-1.33,0.05,-1.41,-1.95,-0.08,-2l6.82,-0.5a0.98,0.98,0,0,1,1.07,0.93zm-2.18,3.15a1,1,0,0,1,-0.92,1.08l-2.45,0.2h-0.07a1,1,0,0,1,-0.08,-2l2.47,-0.2a0.98,0.98,0,0,1,1.05,0.92zm1.78,-14.17a0.74,0.74,0,0,1,-0.75,0.7a0.76,0.76,0,0,1,-0.75,-0.75c0,-1.44,-1.35,-2.2,-1.5,-2.25c-0.45,-0.17,-0.65,-0.54,-0.5,-1c0.15,-0.46,0.55,-0.67,1,-0.5a3.75,3.75,0,0,1,2.5,3.8z" fill="#000"/></svg>