<svg xmlns="http://www.w3.org/2000/svg" viewBox="0 0 80 80"><defs><style>.cls-1{font-size:12px;fill:#000;font-family:Arial;font-weight:800}.cls-2,.cls-3{fill:none;stroke:#000;stroke-miterlimit:10;stroke-width:2px}.cls-3{stroke-linecap:round}</style></defs><text class="cls-1" transform="translate(50.53 25.35)">&lt;/&gt;</text><polyline class="cls-2" points="8.77 22.25 17.13 12.53 25.3 17.39 32.16 9.34"/><polygon points="28.11 8.02 33.98 12.98 35.55 5.14 28.11 8.02"/><polygon points="10.53 24.2 10.53 30.44 14.56 30.44 14.56 19.51 10.53 24.2"/><polygon points="16.2 17.6 16.2 30.44 20.22 30.44 20.22 17.69 17.51 16.08 16.2 17.6"/><polyline points="25.89 27.06 25.89 21.02 21.86 18.67 21.86 30.44 23.01 30.44"/><polyline points="31.55 24.99 31.55 14.05 27.53 18.78 27.53 26.04"/><path d="M31.55,25a10.4,10.4,0,0,0-4,1.05"/><rect class="cls-2" x="19.33" y="54.25" width="25.34" height="16.5" rx="2.77"/><circle class="cls-2" cx="50.79" cy="31.38" r="4.08"/><circle class="cls-2" cx="45.05" cy="35.45" r="2.48"/><line class="cls-3" x1="19.54" y1="74.2" x2="44.67" y2="74.2"/><path class="cls-2" d="M37.38,44.23A6.65,6.65,0,0,0,38.94,40V35.31a6.85,6.85,0,1,0-13.7,0V40A6.6,6.6,0,0,0,27,44.42"/><path class="cls-2" d="M37.38,44.23a6.65,6.65,0,0,1-5.1,2.38H31.9A6.62,6.62,0,0,1,27,44.42"/><path class="cls-2" d="M37.38,44.23c3,.86,7.3,2.5,8.35,4.51.79,2.83,5.29,13.32,3.17,16.34a10.21,10.21,0,0,1-4.23,1.11"/><path class="cls-2" d="M27,44.42c-2.69.9-6.77,2.45-7.74,4.32C17.53,51.27,12.59,64,16,65.8a8,8,0,0,0,3.57.69"/><path class="cls-2" d="M48.05,28.71A8.35,8.35,0,0,1,46.6,24V20.47A8.38,8.38,0,0,1,55,12.1h8.81a8.37,8.37,0,0,1,8.37,8.37V24a8.37,8.37,0,0,1-8.37,8.37H55a9.25,9.25,0,0,1-1.19-.09"/></svg>