<svg xmlns="http://www.w3.org/2000/svg" viewBox="-17.5 0 290 90">
  <rect x="-17.5" y="0" width="290" height="90" rx="20" fill="#5416b8"/>
  <path d="M67.8213 0H43.9265L81.4049 45.4279L83.5193 33.3822L67.8213 0Z" fill="url(#paint0_linear_806_7185)"/>
  <path d="M88.4531 43.8902L85.3135 50.2334L89.4782 55.2952C89.4782 55.2952 90.183 55.7437 91.5927 54.7186C93.0023 53.6934 92.6819 52.8604 92.6819 52.8604L88.4531 43.8902Z" fill="url(#paint1_linear_806_7185)"/>
  <path d="M109.981 0H89.3497L83.519 33.3821L88.4527 43.8902L109.981 0Z" fill="url(#paint2_linear_806_7185)"/>
  <path d="M79.8672 54.27C79.8672 54.27 79.9313 54.9108 81.2768 55.3593C82.6223 55.7437 82.9427 55.167 82.9427 55.167L85.3775 50.2334L81.4049 45.4279L79.8672 54.27Z" fill="url(#paint3_linear_806_7185)"/>
  <path d="M83.5197 33.3823L81.4053 45.4281L85.3137 50.2336L88.4533 43.8903L83.5197 33.3823Z" fill="url(#paint4_linear_806_7185)"/>
  <path d="M83.5197 33.3823L81.4053 45.4281L85.3137 50.2336L88.4533 43.8903L83.5197 33.3823Z" fill="url(#paint5_linear_806_7185)"/>
  <path fill-rule="evenodd" clip-rule="evenodd" d="M230.247 49.7848H231.528V41.9038C231.528 40.3661 231.977 38.9565 232.938 37.8672C233.899 36.7139 235.244 36.0732 237.102 36.0732C237.871 36.0732 238.32 36.1373 238.576 36.2654V34.9839C238.192 34.8558 237.871 34.7917 237.551 34.7917C234.668 34.7917 232.745 36.1373 231.656 38.7002H231.592V35.2402H230.311V49.7848H230.247Z" fill="white"/>
  <path fill-rule="evenodd" clip-rule="evenodd" d="M221.02 35.1764H217.816V36.3297H221.02V46.1329C221.02 47.5425 221.212 48.5036 221.661 49.1443C222.109 49.7851 223.07 50.1054 224.48 50.1054C225.185 50.1054 225.953 50.0414 226.658 49.9132V48.7599C226.082 48.888 225.505 48.9521 224.864 48.9521C224.095 48.9521 223.455 48.824 223.006 48.5677C222.493 48.3114 222.301 47.7347 222.301 46.9018V36.2656H226.53V35.1123H222.301V30.1786H221.02V35.1764Z" fill="white"/>
  <path fill-rule="evenodd" clip-rule="evenodd" d="M201.734 49.785H203.016V41.2633C203.016 39.8536 203.528 38.5722 204.489 37.4829C205.45 36.3937 206.988 35.8811 209.038 35.817C211.153 35.817 212.563 36.2655 213.331 37.1626C214.036 38.0596 214.357 39.277 214.357 40.8147V49.785H215.638V40.7507C215.638 40.3022 215.574 39.7255 215.574 39.0207C215.51 38.38 215.254 37.6752 214.869 37.0344C214.485 36.3296 213.844 35.753 212.947 35.3685C212.05 34.92 210.768 34.7278 209.167 34.7278C207.565 34.7278 206.283 35.0481 205.322 35.6889C204.361 36.3296 203.656 37.1626 203.208 38.0596H203.144V35.1763H201.862V49.785H201.734Z" fill="white"/>
  <path fill-rule="evenodd" clip-rule="evenodd" d="M180.59 39.7896C180.461 38.444 179.821 37.2907 178.539 36.2655C177.258 35.2404 175.528 34.7278 173.285 34.7278C171.043 34.7278 169.185 35.3685 167.647 36.7141C166.109 38.0596 165.276 40.0459 165.276 42.6088C165.276 44.9154 166.045 46.7735 167.519 48.1191C168.992 49.5287 170.915 50.2335 173.285 50.2335C175.143 50.2335 176.745 49.785 178.091 48.8239C179.436 47.9269 180.333 46.5173 180.782 44.5951H179.5C179.116 46.1328 178.411 47.2221 177.258 47.9269C176.104 48.6957 174.759 49.0161 173.285 49.0161C172.004 49.0161 170.979 48.7598 170.082 48.3113C169.249 47.8628 168.544 47.2861 167.967 46.6454C167.455 46.0047 167.07 45.2358 166.878 44.4669C166.622 43.7621 166.494 43.0573 166.494 42.4806C166.494 40.6866 167.07 39.0848 168.223 37.7392C169.313 36.3937 171.043 35.753 173.285 35.6889C175.015 35.6889 176.489 36.1374 177.514 36.9703C178.603 37.7392 179.18 38.6362 179.308 39.5973H180.59V39.7896Z" fill="white"/>
  <path fill-rule="evenodd" clip-rule="evenodd" d="M155.73 39.4692C155.73 38.8925 155.602 38.3159 155.409 37.7392C155.217 37.1626 154.833 36.65 154.384 36.2015C153.936 35.753 153.295 35.3685 152.398 35.1122C151.565 34.8559 150.476 34.7278 149.194 34.7278C148.041 34.7278 147.016 34.8559 146.247 35.1122C145.478 35.3685 144.837 35.753 144.453 36.2015C144.004 36.5859 143.748 37.0344 143.556 37.4829C143.364 37.9955 143.3 38.444 143.3 38.8925C143.3 39.5333 143.428 40.0459 143.748 40.4944C144.004 40.9429 144.261 41.3273 144.709 41.6477C145.094 41.904 145.542 42.1603 145.991 42.2884C146.439 42.4806 146.888 42.6088 147.336 42.6088L152.334 43.3136C153.167 43.3777 153.872 43.698 154.384 44.0825C154.897 44.531 155.153 45.1076 155.153 45.9406C155.153 46.9658 154.769 47.7346 154 48.3113C153.167 48.888 151.821 49.2083 149.963 49.2083C148.618 49.2083 147.528 49.0802 146.76 48.7598C145.991 48.5035 145.35 48.1832 145.03 47.7987C144.645 47.4143 144.389 46.9658 144.261 46.5173C144.133 46.0687 144.004 45.6843 144.004 45.2999H142.723C142.851 47.0939 143.556 48.4395 144.837 49.2083C146.055 49.9772 147.721 50.3616 149.643 50.3616C150.284 50.3616 150.988 50.2976 151.757 50.2335C152.526 50.1054 153.295 49.9131 153.936 49.6568C154.641 49.3365 155.217 48.888 155.73 48.3113C156.178 47.7346 156.435 46.9658 156.435 46.0047C156.435 44.7232 155.986 43.7621 155.217 43.1214C154.448 42.4806 153.359 42.0962 151.949 41.9681L147.464 41.3273C146.631 41.1992 145.927 40.9429 145.414 40.5584C144.901 40.174 144.581 39.5973 144.581 38.8285C144.581 37.9955 144.901 37.3548 145.606 36.7781C145.991 36.5218 146.439 36.2655 147.08 36.1374C147.4 36.0733 147.721 36.0092 148.041 35.9452C148.425 35.9452 148.81 35.9452 149.194 35.9452C151.052 35.9452 152.398 36.2015 153.231 36.7781C154.064 37.3548 154.512 38.3159 154.576 39.5333H155.73V39.4692Z" fill="white" stroke="white" stroke-width="0.4" stroke-miterlimit="2.6131"/>
  <path fill-rule="evenodd" clip-rule="evenodd" d="M134.65 35.4325H131.446V36.5859H134.65V46.4531C134.65 47.8627 134.842 48.8238 135.291 49.4646C135.739 50.1053 136.7 50.4257 138.11 50.4257C138.815 50.4257 139.584 50.3616 140.288 50.2335V49.0801C139.712 49.2083 139.135 49.2724 138.494 49.2724C137.725 49.2724 137.085 49.1442 136.636 48.8879C136.124 48.6316 135.931 48.055 135.931 47.222V36.5859H140.16V35.4325H135.931V30.4989H134.65V35.4325Z" fill="white" stroke="white" stroke-width="0.4" stroke-miterlimit="2.6131"/>
  <path fill-rule="evenodd" clip-rule="evenodd" d="M115.299 49.785H116.581V41.2633C116.581 39.8536 117.093 38.5722 118.054 37.4829C119.015 36.3937 120.553 35.8811 122.603 35.817C124.718 35.817 126.127 36.2655 126.896 37.1626C127.601 38.0596 127.921 39.277 127.921 40.8147V49.785H129.203V40.7507C129.203 40.3022 129.139 39.7255 129.139 39.0207C129.075 38.38 128.819 37.6752 128.434 37.0344C128.05 36.3296 127.409 35.753 126.512 35.3685C125.615 34.92 124.333 34.7278 122.732 34.7278C121.13 34.7278 119.848 35.0481 118.887 35.6889C117.926 36.3296 117.221 37.1626 116.773 38.0596H116.709V35.1763H115.427V49.785H115.299Z" fill="white" stroke="white" stroke-width="0.4" stroke-miterlimit="2.6131"/>
  <path fill-rule="evenodd" clip-rule="evenodd" d="M70.5118 42.7369C70.4477 40.3021 69.807 38.3799 68.4614 36.9062C67.1159 35.4325 65.1937 34.6636 62.6948 34.6636C61.2212 34.6636 59.9397 34.9199 58.9145 35.4325C57.8893 35.9451 57.1205 36.5858 56.4797 37.3547C55.9031 38.1236 55.4546 38.9565 55.1983 39.8536C54.942 40.7506 54.7498 41.5835 54.7498 42.4165C54.8138 47.5424 57.5049 50.1694 62.6308 50.2975C66.4111 50.3616 68.9099 48.5675 70.0633 44.9794H68.7818C68.6536 45.2998 68.5255 45.6842 68.2692 46.1327C68.0129 46.5813 67.6925 47.0298 67.244 47.5424C66.7955 47.9909 66.2189 48.3753 65.5141 48.6316C64.7452 48.952 63.8482 49.1442 62.7589 49.1442C60.6445 49.1442 58.9786 48.5035 57.8253 47.2861C56.672 46.1327 56.0953 44.6591 55.9671 42.7369H70.5118ZM56.0312 41.6476C56.672 37.8673 58.8504 35.9451 62.5667 35.881C64.2326 35.881 65.6422 36.3295 66.8596 37.2266C68.077 38.1877 68.7818 39.5973 69.1022 41.6476H56.0312Z" fill="white" stroke="white" stroke-width="0.4" stroke-miterlimit="2.6131"/>
  <path fill-rule="evenodd" clip-rule="evenodd" d="M111.904 42.7369C111.84 40.3021 111.199 38.3799 109.854 36.9062C108.508 35.4325 106.586 34.6636 104.087 34.6636C102.613 34.6636 101.332 34.9199 100.307 35.4325C99.2817 35.9451 98.5128 36.5858 97.8721 37.3547C97.2954 38.1236 96.8469 38.9565 96.5906 39.8536C96.3343 40.7506 96.1421 41.5835 96.1421 42.4165C96.2062 47.5424 98.8972 50.1694 104.023 50.2975C107.803 50.3616 110.302 48.5675 111.456 44.9794H110.174C110.046 45.2998 109.918 45.6842 109.662 46.1327C109.405 46.5813 109.085 47.0298 108.636 47.5424C108.188 47.9909 107.611 48.3753 106.906 48.6316C106.138 48.952 105.24 49.1442 104.151 49.1442C102.037 49.1442 100.371 48.5035 99.2176 47.2861C98.0643 46.1327 97.4876 44.6591 97.3595 42.7369H111.904ZM97.4236 41.6476C98.0643 37.8673 100.243 35.9451 103.959 35.881C105.625 35.881 107.035 36.3295 108.252 37.2266C109.469 38.1877 110.174 39.5973 110.494 41.6476H97.4236Z" fill="white" stroke="white" stroke-width="0.4" stroke-miterlimit="2.6131"/>
  <path fill-rule="evenodd" clip-rule="evenodd" d="M198.658 42.7369C198.594 40.3021 197.953 38.3799 196.608 36.9062C195.262 35.4325 193.34 34.6636 190.841 34.6636C189.368 34.6636 188.086 34.9199 187.061 35.4325C186.036 35.9451 185.267 36.5858 184.626 37.3547C184.05 38.1236 183.601 38.9565 183.345 39.8536C183.088 40.7506 182.896 41.5835 182.896 42.4165C182.96 47.5424 185.651 50.1694 190.777 50.2975C194.558 50.3616 197.056 48.5675 198.21 44.9794H196.928C196.8 45.2998 196.672 45.6842 196.416 46.1327C196.159 46.5813 195.839 47.0298 195.391 47.5424C194.942 47.9909 194.365 48.3753 193.661 48.6316C192.892 48.952 191.995 49.1442 190.905 49.1442C188.791 49.1442 187.125 48.5035 185.972 47.2861C184.818 46.1327 184.242 44.6591 184.114 42.7369H198.658ZM184.178 41.6476C184.818 37.8673 186.997 35.9451 190.713 35.881C192.379 35.881 193.789 36.3295 195.006 37.2266C196.223 38.1877 196.928 39.5973 197.249 41.6476H184.178Z" fill="white"/>
  <path fill-rule="evenodd" clip-rule="evenodd" d="M254.851 42.7369C254.787 40.3021 254.146 38.3799 252.801 36.9062C251.455 35.4325 249.533 34.6636 247.034 34.6636C245.561 34.6636 244.279 34.9199 243.254 35.4325C242.229 35.9451 241.46 36.5858 240.819 37.3547C240.242 38.1236 239.794 38.9565 239.538 39.8536C239.281 40.7506 239.089 41.5835 239.089 42.4165C239.153 47.5424 241.78 50.1694 246.97 50.2975C250.75 50.3616 253.249 48.5675 254.403 44.9794H253.121C252.993 45.2998 252.865 45.6842 252.609 46.1327C252.352 46.5813 252.032 47.0298 251.583 47.5424C251.135 47.9909 250.558 48.3753 249.853 48.6316C249.085 48.952 248.188 49.1442 247.098 49.1442C244.984 49.1442 243.318 48.5035 242.165 47.2861C241.011 46.1327 240.435 44.6591 240.306 42.7369H254.851ZM240.371 41.6476C241.011 37.8673 243.19 35.9451 246.906 35.881C248.572 35.881 249.982 36.3295 251.199 37.2266C252.416 38.1877 253.121 39.5973 253.442 41.6476H240.371Z" fill="white"/>
  <path fill-rule="evenodd" clip-rule="evenodd" d="M3.36357 35.176H0.159912V36.3293H3.36357V46.1325C3.36357 47.5421 3.55579 48.5032 4.00431 49.1439C4.45282 49.7847 5.41392 50.105 6.82353 50.105C7.52833 50.105 8.29721 50.041 9.00202 49.9128V48.7595C8.42536 48.8876 7.8487 48.9517 7.20797 48.9517C6.43909 48.9517 5.79836 48.8236 5.34984 48.5673C4.83726 48.2469 4.64504 47.7343 4.64504 46.8373V36.2652H8.87387V35.1119H4.64504V30.1783H3.36357V35.176Z" fill="white"/>
  <path fill-rule="evenodd" clip-rule="evenodd" d="M12.0774 49.913H13.3589V41.3272C13.3589 39.9175 13.8714 38.6361 14.8325 37.5468C15.7936 36.4576 17.3314 35.945 19.3817 35.8809C21.4962 35.8809 22.9058 36.3294 23.6746 37.2265C24.3795 38.1235 24.6998 39.3409 24.6998 40.8786V49.8489H25.9813V40.8786C25.9813 40.4301 25.9172 39.8535 25.9172 39.1487C25.8531 38.5079 25.5968 37.8031 25.2124 37.1624C24.828 36.4576 24.1872 35.8809 23.2902 35.4965C22.3932 35.048 21.1117 34.8558 19.5099 34.8558C17.9081 34.8558 16.6266 35.1761 15.6655 35.8169C14.7044 36.4576 13.9996 37.2905 13.5511 38.1876H13.487V29.3455H12.2055V49.913H12.0774Z" fill="white"/>
  <path fill-rule="evenodd" clip-rule="evenodd" d="M44.8187 42.6086C44.7546 40.1738 44.1138 38.2516 42.7683 36.7779C41.4228 35.3042 39.5006 34.5354 37.0017 34.5354C35.528 34.5354 34.2466 34.7917 33.2214 35.3042C32.1962 35.8168 31.4274 36.4576 30.7866 37.2264C30.21 37.9953 29.7614 38.8283 29.5052 39.7253C29.2489 40.6223 29.0566 41.4553 29.0566 42.2882C29.1207 47.4141 31.7477 50.0411 36.9376 50.1692C40.718 50.2333 43.2168 48.4393 44.3701 44.8512H43.0887C42.9605 45.1715 42.8324 45.556 42.5761 46.0045C42.3198 46.453 41.9994 46.9015 41.5509 47.4141C41.1024 47.8626 40.5257 48.247 39.8209 48.5033C39.0521 48.8237 38.155 49.0159 37.0658 49.0159C34.9514 49.0159 33.2855 48.3752 32.1322 47.1578C30.9788 46.0045 30.4022 44.5308 30.274 42.6086H44.8187ZM30.3381 41.4553C30.9788 37.675 33.1573 35.7528 36.8736 35.6887C38.5395 35.6887 39.9491 36.1372 41.1665 37.0342C42.3839 37.9953 43.0887 39.4049 43.409 41.4553H30.3381Z" fill="white"/>
  <path d="M9.89899 67.2128C9.77085 68.6224 8.55346 69.8398 6.75941 69.8398C4.70906 69.8398 3.36353 68.5583 3.36353 66.4439C3.36353 64.9702 4.26055 63.048 6.75941 63.048C8.16902 63.048 9.70677 63.6888 9.89899 65.3547H9.25826C9.06604 64.1373 7.9768 63.6247 6.82348 63.6247C5.22165 63.6247 4.1324 64.5217 4.1324 66.3798C4.1324 67.7895 4.90128 69.135 6.82348 69.135C8.36124 69.135 9.13012 68.3661 9.32234 67.1487H9.89899V67.2128Z" fill="white" stroke="white" stroke-width="0.32"/>
  <path d="M19.1261 67.7252H15.7302L14.8332 69.6474H14.1284L17.0117 63.2401H17.7806L20.6639 69.6474H19.895L19.1261 67.7252ZM17.3962 63.8808L15.9865 67.0844H18.8058L17.3962 63.8808Z" fill="white" stroke="white" stroke-width="0.32"/>
  <path d="M25.1484 63.2401H25.7892V69.0066H29.8258V69.6474H25.1484V63.2401Z" fill="white" stroke="white" stroke-width="0.32"/>
  <path d="M37.6426 63.048C39.4366 63.048 41.1025 64.1373 41.1025 66.4439C41.1025 68.6865 39.4366 69.8398 37.6426 69.8398C35.8485 69.8398 34.1826 68.7505 34.1826 66.4439C34.1826 64.2013 35.8485 63.048 37.6426 63.048ZM37.6426 69.1991C39.0522 69.1991 40.3977 68.3661 40.3977 66.4439C40.3977 64.5217 39.0522 63.6888 37.6426 63.6888C36.233 63.6888 34.8874 64.5217 34.8874 66.4439C34.8874 68.3661 36.233 69.1991 37.6426 69.1991Z" fill="white" stroke="white" stroke-width="0.32"/>
  <path d="M51.611 67.1485C51.611 68.3018 51.4186 69.7755 48.7916 69.7755C46.2928 69.7755 45.9724 68.3018 45.9724 67.1485V63.2401H46.6131V67.1485C46.6131 68.8144 47.7024 69.1989 48.7916 69.1989C49.8809 69.1989 50.9701 68.8785 50.9701 67.1485V63.2401H51.6109V67.1485Z" fill="white" stroke="white" stroke-width="0.32"/>
  <path d="M56.8647 63.2401H57.6336L62.1187 68.6863V63.2401H62.7595V69.6474H61.9906L57.5055 64.2011V69.6474H56.8647V63.2401Z" fill="white" stroke="white" stroke-width="0.32"/>
  <path d="M67.95 63.2401H71.0895C72.9477 63.2401 73.9088 64.4574 73.9088 66.4437C73.9088 68.2378 72.9477 69.6474 71.1536 69.6474H67.95V63.2401ZM68.5907 69.0707H71.0255C72.1788 69.0707 73.1399 68.43 73.1399 66.5078C73.1399 64.8419 72.4991 63.9449 71.0255 63.9449H68.5907V69.0707Z" fill="white" stroke="white" stroke-width="0.32"/>
  <path d="M78.97 63.2401H82.4299C83.5192 63.2401 84.4803 63.6245 84.4803 64.97C84.4803 65.6748 84.0318 66.3156 83.1988 66.5078C84.0958 66.6359 84.288 67.2126 84.3521 68.3018C84.3521 68.6863 84.4162 69.4552 84.6084 69.6474H83.9036C83.7755 69.5192 83.7114 69.0066 83.7114 68.3659C83.7114 67.2126 83.2629 66.8282 82.1736 66.8282H79.6107V69.6474H78.97V63.2401ZM79.6107 66.2515H82.4299C83.1347 66.2515 83.8395 65.9952 83.8395 65.0341C83.8395 64.073 83.1347 63.8808 82.494 63.8808H79.6107V66.2515Z" fill="white" stroke="white" stroke-width="0.32"/>
  <path d="M93.7065 67.7252H90.3106L89.4135 69.6474H88.7087L91.592 63.2401H92.3609L95.2442 69.6474H94.4753L93.7065 67.7252ZM92.0405 63.8808L90.6309 67.0844H93.4502L92.0405 63.8808Z" fill="white" stroke="white" stroke-width="0.32"/>
  <path d="M106.394 63.048H106.842V69.8398H106.394V63.048Z" fill="white" stroke="white" stroke-width="0.2"/>
  <path d="M122.86 65.0983C122.796 64.0091 121.899 63.6887 120.873 63.6887C119.848 63.6887 119.079 64.0732 119.079 64.842C119.079 65.675 119.848 65.8672 121.45 66.1235C122.603 66.3157 123.757 66.572 123.757 67.7894C123.757 69.3912 122.347 69.7757 121.066 69.7757C119.464 69.7757 118.246 69.199 118.182 67.469H118.823C118.951 68.8146 119.848 69.1349 121.066 69.1349C122.027 69.1349 123.052 68.8787 123.052 67.8535C123.052 66.8924 121.899 66.7642 120.745 66.572C119.208 66.3157 118.375 65.8672 118.375 64.842C118.375 63.4324 119.656 62.9839 120.938 62.9839C122.219 62.9839 123.565 63.4324 123.629 64.9702H122.86V65.0983Z" fill="white" stroke="white" stroke-width="0.2"/>
  <path d="M134.073 67.1485C134.073 68.3018 133.88 69.7755 131.253 69.7755C128.754 69.7755 128.434 68.3018 128.434 67.1485V63.2401H129.075V67.1485C129.075 68.8144 130.164 69.1989 131.253 69.1989C132.343 69.1989 133.432 68.8785 133.432 67.1485V63.2401H134.073Z" fill="white" stroke="white" stroke-width="0.2"/>
  <path d="M139.326 63.2401H140.095L144.58 68.6863V63.2401H145.221V69.6474H144.452L139.967 64.2011V69.6474H139.326V63.2401Z" fill="white" stroke="white" stroke-width="0.2"/>
  <path d="M154.769 65.0983C154.705 64.0091 153.808 63.6887 152.782 63.6887C151.757 63.6887 150.988 64.0732 150.988 64.842C150.988 65.675 151.757 65.8672 153.359 66.1235C154.512 66.3157 155.666 66.572 155.666 67.7894C155.666 69.3912 154.256 69.7757 152.975 69.7757C151.373 69.7757 150.155 69.199 150.091 67.469H150.732C150.86 68.8146 151.757 69.1349 152.975 69.1349C153.936 69.1349 154.961 68.8787 154.961 67.8535C154.961 66.8924 153.808 66.7642 152.654 66.572C151.116 66.3157 150.284 65.8672 150.284 64.842C150.284 63.4324 151.565 62.9839 152.846 62.9839C154.128 62.9839 155.473 63.4324 155.538 64.9702H154.769V65.0983Z" fill="white" stroke="white" stroke-width="0.2"/>
  <path d="M160.343 63.2401H160.984V65.9311H165.597V63.2401H166.238V69.6474H165.597V66.5719H160.984V69.6474H160.343V63.2401Z" fill="white" stroke="white" stroke-width="0.2"/>
  <path d="M171.428 63.2401H172.069V69.6474H171.428V63.2401Z" fill="white" stroke="white" stroke-width="0.2"/>
  <path d="M177.322 63.2401H178.091L182.576 68.6863V63.2401H183.217V69.6474H182.448L177.963 64.2011V69.6474H177.322V63.2401Z" fill="white" stroke="white" stroke-width="0.2"/>
  <path d="M188.471 63.2401H193.597V63.8808H189.176V66.0593H193.469V66.7H189.176V69.1348H193.661V69.7755H188.471V63.2401Z" fill="white" stroke="white" stroke-width="0.2"/>
  <path d="M211.217 67.2128C211.088 68.6224 209.871 69.8398 208.077 69.8398C206.027 69.8398 204.681 68.5583 204.681 66.4439C204.681 64.9702 205.578 63.048 208.077 63.048C209.487 63.048 211.024 63.6888 211.217 65.3547H210.576C210.384 64.1373 209.294 63.6247 208.141 63.6247C206.539 63.6247 205.45 64.5217 205.45 66.3798C205.45 67.7895 206.219 69.135 208.141 69.135C209.679 69.135 210.448 68.3661 210.64 67.1487H211.217V67.2128Z" fill="white" stroke="white" stroke-width="0.2"/>
  <path d="M219.29 63.048C221.084 63.048 222.75 64.1373 222.75 66.4439C222.75 68.6865 221.084 69.8398 219.29 69.8398C217.496 69.8398 215.83 68.7505 215.83 66.4439C215.83 64.2013 217.496 63.048 219.29 63.048ZM219.29 69.1991C220.7 69.1991 222.045 68.3661 222.045 66.4439C222.045 64.5217 220.7 63.6888 219.29 63.6888C217.88 63.6888 216.535 64.5217 216.535 66.4439C216.535 68.3661 217.88 69.1991 219.29 69.1991Z" fill="white" stroke="white" stroke-width="0.2"/>
  <path d="M231.913 67.7252H228.517L227.62 69.6474H226.979L229.862 63.2401H230.631L233.514 69.6474H232.746L231.913 67.7252ZM230.247 63.8808L228.837 67.0844H231.656L230.247 63.8808Z" fill="white" stroke="white" stroke-width="0.2"/>
  <path d="M242.356 65.0983C242.292 64.0091 241.395 63.6887 240.37 63.6887C239.345 63.6887 238.576 64.0732 238.576 64.842C238.576 65.675 239.345 65.8672 240.946 66.1235C242.1 66.3157 243.253 66.572 243.253 67.7894C243.253 69.3912 241.843 69.7757 240.562 69.7757C238.96 69.7757 237.743 69.199 237.679 67.469H238.319C238.448 68.8146 239.345 69.1349 240.562 69.1349C241.523 69.1349 242.548 68.8787 242.548 67.8535C242.548 66.8924 241.395 66.7642 240.242 66.572C238.704 66.3157 237.871 65.8672 237.871 64.842C237.871 63.4324 239.152 62.9839 240.434 62.9839C241.715 62.9839 243.061 63.4324 243.125 64.9702H242.356V65.0983Z" fill="white" stroke="white" stroke-width="0.2"/>
  <path d="M249.854 63.8808H247.355V63.2401H253.058V63.8808H250.559V69.6474H249.918V63.8808H249.854Z" fill="white" stroke="white" stroke-width="0.2"/>
  <defs>
    <linearGradient id="paint0_linear_806_7185" x1="60.2956" y1="5.90941" x2="83.5862" y2="41.3304" gradientUnits="userSpaceOnUse">
      <stop stop-color="white" stop-opacity="0.07"/>
      <stop offset="0.0818886" stop-color="#EDF4F7" stop-opacity="0.15"/>
      <stop offset="0.350576" stop-color="#B1D1DE" stop-opacity="0.8"/>
      <stop offset="0.6267" stop-color="#76AEC4"/>
      <stop offset="0.8678" stop-color="#2C82A5"/>
      <stop offset="1" stop-color="#006892"/>
    </linearGradient>
    <linearGradient id="paint1_linear_806_7185" x1="59.9842" y1="6.11653" x2="83.274" y2="41.5365" gradientUnits="userSpaceOnUse">
      <stop stop-color="white"/>
      <stop offset="0.0849579" stop-color="#F5F9FB"/>
      <stop offset="0.2277" stop-color="#DBEAF0"/>
      <stop offset="0.4106" stop-color="#B1D1DE"/>
      <stop offset="0.6267" stop-color="#76AEC4"/>
      <stop offset="0.8678" stop-color="#2C82A5"/>
      <stop offset="1" stop-color="#006892"/>
    </linearGradient>
    <linearGradient id="paint2_linear_806_7185" x1="98.75" y1="8" x2="71.6105" y2="49.9544" gradientUnits="userSpaceOnUse">
      <stop stop-color="white" stop-opacity="0.05"/>
      <stop offset="0.0604396" stop-color="white" stop-opacity="0.15"/>
      <stop offset="0.5273" stop-color="#79C1D5" stop-opacity="0.9"/>
      <stop offset="0.8532" stop-color="#2298BA"/>
      <stop offset="1" stop-color="#0088AF"/>
    </linearGradient>
    <linearGradient id="paint3_linear_806_7185" x1="108.034" y1="8.43242" x2="79.4061" y2="54.77" gradientUnits="userSpaceOnUse">
      <stop stop-color="white"/>
      <stop offset="0.0604396" stop-color="white"/>
      <stop offset="0.5273" stop-color="#79C1D5"/>
      <stop offset="0.8532" stop-color="#2298BA"/>
      <stop offset="1" stop-color="#0088AF"/>
    </linearGradient>
    <linearGradient id="paint4_linear_806_7185" x1="60.3867" y1="5.8497" x2="83.6776" y2="41.2711" gradientUnits="userSpaceOnUse">
      <stop stop-color="white"/>
      <stop offset="0.0849579" stop-color="#F5F9FB"/>
      <stop offset="0.2277" stop-color="#DBEAF0"/>
      <stop offset="0.4106" stop-color="#B1D1DE"/>
      <stop offset="0.6267" stop-color="#76AEC4"/>
      <stop offset="0.8678" stop-color="#2C82A5"/>
      <stop offset="1" stop-color="#006892"/>
    </linearGradient>
    <linearGradient id="paint5_linear_806_7185" x1="105.873" y1="7.09721" x2="77.2448" y2="53.435" gradientUnits="userSpaceOnUse">
      <stop stop-color="white"/>
      <stop offset="0.0604396" stop-color="white"/>
      <stop offset="0.5273" stop-color="#79C1D5"/>
      <stop offset="0.8532" stop-color="#2298BA"/>
      <stop offset="1" stop-color="#0088AF"/>
    </linearGradient>
  </defs>
</svg> 