<svg xmlns="http://www.w3.org/2000/svg" viewBox="212 196 576 576">
  <path d="M403.47 293.83h193.17l8.84-.11h19.61c9.4 0 24.87-.45 46.7-1.36L680 292c-1.19 16.94-1.43 23.6-1.48 32.58l-.11 25.95-.11 24.6v137.41c0 86.53-19.58 115.91-112.9 162-4.13 2-51.71 25.78-56.68 28.44l-4.72 2.51-4.74 2.51-4.75-2.49-4.77-2.51c-19.61-10.27-39.53-19.31-55-26.9-85.51-41.93-112.9-71.71-112.9-163.54V375.15l-.23-24.6-.11-25.95c-.08-15.69-.24-20.77-1.48-32.58l8.16.34c21.49.9 37.49 1.36 46.82 1.36h19.5Z" style="stroke:#fff;stroke-width:16px;"/>
  <path d="M403.47 293.83h193.17l8.84-.11h19.61c9.4 0 24.87-.45 46.7-1.36L680 292c-1.19 16.94-1.43 23.6-1.48 32.58l-.11 25.95-.11 24.6v137.41c0 86.53-19.58 115.91-112.9 162-4.13 2-51.71 25.78-56.68 28.44l-4.72 2.51-4.74 2.51-4.75-2.49-4.77-2.51c-19.61-10.27-39.53-19.31-55-26.9-85.51-41.93-112.9-71.71-112.9-163.54V375.15l-.23-24.6-.11-25.95c-.08-15.69-.24-20.77-1.48-32.58l8.16.34c21.49.9 37.49 1.36 46.82 1.36h19.5Z"/>
  <polygon points="499.25 699.58 536.02 681.53 536.94 681.19 536.71 680.39 536.71 511.26 536.37 510.23 537.51 510.46 670.56 510.46 671.71 510.81 671.36 509.31 671.36 437.61 671.71 436.47 670.56 436.81 537.51 436.81 536.37 437.04 536.71 435.89 536.71 301.35 536.94 300.2 535.9 300.54 463.06 300.54 461.92 300.2 462.25 301.35 462.25 435.89 462.5 437.04 461.45 436.81 329.44 436.81 328.29 436.47 328.63 437.61 328.63 510 328.29 510.81 329.44 510.46 461.45 510.46 462.5 510.23 462.25 511.61 462.25 680.04 461.92 681.42 462.83 681.65 499.25 699.58" fill="#fff"/>
  <polyline points="538.09 300.54 536.48 300.2 536.71 301.46 536.71 436.13 536.48 437.17 537.97 436.81 670.45 436.81 671.71 437.16 671.36 436 671.36 301.12 671.71 300.2 670.45 300.54 330.01 300.54 328.29 300.2 328.63 301.46 328.63 436.12 328.29 437.16 329.9 436.81 461.34 436.81 462.5 437.17 462.25 436 462.25 301.12 462.5 300.2 461.34 300.54" fill="#fd1813"/>
  <path d="M461.92 510.47H329.1l-.81-.35.34.92v8c0 73.93 24.68 109.89 100.65 146.6l24 11.61 8.37 3.91.69.81-.12-1.16V511.16l.24-1m74.94.31-.92-.35.23.81v169.46l-.23 1.26.92-1 7.58-3.46c103.15-48.54 126.38-77.46 126.38-157.39v-8.51l.35-1.14-1.15.34" fill="#fd1813"/>
  <path d="m350.24 443.47.8.92c.43.5.74.85.92 1l1 1 .92.93-.58.45-1.14 1-.92 1-.34.35v1.07c0 9.31 2.42 15.65 7.59 19.84l.92.75-.92.63-1-.11-2.18-.23-2-.35-1.14-.23-1.17 8.4h-1.61l-1.15-8.27-1.14.23c-1 .21-1.61.33-1.84.35l-2.3.23-1 .11c-.49 0-.87-.17-.87-.35a1.12 1.12 0 0 1 .53-.74l1.72-1.31c1.42-1.1 2.36-2.47 4-5.87a9.59 9.59 0 0 0 1.15-3.79c0-2.42.38-4.36.8-4.36l.24-4.26.11-1.61-.46-.35-.92-1-1.14-1-.47-.45.92-.93a17.63 17.63 0 0 0 2.65-3m43.56-.05a17.49 17.49 0 0 0 2.64 3c.21.2.52.51.92.93l-.45.45-1.15 1-.92 1-.58.35.23 1.61.23 4.26c.33 6.09 3.71 13.12 7.24 15 .61.33 1 .62 1 .75a.54.54 0 0 1-.52.57l-1.49-.05-2.19-.23-2-.35-1.14-.23-1.15 8.27H393l-1.15-8.27-1.15.23-1.95.35-2.19.23-1 .11h-.16c-.46 0-.77-.15-.77-.37a1 1 0 0 1 .47-.73l1.72-1.31c1.5-1.16 1.91-1.75 4-5.87a9.24 9.24 0 0 0 1.27-3.79c0-2.42.31-4.36.69-4.36l.23-4.26.11-1.61-.34-.35-1-1-1.15-1-.46-.45.92-.93c.55-.53.89-.88 1-1s.48-.54.92-1l.8-.92M372.07 469l.8.93.81 1a7.47 7.47 0 0 0 1 1l1 .93-.59.45-1 1-1 .92-.34.46v1.08c0 9.56 2.28 15.52 7.59 19.83l.92.75-.92.63-1-.11-2.18-.23-2-.35-1.14-.23-1.15 8.27h-1.61l-1.15-8.27-1.14.23-2 .35-2.18.23-1 .11h-.12c-.44 0-.8-.17-.8-.38s.21-.43.58-.71l1.72-1.32c3.66-2.81 6.22-10.52 6.22-18.8v-1.08l-.35-.46-1-.92-1-1-.58-.45a20.59 20.59 0 0 0 3.68-3.92m43.59.06a20.19 20.19 0 0 0 3.67 3.92l-.58.45-1 1-1 .92-.34.46v1.08c0 6.24 1.82 13.74 3.91 16.15l2.3 2.65a8.93 8.93 0 0 0 1.27 1l1 .75-.91.63-1-.11-2.18-.23-2-.35-1.15-.23-1.14 8.27h-1.61l-1.15-8.27-1.15.23-2 .35-2.17.23-1 .11h-.12c-.44 0-.8-.17-.8-.39s.19-.44.52-.7l1.67-1.32c3.61-2.87 6.33-10.57 6.33-18.8v-1.08l-.35-.46-1-.92-1-1-.57-.45c.46-.41.8-.71 1-.93a7.7 7.7 0 0 0 1-1l.8-1Zm21.83-25.53a17.36 17.36 0 0 0 2.63 3c.22.2.52.51.92.93l-.45.45-1.16 1-.91 1-.46.35.12 1.61.23 4.26c.31 5.92 3.81 13.2 7.24 15 .59.33 1 .61 1 .75a.52.52 0 0 1-.45.57l-1.44-.05-2.29-.23a18.14 18.14 0 0 1-2-.35l-1-.23-1.14 8.27h-1.61l-1.15-8.27-1.21.29-1.88.29-2.19.23-1 .11h-.15c-.43 0-.78-.16-.78-.35s.2-.48.53-.75l1.67-1.31c1.52-1.22 2-1.93 4-5.87a9.48 9.48 0 0 0 1.26-3.79c0-2.42.32-4.36.69-4.36l.23-4.26.12-1.61-.35-.35-1-1a17.2 17.2 0 0 0-1-1 6.11 6.11 0 0 0-.58-.45l.93-.93 1-1 .92-1 .81-.92m123.86-.26.82 1 .79.92 1 1.15c.12.15.56.52 1 .92l-.57.45-1 1-1 .91-.35.45v1c0 9.26 3.1 17.34 7.59 19.8.7.39 1 .68 1 1l-.07.14-.92.23h-1a20.58 20.58 0 0 1-5.29-.92l-1.14 8.27h-1.61l-1.15-8.27a20.51 20.51 0 0 1-5.3.92h-1c-.68 0-1-.11-1-.39s.29-.63 1-1c4.41-2.29 7.58-10.56 7.58-19.8v-1l-.34-.45-1-.91-1-1-.57-.45c.47-.4.81-.7 1-.92l1-1.15.81-.92Zm43.78 0 .81 1 .91.92 1 1.15.92.92-.57.45-1 1-1 .91-.34.45v1c0 9.16 3.15 17.39 7.58 19.8.7.39 1 .68 1 1l-.08.14-.92.23h-1a20.65 20.65 0 0 1-5.29-.92l-1.14 8.27h-1.68l-1.15-8.27a18.86 18.86 0 0 1-5.73.93c-1.26 0-1.52-.08-1.52-.46s.27-.6 1-.93a11.36 11.36 0 0 0 3.56-3.67c1.82-2.92 2.86-5.42 2.87-6.89 0-2.49.37-4.49.8-4.49l.24-4.25.1-1.5-.45-.45a21.41 21.41 0 0 0-2.64-2.41l1-.92 1-1.15.92-.92Zm-21.83 25.51.8.92.92 1c.15.14.44.54 1 1.09.2.2.58.44 1 .85l-.58.47-1 1.15-1 .92-.34.46.11 1.49.23 4.25c.35 6.28 3.62 13.07 7.24 15.05.69.38 1 .68 1 1l-.08.14-.92.22h-1a21.06 21.06 0 0 1-5.29-.91l-1.15 8.28h-1.6l-1.15-8.28a18.54 18.54 0 0 1-5.76.92c-1.18 0-1.46-.09-1.46-.51s.27-.55 1-.87a11.42 11.42 0 0 0 3.56-3.68c1.87-3.07 3-5.63 3-6.89 0-2.48.3-4.48.69-4.48l.23-4.25.11-1.49-.46-.46-.92-.92-1.15-1.15-.46-.47.92-.92a17.43 17.43 0 0 0 2.64-3m43.99.07.8.92.92 1 1 1 .92.92-.46.47c-.64.66-1 1-1.15 1.15-.62.53-1 .84-1 .92s-.17.22-.34.46l.11 1.49.23 4.25c.35 6.28 3.61 13.07 7.24 15.05.69.38 1 .68 1 1l-.08.14-.92.22h-1a20.84 20.84 0 0 1-5.28-.91l-1.16 8.28h-1.52l-1.27-8.28a18.43 18.43 0 0 1-5.75.92c-1.18 0-1.46-.09-1.46-.51s.27-.55 1-.87a11.23 11.23 0 0 0 3.57-3.68c1.88-3.07 3-5.63 3-6.89 0-2.48.3-4.48.69-4.48l.22-4.25.12-1.49-.47-.46-.92-.92-1.14-1.15-.46-.47.92-.92a17.43 17.43 0 0 0 2.64-3m21.83-25.42.8 1 .92.92 1 1.15.92.92-.57.45-1 1-1 .91-.34.45v1c0 9.16 3.15 17.39 7.58 19.8.69.39 1 .68 1 1l-.08.14-.92.23h-1a20.44 20.44 0 0 1-5.28-.92l-1.16 8.27h-1.61l-1.15-8.27a18.75 18.75 0 0 1-5.72.93c-1.26 0-1.51-.08-1.51-.46s.26-.6 1-.93a11.46 11.46 0 0 0 3.56-3.67c1.82-2.92 2.86-5.42 2.87-6.89 0-2.49.37-4.49.8-4.49l.23-4.25.11-1.5-.46-.45c-.5-.51-.8-.82-.92-.91l-1.14-1-.46-.45.92-.92 1-1.15.92-.92ZM479.38 561.93a18.14 18.14 0 0 0 2.63 3c.22.2.52.5.92.91l-.45.47-1.15 1-.92 1-.46.46.12 1.49.23 4.25a25 25 0 0 0 3.7 11.43 11.5 11.5 0 0 0 3.57 3.68c.76.34 1 .59 1 .93s-.28.45-1.63.45a18.8 18.8 0 0 1-5.62-.92l-1.15 8.28h-1.61l-1.15-8.28a20.84 20.84 0 0 1-5.28.91h-1c-.67 0-1-.11-1-.39s.29-.63 1-1a11.16 11.16 0 0 0 3.57-3.68c2-3.37 3-5.6 3-6.89 0-2.48.32-4.48.69-4.48l.23-4.25.12-1.49-.35-.46-1-1-1-1-.57-.47.92-.91 1-1 .92-1 .81-.91m40.92-.13a18.43 18.43 0 0 0 2.65 3l.92.91-.46.47-1.15 1-.92 1-.46.46.11 1.49.23 4.25a25 25 0 0 0 3.69 11.43 11.39 11.39 0 0 0 3.56 3.68c.77.34 1.06.59 1.06.93s-.29.45-1.64.45a18.69 18.69 0 0 1-5.62-.92l-1.15 8.28h-1.6l-1.16-8.28a21 21 0 0 1-5.29.91h-1c-.67 0-1-.11-1-.39s.3-.63 1-1a11.14 11.14 0 0 0 3.56-3.68c2-3.37 3-5.6 3-6.89 0-2.48.3-4.48.68-4.48l.24-4.25.1-1.49-.34-.46-1-1-1-1-.58-.47c.4-.41.71-.71.92-.91l1-1 .92-1 .79-.91m-20.97 37.1.52 1.2 1.09.75 1 1.15.92.92-.46.46-1.15 1c-.11.09-.41.4-.92.91-.11.1-.26.25-.46.47l.11 1.48.23 4.26c.34 6.22 3.84 13.49 7.24 15 .79.37 1 .58 1 .9l-.12.25-.8.34-1-.1-2.3-.24a18.42 18.42 0 0 1-1.95-.34l-1-.23-1.27 8.27h-1.48l-1.16-8.27-1.14.23-2 .34-2.19.24-1 .1h-.12c-.51 0-.83-.2-.83-.51s.27-.61.95-1a11.12 11.12 0 0 0 3.57-3.67c2-3.39 3-5.6 3-6.89 0-2.48.31-4.48.69-4.48l.24-4.26.1-1.48-.34-.47-1-.91-1-1-.58-.46.92-.92 1-1.15.93-.92Zm-20.33 37.91.8 1 .92.92 1 1.15.75 1.08-.41.3-1 1-1 .91-.34.46.11 1.5.23 4.25c.35 6.28 3.61 13.07 7.24 15 .69.38 1 .68 1 1l-.07.15-.92.23h-1a31.7 31.7 0 0 1-5.29-.81l-1.17 8.28h-1.61l-1.15-8.16a26.06 26.06 0 0 1-5.76.82c-1.18 0-1.46-.11-1.46-.53s.28-.55 1-.86a11.42 11.42 0 0 0 3.56-3.68c1.88-3.06 3-5.62 3-6.89 0-2.47.31-4.48.69-4.48l.23-4.25.11-1.5-.46-.46c-.5-.51-.81-.81-.92-.91l-1.15-1-.45-.47.92-.91 1-1.15.92-.92Zm41.24 0 .69 1 .92.92.87 1.32 1.09.74-.46.47-1.15 1-.92.91-.46.46.11 1.5.23 4.25a25 25 0 0 0 3.69 11.44 11.5 11.5 0 0 0 3.56 3.68c.77.33 1.06.59 1.06.94s-.29.45-1.54.45a26.07 26.07 0 0 1-5.72-.82l-1.15 8.16h-1.6l-1.16-8.16a31.56 31.56 0 0 1-5.29.81h-1c-.67 0-1-.12-1-.4s.3-.63 1-1a11 11 0 0 0 3.56-3.68c2-3.38 3-5.59 3-6.89 0-2.47.3-4.48.68-4.48l.24-4.25.1-1.5-.34-.46-1-.91-1-1-.58-.47.92-.91 1-1.15.92-.92Zm-20.91-112.59.69 1 .92.92 1 1.15.92.91-.46.46-1.15 1c-.11.09-.41.4-.92.92l-.46.46.11 1.49.23 4.25c.34 6.21 3.91 13.63 7.24 15 .76.32 1 .55 1 .89s-.3.51-1.46.51a26.21 26.21 0 0 1-5.76-.82l-1.21 8.38h-1.48l-1.16-8.28a32.28 32.28 0 0 1-5.29.8h-1c-.67 0-1-.12-1-.39s.29-.64 1-1a11.06 11.06 0 0 0 3.57-3.68c2-3.37 3-5.6 3-6.89 0-2.47.31-4.48.69-4.48l.24-4.25.1-1.49-.34-.46-1-.92-1-1-.58-.46.92-.91 1-1.15.93-.92ZM478.8 314.79c.36.41.62.72.81.92.43.5.74.84.92 1s.49.5 1 1l.92.91-.47.47-1.14 1-1 1-.35.35.12 1.61.23 4.13c.22 4 2 9.57 3.67 11.5l2.3 2.63a10.54 10.54 0 0 0 1.27 1l1 .75-1 .63-1-.12-2.19-.23-1.94-.34-1.15-.23-1.27 7.93-1.38.34-1.15-8.1-1.14.23-2 .34-2.18.23-1.21.12c-.42 0-.76-.16-.76-.36a1.14 1.14 0 0 1 .47-.73l1.73-1.33c1.49-1.12 1.91-1.73 4-5.86a9.27 9.27 0 0 0 1.26-3.78c0-2.48.32-4.49.69-4.49l.23-4.13.12-1.61-.46-.35-.92-1-1.15-1-.45-.47.92-.91a17.74 17.74 0 0 0 2.63-3m41.61-.05a18 18 0 0 0 2.65 3l.92.91-.46.47-1.15 1-.92 1-.46.35.11 1.61.23 4.13c.34 6.09 3.79 13.31 7.24 15.17.61.33 1 .61 1 .75a.52.52 0 0 1-.46.57l-1.44-.06-2.29-.23a15.91 15.91 0 0 1-2-.34l-1-.23-1.15 8.27h-1.6l-1.16-8.27-1.26-.12-1.84.69-2.19.23-1 .12H512c-.42 0-.77-.16-.77-.36a1.16 1.16 0 0 1 .53-.74l1.66-1.33c1.53-1.2 2-1.93 4-5.86a9.79 9.79 0 0 0 1.27-3.78c0-2.48.31-4.49.68-4.49l.24-4.13.1-1.61-.34-.35-1-1c-.52-.53-.86-.88-1-1l-.58-.47.92-.91 1-1 .92-1 .79-.92m-21.17 35.89.81.92.92 1c.55.62.9 1 1 1.14s.5.53.92.93l-.57.46-1 1-1 .91-.35.46.12 1.49.11 3.91c.34 6.27 3.72 13.42 7.36 15.39.69.39 1 .68 1 1l-.07.14-.92.23h-1a20.51 20.51 0 0 1-5.28-.92l-1.15 8.28h-1.61l-1.14-8.28a18.51 18.51 0 0 1-5.74.93c-1.25 0-1.52-.08-1.52-.46s.29-.6 1-.93a11.37 11.37 0 0 0 3.57-3.67c1.82-2.91 2.87-5.42 2.87-6.89 0-2.49.37-4.49.8-4.49l.23-4.25.13-1.49-.47-.46c-.5-.52-.81-.83-.91-.91l-1.15-1-.47-.46.93-.93 1-1.14c.54-.59.84-.94.91-1s.4-.51.69-.92m-20.58 35.86.8.92.81 1a9.68 9.68 0 0 0 1 1l1 .92c-.33.24-.52.41-.58.45l-1 1-1 1-.34.35v1.07c0 6.06 1.8 13.64 3.8 15.82l2.53 3 1.26 1 .92.75-.92.63-1-.12-2.17-.22-2-.35-1.15-.23-1.16 8.41h-1.61l-1.14-8.27-1.15.23-2 .35-2.18.22-1 .12h-.15c-.42 0-.78-.16-.78-.37s.2-.46.53-.74l1.67-1.31c3.82-3 6.33-10.46 6.33-18.81v-1.07l-.35-.35-1-1c-.51-.53-.86-.87-1-1s-.3-.23-.59-.45l1-.92a10 10 0 0 0 1-1l.8-1Zm41.47 0 .81.92.92 1 1 1 .92.92-.57.45-1 1-1 1-.35.35.11 1.76.23 4.25c.34 6.33 2.8 11.44 7.24 15.05l.92.75-.92.63-1-.12-2.18-.22-2-.35-1.15-.23L521 423h-1.61l-1.26-8.62c-2.1.48-2.17.86-2.87.93l-2.3.22-1 .12h-.13c-.41 0-.7-.15-.7-.39a1.1 1.1 0 0 1 .47-.72l1.73-1.31c1.49-1.15 1.93-1.77 4-5.86a9.77 9.77 0 0 0 1.26-3.79c0-2.42.32-4.37.69-4.37l.22-4.25.13-1.61-.47-.35-.91-1-1.15-1-.46-.45c.4-.41.7-.72.92-.92a17.3 17.3 0 0 0 2.63-3m-86.08-18.53.46 1.73c.41 1.55.72 2.77.92 3.67 1.44 6.56 2.67 8.29 5.85 8.29a3.81 3.81 0 0 0 3.8-2.54l.69-2.3a1.1 1.1 0 0 1 1.1-.84c1.24 0 1.82 1.3 1.88 4.17a50.36 50.36 0 0 0 .81 5.63 28.58 28.58 0 0 1 .46 5 8.21 8.21 0 0 1-.69 3.6 47.77 47.77 0 0 1 .7 7 14.4 14.4 0 0 1-1.39 6.86 14.1 14.1 0 0 1 .58 4.33 21.15 21.15 0 0 1-.35 3.83 28.59 28.59 0 0 0-.61 4 4.73 4.73 0 0 0 .26 1.53 5.15 5.15 0 0 1 .35 1.38c0 .32-.16.58-.35.58l-2.29-.92-2.53-1.38a12.08 12.08 0 0 1-2.65-2.06c-2.22 2-2.88 2.31-8.72 3.9a8.15 8.15 0 0 0-2.53 1 3.71 3.71 0 0 1-1.54.81c-1 0-1.45-1.59-1.45-4.87a26.59 26.59 0 0 1 .69-6.4 13.08 13.08 0 0 0-4.11-1c-.17 0-.75.07-1.75.23h-.42c-.35 0-.62-.49-.62-1.1a9 9 0 0 1 .7-2.49l1.14-2.76a9.92 9.92 0 0 1 2.76-3.32 7.19 7.19 0 0 1 3-1.73l4.14-.81c2.46-.48 3.91-1.77 3.91-3.48s-1.1-2.78-3.57-3.64l-4.94-1.73a26.68 26.68 0 0 1-4.48-2.17c-2.74-1.62-3.2-1.84-3.85-1.84-1 0-1.56.73-1.56 2a3.21 3.21 0 0 0 3.21 3.48 3.08 3.08 0 0 0 1.16-.23 3.87 3.87 0 0 1 1.18-.35.76.76 0 0 1 .81.87v.51l-.23 2c-.2 1.67-1.27 3.69-3.68 6.89l-1 1.37a15.71 15.71 0 0 1-6.2 9.09 10.56 10.56 0 0 0-1.25.91 13.45 13.45 0 0 0-.93 1.61 19.11 19.11 0 0 1-2.3 2.76 22.7 22.7 0 0 1-2.87 2.64 10.46 10.46 0 0 0-2.29 2.07l-1.15 2a1.11 1.11 0 0 1-.93.57c-1 0-1.95-1.06-2.53-2.87-.42-1.34-.79-1.73-1.66-1.73a8.85 8.85 0 0 0-2 .35l-1.61.23h-4.14a18.62 18.62 0 0 0-6.32 1.15 3.17 3.17 0 0 1-1.19.37c-.28 0-.45-.16-.75-.72a1.48 1.48 0 0 1-.26-.92c0-2.1 1.49-6.05 3.47-9.19a11.9 11.9 0 0 1 3.1-3.67 5.21 5.21 0 0 0-3.22-3.92l-2.03-.53a.63.63 0 0 1-.48-.57c0-.59.94-1.41 2.65-2.31a14.39 14.39 0 0 1 6.31-1.84 9.45 9.45 0 0 1 5.88 2.42c3.11 2.44 3.95 2.87 5.47 2.87a5 5 0 0 0 4.79-4.6c0-1.57-.84-3.26-3-6.09-3.22-4.14-4.17-6.3-4.17-9.33a11.58 11.58 0 0 1 1.29-5.37l1.15-1.73a2 2 0 0 0 .38-1.1c0-.76-.88-1.31-2.08-1.31-1.82 0-5.29 1.29-8.07 3-1.38.84-2.31 1.84-2.31 2.44a1 1 0 0 0 .47.89l1.27.81a.55.55 0 0 1 .25.47 2.06 2.06 0 0 1-.49.9l-2.29 3a38.67 38.67 0 0 1-4.83 5.05 9.8 9.8 0 0 0-1.15 1.15s-.31.61-.92 1.73a17.74 17.74 0 0 1-5 5.17 8.51 8.51 0 0 0-1.6 1.26 9.88 9.88 0 0 0-.92 1.61c-.3.57-.8 1.37-1.5 2.41a25.92 25.92 0 0 1-2.76 3.57l-3.21 3.22c-1 1-1.86 2.9-3.22 7.11-.82 2.55-1.55 4-2 4-.18 0-.51-.25-.9-.69C359 420.53 357 419 356 419a3.19 3.19 0 0 0-1.28.59 8.94 8.94 0 0 1-3.1 1.14l-4.26.81c-3.2.61-4.47 1.3-6.32 3.45-.44.51-.8.8-1 .8-.35 0-.61-.57-.61-1.34l.12-1.07.58-3.1a25.69 25.69 0 0 1 2.29-7.48l2-3.56a4.13 4.13 0 0 0 .57-1.86c0-2.65-2.74-5.07-6.09-5.37-.84-.08-1.16-.29-1.16-.75s.94-1.74 2.19-2.7c2.31-1.75 5.32-3 7.25-3a15.83 15.83 0 0 1 5.17 1.38l2.52 1a6.69 6.69 0 0 0 2.56.59c2.68 0 5.27-2.43 8.47-7.94 1.44-2.47 2.07-4.27 2.07-5.89 0-2.91-1.38-4.68-3.65-4.68a7.31 7.31 0 0 0-5 2.19 5.14 5.14 0 0 0-1.78 3.55v1.56c0 1.07-.36 1.67-1 1.67-1.08 0-2.66-1.55-7.17-7-3.36-4.08-4.11-5.82-4.25-9.89-3.9-5-4.87-7.07-4.87-10.61l.16-2.37c-2.69-3.24-3.46-5-3.46-8a6 6 0 0 1 .82-3 11.76 11.76 0 0 1-2.19-4.47l-.57-2.42a12.23 12.23 0 0 0-1.84-4.24c-1.05-1.49-1.15-1.69-1.15-2.2 0-1.33.92-1.87 4.94-2.86a19.61 19.61 0 0 1-.24-2.55 14.43 14.43 0 0 1 .36-2.74l.81-4.25a23.12 23.12 0 0 0 .48-3.68 21.83 21.83 0 0 0-1.87-6.32 4.53 4.53 0 0 1-.7-1.57c0-.4.29-.63.8-.63 1.14 0 4.15 1.82 7.26 4.39 6.59 5.46 7.95 7.65 8.85 14.25.06.51.18 1.28.34 2.3 3.16 2.33 4.82 5.13 4.82 8.14a14.23 14.23 0 0 1-2.3 7.37l-2.3 3.56a7.05 7.05 0 0 0-1 3.8 13.44 13.44 0 0 0 2.17 6.89c1.77 3.08 3.26 4.37 5.12 4.37 3 0 5.7-5.28 5.7-11.28v-2.87a29.85 29.85 0 0 1 .25-3.78c.21-1.79.32-2.9.34-3.33l.12-2.77v-1.81a3.48 3.48 0 0 0-1.19-2.21l-2.52-2.74c-3.67-4-5.68-7.74-5.68-10.55a5.87 5.87 0 0 1 5.88-6.11 8.52 8.52 0 0 1 2.43.45v-.79c0-5.06 1-8.8 2.44-8.8l.54.17 2.08 1.84 2.53 1.6.69.69c0-1.42.06-1.57 1.49-3.21.35-.4.87-1.14 1.6-2.19.59-.84 1-1.42 1.15-1.72a10.51 10.51 0 0 0 .58-1c.31-.58.61-.85 1-.85s.57.42 1 1.67c.27.78.46 1 2.41 2.75a7.31 7.31 0 0 1 1.38 1.49 16.18 16.18 0 0 1 .92 2.3l.35.91a7.05 7.05 0 0 1 2.3-2.06l1.71-1a4 4 0 0 1 1.29-.6c.14 0 .36.28.55.71s.5 1 .93 1.73c1.22 2.13 1.63 3.15 1.63 4.15v2.51c3.76 1.18 5.17 3.14 5.17 7.19 0 2.94-1.53 6.29-4.48 9.81-2 2.36-2.21 2.82-2.21 4.47 0 8.5 5.92 13.42 16.34 13.58l7.7.11a37 37 0 0 1 12.52 2.06c5.46 1.79 7 2.19 8.63 2.19a2.6 2.6 0 0 0 1.48-.47 1.37 1.37 0 0 0 .69-1c0-1.62-2.83-2.9-12.07-5.53-18.94-5.37-27-13-27-25.55 0-9.7 8.07-17.21 18.49-17.21a40.22 40.22 0 0 1 11.49 2l4.71 1.73a7.36 7.36 0 0 0 2.47.47c1.6 0 2.42-1.33 2.47-4 0-1.45.36-1.95 1.31-1.95 1.33 0 3.38 1.66 5.24 4.25s3.1 5.57 3.1 7.55c0 2.61-1.21 4.43-4 6-2.57 3.92-5.75 5.74-10 5.74-3.33 0-8-1.88-15.84-6.31-2.73-1.56-4.1-2.07-5.54-2.07-2 0-3.36 1.18-3.36 3 0 1.64 1.29 2.72 4.65 3.9 5 1.73 6.18 2.41 8.16 4.48 5.85 1 8.4 2 12.06 4.83 10.09 3.2 16.34 10.06 16.34 18 0 7.66-5.19 13.18-12.4 13.18a22.67 22.67 0 0 1-5.43-.7m214.35-.21.46 1.73c.42 1.55.72 2.77.92 3.67 1.46 6.56 2.67 8.29 5.87 8.29a3.8 3.8 0 0 0 3.78-2.54l.69-2.3a1.1 1.1 0 0 1 1.1-.84c1.25 0 1.92 1.38 2 4.17q.06 1.59.69 5.63a34 34 0 0 1 .46 5.32 7.94 7.94 0 0 1-.69 3.3l.23 1.38a24 24 0 0 1 .49 4.21c0 4.93-.24 6.39-1.41 8.31a14.42 14.42 0 0 1 .6 4.13 32.7 32.7 0 0 1-.37 4l-.46 3.44.12 2.07a6.79 6.79 0 0 1 .46 1.38.53.53 0 0 1-.46.58l-2.3-.92-2.53-1.38a11.63 11.63 0 0 1-2.63-2.06c-2.23 2-2.54 2.14-5.18 2.86-3.82 1.05-5.22 1.54-6 2.07a3.86 3.86 0 0 1-1.59.81c-.9 0-1.52-1.73-1.52-4.27 0-3.67.22-5.57.8-7a14.42 14.42 0 0 0-4.17-1 9.12 9.12 0 0 0-1.68.23h-.52c-.33 0-.53-.41-.53-1.09a13.93 13.93 0 0 1 1.85-5.27c1.44-2.57 3.82-4.7 5.63-5.05l4.14-.81c2.46-.48 3.91-1.77 3.91-3.49s-1.07-2.74-3.56-3.63l-4.83-1.73a24.83 24.83 0 0 1-4.6-2.17 51.9 51.9 0 0 0-2.53-1.5 2.57 2.57 0 0 0-1.24-.35c-1 0-1.64.74-1.64 2a3.47 3.47 0 0 0 3.33 3.57 3 3 0 0 0 1.16-.24 3.56 3.56 0 0 1 1.06-.35c.52 0 .91.51.91 1.23a14.56 14.56 0 0 1-2.66 7.28l-1.38 1.72-1 1.37c-.4 3-3.29 7.21-6.22 9.09a7.91 7.91 0 0 0-1.26.91c-.09.11-.39.66-.91 1.61a19.87 19.87 0 0 1-2.3 2.76 21.46 21.46 0 0 1-2.88 2.64 10.46 10.46 0 0 0-2.29 2.07l-1.15 2a1 1 0 0 1-.9.59c-1 0-2-1.07-2.55-2.89-.43-1.34-.79-1.73-1.66-1.73a8.93 8.93 0 0 0-2 .35l-1.62.23h-4a18.77 18.77 0 0 0-6.43 1.15 3.2 3.2 0 0 1-1.2.37c-.58 0-.9-.6-.9-1.76 0-3.64 2.8-9.18 6.46-12.74-.54-2.12-1.65-3.52-3.11-3.92-1.29-.34-2-.53-2.06-.56a.66.66 0 0 1-.35-.56c0-.74.82-1.46 2.64-2.32 3.26-1.54 4.22-1.84 6-1.84a9.29 9.29 0 0 1 6 2.42c3.12 2.43 4 2.88 5.47 2.88a5 5 0 0 0 4.8-4.59c0-1.6-.87-3.36-3-6.11-3.06-3.91-4.14-6.46-4.14-9.77 0-2.22.45-3.43 2.42-6.66a2.72 2.72 0 0 0 .48-1.21c0-.64-1-1.2-2.2-1.2a12.36 12.36 0 0 0-4.83 1.38c-3.46 1.59-5.52 3.06-5.52 4a1.23 1.23 0 0 0 .58 1l1.15.81a.56.56 0 0 1 .25.48 1.82 1.82 0 0 1-.48.89c-.22.27-1 1.26-2.29 3a26.37 26.37 0 0 1-4.82 5.05 5 5 0 0 0-1.17 1.15l-.91 1.73a19.29 19.29 0 0 1-4.94 5.17 12.69 12.69 0 0 0-1.6 1.26 9 9 0 0 0-1 1.61 34 34 0 0 1-4.26 6l-3.09 3.22c-.89.92-2.14 3.57-3.34 7.11-.94 2.78-1.55 4-2 4-.19 0-.52-.25-.9-.69-2.23-2.55-4.23-4.14-5.21-4.14a3.4 3.4 0 0 0-1.34.58 9.44 9.44 0 0 1-3.1 1.14l-4.14.81c-3.46.67-4.84 1.42-6.44 3.45-.39.51-.72.8-.91.8-.4 0-.71-.59-.71-1.4l.14-1c0-.11.21-1.15.56-3.1a26.13 26.13 0 0 1 2.31-7.48l2.07-3.56a3.83 3.83 0 0 0 .57-1.85c0-2.65-2.47-4.79-6.2-5.38-.77-.12-1.16-.41-1.16-.84s.9-1.55 2.31-2.61c2.43-1.85 5.12-3 7-3a15.12 15.12 0 0 1 5.27 1.37l2.52 1a6.66 6.66 0 0 0 2.57.59c2.68 0 5.26-2.43 8.47-7.94 1.44-2.48 2.07-4.27 2.07-5.91 0-2.91-1.36-4.66-3.62-4.66a6.84 6.84 0 0 0-4.89 2.19 5.54 5.54 0 0 0-1.91 3.65l.07 1.17v.61c0 .93-.31 1.35-1 1.35-.86 0-1.88-.84-3.86-3.23l-3.15-3.85c-3.49-4.08-4.22-5.73-4.36-9.89-3.91-5-4.86-7.73-4.86-10.61l.14-2.37c-2.79-3.35-3.33-4.65-3.33-8a5.24 5.24 0 0 1 .69-3.07 11.56 11.56 0 0 1-2.18-4.47l-.58-2.42a12.12 12.12 0 0 0-1.84-4.24c-1-1.48-1.15-1.7-1.15-2.13 0-1.21 1.15-2 4-2.7l.92-.23a19.61 19.61 0 0 1-.24-2.55 14.18 14.18 0 0 1 .35-2.74l.81-4.25a22.6 22.6 0 0 0 .47-3.77 11.61 11.61 0 0 0-.7-3.58 10.26 10.26 0 0 0-1.15-2.65 3.08 3.08 0 0 1-.69-1.5c0-.4.39-.7.91-.7a2.85 2.85 0 0 1 1.16.37 45.23 45.23 0 0 1 11.14 8.84c2.61 2.9 3.43 5.3 4 11.73 3.52 2.62 4.84 5 4.84 8.71a12.16 12.16 0 0 1-2.31 6.8c-1.4 2.15-2.17 3.34-2.3 3.56a7.65 7.65 0 0 0-1 3.89c0 2.08.63 4 2.19 6.8 1.72 3 3.26 4.37 5.09 4.37 3 0 5.74-5.22 5.74-10.95v-4.23l.35-2.75.23-3.33.23-2.77.08-1.53c0-1.13-.23-1.46-3.77-5.23-3.9-4.2-5.75-7.71-5.75-11a5.83 5.83 0 0 1 5.86-5.68 8.58 8.58 0 0 1 2.43.45v-1.38l.11-2.41.69-3c.55-2.38.8-2.81 1.62-2.81l.57.17 2.06 1.84 2.53 1.6.69.69c.16-1.43.29-1.71 1.5-3.21.59-.75 1.13-1.48 1.6-2.19l1.15-1.72.69-1c.46-.68.66-.86 1-.86s.52.4.88 1.68a3.21 3.21 0 0 0 1 1.48l1.5 1.27a8.23 8.23 0 0 1 2.52 4.7 6.85 6.85 0 0 1 2.3-2.06l1.84-1a4.79 4.79 0 0 1 1.21-.59c.12 0 .32.28.51.7a14.33 14.33 0 0 0 .92 1.73c1.49 2.38 1.62 2.71 1.62 4.32v2.34c3.73 1 5.18 3 5.18 7.16 0 3.09-1.41 6.27-4.38 9.84-2 2.37-2.3 3.1-2.3 4.87 0 8.11 6.11 13 16.44 13.18l7.58.11a37 37 0 0 1 12.52 2.06c5.32 1.75 7.06 2.19 8.67 2.19 1.17 0 2.14-.66 2.14-1.43 0-1.67-2.79-2.95-12.06-5.58-18.93-5.35-27-13-27-25.54 0-9.71 8.1-17.21 18.59-17.21a40.25 40.25 0 0 1 11.4 2l4.7 1.73a7.42 7.42 0 0 0 2.48.47c1.62 0 2.23-1 2.47-4 .11-1.35.54-1.95 1.4-1.95 1.21 0 3.56 1.89 5.26 4.25s3 5.62 3 7.71c0 2.44-1.28 4.3-4 5.85-2.58 3.92-5.75 5.74-10 5.74-3.27 0-8.82-2.21-15.83-6.31-2.75-1.62-4-2.07-5.5-2.07-2.07 0-3.39 1.16-3.39 3 0 1.65 1.22 2.69 4.63 3.9 5.44 1.94 6.61 2.58 8.16 4.48 5.86 1 8.4 2 12.07 4.83 10.48 3.36 16.32 9.84 16.32 18.13 0 7.55-5.13 13-12.24 13a22.46 22.46 0 0 1-5.58-.7M436.29 585a18 18 0 0 1 1.5 5.41l.23 4.82q.25 7.25 4.82 7.24a3.59 3.59 0 0 0 2.53-.81l1.27-1.26.5-.15c.8 0 1.24.53 1.24 1.5l-.14 1.87a26.47 26.47 0 0 0 .46 5.28 31.93 31.93 0 0 1 .35 4.64 12.28 12.28 0 0 1-1 5.59 21.73 21.73 0 0 1 1.26 6.93 9.34 9.34 0 0 1-1.37 5.59 15.3 15.3 0 0 1 .57 3.9A27.38 27.38 0 0 1 448 640a22.85 22.85 0 0 0-.45 5.51v.3c0 .72-.23 1.08-.67 1.08a2.09 2.09 0 0 1-1.42-.92c-.7-.9-1.15-1.23-1.68-1.23-.8 0-1.05.42-2.23 3.88a15.19 15.19 0 0 1-2.75 4.24 9.84 9.84 0 0 0-2.07 3.34 30.2 30.2 0 0 1-.69 2.41.9.9 0 0 1-.69.57h-.14c-1.89 0-4.07-4-6.29-11.73-.63-2.15-1.43-3.12-2.6-3.12a2.24 2.24 0 0 0-2 1.29l-.7 1.6a.7.7 0 0 1-.6.47c-.92 0-2.32-1.67-3.19-3.8a14.61 14.61 0 0 1-1.12-5.28c0-3.6 2.65-6.29 10.66-10.81 3.48-2 4.83-4.45 4.83-9 0-3.57-1.07-5.61-4.14-7.93-2.43-1.83-3.84-2.53-5.12-2.53A1.79 1.79 0 0 0 423 610c0 1.08.62 1.74 2.12 2.27 1.77.62 2.54 1.25 2.54 2a11 11 0 0 1-2 4.16 10.75 10.75 0 0 1-3.68 3.8c-.54 3.15-2 5.18-5.52 7.46a12 12 0 0 1-2.3 4.25l-2.4 3.1a9.73 9.73 0 0 0-1.73 3.57c-.25 1.75-.42 2.07-1.09 2.07-.91 0-2.78-1.62-4.66-4a5.61 5.61 0 0 1-1.49-3.79c-1.2.93-1.57 1.07-3.91 1.37a10.32 10.32 0 0 0-3.1.81 8.86 8.86 0 0 1-2.66 1.19c-.47 0-.64-.26-.67-1.08l-.12-2.52a17.88 17.88 0 0 1 3.45-10.22 11.33 11.33 0 0 0-5.63-3c-.68-.06-.86-.15-.86-.4a4.59 4.59 0 0 1 1.09-2.12 17 17 0 0 1 2.07-2.3 11.4 11.4 0 0 1 6.66-2.41 20.78 20.78 0 0 1 6.55 1.61 8 8 0 0 0 2.74.57c1.27 0 2-.81 2-2.27 0-2.08-1-5.35-3.34-10.6-1.57-3.56-2.28-5.93-2.28-7.59 0-4 1.88-8.11 4.23-9.3a4.74 4.74 0 0 0-2.57-.69 6.45 6.45 0 0 0-3.51 1.15c-1.72 1-2.66 1.87-2.66 2.45 0 .23.35.59.93 1 .9.63 1.05.87 1.05 1.7 0 2.84-2.36 6.63-5.64 9.1a10.09 10.09 0 0 1-6.21 8.15c-.47 2.19-.78 2.84-2.53 5.29-3 4.23-3.71 5.55-4.25 7.93-.28 1.23-.56 1.74-.94 1.74s-1.51-.76-2.62-2a23.59 23.59 0 0 1-1.84-2.18 11.25 11.25 0 0 1-1.27-3.68 4.58 4.58 0 0 1-1.63.28h-2.83a14.23 14.23 0 0 0-6.56 1.41 2.85 2.85 0 0 1-1 .46c-.75 0-1.34-1.56-1.34-3.49a18.38 18.38 0 0 1 3.83-11.33 19.4 19.4 0 0 1-2.18-2.07 5 5 0 0 0-.92-.81l-1.27-.69c-.43-.23-.69-.52-.69-.75 0-.61 1.68-2.2 3.68-3.49a10.44 10.44 0 0 1 5.56-2.08c1.89 0 2.89.49 5.25 2.54 1.62 1.42 2.73 2.06 3.53 2.06a2.21 2.21 0 0 0 1.64-1 3 3 0 0 0 .58-1.71c0-2.2-2.63-5.91-5.53-7.83a12.51 12.51 0 0 0-6.85-2.18 7.74 7.74 0 0 0-7.12 4.09l-1.26 2.63c-.3.63-.67.94-1.1.94-.73 0-1.12-.33-3.73-3.34l-3-3.45a9.14 9.14 0 0 1-1.84-3 9.19 9.19 0 0 0-.57-1.49 7.23 7.23 0 0 0-1.16-.92c-2.29-1.63-4-4.86-4.93-9.54-.07-.34-.18-.84-.35-1.49a18.91 18.91 0 0 1-4.49-11.43 5.37 5.37 0 0 1 .24-1.56c-1.63-1.65-1.83-2-3.1-6.43-.92-3.14-1.51-4.47-2.65-6a1.93 1.93 0 0 1-.46-.89c0-.62 1-1.14 2.65-1.41a11.67 11.67 0 0 1 2.31-.27l2.28.15-.13-3.14a22.07 22.07 0 0 1 .59-5.24 13.37 13.37 0 0 0 .35-2.41c0-.2-.08-.85-.23-2a9.15 9.15 0 0 0-.35-1.72 3.29 3.29 0 0 1-.25-1c0-.37.25-.56.7-.56a4 4 0 0 1 1.51.5 28.51 28.51 0 0 1 4.93 3c4 3.09 7.08 7.87 7.08 10.83l-.07.89c-.15 1-.23 1.59-.23 1.69a3.52 3.52 0 0 0 .81 1.87l1.26 1.73a8.65 8.65 0 0 1 1.85 4.5c0 1.08-.23 1.55-2.08 4.23a8.73 8.73 0 0 0-1.95 5.14 15.56 15.56 0 0 0 2.3 7.27c1.36 2.38 2.92 3.69 4.42 3.69 2.57 0 3.67-2.27 4.08-8.41.22-3.19.52-6.06.92-8.73l.12-1.57c0-.72-.21-1.13-1.15-2.22l-3.45-4c-3.29-3.83-4.28-5.82-4.28-8.57 0-3.16 2.08-5.35 5.08-5.35l1.38.13v-.91a11.79 11.79 0 0 1 .59-3.1c.72-2.48 1.63-4.37 2.11-4.37a3.38 3.38 0 0 1 1.11.57 17.59 17.59 0 0 0 2.06.81 11.93 11.93 0 0 1 2.3 1.14 10 10 0 0 1 1.83-4c1.49-1.91 3.18-3.45 3.77-3.45.36 0 1 .5 1.87 1.39l2.18 2.29a8 8 0 0 1 1.26 2.19l.46 1 1.38-.8c.9-.54 1.52-.9 1.84-1 1.4-.65 2.13-1 2.18-1a3.3 3.3 0 0 1 1.19-.59c.38 0 .6.68 1.46 4.49a25.84 25.84 0 0 1 .8 5.06c3.67.52 5.4 2.61 5.4 6.56 0 3.7-1.82 7.38-5.74 11.59-1.07 1.15-1.33 1.69-1.33 2.76 0 10.15 3.53 13.35 16.26 14.71 7.83.82 10.15 1.32 19.53 4.13 4.95 1.48 7.78 2.1 9.61 2.1 2.17 0 3.38-.79 3.38-2.19 0-2.13-1.53-2.81-10.69-4.73-21.28-4.49-29.64-11.77-29.64-25.79a17.09 17.09 0 0 1 17.48-17.53c4.4 0 8.35 1.33 14.58 4.94 5.77 3.35 7 3.91 8.29 3.91 1.56 0 2.16-1 2.16-3.48 0-1.61.49-2.39 1.5-2.39s2.31.95 3.56 2.42c1.91 2.25 2.64 3.4 2.64 6.53 0 4.14-2.21 6.87-6.55 8.06l-1 1.15c-2.34 2.66-4.42 3.57-8.2 3.57a19.13 19.13 0 0 1-10.17-3.34l-5.52-3.91c-2.38-1.68-4.12-2.41-5.79-2.41a3.46 3.46 0 0 0-3.76 3.77 5.24 5.24 0 0 0 4 5l5.18 1.6a26.53 26.53 0 0 1 4.93 2.07 16.24 16.24 0 0 1 2.57-.25A21.82 21.82 0 0 1 436 554a13.18 13.18 0 0 0 2.07.92l2.86.81c6.53 1.82 11.85 9.13 11.85 16.24 0 8.13-5.27 13.18-13.77 13.18Zm199.92-1.7c2 2.65 4.81 4.39 7.13 4.39a15.5 15.5 0 0 0 3.1-.48A6.31 6.31 0 0 1 648 587c.56 0 .79.22.79.74a7.35 7.35 0 0 1-.6 2.14 14 14 0 0 0-.69 2.06l-.45 2.42-1.15 2.07-1.61 1.5-.46.46v1.55a6.18 6.18 0 0 1-3.1 5.91 9.51 9.51 0 0 0-.8.58l-.23.92a30.62 30.62 0 0 1-1.15 4 23.09 23.09 0 0 1-2.19 3.21 20.63 20.63 0 0 0-2.86 4.72c-.47 1.15-.84 1.47-1.58 1.47-1.15 0-2.26-1.41-2.45-3.08a5.34 5.34 0 0 1-.58.69l-1.38.92-2.17 1.48a17 17 0 0 0-1.84 1.38l-1.27 1.27a1 1 0 0 1-.66.35c-.58 0-1.18-1-1.75-2.88l-1.15-3.79a12.88 12.88 0 0 1-.47-3.71 8.09 8.09 0 0 1 .81-4.1 14.91 14.91 0 0 0-4.13.8 3.52 3.52 0 0 1-1 .24c-.38 0-.61-.27-.61-.72a7.61 7.61 0 0 1 .46-1.71l1.49-3.89c1.16-3 4.9-5.78 7.87-5.78a9.79 9.79 0 0 1 2.94.61 6.29 6.29 0 0 0 1.73.36 2.3 2.3 0 0 0 2.4-2.21 1.75 1.75 0 0 0-.92-1.49c-.19-.09-1.57-.51-4.13-1.27-1.93-.56-2.89-1.27-5.07-3.78-1.57-1.82-2.18-2.34-2.76-2.34s-.68.29-.68.81l.12 1.53v.7c0 3.19-1 6.24-3.26 10.44l-3.21 5.85a14.25 14.25 0 0 0-2.19 7c0 2.31 1 4.37 2.3 4.71l1.73.46a1.11 1.11 0 0 1 .56.35 1.1 1.1 0 0 1 .36.66 2 2 0 0 1-.58 1c-.21.24-.89 1.12-2.07 2.65-2 2.59-3.23 3.52-5.64 4.26-1.38 3.36-3.64 5.32-7.69 6.66l-.46.8c-1.38 2.4-4.41 4.6-6.34 4.6h-.43a9 9 0 0 1-4 5.85 28.72 28.72 0 0 0-2.65 2 4.8 4.8 0 0 0-.56 1c-.52 1.14-1 1.62-1.64 1.62-1.23 0-2.25-1.14-3-3.34-.45.3-.8.53-1 .69-1.31.91-2 1.42-2.19 1.49a27.3 27.3 0 0 1-4 1.15c-2.81.67-5.26 1.86-5.86 2.87l-1 1.73-.47.19c-.56 0-1.21-.78-1.48-1.8a28 28 0 0 1-1-6.45c0-4.09 1.35-6.74 5.52-10.9v-1c0-6.34 4.85-10.66 12-10.66h1.14l3.91.22h.37a9.54 9.54 0 0 0 6.18-2.54c2.8-2.3 3.62-3.71 3.62-6.29 0-.8-.23-1.74-1.1-4.62a18.65 18.65 0 0 1-.85-5.41c0-4.73 3.49-10.63 8.2-13.9 1.22-.84 2.13-1.94 2.13-2.59 0-.27-.14-.49-.31-.49a2.91 2.91 0 0 0-1.47.91 13.32 13.32 0 0 1-2.76 1.72l-1.83.92-2.07.8c-.63.25-1 .6-1 1a2.75 2.75 0 0 0 .26 1 2.73 2.73 0 0 1 .23.84 3.22 3.22 0 0 1-.58 1.35l-1.6 2.63c-1.58 2.6-2.71 3.69-4.72 4.61-1.28 3.77-3.14 5.7-5.85 6.08-2.17 4.37-4.08 5.9-7.93 6.32-.53 1.68-1.45 3.09-3.45 5.28a13.11 13.11 0 0 0-1.49 1.84c-.89 1.63-1 1.73-1.39 1.73a5.59 5.59 0 0 1-2.64-1.73 6.65 6.65 0 0 1-1-1.38l-1.05-1.84c-.32-.58-.67-.85-1.1-.85h-.73l-2.53.34a8 8 0 0 0-4.59 2.65l-1.47 2.31a.72.72 0 0 1-.56.34c-1 0-1.66-2.27-1.66-6 0-3.3.51-5.49 1.64-7.07l3.22-4.48a3.2 3.2 0 0 0 .69-1.74 2.3 2.3 0 0 0-.57-1.47 3.61 3.61 0 0 0-1.84-1.38l-2.42-.35c-.43-.06-.6-.16-.6-.36a1.48 1.48 0 0 1 .37-.79 11.28 11.28 0 0 1 2.88-2.53c2.83-1.73 4.71-2.42 6.63-2.42a11.26 11.26 0 0 1 6 2l3.34 2.19a2.91 2.91 0 0 0 1.6.47c1.53 0 2.71-.92 3.8-3A11.12 11.12 0 0 0 575 594a7.15 7.15 0 0 0-7.37-7.44 9.74 9.74 0 0 0-6 2.3 3.63 3.63 0 0 0-1.15 1.26l-.92 2.07c-.23.49-.55.8-.83.8-.58 0-1.88-1.66-3-3.79a24.91 24.91 0 0 1-1.61-4.14 18.71 18.71 0 0 1-1-5.73l.17-3.11a11.57 11.57 0 0 1-2.08-7.11 13.18 13.18 0 0 1 .82-4 8.48 8.48 0 0 1-1.27-5.12l.12-1.43.34-1.61.23-1.38c-1.11-1.45-1.44-2.4-2.53-7.46-.61-2.85-1-4.09-1.5-4.83a1.73 1.73 0 0 1-.33-.68c0-.68 1.6-1.28 3.43-1.28l1.62.13a5.51 5.51 0 0 1-.49-2.33 14.18 14.18 0 0 1 .84-4.57 8.86 8.86 0 0 0 .73-2.81 11.14 11.14 0 0 0-.5-3.51l-.92-2.29a3.2 3.2 0 0 1-.3-1.19c0-.23.15-.31.58-.31 2.26 0 6.55 2.43 9.94 5.63s4.45 5.73 4.45 10.47l-.2 2.51c3.13 2.74 4.5 5 4.5 7.48 0 1.79-.58 3-2.32 4.7-3.1 3.09-3.8 4.68-3.8 8.65 0 6.1 1.82 9.4 5.19 9.4 3 0 5.25-3.22 5.62-7.94l.34-4.36c.1-1.13.29-2.52.58-4.14a22 22 0 0 0 .35-3c0-1.56-1-3.49-4-7-3.23-3.78-4.32-5.8-4.32-8.75 0-3.54 2.44-6.13 5.76-6.13a4.09 4.09 0 0 1 2.23.64c0-2 .13-2.37 1.26-5.18.91-2.21 1.86-3.79 2.31-3.79.15 0 .39.17.69.47a10.61 10.61 0 0 0 1.49 1.26l1.15.81a8.84 8.84 0 0 1 1 1 11.18 11.18 0 0 1 3.56-5.87c1.61-1.57 2.21-2.06 2.53-2.06a1.19 1.19 0 0 1 .8.58l1.38 1.83 2 2.19c.74.82 1 1.54 1.38 3.55l1.15-.68 1.83-1c.34-.2.8-.5 1.38-.92a1.67 1.67 0 0 1 .73-.37c.19 0 .41.35.54.83l.69 2.64 1.49 3a5.84 5.84 0 0 1 .59 3v.71h.77c2.27 0 4.21 2.67 4.21 5.76 0 4.09-3.25 9.39-7.5 12.19a9 9 0 0 0-.48 3c0 9.14 2.39 11.07 16.45 13.16a73.77 73.77 0 0 1 9.41 1.95q.68.19 9.08 3a22.76 22.76 0 0 0 6.81 1.5c1.71 0 2.65-.49 2.65-1.39 0-1.56-2.29-3-9.34-5.74l-10-3.9c-10.16-4-15-10.18-15-19.32a18.17 18.17 0 0 1 18.63-18.6c4 0 7.94.82 13.57 2.87 7.25 2.65 7.63 2.76 8.41 2.76 1.4 0 2.17-1 2.38-3 .19-1.7.65-2.41 1.6-2.41 1.42 0 2.95 1.31 4 3.45a13.68 13.68 0 0 1 1.49 6c0 3.8-2 6.28-5.63 7a11.18 11.18 0 0 1-9.25 4.76c-4.58 0-6.84-.91-14.64-5.79-2.8-1.75-4-2.18-6-2.18-2.75 0-4.77 1.69-4.77 4 0 2.1 1.7 3.48 5.52 4.49 2.27.6 2.61.77 3.79 2a7.71 7.71 0 0 1 1.91-.28c3.73 0 8.33 2 12.22 5.34 7.09 2.19 13.38 9.83 13.38 16.23 0 7.1-6.14 13.44-13 13.44a45.82 45.82 0 0 1-8.88-1.41"/>
  <path d="M445.48 418.43a12.5 12.5 0 0 1-.42-2.78l.08-.9.34-1.84.12-1.48a5.82 5.82 0 0 0-.81-3.46l-1.37-1.84a8 8 0 0 1-1.16-2.18 3.2 3.2 0 0 1-.22-1 .77.77 0 0 1 .82-.84c.32 0 .44.06 1.48.67a2.38 2.38 0 0 0 1.12.39c.68 0 1.06-1.11 1.06-3.06 0-2.22-.21-3.44-.69-4l-1.72-2-1.5-1.26a1.53 1.53 0 0 1-.6-1 .85.85 0 0 1 .94-.84 10 10 0 0 1 2.53.57l.53.13c.46 0 .66-.28.66-1v-.42l-.35-2.42-.69-2.53c-.22-.82-.34-.94-.86-.94h-.29l-2.88.58h-.45c-3.76 0-7.73-3.18-9-7.17l-2.3-7.46c-.71-2.31-2.43-4.49-5.51-7a5.16 5.16 0 0 0-2.3-1.25L420 362c-.38 0-.62-.27-.62-.58 0-.48.44-.69 1.43-.69l3.8.35a28.93 28.93 0 0 1 6.2 1.61 24.53 24.53 0 0 0 7.7 1.68c5.75 0 9.18-3.11 9.18-8.3a14.5 14.5 0 0 0-4.69-10.14c-1.61-1.46-3.22-2.54-3.78-2.54a.6.6 0 0 0-.59.61l.13 1.47v.13c0 .58-.35 1-.79 1s-1.24-.76-2-2.3c-2.18-4.51-5.62-7.21-9.2-7.21-.6 0-1 .25-1 .62a6.55 6.55 0 0 0 .57 1.65l.92 2.06a4 4 0 0 1 .38 1.06c0 .14-.22.26-.49.26a3.27 3.27 0 0 1-2-1.09l-1.72-1.83-1.5-2.3c-1.2-1.84-2.17-2.66-4.71-4-1.43-.75-2.35-1.25-2.76-1.48a2.9 2.9 0 0 0-1.43-.46.53.53 0 0 0-.61.59 2.4 2.4 0 0 0 .43 1.25 6.35 6.35 0 0 1 1.19 2.3.65.65 0 0 1-.59.68c-.9 0-2.76-1.8-4.39-4.25a11.74 11.74 0 0 1-2.07-6.46 8.3 8.3 0 0 1 8.49-8.59 17.58 17.58 0 0 1 8.64 2.87l5.39 3.33a14.2 14.2 0 0 0 6.28 2.07 15.62 15.62 0 0 0 3.38-.57 5.8 5.8 0 0 0 1.37-.57c.32-.2.55-.46.55-.65a.53.53 0 0 0-.32-.51l-.68-.22-2.53-.47a14.32 14.32 0 0 1-3.11-1.15 54.49 54.49 0 0 1-5.74-2.87 22.6 22.6 0 0 0-3.8-2.18c-.93-.32-1.5-.73-1.5-1.09a.45.45 0 0 1 .5-.51 2.48 2.48 0 0 1 1.24.45 8.75 8.75 0 0 0 4.25 1.61l5 1.72A30.1 30.1 0 0 0 442 320a3.79 3.79 0 0 0 3.78-3.8 9.91 9.91 0 0 0-2-5c-.27-.37-.55-.58-.78-.58-.46 0-.71.32-.71.91l.11.92.18 1.38a2.47 2.47 0 0 1-2.28 2.66 5.79 5.79 0 0 1-1.8-.36l-7.5-2.49c-6.26-2-9.16-2.64-12.29-2.64-9 0-15.74 6.14-15.74 14.2 0 9.16 6.41 15.05 22.28 20.5 15.62 5.35 17.81 6.66 17.81 10.68 0 2.31-2.33 4.37-4.95 4.37a13.85 13.85 0 0 1-2.75-.23c-.52-.11-3.13-.72-7.81-1.84a58.25 58.25 0 0 0-14.3-1.61c-11.27 0-17.52 2-22.93 7.24-1.34 1.32-1.8 1.52-3.36 1.52h-.77l-1.61-.12h-.21a3.62 3.62 0 0 0-3.23 2.07c-1.22 1.95-1.87 3-2 3.11a1.66 1.66 0 0 1-1.31.68c-1 0-1.66-.78-2.82-3.56a9.73 9.73 0 0 0-2.42-3.45l-2.3-2.07a1.5 1.5 0 0 1-.58-.88 2.25 2.25 0 0 1 .47-1.07 9 9 0 0 0 1.61-3c.3-1.52.35-1.61 1-1.61s.92.71 1 3.34a8.52 8.52 0 0 0 .92 3.1l1.27 2.76a1.09 1.09 0 0 0 1 .58c1.19 0 2.7-2.79 3.1-5.75.34-2.46.59-3.23 1.11-3.23a.61.61 0 0 1 .5.24c.12.17.46.86 1 2.06a4.57 4.57 0 0 0 1.49 1.73 4.89 4.89 0 0 0 1.38.81h.15c.93 0 1.24-.61 1.46-2.77l.12-1.15-.23-1.62-.16-1.1c0-.74.25-1.2.68-1.2a1.36 1.36 0 0 1 .86.48l1.15 1.14a3.32 3.32 0 0 0 2.27 1.16c.95 0 1.55-.4 1.55-1s-.23-1.09-1.07-2.65l-.81-1.5c-.92-1.73-1.64-2.42-2.51-2.42l-1.16.12-1.38.57a2.86 2.86 0 0 1-.89.26c-.21 0-.37-.19-.37-.46 0-1 .68-2.64 2-4.68.91-1.45 1.55-4.55 1.83-9 .41-6 1.2-9.87 2.05-9.87.56 0 .78.48.78 1.75l-.06 1.57v1.1c0 1.08.23 1.94.51 1.94 1 0 2.15-1.46 3.09-3.84a7.3 7.3 0 0 0 .58-2.4l-.13-.53-2.3-4.26-2.3-.69a1.2 1.2 0 0 1-.8-.52v-2.8l-.23-1.38-.47-1.16-.56-1.26c-2.52 1.37-3.71 2.27-4.6 3.45s-1.41 1.65-1.86 1.65a.59.59 0 0 1-.56-.59 12.22 12.22 0 0 1 .35-1.87l.07-.64a7.9 7.9 0 0 0-4-6.48l-.69.92-.8 1.15-1.37 1.6a6.61 6.61 0 0 0-1.15 2.31 4 4 0 0 0-.24 1.31v.6c0 .95-.11 1.19-.53 1.19l-.29-.11-.8-1.16-1.27-1.38-1.95-1.26-1-.81-.45 1a6 6 0 0 0-.58 1.84l-.11 1.84-.13 1.95v.33c0 1-.24 1.4-.85 1.4a3.84 3.84 0 0 1-1.34-.58 3.31 3.31 0 0 0-1.67-.46 2.86 2.86 0 0 0-2.93 3.17 10 10 0 0 0 1.85 6l1.48 2c.41.52 1.17 1 1.21.69l.29-2.42-.35-1.95-.07-.88c0-.74.26-1.19.69-1.19.64 0 1 .7 1.45 2.64l.91 4.25.93 5.41a20.13 20.13 0 0 0 1.38 4.59 24.08 24.08 0 0 0 1.95 4c1.27 1.62 1.41 1.86 1.41 2.21a.52.52 0 0 1-.49.54 2.43 2.43 0 0 1-1-.35 5.88 5.88 0 0 0-1.38-.46l-.91-.12c-1.84 0-2.22 1.58-2.22 9.25 0 4.69 1 11 2.2 14.08l2.42 6.09a7.89 7.89 0 0 1 .58 2.86c0 8.38-11.12 21.53-23.33 27.59-4.53 2.25-6 4.41-6.32 9.42l-.11 1.5a16 16 0 0 1 3.91-1.61c3.42-.89 4.07-1.32 4.59-3l.46-1.5c.17-.55.46-.77 3.11-2.17a4.87 4.87 0 0 0 1.83-1.5c.58-1 1.06-1.48 1.37-1.48s.44.13.44.37l-.08.42-1.16 3.28-.13.8a6.25 6.25 0 0 0 3.81 5.68c.41-2.66.69-3.57 1.5-4.82l2.06-3.21a8.67 8.67 0 0 0 1.08-4.93 22.23 22.23 0 0 0-.27-3.58l-.09-.92a.81.81 0 0 1 .82-.92c.4 0 .72.15.76.35l.46 2.18a1.11 1.11 0 0 0 1.13.81c1.1 0 2.54-1.43 4-4a6 6 0 0 0 .85-3l-.16-1.55-.34-1.73v-.33c0-.75.42-1.28 1-1.28.26 0 .47.1.51.24l.68 2.64c.24.88.85 1.49 1.5 1.49s2.09-1.32 2.87-2.87a10.29 10.29 0 0 0 1-4.7c0-2.45.26-3.16 1.15-3.16.29 0 .53.11.58.27l.45 1.5c.17.55.5.92.82.92.48 0 1.77-1.4 2.63-2.88a2.08 2.08 0 0 0 .34-1.06c0-.5-.31-1-1-1.57-1.2-1-1.27-1.16-1.27-2.66a6.89 6.89 0 0 1 1.27-4c.55-1 1.05-1.89 1.49-2.76 1.46-2.84 2-3.56 2.51-3.56a1 1 0 0 1 .84 1 2.17 2.17 0 0 1-.25 1 3.92 3.92 0 0 0-.47 1.37.84.84 0 0 0 .86.82 4.5 4.5 0 0 0 2-.69c.3-.17 1.39-.59 3.22-1.27l3.78-1.37a6.59 6.59 0 0 1 2.3-.35 9 9 0 0 1 2.08.23 17 17 0 0 0 2.64.47 2 2 0 0 0 2-1.92 7.19 7.19 0 0 0-1.85-3.49 2 2 0 0 1-.59-1l.13-.46a.77.77 0 0 1 .61-.46c.78 0 2.6 1.94 4.21 4.49 9.89 15.58 13.44 19.35 20.12 21.37s8.52 3.63 8.52 7.65c0 2.19-1.12 4.76-3.59 8.2-5 7-6.21 9.83-6.21 14.44v.84c.57-.24 1-.43 1.27-.56a9.06 9.06 0 0 1 1.83-.81l2.87-.58a2.44 2.44 0 0 0 1.63-2.34v-.3l-.34-2.53v-.33a3.39 3.39 0 0 1 1.06-2.43 1 1 0 0 1 .6-.23 1.16 1.16 0 0 1 .9.7l1.83 3.9c.76 1.6 1.64 2.36 4 3.45m-92.66-83.41c-.83 0-1.26.74-1.35 2.31l-.23 2.17a19.33 19.33 0 0 0-.29 2.79c0 1.63.49 2.85 1.15 2.85s1.89-1.39 2.47-3a7.71 7.71 0 0 0 .52-2.69 7.94 7.94 0 0 0-.52-2.59c-.42-1.18-1.06-1.85-1.75-1.85" fill="#ffe912"/>
  <path d="M342.31 317.21v1c0 1.42-.35 3.13-1.51 7.51a9 9 0 0 0-.35 2.09 5.05 5.05 0 0 0 .92 2.62 3.32 3.32 0 0 0 1 1.15l1.38.69.23 1.6a7.38 7.38 0 0 0 .35 2.53 13.06 13.06 0 0 1 .47 3.43c0 1-.08 1.34-.3 1.34-.43 0-1.2-1.17-1.9-2.93-1.1-2.78-2.1-3.81-3.66-3.81a7.28 7.28 0 0 0-3.58.94 9 9 0 0 1 .69.92c.09.14.43.79 1 2l1.61 3.11a97.5 97.5 0 0 0 1.95 3.67 5.05 5.05 0 0 0 1.61 1.61l1.84 1c.54.3.94.73.94 1a.92.92 0 0 1-1 .89l-1.49-.23-.84-.09c-.45 0-.66.42-.66 1.28 0 3.12 2.47 6.7 6.78 9.84a2.15 2.15 0 0 1 .93 1.24.82.82 0 0 1-.85.72 4.58 4.58 0 0 1-1.45-.46 2.11 2.11 0 0 0-.81-.25c-.56 0-.94.47-.94 1.18s.66 2.44 2.09 5.16a8.13 8.13 0 0 0 3.91 3.79l5.16 2.19a.73.73 0 0 1 .46.69.79.79 0 0 1-.69.8l-1 .11-.91.11-1.5-.11H352c-.71 0-1 .14-1 .49a10.91 10.91 0 0 0 1.69 3.76c1.23 2.05 2.3 3.22 3 3.22a.88.88 0 0 0 .71-.57l1.27-2.65a13 13 0 0 1 6.2-3.56l2.07-.34a1 1 0 0 0 .83-1.09v-.29l-.35-2.19-.23-2.42-.23-2.17-.23-2.53c0-.64-.2-.94-.57-.94a1.75 1.75 0 0 0-1 .83c-1.8 2.75-3.06 3.67-5 3.67-6.13 0-10.76-10.78-10.76-25 0-1.23.08-2.82.23-4.72.3-3.66.35-4.57.35-5.93 0-6.18-1.29-10.53-3.91-13.15l-1.61-1.61Zm14.82 83.98a12.66 12.66 0 0 1-3.33-.8l-2.18-.92a11.66 11.66 0 0 0-4.4-1.16 7.08 7.08 0 0 0-4.8 2l1 .81 2.3 1.61 2.17 1.72a3.15 3.15 0 0 0 1.9.69c2.25 0 4.21-1.05 7.3-3.91m44.27 20.87a6.51 6.51 0 0 1 2.31-3c3.21-2.76 4.7-4.8 4.7-6.43v-2.53c0-1.48.25-2 1-2a.75.75 0 0 1 .72.34l.56 1.38a1 1 0 0 0 1 .53c.44 0 1.1-.53 1.68-1.33l1.15-1.61a3.71 3.71 0 0 0 .84-2.25 3.52 3.52 0 0 0-.32-1.2l-.81-1.84a5.52 5.52 0 0 1-.47-1.8c0-.75.39-1.19 1-1.19a1 1 0 0 1 .82.35l.92 1.15a1.1 1.1 0 0 0 .87.39 1.53 1.53 0 0 0 1.19-1l.92-1.84a2.75 2.75 0 0 0 .37-1c0-.36-.38-.74-1.06-1l-1.49-.69c-2-.91-3.45-4.08-3.45-7.37a3.24 3.24 0 0 1 .24-1.25l.8-1.95a4.84 4.84 0 0 0 .35-1.85 6.57 6.57 0 0 0-1.15-3.55 34.69 34.69 0 0 1-1.5-2.42c-.68-1.81-1-2.32-1.59-2.32l-.59.14-.8.47-1.27.68-1.49 1.83-1.61.81c-1 .48-1.87 2.53-1.87 4.23 0 3 .33 3.8 4.28 10.59 1.53 2.63 2.33 4.9 2.33 6.58 0 4.71-4.21 8.06-12.67 10.09l-5.28 1.26c-3.9.93-6.19 3.6-7 8.16 1.61-.83 2.24-.95 5.09-.95h1.95c1.54 0 1.75-.12 2.73-1.5a8.65 8.65 0 0 1 3.84-3.21l1.84-.81 1.5-.8.46-.12c.41 0 .63.17.63.47a3.81 3.81 0 0 1-1.09 1.95 6.09 6.09 0 0 0-1.84 4.44 4.26 4.26 0 0 0 1.26 3" fill="#ffe912"/>
  <path d="M386.89 404.29a13.34 13.34 0 0 1 3.44 3.11c1.1 1.5 1.26 1.61 2.34 1.61a7.76 7.76 0 0 0 1.69-.23l1-.24c1.89-.36 2.53-.64 2.53-1.11a1.51 1.51 0 0 0-.58-1l-1.27-1.14-1.25-1.15a6.29 6.29 0 0 0-3.79-1.24c-1.38 0-2.19.27-4.14 1.39m37.26 6.21.69-.11 1-.12 1 .12h.5c2.57 0 5-2.16 5-4.43 0-.79-.73-1.23-2-1.23-3.1 0-5 1.79-6.24 5.75m235.81 7.95a7.71 7.71 0 0 1-.36-2.12l.13-1.56a30 30 0 0 0 .37-4.47 3.67 3.67 0 0 0-.83-2.31l-1.38-1.84a5.06 5.06 0 0 1-1.27-3.13c0-.66.16-.89.63-.89l.52.12 1 .57a2.51 2.51 0 0 0 1.14.39c.7 0 1-1.07 1-3.22 0-3-.56-4.43-2.3-5.79l-1.53-1.26a1.27 1.27 0 0 1-.47-.94.82.82 0 0 1 .86-.9 5.38 5.38 0 0 1 1.34.23l1.26.34.49.13c.4 0 .57-.32.57-1v-.4l-.35-2.42c-.35-2.51-.77-3.47-1.51-3.47h-.21l-3 .58h-.5c-3.59 0-7.82-3.4-8.92-7.17l-2.18-7.46c-.66-2.23-2.59-4.69-5.52-7a5.38 5.38 0 0 0-2.41-1.25l-2.06-.23c-.38 0-.64-.28-.64-.57 0-.48.41-.71 1.26-.71a32.43 32.43 0 0 1 10.17 2c3.78 1.23 5.84 1.68 7.68 1.68 5.75 0 9.21-3 9.21-8a15.62 15.62 0 0 0-2.18-7.62 18.26 18.26 0 0 0-5.41-5.06 1.81 1.81 0 0 0-.9-.35.58.58 0 0 0-.59.58l.12 1.5v.12c0 .57-.34 1-.74 1-.64 0-1.3-.75-2-2.3-2.11-4.49-5.52-7.2-9-7.2-.77 0-1.21.27-1.21.74a3.32 3.32 0 0 0 .6 1.52 13.17 13.17 0 0 1 1 2.06 3.41 3.41 0 0 1 .29 1c0 .21-.19.33-.53.33a3.33 3.33 0 0 1-2-1.09l-1.71-1.83-1.5-2.3a11.1 11.1 0 0 0-4.59-4l-2.87-1.46a3.26 3.26 0 0 0-1.47-.46q-.54 0-.54.51a2.54 2.54 0 0 0 .53 1.33 5.82 5.82 0 0 1 1 2.29.64.64 0 0 1-.57.69c-.8 0-2.26-1.45-4.28-4.25a10.91 10.91 0 0 1-2.19-6.45 8.45 8.45 0 0 1 8.53-8.6 17.72 17.72 0 0 1 8.6 2.87l5.51 3.33a14.37 14.37 0 0 0 6.31 2.07 10.29 10.29 0 0 0 3.23-.57 6.45 6.45 0 0 0 1.49-.57.83.83 0 0 0 .42-.67c0-.47-.28-.66-1-.71-2.56-.2-7.87-2.29-11.37-4.49a30.13 30.13 0 0 0-3.79-2.18c-.95-.34-1.58-.83-1.58-1.23 0-.16.19-.27.5-.27l.68.12 5 1.84 4.82 1.72a30.33 30.33 0 0 0 7.73 1.61 3.52 3.52 0 0 0 3.68-3.68 7.62 7.62 0 0 0-.72-3.22c-.7-1.36-1.62-2.52-2-2.52s-.69.45-.69 1.23v.6l.15 1.48c0 1.56-.85 2.56-2.17 2.56a6 6 0 0 1-1.88-.36l-7.47-2.41c-6.48-2.09-9-2.64-12.19-2.64-9 0-15.84 6.1-15.84 14.2 0 9.17 6.28 14.91 22.4 20.5 15.65 5.43 17.69 6.66 17.69 10.8 0 2.36-2.22 4.25-5 4.25a13.46 13.46 0 0 1-2.7-.23c-.67-.13-3.28-.74-7.81-1.84a56.92 56.92 0 0 0-14.28-1.61c-11.41 0-16.88 1.74-22.82 7.24-1.38 1.28-2 1.52-3.47 1.52h-.79l-1.81-.12a3.6 3.6 0 0 0-3.24 2.07l-1.84 3.11a1.53 1.53 0 0 1-1.33.68c-1.17 0-1.82-.79-2.92-3.56a8.84 8.84 0 0 0-2.3-3.45l-2.42-2.07a1.37 1.37 0 0 1-.57-.83 2.31 2.31 0 0 1 .57-1.12 12.79 12.79 0 0 0 1-1.61 4.58 4.58 0 0 0 .57-1.38l.12-1a.81.81 0 0 1 .81-.58c.77 0 .91.51.91 3.34a8.07 8.07 0 0 0 .93 3.1l1.26 2.76a1.11 1.11 0 0 0 1 .58c1.18 0 2.69-2.8 3.09-5.75.34-2.46.6-3.23 1.11-3.23s.68.29 1.65 2.3a5.3 5.3 0 0 0 1.38 1.73 3.45 3.45 0 0 0 1.38.81h.12c1 0 1.27-.6 1.49-2.77l.11-1.15-.23-1.62-.16-1.1c0-.74.26-1.2.69-1.2a1.36 1.36 0 0 1 .85.48l1.15 1.14a3.35 3.35 0 0 0 2.31 1.16c1 0 1.59-.44 1.59-1.14s-.12-.85-1.15-2.54l-.8-1.5c-1-1.94-1.5-2.42-2.39-2.42l-1.17.12-1.49.57a3.34 3.34 0 0 1-.91.26c-.21 0-.36-.2-.36-.46 0-1 .68-2.66 2-4.68.78-1.23 1.45-4.32 2-9l.58-5.4c.35-3.31.71-4.47 1.38-4.47.24 0 .43.09.45.22l.34 1.72v1.38c0 1.68.19 3 .4 3 .49 0 1.19-.57 1.9-1.54a8 8 0 0 0 1.15-2.3 10.47 10.47 0 0 0 .58-3c0-2.66-1.11-3.8-4.72-4.81a1.36 1.36 0 0 1-.69-.34l-.1-1v-2l-.23-1.38-.46-1.16-.58-1.26-.92.57c-2.35 1.47-2.91 1.91-3.68 2.88-1 1.32-1.41 1.65-1.84 1.65a.53.53 0 0 1-.57-.5l.46-2v-.34c0-2.51-1.42-4.95-4-6.78l-.8.92-.8 1.15-1.39 1.6a5.44 5.44 0 0 0-1.27 3.42v.76c0 .91-.14 1.21-.56 1.21l-.25-.09-.92-1.16-.96-1.32-2.06-1.26-1-.81c-1.11 2.42-1.16 2.68-1.16 5.77v.94c0 1-.33 1.68-.89 1.68a3.51 3.51 0 0 1-1.41-.58 3.49 3.49 0 0 0-1.71-.47c-1.67 0-2.89 1.43-2.89 3.36a10 10 0 0 0 1.85 5.84c.9 1.5 2.09 2.71 2.64 2.71a14.29 14.29 0 0 0 .34-2.48l-.34-1.95-.08-.88c0-.74.26-1.19.69-1.19.65 0 1 .7 1.46 2.64l.92 4.25.92 5.41a21.71 21.71 0 0 0 1.37 4.59 24.08 24.08 0 0 0 2 4c1.28 1.62 1.42 1.86 1.42 2.21a.53.53 0 0 1-.5.54 2.47 2.47 0 0 1-1-.35 5.2 5.2 0 0 0-1.38-.46l-.84-.11c-1.9 0-2.29 1.52-2.29 9.14 0 4.77 1 11.1 2.21 14.18l2.41 6.09a7.69 7.69 0 0 1 .58 2.86c0 8.41-11.35 21.84-23.33 27.59-4.66 2.24-6 4.57-6.43 10.92a22 22 0 0 1 4-1.61c3.38-1 4.11-1.42 4.59-3l.46-1.5c.2-.64.63-1 3-2.17a4.62 4.62 0 0 0 1.84-1.5c.61-1 1.07-1.48 1.36-1.48s.52.22.52.6v.19l-1.26 3.28-.15.8a6.3 6.3 0 0 0 3.82 5.68c.16-.6.28-1.06.34-1.37a12.91 12.91 0 0 1 1.15-3.45l2.19-3.21c.8-1.17.94-1.94.94-4.9l-.13-3.61-.07-.93c0-.59.28-.92.79-.92s.73.16.77.36l.35 2.18a1.07 1.07 0 0 0 1.12.81c1.1 0 2.53-1.42 4-4a5.08 5.08 0 0 0 .83-2.74 29.33 29.33 0 0 0-.37-3.58v-.67a.85.85 0 0 1 .88-.94c.29 0 .51.1.55.24l.81 2.64c.27.89.87 1.49 1.51 1.49 1.76 0 3.58-3.6 3.77-7.47.12-2.42.41-3.27 1.16-3.27a.59.59 0 0 1 .57.28l.46 1.5c.16.55.5.92.81.92s.88-.51 1.59-1.38a9.41 9.41 0 0 0 1-1.5 2.43 2.43 0 0 0 .35-1.21c0-.57-.12-.73-1-1.42a3 3 0 0 1-1.26-2.43c0-1.64.7-3.45 2.76-7 1.87-3.23 2.12-3.59 2.57-3.59s.76.42.76 1a2.25 2.25 0 0 1-.23 1A4.19 4.19 0 0 0 604 373a.87.87 0 0 0 .9.82 4.55 4.55 0 0 0 2.09-.69 25.28 25.28 0 0 1 3.11-1.27c2.14-.77 3.44-1.22 3.9-1.37a7.59 7.59 0 0 1 2.37-.35 8.59 8.59 0 0 1 2 .23 16 16 0 0 0 2.65.47 1.81 1.81 0 0 0 1.88-1.84 4.78 4.78 0 0 0-.71-2c-.59-1-.94-1.51-1-1.61-.51-.53-.7-.82-.7-1l.12-.48a.75.75 0 0 1 .64-.46c.91 0 2.69 1.85 4.31 4.49 9 14.71 13.36 19.36 20 21.37 6.9 2.09 8.52 3.55 8.52 7.66 0 2.19-1.16 4.83-3.59 8.19-4.59 6.38-6.21 10.12-6.21 14.34v.94c.57-.24 1-.43 1.27-.56a8.8 8.8 0 0 1 1.84-.81l2.86-.58a2.4 2.4 0 0 0 1.62-2.41v-.23l-.23-2.53V413c0-1.43.7-2.6 1.55-2.6a1.11 1.11 0 0 1 .88.7l1.84 3.9c.75 1.6 1.63 2.36 4 3.45m-94.25-78.85-.11 1.84v1.14c0 1.85.3 2.66 1 2.66s2-1.43 2.49-3a11.53 11.53 0 0 0 .58-3.12A5.69 5.69 0 0 0 569 337c-.52-1.26-1.06-1.85-1.69-1.85-1 0-1.45 1.27-1.65 4.48" fill="#ffe912"/>
  <path d="M556.7 317.21v1a22.39 22.39 0 0 1-.83 4.86 84 84 0 0 0-.68 2.65 8.87 8.87 0 0 0-.24 2.09 4.32 4.32 0 0 0 2 3.77l1.27.69.22 1.6a7.67 7.67 0 0 0 .35 2.53 12.88 12.88 0 0 1 .47 3.46c0 .95-.08 1.31-.3 1.31-.43 0-1.19-1.17-1.89-2.93-1.11-2.78-2.1-3.81-3.67-3.81a7.25 7.25 0 0 0-3.57.94 26.26 26.26 0 0 1 3.33 6c1.82 4.06 2.53 4.89 5.4 6.32.63.31 1.06.73 1.06 1.06 0 .54-.42.89-1.06.89a10.37 10.37 0 0 1-1.61-.24l-.85-.09c-.45 0-.65.42-.65 1.32 0 3 2.6 6.75 6.91 9.8.57.41.92.85.92 1.18a.75.75 0 0 1-.36.54 1 1 0 0 1-.61.24 4 4 0 0 1-1.33-.46 2.09 2.09 0 0 0-.86-.25c-.54 0-.9.52-.9 1.33 0 1 .78 2.89 2.09 5a9.5 9.5 0 0 0 3.8 3.79l5.17 2.19a.72.72 0 0 1 .46.64.87.87 0 0 1-.69.85l-.92.11-1 .11-1.38-.11h-.24c-.71 0-1 .15-1 .52 0 .55.53 1.71 1.7 3.74 1.21 2.15 2.11 3.15 2.79 3.15a.91.91 0 0 0 .72-.57l1.26-2.65a11.63 11.63 0 0 1 3-2.29 8 8 0 0 1 3.22-1.27c2.75-.36 3-.49 3-1.65a14.18 14.18 0 0 0-.35-2.26 22.91 22.91 0 0 1-.34-2.42l-.23-2.17-.23-2.53c0-.63-.22-.94-.57-.94s-.63.35-.93.83c-1.35 2.2-3.35 3.68-4.95 3.68-6.41 0-10.79-10.24-10.79-25.26l.11-4.5.35-5.41.07-1.91c0-4.63-1.62-9.4-4-11.76l-1.62-1.61Zm14.82 83.98a16.83 16.83 0 0 1-5.51-1.72 10.56 10.56 0 0 0-4.32-1.16 7 7 0 0 0-4.87 2l1 .81 2.3 1.61 2.19 1.72a3.09 3.09 0 0 0 1.92.69c2.26 0 4.16-1 7.26-3.91m44.27 20.87a6.42 6.42 0 0 1 2.3-3c3.21-2.76 4.71-4.8 4.71-6.43v-2.53c0-1.48.24-2 1-2a.74.74 0 0 1 .71.34l.58 1.38a1 1 0 0 0 1 .51c.82 0 1.39-.6 2.81-2.92a4.3 4.3 0 0 0 .85-2.27 3.59 3.59 0 0 0-.27-1.29l-.81-1.84a5.54 5.54 0 0 1-.46-1.8c0-.75.38-1.19 1-1.19a1 1 0 0 1 .82.35l.93 1.15c.2.25.24.39.6.39a1.92 1.92 0 0 0 1.46-1l.92-1.84a2.53 2.53 0 0 0 .35-1c0-.38-.36-.78-.92-1l-1.61-.69c-1.89-.81-3.45-4.05-3.45-7.13a4.83 4.83 0 0 1 .34-1.49l.69-1.95a5.53 5.53 0 0 0 .35-1.91 6.49 6.49 0 0 0-1.15-3.49 20.37 20.37 0 0 1-1.37-2.42c-.66-1.7-1.08-2.27-1.64-2.27a2.8 2.8 0 0 0-1.47.56l-1.15.68-1.61 1.83-1.61.81c-1 .49-1.88 2.57-1.88 4.31 0 2.48.55 3.82 4.29 10.51 1.6 2.84 2.34 4.94 2.34 6.55 0 4.68-4.77 8.52-12.56 10.12-9.31 1.9-11.34 3.44-12.41 9.42 1.61-.83 2.24-.95 5.09-.95h1.96c1.53 0 1.74-.12 2.72-1.5A8.56 8.56 0 0 1 613 414l1.84-.81 1.49-.8.46-.12c.41 0 .64.17.64.48a4.1 4.1 0 0 1-1.1 1.94 6.59 6.59 0 0 0-1.75 3.79 5.46 5.46 0 0 0 1.18 3.67" fill="#ffe912"/>
  <path d="M601.28 404.29a13.18 13.18 0 0 1 3.44 3.11c1.11 1.5 1.26 1.61 2.35 1.61a7.84 7.84 0 0 0 1.68-.23l1-.24c2-.37 2.56-.64 2.56-1.17a1.27 1.27 0 0 0-.49-.9l-1.38-1.14-1.26-1.15a6.14 6.14 0 0 0-3.62-1.27 7.93 7.93 0 0 0-4.31 1.38m37.26 6.21.69-.11 1.15-.12.92.12h.61a3.47 3.47 0 0 0 2.26-.5 9.5 9.5 0 0 0 2.18-2.64 2.69 2.69 0 0 0 .46-1.3c0-.78-.72-1.23-2-1.23-3.16 0-5.08 1.76-6.3 5.75m-204.13 242.8.68-1.38 1.61-1.72a8.5 8.5 0 0 0 2.09-5.94 12.24 12.24 0 0 0-.6-3.71 9.54 9.54 0 0 1-.48-2c0-.73.55-1.42 1.11-1.42a1.46 1.46 0 0 1 .87.58l1.71 2a4.06 4.06 0 0 0 2.77 1.73l.11-1.61.12-1.9a13.38 13.38 0 0 0-2.54-7.76c-.92-1.17-1.33-1.88-1.33-2.29s.31-.81.63-.81a.94.94 0 0 1 .47.23c1.11.82 1.68 1.16 2 1.16.56 0 1.06-1.38 1.06-2.9a10.59 10.59 0 0 0-2.35-6.41l-1.38-1.73a1.21 1.21 0 0 1-.22-.65.88.88 0 0 1 1-.84 2.31 2.31 0 0 1 1.42.57 1.72 1.72 0 0 0 .88.34c.89 0 1.23-1.26 1.23-4.67v-1.41l-.11-2.07c-.14-2.44-.35-2.87-1.39-2.87h-.91c-5.6 0-8.21-3.55-9.65-13.11-1.05-6.9-3.62-11.81-6.79-12.86-1.89-.64-2.57-1-2.57-1.55 0-.32.53-.64 1.11-.64a7.73 7.73 0 0 1 2.15.58 32 32 0 0 0 11.81 2.76c5.51 0 9.85-4.06 9.85-9.19a15.78 15.78 0 0 0-5.22-11.15 6.6 6.6 0 0 0-2.88-1.72h-.21l-.59.2.23 1.67.45 1.15.13.48a.49.49 0 0 1-.54.44 1 1 0 0 1-.84-.46l-2.07-3.11c-1.64-2.45-5.24-4.5-7.89-4.5-.95 0-1.55.42-1.55 1.09a2.59 2.59 0 0 0 .7 1.34 3.92 3.92 0 0 1 1.05 1.83l-.13.47c-.12.26-.29.44-.46.46h-.1c-.57 0-.84-.26-3.34-3.11-2.05-2.35-6.22-4.61-8.48-4.61a1.17 1.17 0 0 0-.83.36.68.68 0 0 0-.23.44 2 2 0 0 0 .81 1.28 4 4 0 0 1 1.27 1.76c0 .23-.29.43-.65.43-.65 0-2.13-.95-4.87-3.11-4.29-3.37-6.21-6.54-6.21-10.23 0-4.45 3.18-7.93 7.24-7.93a14.11 14.11 0 0 1 7.69 2.77l5.63 4.25a15 15 0 0 0 9.05 3 4.29 4.29 0 0 0 2-.47c.5-.24.8-.55.8-.76s-.43-.35-1-.5a13.24 13.24 0 0 1-4.83-2.06L427 537a38.19 38.19 0 0 0-4.48-3.1c-3-1.59-3.62-2-3.62-2.32 0-.18.3-.32.66-.32a2.64 2.64 0 0 1 1 .22l3 1.27a33.41 33.41 0 0 1 4.82 2.87c6.15 4.11 9.28 5.43 12.89 5.43a5.69 5.69 0 0 0 6-5.75 4.54 4.54 0 0 0-.48-2l-.57-1.15c-.2-.41-.58-.71-.69-.57l-.34.46-.35 2.41a3.71 3.71 0 0 1-.34.8 3.92 3.92 0 0 1-.81 1.15 2.58 2.58 0 0 1-2.1.82c-1.78 0-3.78-1-9.15-4.38s-10.35-5.28-14.25-5.28a14.91 14.91 0 0 0-14.93 14.9c0 11.52 7 16.71 29.06 21.52 8.38 1.82 12.07 4.27 12.07 8 0 3.4-2.76 5.55-7.12 5.55a15 15 0 0 1-3.11-.24q-1.11-.21-11.84-3.21a59.38 59.38 0 0 0-15.39-2.08c-8.64 0-14.47 2.57-18.43 8.12-.47.66-.92 1-1.23 1a1.77 1.77 0 0 1-1-.47l-1.61-1.27a7.76 7.76 0 0 0-4.12-1.57 3.66 3.66 0 0 0-2.43 1 2.85 2.85 0 0 1-1.18.8c-.64 0-1.82-1.43-2.72-3.32a18.5 18.5 0 0 1-1.95-7.82c0-1.15.35-2 .86-2s.69.32.86.93l.92 3.32c.51 1.87 1.56 3.35 2.35 3.35.35 0 1-.52 1.67-1.39a5.28 5.28 0 0 0 .92-1.61c.72-2.11.9-2.41 1.46-2.41s1 .41 1.47 2.53a7 7 0 0 0 .74 2 11 11 0 0 0 1.38 2.07 1.67 1.67 0 0 0 1.2.59c1 0 1.93-1.69 1.93-3.53v-.51l-.14-2.12c0-.83.13-1.09.6-1.09.27 0 .48.15.8.57a6 6 0 0 0 1.95 1.6 3.87 3.87 0 0 0 1.64.58 1.7 1.7 0 0 0 1.12-.58 1.31 1.31 0 0 0 .48-.9c0-.33-.41-.86-1.63-2.08a14.58 14.58 0 0 1-2.3-4.59c-.32-.9-.75-1.51-1.08-1.51a3.2 3.2 0 0 0-.75.24l-1.5.57-1 .47-.4.07a.84.84 0 0 1-.88-.78c0-.45 1.05-1.69 2.31-2.74a4.24 4.24 0 0 0 1.5-3.11c.07-1.92.42-3.44.8-3.44l.35-4a42.21 42.21 0 0 1 1.71-7.93c.15-.41.33-.69.47-.69.32 0 .61.86.61 1.83v.58l-.07 1.17c0 1.46.24 2.19.69 2.19s1.07-.72 1.57-2l1-2.64a5.87 5.87 0 0 0 .46-2.15c0-2.23-1.34-3.85-3.19-3.85l-.83.14a4.32 4.32 0 0 1-.82.23 1.33 1.33 0 0 1-1.11-1.44l.09-1.66-.12-2.3-.45-2.41-.13-1.16-1 .59-1.27 1-1.84 1.5-1.49 1.27a1.42 1.42 0 0 1-.86.34c-.87 0-1-.23-1-2v-.46c0-1.44-.64-2.57-3-5.33l-.57-.69-.46.8L377 526l-1.25 3.21-.24 2.08c-.06.59-.29 1-.52 1s-.63-.3-1.08-.82a9 9 0 0 0-4.94-3.33l-.23.8a30.36 30.36 0 0 0-.69 2.42l-.13 2.18v1.66c0 .62-.24 1-.62 1h-.08l-.68-.57a2.21 2.21 0 0 0-1.39-.36c-2.15 0-3.51 1.16-3.51 3 0 1.38.48 2.41 2.6 5.63.93 1.42 2 2.55 2.46 2.55.27 0 .51-.76.51-1.64l-.21-1.37a5.67 5.67 0 0 1-.32-1.75c0-.66.18-1 .53-1 1 0 2.1 3 2.54 7.13l.47 4.25a14.12 14.12 0 0 0 1.37 4.6 11.71 11.71 0 0 0 3 4.25c1.09.77 1.77 1.52 1.77 2a.69.69 0 0 1-.6.69s-.83-.27-2.32-.8l-1-.15c-2.3 0-3.06 1.31-3.06 5.27 0 4.78 3.21 11.65 6.78 14.52l5.29 4.25c2.67 2.16 4.72 5.74 4.72 8.28 0 3.36-3.69 6.67-10 9l-3.79 1.38c-2.94 1.07-4.12 3-5.28 8.49a9.36 9.36 0 0 1 3.16-.58h.51l1.72.05a2.37 2.37 0 0 0 2.64-2.23v-1c0-.31.43-.74 1-1 1-.5 1.57-.76 1.61-.81l1.27-1a1.06 1.06 0 0 1 .64-.25.67.67 0 0 1 .62.7 3.18 3.18 0 0 1-.23 1.05 11.4 11.4 0 0 0-.6 3.95 9.69 9.69 0 0 0 1.86 6.39 9.09 9.09 0 0 1 .35-1.5 19.66 19.66 0 0 1 1.95-3.09c1.74-2.45 3-5.4 3-7v-.48l-.35-2.64a1.68 1.68 0 0 1 .58-1.26 1.24 1.24 0 0 1 .78-.35c.49 0 .79.3 1.17 1.15.28.64.6 1 .83 1 .4 0 1.19-1.06 1.7-2.3a6.5 6.5 0 0 0 .57-2.43 3.88 3.88 0 0 0-.35-1.49 3.77 3.77 0 0 1-.36-1.3c0-.3.1-.44.48-.75a.87.87 0 0 1 .58-.24 1.18 1.18 0 0 1 .69.24l1 .69a1.77 1.77 0 0 0 .91.35c.47 0 1.12-.52 1.62-1.28a9.68 9.68 0 0 0 1.63-3.27c0-.3-.19-.53-.83-1-2.28-1.61-3.79-4-3.79-6.15a4.89 4.89 0 0 1 .35-1.65l1.15-3.11c.57-1.56.88-2.37.92-2.42l.32-.13c.4 0 .64.33.64.89a3.87 3.87 0 0 1-.27 1.31 7.19 7.19 0 0 0-.49 2.19 1.11 1.11 0 0 0 1.21 1.27 5 5 0 0 0 1.91-.47c3.48-1.5 6.24-2.3 7.89-2.3a6.3 6.3 0 0 1 4.17 1.5 2.18 2.18 0 0 0 1.07.46 1 1 0 0 0 .66-.46 1 1 0 0 0 .23-.58 2.53 2.53 0 0 0-.69-1.49 2.68 2.68 0 0 1-.81-1.62.56.56 0 0 1 .63-.59c1.79 0 4.62 5.71 7.3 14.74 2.13 7.12 2.73 7.85 9.54 11.71 5.77 3.26 8 6.5 8 11.74s-1.42 11.77-4.4 20.43a19.61 19.61 0 0 0-1.35 6.13c0 1.22.24 2.38 1.13 5.48.42 1.48.69 2.36.8 2.64a13.64 13.64 0 0 0 .93 1.72" fill="#ffe912"/>
  <path d="M407.68 637.18a18.62 18.62 0 0 1 2.19-3.9c1.86-2.8 2.53-4.29 2.53-5.63v-1.83c0-1.74.31-2.54 1-2.54a.73.73 0 0 1 .61.35l.58.92a.94.94 0 0 0 .81.47 2.16 2.16 0 0 0 1.29-1A8.13 8.13 0 0 0 418 620l-.13-1.26-.1-1.31c0-.69.28-1 .93-1 .46 0 .64.18 1 1 .25.57.6.93.88.93a1.32 1.32 0 0 0 1-.69l.92-1.38.7-1 .17-.55c0-.31-.25-.62-.87-1.05-2.12-1.55-3.05-3.89-3.22-8.16a35.62 35.62 0 0 0-.56-6.32q-.11-.33-2.07-4.95a28.5 28.5 0 0 1-1.38-4.13c-.27-1.06-.61-1.38-1.44-1.38-3.13 0-5.48 2.67-5.48 6.19 0 2.08.86 5.35 2.44 9.32 2.21 5.58 2.79 7.57 2.79 9.54 0 4.23-1.69 6.06-7.51 8.16-6.58 2.36-9.66 5.73-10.79 11.83l1.14-.46a14.51 14.51 0 0 1 1.61-.57l1.84-.46c1.58-.39 2.85-1.29 3.11-2.19l.46-1.61a1.13 1.13 0 0 1 .69-.8l1-.46 1-.46.23.46-.46 1.49a10.74 10.74 0 0 0-.23 2.69 8.15 8.15 0 0 0 1.95 5.81M346 530.91a8.07 8.07 0 0 1 .22 1.28 26.44 26.44 0 0 1-.45 3l-.21 2.35a18.81 18.81 0 0 0 1 6 8.86 8.86 0 0 1 .75 2.62l-.06.48c-.08.48-.27.82-.44.82a2.53 2.53 0 0 1-1.17-.7 6.38 6.38 0 0 0-4.24-1.76 10.68 10.68 0 0 0-2 .24l.57 1.27 1.72 4.25 2.42 3.68 2.52 1.71a2.83 2.83 0 0 1 .69.69 1.6 1.6 0 0 1 .36.76.46.46 0 0 1-.48.39l-2.29.12c-.35 0-.63.24-.63.49a17.66 17.66 0 0 0 1 3.42l1.15 3.33 1.94 1.83 2.07 1.5c.62.45 1 .93 1 1.32s-.19.61-.4.63l-1.15.11c-.37.05-.58.37-.58.92 0 .87.8 2.43 2.31 4.49 1.76 2.42 3 3.21 5.05 3.21h1.72c.83 0 1.33.41 1.33 1.06s-.35.86-1.09 1c-1.61.34-2.08.66-2.08 1.39a2.52 2.52 0 0 0 .58 1.26l.92 1.25c.77 1.06 1.63 1.75 2.18 1.75a2.82 2.82 0 0 0 1.67-1.06 7.36 7.36 0 0 1 3.73-2.51c4-1 4.82-1.44 4.82-2.35a3 3 0 0 0-.45-1.34 10.58 10.58 0 0 1-1.72-5.62c0-1.41-.37-2.42-.9-2.42-.21 0-.57.34-.94.92a5.11 5.11 0 0 1-4 2.42c-4 0-8.78-6.22-11.15-14.48a23 23 0 0 1-.84-6.19 31.72 31.72 0 0 1 .84-7l1.27-5.64.14-1.55c0-2.85-2.63-6.52-6.69-9.36" fill="#ffe912"/>
  <path d="M354.25 546.88a20.38 20.38 0 0 0-1.62 7.49c0 1.33.44 2.4 1 2.4.19 0 .42-.22.61-.59l1.27-2.29c.22-.39.42-.79.82-1.4a4.29 4.29 0 0 0 .8-1.72c0-1.35-1.26-3-2.89-3.89m12.66 51.82.57.57.92.92c2.24 2.32 2.57 2.55 3.65 2.55a12.59 12.59 0 0 0 4.27-1.17c.5-.25.81-.56.81-.79s-.41-.61-1.14-1.28l-1.27-1.14a6.37 6.37 0 0 0-3.06-1.68c-1.31 0-2.66.58-4.75 2m26.65 20.82a10.46 10.46 0 0 1 2.3 1.15c1 .68 1.64 1.06 1.83 1.14a5.21 5.21 0 0 0 1.83.23 4.07 4.07 0 0 0 1.4-.23l2.41-.92 2.29-.8c.62-.22 1.05-.57 1.05-.89 0-.17-.53-.42-1.28-.6a15.05 15.05 0 0 1-1.71-.58c-2.83-1.13-3.25-1.29-4.25-1.29a7.65 7.65 0 0 0-5.87 2.79m29.07 23.09c.77-1.85 1.29-2.16 3.9-2.3 3-.16 5.76-5.45 5.76-9 0-.36-.12-.65-.26-.65a1.71 1.71 0 0 0-.78.36 15.32 15.32 0 0 1-1.73 1l-3.33 1.49a6.79 6.79 0 0 0-3.56 9.08m209.46-27.45.46-1.26.45-1.6a9.08 9.08 0 0 1 1.26-2 9.18 9.18 0 0 0 1.76-5.71 4.75 4.75 0 0 0-.61-2.22 2.65 2.65 0 0 1-.34-1.06.91.91 0 0 1 .23-.55.86.86 0 0 1 .46-.34h.07a2 2 0 0 1 1.19.8c.49.59.92.92 1.17.92.52 0 1.07-.87 1.35-2.18a9.72 9.72 0 0 0 .24-1.14 10.9 10.9 0 0 0-1-3.23 2.79 2.79 0 0 1-.33-1.15.67.67 0 0 1 .63-.74 2.92 2.92 0 0 1 1.53 1 1.43 1.43 0 0 0 .86.47c.73 0 1.25-.74 1.78-2.54a11.31 11.31 0 0 0 .48-1.79c0-.33-.16-.53-.42-.53h-.4l-1.36.13a9.69 9.69 0 0 1-6.45-3.12l-3.21-3.9a43.18 43.18 0 0 1-2.88-3.8l-2.64-1.72a1.3 1.3 0 0 1-.7-.94c0-.43.45-.72 1.1-.72s2.49.67 5.92 2.12a35.6 35.6 0 0 0 11.64 2.54 10 10 0 0 0 10-9.83c0-2.94-1.33-5.68-4.56-9.48a4.06 4.06 0 0 0-2.11-1.4.63.63 0 0 0-.65.66 3.57 3.57 0 0 0 .36 1.3 3 3 0 0 1 .23 1.06c0 .52-.2.83-.56.83-.72 0-1.48-1.19-2.09-3.26-.75-2.56-2.25-4.09-5.74-5.86a13.11 13.11 0 0 0-3.64-1.3c-.23 0-.39.21-.39.51a2.52 2.52 0 0 0 .46 1.36 5.6 5.6 0 0 1 .92 2.19v.11c0 .45-.23.7-.64.7-.74 0-.9-.19-2.58-2.76a13.18 13.18 0 0 0-5.18-3.91 5.84 5.84 0 0 0-1.95-.46h-.07c-.41 0-.73.19-.73.44a4.26 4.26 0 0 0 .51 1.05l.17.65a.57.57 0 0 1-.53.62c-.69 0-2.83-1.74-4.52-3.68a11.5 11.5 0 0 1-3-6.88c0-4.39 4.2-8.3 8.91-8.3a6.47 6.47 0 0 1 2.93.59l4 2.07 4.71 3.1c2.72 1.78 6.43 3.12 8.68 3.12a12.78 12.78 0 0 0 3.61-.71c1.13-.31 1.84-.76 1.84-1.17v-.09l-.41-.24-2.53-.22c-1.4-.13-4.59-1.57-7.12-3.22l-5.28-3.44-4.71-2c-.35-.14-.58-.38-.58-.61a.49.49 0 0 1 .53-.43l1.31.24 4.37 1.26a33.12 33.12 0 0 1 5.28 2.41c4.8 2.55 7.91 3.67 10.22 3.67a4.32 4.32 0 0 0 4.6-4.29 15.7 15.7 0 0 0-.46-3.28 4.18 4.18 0 0 0-.69-1.5c-.2-.28-.42-.46-.56-.46-.33 0-.52.36-.52.95l.06.78v.67c0 2.12-.83 2.86-3.17 2.86-1.91 0-4.47-.76-10.32-3.07-5.48-2.17-8.89-3-12.3-3-8.64 0-16.23 7.06-16.23 15.12 0 7 4.61 12.26 14 16.14l9.77 4c8.07 3.33 11 5.7 11 8.84 0 2.63-2.43 4.31-6.24 4.31-1.64 0-3.68-.46-7.45-1.66-9.14-2.91-15.08-4.12-20.31-4.12-8.53 0-14.6 2.33-19.44 7.45-.64.68-1 .89-1.59.89a3.4 3.4 0 0 1-1.63-.66 5.52 5.52 0 0 0-2.53-.82 4.25 4.25 0 0 0-2.75 1.51l-1.15 1.5a1.48 1.48 0 0 1-1 .69c-.83 0-2.31-1.42-3.23-3.11a10.84 10.84 0 0 1-1.15-3 17.33 17.33 0 0 1-.24-3.14l.13-2.14.34-2.29a16.35 16.35 0 0 1 .35-2 .59.59 0 0 1 .55-.46c.6 0 .85.55.85 1.8v1.25c0 3.27 1.3 6.26 2.72 6.26 1.12 0 2.11-2 2.93-6 .17-.8.49-1.26.88-1.26s.74.58 1.07 2.29a10.13 10.13 0 0 0 1.73 3.68 2 2 0 0 0 1.31.94c1 0 1.55-1.43 2-4.73.18-1.28.57-2.07 1-2.07a.63.63 0 0 1 .49.24l.81 1.25a3.12 3.12 0 0 0 1.25 1.16 3.29 3.29 0 0 0 1.33.45 1.69 1.69 0 0 0 1.09-.45c.5-.47.8-.8.8-1s-.25-.52-.69-1a11.37 11.37 0 0 1-2.07-3.8c-.48-1.26-.82-2.14-1-2.65a1.72 1.72 0 0 0-.58-.79l-.36-.09-.68.09-2.41.69-.75.1a.5.5 0 0 1-.54-.54 2.28 2.28 0 0 1 .94-1.28c2.91-2.33 4.64-6.2 5.28-11.85.41-3.41.84-4.72 2.31-6.78.3-.42.57-.69.71-.69.45 0 .69.37.69 1a4.78 4.78 0 0 1-.37 1.63 3.86 3.86 0 0 0-.25 1.4v.44l.23.69 1.27-.46 1.37-1.61a8.55 8.55 0 0 0 1.5-4.7 3.76 3.76 0 0 0-.93-2.65c-.71-.85-1.21-1.21-1.73-1.21l-.79.06-.81.05c-.75 0-1.12-.21-1.12-.67l.21-.88.11-1.26-.69-2.87-.58-1.38-.34-1.15-.81.57-1.72 1A6 6 0 0 0 596 531c-1.64 2-1.75 2.07-2.4 2.07-.41 0-.64-.15-.64-.44v-.48a12.16 12.16 0 0 0 .34-2.38 10.83 10.83 0 0 0-3.22-6.69c-2.39 2.3-3.67 4.83-3.67 7.25v1.36c0 .53-.18.81-.53.81a1.4 1.4 0 0 1-.8-.57l-1.37-1.85c-.11-.12-.72-.63-1.84-1.49a11.67 11.67 0 0 1-.93-.8l-.45.91a12 12 0 0 0-1.61 5.53c-.06 1.52-.19 2-.54 2a1.69 1.69 0 0 1-.73-.26c-1.75-1-1.9-1-2.66-1a3.4 3.4 0 0 0-3.48 3.66 9 9 0 0 0 1.43 3.81c1.05 1.88 2.64 3.61 3.32 3.61.2 0 .25-.14.25-.72V545l-.12-2-.23-1.49v-.19c0-.44.16-.64.51-.64 1 0 2 3 2.72 9.1.68 5.35 2.15 9 4.47 11.16.6.54.93 1 .93 1.24a.41.41 0 0 1-.45.36 3.55 3.55 0 0 1-1.5-.57 2.56 2.56 0 0 0-1.25-.37c-1.15 0-2.44 1.35-2.66 2.77l-1 6.55-.81 9.2a24.76 24.76 0 0 0 .69 6.89 29 29 0 0 1 .81 5.45c0 6.88-4.29 12.33-11.37 14.44l-7.36 2.17c-4.59 1.36-6.83 4.37-7.46 10a5.2 5.2 0 0 1 3.33-1.38l2.18-.35a5.57 5.57 0 0 0 1.95-.57 8.94 8.94 0 0 0 1.27-1.26l2-2.18c.73-.84 1.39-1.3 1.8-1.3a.59.59 0 0 1 .5.65 4.1 4.1 0 0 1-.82 1.9 5.55 5.55 0 0 0-.84 3c0 1.46.39 2.4 1.88 4.51a8.44 8.44 0 0 1 .46-1.38 22.82 22.82 0 0 1 1.72-2.4c1.6-2.05 2.75-4.22 2.76-5.18 0-1.79.19-2.36.63-2.36s.45.1.63 1.1a1.31 1.31 0 0 0 .35.68 1.14 1.14 0 0 0 .71.47 2.47 2.47 0 0 0 .9-.47 8.07 8.07 0 0 0 1.83-1.6 7.67 7.67 0 0 0 1.16-2.07 7.59 7.59 0 0 0 .57-2.16v-1.49c0-.39.17-.71.38-.71s.86.59 1.24 1.26c.25.46.41.58.72.58h.08a1.76 1.76 0 0 0 1-.47 6.84 6.84 0 0 0 2.3-4.3l-.12-2.13-.46-1.72v-.16a.63.63 0 0 1 .5-.58c.52 0 1.08.72 1.87 2.42.37.8.71 1.16 1 1.16.55 0 1-.4 2.05-2l1-1.48a2.08 2.08 0 0 0 .34-1.16 2.14 2.14 0 0 0-.34-1.14l-.92-1.37a2.3 2.3 0 0 1-.24-1.17 11.18 11.18 0 0 1 1.74-5.39 25.65 25.65 0 0 0 1.48-2.88c.18-.48.38-.69.64-.69s.4.28.4.59l-.12 1.27V587c.17.43.44.59 1 .59a3.54 3.54 0 0 0 1.19-.24l2.87-1a16.93 16.93 0 0 0 2.64-1.26c4.5-2.48 5.9-3 8.11-3a14 14 0 0 1 5.45 1.63 3.08 3.08 0 0 0 1.19.34 1.38 1.38 0 0 0 1-.57 1.42 1.42 0 0 0 .35-.87 2.81 2.81 0 0 0-.46-1.43 5 5 0 0 1-.7-1.72.48.48 0 0 1 .52-.5 1.3 1.3 0 0 1 .87.61c.34.54 1.21 2.08 2.64 4.6 2.14 3.8 4.92 6.45 7.36 7l5 1.14c1.56.36 2 1 2 2.92a10 10 0 0 1-4.62 8.57l-4.13 2.65c-1.5 1-2.76 3.59-2.76 5.8a31.23 31.23 0 0 0 .81 5.91l.8-.8 2-1.15 1.72-1.73.92-2.52.91-2.3c.45-1.12 1-1.84 1.34-1.84s.63.62.63 1.76v.73c0 1.66.22 2.38 1.51 4.86" fill="#ffe912"/>
  <path d="M564.17 649.94c1.4-1.3 1.63-1.39 5.52-2.18 3.15-.64 4.61-2.08 5.28-5.17.49-2.29.81-2.71 2.87-3.91a5.52 5.52 0 0 0 1.5-1.15c.24-.29.46-.46.56-.46a.47.47 0 0 1 .41.51 4.79 4.79 0 0 1-.74 1.91 4.19 4.19 0 0 0-.47 2.19 7.38 7.38 0 0 0 1.39 4.59c.7-1.54 1.08-2 2.87-3.23 2.28-1.6 3.15-3.45 3.56-7.58.17-1.75.51-2.66 1-2.66a.6.6 0 0 1 .51.37l.8 1.72a.77.77 0 0 0 .72.38 2.87 2.87 0 0 0 1.46-.84l1.61-1.49c.68-.64 1.13-2.23 1.38-4.83.08-1 .41-1.6.79-1.6s.48.22.59.57l.69 2.29c.16.55.49.92.81.92a2.22 2.22 0 0 0 .92-.57 9.55 9.55 0 0 0 1.59-1.73 3.92 3.92 0 0 0 .81-2.29v-2a2.11 2.11 0 0 1 .46-1.27c.22-.29.41-.46.51-.46a.78.78 0 0 1 .64.57l.46 1.27a1.25 1.25 0 0 0 1.08.92c.61 0 1.21-.52 2.13-1.84.27-.38.5-.68.69-.92a3 3 0 0 0 .81-1.45 1.7 1.7 0 0 0-.46-.84 12.56 12.56 0 0 1-2.53-7.81c0-3.82 1.45-7 5.87-13 2.63-3.55 4.13-6.89 4.13-9.2 0-.67-.3-1-.9-1a2.86 2.86 0 0 0-1.39.43 2.61 2.61 0 0 1-.88.35 1.14 1.14 0 0 1-.74-.47l-.8-.91-.57-.92a1.18 1.18 0 0 0-1-.58 7.77 7.77 0 0 0-.9.23l-1 .11c-1.19.06-1.63.48-1.63 1.62v1.2a6 6 0 0 1-2.09 3.63l-2.19 2c-2.68 2.4-4.77 6.25-4.77 8.79a19.67 19.67 0 0 0 1 5c1 3.44 1.4 5.07 1.4 6.18 0 5.53-8.43 12.79-24 20.71-7.92 4-9.91 6.4-9.91 11.86Zm-7.59-120.53v2.86a7.28 7.28 0 0 1-.24 1.86 12.82 12.82 0 0 0-.47 2.6 9.21 9.21 0 0 0 1.62 5.55 8.68 8.68 0 0 1 1.17 3.86c0 .46-.19.74-.49.74a.72.72 0 0 1-.57-.34l-.92-1.27c-.73-1-1.42-1.28-3.29-1.28l-2 .13a25.08 25.08 0 0 1 1.38 4c.92 3.75 1.06 4 3.09 5.85s2.25 2.09 2.25 2.75a.86.86 0 0 1-.8.93l-.76-.12h-.45c-.62 0-1.19 1.15-1.19 2.44a8.11 8.11 0 0 0 .73 2.89 4.73 4.73 0 0 0 .8 1.39l1.15 1.15a1.61 1.61 0 0 1 .46 1.18c0 .55-.32 1-.7 1a2.48 2.48 0 0 1-1-.36 1.9 1.9 0 0 0-.81-.22c-.51 0-.77.3-.77.93l.19 1.71.7 3a5.31 5.31 0 0 0 1.26 2.18 5.15 5.15 0 0 0 1.73 1.38c1.45.63 2.22 1 2.3 1a1.11 1.11 0 0 1 .33.91.77.77 0 0 1-.75.8 7.46 7.46 0 0 1-1.19-.23l-1.17-.11c-1.16 0-1.25.06-1.25 1a7.5 7.5 0 0 0 .23 1.78l.46 1.84c.49 1.94 1.12 3 1.81 3a1.83 1.83 0 0 0 .84-.46 14.25 14.25 0 0 1 7.08-2.41 22.15 22.15 0 0 1 5.55.58 4.21 4.21 0 0 0 1.1.27c.29 0 .38-.28.4-1.3l.23-2.08.46-3.55.34-2.65v-1.5l-.92.81c-2 1.84-3.19 2.42-5.2 2.42-5.3 0-8.32-5.94-8.32-16.31a111.4 111.4 0 0 1 1.8-17.25 20.26 20.26 0 0 0 .36-3.19c0-3.77-2.4-7.47-6.57-10.14" fill="#ffe912"/>
  <path d="m564.4 555.15 1-1 1-.92a5.43 5.43 0 0 0 1.54-3.53 3.7 3.7 0 0 0-.39-1.64c-.4-.86-1.17-1.63-1.63-1.63s-.75 1-.9 2.43l-.23 1.72-.35 1.73-.04 1.69Zm-10.12 46.99c1.18.45 1.43.64 2.65 2.07 1.58 1.86 2.47 2.3 4.59 2.3a5.27 5.27 0 0 0 1.61-.23l1.5-.46 1.15-.34c.55-.16.92-.4.92-.59s-.91-1-2.3-1.94a23.91 23.91 0 0 0-2.75-1.61 5.88 5.88 0 0 0-2.64-.71 8.53 8.53 0 0 0-4.73 1.51m15.63 33.66a46.44 46.44 0 0 0 5.06-2.52l3.33-1.84c2.13-1.12 3.11-1.92 3.11-2.51 0-.76-1.3-1.2-3.52-1.2-4.44 0-8.09 3-8.09 6.76Zm46.65-29.18c1.62-.33 2.18-.75 3-.8l2.08.11A6.93 6.93 0 0 0 623 605c.36-.29.9-.67 1.61-1.15 2.3-1.56 2.41-1.67 2.41-2.17s-.93-1-2.86-1c-3.63 0-5.82 1.7-7.6 5.87" fill="#ffe912"/>
  <path d="m381 329.73-.57-1.61-.17-.92c0-.94.47-1.46 1.78-1.95a10.39 10.39 0 0 0 3.9-2.07l1.26-1.15h.13c.32 0 .56.38.56.86 0 1.46-1.56 4.16-3.19 6.92-1.19 2-1.73 3.3-2.22 3.3s-1.13-.89-1.25-2Zm-6.75-4.59 1.95 1a1.27 1.27 0 0 1 .82 1.1l-.12.73a7.6 7.6 0 0 0-.09 2.46 1.94 1.94 0 0 1-2.28 2c-.37 0-.18-.24-1.08-1.27l-2.54-2.87a10.78 10.78 0 0 1-1.72-5.17v-.3c0-.62.19-.86.69-.86a2.6 2.6 0 0 1 1.28.58Zm6.9 11.94 1.83-1.15 1.08.25c1.27 0 1.57.38 1.57 1.77 0 2.05-1.28 2.9-3.57 8.67-1 2.54-1.22 4-2.73 4-1.69 0-3-1.37-4.27-4.6l-1.5-3.69c-1.05-2.6-1.52-4.15-1.52-5.1s.68-1.46 1.71-1.46a3.27 3.27 0 0 1 1.65.48l1.37.8 1.33.14h.63Zm214.65-6.97-.95-2-.17-.92c0-1 .43-1.42 1.89-1.95a13.11 13.11 0 0 0 3.79-2.07l1.27-1.15h.12c.32 0 .57.38.57.86 0 1.46-1.35 3.77-3 6.54-1.19 2-2 3.68-2.44 3.68s-1.12-.89-1.25-2Zm-7.16-4.97 2 1a1.5 1.5 0 0 1 .87 1.35l-.06.48-.57 2.07-.35 2.31a.59.59 0 0 1-.61.46h-.07a6.12 6.12 0 0 1-2.51-1.57l-1.73-2.91a10.42 10.42 0 0 1-1.52-3.21 15.24 15.24 0 0 1-.45-2v-.32c0-.58.21-.84.71-.84a2.58 2.58 0 0 1 1.27.58Zm7.01 11.94 1.72-1.15.67-.14a2.93 2.93 0 0 1 2.73 2.58c0 1.14-1.52 1.82-2.13 3.42l-1.27 5.21c-.93 2.45-2.13 3.67-3.62 3.67-1.73 0-3-1.39-4.3-4.59-.59-1.5-1.09-2.72-1.5-3.69a15.5 15.5 0 0 1-1.46-4.78 1.6 1.6 0 0 1 1.69-1.78 3.22 3.22 0 0 1 1.62.48l1.37.8 1.34.14h.61Zm-224.27 202.8-.58-1.73-.12-.51c0-.17.22-.31.47-.31a3.22 3.22 0 0 1 1.38.7 3.43 3.43 0 0 0 1.61.58c3.12.81 3.78 1.39 3.78 2.9l-.11 1.92-.46 1.73c-.19.73-.39 1-.74 1a10.94 10.94 0 0 1-2.47-1.8l-1.14-1.62Zm13.9 2.85-1.5 2.65c-.36.42-.55.63-.57.64h-.11c-.61 0-1.24-1.4-1.28-2.84l-.21-2.3c.17-.94.73-1.35 2.17-1.6a6.52 6.52 0 0 0 2.3-.69c1.1-.79 1.72-1.21 1.84-1.27h.19a.51.51 0 0 1 .53.56v.16l-.8 2Zm-2.98 7.82 1.83-.91a2 2 0 0 1 .87-.24c.9 0 1.56.65 1.56 1.87s-1 3.07-2.43 5.61c-1.52 2.73-2.66 4.59-3.85 4.59-1.64 0-4-2.62-6.26-7a7.52 7.52 0 0 1-.87-3.2c0-1.45.63-2.22 1.85-2.22a2.27 2.27 0 0 1 1.31.36l1 .69a5.32 5.32 0 0 0 2.92.92 4.52 4.52 0 0 0 2-.47m199.64-13.9 1.6 1a14.69 14.69 0 0 0 2.3 1.26c1.77.73 2.41 1 2.41 1.67a4.74 4.74 0 0 1-.23 1.31 7.9 7.9 0 0 0-.34 1.62c-.16 1.57-1.1 2-1.74 2s-1.59-1.19-2.85-3.44a25.88 25.88 0 0 1-1.84-4.6l-.07-.44c0-.29.17-.43.49-.43Zm15.5 4.01-2.64 2.65a10.62 10.62 0 0 0-1.15 2.54 1.41 1.41 0 0 1-.8.34h-.18a1.17 1.17 0 0 1-1.2-1.16l-.12-2-.11-1.94V541a1.19 1.19 0 0 1 1-1.27l2.44-.67 2.53-1.27a4.18 4.18 0 0 1 1.07-.46.61.61 0 0 1 .55.67 1.88 1.88 0 0 1-.24.71Zm-11.6 7.81 1.72 1.28a3 3 0 0 0 1.54.39 7.25 7.25 0 0 0 2.71-.73l1.5-.69a2.16 2.16 0 0 1 .9-.24c.91 0 1.64 1 1.64 2.2 0 1.69-1.23 3.43-3 6l-1.26 2.64c-1 1.44-1.67 2-2.49 2-1.36 0-2-.78-4.07-4.83-1.46-2.9-2.07-4.68-2.07-6.09 0-1.22.63-2.07 1.55-2.07a2.17 2.17 0 0 1 1.33.22"/>
  <path d="M378.61 340.42h-1.49a.7.7 0 0 0-.58.34l-.23.58.59 2.75.45 2.41c.26 1.33.74 1.85 1.73 1.85s1.82-.77 1.95-2.19l.23-2.53.23-2.63a1 1 0 0 0-.34-.7.89.89 0 0 0-.59-.25h-.1Zm214.39 0h-1.38a.71.71 0 0 0-.58.34 2.43 2.43 0 0 0-.34.58l.57 2.75.46 2.41c.26 1.33.48 1.85 1.47 1.85a2.2 2.2 0 0 0 2.21-2.19l.23-2.53c.16-1.69.23-2.56.23-2.63a1 1 0 0 0-.34-.7.85.85 0 0 0-.59-.25h-.1ZM379.65 553.31l-1.27-.22h-.19c-.73 0-1.09.42-1.09 1.25a10.73 10.73 0 0 0 2.09 5 1.15 1.15 0 0 0 .88.48c.74 0 1.27-1.4 1.65-3.69l.35-1.73v-.4c0-.71-.2-.95-.78-.95h-.27Zm207.61 1.5.12 2.18a2.05 2.05 0 0 0 1.68 2c1.05 0 1.8-1.59 2.22-4a13.51 13.51 0 0 0 .27-1.6c0-.84-.29-1.07-1.38-1.07h-1.93c-.71 0-1 .56-1 2Z" fill="#ffe912"/>
  <path d="M457.89 443.47h12.17c1.37-2.89 3.25-4.16 6.14-4.16s4.73 1.2 6.37 4.16h10a6.94 6.94 0 0 1 6.53-4.17 6.75 6.75 0 0 1 6.21 4.17h9.27c1.4-2.69 3.55-4.17 6.08-4.17a7.16 7.16 0 0 1 6.21 3.48l.46.69h12.86V503h-11.27v22.83h-13.21V503h-33.37v22.83h-13.2V502.8h-11.25Z"/>
  <rect width="73.06" height="50.07" x="462.7" y="448.37" fill="#fd1813"/>
  <path d="M470.29 459.81a3.48 3.48 0 1 0 3.48 3.48 3.47 3.47 0 0 0-3.48-3.48Z" style="fill:#ffe912;stroke:#000;stroke-width:0.5px;"/>
  <path d="M527.65 459.81a3.48 3.48 0 1 0 3.47 3.48 3.48 3.48 0 0 0-3.47-3.48Z" style="fill:#ffe912;stroke:#000;stroke-width:0.5px;"/>
  <path d="M470.29 487a3.47 3.47 0 0 0-3.47 3.48 3.52 3.52 0 0 0 3.59 3.47 3.42 3.42 0 0 0 3.36-3.47 3.48 3.48 0 0 0-3.48-3.48Z" style="fill:#ffe912;stroke:#000;stroke-width:0.5px;"/>
  <path d="M527.65 487a3.48 3.48 0 1 0 3.47 3.48 3.48 3.48 0 0 0-3.47-3.48Z" style="fill:#ffe912;stroke:#000;stroke-width:0.5px;"/>
  <path d="M481.18 476.5a22 22 0 0 0 18 8.81c6.8 0 11.49-2.44 17-8.81-5.49-5.64-10.6-8-17.32-8a22.62 22.62 0 0 0-17.67 8" fill="#ffe912"/>
  <path d="M484.66 476.5c4.85-3.78 8.95-5.34 14-5.34s8.92 1.49 13.91 5.45c-4.34 4.3-8.15 5.91-14 5.91a19.41 19.41 0 0 1-13.94-6"/>
  <path d="M490.57 475.34a14.09 14.09 0 0 0 7.91 2.55 14.24 14.24 0 0 0 8.42-2.55 19 19 0 0 0-8.29-2 16.76 16.76 0 0 0-8 2" fill="#ffe912"/>
  <line x1="461.67" x2="536.78" y1="452.19" y2="452.19" style="stroke:#000;stroke-width:0.8px;"/>
  <rect width="75.11" height="2.56" x="461.67" y="450.92" style="fill:none;stroke:#000;stroke-width:0.2px;"/>
  <path d="M473.18 447.65v7.19a3 3 0 0 0 3.1 3c2 0 3.17-1.08 3.17-3v-7.07c0-2.74-1.12-4.42-2.9-4.42a3.72 3.72 0 0 0-1.39.36 4 4 0 0 0-.82.46 3.09 3.09 0 0 0-.69.93 4.13 4.13 0 0 0-.47 1.28Zm22.6 5.91v1.28a3 3 0 0 0 3.09 3c2 0 3.17-1.08 3.17-3v-7.07c0-2.72-1.12-4.43-2.87-4.43-2.07 0-3.39 1.69-3.39 4.31Zm21.9-5.91v7.19a3 3 0 0 0 3.1 3c2 0 3.16-1.08 3.16-3v-7.07c0-2.74-1.11-4.42-2.9-4.42a3.76 3.76 0 0 0-1.39.36 3.57 3.57 0 0 0-.81.46 2.81 2.81 0 0 0-.7.93 4 4 0 0 0-.46 1.28Z" fill="#ffe912"/>
  <rect width="6.83" height="8.8" x="471.56" y="508.24" fill="#ffe912"/>
  <rect width="6.83" height="2.78" x="471.56" y="519.02" fill="#ffe912"/>
  <rect width="6.85" height="8.8" x="518.14" y="508.24" fill="#ffe912"/>
  <rect width="6.85" height="2.78" x="518.14" y="519.02" fill="#ffe912"/>
</svg>