<?xml version="1.0" encoding="UTF-8"?>
<svg xmlns="http://www.w3.org/2000/svg"
     viewBox="0 0 128 128">
  <defs>
    <linearGradient id="a"
                    x1="0"
                    y1="102.4"
                    x2="128"
                    y2="25.6"
                    gradientUnits="userSpaceOnUse">
      <stop offset="0%"
            stop-color="#005fb3"/>
      <stop offset="100%"
            stop-color="#4de9e9"/>
    </linearGradient>
  </defs>
  <rect width="128"
        height="128"
        x="0"
        y="0"
        fill="url(#a)"/>
  <g transform="translate(14 50.9)">
    <path class="st0"
          d="M17.4 21.8L17.1 22c-1.6 1.3-3.5 2-5.5 2c-4.7 0-8.5-4-8.5-9.2c0-5.1 3.7-9.2 8.5-9.2c2 0 3.8 0.7 5.4 1.9l0.2 0.2l1-1.4l-0.2-0.2c-2-1.6-4.4-2.4-6.9-2.4C5 3.8 0 8.7 0 14.8c0 6.1 5 11 11.2 11c2.6 0 5-0.8 7-2.4l0.2-0.2L17.4 21.8z"
          fill="#fff"/>
    <path class="st0"
          d="M49.5 25.8v-8.9c0-6-4.4-6.3-5.3-6.3c-2.6 0-4.5 1.5-5.2 2.8l0 0.1l-0.2-2.5l-2.2 0.5c0.1 1.2 0.1 1.9 0.1 3.4v11h2.5v-9c0-0.5 0.1-1 0.2-1.3c0.5-1.5 1.9-2.9 3.9-2.9c2.4 0 3.7 1.7 3.7 4.6v8.6H49.5z"
          fill="#fff"/>
    <path class="st0"
          d="M60.7 5.6L61 3.8c-0.4-0.2-1.2-0.4-2.2-0.4c-1.4 0-2.7 0.5-3.6 1.4C54 5.9 53.4 7.7 53.4 10v0.9h-2.1v1.8h2.1v13.1h2.5V12.7h3.7v-1.8h-3.7v-1c0-3.1 1-4.6 3.1-4.6C59.7 5.4 60.2 5.5 60.7 5.6z"
          fill="#fff"/>
    <polygon class="st0"
             fill="#fff"
             points="62.4 11.5 62.4 25.8 64.9 25.8 64.9 10.9  "/>
    <path class="st0"
          d="M63.6 8c1 0 1.6-0.6 1.6-1.6c0-0.9-0.7-1.6-1.6-1.6c-0.9 0-1.6 0.7-1.6 1.6C62 7.4 62.7 8 63.6 8z"
          fill="#fff"/>
    <path class="st0"
          d="M75.2 12.9c0.3 0 0.6 0 0.8 0v-2.3c-0.2 0-0.4 0-0.6 0c-1.8 0-3.8 1.3-4.5 3.2l0 0.1l-0.1-3l-2.1 0.5c0.1 1.4 0.1 2.3 0.1 4v10.3h2.5v-8c0-0.5 0-1 0.1-1.3C71.7 14.3 73.3 12.9 75.2 12.9z"
          fill="#fff"/>
    <path class="st0"
          d="M100 25.8V17c0-4.8-2.5-6.5-4.9-6.5c-1.3 0-2.3 0.3-3.3 1c-0.7 0.6-1.5 1.2-1.9 1.9l0 0.1h0l0-0.1c-0.7-1.8-2.3-3-4.2-3c-2.1 0-4 0.9-5 2.7l0 0.1l-0.1-2.4l-2.2 0.5c0 0.2 0 0.5 0 0.7c0 0.8 0.1 1.5 0.1 2.7v11h2.4v-9c0-0.5 0.1-1 0.2-1.4c0.4-1.4 1.8-2.9 3.6-2.9c2.1 0 3.3 1.6 3.3 4.3v9h2.4v-9.3c0-0.5 0.1-0.9 0.2-1.4c0.5-1.2 1.6-2.6 3.5-2.6c2.2 0 3.5 1.7 3.5 4.8v8.5L100 25.8L100 25.8z"
          fill="#fff"/>
    <path class="st0"
          d="M84 8.9C77.5 3.4 68.7 0 59 0C44.6 0 32.6 7.6 26.7 18.7c-1-0.4-2-0.8-3.5-0.8c1.6 1.6 3.1 5.3 3.1 5.3s0.2 0.1 0.7 0.1c0.5 0 0.9-0.1 0.9-0.1c4.6-12.2 15.3-22 33.1-22c8.6 0 16.5 3.1 22.7 7.7C83.6 8.9 84 8.9 84 8.9z"
          fill="#ea7500"/>
    <path class="st0"
          d="M33.8 14.2c-0.6 0.8-1.2 1.6-1.7 2.3c0.1 0.5 0.2 1.1 0.2 1.6c0 3.5-2.3 6.2-5.3 6.2s-5.3-2.7-5.3-6.2c0-3.5 2.4-6.3 5.3-6.3c1 0 1.9 0.3 2.7 0.8c0.4-0.5 0.8-0.9 1.2-1.3l0 0c-1.2-0.6-2.5-1-3.8-1c-4.3 0-8 3.6-8 7.9c0 4.3 3.7 7.9 8 7.9c4.4 0 7.9-3.5 7.9-7.7C35 16.5 34.2 15 33.8 14.2L33.8 14.2z"
          fill="#fff"/>
  </g>
</svg>
