<svg xmlns="http://www.w3.org/2000/svg" viewBox="0 0 512 303"><path d="M189.17 0c-16.6.19-25.92 10.88-33.73 23.87 1.1-2.3 4.8-7.2 4.81-9.8.1-4.7-20.1-4.31-23.9-2.52-1.5.3-3.1 2.7-4.3 1.9-1.1-.3-1-2.4-1.8-3.8-2.2-3.2-6.5-3.91-9.8-4.81a36.57 36.57 0 0 0-26.2 4.17c-3.7 2.3-6.8 4.99-9.3 8.09-.9.7-3.6 2.8-3.3 4.3.29 1.5 1.89 1.7 3.09 2.5 4.7 2.7.1 3.1-3 3.2a74.7 74.7 0 0 0-25.81 3.57C13.91 44.22-9.44 88.9 3.63 131.02c2.58 7.8 6.27 15.9 11.17 22.21 3.6 5 2.9-1.1 2.8-4.2-5.64-54.5 32.81-104.27 87.73-113.11A147.39 147.39 0 0 0 60.2 59.97c-7.2 5.6-13.31 11.5-18.62 18.79-32.05 42.76-23.61 103.48 19.26 136.02 5.5 4.1 10.89 7.71 17.19 10.62 1.8 1.2 7.8 5.2 10.2 4.21 2.4-1 .1-4.7-.8-6.6a141.04 141.04 0 0 1 .1-93.6 141.5 141.5 0 0 1 21.34-39.08 86.4 86.4 0 0 1 15.72-15.09c5.5-3.7 12.7-9.28 19.2-10.58a133.73 133.73 0 0 0-56.15 143.75c3.1 12.9 7.48 24.5 17.17 34.02 8.9 8.11 18.59 15.02 29.88 19.53a82.1 82.1 0 0 0 33.6 6.84c13.5-.09 25.2-1.38 38.4 2.24 15.5 4.71 29.61 13.06 39.87 25.34a31.08 31.08 0 0 0 6.62 6.15c4.84 3.23-1.92-11.24-2.71-12.65-9.98-21.4-29.26-37.33-51.36-43.85-9.9-2.71-19.3-2.92-28.2-8.43a62 62 0 0 1-19.77-21.02c-23.06-37.53-13.61-86.72 21.72-112.99 4.5-3.5 9.2-5.99 13.9-8.48 3.81-1.8 4.82-7.2 7.22-10.8 1.2-1.8 4.3-4.49 1.9-6.1-1.2-.8-5.7.1-7.3-.1-5.3-.5-10.2-1.61-14.8-3.82 8 1.01 16.21.42 24.11-1.67 7-1.4 14-5.39 19.21-10.58 6.41-7 10.32-16.1 9.93-25.9-.48-20.7-17.66-36.51-37.86-36.13zM167.7 29.6a2.43 2.43 0 0 1 1.41.56c.37.3.64.6.93.94.59.7 1.23 1.55 1.95 2.47 1.45 1.83 3.28 3.78 4.68 4.4 1.91.87 4.71 1.13 6.57.46 1.84-.67 2.85-1.26 4.27-1.48 1.43-.22 2.86.17 4.77 1.05 2.51 1.16 5.1 1.76 7.02 1.38 1.3-.26 2.38-.45 3.39-1.28.74-.62 1-1.12 1.64-1.98.32-.42.65-.86 1.14-1.27.5-.41 1.4-.91 2.44-.63a2.41 2.41 0 0 1 1.51 1.6c.14.55.07.95 0 1.33a9 9 0 0 1-.82 2.26 13.28 13.28 0 0 1-2.9 4.13c-3.17 2.8-7.6 4.09-11.6 2.84-2.63-.82-5.37-1.11-7.4.04a12.66 12.66 0 0 1-11.4.46c-3.74-1.72-6.23-4.57-8.43-7.95a12.15 12.15 0 0 1-1.55-4.19 7.96 7.96 0 0 1-.16-2.47c.1-.85.52-2.03 1.7-2.53.29-.11.58-.15.84-.14zm69.2 3.56c-1.87.1-3.62.45-4.47 1.4-1.7 1.9.28 22.3-19.64 42.39-9.01 9.59-17.12 13.28-19.24 33.98-2.72 25.5 4.35 50.6 29.14 57.63 14.9 4.32 30.8.63 45.6-3.35 16.21-4.79 31.72-10.47 46.83-18.16 14.1-7.48 25.72-17.07 42.82-17.35a56.8 56.8 0 0 1 57.35 47.86c1.1 8.1.68 16.5-1.42 24.2-2.5 5.7-4.42 11.8-4.72 18.1.97 31 47.87 26.35 64.59 11.07 3.1-2.7 14.42-13.79 28.11-12.88 3.6-.2-9.09-9.1-31.2-2.63-3.4 1.2-13.89-7.11-16.87-27.32a96.3 96.3 0 0 0-9.27-25.7C412.48 90.25 344.53 41.38 266.14 34.1c-8-1.01-15.8-1.02-24.1-.93-1.3 0-3.28-.12-5.14-.01zm46.91 18.72c1.7.1 3.18.82 4 2.34 2.8 6.2-11.21 14.2-14.1 7.49-2.17-5.03 5-10.16 10.1-9.83zm39.99 15.56c2.95.06 5.33 1.05 6.3 3.33 3.89 9.1-22.42 20.58-26.31 11.47-2.92-6.83 11.15-14.99 20.01-14.8zm-67.63 6.81c2.3.15 4.23.96 5.02 2.95 2.1 5.3-6.81 10.19-10.61 11.99-3.9 1.3-15.2 4.58-15.8-1.02-1.1-5.5 7.4-9.8 10.7-11.49 2.07-1.06 6.87-2.67 10.7-2.43zm105.3 17.8c1.7.11 3.18.83 4 2.36 2.8 6.2-11.4 13.18-14.2 6.98-2.1-4.65 5.09-9.69 10.2-9.34zm-175.7 8.47a79.75 79.75 0 0 0-33.04 32.56c-1.9 3.5-3.71 7.5-5.02 11.4-1.5 2.9-2.4 6.2-2.8 9.4.09 3.1 3.29 3.5 5.59 4.6 3.5 1.9 7 3.81 9.6 6.41 5.69 5.11 10.18 12.02 15.48 17.72 2.7 3.1 5.99 6.6 9.18 9.61 2 2.2 2 2.2 4.5 1.7 2.4-1 4.7-2.49 6.5-3.89 3.21-2.2 6.41-4.4 9.12-6.49 2.2-2 6.8-5 6.3.3-.4 3.2-4.21 7.6-5.72 10.5-2.4 3.6-4.9 6.7-7.4 9.8 52.15 42.65 125.24 59.83 190.26 41.7 4.9-1.5 9.3-2.9 14.2-4.39 3.4-1.2 6.8-2.4 5.91-6.9-.9-4.5-8.79-7.6-7.69-12.5a155.3 155.3 0 0 0 4.54-32.1 56.8 56.8 0 0 0-26.05-47.33c-14.7-8.51-27.8-11.63-42.7-2.94A262.17 262.17 0 0 1 269.9 168c-11.3 3.29-25.57 6.76-37.67 6.04-31.4-3.63-51.51-33.54-48.38-64.83.4-3.2.9-5.9 1.91-8.7zm30 .62c1.72.09 3.17.84 3.89 2.51 2.9 6.7-10.81 13.6-14.1 7.49-2.48-4.58 5.07-10.27 10.21-10zm55.59 3.12c1.7.11 3.18.83 4 2.35 2.9 6.7-11.22 14.2-14.1 7.49-2.18-5.03 4.99-10.16 10.1-9.84zm52.7 1.08c2.95.06 5.33 1.05 6.3 3.33 3.9 9.1-22.42 20.58-26.31 11.47-2.92-6.83 11.15-14.99 20.01-14.8zm64.66 3.82c1.02.08 1.9.52 2.34 1.47 2.3 3.7-6.7 8.1-8.5 4.3-1.35-2.86 3.1-5.99 6.16-5.77zm-156.29 19.09c2.95.06 5.33 1.05 6.3 3.32 3.9 9.1-22.42 20.58-26.31 11.48-2.92-6.83 11.15-15 20.01-14.8zm189.41 10.4c1.72.1 3.17.84 3.9 2.52 2.88 6.7-10.82 13.59-14.12 7.49-2.47-4.58 5.08-10.27 10.22-10zm-156.62.1c1.7.12 3.18.83 4 2.36 3.4 6.6-11.21 14.18-14.1 7.48-2.18-5.03 5-10.16 10.1-9.83zM438.2 177.2c1.7.07 3.17.75 4 2.28 3.78 6-11.32 13.69-14.12 7.48-2.1-4.65 5.04-9.97 10.12-9.76zm-237.83 15.03a106.3 106.3 0 0 1-48.02 17.35c3.2 5.6 6.78 10.6 10.88 15.5 15.2-7.18 27.52-18.46 37.14-32.85zm234.4 19.97c1.7.07 3.16.75 3.98 2.28 3.3 6.1-11.31 13.68-14.1 7.48-2.1-4.65 5.03-9.97 10.12-9.76zm69.38 6.94c-15 .39-22.71 13.88-34.32 20.87a60.3 60.3 0 0 1 21.8 7.62c5.29 3.1 10.68 9.32 11.9-.28a57.9 57.9 0 0 1 7.71-21.3c2.71-4.7-2.39-6.8-7.09-6.9"/></svg>