<svg viewBox="-24 -24 1608 1608" xmlns="http://www.w3.org/2000/svg" xmlns:xlink="http://www.w3.org/1999/xlink" xml:space="preserve" overflow="hidden"><defs><clipPath id="clip0"><rect x="2688" y="569" width="1559" height="1558"/></clipPath></defs><g clip-path="url(#clip0)" transform="translate(-2688 -569)"><path d="M3625.07 1587.02 3914.9 1986.02 3898.45 1997.77C3795.85 2065.98 3676.17 2110.53 3547.2 2123.63L3480.49 2127 3480.49 1633.35 3525.26 1628.84C3555.87 1622.58 3584.7 1611.43 3610.91 1596.25ZM3310.12 1586.77 3318.88 1593.16C3346.46 1609.92 3377.09 1622.16 3409.74 1628.84L3454.51 1633.35 3454.51 2127 3387.8 2123.63C3264.97 2111.15 3150.56 2070.15 3051.32 2007.35L3020.32 1985.72ZM3735.67 1448.81 4204.14 1601.06 4192.93 1633.88C4140.58 1766.66 4052.85 1881.61 3941.36 1967.11L3936.04 1970.91 3645.69 1571.2 3680.8 1539.47C3694.21 1524.54 3706.07 1508.2 3716.13 1490.69ZM3199.46 1448.77 3207.67 1469.14C3224.84 1505.93 3249.6 1538.48 3279.94 1564.76L3289.12 1571.46 2999.01 1970.85 2993.65 1967.11C2877.5 1878.05 2787.15 1757.03 2735.71 1617.19L2730.82 1601.07ZM4211.72 1119.8 4225.38 1164.86C4239.51 1223.6 4247 1284.93 4247 1348 4247 1423.69 4236.22 1496.86 4216.1 1566.06L4212.55 1576.47 3742.86 1423.82 3749.63 1398.74C3752.57 1382.27 3754.11 1365.32 3754.11 1348 3754.11 1326.35 3751.71 1305.27 3747.16 1285L3743.49 1271.97ZM2722.45 1119.53 3192.14 1272.18 3185.37 1297.26C3182.43 1313.73 3180.89 1330.68 3180.89 1348 3180.89 1369.65 3183.29 1390.73 3187.84 1411L3191.51 1424.03 2723.28 1576.2 2709.63 1531.14C2695.49 1472.4 2688 1411.07 2688 1348 2688 1272.31 2698.78 1199.14 2718.9 1129.94ZM3467.5 1088.11C3611 1088.11 3727.33 1204.47 3727.33 1348 3727.33 1491.53 3611 1607.89 3467.5 1607.89 3324 1607.89 3207.67 1491.53 3207.67 1348 3207.67 1204.47 3324 1088.11 3467.5 1088.11ZM3936 725.15 3941.36 728.89C4057.5 817.953 4147.85 938.972 4199.29 1078.81L4204.18 1094.93 3735.54 1247.23 3727.34 1226.86C3710.16 1190.07 3685.4 1157.52 3655.06 1131.24L3645.88 1124.54ZM2998.96 725.09 3289.31 1124.8 3254.2 1156.53C3240.79 1171.46 3228.93 1187.8 3218.87 1205.31L3199.33 1247.19 2730.86 1094.94 2742.07 1062.12C2794.42 929.342 2882.15 814.39 2993.65 728.89ZM3480.49 569 3547.2 572.369C3670.03 584.846 3784.44 625.848 3883.68 688.648L3914.68 710.278 3624.88 1109.23 3616.12 1102.84C3588.54 1086.08 3557.91 1073.84 3525.26 1067.16L3480.49 1062.65ZM3454.51 569 3454.51 1062.65 3409.74 1067.16C3379.13 1073.42 3350.3 1084.57 3324.09 1099.75L3309.93 1108.98 3020.1 709.982 3036.55 698.231C3139.15 630.02 3258.83 585.47 3387.8 572.369Z" fill="#0063BE" fill-rule="evenodd"/><text fill="#FFFFFF" font-family="Calibri,Calibri_MSFontService,sans-serif" font-weight="700" font-size="83" transform="matrix(1 0 0 1 3386.99 1325)">Data </text><text fill="#FFFFFF" font-family="Calibri,Calibri_MSFontService,sans-serif" font-weight="700" font-size="83" transform="matrix(1 0 0 1 3262.4 1424)">Governance</text><text fill="#FFFFFF" font-family="Calibri,Calibri_MSFontService,sans-serif" font-weight="700" font-size="64" transform="matrix(1 0 0 1 3566.87 724)">Data </text><text fill="#FFFFFF" font-family="Calibri,Calibri_MSFontService,sans-serif" font-weight="700" font-size="64" transform="matrix(1 0 0 1 3494.36 801)">Modelling </text><text fill="#FFFFFF" font-family="Calibri,Calibri_MSFontService,sans-serif" font-weight="700" font-size="64" transform="matrix(1 0 0 1 3509.83 878)">&amp; Design</text><text fill="#FFFFFF" font-family="Calibri,Calibri_MSFontService,sans-serif" font-weight="700" font-size="64" transform="matrix(1 0 0 1 3770.31 1013)">Data Storage </text><text fill="#FFFFFF" font-family="Calibri,Calibri_MSFontService,sans-serif" font-weight="700" font-size="64" transform="matrix(1 0 0 1 3763.05 1090)">&amp; Operations</text><text fill="#FFFFFF" font-family="Calibri,Calibri_MSFontService,sans-serif" font-weight="700" font-size="64" transform="matrix(1 0 0 1 3975.73 1330)">Data </text><text fill="#FFFFFF" font-family="Calibri,Calibri_MSFontService,sans-serif" font-weight="700" font-size="64" transform="matrix(1 0 0 1 3930.45 1407)">Security</text><text fill="#FFFFFF" font-family="Calibri,Calibri_MSFontService,sans-serif" font-weight="700" font-size="60" transform="matrix(1 0 0 1 3898.15 1576)">Data </text><text fill="#FFFFFF" font-family="Calibri,Calibri_MSFontService,sans-serif" font-weight="700" font-size="60" transform="matrix(1 0 0 1 3791.45 1647)">Integration &amp; </text><text fill="#FFFFFF" font-family="Calibri,Calibri_MSFontService,sans-serif" font-weight="700" font-size="60" transform="matrix(1 0 0 1 3762.89 1719)">Interoperability</text><text fill="#FFFFFF" font-family="Calibri,Calibri_MSFontService,sans-serif" font-weight="700" font-size="64" transform="matrix(1 0 0 1 3508.9 1858)">Document</text><text fill="#FFFFFF" font-family="Calibri,Calibri_MSFontService,sans-serif" font-weight="700" font-size="64" transform="matrix(1 0 0 1 3508.9 1935)">&amp; Content </text><text fill="#FFFFFF" font-family="Calibri,Calibri_MSFontService,sans-serif" font-weight="700" font-size="64" transform="matrix(1 0 0 1 3494.58 2012)">Management</text><text fill="#FFFFFF" font-family="Calibri,Calibri_MSFontService,sans-serif" font-weight="700" font-size="64" transform="matrix(1 0 0 1 3178.66 1856)">Reference </text><text fill="#FFFFFF" font-family="Calibri,Calibri_MSFontService,sans-serif" font-weight="700" font-size="64" transform="matrix(1 0 0 1 3186.95 1933)">&amp; Master </text><text fill="#FFFFFF" font-family="Calibri,Calibri_MSFontService,sans-serif" font-weight="700" font-size="64" transform="matrix(1 0 0 1 3248.96 2010)">Data</text><text fill="#FFFFFF" font-family="Calibri,Calibri_MSFontService,sans-serif" font-weight="700" font-size="60" transform="matrix(1 0 0 1 2920.71 1585)">Data </text><text fill="#FFFFFF" font-family="Calibri,Calibri_MSFontService,sans-serif" font-weight="700" font-size="60" transform="matrix(1 0 0 1 2815.57 1656)">Warehousing </text><text fill="#FFFFFF" font-family="Calibri,Calibri_MSFontService,sans-serif" font-weight="700" font-size="60" transform="matrix(1 0 0 1 2844.54 1728)">&amp; Business </text><text fill="#FFFFFF" font-family="Calibri,Calibri_MSFontService,sans-serif" font-weight="700" font-size="60" transform="matrix(1 0 0 1 2835.46 1799)">Intelligence</text><text fill="#FFFFFF" font-family="Calibri,Calibri_MSFontService,sans-serif" font-weight="700" font-size="64" transform="matrix(1 0 0 1 2810.25 1329)">Metadata </text><text fill="#FFFFFF" font-family="Calibri,Calibri_MSFontService,sans-serif" font-weight="700" font-size="64" transform="matrix(1 0 0 1 2762.2 1406)">Management</text><text fill="#FFFFFF" font-family="Calibri,Calibri_MSFontService,sans-serif" font-weight="700" font-size="64" transform="matrix(1 0 0 1 2916.16 1013)">Data </text><text fill="#FFFFFF" font-family="Calibri,Calibri_MSFontService,sans-serif" font-weight="700" font-size="64" transform="matrix(1 0 0 1 2881.19 1090)">Quality</text><text fill="#FFFFFF" font-family="Calibri,Calibri_MSFontService,sans-serif" font-weight="700" font-size="64" transform="matrix(1 0 0 1 3222.98 763)">Data </text><text fill="#FFFFFF" font-family="Calibri,Calibri_MSFontService,sans-serif" font-weight="700" font-size="64" transform="matrix(1 0 0 1 3120.45 840)">Architecture</text></g></svg>