<svg viewBox="-3 -16 3384 1645"
	xmlns="http://www.w3.org/2000/svg"
	xmlns:xlink="http://www.w3.org/1999/xlink" xml:space="preserve" overflow="hidden">
	<defs>
		<linearGradient x1="1039.5" y1="1780" x2="1039.5" y2="2040" gradientUnits="userSpaceOnUse" spreadMethod="reflect" id="fill0">
			<stop offset="0" stop-color="#F4A1B7"/>
			<stop offset="0.5" stop-color="#F192AB"/>
			<stop offset="1" stop-color="#F47D9D"/>
		</linearGradient>
		<linearGradient x1="1039.5" y1="1780" x2="1039.5" y2="2040" gradientUnits="userSpaceOnUse" spreadMethod="reflect" id="fill1">
			<stop offset="0" stop-color="#F6B3C5"/>
			<stop offset="0.5" stop-color="#F4A7BB"/>
			<stop offset="1" stop-color="#F696B0"/>
		</linearGradient>
		<linearGradient x1="1039.5" y1="1780" x2="1039.5" y2="2040" gradientUnits="userSpaceOnUse" spreadMethod="reflect" id="fill2">
			<stop offset="0" stop-color="#C48193"/>
			<stop offset="0.5" stop-color="#C27589"/>
			<stop offset="1" stop-color="#C4647E"/>
		</linearGradient>
		<linearGradient x1="1039.5" y1="1780" x2="1039.5" y2="2040" gradientUnits="userSpaceOnUse" spreadMethod="reflect" id="fill3">
			<stop offset="0" stop-color="#F8C7D4"/>
			<stop offset="0.5" stop-color="#F7BECD"/>
			<stop offset="1" stop-color="#F8B1C4"/>
		</linearGradient>
		<linearGradient x1="1039.5" y1="1780" x2="1039.5" y2="2040" gradientUnits="userSpaceOnUse" spreadMethod="reflect" id="fill4">
			<stop offset="0" stop-color="#92616E"/>
			<stop offset="0.5" stop-color="#915867"/>
			<stop offset="1" stop-color="#924B5E"/>
		</linearGradient>
		<linearGradient x1="1819" y1="766" x2="1819" y2="1026" gradientUnits="userSpaceOnUse" spreadMethod="reflect" id="fill5">
			<stop offset="0" stop-color="#B6E4EB"/>
			<stop offset="0.5" stop-color="#A8DEE7"/>
			<stop offset="1" stop-color="#98DBE6"/>
		</linearGradient>
		<linearGradient x1="1819" y1="766" x2="1819" y2="1026" gradientUnits="userSpaceOnUse" spreadMethod="reflect" id="fill6">
			<stop offset="0" stop-color="#C4E9EF"/>
			<stop offset="0.5" stop-color="#B9E4EC"/>
			<stop offset="1" stop-color="#ACE2EB"/>
		</linearGradient>
		<linearGradient x1="1819" y1="766" x2="1819" y2="1026" gradientUnits="userSpaceOnUse" spreadMethod="reflect" id="fill7">
			<stop offset="0" stop-color="#92B7BD"/>
			<stop offset="0.5" stop-color="#87B2BA"/>
			<stop offset="1" stop-color="#7AB0B9"/>
		</linearGradient>
		<linearGradient x1="1819" y1="766" x2="1819" y2="1026" gradientUnits="userSpaceOnUse" spreadMethod="reflect" id="fill8">
			<stop offset="0" stop-color="#D3EFF3"/>
			<stop offset="0.5" stop-color="#CBEBF1"/>
			<stop offset="1" stop-color="#C1E9F0"/>
		</linearGradient>
		<linearGradient x1="1819" y1="766" x2="1819" y2="1026" gradientUnits="userSpaceOnUse" spreadMethod="reflect" id="fill9">
			<stop offset="0" stop-color="#6D898D"/>
			<stop offset="0.5" stop-color="#65858B"/>
			<stop offset="1" stop-color="#5B838A"/>
		</linearGradient>
		<linearGradient x1="1299" y1="1442" x2="1299" y2="1702" gradientUnits="userSpaceOnUse" spreadMethod="reflect" id="fill10">
			<stop offset="0" stop-color="#FFCFA0"/>
			<stop offset="0.5" stop-color="#FEC791"/>
			<stop offset="1" stop-color="#FFC17C"/>
		</linearGradient>
		<linearGradient x1="1299" y1="1442" x2="1299" y2="1702" gradientUnits="userSpaceOnUse" spreadMethod="reflect" id="fill11">
			<stop offset="0" stop-color="#FFD8B3"/>
			<stop offset="0.5" stop-color="#FED2A7"/>
			<stop offset="1" stop-color="#FFCD96"/>
		</linearGradient>
		<linearGradient x1="1299" y1="1442" x2="1299" y2="1702" gradientUnits="userSpaceOnUse" spreadMethod="reflect" id="fill12">
			<stop offset="0" stop-color="#CDA681"/>
			<stop offset="0.5" stop-color="#CCA075"/>
			<stop offset="1" stop-color="#CD9B64"/>
		</linearGradient>
		<linearGradient x1="1299" y1="1442" x2="1299" y2="1702" gradientUnits="userSpaceOnUse" spreadMethod="reflect" id="fill13">
			<stop offset="0" stop-color="#FFE2C6"/>
			<stop offset="0.5" stop-color="#FEDDBD"/>
			<stop offset="1" stop-color="#FFDAB0"/>
		</linearGradient>
		<linearGradient x1="1299" y1="1442" x2="1299" y2="1702" gradientUnits="userSpaceOnUse" spreadMethod="reflect" id="fill14">
			<stop offset="0" stop-color="#997C60"/>
			<stop offset="0.5" stop-color="#987757"/>
			<stop offset="1" stop-color="#99744A"/>
		</linearGradient>
		<linearGradient x1="2078.5" y1="429" x2="2078.5" y2="689" gradientUnits="userSpaceOnUse" spreadMethod="reflect" id="fill15">
			<stop offset="0" stop-color="#A3A8D1"/>
			<stop offset="0.5" stop-color="#979CC7"/>
			<stop offset="1" stop-color="#848AC1"/>
		</linearGradient>
		<linearGradient x1="2078.5" y1="429" x2="2078.5" y2="689" gradientUnits="userSpaceOnUse" spreadMethod="reflect" id="fill16">
			<stop offset="0" stop-color="#B5B9DA"/>
			<stop offset="0.5" stop-color="#ABAFD2"/>
			<stop offset="1" stop-color="#9CA1CD"/>
		</linearGradient>
		<linearGradient x1="2078.5" y1="429" x2="2078.5" y2="689" gradientUnits="userSpaceOnUse" spreadMethod="reflect" id="fill17">
			<stop offset="0" stop-color="#8387A8"/>
			<stop offset="0.5" stop-color="#797DA0"/>
			<stop offset="1" stop-color="#6A6F9B"/>
		</linearGradient>
		<linearGradient x1="2078.5" y1="429" x2="2078.5" y2="689" gradientUnits="userSpaceOnUse" spreadMethod="reflect" id="fill18">
			<stop offset="0" stop-color="#C8CBE3"/>
			<stop offset="0.5" stop-color="#C1C4DD"/>
			<stop offset="1" stop-color="#B5B9DA"/>
		</linearGradient>
		<linearGradient x1="2078.5" y1="429" x2="2078.5" y2="689" gradientUnits="userSpaceOnUse" spreadMethod="reflect" id="fill19">
			<stop offset="0" stop-color="#62657D"/>
			<stop offset="0.5" stop-color="#5B5E77"/>
			<stop offset="1" stop-color="#4F5374"/>
		</linearGradient>
		<linearGradient x1="1559" y1="1104" x2="1559" y2="1364" gradientUnits="userSpaceOnUse" spreadMethod="reflect" id="fill20">
			<stop offset="0" stop-color="#E3EDA2"/>
			<stop offset="0.5" stop-color="#DEE893"/>
			<stop offset="1" stop-color="#DDEA7F"/>
		</linearGradient>
		<linearGradient x1="1559" y1="1104" x2="1559" y2="1364" gradientUnits="userSpaceOnUse" spreadMethod="reflect" id="fill21">
			<stop offset="0" stop-color="#E8F1B4"/>
			<stop offset="0.5" stop-color="#E4EDA8"/>
			<stop offset="1" stop-color="#E4EE98"/>
		</linearGradient>
		<linearGradient x1="1559" y1="1104" x2="1559" y2="1364" gradientUnits="userSpaceOnUse" spreadMethod="reflect" id="fill22">
			<stop offset="0" stop-color="#B6BF82"/>
			<stop offset="0.5" stop-color="#B2BB76"/>
			<stop offset="1" stop-color="#B2BC66"/>
		</linearGradient>
		<linearGradient x1="1559" y1="1104" x2="1559" y2="1364" gradientUnits="userSpaceOnUse" spreadMethod="reflect" id="fill23">
			<stop offset="0" stop-color="#EEF4C7"/>
			<stop offset="0.5" stop-color="#EBF1BE"/>
			<stop offset="1" stop-color="#EBF2B2"/>
		</linearGradient>
		<linearGradient x1="1559" y1="1104" x2="1559" y2="1364" gradientUnits="userSpaceOnUse" spreadMethod="reflect" id="fill24">
			<stop offset="0" stop-color="#888E61"/>
			<stop offset="0.5" stop-color="#858B58"/>
			<stop offset="1" stop-color="#858C4C"/>
		</linearGradient>
		<linearGradient x1="3586" y1="559" x2="2417" y2="559" gradientUnits="userSpaceOnUse" spreadMethod="reflect" id="fill25">
			<stop offset="0" stop-color="#FFFFFF"/>
			<stop offset="0.8" stop-color="#979CC7"/>
			<stop offset="1" stop-color="#979CC7"/>
		</linearGradient>
		<linearGradient x1="3326" y1="895.999" x2="2157" y2="895.999" gradientUnits="userSpaceOnUse" spreadMethod="reflect" id="fill26">
			<stop offset="0" stop-color="#FFFFFF"/>
			<stop offset="0.8" stop-color="#A8DEE7"/>
			<stop offset="1" stop-color="#A8DEE7"/>
		</linearGradient>
		<linearGradient x1="3066" y1="1234" x2="1897" y2="1234" gradientUnits="userSpaceOnUse" spreadMethod="reflect" id="fill27">
			<stop offset="0" stop-color="#FFFFFF"/>
			<stop offset="0.8" stop-color="#DEE893"/>
			<stop offset="1" stop-color="#DEE893"/>
		</linearGradient>
		<linearGradient x1="2806" y1="1572" x2="1637" y2="1572" gradientUnits="userSpaceOnUse" spreadMethod="reflect" id="fill28">
			<stop offset="0" stop-color="#FFFFFF"/>
			<stop offset="0.8" stop-color="#FEC791"/>
			<stop offset="1" stop-color="#FEC791"/>
		</linearGradient>
		<linearGradient x1="2546" y1="1910" x2="1377" y2="1910" gradientUnits="userSpaceOnUse" spreadMethod="reflect" id="fill29">
			<stop offset="0" stop-color="#FFFFFF"/>
			<stop offset="0.8" stop-color="#F192AB"/>
			<stop offset="1" stop-color="#F192AB"/>
		</linearGradient>
		<clipPath id="clip30">
			<rect x="1263" y="1488" width="72" height="105"/>
		</clipPath>
		<clipPath id="clip31">
			<rect x="1263" y="1488" width="72" height="105"/>
		</clipPath>
		<clipPath id="clip32">
			<rect x="1263" y="1488" width="72" height="105"/>
		</clipPath>
	</defs>
	<rect fill="#FFFFFF" x="-3" y="-16" width="3384" height="1645"/>
	<g transform="translate(-221 -428)">
		<rect x="812.5" y="1812.5" width="454" height="195" fill="url(#fill0)"/>
		<path d="M780 1780 1299 1780 1266.5 1812.5 812.5 1812.5Z" fill="url(#fill1)" fill-rule="evenodd"/>
		<path d="M780 2040 812.5 2007.5 1266.5 2007.5 1299 2040Z" fill="url(#fill2)" fill-rule="evenodd"/>
		<path d="M780 1780 812.5 1812.5 812.5 2007.5 780 2040Z" fill="url(#fill3)" fill-rule="evenodd"/>
		<path d="M1299 1780 1299 2040 1266.5 2007.5 1266.5 1812.5Z" fill="url(#fill4)" fill-rule="evenodd"/>
		<path d="M780 1780 1299 1780 1299 2040 780 2040ZM812.5 1812.5 1266.5 1812.5 1266.5 2007.5 812.5 2007.5ZM780 1780 812.5 1812.5M780 2040 812.5 2007.5M1299 1780 1266.5 1812.5M1299 2040 1266.5 2007.5" stroke="#E82370" stroke-width="2.3" stroke-miterlimit="8" fill="none" fill-rule="evenodd"/>
		<text fill="#04202E" font-family="Calibri,Calibri_MSFontService,sans-serif" font-weight="700" font-size="78" transform="matrix(1 0 0 1 892.417 1982)">Unaware</text>
		<rect x="1591.5" y="798.5" width="455" height="195" fill="url(#fill5)"/>
		<path d="M1559 766 2079 766 2046.5 798.5 1591.5 798.5Z" fill="url(#fill6)" fill-rule="evenodd"/>
		<path d="M1559 1026 1591.5 993.5 2046.5 993.5 2079 1026Z" fill="url(#fill7)" fill-rule="evenodd"/>
		<path d="M1559 766 1591.5 798.5 1591.5 993.5 1559 1026Z" fill="url(#fill8)" fill-rule="evenodd"/>
		<path d="M2079 766 2079 1026 2046.5 993.5 2046.5 798.5Z" fill="url(#fill9)" fill-rule="evenodd"/>
		<path d="M1559 766 2079 766 2079 1026 1559 1026ZM1591.5 798.5 2046.5 798.5 2046.5 993.5 1591.5 993.5ZM1559 766 1591.5 798.5M1559 1026 1591.5 993.5M2079 766 2046.5 798.5M2079 1026 2046.5 993.5" stroke="#66CAD8" stroke-width="2.3" stroke-miterlimit="8" fill="none" fill-rule="evenodd"/>
		<text fill="#04202E" font-family="Calibri,Calibri_MSFontService,sans-serif" font-weight="700" font-size="78" transform="matrix(1 0 0 1 1600.81 969)">Implemented</text>
		<rect x="1071.5" y="1474.5" width="455" height="194.999" fill="url(#fill10)"/>
		<path d="M1039 1442 1559 1442 1526.5 1474.5 1071.5 1474.5Z" fill="url(#fill11)" fill-rule="evenodd"/>
		<path d="M1039 1702 1071.5 1669.5 1526.5 1669.5 1559 1702Z" fill="url(#fill12)" fill-rule="evenodd"/>
		<path d="M1039 1442 1071.5 1474.5 1071.5 1669.5 1039 1702Z" fill="url(#fill13)" fill-rule="evenodd"/>
		<path d="M1559 1442 1559 1702 1526.5 1669.5 1526.5 1474.5Z" fill="url(#fill14)" fill-rule="evenodd"/>
		<path d="M1039 1442 1559 1442 1559 1702 1039 1702ZM1071.5 1474.5 1526.5 1474.5 1526.5 1669.5 1071.5 1669.5ZM1039 1442 1071.5 1474.5M1039 1702 1071.5 1669.5M1559 1442 1526.5 1474.5M1559 1702 1526.5 1669.5" stroke="#FAA61A" stroke-width="2.3" stroke-miterlimit="8" fill="none" fill-rule="evenodd"/>
		<text fill="#04202E" font-family="Calibri,Calibri_MSFontService,sans-serif" font-weight="700" font-size="78" transform="matrix(1 0 0 1 1194.37 1645)">Aware</text>
		<rect x="1851.5" y="461.5" width="454" height="195" fill="url(#fill15)"/>
		<path d="M1819 429 2338 429 2305.5 461.5 1851.5 461.5Z" fill="url(#fill16)" fill-rule="evenodd"/>
		<path d="M1819 689 1851.5 656.5 2305.5 656.5 2338 689Z" fill="url(#fill17)" fill-rule="evenodd"/>
		<path d="M1819 429 1851.5 461.5 1851.5 656.5 1819 689Z" fill="url(#fill18)" fill-rule="evenodd"/>
		<path d="M2338 429 2338 689 2305.5 656.5 2305.5 461.5Z" fill="url(#fill19)" fill-rule="evenodd"/>
		<path d="M1819 429 2338 429 2338 689 1819 689ZM1851.5 461.5 2305.5 461.5 2305.5 656.5 1851.5 656.5ZM1819 429 1851.5 461.5M1819 689 1851.5 656.5M2338 429 2305.5 461.5M2338 689 2305.5 656.5" stroke="#404FA2" stroke-width="2.3" stroke-miterlimit="8" fill="none" fill-rule="evenodd"/>
		<text fill="#04202E" font-family="Calibri,Calibri_MSFontService,sans-serif" font-weight="700" font-size="78" transform="matrix(1 0 0 1 1911.35 631)">Optimised</text>
		<rect x="1331.5" y="1136.5" width="455" height="195" fill="url(#fill20)"/>
		<path d="M1299 1104 1819 1104 1786.5 1136.5 1331.5 1136.5Z" fill="url(#fill21)" fill-rule="evenodd"/>
		<path d="M1299 1364 1331.5 1331.5 1786.5 1331.5 1819 1364Z" fill="url(#fill22)" fill-rule="evenodd"/>
		<path d="M1299 1104 1331.5 1136.5 1331.5 1331.5 1299 1364Z" fill="url(#fill23)" fill-rule="evenodd"/>
		<path d="M1819 1104 1819 1364 1786.5 1331.5 1786.5 1136.5Z" fill="url(#fill24)" fill-rule="evenodd"/>
		<path d="M1299 1104 1819 1104 1819 1364 1299 1364ZM1331.5 1136.5 1786.5 1136.5 1786.5 1331.5 1331.5 1331.5ZM1299 1104 1331.5 1136.5M1299 1364 1331.5 1331.5M1819 1104 1786.5 1136.5M1819 1364 1786.5 1331.5" stroke="#CBDB2A" stroke-width="2.3" stroke-miterlimit="8" fill="none" fill-rule="evenodd"/>
		<text fill="#04202E" font-family="Calibri,Calibri_MSFontService,sans-serif" font-weight="700" font-size="78" transform="matrix(1 0 0 1 1431.77 1307)">Defined</text>
		<path d="M2417 472.334C2417 448.401 2436.4 429 2460.33 429L3542.67 429C3566.6 429 3586 448.401 3586 472.334L3586 645.666C3586 669.599 3566.6 689 3542.67 689L2460.33 689C2436.4 689 2417 669.599 2417 645.666Z" fill="url(#fill25)" fill-rule="evenodd"/>
		<text fill="#04202E" font-family="Arial,Arial_MSFontService,sans-serif" font-weight="400" font-size="64" transform="matrix(1 0 0 1 2461.76 528)">•</text>
		<text fill="#04202E" font-family="Calibri,Calibri_MSFontService,sans-serif" font-weight="700" font-size="64" transform="matrix(1 0 0 1 2526.62 528)">Data workflow redundancies reduced</text>
		<text fill="#04202E" font-family="Arial,Arial_MSFontService,sans-serif" font-weight="400" font-size="64" transform="matrix(1 0 0 1 2461.76 633)">•</text>
		<text fill="#04202E" font-family="Calibri,Calibri_MSFontService,sans-serif" font-weight="700" font-size="64" transform="matrix(1 0 0 1 2526.62 633)">Rules and policies optimised</text>
		<path d="M2157 809.334C2157 785.401 2176.4 766 2200.33 766L3282.67 766C3306.6 766 3326 785.401 3326 809.334L3326 982.665C3326 1006.6 3306.6 1026 3282.67 1026L2200.33 1026C2176.4 1026 2157 1006.6 2157 982.665Z" fill="url(#fill26)" fill-rule="evenodd"/>
		<text fill="#04202E" font-family="Arial,Arial_MSFontService,sans-serif" font-weight="400" font-size="64" transform="matrix(1 0 0 1 2201.92 866)">•</text>
		<text fill="#04202E" font-family="Calibri,Calibri_MSFontService,sans-serif" font-weight="700" font-size="64" transform="matrix(1 0 0 1 2266.77 866)">Rules and policies enforced</text>
		<text fill="#04202E" font-family="Arial,Arial_MSFontService,sans-serif" font-weight="400" font-size="64" transform="matrix(1 0 0 1 2201.92 971)">•</text>
		<text fill="#04202E" font-family="Calibri,Calibri_MSFontService,sans-serif" font-weight="700" font-size="64" transform="matrix(1 0 0 1 2266.77 971)">Metadata collected and measured</text>
		<path d="M1897 1147.33C1897 1123.4 1916.4 1104 1940.33 1104L3022.67 1104C3046.6 1104 3066 1123.4 3066 1147.33L3066 1320.67C3066 1344.6 3046.6 1364 3022.67 1364L1940.33 1364C1916.4 1364 1897 1344.6 1897 1320.67Z" fill="url(#fill27)" fill-rule="evenodd"/>
		<text fill="#04202E" font-family="Arial,Arial_MSFontService,sans-serif" font-weight="400" font-size="64" transform="matrix(1 0 0 1 1942.08 1203)">•</text>
		<text fill="#04202E" font-family="Calibri,Calibri_MSFontService,sans-serif" font-weight="700" font-size="64" transform="matrix(1 0 0 1 2006.93 1203)">Rules and policies defined</text>
		<text fill="#04202E" font-family="Arial,Arial_MSFontService,sans-serif" font-weight="400" font-size="64" transform="matrix(1 0 0 1 1942.08 1308)">•</text>
		<text fill="#04202E" font-family="Calibri,Calibri_MSFontService,sans-serif" font-weight="700" font-size="64" transform="matrix(1 0 0 1 2006.93 1308)">Responsibilities assigned</text>
		<path d="M1637 1485.33C1637 1461.4 1656.4 1442 1680.33 1442L2762.67 1442C2786.6 1442 2806 1461.4 2806 1485.33L2806 1658.67C2806 1682.6 2786.6 1702 2762.67 1702L1680.33 1702C1656.4 1702 1637 1682.6 1637 1658.67Z" fill="url(#fill28)" fill-rule="evenodd"/>
		<text fill="#04202E" font-family="Arial,Arial_MSFontService,sans-serif" font-weight="400" font-size="64" transform="matrix(1 0 0 1 1682.23 1541)">•</text>
		<text fill="#04202E" font-family="Calibri,Calibri_MSFontService,sans-serif" font-weight="700" font-size="64" transform="matrix(1 0 0 1 1747.09 1541)">Data practices documented</text>
		<text fill="#04202E" font-family="Arial,Arial_MSFontService,sans-serif" font-weight="400" font-size="64" transform="matrix(1 0 0 1 1682.23 1646)">•</text>
		<text fill="#04202E" font-family="Calibri,Calibri_MSFontService,sans-serif" font-weight="700" font-size="64" transform="matrix(1 0 0 1 1747.09 1646)">Data sources inventoried</text>
		<path d="M1377 1823.33C1377 1799.4 1396.4 1780 1420.33 1780L2502.67 1780C2526.6 1780 2546 1799.4 2546 1823.33L2546 1996.67C2546 2020.6 2526.6 2040 2502.67 2040L1420.33 2040C1396.4 2040 1377 2020.6 1377 1996.67Z" fill="url(#fill29)" fill-rule="evenodd"/>
		<text fill="#04202E" font-family="Arial,Arial_MSFontService,sans-serif" font-weight="400" font-size="64" transform="matrix(1 0 0 1 1422.39 1879)">•</text>
		<text fill="#04202E" font-family="Calibri,Calibri_MSFontService,sans-serif" font-weight="700" font-size="64" transform="matrix(1 0 0 1 1487.25 1879)">Only reactive</text>
		<text fill="#04202E" font-family="Arial,Arial_MSFontService,sans-serif" font-weight="400" font-size="64" transform="matrix(1 0 0 1 1422.39 1984)">•</text>
		<text fill="#04202E" font-family="Calibri,Calibri_MSFontService,sans-serif" font-weight="700" font-size="64" transform="matrix(1 0 0 1 1487.25 1984)">Generally chaotic</text>
		<path d="M234 429 572 429 234 2040Z" fill="#CBDB2A" fill-rule="evenodd"/>
		<path d="M335.031 526.143C332.847 526.143 330.985 526.304 329.445 526.626 327.906 526.949 326.652 527.432 325.685 528.077 324.719 528.721 324.011 529.5 323.564 530.413 323.116 531.326 322.893 532.373 322.893 533.555 322.893 535.56 323.528 537.136 324.799 538.282 326.07 539.427 327.834 540 330.09 540 331.988 540 333.733 539.517 335.327 538.55 336.92 537.583 338.54 536.169 340.187 534.307L340.187 526.143ZM474.957 505.088C473.238 505.088 471.743 505.411 470.472 506.055 469.201 506.7 468.145 507.568 467.303 508.66 466.462 509.752 465.817 511.041 465.37 512.527 464.922 514.013 464.662 515.598 464.591 517.281L484.786 517.281C484.893 513.485 484.133 510.504 482.503 508.338 480.874 506.172 478.359 505.088 474.957 505.088ZM400.079 496.441C401.404 496.441 402.496 496.486 403.355 496.575 404.215 496.665 404.904 496.799 405.423 496.978 405.942 497.157 406.309 497.381 406.524 497.649 406.739 497.918 406.847 498.231 406.847 498.589L406.847 525.66C406.847 528.166 407.008 530.082 407.33 531.407 407.652 532.732 408.145 533.868 408.807 534.817 409.469 535.766 410.311 536.5 411.331 537.019 412.352 537.539 413.543 537.798 414.903 537.798 416.622 537.798 418.35 537.172 420.086 535.918 421.823 534.665 423.676 532.839 425.645 530.44L425.645 498.589C425.645 498.231 425.744 497.918 425.941 497.649 426.138 497.381 426.496 497.157 427.015 496.978 427.534 496.799 428.224 496.665 429.083 496.575 429.942 496.486 431.034 496.441 432.359 496.441 433.684 496.441 434.776 496.486 435.636 496.575 436.495 496.665 437.175 496.799 437.677 496.978 438.178 497.157 438.536 497.381 438.751 497.649 438.966 497.918 439.073 498.231 439.073 498.589L439.073 546.499C439.073 546.858 438.984 547.171 438.805 547.439 438.626 547.708 438.312 547.932 437.865 548.111 437.417 548.29 436.826 548.424 436.092 548.514 435.358 548.603 434.436 548.648 433.326 548.648 432.144 548.648 431.187 548.603 430.453 548.514 429.719 548.424 429.137 548.29 428.707 548.111 428.277 547.932 427.973 547.708 427.794 547.439 427.615 547.171 427.525 546.858 427.525 546.499L427.525 540.967C424.876 543.832 422.181 545.98 419.442 547.413 416.703 548.845 413.865 549.561 410.929 549.561 407.634 549.561 404.868 549.024 402.63 547.95 400.392 546.875 398.584 545.407 397.205 543.545 395.827 541.683 394.842 539.526 394.251 537.073 393.661 534.62 393.365 531.568 393.365 527.915L393.365 498.589C393.365 498.231 393.464 497.918 393.661 497.649 393.857 497.381 394.216 497.157 394.735 496.978 395.254 496.799 395.952 496.665 396.829 496.575 397.707 496.486 398.79 496.441 400.079 496.441ZM261.762 496.441C263.23 496.441 264.411 496.486 265.307 496.575 266.202 496.665 266.909 496.79 267.428 496.951 267.947 497.112 268.314 497.345 268.529 497.649 268.744 497.954 268.923 498.321 269.066 498.75L279.97 533.931 280.292 535.274 280.614 533.931 291.356 498.75C291.464 498.321 291.634 497.954 291.867 497.649 292.099 497.345 292.466 497.112 292.968 496.951 293.469 496.79 294.14 496.665 294.982 496.575 295.823 496.486 296.924 496.441 298.285 496.441 299.61 496.441 300.693 496.477 301.535 496.548 302.376 496.62 303.03 496.745 303.495 496.924 303.961 497.103 304.283 497.327 304.462 497.596 304.641 497.864 304.73 498.178 304.73 498.536 304.73 498.715 304.721 498.929 304.704 499.18 304.686 499.431 304.65 499.708 304.596 500.013 304.542 500.317 304.471 500.666 304.381 501.06 304.292 501.454 304.175 501.901 304.032 502.403L289.638 545.747C289.459 546.356 289.217 546.849 288.913 547.225 288.608 547.601 288.107 547.896 287.409 548.111 286.71 548.326 285.761 548.469 284.562 548.54 283.362 548.612 281.796 548.648 279.862 548.648 277.964 548.648 276.416 548.603 275.216 548.514 274.017 548.424 273.077 548.272 272.396 548.057 271.716 547.842 271.224 547.547 270.919 547.171 270.615 546.795 270.373 546.32 270.194 545.747L255.8 502.403C255.585 501.687 255.415 501.042 255.289 500.469 255.164 499.896 255.093 499.484 255.075 499.234 255.057 498.983 255.048 498.75 255.048 498.536 255.048 498.178 255.146 497.864 255.343 497.596 255.54 497.327 255.889 497.103 256.391 496.924 256.892 496.745 257.581 496.62 258.458 496.548 259.336 496.477 260.437 496.441 261.762 496.441ZM475.279 495.528C479.29 495.528 482.718 496.119 485.565 497.3 488.412 498.482 490.748 500.12 492.574 502.215 494.4 504.31 495.743 506.789 496.602 509.654 497.462 512.518 497.892 515.634 497.892 518.999L497.892 521.148C497.892 522.795 497.524 524.012 496.79 524.8 496.056 525.588 495.045 525.982 493.756 525.982L464.591 525.982C464.591 528.023 464.832 529.876 465.316 531.541 465.799 533.206 466.569 534.62 467.625 535.784 468.682 536.948 470.042 537.834 471.707 538.443 473.372 539.052 475.369 539.356 477.696 539.356 480.059 539.356 482.136 539.186 483.927 538.846 485.717 538.505 487.266 538.13 488.573 537.718 489.88 537.306 490.963 536.93 491.822 536.59 492.682 536.25 493.38 536.08 493.917 536.08 494.239 536.08 494.508 536.142 494.723 536.268 494.937 536.393 495.116 536.617 495.26 536.939 495.403 537.261 495.501 537.718 495.555 538.309 495.609 538.899 495.636 539.642 495.636 540.538 495.636 541.325 495.618 541.997 495.582 542.552 495.546 543.107 495.492 543.581 495.421 543.975 495.349 544.369 495.242 544.7 495.099 544.969 494.955 545.237 494.767 545.497 494.535 545.747 494.302 545.998 493.666 546.338 492.628 546.768 491.589 547.198 490.265 547.618 488.653 548.03 487.042 548.442 485.198 548.8 483.121 549.104 481.044 549.409 478.824 549.561 476.461 549.561 472.2 549.561 468.467 549.024 465.262 547.95 462.057 546.875 459.381 545.246 457.232 543.062 455.084 540.878 453.482 538.121 452.425 534.79 451.369 531.46 450.841 527.557 450.841 523.081 450.841 518.82 451.396 514.98 452.506 511.56 453.616 508.141 455.227 505.241 457.34 502.859 459.452 500.478 462.022 498.661 465.047 497.408 468.073 496.154 471.484 495.528 475.279 495.528ZM332.292 495.528C336.052 495.528 339.265 495.895 341.933 496.629 344.601 497.363 346.794 498.491 348.513 500.013 350.231 501.534 351.485 503.495 352.272 505.894 353.06 508.293 353.454 511.14 353.454 514.434L353.454 546.661C353.454 547.162 353.275 547.556 352.917 547.842 352.559 548.129 351.995 548.335 351.225 548.46 350.455 548.585 349.318 548.648 347.814 548.648 346.203 548.648 345.03 548.585 344.296 548.46 343.562 548.335 343.043 548.129 342.739 547.842 342.434 547.556 342.282 547.162 342.282 546.661L342.282 542.847C340.313 544.96 338.066 546.607 335.541 547.789 333.017 548.97 330.215 549.561 327.136 549.561 324.593 549.561 322.257 549.23 320.126 548.567 317.996 547.905 316.152 546.92 314.594 545.613 313.037 544.306 311.828 542.686 310.969 540.752 310.109 538.819 309.68 536.563 309.68 533.985 309.68 531.192 310.226 528.766 311.318 526.707 312.41 524.648 314.039 522.947 316.206 521.604 318.372 520.262 321.066 519.268 324.289 518.623 327.512 517.979 331.253 517.657 335.515 517.657L340.187 517.657 340.187 514.756C340.187 513.252 340.035 511.936 339.731 510.809 339.427 509.681 338.925 508.741 338.227 507.989 337.529 507.237 336.598 506.682 335.434 506.324 334.27 505.966 332.829 505.787 331.11 505.787 328.854 505.787 326.84 506.037 325.068 506.539 323.295 507.04 321.729 507.595 320.368 508.204 319.007 508.812 317.871 509.367 316.957 509.869 316.044 510.37 315.301 510.621 314.728 510.621 314.335 510.621 313.985 510.495 313.681 510.245 313.377 509.994 313.126 509.636 312.929 509.17 312.732 508.705 312.58 508.132 312.473 507.452 312.365 506.771 312.311 506.019 312.311 505.196 312.311 504.086 312.401 503.208 312.58 502.564 312.759 501.919 313.099 501.338 313.601 500.818 314.102 500.299 314.979 499.726 316.232 499.1 317.486 498.473 318.954 497.891 320.637 497.354 322.32 496.817 324.155 496.378 326.142 496.038 328.129 495.698 330.179 495.528 332.292 495.528ZM374.401 473.56C375.726 473.56 376.818 473.614 377.678 473.721 378.537 473.829 379.226 473.981 379.746 474.178 380.265 474.375 380.632 474.616 380.847 474.903 381.061 475.189 381.169 475.512 381.169 475.87L381.169 546.499C381.169 546.858 381.061 547.171 380.847 547.439 380.632 547.708 380.265 547.932 379.746 548.111 379.226 548.29 378.537 548.424 377.678 548.514 376.818 548.603 375.726 548.648 374.401 548.648 373.076 548.648 371.984 548.603 371.125 548.514 370.266 548.424 369.576 548.29 369.057 548.111 368.538 547.932 368.171 547.708 367.956 547.439 367.741 547.171 367.634 546.858 367.634 546.499L367.634 475.87C367.634 475.512 367.741 475.189 367.956 474.903 368.171 474.616 368.538 474.375 369.057 474.178 369.576 473.981 370.266 473.829 371.125 473.721 371.984 473.614 373.076 473.56 374.401 473.56Z" stroke="#FFFFFF" stroke-width="4" stroke-linejoin="round" stroke-miterlimit="10" fill="#04202E" fill-rule="evenodd"/>
		<text fill="#000000" fill-opacity="0" font-family="Arial,Arial_MSFontService,sans-serif" font-size="76.001" x="255.048" y="540.061">value</text>
		<path d="M624 429 987 429 624 2040Z" fill="#E82370" fill-rule="evenodd"/>
		<path d="M798.278 506.141C796.273 506.141 794.519 506.508 793.015 507.242 791.511 507.976 790.275 509.051 789.309 510.465 788.342 511.879 787.617 513.58 787.133 515.567 786.65 517.555 786.408 519.82 786.408 522.362 786.408 524.725 786.605 526.9 786.999 528.888 787.393 530.875 788.028 532.603 788.906 534.071 789.783 535.539 790.974 536.676 792.478 537.482 793.981 538.287 795.843 538.69 798.063 538.69 800.104 538.69 801.877 538.323 803.381 537.589 804.885 536.855 806.12 535.79 807.087 534.393 808.054 532.997 808.77 531.305 809.235 529.317 809.701 527.33 809.934 525.065 809.934 522.523 809.934 520.16 809.746 517.984 809.37 515.997 808.994 514.01 808.358 512.282 807.463 510.814 806.568 509.346 805.377 508.2 803.891 507.377 802.405 506.553 800.534 506.141 798.278 506.141ZM671.721 505.013C670.002 505.013 668.507 505.336 667.236 505.98 665.965 506.625 664.908 507.493 664.067 508.585 663.225 509.677 662.581 510.966 662.133 512.452 661.686 513.938 661.426 515.523 661.354 517.206L681.55 517.206C681.657 513.41 680.896 510.429 679.267 508.263 677.638 506.096 675.122 505.013 671.721 505.013ZM858.675 495.453C859.14 495.453 859.642 495.48 860.179 495.533 860.716 495.587 861.271 495.677 861.844 495.802 862.417 495.927 862.918 496.07 863.348 496.232 863.777 496.393 864.091 496.563 864.288 496.742 864.484 496.921 864.628 497.118 864.717 497.333 864.807 497.547 864.887 497.843 864.959 498.219 865.031 498.595 865.084 499.159 865.12 499.911 865.156 500.663 865.174 501.683 865.174 502.972 865.174 504.261 865.138 505.318 865.066 506.141 864.995 506.965 864.887 507.609 864.744 508.075 864.601 508.54 864.413 508.863 864.18 509.042 863.947 509.221 863.652 509.31 863.294 509.31 863.007 509.31 862.685 509.247 862.327 509.122 861.969 508.997 861.566 508.863 861.119 508.719 860.671 508.576 860.179 508.442 859.642 508.316 859.104 508.191 858.514 508.128 857.869 508.128 857.117 508.128 856.365 508.281 855.613 508.585 854.861 508.889 854.083 509.364 853.277 510.008 852.471 510.653 851.63 511.512 850.752 512.586 849.875 513.661 848.935 514.986 847.933 516.561L847.933 546.424C847.933 546.782 847.825 547.096 847.61 547.364 847.396 547.633 847.028 547.857 846.509 548.036 845.99 548.215 845.301 548.349 844.441 548.439 843.582 548.528 842.49 548.573 841.165 548.573 839.84 548.573 838.748 548.528 837.889 548.439 837.029 548.349 836.34 548.215 835.821 548.036 835.302 547.857 834.935 547.633 834.72 547.364 834.505 547.096 834.397 546.782 834.397 546.424L834.397 498.514C834.397 498.156 834.487 497.843 834.666 497.574 834.845 497.306 835.167 497.082 835.633 496.903 836.098 496.724 836.698 496.59 837.432 496.5 838.166 496.411 839.088 496.366 840.198 496.366 841.344 496.366 842.293 496.411 843.045 496.5 843.797 496.59 844.379 496.724 844.791 496.903 845.202 497.082 845.498 497.306 845.677 497.574 845.856 497.843 845.945 498.156 845.945 498.514L845.945 504.476C847.199 502.686 848.38 501.209 849.49 500.045 850.6 498.881 851.657 497.959 852.659 497.279 853.662 496.599 854.664 496.124 855.667 495.856 856.67 495.587 857.672 495.453 858.675 495.453ZM798.762 495.453C803.059 495.453 806.783 496.035 809.934 497.198 813.085 498.362 815.69 500.072 817.749 502.328 819.807 504.584 821.338 507.359 822.341 510.653 823.343 513.947 823.845 517.725 823.845 521.986 823.845 526.068 823.308 529.792 822.233 533.158 821.159 536.524 819.53 539.424 817.346 541.859 815.161 544.294 812.422 546.174 809.128 547.499 805.834 548.823 801.984 549.486 797.58 549.486 793.319 549.486 789.613 548.895 786.462 547.713 783.311 546.532 780.697 544.813 778.62 542.557 776.543 540.301 775.004 537.526 774.001 534.232 772.998 530.938 772.497 527.178 772.497 522.953 772.497 518.871 773.043 515.138 774.135 511.754 775.227 508.37 776.866 505.47 779.05 503.053 781.234 500.636 783.964 498.765 787.241 497.44 790.517 496.115 794.357 495.453 798.762 495.453ZM672.043 495.453C676.053 495.453 679.482 496.044 682.329 497.225 685.175 498.407 687.512 500.045 689.338 502.14 691.164 504.234 692.507 506.714 693.366 509.579 694.226 512.443 694.655 515.558 694.655 518.924L694.655 521.073C694.655 522.72 694.288 523.937 693.554 524.725 692.82 525.513 691.809 525.907 690.52 525.907L661.354 525.907C661.354 527.948 661.596 529.801 662.08 531.466 662.563 533.131 663.333 534.545 664.389 535.709 665.445 536.873 666.806 537.759 668.471 538.368 670.136 538.976 672.133 539.281 674.46 539.281 676.823 539.281 678.9 539.111 680.69 538.771 682.481 538.43 684.029 538.054 685.336 537.643 686.643 537.231 687.727 536.855 688.586 536.515 689.445 536.175 690.144 536.004 690.681 536.004 691.003 536.004 691.271 536.067 691.486 536.192 691.701 536.318 691.88 536.542 692.023 536.864 692.167 537.186 692.265 537.643 692.319 538.233 692.373 538.824 692.399 539.567 692.399 540.462 692.399 541.25 692.382 541.922 692.346 542.477 692.31 543.032 692.256 543.506 692.185 543.9 692.113 544.294 692.006 544.625 691.862 544.894 691.719 545.162 691.531 545.422 691.298 545.672 691.066 545.923 690.43 546.263 689.392 546.693 688.353 547.123 687.028 547.543 685.417 547.955 683.806 548.367 681.962 548.725 679.885 549.029 677.808 549.334 675.588 549.486 673.225 549.486 668.964 549.486 665.231 548.949 662.026 547.875 658.821 546.8 656.145 545.171 653.996 542.987 651.848 540.803 650.245 538.045 649.189 534.715 648.133 531.385 647.604 527.482 647.604 523.006 647.604 518.745 648.159 514.905 649.27 511.485 650.38 508.066 651.991 505.165 654.104 502.784 656.216 500.403 658.785 498.586 661.811 497.333 664.837 496.079 668.247 495.453 672.043 495.453ZM882.421 483.744C883.746 483.744 884.847 483.788 885.724 483.878 886.601 483.968 887.291 484.111 887.792 484.308 888.293 484.505 888.651 484.746 888.866 485.033 889.081 485.319 889.188 485.642 889.188 486L889.188 496.688 899.608 496.688C899.966 496.688 900.28 496.778 900.548 496.957 900.817 497.136 901.041 497.431 901.22 497.843 901.399 498.255 901.533 498.819 901.623 499.535 901.712 500.251 901.757 501.128 901.757 502.167 901.757 504.136 901.578 505.541 901.22 506.383 900.862 507.224 900.342 507.645 899.662 507.645L889.188 507.645 889.188 530.15C889.188 532.764 889.6 534.724 890.424 536.031 891.247 537.338 892.715 537.992 894.828 537.992 895.544 537.992 896.189 537.929 896.762 537.804 897.335 537.678 897.845 537.535 898.292 537.374 898.74 537.213 899.116 537.07 899.42 536.944 899.725 536.819 900.002 536.756 900.253 536.756 900.468 536.756 900.674 536.819 900.871 536.944 901.068 537.07 901.22 537.32 901.327 537.696 901.435 538.072 901.533 538.583 901.623 539.227 901.712 539.872 901.757 540.695 901.757 541.698 901.757 543.273 901.658 544.482 901.461 545.323 901.264 546.165 901.005 546.756 900.683 547.096 900.36 547.436 899.886 547.74 899.259 548.009 898.633 548.277 897.899 548.51 897.057 548.707 896.216 548.904 895.303 549.056 894.318 549.164 893.333 549.271 892.339 549.325 891.337 549.325 888.651 549.325 886.324 548.985 884.354 548.304 882.385 547.624 880.756 546.577 879.467 545.162 878.178 543.748 877.229 541.966 876.62 539.818 876.011 537.669 875.707 535.127 875.707 532.191L875.707 507.645 869.96 507.645C869.28 507.645 868.76 507.224 868.402 506.383 868.044 505.541 867.865 504.136 867.865 502.167 867.865 501.128 867.91 500.251 868 499.535 868.089 498.819 868.223 498.255 868.402 497.843 868.581 497.431 868.805 497.136 869.074 496.957 869.342 496.778 869.656 496.688 870.014 496.688L875.707 496.688 875.707 486C875.707 485.642 875.805 485.319 876.002 485.033 876.199 484.746 876.557 484.505 877.077 484.308 877.596 484.111 878.294 483.968 879.171 483.878 880.049 483.788 881.132 483.744 882.421 483.744ZM760.841 473.055C762.237 473.055 763.562 473.172 764.815 473.404 766.069 473.637 767.053 473.888 767.77 474.156 768.486 474.425 768.969 474.676 769.22 474.908 769.47 475.141 769.676 475.481 769.837 475.929 769.999 476.376 770.115 476.949 770.187 477.648 770.258 478.346 770.294 479.214 770.294 480.253 770.294 481.291 770.258 482.123 770.187 482.75 770.115 483.377 770.008 483.86 769.864 484.2 769.721 484.54 769.56 484.773 769.381 484.898 769.202 485.024 769.005 485.086 768.79 485.086 768.539 485.086 768.262 485.024 767.958 484.898 767.653 484.773 767.277 484.639 766.83 484.496 766.382 484.352 765.854 484.218 765.245 484.093 764.636 483.968 763.92 483.905 763.097 483.905 762.13 483.905 761.297 484.057 760.599 484.361 759.901 484.666 759.319 485.149 758.854 485.812 758.388 486.474 758.048 487.333 757.833 488.39 757.618 489.446 757.511 490.744 757.511 492.284L757.511 496.688 766.266 496.688C766.588 496.688 766.883 496.778 767.152 496.957 767.42 497.136 767.644 497.431 767.823 497.843 768.002 498.255 768.137 498.819 768.226 499.535 768.316 500.251 768.36 501.128 768.36 502.167 768.36 504.136 768.181 505.541 767.823 506.383 767.465 507.224 766.946 507.645 766.266 507.645L757.511 507.645 757.511 546.424C757.511 546.782 757.403 547.096 757.188 547.364 756.974 547.633 756.616 547.857 756.114 548.036 755.613 548.215 754.915 548.349 754.02 548.439 753.124 548.528 752.032 548.573 750.743 548.573 749.454 548.573 748.371 548.528 747.494 548.439 746.616 548.349 745.918 548.215 745.399 548.036 744.88 547.857 744.522 547.633 744.325 547.364 744.128 547.096 744.029 546.782 744.029 546.424L744.029 507.645 738.014 507.645C737.333 507.645 736.823 507.224 736.483 506.383 736.143 505.541 735.973 504.136 735.973 502.167 735.973 501.128 736.017 500.251 736.107 499.535 736.196 498.819 736.322 498.255 736.483 497.843 736.644 497.431 736.859 497.136 737.127 496.957 737.396 496.778 737.709 496.688 738.067 496.688L744.029 496.688 744.029 492.66C744.029 489.401 744.352 486.546 744.996 484.093 745.641 481.64 746.652 479.599 748.031 477.97 749.409 476.341 751.164 475.114 753.294 474.291 755.425 473.467 757.94 473.055 760.841 473.055ZM725.841 473.055C727.237 473.055 728.562 473.172 729.815 473.404 731.069 473.637 732.053 473.888 732.77 474.156 733.486 474.425 733.969 474.676 734.22 474.908 734.47 475.141 734.676 475.481 734.837 475.929 734.999 476.376 735.115 476.949 735.187 477.648 735.258 478.346 735.294 479.214 735.294 480.253 735.294 481.291 735.258 482.123 735.187 482.75 735.115 483.377 735.007 483.86 734.864 484.2 734.721 484.54 734.56 484.773 734.381 484.898 734.202 485.024 734.005 485.086 733.79 485.086 733.539 485.086 733.262 485.024 732.958 484.898 732.653 484.773 732.277 484.639 731.83 484.496 731.382 484.352 730.854 484.218 730.245 484.093 729.636 483.968 728.92 483.905 728.097 483.905 727.13 483.905 726.297 484.057 725.599 484.361 724.901 484.666 724.319 485.149 723.854 485.812 723.388 486.474 723.048 487.333 722.833 488.39 722.618 489.446 722.511 490.744 722.511 492.284L722.511 496.688 731.266 496.688C731.588 496.688 731.883 496.778 732.152 496.957 732.42 497.136 732.644 497.431 732.823 497.843 733.002 498.255 733.137 498.819 733.226 499.535 733.316 500.251 733.36 501.128 733.36 502.167 733.36 504.136 733.181 505.541 732.823 506.383 732.465 507.224 731.946 507.645 731.266 507.645L722.511 507.645 722.511 546.424C722.511 546.782 722.403 547.096 722.188 547.364 721.974 547.633 721.616 547.857 721.114 548.036 720.613 548.215 719.915 548.349 719.02 548.439 718.124 548.528 717.032 548.573 715.743 548.573 714.454 548.573 713.371 548.528 712.494 548.439 711.616 548.349 710.918 548.215 710.399 548.036 709.88 547.857 709.522 547.633 709.325 547.364 709.128 547.096 709.029 546.782 709.029 546.424L709.029 507.645 703.014 507.645C702.333 507.645 701.823 507.224 701.483 506.383 701.143 505.541 700.973 504.136 700.973 502.167 700.973 501.128 701.017 500.251 701.107 499.535 701.196 498.819 701.322 498.255 701.483 497.843 701.644 497.431 701.859 497.136 702.127 496.957 702.396 496.778 702.709 496.688 703.067 496.688L709.029 496.688 709.029 492.66C709.029 489.401 709.352 486.546 709.996 484.093 710.641 481.64 711.652 479.599 713.031 477.97 714.409 476.341 716.164 475.114 718.294 474.291 720.425 473.467 722.94 473.055 725.841 473.055Z" stroke="#FFFFFF" stroke-width="4" stroke-linejoin="round" stroke-miterlimit="10" fill="#04202E" fill-rule="evenodd"/>
		<text fill="#000000" fill-opacity="0" font-family="Arial,Arial_MSFontService,sans-serif" font-size="76.4307" x="647.604" y="539.932">effort</text>
		<g>
			<g>
				<g>
					<path d="M1002.36 1825.52C996.495 1825.86 991.086 1828.79 987.6 1833.52 987.4 1833.92 987.44 1834.4 987.76 1834.72L991 1838.24C991.16 1838.4 991.4 1838.6 991.64 1838.64 992.04 1838.64 992.44 1838.48 992.64 1838.12 993.68 1836.4 995.84 1834.6 998 1833.72 999.36 1833.24 1000.56 1833.08 1001.6 1833.24 1003.32 1833.48 1004.52 1834.64 1005.24 1836.48 1006.32 1839.28 1005.76 1842.36 1004.24 1846.76 1002.49 1851.26 1002.68 1856.28 1004.76 1860.64L1005.48 1862.24C1005.64 1862.52 1005.92 1862.72 1006.28 1862.76L1006.76 1862.76 1012 1860.64C1012.24 1860.52 1012.52 1860.36 1012.64 1860.12 1012.72 1859.88 1012.64 1859.48 1012.48 1859.24L1011.8 1857.8C1010.32 1854.6 1010.36 1851.4 1011.8 1847.16 1013.56 1841.84 1014.8 1837.4 1012.92 1832.68 1011.31 1828.27 1007.05 1825.39 1002.36 1825.52ZM1039 1825.72C1032.76 1825.72 1027.08 1826.8 1021.52 1828.84 1019.44 1829.59 1018.37 1831.88 1019.12 1833.96 1019.71 1835.59 1021.27 1836.65 1023 1836.6 1024.52 1836.6 1028.48 1833.72 1039 1833.76 1062.86 1833.74 1082.22 1853.06 1082.24 1876.92 1082.24 1876.95 1082.24 1876.97 1082.24 1877 1082.26 1900.86 1062.94 1920.22 1039.08 1920.24 1039.05 1920.24 1039.03 1920.24 1039 1920.24 1015.14 1920.26 995.782 1900.94 995.76 1877.08 995.76 1877.05 995.76 1877.03 995.76 1877 995.76 1871.48 996.88 1867.2 997.92 1864.56 998.92 1861.92 999 1861.4 999 1861 999 1858.79 997.209 1857 995 1857 993.48 1857 992.12 1857.84 991.72 1858.68L991.16 1859.88C988.979 1865.33 987.839 1871.13 987.8 1877 987.8 1905.24 1010.8 1928.24 1039.04 1928.24 1067.28 1928.24 1090.28 1905.28 1090.28 1877 1090.28 1848.72 1067.24 1825.76 1039 1825.76Z" fill="#04202E"/>
					<path d="M1057 1885C1039.8 1885 1028.68 1900.24 1027.8 1901.4 1027.44 1901.84 1027 1902.6 1027 1903 1027 1904.2 1028.2 1905 1029 1905 1029.4 1905 1029.92 1904.84 1031 1904.2 1031.96 1903.6 1041.4 1897 1057 1897 1060.2 1897 1063 1894.2 1063 1891 1063 1888.2 1061.2 1885 1057 1885Z" fill="#04202E"/>
					<path d="M1039 1861C1039 1867.63 1035.42 1873 1031 1873 1026.58 1873 1023 1867.63 1023 1861 1023 1854.37 1026.58 1849 1031 1849 1035.42 1849 1039 1854.37 1039 1861Z" fill="#04202E"/>
					<path d="M1067 1861C1067 1867.63 1063.42 1873 1059 1873 1054.58 1873 1051 1867.63 1051 1861 1051 1854.37 1054.58 1849 1059 1849 1063.42 1849 1067 1854.37 1067 1861Z" fill="#04202E"/>
					<path d="M1018.2 1871C1018.2 1873.87 1015.87 1876.2 1013 1876.2 1010.13 1876.2 1007.8 1873.87 1007.8 1871 1007.8 1868.13 1010.13 1865.8 1013 1865.8 1015.87 1865.8 1018.2 1868.13 1018.2 1871Z" fill="#04202E"/>
				</g>
			</g>
		</g>
		<g clip-path="url(#clip30)">
			<g clip-path="url(#clip31)">
				<g clip-path="url(#clip32)">
					<path d="M32.8125 0C15.3125-0.0874999 0 15.3125 0 32.8125 0 38.2812 1.225 43.1374 3.49999 47.6874 5.73124 52.1062 13.125 59.0624 13.125 59.0624L13.125 69.9999C13.1965 71.231 13.7843 72.3751 14.7437 73.1499 15.5312 73.9374 16.7125 74.3749 17.8062 74.3749L18.2437 74.3749 48.2999 71.9686C50.5749 71.7499 52.5437 69.9124 52.5437 67.5936L52.5437 59.3687C52.5437 59.3687 59.8937 52.2812 62.1249 47.6874 70.3403 31.5347 63.9055 11.7806 47.7531 3.56533 43.125 1.21157 38.0046-0.0103511 32.8125-1.74897e-06ZM45.9374 53.0687C44.5716 53.8465 43.7345 55.3034 43.7499 56.8749L43.7499 63.5249 21.875 65.2749 21.875 56.8749C21.875 55.3437 21.2625 53.8999 19.95 53.0249 12.6723 48.9697 8.32972 41.133 8.74999 32.8125 8.62862 19.6445 19.205 8.87135 32.3729 8.74999 32.5194 8.74863 32.6659 8.74863 32.8125 8.74999 46.0687 8.74999 56.8749 19.3375 56.8749 32.8125 56.7437 41.5624 52.8062 49.3499 45.9374 53.0249ZM52.0624 81.2436C52.261 83.6516 50.4699 85.7647 48.0619 85.9634 48.0392 85.9656 48.0164 85.9673 47.9937 85.9686L18.2 88.1561 17.85 88.1561C12.0312 88.3749 11.6812 79.6249 17.5 79.4061L47.3374 77.2186C49.6951 76.9986 51.7846 78.7315 52.0047 81.0892 52.0108 81.1553 52.0156 81.2213 52.0187 81.2874ZM42.5249 95.0248C42.7253 97.4328 40.9358 99.5473 38.5279 99.7477 38.5185 99.7485 38.5093 99.749 38.4999 99.7498L27.7812 100.625 27.475 100.625C25.0587 100.722 23.0216 98.8412 22.925 96.4249 22.8283 94.0085 24.7087 91.9715 27.125 91.8749L37.9312 90.9999C40.2928 90.8266 42.3476 92.6007 42.5208 94.9623 42.5224 94.9833 42.5237 95.0039 42.5249 95.0248ZM50.3124 33.0312C50.2188 34.7676 48.7698 36.1197 47.0312 36.0937 45.2287 36.0701 43.7736 34.6148 43.7499 32.8125 43.7499 26.5125 37.8437 23.1875 37.1874 22.9687 35.2187 22.225 34.3437 20.6062 34.9999 18.5937 35.6562 16.5812 37.4062 15.6625 39.3749 16.4062 46.3491 18.8518 50.8274 25.6586 50.3124 33.0312Z" fill="#04202E" transform="matrix(1 0 0 1 1264 1488)"/>
				</g>
			</g>
		</g>
		<g>
			<g>
				<g>
					<path d="M114.747 60.8901 108.216 59.835C107.339 59.6994 106.655 59.0053 106.533 58.1269 106.407 57.3231 106.281 56.4941 106.105 55.7154 105.931 54.8531 106.339 53.9776 107.11 53.5551L112.888 50.3398C113.82 49.8872 114.256 48.799 113.893 47.8278L112.888 45.0647C112.533 44.0953 111.501 43.5522 110.501 43.8087L103.995 45.0647C103.133 45.2388 102.258 44.8316 101.835 44.0599 101.467 43.3565 101.065 42.6532 100.629 41.9498 100.16 41.1925 100.231 40.2196 100.805 39.5384L105.151 34.5395C105.845 33.7985 105.877 32.6561 105.226 31.8769L103.342 29.6161C102.691 28.8313 101.55 28.6683 100.705 29.2393L95.0026 32.6556C94.2502 33.1022 93.2952 33.0108 92.6413 32.4295 92.0636 31.902 91.4356 31.3745 90.8076 30.8721 90.1233 30.328 89.8694 29.4036 90.1796 28.5862L92.5408 22.3565C92.947 21.4229 92.5911 20.333 91.7119 19.8194L89.1497 18.3122C88.2587 17.8129 87.1346 18.0614 86.5372 18.89L82.3674 24.1149C81.8838 24.7892 81.0036 25.0481 80.2322 24.7429 80.2322 24.7429 78.8255 24.1651 77.7705 23.8134 76.9373 23.5394 76.3778 22.7564 76.3889 21.8792L76.4894 15.2476C76.5695 14.215 75.8518 13.2906 74.8315 13.1125L71.9176 12.6101C70.9168 12.4408 69.947 13.0443 69.6568 14.0168L67.4714 20.2967C67.1946 21.139 66.3986 21.7004 65.5121 21.6783L63.0755 21.6783C62.1958 21.7039 61.4018 21.1542 61.1161 20.3218L58.9559 14.0419C58.6758 13.0593 57.7031 12.4432 56.6951 12.6101L53.7561 13.1125C52.746 13.2898 52.0314 14.1992 52.0982 15.2225L52.1987 21.8792C52.2097 22.7564 51.6503 23.5394 50.8171 23.8134 50.2393 24.0646 48.9833 24.5168 48.3805 24.7429 47.6771 24.9941 46.8733 24.7931 46.1699 24.0144L42.0252 18.9151C41.4228 18.1091 40.3171 17.8729 39.4379 18.3625L36.8505 19.8697C35.9844 20.3814 35.6302 21.4549 36.0216 22.3816L38.408 28.6113C38.7059 29.4217 38.4532 30.3315 37.78 30.8721L35.9211 32.4546C35.2673 33.0359 34.3122 33.1273 33.5599 32.6807L27.9079 29.1639C27.0539 28.6108 25.921 28.7834 25.2704 29.5658L23.3864 31.8266C22.7352 32.6058 22.7675 33.7483 23.4618 34.4893L27.8075 39.5132C28.3727 40.1787 28.4438 41.1327 27.9833 41.8745 27.5646 42.5444 27.1626 43.2478 26.7776 43.9845 26.3643 44.7695 25.4904 45.1963 24.6173 45.0396L18.1113 43.7836C17.1194 43.5417 16.1038 44.082 15.75 45.0396L14.7452 47.8027C14.397 48.7666 14.83 49.8382 15.75 50.2896L21.5276 53.5049C22.2896 53.9349 22.6858 54.8086 22.5072 55.6652L22.0802 58.0515C21.9707 58.932 21.2969 59.6363 20.4223 59.7848L13.8409 60.8147C12.8202 60.9303 12.0509 61.7971 12.0574 62.8243L12.0574 65.7633C12.0391 66.795 12.8144 67.6686 13.8409 67.7729L20.372 68.8028C21.2485 68.9384 21.9325 69.6325 22.0551 70.5109 22.1807 71.3147 22.3063 72.1186 22.4821 72.8973 22.6682 73.7679 22.2594 74.6572 21.4773 75.0827L15.6998 78.298C14.767 78.7507 14.3317 79.8388 14.695 80.81L15.6998 83.5731C16.0546 84.5425 17.0862 85.0856 18.0862 84.8291L24.5922 83.5731C25.4545 83.399 26.3299 83.8062 26.7524 84.5779 27.1209 85.2813 27.5229 85.9846 27.9582 86.688 28.4272 87.4453 28.3561 88.4182 27.7823 89.0995L23.4366 94.1234C22.757 94.8606 22.7249 95.986 23.3613 96.761L25.2453 99.0217C25.8898 99.815 27.0313 99.9888 27.8828 99.4236L33.585 95.9822C34.3426 95.5424 35.2982 95.6439 35.9462 96.2334L37.8051 97.7657C38.5007 98.3136 38.7559 99.2521 38.4331 100.077L36.0718 106.281C35.6657 107.215 36.0216 108.305 36.9008 108.818L39.463 110.326C40.3482 110.81 41.4552 110.563 42.0503 109.748L46.2704 104.573C46.7979 103.92 47.652 103.644 48.3302 103.92 49.1843 104.272 49.7621 104.473 50.8422 104.824 51.6656 105.107 52.2132 105.888 52.1987 106.759L52.0982 113.415C52.0314 114.439 52.746 115.348 53.7561 115.525L56.67 116.028C57.6793 116.211 58.6647 115.605 58.9559 114.621L61.1161 108.341C61.4018 107.509 62.1958 106.959 63.0755 106.985L65.5372 106.985C66.4169 106.959 67.2109 107.509 67.4965 108.341L69.6568 114.621C69.947 115.593 70.9168 116.197 71.9176 116.028L74.8566 115.525C75.8667 115.348 76.5813 114.439 76.5145 113.415L76.414 106.759C76.403 105.881 76.9624 105.098 77.7956 104.824 78.8506 104.473 79.554 104.196 80.2071 103.945 80.8602 103.694 81.664 103.694 82.292 104.448L86.5624 109.723C87.162 110.565 88.3032 110.815 89.1999 110.3L91.7621 108.793C92.6283 108.282 92.9824 107.208 92.5911 106.281L90.2298 100.052C89.9196 99.2342 90.1736 98.3098 90.8578 97.7657L92.7167 96.2083C93.3648 95.6188 94.3203 95.5173 95.0779 95.9571L100.755 99.4236C101.603 99.9825 102.735 99.821 103.393 99.0468L105.277 96.7861C105.943 96.0028 105.91 94.8431 105.201 94.0983L100.855 89.0743C100.29 88.4089 100.219 87.4549 100.68 86.7131 101.098 86.0431 101.5 85.3398 101.885 84.603 102.306 83.8278 103.179 83.4119 104.046 83.5731L110.552 84.8291C111.544 85.071 112.559 84.5307 112.913 83.5731L113.918 80.81C114.281 79.8388 113.846 78.7507 112.913 78.298L107.135 75.0827C106.364 74.6602 105.957 73.7847 106.131 72.9224 106.306 72.1186 106.457 71.3399 106.583 70.536 106.702 69.6654 107.374 68.9736 108.241 68.8279L114.772 67.7729C115.802 67.6694 116.586 66.7992 116.58 65.7633L116.58 62.8243C116.515 61.822 115.744 61.0089 114.747 60.8901ZM64.3315 28.1591C80.8368 28.1473 95.2508 39.3248 99.3483 55.3135 99.8894 57.4663 98.5829 59.6502 96.4301 60.191 96.1111 60.2714 95.7835 60.3121 95.4547 60.3123L69.0037 60.3123C67.5639 60.3163 66.232 59.5497 65.5121 58.3027L52.4247 35.2429C51.3242 33.3152 51.9947 30.8603 53.9224 29.7598 54.2253 29.5869 54.5494 29.4541 54.8865 29.3649 57.9697 28.557 61.1443 28.1519 64.3315 28.1591ZM28.1591 64.3315C28.1473 54.5489 32.0984 45.1785 39.1113 38.3577 40.6876 36.795 43.2325 36.8058 44.7951 38.3821 45.0478 38.6371 45.2651 38.9244 45.4415 39.2369L58.5791 62.3219C59.2874 63.559 59.2874 65.0788 58.5791 66.3159L45.341 89.3507C44.2325 91.2738 41.775 91.9342 39.8518 90.8259 39.5441 90.6486 39.2613 90.4313 39.0108 90.1796 32.0663 83.3724 28.1549 74.0558 28.1591 64.3315ZM64.3315 100.504C61.0915 100.508 57.8654 100.086 54.7357 99.2478 52.59 98.6796 51.3109 96.4796 51.8791 94.3339 51.9683 93.9968 52.1012 93.6727 52.274 93.3698L65.487 70.3853C66.2114 69.1306 67.5551 68.3627 69.0037 68.3757L95.4547 68.3757C97.6746 68.3815 99.4691 70.1859 99.4633 72.4054 99.4623 72.7234 99.4239 73.0405 99.3483 73.3494 95.2508 89.3381 80.8368 100.516 64.3315 100.504Z" fill="#04202E" transform="matrix(1 0 0 1.00005 1494.19 1130.69)"/>
				</g>
			</g>
		</g>
		<g>
			<g>
				<g>
					<path d="M27.0833 10.8333C24.0918 10.8333 21.6667 13.2585 21.6667 16.25L21.6667 64.4583C21.7468 80.1878 29.4115 94.9119 42.25 104L61.75 118.083C63.9166 119.708 66.0833 119.708 68.25 118.083L87.75 104C100.435 95.0235 108.08 80.5377 108.333 65L108.333 16.25C108.333 13.2585 105.908 10.8333 102.917 10.8333 101.744 10.8333 100.604 11.2135 99.6666 11.9167 88.8333 20.0417 78 18.4167 68.25 11.9167 66.3238 10.4722 63.6761 10.4722 61.75 11.9167 52 18.4167 41.1666 20.0417 30.3333 11.9167 29.3957 11.2135 28.2553 10.8333 27.0833 10.8333ZM65 22.75C75.8333 28.1667 86.6666 29.25 97.5 23.8333L97.5 64.4583C97.4214 76.779 91.3612 88.2933 81.25 95.3333L65 107.25 48.75 95.3333C38.6387 88.2933 32.5786 76.779 32.5 64.4583L32.5 23.8333C43.3333 29.25 54.1666 28.1667 65 22.75Z" stroke="#ABDFE8" stroke-width="3.5" fill="#04202E" transform="matrix(1 0 0 1 1754 799)"/>
					<path d="M59.5833 61.75 54.1666 56.3333C48.2083 50.9166 39.5416 59.0416 45.5 65L55.25 74.75C57.4166 77.4583 61.2083 77.4583 63.9166 74.75L84.5 54.1666C90.4583 48.2083 81.7916 39.5416 75.8333 45.5Z" stroke="#ABDFE8" stroke-width="3.5" fill="#04202E" transform="matrix(1 0 0 1 1754 799)"/>
				</g>
			</g>
		</g>
		<g>
			<g>
				<g>
					<path d="M57.3549 0.726564C56.4467 0.741095 55.7202 1.45676 55.4368 2.30684L48.1131 24.0638 24.2999 24.6232C23.2101 24.6487 22.3745 25.8221 22.5453 26.8974 22.6434 27.5368 23.1047 28.0163 23.5915 28.4086L42.2061 43.4122 35.1221 64.7732C34.8097 65.7104 35.4745 66.793 36.4154 67.0982 37.1601 67.3416 37.9412 67.0546 38.5587 66.5968L57.3985 52.6468 76.6815 66.8911C77.6006 67.5741 79.061 67.0873 79.5224 66.041 79.7949 65.4234 79.6423 64.7514 79.457 64.1374L73.1977 43.3868 91.6524 27.9836C92.4226 27.2784 92.4872 26.0868 91.7977 25.3026 91.3254 24.794 90.6243 24.6232 89.945 24.6123L66.9347 24.2018 59.2222 1.9145C58.9643 1.16977 58.1433 0.715665 57.3549 0.726564ZM63.6325 26.8175C63.9267 27.6676 64.8095 28.1471 65.7032 28.1616L84.9099 28.5067 69.514 41.3415C68.8892 41.861 68.8601 42.7946 69.0926 43.5648L74.1059 60.0759 58.4557 48.4945C57.7437 47.9641 56.7337 48.2184 56.0362 48.7343L40.96 59.9016 46.5001 43.1579C46.7762 42.3296 46.2313 41.4795 45.5664 40.9419L29.9889 28.4631 49.7442 28.0127C50.6088 27.9909 51.2409 27.2243 51.5097 26.4215L57.4131 8.86771Z" stroke="#04202E" stroke-width="1.2" fill="#04202E" transform="matrix(1 0 0 1.00098 2032 468)"/>
					<path d="M36.3645 41.9591C35.7542 41.9591 35.202 42.2061 34.7988 42.6093 34.5833 42.8179 34.4138 43.0689 34.3011 43.3468L31.7508 50.9394 14.3206 51.3535C13.0958 51.5036 12.2244 52.6177 12.3743 53.8424 12.3752 53.8496 12.3761 53.8569 12.377 53.8638 12.4569 54.5795 12.9546 55.1607 13.525 55.5567L26.9991 66.4116 21.8223 82.0363C21.5688 83.1683 22.231 84.3039 23.3409 84.6411 24.1401 84.8917 25.0265 84.6193 25.6332 84.0707L39.2417 73.9933 53.3371 84.4049C54.3898 85.037 55.7554 84.6963 56.3875 83.6435 56.4191 83.5912 56.4486 83.537 56.4758 83.4822 56.8064 82.8392 56.7047 82.0763 56.4576 81.4224L51.9239 66.3934 58.6373 60.817C59.0733 60.4537 59.2876 59.8616 59.2876 59.2513 59.2916 58.0314 58.306 57.0393 57.0861 57.0353 57.0814 57.0353 57.0763 57.0353 57.0716 57.0353 56.4758 57.0353 55.9345 57.2714 55.5349 57.6528L47.8043 64.1011C47.1656 64.7543 46.9822 65.7271 47.3393 66.5678L50.4344 76.7724 40.4078 69.3541C39.5941 68.8165 38.4461 68.9727 37.7305 69.6121L28.3215 76.5798 31.7763 66.1318C32.0124 65.2091 31.5438 64.2064 30.7591 63.6978L20.6962 55.633 33.5854 55.3315C34.5416 55.2185 35.323 54.5155 35.5362 53.5768L38.4243 44.9925C38.8777 43.8579 38.3255 42.5705 37.191 42.1171 36.928 42.0121 36.6475 41.9583 36.3645 41.9591Z" stroke="#04202E" stroke-width="1.2" fill="#04202E" transform="matrix(1 0 0 1.00098 2032 468)"/>
					<path d="M19.461 69.7501C18.4711 69.7632 17.5895 70.3797 17.2377 71.305L15.494 76.4999C11.2799 76.6053 7.0622 76.6997 2.84813 76.8051 1.66062 76.9518 0.758838 77.9447 0.726564 79.141 0.718357 79.7843 0.969803 80.4037 1.42407 80.8593 1.75102 81.1862 2.1361 81.4405 2.48485 81.7384L11.6032 89.084C10.3535 92.8621 9.09658 96.6293 7.85416 100.404 7.58645 101.612 8.28206 102.825 9.45986 103.205 10.3063 103.484 11.2617 103.219 11.9156 102.634L21.6407 95.4305C25.0447 97.9372 28.4413 100.455 31.8417 102.961 32.8153 103.597 34.2321 103.328 34.9477 102.427 35.3794 101.886 35.5533 101.182 35.4236 100.502 35.3437 100.055 35.1657 99.6301 35.0494 99.1869L31.9979 89.0731C33.5854 87.7507 35.1802 86.4357 36.7641 85.1097 37.6742 84.1466 37.6309 82.6285 36.6679 81.7185 35.7048 80.8084 34.1865 80.8517 33.2766 81.8147 31.3694 83.4059 29.4622 84.9898 27.5586 86.5846 26.8777 87.277 26.6735 88.308 27.0391 89.2075L28.7102 94.7221C26.7702 93.2872 24.834 91.8486 22.8904 90.4172 21.9829 89.8778 20.8311 89.9849 20.0386 90.6824L14.8582 94.5223C15.4867 92.6115 16.1225 90.7042 16.7473 88.7897 16.965 87.7925 16.5463 86.7644 15.6938 86.2032L9.73232 81.4224C12.3189 81.3606 14.9055 81.3061 17.492 81.2407 18.4986 81.1154 19.3229 80.3808 19.5627 79.3953 20.3075 77.1792 21.0558 74.9705 21.7933 72.7545 22.1283 71.4735 21.3614 70.1632 20.0803 69.8282 19.8805 69.7759 19.6748 69.7498 19.4683 69.7501Z" stroke="#04202E" stroke-width="1.2" fill="#04202E" transform="matrix(1 0 0 1.00098 2032 468)"/>
				</g>
			</g>
		</g>
	</g>
</svg>