<?xml version="1.0" encoding="UTF-8" standalone="no"?> <svg xmlns="http://www.w3.org/2000/svg" version="1.1" viewBox="0 0 864 192"><path fill="#fff" d="M 42,0 C 18.804041,0 0,18.804041 0,42 v 108 c 0,23.19596 18.804041,42 42,42 h 780 c 23.19596,0 42,-18.80404 42,-42 V 42 C 864,18.804041 845.19596,0 822,0 z"/><polygon points="38.2337,103.9367 38.2337,92.0511 90.9994,121.7028 150.0648,88.4594 150.0648,65.7193 147.0849,64.065 90.999,95.9488 40.942,67.498 90.9994,39.2288 132.2307,62.5241 135.8338,60.4959 135.8338,57.3234 90.9994,32 31.934,65.3567 31.934,69.209 90.9994,102.5317 143.7537,72.7441 143.765,84.777 90.9994,114.7572 34.9026,82.8848 31.934,84.539 31.934,107.5964 90.9994,140.8398 143.7537,111.1542 143.765,123.0964 90.9994,153.07665 34.9026,121.2042 31.934,122.8585 31.934,126.7675 90.9994,159.9995 150.06475,126.7675 150.0648,103.6874 147.0849,102.0445 90.9994,133.9169" fill="#ff3621"/><path d="M 484.5255,39.000023 V 140 h 15.56565 v -7.09779 c 0.002,-0.56093 0.35113,-1.06203 0.87647,-1.25869 h -0.0329 c 0.14761,-0.0544 0.30397,-0.0812 0.46129,-0.0791 0.39171,-7.2e-4 0.76473,0.16738 1.02365,0.4613 5.26358,6.18584 13.49639,9.7159 22.49396,9.7159 19.23231,0 34.30328,-16.21606 34.30328,-36.92172 0.15814,-9.72122 -3.37953,-19.140084 -9.89824,-26.353512 -6.28894,-6.796929 -15.14514,-10.637539 -24.40506,-10.583582 -8.62381,-0.108111 -16.85555,3.596168 -22.49396,10.12228 -0.80184,0.95066 -2.35362,0.389136 -2.36143,-0.854507 V 39.000026 Z m -242.37237,-4.9e-5 v 37.746432 c -0.009,1.234357 -1.54272,1.798935 -2.35044,0.865491 C 234.53911,71.437312 226.3063,67.896 217.30874,67.896 c -19.24357,0 -34.30329,16.229236 -34.30329,36.9349 -0.16383,9.72114 3.37376,19.14109 9.89603,26.35132 6.28946,6.79749 15.14657,10.63815 24.40726,10.58357 8.6238,0.10812 16.85553,-3.59616 22.49395,-10.12227 0.80537,-0.95477 2.3638,-0.38359 2.36143,0.86549 V 140 l 15.55466,-2.8e-4 V 38.999974 Z m 473.95907,0 V 139.99967 h 15.56564 v -27.42109 c 0.0124,-0.37727 0.18886,-0.73032 0.48327,-0.96654 l 2.80076,-2.6426 c 0.24628,-0.22305 0.56617,-0.34741 0.89844,-0.34927 h 0.0901 c 0.37259,0.0298 0.71763,0.20781 0.95775,0.49425 l 24.88833,30.88566 h 19.11987 l -32.17694,-38.96064 c -0.43842,-0.53319 -0.39942,-1.31234 0.0901,-1.799078 l 29.6024,-29.602396 h -18.98584 l -25.49683,25.622021 c -0.83977,0.811565 -2.24274,0.221055 -2.24939,-0.946767 V 38.999974 Z m -90.90941,0.02512 c -8.50046,4.84e-4 -12.75259,10.279898 -6.73843,16.285742 6.01416,6.005844 16.28768,1.739496 16.2764,-6.760957 -0.007,-5.262649 -4.27532,-9.525085 -9.53797,-9.524785 z m -263.87782,8.872369 v 20.402721 c -3.4e-4,0.738698 -0.59909,1.337444 -1.33778,1.337777 H 349.14441 V 82.36989 h 10.8318 c 0.73697,-0.0059 1.3376,0.5898 1.33777,1.326793 v 32.728257 c 0,24.60837 16.42016,24.60936 22.60599,24.60936 h 0.0131 c 3.95466,0.009 7.90485,-0.26601 11.8203,-0.82156 v -13.49637 c -2.59131,0.30932 -5.19742,0.47871 -7.80698,0.50743 -6.3208,0 -11.14593,-1.12533 -11.14593,-14.68917 V 83.652754 c 0.0239,-0.716336 0.61228,-1.284267 1.32901,-1.282859 h 15.14827 V 69.626982 h -15.14827 c -0.74809,0.01934 -1.36669,-0.578479 -1.37292,-1.326793 V 47.897468 Z m 318.08738,19.974369 v 0.01102 c -21.56044,-3.8e-5 -37.22706,15.533026 -37.22706,36.980988 0,10.40345 3.6659,19.81781 10.33535,26.49849 6.66946,6.6807 16.20753,10.39247 26.77968,10.39247 8.72764,0 15.53314,-1.73222 28.35469,-11.14593 l -8.84163,-9.32487 c -6.2983,4.18387 -12.15789,6.22098 -17.90509,6.22098 -13.01275,0 -22.83006,-9.75105 -22.83006,-22.68506 0,-12.934018 9.81731,-22.687269 22.83006,-22.68727 6.39496,0.06368 12.58717,2.25217 17.60195,6.220984 l 9.84112,-9.357836 C 696.87944,69.03099 686.35172,67.871837 679.41235,67.871837 Z m 126.47358,0.02416 c -13.94624,0 -24.07996,8.99698 -24.07996,21.301162 0,9.75112 5.8365,16.341776 17.83701,20.154486 l 8.62634,2.7788 c 6.10711,1.93448 8.60438,4.33932 8.60438,8.332 0,5.94965 -5.5235,8.06398 -10.25847,8.06398 -6.3208,0 -11.8993,-4.09338 -14.62107,-10.70659 l -12.59574,6.56806 c 4.16868,10.7082 14.4558,17.35214 26.9576,17.36473 C 819.11056,141.73923 832,134.01541 832,119.26086 c 0,-9.6274 -6.01617,-16.26313 -18.41032,-20.244558 l -8.48136,-2.778794 c -5.69098,-1.900737 -8.46819,-4.622687 -8.46819,-8.334187 0,-4.240105 3.80227,-7.198505 9.2458,-7.198505 5.17361,0 9.78383,3.374363 12.69678,9.267774 l 12.4947,-6.748187 C 826.36341,73.661949 816.54515,67.687774 805.88593,67.896 Z m 0.47009,73.856618 c -0.0112,1e-5 -0.0219,0.002 -0.0329,0.002 h 0.0681 c -0.0118,0 -0.0233,-0.002 -0.035,-0.002 z M 300.53637,67.928951 c -19.23231,0 -34.30328,16.229234 -34.30328,36.934899 0,20.70567 15.07097,36.93489 34.30328,36.93489 8.65201,0.11669 16.90297,-3.64136 22.49396,-10.24528 0.3578,-0.43806 0.95393,-0.6012 1.48494,-0.40639 0.53042,0.19332 0.88447,0.69635 0.88746,1.26089 V 140 l 15.36355,-3.9e-4 V 69.637966 h -15.37452 v 7.10844 c -0.004,0.564298 -0.35913,1.066383 -0.88966,1.258696 -0.5266,0.192599 -1.1174,0.03035 -1.47177,-0.404189 -5.22985,-6.230819 -13.21522,-9.671962 -22.49396,-9.671962 z m 131.84885,0 c -19.24357,-0.04499 -34.25935,16.184246 -34.25935,36.934899 0,20.75065 15.07097,36.93489 34.30329,36.93489 8.65201,0.11669 16.90297,-3.64136 22.49395,-10.24528 0.80185,-0.95064 2.35359,-0.38913 2.36142,0.8545 V 140 l 15.38552,-3.9e-4 V 69.637966 H 457.2406 v 7.10844 c -0.008,1.243631 -1.55957,1.805148 -2.36142,0.854507 -5.2186,-6.230819 -13.21521,-9.671962 -22.49396,-9.671962 z m 172.80806,0.248224 c -7.94131,-0.07328 -15.3357,4.036111 -19.46694,10.818627 -0.69709,1.164093 -2.48436,0.671489 -2.48664,-0.685362 v -8.672474 h -15.41846 v 70.361704 h 15.56563 V 109.0595 c 0,-15.442085 7.87246,-25.024524 20.63778,-25.024524 1.26078,-0.01565 2.51975,0.100673 3.75632,0.347074 V 68.434186 c -0.85211,-0.169887 -1.71881,-0.255968 -2.58769,-0.257011 z m 12.33873,1.460791 v 70.361704 h 15.71281 V 69.637966 Z M 220.78387,81.965707 c 12.38291,0 22.1337,10.054108 22.1337,22.898143 0,12.84404 -9.70659,22.83224 -22.10075,22.83224 l -0.0329,-0.0681 c -12.37167,0 -22.08977,-10.03319 -22.08977,-22.83224 0,-12.799048 9.70686,-22.830047 22.08977,-22.830047 z m 83.19249,0 c 12.39415,0 22.16885,10.054108 22.16885,22.898143 0,12.84404 -9.70659,22.83224 -22.10075,22.83224 l -0.0682,-0.0681 c -12.37167,0 -22.09855,-10.03319 -22.09856,-22.83224 0,-12.799048 9.70439,-22.830047 22.09856,-22.830047 z m 131.90597,0 c 12.39415,0 22.08976,10.030999 22.08976,22.830053 0,12.79904 -9.70685,22.83224 -22.08976,22.83224 -12.37167,0 -22.10075,-10.0332 -22.10075,-22.83225 0,-12.799044 9.70658,-22.830043 22.10075,-22.830043 z m 85.5561,0.0659 c 12.38291,0 22.09856,10.033195 22.09856,22.832243 0,12.79905 -9.7044,22.81906 -22.09856,22.81906 -12.39414,10e-6 -22.08976,-10.06499 -22.08976,-22.81905 0,-12.799053 9.70686,-22.832248 22.08976,-22.832248 z" fill="#1b3139"/></svg>