<?xml version="1.0" encoding="utf-8"?>
<!-- Generator: Adobe Illustrator 27.9.0, SVG Export Plug-In . SVG Version: 6.00 Build 0)  -->
<svg version="1.1" id="Layer_1" xmlns="http://www.w3.org/2000/svg" xmlns:xlink="http://www.w3.org/1999/xlink" x="0px" y="0px"
	 viewBox="0 0 1200 1200" style="enable-background:new 0 0 1200 1200;" xml:space="preserve">
<style type="text/css">
	.st0{fill:#181818;}
	.st1{fill:#8E53E9;}
	.st2{fill:#FBB214;}
	.st3{fill:#3E6FE7;}
</style>
<g>
	<path class="st0" d="M18.8,1136.3h114.8c37.8,0,75.8,3.8,112.9,11.3l176.8,35.8c30.5,6.1,61.3,9.2,91.9,9.2
		c11.9,0,23.7-0.4,35.5-1.4l397.5-29.6c16.2-1.2,30.6-11.1,37.4-25.9c6.8-14.9,5-32.2-4.7-45.3c-10.2-13.9-25.7-26-45-35
		c-18-8.2-37.4-12.8-54.5-12.8h-225c-50.3,0-97-8.2-135.1-23.6l-77.6-31.8l5.6-2.4l-14.9-34.4l-5.5,2.4c-14.1,5.9-23.1,19.7-23,34.9
		c0.1,15.3,9.3,28.9,23.5,34.8l77.8,31.3c43.1,17.5,93.3,26.3,149.2,26.3h225c11.7,0,25.9,3.4,38.7,9.3
		c13.3,6.2,24.1,14.5,30.6,23.2c2.2,3,1.4,5.9,0.8,7.4c-0.7,1.4-2.3,3.9-6,4.2l-397.6,29.6c-38.8,3.1-78.2,0.6-117.1-7.2
		l-176.8-35.8c-39.6-8-80.1-12-120.3-12h-96V949.7h49.7c18.7,0,37-5.5,52.8-15.7c60.2-38.5,132.4-33.8,169.9-27.7
		c15.1,2.6,30.6,2.3,46-0.8c5.5-1.1,10.7-2.6,16-4.4l103.4-34.7c18.7-6.4,39.5-4.9,57.2,4.1l4.4,2.2c6.4,3.2,8.9,8.3,9.9,12
		c1.4,5.3,0.6,11.1-2.5,16c-1.8,2.9-4.6,5.2-8.5,6.8l-101.2,42.8l14.6,34.5l101.1-42.7c11.2-4.6,20.2-12.2,25.9-21.7
		c8.6-13.4,11-30.1,6.8-45.6c-4.3-15.5-14.6-28.2-29.2-35.6l-4.4-2.2c-26.5-13.5-57.9-15.7-86.1-6.1L360,865.6
		c-3.7,1.2-7.5,2.4-11.5,3.2c-11,2.2-21.8,2.4-32.4,0.6c-42.9-7.1-125.6-12.1-196.4,33.1c-9.8,6.4-21.1,9.7-32.5,9.7l-68.4,0
		C8.4,912.3,0,920.6,0,931v186.6C0,1127.9,8.4,1136.3,18.8,1136.3L18.8,1136.3z"/>
	<path class="st1" d="M273.1,775.3c21.6,8.2,44,12.2,66.4,12.2c26.2,0,52.4-5.6,77-16.7c45.7-20.6,80.6-57.8,98.2-104.6
		c17.7-46.9,16.1-97.8-4.5-143.4c-20.6-45.7-57.8-80.5-104.6-98.2c-9.7-3.6-20.5,1.2-24.2,10.9l-53,140.3l-140.3-53
		c-9.7-3.6-20.5,1.2-24.2,10.9c-17.7,46.8-16.1,97.8,4.5,143.4C189.1,722.8,226.2,757.6,273.1,775.3L273.1,775.3z M193.5,564.9
		l139.2,52.6c4.6,1.8,9.8,1.6,14.3-0.4c4.5-2,8.1-5.8,9.8-10.5l52.6-139.2c29.4,15.5,52.7,40.1,66.6,70.9
		c16.5,36.5,17.8,77.2,3.6,114.7c-14.2,37.5-42.1,67.2-78.6,83.7c-36.5,16.5-77.3,17.7-114.8,3.6s-67.2-42.1-83.7-78.6
		C188.8,630.9,185.7,597.2,193.5,564.9L193.5,564.9z"/>
	<path class="st1" d="M289.1,539.6c7.6,0,14.7-4.6,17.6-12.1l59.7-157.9c1.8-4.6,1.6-9.8-0.4-14.3c-2-4.5-5.8-8.1-10.5-9.8
		c-46.9-17.7-97.8-16.1-143.4,4.5c-45.7,20.6-80.5,57.8-98.2,104.6c-3.7,9.7,1.2,20.5,10.9,24.2l157.9,59.7
		C284.7,539.2,286.9,539.6,289.1,539.6L289.1,539.6z M156.5,450.7c31.9-60.4,101.2-91.8,167.7-75.7l-46,121.7L156.5,450.7
		L156.5,450.7z"/>
	<path class="st0" d="M857.2,192.6L857.2,192.6l-60.3-95l-50.3-79.1C741.2,10,732.9,4.2,723.1,2c-9.9-2.3-19.9-0.4-28.3,4.9
		L504.9,127.7c-8.5,5.4-14.3,13.7-16.5,23.5s-0.4,19.8,4.9,28.3l50.2,79.1v0.1l0.1,0.1l60.3,94.9l50.3,79.1
		c5.4,8.5,13.7,14.3,23.5,16.5c2.7,0.6,5.5,0.9,8.2,0.9c7.1,0,13.9-2,20-5.9l189.9-120.7c17.5-11.1,22.6-34.4,11.5-51.8L857.2,192.6
		L857.2,192.6z M714.9,38.6l40.2,63.3l-16.9,10.7c-8.7,5.6-11.3,17.1-5.8,25.9c3.6,5.6,9.6,8.7,15.8,8.7c3.4,0,6.9-0.9,10-2.9
		l16.9-10.7l40.2,63.3L625.5,317.5l-40.2-63.3l122.2-77.6c8.7-5.6,11.3-17.1,5.8-25.9s-17.2-11.3-25.9-5.8l-122.2,77.6L525,159.3
		L714.9,38.6L714.9,38.6z M685.9,412.5l-40.2-63.3l189.9-120.6l40.2,63.3L685.9,412.5L685.9,412.5z"/>
	<path class="st2" d="M576.8,189.6c3.4,0,6.9-0.9,10-2.9l31.6-20.1c8.7-5.6,11.3-17.1,5.8-25.9c-5.6-8.7-17.1-11.4-25.9-5.8
		L566.7,155c-8.7,5.6-11.3,17.1-5.8,25.9C564.5,186.5,570.6,189.6,576.8,189.6z"/>
	<path class="st2" d="M658.7,229.9L627,250c-8.8,5.6-11.3,17.1-5.8,25.9c3.6,5.6,9.6,8.7,15.8,8.7c3.4,0,6.9-1,10-2.9l31.6-20.1
		c8.8-5.6,11.3-17.1,5.8-25.9C679,226.9,667.4,224.3,658.7,229.9L658.7,229.9z"/>
	<path class="st2" d="M744.9,330.6c-5.6-8.7-17.1-11.3-25.9-5.8l-31.6,20.1c-8.8,5.6-11.3,17.1-5.8,25.9c3.6,5.6,9.6,8.7,15.8,8.7
		c3.4,0,6.9-1,10-2.9l31.6-20.1C747.9,350.9,750.5,339.3,744.9,330.6L744.9,330.6z"/>
	<path class="st2" d="M243.8,262.5c1.6,0,3.2-0.2,4.8-0.6c5.2-1.4,9.6-4.9,12-9.8l75-150c4.6-9.3,0.9-20.5-8.4-25.2
		c-9.2-4.6-20.5-0.9-25.2,8.4l-65.5,131l-38.6-25.7c-8.7-5.7-20.3-3.4-26,5.2c-5.8,8.6-3.4,20.2,5.2,26l56.2,37.5
		C236.5,261.4,240.1,262.5,243.8,262.5L243.8,262.5z"/>
	<path class="st2" d="M665.6,506.2c-36.2,0-65.6,29.4-65.6,65.6s29.4,65.6,65.6,65.6s65.6-29.4,65.6-65.6S701.8,506.2,665.6,506.2z
		 M665.6,600c-15.5,0-28.1-12.6-28.1-28.1s12.6-28.1,28.1-28.1s28.1,12.6,28.1,28.1S681.1,600,665.6,600z"/>
	<path class="st3" d="M18.8,778.1c0,36.2,29.4,65.6,65.6,65.6s65.6-29.4,65.6-65.6s-29.4-65.6-65.6-65.6S18.8,741.9,18.8,778.1z
		 M112.5,778.1c0,15.5-12.6,28.1-28.1,28.1s-28.1-12.6-28.1-28.1S68.9,750,84.4,750S112.5,762.6,112.5,778.1z"/>
	<path class="st1" d="M1078.1,187.5c-36.2,0-65.6,29.4-65.6,65.6s29.4,65.6,65.6,65.6s65.6-29.4,65.6-65.6
		S1114.3,187.5,1078.1,187.5z M1078.1,281.2c-15.5,0-28.1-12.6-28.1-28.1s12.6-28.1,28.1-28.1s28.1,12.6,28.1,28.1
		S1093.6,281.2,1078.1,281.2z"/>
	<path class="st1" d="M927.8,953.8c10,2.3,20.1-3.9,22.4-13.9c2.4-10.1-3.8-20.2-13.9-22.6c-1.6-0.4-26.4-6-58.4,2.4
		c-24.8-21.8-49.4-28-51.1-28.4c-10-2.4-20,3.8-22.5,13.8c-2.5,10,3.7,20.1,13.7,22.7c0.8,0.2,9.3,2.7,20.2,9.2
		c-7.8,4.9-15.6,10.7-23.3,17.9c-7.6,7.1-8,18.9-0.9,26.5c3.7,4,8.7,6,13.7,6c4.6,0,9.2-1.7,12.8-5c8.9-8.3,18-14.3,26.8-18.7
		c5.9,7.9,11.5,17.2,15.8,28.8c2.8,7.6,10,12.2,17.6,12.2c2.2,0,4.4-0.4,6.5-1.2c9.7-3.6,14.7-14.4,11.1-24.1
		c-3.7-9.9-8.1-18.7-12.8-26.6C918.2,951.8,926.8,953.5,927.8,953.8L927.8,953.8z"/>
	<path class="st3" d="M741,772.2l90.2,25.6c1.7,0.5,3.4,0.7,5.1,0.7c8.2,0,15.7-5.4,18-13.6l25.6-90.2c2.8-10-3-20.3-12.9-23.1
		l-90.2-25.6c-9.9-2.9-20.3,2.9-23.1,12.9L728.1,749c-1.4,4.8-0.8,9.9,1.7,14.2C732.2,767.6,736.3,770.8,741,772.2L741,772.2z
		 M784.7,687.1l54.1,15.3l-15.3,54.1l-54.1-15.3L784.7,687.1z"/>
	<path class="st3" d="M922.3,634.3c-4.3,2.4-7.5,6.5-8.9,11.3l-40.9,144.3c-1.4,4.8-0.8,9.9,1.7,14.2s6.5,7.5,11.3,8.9l90.2,25.6
		c1.7,0.5,3.4,0.7,5.1,0.7c8.2,0,15.7-5.4,18-13.6l40.9-144.3c2.8-10-3-20.3-12.9-23.1l-90.2-25.6
		C931.8,631.4,926.6,631.9,922.3,634.3L922.3,634.3z M998.5,689.2l-30.7,108.2l-54.1-15.3l30.7-108.2L998.5,689.2z"/>
	<path class="st3" d="M1125,880.2c8.2,0,15.7-5.4,18-13.6l56.2-198.4c1.4-4.8,0.8-9.9-1.7-14.2s-6.5-7.5-11.3-8.9l-90.2-25.6
		c-9.9-2.9-20.3,2.9-23.1,12.9l-56.2,198.4c-1.4,4.8-0.8,9.9,1.7,14.2s6.5,7.5,11.3,8.9l90.2,25.6
		C1121.6,880,1123.3,880.2,1125,880.2L1125,880.2z M1057.9,823l46-162.4l54.1,15.3l-46,162.4L1057.9,823z"/>
</g>
</svg>
