<svg xmlns="http://www.w3.org/2000/svg" viewBox="0 0 22.77 21.04">
  <path d="M7.72 5.78h9.26v1.16H7.72z"/>
  <path d="M19.27 2.31V9.1l1.16-1.15V2.31A2.32 2.32 0 0 0 18.11 0H6.56a2.31 2.31 0 0 0-2.29 2.31v4.12l1.17-.15v-4a1.14 1.14 0 0 1 1.12-1.12h11.58a1.16 1.16 0 0 1 1.13 1.15ZM5.6 17.19a.46.46 0 0 0-.4.53.46.46 0 0 0 .52.4.47.47 0 0 0 .42-.52.48.48 0 0 0-.54-.41Z"/>
  <path d="M7.72 3.47h9.26v1.16H7.72zm1.25 15.02h3.96v-1.15h-4.1l.14 1.15zm8.01-10.4H7.72v.13l.12 1.03h9.14V8.09zm5.45 2.31-.82-.82a1.17 1.17 0 0 0-.82-.33 1.15 1.15 0 0 0-.81.33l-5 5a4.21 4.21 0 0 0-.92 1.39l-.57 2.55 2.55-.58a12.86 12.86 0 0 0 1.4-.92l5-5a1.16 1.16 0 0 0-.01-1.62Zm-5.38 6.19a4.88 4.88 0 0 1-.56.39l-1.51-1.5a4.73 4.73 0 0 1 .43-.52l3.74-3.75 1.64 1.65Zm-4.7-6.19H7.98l.14 1.16h4.23V10.4zm-3.61 8.09-.15-1.15-.7-5.78-.14-1.16-.42-3.43a.7.7 0 0 0-.77-.61l-1.15.15-1.14.14-3.63.45a.7.7 0 0 0-.61.77l1.52 12.56a.69.69 0 0 0 .77.61l5.95-.73a.69.69 0 0 0 .61-.78ZM3.03 7.6l1.24-.15h.18a.22.22 0 0 1 .25.19.23.23 0 0 1-.2.25h-.23l-1.16.14a.22.22 0 0 1 0-.44Zm-1 .11a.25.25 0 0 1 .27.21.24.24 0 0 1-.21.26.24.24 0 0 1-.06-.47Zm4.74 10.78-4.79.58-1.23-10 3.52-.43 1.17-.13 1.5-.19 1.11 9 .12 1Z"/>
  <path d="M6.14 17.6a.47.47 0 0 1-.42.52.46.46 0 0 1-.52-.4.46.46 0 0 1 .4-.53.48.48 0 0 1 .54.41Zm-2.87.35a.45.45 0 0 1-.4.52.49.49 0 0 1-.53-.41.47.47 0 0 1 .41-.52.46.46 0 0 1 .52.41Zm.62-6.9a.31.31 0 0 1-.27.35l-1.5.19a.31.31 0 0 1-.34-.28l-.16-1.3a.3.3 0 0 1 .27-.34l1.5-.19a.31.31 0 0 1 .34.28Zm.32 2.6a.3.3 0 0 1-.27.34l-1.49.19a.32.32 0 0 1-.36-.28l-.16-1.28a.33.33 0 0 1 .28-.36l1.49-.19a.33.33 0 0 1 .36.28Zm.51 4.12a.47.47 0 0 1-.41.52.48.48 0 0 1-.52-.42.46.46 0 0 1 .4-.52.49.49 0 0 1 .53.42Z"/>
  <path d="M6.14 17.6a.47.47 0 0 1-.42.52.46.46 0 0 1-.52-.4.46.46 0 0 1 .4-.53.48.48 0 0 1 .54.41Zm-2.87.35a.45.45 0 0 1-.4.52.49.49 0 0 1-.53-.41.47.47 0 0 1 .41-.52.46.46 0 0 1 .52.41Zm.62-6.9a.31.31 0 0 1-.27.35l-1.5.19a.31.31 0 0 1-.34-.28l-.16-1.3a.3.3 0 0 1 .27-.34l1.5-.19a.31.31 0 0 1 .34.28Zm.32 2.6a.3.3 0 0 1-.27.34l-1.49.19a.32.32 0 0 1-.36-.28l-.16-1.28a.33.33 0 0 1 .28-.36l1.49-.19a.33.33 0 0 1 .36.28Zm.51 4.12a.47.47 0 0 1-.41.52.48.48 0 0 1-.52-.42.46.46 0 0 1 .4-.52.49.49 0 0 1 .53.42Z"/>
  <path d="M3.89 11.05a.31.31 0 0 1-.27.35l-1.5.19a.31.31 0 0 1-.34-.28l-.16-1.3a.3.3 0 0 1 .27-.34l1.5-.19a.31.31 0 0 1 .34.28Zm.32 2.6a.3.3 0 0 1-.27.34l-1.49.19a.32.32 0 0 1-.36-.28l-.16-1.28a.33.33 0 0 1 .28-.36l1.49-.19a.33.33 0 0 1 .36.28Zm.32 2.59a.31.31 0 0 1-.24.34h-.02l-1.51.19a.31.31 0 0 1-.34-.28l-.15-1.28a.32.32 0 0 1 .28-.36l1.49-.18a.26.26 0 0 1 .23.1.26.26 0 0 1 .13.21Zm-1.26 1.71a.45.45 0 0 1-.4.52.49.49 0 0 1-.53-.41.47.47 0 0 1 .41-.52.46.46 0 0 1 .52.41Zm1.45-.18a.47.47 0 0 1-.41.52.48.48 0 0 1-.52-.42.46.46 0 0 1 .4-.52.49.49 0 0 1 .53.42Zm1.42-.17a.47.47 0 0 1-.42.52.46.46 0 0 1-.52-.4.46.46 0 0 1 .4-.53.48.48 0 0 1 .54.41Zm.97-2.74a.23.23 0 0 1-.21.26l-1.49.19h-.18a.24.24 0 0 1-.05-.47h.23l1.44-.18a.25.25 0 0 1 .26.2Zm-.58 1.04a.25.25 0 0 1-.2.27l-.91.1h-.07a.23.23 0 0 1-.26-.21.23.23 0 0 1 .18-.29h.12l.86-.1a.23.23 0 0 1 .28.23Zm.26-3.68a.25.25 0 0 1-.21.26l-1.17.14-.51.06a.24.24 0 0 1-.26-.2.24.24 0 0 1 .21-.26l.56-.08 1.11-.13a.25.25 0 0 1 .27.21Zm-.58 1.03a.23.23 0 0 1-.21.26l-.59.08h-.38a.24.24 0 0 1-.27-.21.24.24 0 0 1 .21-.26h.44l.54-.07a.24.24 0 0 1 .26.2Zm.25-3.68a.24.24 0 0 1-.21.26l-.84.11-.83.09a.23.23 0 1 1 0-.46l.88-.1.79-.11a.24.24 0 0 1 .21.21Zm-.57 1.04a.25.25 0 0 1-.21.26h-.27l-.72.09a.24.24 0 0 1-.26-.2.27.27 0 0 1 .21-.27l.77-.09h.2a.24.24 0 0 1 .28.21Z"/>
</svg>