<?xml version="1.0" encoding="UTF-8" standalone="no"?> <svg viewBox="0 0 1400 875" xmlns="http://www.w3.org/2000/svg" version="1.1"><path d="m 1198.764,0 h -280 c -35,0 -70,25.76 -105,77.196 h -227.5 A 161.28,161.28 0 0 0 463.764,0 h -280 C 61.236,17.164 0,231.616 0,437.5 0,643.384 61.264,857.836 183.736,875 h 280 a 161.28,161.28 0 0 0 122.528,-77.196 h 227.5 a 140.588,140.588 0 0 0 105,77.196 h 280 C 1330,875 1400,651.952 1400,437.5 1400,223.02 1330,0 1198.764,0 Z m -1120,437.5 c 0,-214.48 70,-360.304 122.472,-360.304 52.5,0 122.5,145.852 122.5,360.304 0,214.48 -70,360.304 -122.5,360.304 -52.5,0 -122.5,-145.852 -122.5,-360.304 z m 385,360.304 H 315 A 649.796,649.796 0 0 0 393.764,437.5 734.888,734.888 0 0 0 315,77.196 h 148.764 c 52.5,0 122.5,145.852 122.5,360.304 0,214.48 -70,360.304 -122.5,360.304 z M 630,154.42 H 918.736 V 77.196 h 17.528 c 52.472,0 122.5,145.852 122.5,360.304 0,214.48 -70,360.304 -122.5,360.304 H 918.736 V 720.58 H 630 A 1005.944,1005.944 0 0 0 665,437.5 1475.712,1475.712 0 0 0 630,154.42 Z m 568.764,643.384 H 1050 A 649.796,649.796 0 0 0 1128.764,437.5 734.888,734.888 0 0 0 1050,77.196 h 148.764 c 52.5,0 122.5,145.852 122.5,360.304 0,214.48 -78.764,360.304 -122.5,360.304 z"/></svg>