<svg xmlns="http://www.w3.org/2000/svg" viewBox="0 0 128 128">
<rect width="128" height="128" fill="#007bc3" rx="0" ry="0"/>
<path fill="#fff" d="m32.27 33.67c0 1.64 -0.2 3.17 -0.65 4.59c-0.22 0.87 -0.66 1.52 -0.98 2.07c-0.48 0.49 -1.03 0.9 -1.64 1.2a6.1 6.1 0 0 1 -2.62 0.43h-4.36v-15.8h4.36c1.2 0 2.08 0.1 2.73 0.41c0.65 0.23 1.2 0.67 1.74 1.32c0.55 0.65 0.88 1.42 1.2 2.5c0.1 1 0.22 2.08 0.22 3.3zm4.59 4.92c0.42 -1.53 0.54 -3.17 0.54 -5.02c0 -3.82 -0.99 -6.88 -2.95 -8.95c-1.63 -1.74 -3.91 -2.62 -7.1 -2.62h-10.35v24h9.06c1.95 0 3.5 -0.1 4.46 -0.32c0.92 -0.2 1.8 -0.53 2.62 -0.98a6.33 6.33 0 0 0 2.18 -2.3c0.55 -0.98 1.1 -2.18 1.54 -3.81zm13.85 0.54c0 1.41 -0.43 2.5 -1.31 3.16c-0.87 0.66 -1.75 0.99 -2.84 0.99a2.44 2.44 0 0 1 -1.74 -0.66a2.3 2.3 0 0 1 -0.65 -1.75c0 -0.54 0.1 -0.98 0.31 -1.31c0.23 -0.32 0.72 -0.7 1.1 -0.87c0.39 -0.16 1.7 -0.43 2.3 -0.54a11.06 11.06 0 0 0 2.82 -0.92v1.9zm0.54 6.88h5.13v-0.77c-0.32 -0.1 -0.65 -0.32 -0.76 -0.66c-0.22 -0.32 -0.32 -0.97 -0.32 -2.07v-9.05a7.47 7.47 0 0 0 -0.55 -2.95a4.91 4.91 0 0 0 -1.1 -1.54c-0.44 -0.43 -1.2 -0.65 -2.19 -0.98c-0.98 -0.2 -2.07 -0.32 -3.16 -0.32c-2.73 0 -4.7 0.54 -6 1.74a6.3 6.3 0 0 0 -2.18 4.47h4.58c0.1 -0.88 0.43 -1.52 0.87 -1.97a3.8 3.8 0 0 1 2.19 -0.54c0.97 0 1.73 0.21 2.18 0.54c0.42 0.33 0.64 0.88 0.64 1.54c0 0.42 -0.1 0.76 -0.31 0.97c-0.23 0.21 -0.91 0.4 -1.32 0.45l-3.92 0.54c-2.08 0.33 -3.49 0.98 -4.26 1.96a6.04 6.04 0 0 0 -1.2 3.7c0 0.99 0.21 1.87 0.66 2.74c0.41 0.85 1.1 1.55 1.96 1.97a8.06 8.06 0 0 0 6 0.1c1 -0.5 1.9 -1.21 2.62 -2.07c0 0.88 0.1 1.52 0.43 2.18zm14.09 0.21c0.53 0 1.3 0 2.17 -0.1v-3.5h-0.87c-0.66 0 -1.2 0 -1.42 -0.1a0.85 0.85 0 0 1 -0.43 -0.45c-0.1 -0.21 -0.1 -0.54 -0.1 -1.1v-9.47h2.82v-3.26h-2.84v-4.81h-4.56v4.8h-2.51v3.39h2.5v11.01c0 0.87 0.22 1.63 0.55 2.08c0.32 0.54 0.86 0.86 1.52 1.09c0.66 0.2 1.64 0.42 3.18 0.42zm14.93 -7.1c0 1.42 -0.42 2.52 -1.3 3.17a4.5 4.5 0 0 1 -2.84 0.99a2.44 2.44 0 0 1 -1.75 -0.66a2.3 2.3 0 0 1 -0.65 -1.75c0 -0.54 0.1 -0.98 0.32 -1.31c0.22 -0.32 0.71 -0.7 1.1 -0.87c0.38 -0.16 1.68 -0.43 2.28 -0.54a11.28 11.28 0 0 0 2.84 -0.92zm0.66 6.89h5.12v-0.77c-0.31 -0.1 -0.65 -0.32 -0.76 -0.66c-0.21 -0.32 -0.32 -0.97 -0.32 -2.07v-9.05a7.3 7.3 0 0 0 -0.55 -2.95a4.91 4.91 0 0 0 -1.09 -1.53c-0.44 -0.42 -1.2 -0.65 -2.18 -0.98c-0.88 -0.2 -1.97 -0.32 -3.17 -0.32c-2.73 0 -4.69 0.54 -6 1.74a6.3 6.3 0 0 0 -2.18 4.47h4.58c0.1 -0.88 0.44 -1.52 0.87 -1.97c0.45 -0.31 1.2 -0.54 2.18 -0.54c0.99 0 1.75 0.22 2.18 0.54c0.45 0.33 0.66 0.88 0.66 1.54c0 0.42 -0.1 0.76 -0.32 0.97c-0.22 0.22 -0.9 0.35 -1.31 0.45l-3.93 0.54c-2.07 0.33 -3.5 0.98 -4.26 1.96a6.04 6.04 0 0 0 -1.2 3.7c0 0.99 0.22 1.87 0.66 2.74a4.3 4.3 0 0 0 1.96 1.97a8.07 8.07 0 0 0 6.01 0.1a7.28 7.28 0 0 0 2.61 -2.07c0 0.88 0.11 1.52 0.44 2.18zm12.55 -19.33l-0.77 2.72h-1.53l0.76 -2.72zm4.25 -1.64h-1.96l0.98 -3.8h-1.85l-0.99 3.81h-1.51l0.97 -3.81h-1.85l-0.98 3.81h-1.97l-0.43 1.64h1.96l-0.76 2.72h-1.96l-0.44 1.64h1.96l-0.98 3.82h1.85l0.99 -3.82h1.52l-0.97 3.82h1.85l0.97 -3.82h1.97l0.44 -1.64h-1.96l0.76 -2.72h1.96l0.44 -1.64zm13.85 8.4a6.39 6.39 0 0 0 2.2 -1.96a6 6 0 0 0 0.75 -2.95c0 -1.14 -0.3 -2.27 -0.88 -3.27a6.3 6.3 0 0 0 -2.72 -2.29a8.92 8.92 0 0 0 -7.2 -0.2a6.1 6.1 0 0 0 -2.5 1.73a7.63 7.63 0 0 0 -1.43 2.62c-0.21 0.65 -0.32 1.52 -0.43 2.73h4.36c0 -1.32 0.32 -2.3 0.87 -2.95c0.55 -0.65 1.31 -0.88 2.4 -0.88c0.99 0 1.63 0.22 2.19 0.77a3 3 0 0 1 0.76 2.18a3.7 3.7 0 0 1 -0.55 1.97c-0.32 0.54 -0.98 0.87 -1.63 1.09c-0.55 0.1 -1.42 0.21 -2.62 0.21v3.28c1.3 0 2.29 0.11 2.84 0.22c0.87 0.2 1.4 0.54 1.85 1.09c0.43 0.54 0.65 1.31 0.65 2.28c0.05 1 -0.3 2 -0.98 2.74c-0.65 0.65 -1.52 0.97 -2.5 0.97a3.3 3.3 0 0 1 -2.52 -0.97c-0.65 -0.66 -0.86 -1.64 -0.98 -3.06h-4.7a7.88 7.88 0 0 0 1.86 5.57a6.5 6.5 0 0 0 2.63 1.75c0.97 0.32 2.18 0.55 3.38 0.55c2.61 0 4.69 -0.66 6.21 -2.08a7 7 0 0 0 2.29 -5.45c0 -0.98 -0.21 -1.86 -0.54 -2.73a6.78 6.78 0 0 0 -1.53 -2.07c-0.44 -0.4 -0.96 -0.7 -1.53 -0.87z"/>
<text x="13" y="78" fill="#fff" font-family="Arial, sans-serif" font-size="36" font-weight="bold" >Guest</text>
<text x="32" y="110" fill="#fff" font-family="Arial, sans-serif" font-size="36" font-weight="bold" >wifi</text>
<!--
<circle cx="64" cy="64" r="64" fill="none" stroke="#fff"/>
<rect x="0" y="0" width="128" height="22" fill="none" stroke="#f00"/>
<rect x="0" y="106" width="128" height="22" fill="none" stroke="#f00"/>
-->
</svg>