<svg xmlns="http://www.w3.org/2000/svg" viewBox="0 0 584 196">
  <path id="d" d="M78.821 95.75c-.375.378-.375 39.031-.752 49.167-.75 8.256-1.5 25.897-18.764 25.897-18.015 0-22.145-20.642-23.645-29.278-1.502-10.135-1.502-18.391-1.502-21.767 0-11.633.375-43.914 27.775-43.914 8.255 0 12.759 2.255 16.513 4.132zM8.637 124.274c0 67.931 36.03 67.931 41.66 67.931 15.012 0 24.395-7.883 28.524-22.146l.75 21.395c4.504-.377 9.009-.753 16.514-.753 4.952 0 11.91.61 12.76.753-3.753-7.882-6.755-25.148-6.755-62.677 0-36.78 0-99.083 3.003-117.85-8.633 4.128-16.139 6.755-32.654 8.258 6.756 7.131 6.756 10.51 6.756 42.41-4.504-1.502-10.51-3.004-20.267-3.004-43.161 0-50.29 37.536-50.29 65.682z"/>
  <path id="e" d="M139.622 111.887c.375-19.892 4.505-37.908 21.393-37.908 18.766 0 20.267 20.644 19.893 37.908zm65.305 2.627c0-28.523-5.629-56.299-41.286-56.299-49.541 0-49.541 54.799-49.541 66.432 0 48.79 22.143 68.308 58.925 68.308 16.514 0 24.395-2.624 28.898-3.755-.374-8.63 1.127-14.263 2.252-21.764-4.877 3.378-11.26 7.501-25.895 7.501-37.531 0-38.284-34.527-38.284-46.16h64.18z"/>
  <path id="b" d="M283.367 124.647c0 22.519-4.128 52.923-31.902 52.923-4.128 0-9.006-.755-12.008-1.501-.375-8.633-.375-23.649-.375-41.287 0-20.644 1.875-31.526 3.753-36.78 5.253-17.269 16.513-17.269 18.766-17.269 18.012 0 21.766 25.15 21.766 43.914m-69.433 26.271c0 18.018 0 28.15-2.627 36.03 9.759 3.753 22.143 6.006 36.781 6.006 9.382 0 36.78 0 51.42-30.4 7.132-13.887 9.381-32.654 9.381-46.915 0-8.634-.75-27.776-7.88-39.785-6.756-11.632-17.642-17.264-29.275-17.264-23.27 0-30.025 19.142-33.403 29.273 0-12.385 0-55.545 2.252-77.311-15.763 7.13-25.52 8.255-36.03 9.382 9.382 3.753 9.382 19.891 9.382 71.685v59.3z"/>
  <path id="i" d="M355.429 191.454c-4.88-.753-8.258-1.123-15.39-1.123-7.504 0-12.759.37-18.387 1.123 2.25-4.505 3.377-6.753 4.128-22.518.75-21.394 1.124-78.818-.378-91.204-1.5-9.008-3.376-10.508-6.754-12.759 19.517-1.877 25.146-3.377 34.528-7.881-2.25 10.508-2.25 16.14-2.25 32.277-.377 83.32-.75 92.326 4.503 102.085"/>
  <path id="a" d="M432.742 123.146c-.373 15.013-.75 25.897-4.876 34.155-4.882 10.881-13.514 13.887-19.892 13.887-14.262 0-17.268-12.01-17.268-23.646 0-22.895 20.27-24.396 29.277-24.396zm-66.431 29.65c0 15.013 4.505 30.404 18.018 36.782 6.376 2.627 12.382 2.627 14.26 2.627 22.143 0 29.648-16.137 34.152-26.272-.373 10.508 0 16.89.75 25.52 4.506-.376 8.633-.752 16.14-.752 3.755 0 7.883.376 12.01.753-2.628-4.13-4.127-6.38-4.878-16.14-.377-9.008-.377-18.013-.377-31.15V94.996c0-18.386-4.877-36.404-40.909-36.404-24.018 0-37.907 7.132-45.036 10.886 3.002 5.255 5.255 9.756 7.504 20.264 9.382-8.255 21.77-12.76 34.155-12.76 20.269 0 20.269 13.513 20.269 32.278-4.505-.377-8.636-.754-15.015-.754-30.775 0-51.043 12.016-51.043 44.29"/>
  <path id="n" d="M571.987 167.436c0 8.256 0 16.886 3.376 24.018-5.254-.377-8.26-1.123-18.018-1.123-6.004 0-9.004.37-13.506 1.123.75-3.004 1.12-4.505 1.874-8.631.753-5.254 1.125-24.018 1.125-30.403v-26.274c0-11.255 0-27.773-.75-33.4-.375-4.128-1.877-15.39-15.762-15.39-13.889 0-18.392 10.136-19.892 18.394-1.878 8.632-1.878 17.64-1.878 53.293 0 31.15 0 33.78 2.627 42.412-4.126-.377-9.379-1.123-16.51-1.123-6.007 0-9.763.37-14.638 1.123 1.878-3.754 2.627-6.007 3.376-19.517.378-13.132 1.5-78.441-.75-93.827-1.498-9.385-3.755-11.637-6.38-13.887 19.515-1.127 25.898-4.13 31.9-7.508v25.896c3.002-7.502 9.005-24.396 33.027-24.396 30.4 0 30.4 22.149 30.779 36.408z"/>
  <path id="." fill="#c04" d="m357.3 22.9-19.9 19.9-19.9-19.9 19.9-19.9z"/>
</svg>