<svg xmlns="http://www.w3.org/2000/svg" viewBox="0 0 1024 1024">
<rect width="1024" height="1024" fill="#c04" rx="128"/>
<path fill="#fff" d="M523.605 198.069c-1.361.18-2.752.256-4.103.536l-4.963 1.861c1.951.694 3.822 1.681 5.864 2.122 1.441.118 2.872.497 4.323.463 5.544-1.951 11.51-1.7 17.209-2.161 2.652-.185 5.354-.384 7.915-1.111q2.026-1.28 4.063-2.542c-1.61-.347-3.142-.991-4.784-1.211-.187-.026-.467-.056-3.041.04-2.575.097-14.21 1.071-22.52 2.012zm-43.527 7.836c-1.561.207-3.172.548-4.754.264.65-1.151 1.62-2.092 2.372-3.192.374-.494 1.07-1.221.043-.686-3.383 1.141-6.585 2.762-9.888 4.113-19.308 8.176-38.827 16.009-57.237 26.019-11.31 6.165-22.319 13.009-32.018 21.719l-.861-5.744c-4.023 4.954-8.727 9.276-13.409 13.509-10.71 9.827-21.919 19.208-31.619 30.118-3.942 4.564-7.765 9.377-10.11 15.01a20.7 20.7 0 0 0-1.12 3.552q-1.48.344-2.952.692c-6.265 10.51-10.21 22.22-15.21 33.329-1.59 2.592-3.272 5.314-5.894 6.975-1.01.658-2.522.827-3.383-.186q-1.253-.82-2.502-1.631c.104 13.348-5.487 10.11-20.858 56.467-3.042 9.166-5.855 18.409-8.677 27.619 1.511 2.292 1.701 5.133 2.002 7.785.506 6.045.354 12.11.233 18.209-.361 15.509-1.12 31.019-.202 46.637-1.972 35.729 3.323 71.757 14.309 105.1 12.909 39.927 33.528 77.156 59.947 109.098 21.519 26.52 46.937 50.038 75.656 68.647 21.719 14.008 45.438 25.218 70.446 32.018 9.347 3.253 19.21 4.473 29.019 5.284 12.11.934 24.319 1.021 36.429 1.37l2.681-.6c-1.19-.638-2.281-1.49-3.642-1.72-7.936-2.262-16.01-3.963-24.12-5.174-6.314-.96-12.509-2.102-18.608-3.893-3.553-1.031-7.206-2.142-10.71-3.453-6.295-2.952-12.11-6.854-17.109-11.71-4.222-4.022-8.075-8.586-12.21-12.71-1.78-1.74-3.552-3.522-5.513-5.083q-1.154-.72-2.312-1.431c.545 1.47.982 3.002 1.87 4.332q1.473 2.595 2.943 5.204c-5.925-2.222-11.91-4.674-16.81-8.786-2.781-2.362-5.974-4.233-9.376-5.564a78 78 0 0 0-5.353-1.952c1.9-2.482 3.792-4.964 5.703-7.446-1.9-.129-3.822-.384-5.573-1.2-4.664-2.062-8.647-5.374-12.31-8.857-3.423-3.373-6.715-7.025-8.917-11.31-3.031.117-6.084.24-9.116.358-4.073-5.084-8.116-10.31-11.31-15.909-2.202-3.942-4.273-8.225-4.293-12.81.04-1.43.024-2.871.04-4.312-1.38 2.282-2.702 4.614-4.003 6.944-5.894-8.165-12.11-16.008-17.808-24.418-2.482-3.723-5.064-7.446-6.845-11.51-.267-.743-.608-1.521-.52-2.322 1.492-.028 2.773.935 4.123 1.46l2.462.571c-.786-1.09-1.38-2.352-2.532-3.122-2.861-2.251-5.834-4.472-8.105-7.375-1.351-1.661-2.532-3.453-3.583-5.324 1.311-1.49 2.612-2.992 3.933-4.493-3.823-4.893-7.336-10.11-10.31-15.508-2.252-4.123-4.433-8.336-5.714-12.81 2.382 2.782 5.414 5.073 8.937 6.194q1.485.517 2.971 1.031c-3.231-7.915-6.514-15.908-11.21-23.118-2.301-3.413-5.033-6.895-8.956-8.487-2.452-1.04-5.204-.72-7.726-1.46-2.991-.99-4.863-3.764-6.404-6.355-2.012-3.513-3.493-7.166-4.934-10.91-1.051-2.802-2.012-5.654-2.932-8.497l4.103-.327c-2.152-3.112-3.873-6.505-5.414-9.948a172 172 0 0 0-2.122-4.512c.54-5.374 1.071-10.71 1.611-16.11-3.633-4.122-5.434-9.476-6.624-14.708-.139-.661-.316-1.48-.439-2.202-1.42-7.845-1.67-15.709-1.58-23.719.28-18.608 2.591-37.028 4.583-55.637q1.072-9.54 1.831-19.109c.905-6.574 3.863-12.61 6.815-18.408 5.183-9.938 10.71-19.72 15.008-30.019.54-1.271 1.051-2.562 1.581-3.853-1.81-.311-3.613-.623-5.433-.934 4.212-6.725 9.196-12.91 14.208-18.91 9.267-10.91 19.21-21.218 29.919-30.718 5.694-4.984 11.71-9.777 18.009-13.809 4.433-2.762 9.086-5.303 14.109-6.684.771-.204 1.7-.407 2.561-.537a16.9 16.9 0 0 1 4.894-.048c1.631-2.162 3.473-4.203 4.804-6.575.49-.73.181-1.91-.779-1.992-1.35.075-2.402 1.091-3.562 1.671-1.121.644-2.242 1.321-3.493 1.681 5.673-5.694 11.71-11.21 18.808-15.009 4.544-2.452 9.627-3.703 14.71-4.203 4.893-.509 9.957-.884 14.708-2.321 1.89-1.191 3.933-2.222 5.554-3.773.667-.587.578-1.841-.349-2.092-1.34-.302-2.691.285-4.012.543-2.912.71-5.804 1.721-8.807 1.962.345-.512.803-.9 1.441-.94 7.456-1.931 14.709-4.704 21.319-8.777 3.293-2.002 6.505-4.183 9.957-5.925a54 54 0 0 1 3.343-1.53c7.065-2.902 14.709-4.253 22.319-5.234q2.158-.27 4.333-.494c-3.012 1.281-6.215 1.871-9.297 3.002-1.5.578-3.132 1.121-4.303 2.282q-.75 1.007-1.49 2.012c1.3-.277 2.681-.32 3.852-1.041 8.467-3.773 17.61-5.504 26.819-6.485 14.009-1.41 28.219-.902 42.327.893 14.01 1.85 28.02 5.044 41.328 10.11 8.847 3.343 17.109 7.935 24.919 13.309 14.708 10.21 27.618 22.918 38.827 36.928 12.61 16.009 23.119 34.029 29.519 53.538a135 135 0 0 1 4.003 14.908c1.28 6.265 2.041 12.61 2.231 18.91.698.185 1.391.372 2.092.56-.577 14.41.828 28.82.164 43.328-.35 7.836-1.31 15.809-3.443 23.419-.284 1.18-.777 2.322-.997 3.493l.086 2.272c.806-.871 1.871-1.551 2.242-2.732l2.912-6.135c-.144 6.615-1.65 13.109-4.003 19.309-1.86 5.073-4.023 10.01-5.784 15.109-2.981 1.49-5.974 2.981-8.956 4.482-1.52 3.072-3.192 6.235-3.533 9.697-.26 2.142 1.051 4.192.499 6.334a18.4 18.4 0 0 1-1.691 4.694c-10.01 8.947-19.92 18.109-30.419 26.419-3.273 2.492-6.565 5.084-10.31 6.835-.461.184-.948.448-1.45.252.715-1.361 1.89-2.342 2.911-3.403 1.511-1.551 3.293-2.972 4.083-5.064.345-.707.691-1.41 1.04-2.122-5.043 2.982-9.596 6.715-13.808 10.81-3.052 2.992-6.285 5.925-10.11 7.876-2.952 1.57-6.105 2.762-9.226 3.782-1.561.508-3.102.975-4.734 1.421q-.375-.835-.75-1.66c-3.743 1.77-7.666 3.332-11.71 4.492-4.203 1.221-8.457 2.052-12.81 2.552a82.4 82.4 0 0 1-12.61.418c-5.624-.228-11.31-1.05-16.809-2.331-7.346-1.711-14.609-4.363-21.319-7.606a115 115 0 0 1-12.11-6.825 118 118 0 0 1-8.025-5.723c-9.838-7.676-18.409-16.91-25.219-27.319-6.495-9.918-11.41-21.019-14.209-32.629a98 98 0 0 1-2.072-11.71c-.5-4.284-.72-8.596-.658-12.908l-.82-2.372c-.515 1.07-1.3 2.052-1.35 3.283-.179.821-.332 1.76-1.031 2.312a94 94 0 0 1 .084-11.71 94.6 94.6 0 0 1 3.253-18.81c1.73-6.254 4.112-12.309 7.064-18.108a94 94 0 0 1 6.085-10.21c5.584-8.155 12.61-15.509 20.619-21.319 4.663-3.412 9.757-6.354 15.009-8.746a89 89 0 0 1 20.618-7.136 89.7 89.7 0 0 1 26.419-1.63 89 89 0 0 1 13.709 2.281c11.41 2.832 22.419 8.046 31.618 15.41 1.541 1.2 2.982 2.531 4.463 3.802q1.12.5 2.232 1c-.463-1.121-.647-2.392-1.54-3.263-8.056-10.11-18.31-18.41-29.82-24.419-12.61-6.595-26.918-10.11-41.327-9.426-5.444.09-11.01.706-16.409 1.9-14.909 3.323-28.918 10.61-40.227 20.92-5.794 5.413-10.81 11.709-14.21 18.908-5.663 3.663-9.456 9.506-12.309 15.509-3.313 6.934-5.364 14.309-8.145 21.518-1.051 2.442-2.062 5.134-4.273 6.795-2.182 16.009-2.832 32.529.018 48.637 2.242 12.81 6.984 25.32 14.008 36.329 9.377 14.809 22.22 27.119 35.73 38.329 4.523 3.712 9.106 7.365 13.808 10.91 1.11.853 2.462 1.69 2.902 3.091.077.47-.302.867-.295 1.341-.269.632-.538 1.271-.64 1.952-14.609-7.135-27.619-17.409-38.327-29.618-.724-.385-1.441-.769-2.172-1.151.339 1.09.349 2.331 1.16 3.211 4.073 5.925 8.386 11.71 13.31 16.91-6.335-5.154-11.71-11.31-17.01-17.41-3.442-3.882-6.704-7.955-10.51-11.41-1.11-1-2.401-1.85-3.912-2.121-.37 0-1.67-.723-1.34-.163 3.02 5.553 6.574 10.81 10.609 15.608 9.967 11.81 22.219 21.62 35.529 29.519 13.908 8.316 29.018 14.709 44.927 18.509 11.11 2.632 22.719 3.993 34.129 2.712 5.313-.633 10.61-1.801 15.508-3.953l2.492-1.471c-1.69-.206-3.373-.46-5.083-.293-11.91.386-23.82.185-35.629-1.461-5.935-.83-11.81-2.042-17.609-3.773-2.042-.665-4.143-1.22-6.095-2.122-5.093-2.752-9.917-6.034-14.208-9.867-.895-.809-1.761-1.651-2.492-2.622 22.118 8.066 45.837 12.21 69.346 10.71 18.909-1.151 37.529-6.045 54.637-14.309 12.21-5.955 23.719-13.609 34.029-22.419 6.695-5.793 12.71-12.31 19.209-18.208.541-.47 1.11-.978 1.66-1.391-.643 1.26-.976 2.831-.198 4.122.45 1.141-.35 2.292-.812 3.313-.344.536-.588 1.091-.535 1.741.065.437-.419 1.811.314 1.101.722-.524 1.61-.883 1.952-1.77 1.75-2.983 3.602-6.076 4.142-9.547.313-1.821-.37-3.583-.643-5.374-.192-2.802 1.22-5.394 2.442-7.826 1.46-2.702 3.132-5.303 4.863-7.855 2.592 3.563 5.174 7.145 7.786 10.71-.323-2.932-.96-5.895-.443-8.837.925-5.825 3.653-11.01 6.234-16.309 4.283-8.516 8.757-17.109 10.41-26.618.653-3.643.879-7.386.579-11.11.326-.455.666-.942 1.17-1.211.81 1.43.74 3.172.806 4.783.015 2.182-.169 4.253-.429 6.435-.486 3.873-1.301 7.856-2.312 11.71-.278 1.151-.69 2.282-.938 3.433.09.747.178 1.49.267 2.242.681-.83 1.7-1.441 1.942-2.552 2.341-6.255 4.042-12.909 3.722-19.619-.187-4.654-.788-9.296-.507-13.909 1.61 3.993 3.283 7.966 4.373 12.11.493.589.985 1.171 1.48 1.761.136-1.041.684-2.082.269-3.112a39.4 39.4 0 0 1-.719-12.909 47 47 0 0 1 1.011-5.733c1.561-6.695 4.674-12.81 6.715-19.42.35-1.11.6-2.251.875-3.382-.915-.345-1.931-.597-2.862-.13-.939.303-1.871 1.132-2.892.783-1.161-.877-1.441-2.451-1.811-3.772-.752-3.413-1.041-6.925-1.161-10.41.104-1.651.029-3.413.774-4.934.43-.406 1.17-.083 1.66-.425.822-.344 1.101-1.241 1.451-1.982-1.91-1.021-2.942-3.042-4.022-4.834-2.762-5.074-4.503-10.61-5.804-16.109-.34-.906.287-.07.524.247 1.841 2.502 2.982 5.524 5.184 7.756.79.862 1.982.973 3.052 1.221-1.011-6.305-2.642-12.51-4.063-18.709-.817-3.683-1.48-7.485-1.52-11.21-1.292-2.582-2.453-5.283-4.244-7.565-.576-.845-1.9-1.421-2.701-.55-.664.688-.731 1.701-1.141 2.512-.884-.684-1.601-1.61-2.142-2.572-.818-2.592-1.581-5.173-2.102-7.765-.318-1.831-.78-3.773-.225-5.604.42-1.061 1.77-.743 2.651-.634 2.102.339 4.524 1.061 6.455-.225.8-.55 1.351-1.4 1.661-2.302 6.665 10.41 11.41 21.92 15.409 33.429 3.293 9.487 5.572 19.109 8.244 28.819q.734.947 1.461 1.89c.165-1.11.571-1.972.31-3.332-2.875-14.98-6.593-29.819-11.905-44.228.98-1.15.687-2.802.64-4.203-.32-3.882-1.15-7.665-1.45-11.51 0-.392-.204-1.55.278-.701 1.511 2.012 2.652 4.283 3.933 6.435.603.626 1.2 1.25 1.81 1.87-.052-1.33.127-2.691-.39-3.972-5.093-17.91-13.808-34.629-24.518-49.838-12.31-17.408-27.319-33.028-44.128-46.437-8.706-6.865-17.908-13.109-27.718-18.309-.888-.225-1.771-.451-2.662-.676.768 1.1 1.35 2.362 2.462 3.171 2.521 2.372 5.183 4.664 7.315 7.406-4.383-2.702-8.846-5.374-12.71-8.826-1.49-1.331-2.621-3.032-3.211-4.954-.404-.971-.773-2.042-1.411-2.842-4.824-1.931-10.01-3.603-15.31-2.712-3.732.645-7.225 2.472-11.009 2.552-.904.013-1.88.192-2.642-.415-10.61-5.634-21.619-10.71-33.128-14.31-8.787-2.761-17.61-5.243-26.32-8.315-1.85-.64-3.692-1.31-5.543-1.962l1.291 6.025c-5.474-1.7-11.31-2.502-17.009-1.69-4.903.653-9.656 2.011-14.509 2.411-2.761.267-5.703.278-8.375.124-.33-.087-1.731 0-1.331-.205 2.912-1.121 5.965-1.88 9.026-2.482 1.211.424 2.492.758 3.773.472l3.273-.29c.156-.581.594-.777 1.151-.831 1.311-.36 2.812-.72 3.643-1.871.807-1.281 0-3.122-1.481-3.443-2.452-.82-5.084-.784-7.626-1.011-2.692-.151-5.413-.314-8.095-.271-1.521.492-3.042.982-4.574 1.47 1.46.732 2.832 1.642 4.323 2.333 1.19.428 2.492.448 3.722.72.663.11 1.321.21 1.982.33-.76.572-1.8.335-2.692.493-2.491.186-5.213.21-7.705-2.002-4.834-.408-9.587-1.711-14.409-1.421-1.83.076-3.653.28-5.464.575 3.483-2.012 7.176-3.662 10.61-5.763l2.182-1.421c-1.64.01-3.283-.083-4.924.096 0 0-16.788 5.473-24.988 6.903zm-204.29 123.699c-.663.324-.645 1.23-1 1.82-.317.596-.459 1.221-.302 1.881.397 4.483-.666 9.037-2.962 12.91-.52.905-1.361 1.921-.79 3.012.356.835 1.23 1.64 2.191 1.231 1.49-.59 2.602-1.82 3.933-2.702q2.01-1.497 4.063-2.932c1.29-3.122 2.901-6.244 3.151-9.666.05-1.601-1.18-3.243-2.861-3.243-.961-.073-1.871.282-2.802.467-.117-.804-.71-1.41-.988-2.152-.253-.577-1.081-1.03-1.631-.606zm-10.21 46.837c-2.881 3.313-5.703 6.845-7.305 11.01-1.061 2.632-1.221 5.544-.824 8.335.264 2.132.567 4.313.288 6.475.259 1.741.636 3.473.947 5.214.955-1.58 2.112-3.032 2.982-4.674 2.192-6.475 3.503-13.209 4.734-19.919.621-3.001.986-6.044 1.43-9.076-.75.884-1.5 1.76-2.251 2.642zm371.287 71.756c-2.002.166-3.182 2.042-3.993 3.683-.963 1.932-1.491 4.053-1.992 6.145.764.328 1.431.873 1.64 1.71.83 1.992 1.262 4.153 2.393 6.005.577 1.151 1.992 1.851 3.222 1.331 1.46-.545 1.941-2.222 2.281-3.593.355-2.052.249-4.162.328-6.234-.03-2.372-.09-4.844-.993-7.075-.521-1.121-1.6-2.062-2.902-1.972zm114.099 30.419c-.762 1.14-1.781 2.132-2.142 3.483-.638 1.56-1.371 3.121-1.471 4.843-2.852 19.11-8.717 37.729-17.309 55.138-.331.63-.624 1.27-.515 2.001l-.06 3.593c1.102-.942 2.312-1.74 3.413-2.672.834-.875 1.161-2.091 1.771-3.111 9.537-18.71 15.81-39.128 18.51-59.948l-.62-5.423c-.506.696-1.011 1.39-1.511 2.091zm-121.1 7.545c-.492.76-1.21 1.411-1.57 2.232-1.341 6.615-4.984 12.41-8.226 18.209-1.6.96-3.172 1.982-4.894 2.742 2.282-4.554 5.414-8.627 7.496-13.309 1.101-2.332 1.161-4.974 1.66-7.476.04-.492.458-1.73-.221-.8-2.262 2.292-4.594 4.554-6.435 7.215-2.852 3.803-5.814 7.656-7.646 12.11-.8 1.911-1.1 4.403.393 6.065 1.36 1.59 3.602 1.65 5.373 2.512.285.865-.069 1.81-.03 2.702l-.328 5.053c4.333-6.024 8.777-12.01 11.81-18.808 2.332-4.974 4.083-10.21 4.954-15.61-.382-1.49-.767-2.981-1.151-4.492-.42.559-.838 1.111-1.251 1.671zm-39.027 40.228c-4.283 1.01-8.577 2.022-12.91 2.322-3.892.332-7.965.313-11.81.088-2.901-.124-6.014-.79-8.766.492-1.451.801-1.771 3.042-.46 4.132 1.691 1.661 4.063 2.342 6.225 3.162 4.874 1.661 9.918 2.722 15.009 3.513 5.825-4.453 11.11-9.496 16.409-14.509-1.191.276-2.392.55-3.583.826zm-137.088 1.79c.031 1.272-.284 2.583.22 3.794 2.422 8.235 7.075 15.508 11.41 22.818 1.291 1.211 2.592 2.422 3.893 3.643-.18-1.86-.101-3.753-.396-5.604-1.101-3.252-2.172-6.524-3.353-9.767-2.402-2.612-4.193-5.684-5.774-8.797-.865-1.61-1.58-3.322-2.492-4.913-1.15-1.201-2.302-2.412-3.453-3.613l-.066 2.402zm-7.556 13.51c-.73 3.652-1.46 7.305-2.191 10.91 6.374 8.566 11.61 18.008 19.418 25.518 1.611 1.571 3.393 2.992 5.354 4.103.815.303 1.661-.549 1.381-1.361-1.18-3.543-3.162-6.755-4.994-9.988-4.482-7.625-9.396-15.008-13.508-22.818-1.631-3.052-3.232-6.135-4.854-9.197q-.277 1.389-.556 2.772z"/>
</svg>