<svg xmlns="http://www.w3.org/2000/svg" viewBox="0 0 2160 2160">
<rect fill="#fff" width="2160" height="2160" x="0" y="0"/>
<path fill="#4c00ff" d="m1420.4 1420.4v395.6c0 20.8-16.7 37.6-37.5 37.6h-1038.4c-20.7 0-37.5-16.8-37.5-37.6v-1039c0-20.7 16.8-37.5 37.5-37.5h394.3v643.4c0 20.7 16.8 37.5 37.5 37.5z"/>
<path fill="#ff5252" d="m1853 862.6c0 332.4-193.9 557-432.6 557.8v-418.8c0-12-4.8-24-13.5-31.9l-217.1-217.4c-8.8-8.8-20-13.6-32-13.6h-418.2v-394.8c0-20.8 16.8-37.6 37.5-37.6h585.1c277.7-0.8 490.8 223 490.8 556.3z"/>
<path fill="#000" d="m1406.1 969.7c8.7 8.7 13.5 19.9 13.5 31.9v418h-642.5c-20.7 0-37.5-16.8-37.5-37.5v-642.5h417.4c12 0 24 4.8 32 13.6z"/>
</svg>