<svg xmlns="http://www.w3.org/2000/svg" viewBox="0 0 96 96" fill="#FFF" stroke-miterlimit="10" stroke-width="2">
<path stroke="#979593" d="M85,89H33c-1.1046,0-2-0.8954-2-2V14l49.875-6 L87,13v74C87,88.1046,86.1046,89,85,89z"/>
<path stroke="#979593" d="M79,83H27c-1.1046,0-2-0.8954-2-2V15h56v66 C81,82.1046,80.1046,83,79,83z"/>
<path fill="#185ABD" d="M81.1716,6H26c-1.1046,0-2,0.8954-2,2v10h2h56v-4.5858c0-0.8909,1.0771-1.3371,1.7071-0.7071L88,17v-4.5858 c0-0.2652-0.1054-0.5196-0.2929-0.7071l-5.1213-5.1213C82.2107,6.2107,81.702,6,81.1716,6z"/>
<path fill="#C8C6C4" d="M73 61H42v-2h31c.5523 0 1 .4477 1 1l0 0C74 60.5523 73.5523 61 73 61zM73 55H42v-2h31c.5523 0 1 .4477 1 1l0 0C74 54.5523 73.5523 55 73 55zM73 49H42v-2h31c.5523 0 1 .4477 1 1l0 0C74 48.5523 73.5523 49 73 49zM73 43H42v-2h31c.5523 0 1 .4477 1 1l0 0C74 42.5523 73.5523 43 73 43zM73 67H42v-2h31c.5523 0 1 .4477 1 1l0 0C74 66.5523 73.5523 67 73 67z"/>
<path fill="#185ABD" d="M12,74h32c2.2091,0,4-1.7909,4-4V38c0-2.2091-1.7909-4-4-4H12c-2.2091,0-4,1.7909-4,4v32 C8,72.2091,9.7909,74,12,74z"/>
<path d="M21.6245,60.6455c0.0661,0.522,0.109,0.9769,0.1296,1.3657h0.0762 c0.0306-0.3685,0.0889-0.8129,0.1751-1.3349c0.0862-0.5211,0.1703-0.961,0.2517-1.319L25.7911,44h4.5702l3.6562,15.1272 c0.183,0.7468,0.3353,1.6973,0.457,2.8532h0.0608c0.0508-0.7979,0.1777-1.7184,0.3809-2.7615L37.8413,44H42l-5.1183,22h-4.86 l-3.4885-14.5744c-0.1016-0.4197-0.2158-0.9663-0.3428-1.6417c-0.127-0.6745-0.2057-1.1656-0.236-1.4724h-0.0608 c-0.0407,0.358-0.1195,0.8896-0.2364,1.595c-0.1169,0.7062-0.211,1.2273-0.2819,1.565L24.1,66h-4.9357L14,44h4.2349 l3.1843,15.3882C21.4901,59.7047,21.5584,60.1244,21.6245,60.6455z"/>
</svg>