<svg viewBox="-18 -169 512 512" xmlns="http://www.w3.org/2000/svg">
<rect x="-18" y="-169" width="512" height="512" fill="#cf9"/>
<g stroke="#fff" stroke-width="6" stroke-linejoin="miter">
<path d="M130.898 151.216V147.956C130.898 142.895 134.587 140.707 138.233 140.707C140.121 140.707 142.523 141.393 143.938 142.68C144.324 143.023 144.367 143.624 144.024 144.138L142.394 146.369C141.922 147.098 141.193 146.755 140.764 146.455C139.992 145.94 139.263 145.769 138.748 145.769C137.547 145.769 136.432 146.626 136.432 148.428V151.216H140.507C140.978 151.216 141.408 151.602 141.408 152.117V154.948C141.408 155.42 140.978 155.849 140.507 155.849H136.432V170.99C136.432 171.463 136.046 171.891 135.574 171.891H131.799C131.327 171.891 130.898 171.463 130.898 170.99V155.849H128.11C127.595 155.849 127.209 155.42 127.209 154.948V152.117C127.209 151.602 127.595 151.216 128.11 151.216H130.898Z" fill="#757575"/>
<path d="M154.274 150.959C154.703 150.959 155.261 151.173 155.261 152.031V155.72C155.261 156.577 154.575 156.792 154.231 156.792H153.202C150.457 156.792 148.87 158.208 148.87 161.768V171.076C148.87 171.548 148.398 171.891 147.969 171.891H144.194C143.722 171.891 143.336 171.505 143.336 171.034V152.116C143.336 151.602 143.722 151.216 144.194 151.216H147.754C148.183 151.216 148.612 151.602 148.612 152.031V154.004C149.685 152.159 151.486 150.959 153.674 150.959H154.274Z" fill="#757575"/>
<path d="M166.797 150.615C172.974 150.615 177.907 155.42 177.907 161.596C177.907 167.73 172.974 172.492 166.797 172.492C160.621 172.492 155.688 167.73 155.688 161.596C155.688 155.42 160.621 150.615 166.797 150.615ZM166.797 167.345C169.972 167.345 172.331 164.77 172.331 161.554C172.331 158.336 169.972 155.763 166.797 155.763C163.623 155.763 161.264 158.336 161.264 161.554C161.264 164.77 163.623 167.345 166.797 167.345Z" fill="#757575"/>
<path d="M186.054 171.077C186.054 171.548 185.582 171.891 185.153 171.891H181.378C180.906 171.891 180.52 171.505 180.52 171.034V152.116C180.52 151.602 180.906 151.216 181.378 151.216H185.153C185.582 151.216 186.054 151.602 186.054 152.031V153.661C187.255 151.945 189.7 150.615 192.488 150.615C195.576 150.615 197.935 152.074 199.094 154.262C201.024 151.645 203.769 150.615 206.429 150.615C212.477 150.615 215.265 154.904 215.265 159.366V171.077C215.265 171.548 214.836 171.891 214.364 171.891H210.632C210.161 171.891 209.731 171.548 209.731 171.077V160.695C209.731 157.907 208.316 155.72 205.313 155.72C202.311 155.72 200.681 157.907 200.681 160.695V171.077C200.681 171.548 200.209 171.891 199.78 171.891H196.048C195.619 171.891 195.147 171.548 195.147 171.077V160.695C195.147 157.907 193.732 155.72 190.729 155.72C187.727 155.72 186.054 157.907 186.054 160.695V171.077Z" fill="#757575"/>
<path d="M247.238 150.487L241.833 170.99C241.662 171.634 241.061 171.891 240.675 171.891H234.455C234.027 171.891 233.469 171.634 233.297 170.99L226.048 143.237C225.834 142.337 226.348 141.864 226.992 141.864H231.453C231.925 141.864 232.268 142.294 232.396 142.766L237.758 165.028L243.635 142.68C243.764 142.208 243.978 141.864 244.622 141.864H249.769C250.241 141.864 250.627 142.251 250.755 142.68L256.632 164.857L261.994 142.766C262.08 142.294 262.423 141.864 262.937 141.864H267.141C267.828 141.864 268.299 142.208 268.042 143.237L260.836 170.99C260.664 171.634 259.892 171.891 259.677 171.891H253.758C253.329 171.891 252.771 171.634 252.6 170.99L247.238 150.487Z" fill="#757575"/>
<path d="M276.934 150.615C283.111 150.615 288.044 155.42 288.044 161.596C288.044 167.73 283.111 172.492 276.934 172.492C270.757 172.492 265.824 167.73 265.824 161.596C265.824 155.42 270.757 150.615 276.934 150.615ZM276.934 167.344C280.108 167.344 282.467 164.77 282.467 161.554C282.467 158.336 280.108 155.763 276.934 155.763C273.76 155.763 271.401 158.336 271.401 161.554C271.401 164.77 273.76 167.344 276.934 167.344Z" fill="#757575"/>
<path d="M300.695 150.615C306.872 150.615 311.805 155.42 311.805 161.596C311.805 167.73 306.872 172.492 300.695 172.492C294.518 172.492 289.585 167.73 289.585 161.596C289.585 155.42 294.518 150.615 300.695 150.615ZM300.695 167.345C303.869 167.345 306.228 164.77 306.228 161.554C306.228 158.336 303.869 155.763 300.695 155.763C297.521 155.763 295.162 158.336 295.162 161.554C295.162 164.77 297.521 167.345 300.695 167.345Z" fill="#757575"/>
<path d="M314.376 166.744V142.766C314.376 142.294 314.762 141.864 315.277 141.864H319.008C319.523 141.864 319.909 142.294 319.909 142.766V165.671C319.909 166.658 320.424 167.302 321.453 167.302H322.697C323.126 167.302 323.555 167.516 323.555 168.116V170.819C323.555 171.72 322.869 171.891 322.44 171.891H319.695C316.006 171.891 314.376 169.875 314.376 166.744Z" fill="#757575"/>
<path d="M334.921 171.891H330.117C329.559 171.891 329.173 171.506 329.002 170.99L323.039 152.46C322.782 151.688 323.168 151.216 323.854 151.216H327.887C328.53 151.216 328.83 151.602 328.959 152.074L332.605 165.286L336.165 152.074C336.337 151.473 336.68 151.216 337.237 151.216H341.698C342.256 151.216 342.642 151.473 342.814 152.074L346.374 165.286L350.106 152.074C350.235 151.645 350.535 151.216 351.178 151.216H354.781C355.468 151.216 355.854 151.688 355.596 152.46L349.634 170.99C349.463 171.506 349.076 171.891 348.476 171.891H343.8C343.2 171.891 342.771 171.506 342.642 170.99L339.339 158.594L336.036 170.99C335.908 171.506 335.479 171.891 334.921 171.891Z" fill="#757575"/>
<path d="M367.045 150.615C373.222 150.615 378.155 155.42 378.155 161.596C378.155 167.73 373.222 172.492 367.045 172.492C360.868 172.492 355.935 167.73 355.935 161.596C355.935 155.42 360.868 150.615 367.045 150.615ZM367.045 167.345C370.219 167.345 372.578 164.77 372.578 161.554C372.578 158.336 370.219 155.763 367.045 155.763C363.871 155.763 361.512 158.336 361.512 161.554C361.512 164.77 363.871 167.345 367.045 167.345Z" fill="#757575"/>
<path d="M391.706 150.959C392.135 150.959 392.693 151.173 392.693 152.031V155.72C392.693 156.577 392.006 156.792 391.663 156.792H390.634C387.888 156.792 386.301 158.208 386.301 161.768V171.076C386.301 171.548 385.829 171.891 385.401 171.891H381.626C381.154 171.891 380.768 171.505 380.768 171.034V152.116C380.768 151.602 381.154 151.216 381.626 151.216H385.186C385.615 151.216 386.044 151.602 386.044 152.031V154.004C387.116 152.159 388.918 150.959 391.106 150.959H391.706Z" fill="#757575"/>
<path d="M411.12 168.846C411.463 169.361 411.377 169.875 410.991 170.261C409.661 171.591 407.516 172.32 405.157 172.32C401.725 172.32 398.294 170.433 398.294 165.8V155.848H395.463C394.991 155.848 394.605 155.42 394.605 154.948V152.116C394.605 151.602 394.991 151.216 395.463 151.216H398.294V145.468C398.294 144.954 398.68 144.567 399.195 144.567H402.969C403.441 144.567 403.827 144.954 403.827 145.468V151.216H409.832C410.304 151.216 410.733 151.602 410.733 152.116V154.948C410.733 155.42 410.304 155.848 409.832 155.848H403.827V164.557C403.827 166.658 405.2 167.215 406.186 167.215C406.701 167.215 407.43 167.044 408.16 166.572C408.803 166.186 409.447 166.186 409.832 166.744L411.12 168.846Z" fill="#757575"/>
<path d="M428.83 161.081C428.83 157.822 426.986 155.72 423.812 155.72C420.681 155.72 418.622 157.907 418.622 161.081V171.076C418.622 171.548 418.15 171.891 417.721 171.891H413.946C413.474 171.891 413.088 171.505 413.088 171.034V142.723C413.088 142.251 413.474 141.864 413.946 141.864H417.721C418.15 141.864 418.622 142.208 418.622 142.68V153.661C419.823 151.988 422.182 150.615 425.485 150.615C430.975 150.615 434.364 154.476 434.364 159.58V171.076C434.364 171.548 433.935 171.891 433.463 171.891H429.731C429.259 171.891 428.83 171.548 428.83 171.076V161.081Z" fill="#757575"/>
<path d="M453.878 153.232C454.479 153.747 454.393 154.39 453.921 154.948L452.548 156.577C452.033 157.178 451.39 157.178 450.618 156.707C449.288 155.763 447.53 154.948 445.728 154.948C443.841 154.948 442.64 155.806 442.64 156.792C442.64 157.779 443.369 158.422 445.256 158.766L448.645 159.409C452.291 160.095 454.95 161.854 454.95 165.586C454.95 169.575 451.175 172.492 445.728 172.492C442.125 172.492 439.465 171.29 437.835 170.047C436.248 168.846 436.334 167.859 437.192 167.173L438.779 165.885C439.594 165.243 440.194 165.586 440.709 166.015C442.082 167.215 443.798 168.159 445.985 168.159C448.216 168.159 449.288 167.173 449.288 166.1C449.288 164.9 448.13 164.47 445.985 164.041L442.683 163.355C439.337 162.669 437.106 160.567 437.106 157.221C437.106 153.489 440.538 150.615 445.857 150.615C449.803 150.615 452.548 152.074 453.878 153.232Z" fill="#757575"/>
<path d="M125.827 71.7283C125.827 67.9836 128.891 64.8346 132.721 64.8346C136.465 64.8346 139.529 67.9836 139.529 71.7283C139.529 75.473 136.465 78.6219 132.721 78.6219C128.891 78.6219 125.827 75.473 125.827 71.7283Z" fill="#FD6400"/>
<path d="M128.977 125.008C127.955 125.008 127.189 124.157 127.189 123.22V85.7717C127.189 84.7502 127.955 83.9844 128.977 83.9844H136.381C137.403 83.9844 138.168 84.7502 138.168 85.7717V123.22C138.168 124.157 137.403 125.008 136.381 125.008H128.977Z" fill="#FD6400"/>
<path d="M175.019 103.56C175.019 97.0911 171.359 92.9207 165.061 92.9207C158.848 92.9207 154.763 97.2611 154.763 103.56V123.39C154.763 124.326 153.826 125.007 152.976 125.007H145.486C144.55 125.007 143.784 124.241 143.784 123.305V85.7713C143.784 84.7497 144.55 83.984 145.486 83.984H152.976C153.826 83.984 154.763 84.7497 154.763 85.6013V88.8352C157.146 85.5163 161.827 82.7924 168.38 82.7924C179.274 82.7924 185.998 90.4525 185.998 100.581V123.39C185.998 124.326 185.147 125.007 184.211 125.007H176.806C175.87 125.007 175.019 124.326 175.019 123.39V103.56Z" fill="#FD6400"/>
<path d="M223.02 87.9846C224.212 89.0061 224.042 90.2827 223.105 91.3886L220.382 94.6232C219.361 95.8148 218.084 95.8148 216.552 94.8782C213.913 93.0059 210.425 91.3886 206.85 91.3886C203.104 91.3886 200.722 93.0909 200.722 95.0483C200.722 97.0063 202.169 98.2829 205.913 98.9637L212.637 100.24C219.871 101.602 225.148 105.092 225.148 112.496C225.148 120.411 217.658 126.199 206.85 126.199C199.7 126.199 194.423 123.816 191.19 121.348C188.041 118.964 188.211 117.007 189.913 115.646L193.062 113.092C194.679 111.815 195.87 112.496 196.892 113.347C199.615 115.731 203.019 117.603 207.36 117.603C211.786 117.603 213.913 115.646 213.913 113.517C213.913 111.134 211.616 110.284 207.36 109.432L200.807 108.07C194.168 106.709 189.742 102.538 189.742 95.8998C189.742 88.4954 196.552 82.7926 207.105 82.7926C214.935 82.7926 220.382 85.6865 223.02 87.9846Z" fill="#FD6400"/>
<path d="M238.935 106.879C238.935 112.837 241.914 116.837 248.127 116.837C254.17 116.837 257.575 112.752 257.575 107.049V85.6017C257.575 84.7502 258.425 83.9844 259.277 83.9844H266.766C267.788 83.9844 268.554 84.7502 268.554 85.7717V123.305C268.554 124.242 267.788 125.008 266.766 125.008H259.277C258.425 125.008 257.575 124.327 257.575 123.39V120.156C255.021 123.646 251.277 126.199 244.808 126.199C234.34 126.199 227.956 119.135 227.956 108.751V85.6017C227.956 84.7502 228.807 83.9844 229.743 83.9844H237.148C238.085 83.9844 238.935 84.7502 238.935 85.6017V106.879Z" fill="#FD6400"/>
<path d="M295.873 83.4735C296.724 83.4735 297.831 83.8993 297.831 85.6016V92.921C297.831 94.6234 296.469 95.0484 295.788 95.0484H293.745C288.298 95.0484 285.149 97.8573 285.149 104.922V123.39C285.149 124.327 284.213 125.007 283.362 125.007H275.872C274.936 125.007 274.17 124.242 274.17 123.305V85.7717C274.17 84.7501 274.936 83.9843 275.872 83.9843H282.936C283.788 83.9843 284.638 84.7501 284.638 85.6016V89.5164C286.766 85.8567 290.34 83.4735 294.682 83.4735H295.873Z" fill="#FD6400"/>
<path d="M317.66 82.7926C323.448 82.7926 328.129 85.4315 330.171 89.0061V85.7715C330.171 84.75 331.022 83.9842 331.874 83.9842H339.363C340.299 83.9842 341.065 84.75 341.065 85.7715V123.305C341.065 124.242 340.299 125.007 339.363 125.007H331.874C330.937 125.007 330.171 124.242 330.171 123.305V119.986C328.044 123.561 323.363 126.199 317.575 126.199C306.851 126.199 297.063 117.603 297.063 104.411C297.063 91.2185 306.851 82.7926 317.66 82.7926ZM319.192 116.071C325.49 116.071 330.171 110.879 330.171 104.496C330.171 98.1129 325.49 93.0059 319.192 93.0059C312.894 93.0059 308.128 98.1129 308.128 104.496C308.128 110.879 312.894 116.071 319.192 116.071Z" fill="#FD6400"/>
<path d="M377.917 103.56C377.917 97.0911 374.257 92.9207 367.96 92.9207C361.747 92.9207 357.661 97.2611 357.661 103.56V123.39C357.661 124.326 356.725 125.007 355.874 125.007H348.384C347.448 125.007 346.682 124.241 346.682 123.305V85.7713C346.682 84.7497 347.448 83.984 348.384 83.984H355.874C356.725 83.984 357.661 84.7497 357.661 85.6013V88.8352C360.044 85.5163 364.726 82.7924 371.279 82.7924C382.173 82.7924 388.896 90.4525 388.896 100.581V123.39C388.896 124.326 388.045 125.007 387.11 125.007H379.704C378.769 125.007 377.917 124.326 377.917 123.39V103.56Z" fill="#FD6400"/>
<path d="M413.917 82.7926C422.343 82.7926 428.981 86.878 432.386 92.4951C433.067 93.6017 432.556 94.8782 431.62 95.559L427.45 98.7937C426.002 99.9002 424.726 99.3895 423.875 98.2829C421.151 94.9633 418.513 93.0059 414.087 93.0059C407.704 93.0059 403.108 98.1129 403.108 104.496C403.108 110.879 407.704 115.986 414.087 115.986C418.513 115.986 421.151 114.028 423.875 110.709C424.726 109.603 426.002 109.092 427.45 110.199L431.62 113.432C432.556 114.113 433.067 115.39 432.386 116.496C428.981 122.113 422.343 126.199 413.917 126.199C401.576 126.199 392.044 116.751 392.044 104.496C392.044 92.2401 401.576 82.7926 413.917 82.7926Z" fill="#FD6400"/>
<path d="M475.791 103.304V105.347C475.791 106.368 475.365 107.219 473.833 107.219H444.556C445.151 113.006 449.748 116.836 455.28 116.836C457.492 116.836 459.279 116.326 460.812 115.56C462.258 114.794 463.365 113.858 464.556 112.496C465.152 111.815 465.833 111.56 466.769 112.071L472.812 115.815C473.748 116.411 473.748 117.347 473.237 118.028C471.451 120.411 468.812 122.539 465.748 123.986C462.769 125.348 459.279 126.199 455.11 126.199C442.257 126.199 433.236 116.836 433.236 104.666C433.236 92.4949 442.257 82.7924 454.854 82.7924C467.535 82.7924 475.791 92.4099 475.791 103.304ZM454.939 91.6441C450.003 91.6441 445.917 95.048 444.811 100.24H464.982C463.961 94.623 459.62 91.6441 454.939 91.6441Z" fill="#FD6400"/>
<path d="M28.1458 15.3719C13.0694 15.3719 0.835087 27.5711 0.79126 42.6475L0.791455 67.1642C0.764111 78.597 3.65342 88.9404 9.44392 97.9692C11.8939 93.5421 14.9078 89.4336 18.4774 85.7491C30.4334 73.4291 47.1187 66.6387 65.4774 66.6387C66.7504 66.6387 67.7934 67.6208 67.8903 68.882C67.9874 70.143 67.0901 71.2707 65.841 71.4525C65.5743 71.4889 40.4375 75.4299 26.0197 95.6195C23.199 99.584 20.967 103.912 19.3229 108.586C19.1568 109.058 19.2918 109.589 19.6627 109.926C19.9048 110.145 20.1491 110.363 20.3964 110.58C27.9891 117.242 36.5155 122.463 45.65 126.721L46.1246 126.941C47.2043 127.441 48.4493 127.441 49.529 126.941L50.0037 126.721C59.1381 122.463 67.6645 117.242 75.2572 110.58C87.1852 100.115 94.7918 86.8554 94.7918 71.8917L94.7917 20.7688C94.8093 17.7934 92.4021 15.372 89.4266 15.372L28.217 15.3719" fill="#FD6400"/>
<path d="M148.733 14.1759C136.185 14.1759 127.209 23.8523 127.209 35.9707C127.209 48.0889 136.185 57.4264 148.981 57.4264C153.141 57.4264 156.623 56.5672 159.585 55.2107C162.637 53.7638 165.26 51.661 167.046 49.287C167.566 48.6089 167.566 47.6592 166.616 47.0714L160.602 43.3412C159.675 42.8438 158.997 43.0922 158.409 43.7706C157.211 45.1273 156.103 46.0541 154.679 46.823C153.141 47.5913 151.355 48.0889 149.162 48.0889C143.646 48.0889 139.079 44.2679 138.468 38.5255H167.634C169.171 38.5255 169.601 37.6664 169.601 36.6491V34.614C169.601 23.7619 161.371 14.1759 148.733 14.1759ZM138.74 31.5621C139.825 26.3845 143.895 22.9932 148.823 22.9932C153.481 22.9932 157.799 25.9776 158.816 31.5621H138.74Z" fill="#FD6400"/>
<path d="M183.458 56.233C182.271 56.233 181.507 55.4705 181.169 54.4532L168.198 18C167.689 16.6428 168.452 15.3721 169.809 15.3721H178.032C179.303 15.3721 179.813 16.1345 180.151 17.0685L189.391 45.1279L197.869 17.0685C198.122 16.1345 198.716 15.3721 199.989 15.3721H208.042C209.4 15.3721 210.162 16.6428 209.738 18L196.766 54.4532C196.512 55.4705 195.665 56.233 194.563 56.233H183.458Z" fill="#FD6400"/>
<path d="M229.239 14.1759C216.714 14.1759 207.716 23.8523 207.716 35.9707C207.716 48.0889 216.714 57.4264 229.51 57.4264C233.648 57.4264 237.13 56.5672 240.091 55.2107C243.143 53.7638 245.789 51.661 247.552 49.287C248.072 48.6089 248.072 47.6592 247.145 47.0714L241.109 43.3412C240.182 42.8438 239.503 43.0922 238.916 43.7706C237.717 45.1273 236.632 46.0541 235.185 46.823C233.648 47.5913 231.884 48.0889 229.669 48.0889C224.152 48.0889 219.585 44.2679 218.997 38.5255H248.163C249.677 38.5255 250.107 37.6664 250.107 36.6491V34.614C250.107 23.7619 241.877 14.1759 229.239 14.1759ZM219.246 31.5621C220.354 26.3845 224.423 22.9932 229.329 22.9932C233.987 22.9932 238.328 25.9776 239.345 31.5621H219.246Z" fill="#FD6400"/>
<path d="M413.253 68.4515C412.489 67.6891 412.403 66.4192 413.167 65.4018L415.797 61.7549C416.813 60.4 418.253 60.5692 419.271 61.3316C420.714 62.4339 422.408 63.2822 424.442 63.2822C427.07 63.2822 429.022 61.5024 429.953 58.9586L430.931 56.2322H427.117C426.012 56.2322 425.337 55.5539 424.996 54.5382L412.62 17.9992C412.28 16.642 412.535 15.3721 414.398 15.3721H423.132C424.149 15.3721 424.741 16.2179 424.996 17.151L433.899 46.3136L442.291 17.151C442.545 16.2179 443.223 15.3721 444.494 15.3721H452.888C454.414 15.3721 454.922 16.4728 454.414 17.9992L440.718 60.6526C438.345 67.944 433.259 72.6909 425.204 72.6909C420.373 72.6909 416.05 71.0826 413.253 68.4515Z" fill="#FD6400"/>
<path d="M407.915 15.3741H400.432C399.595 15.3741 398.759 16.1428 398.759 17.1602V20.3706C396.724 16.8211 392.044 14.1759 386.279 14.1759C375.517 14.1759 365.773 22.5862 365.773 35.7218C365.773 48.8576 375.517 57.4264 386.211 57.4264C391.976 57.4264 396.634 54.781 398.759 51.2316V54.5324C398.759 55.4594 399.505 56.228 400.432 56.228H407.915C408.842 56.228 409.611 55.4594 409.611 54.5324V17.1602C409.611 16.1428 408.842 15.3741 407.915 15.3741ZM387.816 47.3203C381.531 47.3203 376.783 42.1655 376.783 35.7897C376.783 29.4368 381.531 24.3498 387.816 24.3498C394.079 24.3498 398.759 29.4368 398.759 35.7897C398.759 42.1655 394.079 47.3203 387.816 47.3203Z" fill="#FD6400"/>
<path d="M361.226 0H353.742C352.906 0 352.069 0.768739 352.047 1.76354L351.956 20.0539C351.503 19.307 350.913 18.5998 350.215 17.9456C347.746 15.6292 343.856 14.0174 339.273 14.0174C328.647 14.0174 318.925 22.541 318.925 35.6313C318.925 48.8348 328.647 57.4262 339.454 57.4262C345.242 57.4262 349.65 54.7809 352.047 51.2088V54.5322C352.047 55.4592 352.815 56.2279 353.742 56.2279H361.135C362.175 56.2279 362.921 55.4592 362.921 54.5322V39.1583V1.78618V1.76354C362.899 0.768739 362.062 0 361.226 0ZM341.059 47.2975C334.751 47.2975 330.003 42.0974 330.003 35.7216C330.003 29.3461 334.751 24.2366 341.059 24.2366C347.367 24.2366 352.047 29.3461 352.047 35.7216C352.047 42.0974 347.367 47.2975 341.059 47.2975Z" fill="#FD6400"/>
<path d="M281.909 15.3725H272.864C267.763 15.3725 263.626 19.488 263.584 24.5772V17.1526C263.584 16.1331 262.819 15.3719 261.887 15.3719H254.343C253.411 15.3719 252.646 16.1331 252.646 17.1526V54.5391C252.646 55.4706 253.408 56.2328 254.34 56.2328H261.89C262.822 56.2328 263.584 55.4706 263.584 54.5391L263.587 31.3921C263.587 31.3358 263.591 31.2788 263.599 31.223C263.973 28.6878 265.076 26.3791 266.829 24.5691C269.251 22.073 272.632 20.6984 276.351 20.6984C276.608 20.6984 276.82 20.8957 276.84 21.1522C276.858 21.4088 276.677 21.6357 276.424 21.6718C276.371 21.68 271.279 22.4775 268.358 26.5686C267.382 27.9399 266.754 29.5234 266.472 31.3074H273.173C278.299 31.3074 282.455 27.1517 282.455 22.0254V15.9185C282.455 15.6169 282.211 15.3725 281.909 15.3725Z" fill="#FD6400"/>
<path d="M318.403 15.3721H310.014C308.74 15.3721 308.062 16.2178 307.808 17.151L299.414 46.3134L290.513 17.151C290.258 16.2178 289.667 15.3721 288.649 15.3721H285.888V22.0255C285.888 25.3814 284.571 28.4292 282.439 30.7038L290.513 54.5381C290.853 55.5538 291.532 56.2321 292.634 56.2321H296.448L295.469 58.9586C294.537 61.5023 292.587 63.2821 289.96 63.2821C287.923 63.2821 286.229 62.4338 284.786 61.3315C283.772 60.5692 282.33 60.4 281.312 61.7548L278.683 65.4018C277.919 66.4191 278.006 67.689 278.769 68.4514C281.566 71.0824 285.889 72.6909 290.721 72.6909C298.777 72.6909 303.863 67.944 306.236 60.6525L319.93 17.9992C320.438 16.4726 319.93 15.3721 318.403 15.3721Z" fill="#FD6400"/>
</g>
<g>
<path d="M130.898 151.216V147.956C130.898 142.895 134.587 140.707 138.233 140.707C140.121 140.707 142.523 141.393 143.938 142.68C144.324 143.023 144.367 143.624 144.024 144.138L142.394 146.369C141.922 147.098 141.193 146.755 140.764 146.455C139.992 145.94 139.263 145.769 138.748 145.769C137.547 145.769 136.432 146.626 136.432 148.428V151.216H140.507C140.978 151.216 141.408 151.602 141.408 152.117V154.948C141.408 155.42 140.978 155.849 140.507 155.849H136.432V170.99C136.432 171.463 136.046 171.891 135.574 171.891H131.799C131.327 171.891 130.898 171.463 130.898 170.99V155.849H128.11C127.595 155.849 127.209 155.42 127.209 154.948V152.117C127.209 151.602 127.595 151.216 128.11 151.216H130.898Z" fill="#757575"/>
<path d="M154.274 150.959C154.703 150.959 155.261 151.173 155.261 152.031V155.72C155.261 156.577 154.575 156.792 154.231 156.792H153.202C150.457 156.792 148.87 158.208 148.87 161.768V171.076C148.87 171.548 148.398 171.891 147.969 171.891H144.194C143.722 171.891 143.336 171.505 143.336 171.034V152.116C143.336 151.602 143.722 151.216 144.194 151.216H147.754C148.183 151.216 148.612 151.602 148.612 152.031V154.004C149.685 152.159 151.486 150.959 153.674 150.959H154.274Z" fill="#757575"/>
<path d="M166.797 150.615C172.974 150.615 177.907 155.42 177.907 161.596C177.907 167.73 172.974 172.492 166.797 172.492C160.621 172.492 155.688 167.73 155.688 161.596C155.688 155.42 160.621 150.615 166.797 150.615ZM166.797 167.345C169.972 167.345 172.331 164.77 172.331 161.554C172.331 158.336 169.972 155.763 166.797 155.763C163.623 155.763 161.264 158.336 161.264 161.554C161.264 164.77 163.623 167.345 166.797 167.345Z" fill="#757575"/>
<path d="M186.054 171.077C186.054 171.548 185.582 171.891 185.153 171.891H181.378C180.906 171.891 180.52 171.505 180.52 171.034V152.116C180.52 151.602 180.906 151.216 181.378 151.216H185.153C185.582 151.216 186.054 151.602 186.054 152.031V153.661C187.255 151.945 189.7 150.615 192.488 150.615C195.576 150.615 197.935 152.074 199.094 154.262C201.024 151.645 203.769 150.615 206.429 150.615C212.477 150.615 215.265 154.904 215.265 159.366V171.077C215.265 171.548 214.836 171.891 214.364 171.891H210.632C210.161 171.891 209.731 171.548 209.731 171.077V160.695C209.731 157.907 208.316 155.72 205.313 155.72C202.311 155.72 200.681 157.907 200.681 160.695V171.077C200.681 171.548 200.209 171.891 199.78 171.891H196.048C195.619 171.891 195.147 171.548 195.147 171.077V160.695C195.147 157.907 193.732 155.72 190.729 155.72C187.727 155.72 186.054 157.907 186.054 160.695V171.077Z" fill="#757575"/>
<path d="M247.238 150.487L241.833 170.99C241.662 171.634 241.061 171.891 240.675 171.891H234.455C234.027 171.891 233.469 171.634 233.297 170.99L226.048 143.237C225.834 142.337 226.348 141.864 226.992 141.864H231.453C231.925 141.864 232.268 142.294 232.396 142.766L237.758 165.028L243.635 142.68C243.764 142.208 243.978 141.864 244.622 141.864H249.769C250.241 141.864 250.627 142.251 250.755 142.68L256.632 164.857L261.994 142.766C262.08 142.294 262.423 141.864 262.937 141.864H267.141C267.828 141.864 268.299 142.208 268.042 143.237L260.836 170.99C260.664 171.634 259.892 171.891 259.677 171.891H253.758C253.329 171.891 252.771 171.634 252.6 170.99L247.238 150.487Z" fill="#757575"/>
<path d="M276.934 150.615C283.111 150.615 288.044 155.42 288.044 161.596C288.044 167.73 283.111 172.492 276.934 172.492C270.757 172.492 265.824 167.73 265.824 161.596C265.824 155.42 270.757 150.615 276.934 150.615ZM276.934 167.344C280.108 167.344 282.467 164.77 282.467 161.554C282.467 158.336 280.108 155.763 276.934 155.763C273.76 155.763 271.401 158.336 271.401 161.554C271.401 164.77 273.76 167.344 276.934 167.344Z" fill="#757575"/>
<path d="M300.695 150.615C306.872 150.615 311.805 155.42 311.805 161.596C311.805 167.73 306.872 172.492 300.695 172.492C294.518 172.492 289.585 167.73 289.585 161.596C289.585 155.42 294.518 150.615 300.695 150.615ZM300.695 167.345C303.869 167.345 306.228 164.77 306.228 161.554C306.228 158.336 303.869 155.763 300.695 155.763C297.521 155.763 295.162 158.336 295.162 161.554C295.162 164.77 297.521 167.345 300.695 167.345Z" fill="#757575"/>
<path d="M314.376 166.744V142.766C314.376 142.294 314.762 141.864 315.277 141.864H319.008C319.523 141.864 319.909 142.294 319.909 142.766V165.671C319.909 166.658 320.424 167.302 321.453 167.302H322.697C323.126 167.302 323.555 167.516 323.555 168.116V170.819C323.555 171.72 322.869 171.891 322.44 171.891H319.695C316.006 171.891 314.376 169.875 314.376 166.744Z" fill="#757575"/>
<path d="M334.921 171.891H330.117C329.559 171.891 329.173 171.506 329.002 170.99L323.039 152.46C322.782 151.688 323.168 151.216 323.854 151.216H327.887C328.53 151.216 328.83 151.602 328.959 152.074L332.605 165.286L336.165 152.074C336.337 151.473 336.68 151.216 337.237 151.216H341.698C342.256 151.216 342.642 151.473 342.814 152.074L346.374 165.286L350.106 152.074C350.235 151.645 350.535 151.216 351.178 151.216H354.781C355.468 151.216 355.854 151.688 355.596 152.46L349.634 170.99C349.463 171.506 349.076 171.891 348.476 171.891H343.8C343.2 171.891 342.771 171.506 342.642 170.99L339.339 158.594L336.036 170.99C335.908 171.506 335.479 171.891 334.921 171.891Z" fill="#757575"/>
<path d="M367.045 150.615C373.222 150.615 378.155 155.42 378.155 161.596C378.155 167.73 373.222 172.492 367.045 172.492C360.868 172.492 355.935 167.73 355.935 161.596C355.935 155.42 360.868 150.615 367.045 150.615ZM367.045 167.345C370.219 167.345 372.578 164.77 372.578 161.554C372.578 158.336 370.219 155.763 367.045 155.763C363.871 155.763 361.512 158.336 361.512 161.554C361.512 164.77 363.871 167.345 367.045 167.345Z" fill="#757575"/>
<path d="M391.706 150.959C392.135 150.959 392.693 151.173 392.693 152.031V155.72C392.693 156.577 392.006 156.792 391.663 156.792H390.634C387.888 156.792 386.301 158.208 386.301 161.768V171.076C386.301 171.548 385.829 171.891 385.401 171.891H381.626C381.154 171.891 380.768 171.505 380.768 171.034V152.116C380.768 151.602 381.154 151.216 381.626 151.216H385.186C385.615 151.216 386.044 151.602 386.044 152.031V154.004C387.116 152.159 388.918 150.959 391.106 150.959H391.706Z" fill="#757575"/>
<path d="M411.12 168.846C411.463 169.361 411.377 169.875 410.991 170.261C409.661 171.591 407.516 172.32 405.157 172.32C401.725 172.32 398.294 170.433 398.294 165.8V155.848H395.463C394.991 155.848 394.605 155.42 394.605 154.948V152.116C394.605 151.602 394.991 151.216 395.463 151.216H398.294V145.468C398.294 144.954 398.68 144.567 399.195 144.567H402.969C403.441 144.567 403.827 144.954 403.827 145.468V151.216H409.832C410.304 151.216 410.733 151.602 410.733 152.116V154.948C410.733 155.42 410.304 155.848 409.832 155.848H403.827V164.557C403.827 166.658 405.2 167.215 406.186 167.215C406.701 167.215 407.43 167.044 408.16 166.572C408.803 166.186 409.447 166.186 409.832 166.744L411.12 168.846Z" fill="#757575"/>
<path d="M428.83 161.081C428.83 157.822 426.986 155.72 423.812 155.72C420.681 155.72 418.622 157.907 418.622 161.081V171.076C418.622 171.548 418.15 171.891 417.721 171.891H413.946C413.474 171.891 413.088 171.505 413.088 171.034V142.723C413.088 142.251 413.474 141.864 413.946 141.864H417.721C418.15 141.864 418.622 142.208 418.622 142.68V153.661C419.823 151.988 422.182 150.615 425.485 150.615C430.975 150.615 434.364 154.476 434.364 159.58V171.076C434.364 171.548 433.935 171.891 433.463 171.891H429.731C429.259 171.891 428.83 171.548 428.83 171.076V161.081Z" fill="#757575"/>
<path d="M453.878 153.232C454.479 153.747 454.393 154.39 453.921 154.948L452.548 156.577C452.033 157.178 451.39 157.178 450.618 156.707C449.288 155.763 447.53 154.948 445.728 154.948C443.841 154.948 442.64 155.806 442.64 156.792C442.64 157.779 443.369 158.422 445.256 158.766L448.645 159.409C452.291 160.095 454.95 161.854 454.95 165.586C454.95 169.575 451.175 172.492 445.728 172.492C442.125 172.492 439.465 171.29 437.835 170.047C436.248 168.846 436.334 167.859 437.192 167.173L438.779 165.885C439.594 165.243 440.194 165.586 440.709 166.015C442.082 167.215 443.798 168.159 445.985 168.159C448.216 168.159 449.288 167.173 449.288 166.1C449.288 164.9 448.13 164.47 445.985 164.041L442.683 163.355C439.337 162.669 437.106 160.567 437.106 157.221C437.106 153.489 440.538 150.615 445.857 150.615C449.803 150.615 452.548 152.074 453.878 153.232Z" fill="#757575"/>
<path d="M125.827 71.7283C125.827 67.9836 128.891 64.8346 132.721 64.8346C136.465 64.8346 139.529 67.9836 139.529 71.7283C139.529 75.473 136.465 78.6219 132.721 78.6219C128.891 78.6219 125.827 75.473 125.827 71.7283Z" fill="#FD6400"/>
<path d="M128.977 125.008C127.955 125.008 127.189 124.157 127.189 123.22V85.7717C127.189 84.7502 127.955 83.9844 128.977 83.9844H136.381C137.403 83.9844 138.168 84.7502 138.168 85.7717V123.22C138.168 124.157 137.403 125.008 136.381 125.008H128.977Z" fill="#FD6400"/>
<path d="M175.019 103.56C175.019 97.0911 171.359 92.9207 165.061 92.9207C158.848 92.9207 154.763 97.2611 154.763 103.56V123.39C154.763 124.326 153.826 125.007 152.976 125.007H145.486C144.55 125.007 143.784 124.241 143.784 123.305V85.7713C143.784 84.7497 144.55 83.984 145.486 83.984H152.976C153.826 83.984 154.763 84.7497 154.763 85.6013V88.8352C157.146 85.5163 161.827 82.7924 168.38 82.7924C179.274 82.7924 185.998 90.4525 185.998 100.581V123.39C185.998 124.326 185.147 125.007 184.211 125.007H176.806C175.87 125.007 175.019 124.326 175.019 123.39V103.56Z" fill="#FD6400"/>
<path d="M223.02 87.9846C224.212 89.0061 224.042 90.2827 223.105 91.3886L220.382 94.6232C219.361 95.8148 218.084 95.8148 216.552 94.8782C213.913 93.0059 210.425 91.3886 206.85 91.3886C203.104 91.3886 200.722 93.0909 200.722 95.0483C200.722 97.0063 202.169 98.2829 205.913 98.9637L212.637 100.24C219.871 101.602 225.148 105.092 225.148 112.496C225.148 120.411 217.658 126.199 206.85 126.199C199.7 126.199 194.423 123.816 191.19 121.348C188.041 118.964 188.211 117.007 189.913 115.646L193.062 113.092C194.679 111.815 195.87 112.496 196.892 113.347C199.615 115.731 203.019 117.603 207.36 117.603C211.786 117.603 213.913 115.646 213.913 113.517C213.913 111.134 211.616 110.284 207.36 109.432L200.807 108.07C194.168 106.709 189.742 102.538 189.742 95.8998C189.742 88.4954 196.552 82.7926 207.105 82.7926C214.935 82.7926 220.382 85.6865 223.02 87.9846Z" fill="#FD6400"/>
<path d="M238.935 106.879C238.935 112.837 241.914 116.837 248.127 116.837C254.17 116.837 257.575 112.752 257.575 107.049V85.6017C257.575 84.7502 258.425 83.9844 259.277 83.9844H266.766C267.788 83.9844 268.554 84.7502 268.554 85.7717V123.305C268.554 124.242 267.788 125.008 266.766 125.008H259.277C258.425 125.008 257.575 124.327 257.575 123.39V120.156C255.021 123.646 251.277 126.199 244.808 126.199C234.34 126.199 227.956 119.135 227.956 108.751V85.6017C227.956 84.7502 228.807 83.9844 229.743 83.9844H237.148C238.085 83.9844 238.935 84.7502 238.935 85.6017V106.879Z" fill="#FD6400"/>
<path d="M295.873 83.4735C296.724 83.4735 297.831 83.8993 297.831 85.6016V92.921C297.831 94.6234 296.469 95.0484 295.788 95.0484H293.745C288.298 95.0484 285.149 97.8573 285.149 104.922V123.39C285.149 124.327 284.213 125.007 283.362 125.007H275.872C274.936 125.007 274.17 124.242 274.17 123.305V85.7717C274.17 84.7501 274.936 83.9843 275.872 83.9843H282.936C283.788 83.9843 284.638 84.7501 284.638 85.6016V89.5164C286.766 85.8567 290.34 83.4735 294.682 83.4735H295.873Z" fill="#FD6400"/>
<path d="M317.66 82.7926C323.448 82.7926 328.129 85.4315 330.171 89.0061V85.7715C330.171 84.75 331.022 83.9842 331.874 83.9842H339.363C340.299 83.9842 341.065 84.75 341.065 85.7715V123.305C341.065 124.242 340.299 125.007 339.363 125.007H331.874C330.937 125.007 330.171 124.242 330.171 123.305V119.986C328.044 123.561 323.363 126.199 317.575 126.199C306.851 126.199 297.063 117.603 297.063 104.411C297.063 91.2185 306.851 82.7926 317.66 82.7926ZM319.192 116.071C325.49 116.071 330.171 110.879 330.171 104.496C330.171 98.1129 325.49 93.0059 319.192 93.0059C312.894 93.0059 308.128 98.1129 308.128 104.496C308.128 110.879 312.894 116.071 319.192 116.071Z" fill="#FD6400"/>
<path d="M377.917 103.56C377.917 97.0911 374.257 92.9207 367.96 92.9207C361.747 92.9207 357.661 97.2611 357.661 103.56V123.39C357.661 124.326 356.725 125.007 355.874 125.007H348.384C347.448 125.007 346.682 124.241 346.682 123.305V85.7713C346.682 84.7497 347.448 83.984 348.384 83.984H355.874C356.725 83.984 357.661 84.7497 357.661 85.6013V88.8352C360.044 85.5163 364.726 82.7924 371.279 82.7924C382.173 82.7924 388.896 90.4525 388.896 100.581V123.39C388.896 124.326 388.045 125.007 387.11 125.007H379.704C378.769 125.007 377.917 124.326 377.917 123.39V103.56Z" fill="#FD6400"/>
<path d="M413.917 82.7926C422.343 82.7926 428.981 86.878 432.386 92.4951C433.067 93.6017 432.556 94.8782 431.62 95.559L427.45 98.7937C426.002 99.9002 424.726 99.3895 423.875 98.2829C421.151 94.9633 418.513 93.0059 414.087 93.0059C407.704 93.0059 403.108 98.1129 403.108 104.496C403.108 110.879 407.704 115.986 414.087 115.986C418.513 115.986 421.151 114.028 423.875 110.709C424.726 109.603 426.002 109.092 427.45 110.199L431.62 113.432C432.556 114.113 433.067 115.39 432.386 116.496C428.981 122.113 422.343 126.199 413.917 126.199C401.576 126.199 392.044 116.751 392.044 104.496C392.044 92.2401 401.576 82.7926 413.917 82.7926Z" fill="#FD6400"/>
<path d="M475.791 103.304V105.347C475.791 106.368 475.365 107.219 473.833 107.219H444.556C445.151 113.006 449.748 116.836 455.28 116.836C457.492 116.836 459.279 116.326 460.812 115.56C462.258 114.794 463.365 113.858 464.556 112.496C465.152 111.815 465.833 111.56 466.769 112.071L472.812 115.815C473.748 116.411 473.748 117.347 473.237 118.028C471.451 120.411 468.812 122.539 465.748 123.986C462.769 125.348 459.279 126.199 455.11 126.199C442.257 126.199 433.236 116.836 433.236 104.666C433.236 92.4949 442.257 82.7924 454.854 82.7924C467.535 82.7924 475.791 92.4099 475.791 103.304ZM454.939 91.6441C450.003 91.6441 445.917 95.048 444.811 100.24H464.982C463.961 94.623 459.62 91.6441 454.939 91.6441Z" fill="#FD6400"/>
<path d="M28.1458 15.3719C13.0694 15.3719 0.835087 27.5711 0.79126 42.6475L0.791455 67.1642C0.764111 78.597 3.65342 88.9404 9.44392 97.9692C11.8939 93.5421 14.9078 89.4336 18.4774 85.7491C30.4334 73.4291 47.1187 66.6387 65.4774 66.6387C66.7504 66.6387 67.7934 67.6208 67.8903 68.882C67.9874 70.143 67.0901 71.2707 65.841 71.4525C65.5743 71.4889 40.4375 75.4299 26.0197 95.6195C23.199 99.584 20.967 103.912 19.3229 108.586C19.1568 109.058 19.2918 109.589 19.6627 109.926C19.9048 110.145 20.1491 110.363 20.3964 110.58C27.9891 117.242 36.5155 122.463 45.65 126.721L46.1246 126.941C47.2043 127.441 48.4493 127.441 49.529 126.941L50.0037 126.721C59.1381 122.463 67.6645 117.242 75.2572 110.58C87.1852 100.115 94.7918 86.8554 94.7918 71.8917L94.7917 20.7688C94.8093 17.7934 92.4021 15.372 89.4266 15.372L28.217 15.3719" fill="#FD6400"/>
<path d="M148.733 14.1759C136.185 14.1759 127.209 23.8523 127.209 35.9707C127.209 48.0889 136.185 57.4264 148.981 57.4264C153.141 57.4264 156.623 56.5672 159.585 55.2107C162.637 53.7638 165.26 51.661 167.046 49.287C167.566 48.6089 167.566 47.6592 166.616 47.0714L160.602 43.3412C159.675 42.8438 158.997 43.0922 158.409 43.7706C157.211 45.1273 156.103 46.0541 154.679 46.823C153.141 47.5913 151.355 48.0889 149.162 48.0889C143.646 48.0889 139.079 44.2679 138.468 38.5255H167.634C169.171 38.5255 169.601 37.6664 169.601 36.6491V34.614C169.601 23.7619 161.371 14.1759 148.733 14.1759ZM138.74 31.5621C139.825 26.3845 143.895 22.9932 148.823 22.9932C153.481 22.9932 157.799 25.9776 158.816 31.5621H138.74Z" fill="#FD6400"/>
<path d="M183.458 56.233C182.271 56.233 181.507 55.4705 181.169 54.4532L168.198 18C167.689 16.6428 168.452 15.3721 169.809 15.3721H178.032C179.303 15.3721 179.813 16.1345 180.151 17.0685L189.391 45.1279L197.869 17.0685C198.122 16.1345 198.716 15.3721 199.989 15.3721H208.042C209.4 15.3721 210.162 16.6428 209.738 18L196.766 54.4532C196.512 55.4705 195.665 56.233 194.563 56.233H183.458Z" fill="#FD6400"/>
<path d="M229.239 14.1759C216.714 14.1759 207.716 23.8523 207.716 35.9707C207.716 48.0889 216.714 57.4264 229.51 57.4264C233.648 57.4264 237.13 56.5672 240.091 55.2107C243.143 53.7638 245.789 51.661 247.552 49.287C248.072 48.6089 248.072 47.6592 247.145 47.0714L241.109 43.3412C240.182 42.8438 239.503 43.0922 238.916 43.7706C237.717 45.1273 236.632 46.0541 235.185 46.823C233.648 47.5913 231.884 48.0889 229.669 48.0889C224.152 48.0889 219.585 44.2679 218.997 38.5255H248.163C249.677 38.5255 250.107 37.6664 250.107 36.6491V34.614C250.107 23.7619 241.877 14.1759 229.239 14.1759ZM219.246 31.5621C220.354 26.3845 224.423 22.9932 229.329 22.9932C233.987 22.9932 238.328 25.9776 239.345 31.5621H219.246Z" fill="#FD6400"/>
<path d="M413.253 68.4515C412.489 67.6891 412.403 66.4192 413.167 65.4018L415.797 61.7549C416.813 60.4 418.253 60.5692 419.271 61.3316C420.714 62.4339 422.408 63.2822 424.442 63.2822C427.07 63.2822 429.022 61.5024 429.953 58.9586L430.931 56.2322H427.117C426.012 56.2322 425.337 55.5539 424.996 54.5382L412.62 17.9992C412.28 16.642 412.535 15.3721 414.398 15.3721H423.132C424.149 15.3721 424.741 16.2179 424.996 17.151L433.899 46.3136L442.291 17.151C442.545 16.2179 443.223 15.3721 444.494 15.3721H452.888C454.414 15.3721 454.922 16.4728 454.414 17.9992L440.718 60.6526C438.345 67.944 433.259 72.6909 425.204 72.6909C420.373 72.6909 416.05 71.0826 413.253 68.4515Z" fill="#FD6400"/>
<path d="M407.915 15.3741H400.432C399.595 15.3741 398.759 16.1428 398.759 17.1602V20.3706C396.724 16.8211 392.044 14.1759 386.279 14.1759C375.517 14.1759 365.773 22.5862 365.773 35.7218C365.773 48.8576 375.517 57.4264 386.211 57.4264C391.976 57.4264 396.634 54.781 398.759 51.2316V54.5324C398.759 55.4594 399.505 56.228 400.432 56.228H407.915C408.842 56.228 409.611 55.4594 409.611 54.5324V17.1602C409.611 16.1428 408.842 15.3741 407.915 15.3741ZM387.816 47.3203C381.531 47.3203 376.783 42.1655 376.783 35.7897C376.783 29.4368 381.531 24.3498 387.816 24.3498C394.079 24.3498 398.759 29.4368 398.759 35.7897C398.759 42.1655 394.079 47.3203 387.816 47.3203Z" fill="#FD6400"/>
<path d="M361.226 0H353.742C352.906 0 352.069 0.768739 352.047 1.76354L351.956 20.0539C351.503 19.307 350.913 18.5998 350.215 17.9456C347.746 15.6292 343.856 14.0174 339.273 14.0174C328.647 14.0174 318.925 22.541 318.925 35.6313C318.925 48.8348 328.647 57.4262 339.454 57.4262C345.242 57.4262 349.65 54.7809 352.047 51.2088V54.5322C352.047 55.4592 352.815 56.2279 353.742 56.2279H361.135C362.175 56.2279 362.921 55.4592 362.921 54.5322V39.1583V1.78618V1.76354C362.899 0.768739 362.062 0 361.226 0ZM341.059 47.2975C334.751 47.2975 330.003 42.0974 330.003 35.7216C330.003 29.3461 334.751 24.2366 341.059 24.2366C347.367 24.2366 352.047 29.3461 352.047 35.7216C352.047 42.0974 347.367 47.2975 341.059 47.2975Z" fill="#FD6400"/>
<path d="M281.909 15.3725H272.864C267.763 15.3725 263.626 19.488 263.584 24.5772V17.1526C263.584 16.1331 262.819 15.3719 261.887 15.3719H254.343C253.411 15.3719 252.646 16.1331 252.646 17.1526V54.5391C252.646 55.4706 253.408 56.2328 254.34 56.2328H261.89C262.822 56.2328 263.584 55.4706 263.584 54.5391L263.587 31.3921C263.587 31.3358 263.591 31.2788 263.599 31.223C263.973 28.6878 265.076 26.3791 266.829 24.5691C269.251 22.073 272.632 20.6984 276.351 20.6984C276.608 20.6984 276.82 20.8957 276.84 21.1522C276.858 21.4088 276.677 21.6357 276.424 21.6718C276.371 21.68 271.279 22.4775 268.358 26.5686C267.382 27.9399 266.754 29.5234 266.472 31.3074H273.173C278.299 31.3074 282.455 27.1517 282.455 22.0254V15.9185C282.455 15.6169 282.211 15.3725 281.909 15.3725Z" fill="#FD6400"/>
<path d="M318.403 15.3721H310.014C308.74 15.3721 308.062 16.2178 307.808 17.151L299.414 46.3134L290.513 17.151C290.258 16.2178 289.667 15.3721 288.649 15.3721H285.888V22.0255C285.888 25.3814 284.571 28.4292 282.439 30.7038L290.513 54.5381C290.853 55.5538 291.532 56.2321 292.634 56.2321H296.448L295.469 58.9586C294.537 61.5023 292.587 63.2821 289.96 63.2821C287.923 63.2821 286.229 62.4338 284.786 61.3315C283.772 60.5692 282.33 60.4 281.312 61.7548L278.683 65.4018C277.919 66.4191 278.006 67.689 278.769 68.4514C281.566 71.0824 285.889 72.6909 290.721 72.6909C298.777 72.6909 303.863 67.944 306.236 60.6525L319.93 17.9992C320.438 16.4726 319.93 15.3721 318.403 15.3721Z" fill="#FD6400"/>
</g>
</svg>
