<svg version="1.1" viewBox="0 0 512 512" xmlns="http://www.w3.org/2000/svg">
<path d="m454 15c0-8-7-15-15-15h-263q-6 0.2-11 4l-156 158a15 15 0 0 0-4 10v325a15 15 0 0 0 15 15h419c8 0 15-7 15-15z" fill="#fff"/>
<path d="m20 177v-5l156-157v162zm176 42h296v164h-296z" fill="#cff09e"/>
<path d="m439 512h-419c-8-0.05-15-7-15-15v-240c-2e-4 -8 7-15 15-15 8 0.06 15 7 15 15v225h389v-33c0.05-8 7-15 15-15 8 0.1 15 7 15 15v48c-0.05 8-7 15-15 15m54-307h-39v-190c-0.05-8-7-15-15-15h-264c-5 0.7-6 2-10 4l-156 158c-3 3-4 7-4 10v5c0.1 8 7 15 15 15h156c8-0.1 15-7 15-15v-147h233v175h-228c-8-7e-4 -15 7-15 15v164c0.06 8 7 15 15 15h296c8-0.06 15-7 15-15v-164c-0.1-8-7-15-15-15m-442-42 110-111v111zm427 206h-266v-134h266zm-222-54-16 27c-0.69 1.2-2 2-4 2-5 0-12-4-12-8 0-1 0.33-2 1-3l19-29-18-29c-0.64-1-1-2-1-3 0-5 6-8 11-8 2 0 3.9 1.1 5 3l15 26 15-26c1.1-1.9 3-3 5-3 5 0 11 4 11 8 0 1-0.36 2-1 3l-18 29 19 29c0.59 0.9 0.9 2 1 3 0 5-7 8-11 8-2 0-3.2-0.73-4-2zm46 28c-4 0-8-2-8-5v-70c0-4 4-5 9-5s9 2 9 5v60h25c3 0 5 4 5 8s-2 8-5 8zm80-22c0-13-35-11-35-37 0-16 14-23 28-23 6 0 22 1 22 10 0 3-2 9-7 9-4 0-6-4-15-4-8 0-11 3-11 7 0 11 35 9 35 37 0 16-12 24-28 24-14 0-26-7-26-14 0-4 3-9 8-9s8 8 19 8c5 0 10-3 10-8m53-6-16 27c-0.9 1-2 2-4 2-5 0-12-4-12-8 0-1 0.3-2 1-3l19-29-18-29c-0.7-1-1-2-1-3 0-5 6-8 11-8 2 0 4 1 5 3l15 26 14-26c1-2 3-3 5-3 5 0 11 4 11 8 0 1-0.3 2-1 3l-18 29 19 29c0.6 0.9 0.9 2 1 3 0 5-7 8-11 8-2 0-3-0.5-4-2z" fill="#507c5c"/>
</svg>
