<svg xmlns="http://www.w3.org/2000/svg" viewBox="0 0 360 360">
<style type="text/css">
.st0{fill-rule:evenodd;clip-rule:evenodd;fill:url(#a);}
.st1{fill-rule:evenodd;clip-rule:evenodd;fill:#fff;}
</style>
<linearGradient id="a" gradientUnits="userSpaceOnUse" x1="180" y1="358.6" x2="180" y2="7.75">
<stop  offset="0" style="stop-color:#0064e0"/>
<stop  offset="1" style="stop-color:#0082fb"/>
</linearGradient>
<path id="bg" class="st0" clip-path="url(#myClip)" d="m360 112.61c0-4.3 0-8.6-0.02-12.9c-0.02-3.62-0.06-7.24-0.16-10.86c-0.21-7.89-0.68-15.84-2.08-23.64c-1.42-7.92-3.75-15.29-7.41-22.49c-3.6-7.07-8.3-13.53-13.91-19.14c-5.61-5.61-12.08-10.31-19.15-13.91c-7.19-3.66-14.56-5.98-22.47-7.41c-7.8-1.4-15.76-1.87-23.65-2.08c-3.62-0.1-7.24-0.14-10.86-0.16C255.99 0 251.69 0 247.39 0H112.61c-4.3 0-8.6 0-12.9 0.02c-3.62 0.02-7.24 0.06-10.86 0.16C80.96 0.4 73 0.86 65.2 2.27c-7.92 1.42-15.28 3.75-22.47 7.41c-7.07 3.6-13.54 8.3-19.15 13.91c-5.61 5.61-10.31 12.07-13.91 19.14c-3.66 7.2-5.99 14.57-7.41 22.49c-1.4 7.8-1.87 15.76-2.08 23.64c-0.1 3.62-0.14 7.24-0.16 10.86C0 104.01 0 108.31 0 112.61v134.77c0 4.3 0 8.6 0.02 12.9c0.02 3.62 0.06 7.24 0.16 10.86c0.21 7.89 0.68 15.84 2.08 23.64c1.42 7.92 3.75 15.29 7.41 22.49c3.6 7.07 8.3 13.53 13.91 19.14c5.61 5.61 12.08 10.31 19.15 13.91c7.19 3.66 14.56 5.98 22.47 7.41c7.8 1.4 15.76 1.87 23.65 2.08c3.62 0.1 7.24 0.14 10.86 0.16c4.3 0.03 8.6 0.02 12.9 0.02h134.77c4.3 0 8.6 0 12.9-0.02c3.62-0.02 7.24-0.06 10.86-0.16c7.89-0.21 15.85-0.68 23.65-2.08c7.92-1.42 15.28-3.75 22.47-7.41c7.07-3.6 13.54-8.3 19.15-13.91c5.61-5.61 10.31-12.07 13.91-19.14c3.66-7.2 5.99-14.57 7.41-22.49c1.4-7.8 1.87-15.76 2.08-23.64c0.1-3.62 0.14-7.24 0.16-10.86c0.03-4.3 0.02-8.6 0.02-12.9V112.61z"/>
<path class="st1" clip-path="url(#bg)" d="m192.23 360v-139.55h-47.038v-54.251h47.038v-41.394c0-43.392 26.901-70.362 69.274-70.362 25.508 0 42.677 1.9999 42.677 1.9999v48.92h-28.738c-18.211 0-26.767 6.4053-26.767 25.714v35.122h53.624l-6.899 54.251h-46.725v139.55z"/>
</svg>
