<?xml version="1.0" encoding="UTF-8" standalone="no"?> <svg xmlns="http://www.w3.org/2000/svg" version="1.1" viewBox="0 0 48 39"><defs><style>.a{fill:none;stroke:#000;stroke-width:2px;stroke-miterlimit:10;stroke-linejoin:round}</style></defs><path d="M27 17a4 4 0 1 0 4-4 4 4 0 0 0-4 4z" class="a"/><path d="m37 27 3.7 3 3.3-3.3-2.8-3.3a12.2 12.2 0 0 0 1.5-3.7l4.3-.4v-4.6l-4.3-.4a12.2 12.2 0 0 0-1.5-3.7L44 7.3 40.7 4l-3.3 2.9a11.7 11.7 0 0 0-3.7-1.6L33.3 1h-4.6l-.4 4.3A11.8 11.8 0 0 0 24.6 7L21.3 4 18 7.3l2.8 3.3a11.9 11.9 0 0 0-1.5 3.7l-2 .2M14 19a4 4 0 0 1-8 0v-2a4 4 0 0 1 8 0zM1.1 37.9s.5-5 1-8 2-4 4-4H8l7 8.1h6s.5 4-3 4h-6l-5-6" class="a"/><path d="m17 30 3-5h14l-6 10h-3.5M7 38h29" class="a"/></svg>