<svg xmlns="http://www.w3.org/2000/svg" viewBox="0 0 163 45">
<path d="M55.9,14c-0.3,0.3-0.5,0.7-0.5,1.1v16.2h3.3v-7.2h23.5v-3.3H58.7v-4h23.5v-3.3H57C56.6,13.5,56.2,13.7,55.9,14z"/>
<rect x="86.7" y="13.6" width="3.3" height="17.7"/>
<path d="M113.1,27.7L97.9,14.6l-1.2-1.1l-2.2,2.4L112,31.1c0.3,0.3,0.7,0.4,1.1,0.4s0.8-0.1,1.1-0.4L130.5,17l1.2-1.1l-2.2-2.4L113.1,27.7z"/>
<path class="st0" d="M139.5,16.9v3.9c0,0,0,0,0,0.1h23.4h0.1V24c0,0,0,0.1-0.1,0.1h-23.4v0.1v3.9c0,0,0,0,0,0.1h23.4h0.1v3.2c0,0,0,0.1-0.1,0.1h-25.1l0,0c-0.9,0-1.6-0.7-1.6-1.6V15.2c0-0.4,0.2-0.8,0.5-1.1s0.7-0.5,1.2-0.5H163c0,0,0.1,0,0.1,0.1v3.2H139.5z"/>
<polygon fill="#4588D8" points="7.2,1.7 8.4,10.2 29,10.2 "/>
<polygon fill="#E33634" points="28.2,3.7 34.6,23.3 35.9,0 "/>
<polygon fill="#F8B92B" points="40.5,20.6 23.8,32.7 46.4,26.7 "/>
<polygon fill="#47A95A" points="11.6,25.4 24.2,45 28.2,37.5 "/>
<polygon fill="#FF7F27" points="0,29.5 8.4,31.1 14.7,11.4 "/>
</svg>
