<svg xmlns="http://www.w3.org/2000/svg" viewBox="0 0 96 96">
<rect width="96" height="96" x="0" y="0" rx="16" ry="16" fill="#ddd" />
<path fill="#007CC2" d="m40.33 33l-4 0.9v13.2c0 3.98 3.02 7.2 6.75 7.2c3.74 0 6.77-3.22 6.77-7.2c0-3.97-3.03-7.2-6.77-7.2c-0.97 0-1.9 0.23-2.73 0.62v-7.52h-0.02zm-0.15 14.12c0-1.85 1.17-3.34 2.9-3.34s2.9 1.5 2.9 3.34c0 1.84-1.17 3.33-2.9 3.33s-2.9-1.5-2.9-3.33zm-20.32-14.12l-3.86 0.9v20.27h3.88v-21.17h-0.02zm-8.13 0c-5.35 0-7.73 3.15-7.73 7.05v14.12h3.87v-10.57h4.88v-3.54h-4.88v-0.01h-0.02c0.01-1.95 1.3-3.53 3.88-3.53h3.07v-3.52h-3.07zm68.85 11.3c0.02 1.73 1.3 2.91 3.9 3.6l0.2 0.07c2.6 0.77 3.68 1.1 3.68 2.09c0 0.29-0.11 0.56-0.34 0.8a2.3 2.3 0 0 1-1.61 0.58c-0.2 0-1.97-0.04-2.12-1.57l-0.01-0.14l-3.86 0.9c0.64 2.54 3.35 3.68 5.93 3.68a6.8 6.8 0 0 0 4.83-1.73c0.79-0.8 1.2-1.8 1.17-2.9c-0.03-2.97-2.82-3.62-5.28-4.2c-1.7-0.42-2.47-0.9-2.5-1.52c0-0.56 0.53-1.17 1.67-1.17c1.38 0 1.62 0.73 1.72 1.28l0.03 0.14l3.78-0.88c-0.63-2.5-3.18-3.41-5.5-3.41c-3.3 0-5.7 1.84-5.7 4.39zm-5.6-3.34v6.64c0 1.83-0.85 2.85-2.56 2.85c-1.7 0-2.56-1.02-2.56-2.85v-7.54l-3.88 0.9v6.64c0 3.96 2.59 6.71 6.44 6.71c0.94 0 1.8-0.24 2.57-0.54v2.44c0 2.3-1.31 2.93-2.45 2.93h-0.95v3.86h1.03c3.86-0.04 6.25-2.63 6.25-6.8v-16.13l-3.88 0.9zm-14.73 0v6.64c0 1.83-0.87 2.85-2.57 2.85c-1.7 0-2.56-1.02-2.56-2.85v-7.54l-3.88 0.9v6.64c0 3.96 2.59 6.71 6.44 6.71c3.86 0 6.45-2.75 6.45-6.7v-7.55l-3.88 0.9zm-29.6 0v6.64c0 1.83-0.87 2.85-2.57 2.85c-1.7 0-2.57-1.02-2.57-2.85v-7.54l-3.88 0.9v6.64c0 3.96 2.6 6.71 6.45 6.71c0.93 0 1.8-0.24 2.56-0.54v2.44c0 2.3-1.3 2.93-2.45 2.93h-0.95v3.86h1.03c3.86-0.04 6.25-2.63 6.25-6.8v-16.13l-3.88 0.9z"/>
</svg>