<svg xmlns="http://www.w3.org/2000/svg" viewBox="0 0 64 64">
  <path d="M47 32.01c0-13.35-16.14-20.03-25.58-10.6C11.98 30.87 18.66 47 32.02 47A15 15 0 0 0 47 32.01zm-2 0c0 1.45-.25 2.89-.73 4.25-1.33.25-2.77.45-4.3.6.26-1.4.4-2.84.43-4.28 1.64-.17 3.18-.4 4.6-.66v.1zm-1.45-5.94c.62 1.2 1.05 2.5 1.27 3.84-1.37.27-2.86.5-4.45.67a26 26 0 0 0-.53-4.03c1.3-.13 2.53-.29 3.7-.48zm-5.01-5.27c1.73 0 2.8 2.04 3.85 3.43-.98.14-2 .26-3.05.36a21.3 21.3 0 0 0-1.39-3.47c.2-.1.37-.32.59-.32zm-.16 9.97a83.4 83.4 0 0 1-5.37.23v-4.1a82.7 82.7 0 0 0 4.82-.18c.3 1.33.48 2.68.55 4.05zm-5.37-5.86v-2.62a15 15 0 0 0 3.05-.47c.5.94.91 1.92 1.24 2.93-1.39.09-2.82.14-4.29.16zm-1-5.88c1.4 0 2.8.23 4.13.68a14.3 14.3 0 0 1-8.25 0c1.33-.45 2.72-.68 4.12-.68zm-4.38 2.69c1.1.32 2.24.51 3.39.57v2.62c-1.6-.02-3.17-.08-4.68-.19a18.7 18.7 0 0 1 1.29-3zm3.39 5.19V31a79.38 79.38 0 0 1-5.77-.28c.07-1.36.26-2.71.56-4.04 1.67.13 3.42.2 5.2.22zm0 6.1v4.24a80.1 80.1 0 0 1-5.28-.23 23.7 23.7 0 0 1-.5-4.28c1.85.15 3.79.24 5.78.26zm-5.53-12.2.28.14a21.11 21.11 0 0 0-1.46 3.6c-.92-.08-1.81-.2-2.67-.32a13.07 13.07 0 0 1 3.85-3.43zm-5.01 5.26c1.07 0 2.17.32 3.33.44a25.95 25.95 0 0 0-.55 4.03 51.7 51.7 0 0 1-4.05-.63c.22-1.34.65-2.63 1.27-3.84zm-1.45 5.94v-.1c1.3.26 2.71.47 4.2.63.03 1.44.17 2.87.42 4.29a54 54 0 0 1-3.9-.57 12.9 12.9 0 0 1-.72-4.25zm6.46 11.22a13.07 13.07 0 0 1-4.74-4.77c1.08.16 2.21.3 3.39.42.4 1.45.94 2.86 1.63 4.2l-.28.15zm.77-4.17c1.55 0 3.14.17 4.76.19v2.5c-1.15.05-2.29.24-3.4.56a18.86 18.86 0 0 1-1.36-3.25zM32.01 45c-1.4 0-2.8-.23-4.12-.68a14.3 14.3 0 0 1 8.25 0c-1.33.45-2.72.68-4.13.68zm4.05-2.8c-1-.25-2.02-.4-3.05-.46v-2.5c1.48 0 2.94-.06 4.35-.15a18.9 18.9 0 0 1-1.3 3.12zm-3.05-4.95V33c1.85-.02 3.66-.1 5.39-.23a24.13 24.13 0 0 1-.51 4.28c-1.58.11-3.21.18-4.88.2zm5.53 5.98a7.27 7.27 0 0 0-.59-.32 21.52 21.52 0 0 0 1.54-3.99c1.32-.12 2.59-.28 3.79-.46a13.07 13.07 0 0 1-4.74 4.77zM18 54h1a1 1 0 0 0 .9-1.45l-3-6A1 1 0 0 0 16 46h-6v-3H8v3H6a1 1 0 0 0-.9.55l-3 6A1 1 0 0 0 3 54h1v7a1 1 0 0 0 1 1h12a1 1 0 0 0 1-1zm-6 6h-2v-2h2zm4 0h-2v-3a1 1 0 0 0-1-1H9a1 1 0 0 0-1 1v3H6v-6h10zm1-8H4.62l2-4h8.76l2 4z"/>
  <path d="M59 42v-1a4 4 0 0 0-3-3.86V33h-2v4.14A4 4 0 0 0 51 41v1h-2a1 1 0 0 0-1 1v7c-3.67-.02-7.33.02-11 0a1 1 0 0 0-1 1v10a1 1 0 0 0 1 1h24a1 1 0 0 0 1-1V43c0-.28-.07-.53-.29-.71A1.1 1.1 0 0 0 61 42zM48 60H38v-8h10zm5-19c0-2.67 4-2.67 4 0v1h-4zm3 19h-2v-3c0-1.33 2-1.33 2 0zm4 0h-2v-3c0-4-6-4-6 0v3h-2V44h10z"/>
  <rect width="2" height="2" x="52" y="46"/>
  <rect width="2" height="2" x="56" y="46"/>
  <rect width="2" height="2" x="52" y="50"/>
  <rect width="2" height="2" x="56" y="50"/>
  <rect width="2" height="4" x="40" y="54"/>
  <rect width="2" height="4" x="44" y="54"/>
  <path d="M26 59h.4a2.6 2.6 0 0 0 2.2-1.18 2.5 2.5 0 0 0 .21-2.31l-2.46-6.54a1.42 1.42 0 0 0-2.69 0l-2.47 6.54a2.5 2.5 0 0 0 .22 2.31A2.6 2.6 0 0 0 23.6 59h.4v3h2zm-2.4-2a.6.6 0 0 1-.52-.27.5.5 0 0 1-.03-.48l.04-.13 1.91-4.6 1.9 4.6.05.13a.5.5 0 0 1-.03.48.6.6 0 0 1-.52.27z"/>
  <rect width="5" height="2" x="29" y="60"/>
  <path d="M46.5 2a1 1 0 0 0-.7.3l-2.5 2.5a1 1 0 0 0-.3.7 1 1 0 0 0 .3.7l4.5 4.5a1 1 0 0 0 .7.3 1 1 0 0 0 .7-.3l2.5-2.5a1 1 0 0 0 .3-.7 1 1 0 0 0-.3-.7 1 1 0 0 0-.03-.04l-4.43-4.43a1 1 0 0 0-.03-.04A1 1 0 0 0 46.5 2zm0 1.5L48 5l-2 2-1.5-1.5zM49 6l1.5 1.5-2 2L47 8zm7.5 6a1 1 0 0 0-.7.3l-2.5 2.5a1 1 0 0 0-.3.7 1 1 0 0 0 .3.7l4.5 4.5a1 1 0 0 0 .7.3 1 1 0 0 0 .7-.3l2.5-2.5a1 1 0 0 0 .3-.7 1 1 0 0 0-.3-.7 1 1 0 0 0-.03-.04l-4.43-4.43a1 1 0 0 0-.03-.04 1 1 0 0 0-.71-.29zm0 1.5L58 15l-2 2-1.5-1.5zM59 16l1.5 1.5-2 2L57 18z"/>
  <path d="m48.03 10.74-.28.01c-1.55.1-2.93.7-3.89 1.61a1.12 1.12 0 0 0 0 1.59l3.1 3.1 3.09 3.09c.2.2.48.33.8.33.3 0 .61-.1.79-.33a6.73 6.73 0 0 0 1.61-3.89 5.44 5.44 0 0 0-1.61-3.89 5.2 5.2 0 0 0-3.6-1.62zM47.75 12A4.22 4.22 0 0 1 52 16.25c0 1.12-.45 2.2-1.25 3l-3-3-3-3c.8-.8 1.88-1.25 3-1.25z"/>
  <path d="m51.58 6.31-5.83 5.89 2.3-.3 4.54-4.5c.08-.08.25-.17.44-.24a2.26 2.26 0 0 1 1.81.2 3.8 3.8 0 0 1 2.03 2.56c.05.3.05.6-.02.87-.06.24-.16.47-.32.64l-4.48 4.47-.2 2.3 5.82-5.82c.17-.17.41-.59.55-1.04.15-.45.2-.93.14-1.43-.05-.5-.2-1.01-.44-1.5a5.14 5.14 0 0 0-2.47-2.42 4.26 4.26 0 0 0-1.7-.39c-.57 0-.88.06-1.25.2a3 3 0 0 0-.92.51zm-3.83 9.06-2.2 2.2a.58.58 0 0 0-.13.38.6.6 0 0 0 .6.6c.17 0 .32-.07.38-.14l2.21-2.2a.58.58 0 0 0 .13-.39.6.6 0 0 0-.6-.6.57.57 0 0 0-.39.15z"/>
</svg>