<?xml version="1.0" encoding="UTF-8" standalone="no"?> <svg xmlns="http://www.w3.org/2000/svg" version="1.1" viewBox="0 0 752 288"><path fill="#fff" d="M 42,0 C 18.804041,0 0,18.804041 0,42 v 204 c 0,23.19596 18.804041,42 42,42 h 668 c 23.19596,0 42,-18.80404 42,-42 V 42 C 752,18.804041 733.19596,0 710,0 z"/><path d="m 403.02931,31.630859 c -12.37416,-0.09177 -24.24792,4.872802 -32.87305,13.746094 -8.94041,8.417927 -13.9443,20.19769 -13.79687,32.476562 -0.15361,12.280087 4.85132,24.060265 13.79687,32.474605 8.66711,8.78181 20.53553,13.65524 32.87305,13.49805 12.038,0.41394 23.68355,-4.31288 32.02734,-13 7.49822,-7.89422 11.43966,-18.511995 10.9082,-29.386717 0.0842,-2.600081 -0.0825,-5.201492 -0.49806,-7.769533 h -42.28711 v 12.75 h 29.88476 c -0.51986,5.77075 -2.91718,11.211582 -6.82422,15.49024 -13.12299,12.47705 -33.79495,12.23513 -46.62109,-0.54688 -6.2209,-6.17364 -9.68714,-14.597315 -9.61328,-23.361327 -0.1552,-8.867266 3.31731,-17.412136 9.61328,-23.658203 6.06147,-6.456226 14.55508,-10.071648 23.41016,-9.962891 8.44276,-0.1258 16.59238,3.09902 22.66406,8.966797 l 8.86523,-9.015625 C 426.17257,36.048692 414.81551,31.473775 403.02931,31.630859 Z m 242.97071,3.335938 V 122.0332 h 13 V 34.966797 Z m -37.40626,29.488284 c -7.56958,-0.01594 -14.79831,3.146536 -19.92383,8.716795 -5.58074,5.55584 -8.65653,13.145986 -8.51757,21.01953 -0.13294,7.828484 2.94509,15.369114 8.51757,20.869144 5.13793,5.54675 12.36312,8.68892 19.92383,8.66601 5.96558,0.33794 11.74145,-2.15186 15.58984,-6.72265 h 0.44921 v 4.2832 c 0.34844,4.68899 -1.1339,9.32943 -4.13477,12.94922 -3.03296,3.11026 -7.26922,4.74815 -11.60547,4.48437 -3.37939,0.0965 -6.68239,-1.01691 -9.31445,-3.13867 -2.45906,-1.97226 -4.39299,-4.522 -5.6289,-7.42187 l -11.35743,4.73242 c 2.1053,4.85241 5.4361,9.07547 9.66406,12.2539 4.76181,3.60604 10.61583,5.46916 16.58594,5.2793 7.52238,0.26721 14.83447,-2.51733 20.27344,-7.7207 5.71236,-6.30303 8.5771,-14.68111 7.91992,-23.16211 V 66.496096 h -12.3535 v 4.732421 h -0.44726 c -1.78488,-2.033504 -3.99697,-3.649581 -6.47657,-4.732421 -2.86631,-1.350241 -5.99564,-2.046494 -9.16406,-2.041015 z m -63.48242,0.08985 c -7.59923,0 -15.19794,2.825032 -21.09375,8.476565 -5.70598,5.541017 -8.83121,13.219116 -8.61719,21.16992 -0.22019,7.951914 2.90602,15.630454 8.61719,21.167964 11.79162,11.30306 30.39588,11.30306 42.1875,0 5.71117,-5.53751 8.83733,-13.21605 8.61719,-21.167964 0.21402,-7.950804 -2.91121,-15.628903 -8.61719,-21.16992 -5.89581,-5.651533 -13.49453,-8.476565 -21.09375,-8.476565 z m 148.20701,0.01 c -7.51613,-0.156094 -14.74995,2.864159 -19.92379,8.318359 -5.48617,5.710574 -8.41702,13.405089 -8.11918,21.318358 -0.20421,7.895392 2.83861,15.529062 8.41797,21.119142 5.50032,5.63324 13.10017,8.71794 20.97072,8.51563 5.2992,0.10165 10.51143,-1.35264 14.99221,-4.1836 3.76775,-2.34426 7.02215,-5.4273 9.56442,-9.06445 l -9.96287,-6.72461 c -3.08187,5.1144 -8.62258,8.23518 -14.59376,8.21875 -6.17589,0.26631 -11.87882,-3.29874 -14.34568,-8.9668 l 39.84763,-16.386719 -1.34372,-3.386718 c -0.79915,-2.028419 -1.78357,-3.979603 -2.93947,-5.828127 -1.4291,-2.189373 -3.09945,-4.211466 -4.98049,-6.027341 -2.19068,-2.142023 -4.77992,-3.833721 -7.62107,-4.980467 -3.15414,-1.317687 -6.54481,-1.977268 -9.96292,-1.941407 z m -213.05858,0.008 c -7.59666,0 -15.19281,2.82021 -21.09374,8.458988 -5.70598,5.541017 -8.83121,13.219116 -8.61719,21.16992 -0.22014,7.951911 2.90602,15.630451 8.61719,21.167971 11.79161,11.30306 30.39587,11.30306 42.1875,0 h -0.0488 c 5.72947,-5.52889 8.87321,-13.20854 8.66601,-21.167971 0.21402,-7.950804 -2.9112,-15.628903 -8.61718,-21.16992 -5.90094,-5.638778 -13.49709,-8.458988 -21.09376,-8.458988 z m 213.30861,11.44727 c 2.38881,-0.03287 4.74396,0.569396 6.82422,1.744139 1.85783,0.991102 3.31635,2.590309 4.13278,4.531248 l -26.49803,11.009766 c -0.34117,-4.695002 1.43099,-9.29813 4.83201,-12.552732 2.80699,-2.926443 6.65538,-4.627434 10.70902,-4.732421 z M 480.209,76.242578 c 4.30212,0 8.60459,1.68217 11.83007,5.046874 3.33291,3.452029 5.12879,8.106224 4.98047,12.902343 0.14045,4.779996 -1.65526,9.412885 -4.98047,12.849605 -6.37692,6.81006 -17.18362,6.81006 -23.56054,0 h -0.0488 c -3.34341,-3.42854 -5.15841,-8.062427 -5.03125,-12.849605 -0.14828,-4.796124 1.64756,-9.450319 4.98046,-12.902343 3.22548,-3.364704 7.52796,-5.046874 11.83009,-5.046874 z m 64.85156,0 c 4.30212,0 8.6046,1.68217 11.83007,5.046874 3.33291,3.452024 5.12875,8.106219 4.98047,12.902343 0.14046,4.780001 -1.65525,9.412885 -4.98047,12.849605 -6.37692,6.81006 -17.18167,6.81006 -23.55859,0 h -0.0507 c -3.34342,-3.42854 -5.15846,-8.062427 -5.03125,-12.849605 -0.14833,-4.796119 1.64951,-9.450314 4.98242,-12.902343 3.22547,-3.364704 7.526,-5.046874 11.82812,-5.046874 z m 64.67773,0.216807 c 4.30737,-0.101655 8.43616,1.724391 11.25781,4.980467 3.09791,3.605801 4.71769,8.249761 4.53321,12.999998 0.16077,4.671404 -1.45998,9.23015 -4.53321,12.75195 -2.8259,3.25034 -6.95183,5.07511 -11.25781,4.98047 -4.43445,0.0589 -8.67905,-1.79135 -11.65429,-5.08007 -3.2907,-3.41842 -5.08278,-8.008145 -4.98048,-12.751957 -0.10379,-4.788434 1.68567,-9.424166 4.98048,-12.900391 2.9894,-3.257271 7.23409,-5.071214 11.65429,-4.980467 z M 405.16407,165.72656 c -0.37693,0.001 -0.75483,0.007 -1.13281,0.0194 -24.87574,-0.42939 -45.11252,19.92806 -44.53516,44.80078 -0.57736,24.87271 19.65942,45.22824 44.53516,44.79882 6.74698,0.0999 13.43033,-1.3161 19.55664,-4.14453 5.6835,-2.59014 10.71392,-6.4216 14.7207,-11.21289 l -7.65234,-7.6543 c -6.5027,7.97344 -16.28406,12.55086 -26.57226,12.43555 -8.84223,0.19923 -17.38285,-3.21666 -23.64844,-9.45898 -6.51737,-6.55367 -10.00387,-15.52904 -9.61915,-24.76367 -0.385,-9.23463 3.10178,-18.21196 9.61915,-24.76563 6.26559,-6.24232 14.80621,-9.6582 23.64844,-9.45898 9.21983,-0.37624 18.066,3.67163 23.80859,10.89453 l 7.65234,-7.43946 c -7.56865,-8.95234 -18.69633,-14.08279 -30.38086,-14.05078 z m 42.70899,1.88086 v 85.82617 h 11.00195 v -85.82617 z m 199.12697,0 v 27.15625 l 0.47864,8.13086 h -0.47864 c -1.96805,-3.06106 -4.71995,-5.53998 -7.97071,-7.17578 -3.69933,-1.94887 -7.82901,-2.93514 -12.00978,-2.86914 -7.55215,-0.0249 -14.73807,3.25592 -19.66406,8.98047 -5.50963,6.08525 -8.45952,14.06168 -8.23633,22.26757 -0.22293,8.2059 2.7267,16.18234 8.23633,22.26758 4.92599,5.72455 12.11191,9.00545 19.66406,8.98047 4.14489,0.0483 8.2347,-0.93755 11.90235,-2.86914 3.25071,-1.63581 6.0046,-4.11278 7.97265,-7.17383 h 0.47864 v 8.13086 h 10.62887 v -85.82617 z m -148.48049,25.23242 c -7.84143,0 -15.68412,2.97927 -21.68359,8.9375 -5.69323,6.01102 -8.75278,14.04493 -8.50196,22.32031 -0.25082,8.27539 2.80873,16.3093 8.50196,22.32032 11.99893,11.91646 31.3663,11.91646 43.36523,0 5.69328,-6.01099 8.75473,-14.0449 8.50391,-22.32032 0.25077,-8.27541 -2.81063,-16.30931 -8.50391,-22.32031 -5.99947,-5.95823 -13.84021,-8.9375 -21.68164,-8.9375 z m 39.16602,1.92383 v 36.13672 c -0.36219,6.48098 1.65979,12.87098 5.68554,17.96289 4.24958,4.66073 10.39497,7.1258 16.68751,6.69532 3.82568,0.004 7.58456,-1.00549 10.89453,-2.92383 3.18975,-1.71483 5.86614,-4.24387 7.75781,-7.33204 h 0.3203 v 8.13086 h 10.62696 v -58.66992 h -11 v 32.52344 c 0.0668,4.6025 -1.45337,9.08764 -4.30468,12.70117 -2.64275,3.4707 -6.79995,5.45044 -11.16016,5.31445 -9.672,0 -14.50781,-5.47443 -14.50781,-16.42187 v -34.11719 z m 91.08593,7.9961 c 4.86139,0 9.72415,1.95722 13.2871,5.87304 3.73697,4.25499 5.6466,9.81159 5.31449,15.46484 0.33221,5.65326 -1.57752,11.20986 -5.31449,15.46485 -3.38355,3.72246 -8.20248,5.81351 -13.23241,5.74023 -5.08339,0.077 -9.95107,-2.05775 -13.33984,-5.84765 -3.74911,-4.22678 -5.66146,-9.7709 -5.31446,-15.41016 -0.34705,-5.63925 1.56535,-11.18534 5.31446,-15.41211 3.56296,-3.91582 8.42377,-5.87304 13.28515,-5.87304 z m -130.27929,0.12695 c 4.90669,0 9.81425,1.93255 13.47266,5.79883 3.88397,4.16765 5.93157,9.72055 5.68554,15.4121 0.24629,5.69157 -1.80157,11.24446 -5.68554,15.41212 -7.3168,7.73255 -19.62656,7.73255 -26.94336,0 l 0.0527,-0.0547 c -3.88993,-4.14598 -5.9581,-9.67648 -5.74023,-15.35743 -0.24629,-5.69154 1.80358,-11.24444 5.6875,-15.4121 3.6584,-3.86628 8.56401,-5.79883 13.4707,-5.79883 z" fill="#333"/><path d="M 244.13919,58.257667 C 183.37577,4.62566 87.774759,33.719766 66.55407,111.93916 l 3.503219,-0.17029 54.785111,-10.72378 2.0468,-1.182209 c 21.64841,-23.775534 58.39191,-27.453576 83.38693,-7.225439 z" fill="#ea4335"/><path d="M 277.07982,111.44689 C 271.48662,90.849811 260.00283,72.333279 244.03734,58.16902 l -34.15245,34.152481 c 14.42143,11.783669 22.63606,29.534869 22.28447,48.154999 v 6.06206 c 40.52755,0 40.52755,60.79142 0,60.79142 h -60.79135 v 48.66728 h 60.79135 c 78.2681,0.60937 109.74378,-100.69934 44.91046,-144.55037 z" fill="#4285f4"/><path d="M 110.59063,98.129078 A 79.062906,79.062993 0 0 0 62.862586,239.86187 l 35.262398,-35.26243 a 30.395674,30.395708 0 1 1 40.214506,-40.21455 l 35.26239,-35.26244 A 78.977525,78.977612 0 0 0 110.59063,98.129078 Z" fill="#fbbc05"/><path d="m 110.59063,255.99892 h 60.79134 v -48.66729 h -60.79134 c -4.33111,-9.5e-4 -8.62125,-0.97201 -12.560849,-2.77148 l -35.206483,35.32214 c 13.741508,10.37643 30.548337,16.19136 47.767332,16.11663 z" fill="#34a853"/></svg>