<?xml version="1.0" encoding="UTF-8"?>
<svg xmlns="http://www.w3.org/2000/svg" viewBox="0 0 256 286">
  <path d="m157.88 2c-2.5 0.04-4.5 2.01-5.28 4.35l-20.16 59.89l-65.55 1.54c-3 0.07-5.3 3.3-4.83 6.26c0.27 1.76 1.54 3.08 2.88 4.16l51.24 41.3l-19.5 58.8c-0.86 2.58 0.97 5.56 3.56 6.4c2.05 0.67 4.2-0.12 5.9-1.38l51.86-38.4l53.08 39.21c2.53 1.88 6.55 0.54 7.82-2.34c0.75-1.7 0.33-3.55-0.18-5.24l-17.23-57.12l50.8-42.4a5.28 5.28 0 0 0 0.4-7.38c-1.3-1.4-3.23-1.87-5.1-1.9l-63.34-1.13l-21.23-61.35c-0.71-2.05-2.97-3.3-5.14-3.27zm17.28 71.82c0.81 2.34 3.24 3.66 5.7 3.7l52.87 0.95l-42.38 35.33c-1.72 1.43-1.8 4-1.16 6.12l13.8 45.45l-43.08-31.88c-1.96-1.46-4.74-0.76-6.66 0.66l-41.5 30.74l15.25-46.09c0.76-2.28-0.74-4.62-2.57-6.1l-42.88-34.35l54.38-1.24c2.38-0.06 4.12-2.17 4.86-4.38l16.25-48.32z"/>
  <path d="m100.1 115.5c-1.68 0-3.2 0.68-4.31 1.79a5.92 5.92 0 0 0-1.37 2.03l-7.02 20.9l-47.98 1.14a6.15 6.15 0 0 0-5.35 6.91c0.22 1.97 1.59 3.57 3.16 4.66l37.09 29.88l-14.25 43.01a6.1 6.1 0 0 0 4.18 7.17c2.2 0.69 4.64-0.06 6.31-1.57l37.46-27.74l38.8 28.66a6.12 6.12 0 0 0 8.64-2.54c0.91-1.77 0.63-3.87-0.05-5.67l-12.48-41.37l18.48-15.35c1.2-1 1.79-2.63 1.79-4.31a6.08 6.08 0 0 0-6.1-6.1c-1.64 0-3.13 0.65-4.23 1.7l-21.28 17.75a6.23 6.23 0 0 0-1.28 6.79l8.52 28.09l-27.6-20.42c-2.24-1.48-5.4-1.05-7.37 0.71l-25.9 19.18l9.51-28.76c0.65-2.54-0.64-5.3-2.8-6.7l-27.7-22.2l35.48-0.83a6.26 6.26 0 0 0 5.37-4.83l7.95-23.63a6.09 6.09 0 0 0-5.67-8.35z"/>
  <path d="m53.57 192a6.64 6.64 0 0 0-6.12 4.28l-4.8 14.3c-11.6 0.29-23.21 0.55-34.81 0.84a6.66 6.66 0 0 0-5.84 6.43a6.58 6.58 0 0 0 1.92 4.73c0.9 0.9 1.96 1.6 2.92 2.42l25.1 20.22c-3.44 10.4-6.9 20.77-10.32 31.16a6.6 6.6 0 0 0 4.42 7.71c2.33 0.77 4.96 0.04 6.76-1.57l26.77-19.83c9.37 6.9 18.72 13.83 28.08 20.73c2.68 1.75 6.58 1.01 8.55-1.47a6.54 6.54 0 0 0 1.31-5.3c-0.22-1.23-0.71-2.4-1.03-3.62l-8.4-27.84c4.37-3.64 8.76-7.26 13.12-10.91a6.6 6.6 0 0 0-9.6-9.07c-5.25 4.38-10.5 8.74-15.74 13.13a6.7 6.7 0 0 0-1.43 7.22l4.6 15.18c-5.34-3.95-10.67-7.91-16.02-11.85a6.7 6.7 0 0 0-7.85 0.73l-14.26 10.57c1.73-5.26 3.48-10.51 5.2-15.78a6.79 6.79 0 0 0-2.9-7.12l-16.41-13.16c7.12-0.17 14.24-0.32 21.36-0.5a6.72 6.72 0 0 0 5.7-5.08c2.05-6.1 4.11-12.18 6.14-18.28a6.6 6.6 0 0 0-6.4-8.27z"/>
</svg>