<svg xmlns="http://www.w3.org/2000/svg" viewBox="0 0 720 720"><rect fill="#fff" width="720" height="720" x="0" y="0"/><path fill="#005d9d" d="m77.2 177.5 114.1 109.9h196.5l-104-110H77.2zm359 0-64.4 66.9 40.7 43h116.2l114.1-110H436.2zM79.3 307.9v104.2h24.2v-39.5H139V412h24.4V307.9H139v42.7h-35.4V308H79.3zm127 0-35.2 104.2h25l6-19h35.1l6 19h25L233 307.9h-26.7zm69.7 0v104.2h62v-22h-37.7v-82.2H276zm73.4 0v104.2H374V307.9h-24.6zm38.4 0v104.2h24.3v-39.5h38v-22h-38V330H458v-22h-70.2zm98 0-35.3 104.2h25l6-19h35l6 19h48.8l19.6-31.5 19.5 31.5H638L604 360l34-52h-27.6L591 339.3l-19.6-31.5h-27.6l34 52.1-31.5 48.2-33.8-100.3h-26.7zm-266.2 29.5 11.1 35.2h-22.1l11-35.2zm279.4 0 11.1 35.2H488l11.1-35.2zm-307.7 95.2-114 109.9h206.5l104-109.9H191.3zm221.2 0-40.7 43 64.4 67h206.6l-114.1-110H412.5z"/></svg>