<svg xmlns="http://www.w3.org/2000/svg" viewBox="-25 -245 1600 1600">
<style>.a{fill:#006abb}.b{fill:#f63d37}.c{fill:#fff;stroke:#fff;stroke-width:36}</style>
<path fill-rule="evenodd" class="c" d="m1009.7 176.4c-57.6 0-65-4.2-83.1-4.2-18.2 0-61.8 12.1-61.8 51.1 0 39 18.1 45.1 39.4 55.8 21 10.2 31.6 23.2 40.5 78 9.3 57.2 2.8 411.2 2.8 426 0 15.4-2.8 34.9-23.7 49.8-21.4 15.3-54.4 13.9-54.4 63.1 0 49.7 34.8 42.3 49.7 42.3 14.9 0 61.8-1.8 105.5-1.8 51.1 0 84.6 1.8 125.5 1.8 40.4 0 47.8-18.1 47.8-47.8 0-30.2-20.9-40.9-57.1-51.6-36.3-10.2-60.4-27-60.4-93.4v-148.7c0 0-6.1-30.2 22.7-1.8 28.8 28.8 189.1 269 189.1 269 0 0 32.6 73.9 117.1 73.9 64.2 0 64.6-34 64.6-97.1v-507.8c0 0-2.8-47.9 30.2-58.6 39.5-12.5 45.1-10.7 45.1-58.5 0-39.5-28.3-42.8-53.9-42.8-26 0-51.6 3.3-99.9 3.3-47.9 0-82.7-5.1-117.6-5.1-34.3 0-42.2 24.6-42.2 50.6 0 25.6 12 47.9 46.9 53.9 43.7 7.9 51.6 22.8 55.8 55.8 4.6 34.8 4.6 104 6 126.3 1.4 22.8 5.1 51.6-7.4 51.6-24.2 0-76.2-88.3-126.9-173.3-64.6-110.1-78.1-162.6-111.5-162.6-37.7 0-52.5 2.8-88.8 2.8zm-827.5-1.5c0 0-76.7-2.3-105.5-3.7-28.4-0.9-72.5-5.6-75.8 38.6-3.7 49.2 27.4 46.4 49.7 63.2 13.1 9.7 23.3 24.1 23.3 42.7 0 16.7-0.5 133.8 1.4 187.2 2.3 53.9 3.7 169.1 0.4 238.4-3.2 69.2-3.2 79.9-33.9 94.3-32 14.8-36.2 29.2-34.4 64.1 1.9 25.5 18.6 42.7 83.7 38.1 0 0 52.5-4.7 98.5-4.7 46.5 0 92.5 6.1 125.4 6.1 33 0 58.6-8.4 58.6-49.7 0-41.8-25.6-49.7-36.2-57.2-11.2-7.9-29.8-8.8-29.8-47.4 0-38.1-2.3-145.8-2.3-145.8 0 0 0.9-33 21.8-34.9 20.9-2.3 28.8-1.8 59.5-1.8 30.7 0 58.1 0.4 58.1 0.4 0 0 20.9 2.3 20.9 32.1 0 29.7 2.8 106.4 2.8 141.2 0 36.7 2.8 43.2-18.1 55.3-20 11.6-40.5 19.5-40.5 55.7 0 36.3 15.4 51.6 51.6 51.6 36.3 0 57.2-5.6 133.8-5.6 77.2 0 116.7 11.7 147.3-0.4 30.7-12.1 24.2-45.6 24.2-61.8 0-16.7-7.4-31.1-41.8-41.8-31.6-9.8-34.4-53.9-34.4-94.3 0 0-1.9-186.8-1.9-263.5 0-76.6 1.4-122.6 5.6-157.5 4.7-35.3 16.7-41.8 33-49.7 24.2-11.1 23.2-32 23.2-51.5 0-20-8.8-41.8-52.9-41.8-43.7 0-70.2 3.2-127.3 3.2-57.2 0-97.6-3.2-122.3-3.2-24.1 0-44.6 9.7-44.6 37.1 0 27.4-1.8 37.2 29.3 54.8 33 18.6 27.4 54.9 27.4 104.6v58c0 13.1 1.4 43.7-34.8 43.7h-94.8c0 0-20.5-0.9-25.1-17.6-4.2-16.3-4.2-44.6-4.2-85.5 0-55.8 1.9-83.2 21.8-96.7 20-13 39.5-10.6 39.5-52.5 0-41.8-30.6-45.9-44.1-45.9-13 0-136.1 4.1-136.1 4.1z"/>
<path fill-rule="evenodd" class="c" d="m1550.2 994.5v115.2h-1548.3v-115.2zm0-994.2v115.2h-1548.3v-115.2z"/>
<path fill-rule="evenodd" class="a" d="m1009.7 176.4c-57.6 0-65-4.2-83.1-4.2-18.2 0-61.8 12.1-61.8 51.1 0 39 18.1 45.1 39.4 55.8 21 10.2 31.6 23.2 40.5 78 9.3 57.2 2.8 411.2 2.8 426 0 15.4-2.8 34.9-23.7 49.8-21.4 15.3-54.4 13.9-54.4 63.1 0 49.7 34.8 42.3 49.7 42.3 14.9 0 61.8-1.8 105.5-1.8 51.1 0 84.6 1.8 125.5 1.8 40.4 0 47.8-18.1 47.8-47.8 0-30.2-20.9-40.9-57.1-51.6-36.3-10.2-60.4-27-60.4-93.4v-148.7c0 0-6.1-30.2 22.7-1.8 28.8 28.8 189.1 269 189.1 269 0 0 32.6 73.9 117.1 73.9 64.2 0 64.6-34 64.6-97.1v-507.8c0 0-2.8-47.9 30.2-58.6 39.5-12.5 45.1-10.7 45.1-58.5 0-39.5-28.3-42.8-53.9-42.8-26 0-51.6 3.3-99.9 3.3-47.9 0-82.7-5.1-117.6-5.1-34.3 0-42.2 24.6-42.2 50.6 0 25.6 12 47.9 46.9 53.9 43.7 7.9 51.6 22.8 55.8 55.8 4.6 34.8 4.6 104 6 126.3 1.4 22.8 5.1 51.6-7.4 51.6-24.2 0-76.2-88.3-126.9-173.3-64.6-110.1-78.1-162.6-111.5-162.6-37.7 0-52.5 2.8-88.8 2.8zm-827.5-1.5c0 0-76.7-2.3-105.5-3.7-28.4-0.9-72.5-5.6-75.8 38.6-3.7 49.2 27.4 46.4 49.7 63.2 13.1 9.7 23.3 24.1 23.3 42.7 0 16.7-0.5 133.8 1.4 187.2 2.3 53.9 3.7 169.1 0.4 238.4-3.2 69.2-3.2 79.9-33.9 94.3-32 14.8-36.2 29.2-34.4 64.1 1.9 25.5 18.6 42.7 83.7 38.1 0 0 52.5-4.7 98.5-4.7 46.5 0 92.5 6.1 125.4 6.1 33 0 58.6-8.4 58.6-49.7 0-41.8-25.6-49.7-36.2-57.2-11.2-7.9-29.8-8.8-29.8-47.4 0-38.1-2.3-145.8-2.3-145.8 0 0 0.9-33 21.8-34.9 20.9-2.3 28.8-1.8 59.5-1.8 30.7 0 58.1 0.4 58.1 0.4 0 0 20.9 2.3 20.9 32.1 0 29.7 2.8 106.4 2.8 141.2 0 36.7 2.8 43.2-18.1 55.3-20 11.6-40.5 19.5-40.5 55.7 0 36.3 15.4 51.6 51.6 51.6 36.3 0 57.2-5.6 133.8-5.6 77.2 0 116.7 11.7 147.3-0.4 30.7-12.1 24.2-45.6 24.2-61.8 0-16.7-7.4-31.1-41.8-41.8-31.6-9.8-34.4-53.9-34.4-94.3 0 0-1.9-186.8-1.9-263.5 0-76.6 1.4-122.6 5.6-157.5 4.7-35.3 16.7-41.8 33-49.7 24.2-11.1 23.2-32 23.2-51.5 0-20-8.8-41.8-52.9-41.8-43.7 0-70.2 3.2-127.3 3.2-57.2 0-97.6-3.2-122.3-3.2-24.1 0-44.6 9.7-44.6 37.1 0 27.4-1.8 37.2 29.3 54.8 33 18.6 27.4 54.9 27.4 104.6v58c0 13.1 1.4 43.7-34.8 43.7h-94.8c0 0-20.5-0.9-25.1-17.6-4.2-16.3-4.2-44.6-4.2-85.5 0-55.8 1.9-83.2 21.8-96.7 20-13 39.5-10.6 39.5-52.5 0-41.8-30.6-45.9-44.1-45.9-13 0-136.1 4.1-136.1 4.1z"/>
<path fill-rule="evenodd" class="b" d="m1550.2 994.5v115.2h-1548.3v-115.2zm0-994.2v115.2h-1548.3v-115.2z"/>
</svg>