<svg xmlns="http://www.w3.org/2000/svg" viewBox="0 0 100 100">
  <path fill="#04202e" d="M1.5 1.5C1.1 1.8 1 5 1 32v30.2l.6.3c.5.2 1.2.3 2.7.3h2.1l-.8.8c-.9.9-1.4 1.7-1.4 2.3 0 .2.7 1.5 1.6 2.8l1.6 2.4-2.3.5c-2.7.6-3.6.8-3.8 1.3-.2.3-.3 2.3-.3 4.5 0 3.3.1 4.2.3 4.4.1.1 1.5.6 3.1.9l2.8.7-1.5 2.4a9.6 9.6 0 0 0-1.5 2.9c0 .5.7 1.4 2.9 3.6 3.6 3.6 3.5 3.6 6.7 1.4l2.3-1.5.5 2.1c.6 3 .9 3.7 1.4 4.1l4.2.2c4.6 0 4.6 0 5.3-3.7.2-1.4.6-2.6.6-2.6.1-.1 1.2.6 2.3 1.4 3.1 2.2 3.1 2.2 6.6-1.4 2.3-2.3 2.9-3 2.9-3.6 0-.5-.6-1.5-1.5-3-1-1.5-1.4-2.3-1.2-2.4l2.8-.6c3.4-.7 3.4-.7 3.4-5.5 0-2.1.1-3.7.2-3.7l3.1.6c4.2.6 4.3.7 4.8 1.3.6.9.2 1.5-2.3 3.4-3.3 2.4-3.7 2.9-3.7 3.7 0 1 6.2 9.3 7.1 9.5.9.2 1.5-.1 4.4-2.3 1.5-1.2 2.9-2.1 3.1-2.1.7 0 1.6 1.3 1.5 1.9-.3 1.7-.9 6.5-.8 7.1.1.3.3.7.6.8.6.2 9.2 1.5 10.6 1.5 1.5 0 1.7-.5 2.3-4.4.3-2.8.6-3.7 1-4.1.9-.9 1.6-.5 3.9 2.8 2.2 2.9 2.9 3.5 3.9 3.1.8-.2 8.5-6.2 8.7-6.9.5-.9.1-1.5-2.3-4.8-1.6-2.2-2.1-2.9-1.9-3.4.2-1.2.9-1.3 4.8-.7 3.7.6 4.6.5 5-.5.2-.8 1.4-9.3 1.4-10.3 0-1.6-.1-1.7-5.1-2.4-2.3-.3-3-.5-3.4-.9-.7-.8-.6-1.4.8-2.6l1.3-1h2.4c2.2 0 2.6 0 3-.6l.7-.6V32c0-26.5 0-29.8-.3-30.3l-.3-.6h-48C6.6 1 1.8 1.1 1.5 1.5Zm93.7 29-.1 26.1-2.6-3.4a26.9 26.9 0 0 0-2.9-3.5c-.9-.3-1.5 0-4.4 2.2a26.8 26.8 0 0 1-3.4 2.3c-.1 0-.5-.2-.9-.6l-.7-.6.6-3.7c.3-2.8.5-3.9.2-4.3-.2-.3-.2-5.5-.2-15.4V14.7l-.6-.5c-.5-.3-1.5-.5-6-.5-4.8 0-5.5 0-6 .5s-.6.6-.6 17.8c0 13.1-.1 17.5-.5 18.3-.3 1.2-1.3 1.6-2.1 1.2-.5-.2-.5-.7-.5-14.4 0-12.3 0-14.2-.3-14.6-.5-.3-.5-.3-6.2-.3-4.9 0-5.8 0-6.2.5-.3.3-.3 2-.3 14.3v13.9l-.9.8c-.6.6-.9 1.2-.9 1.5 0 .3.8 1.6 2 3.4l2.3 3.3c.3.7 0 1.6-.7 1.9-.5.2-2.7 0-4.3-.3l-.6-.1V36.2l-.7-.6c-.6-.7-.6-.7-6-.7s-5.5 0-6 .6l-.7.6v23.2h-2.8v-8.1c0-6-.1-8.4-.3-8.8l-.5-.6h-5.8c-5.8 0-5.9 0-6.4.5s-.5 1.3-.5 7.3v6.7l-.6.1c-.7.2-.9.8-1.6 4.1l-.3 2.2-2.4-1.6-2.4-1.6h-7V4.4h90.8v26.1Zm-17.8.1v13.1l-1.2-.2c-.7-.1-2.1-.2-3.3-.5l-2.1-.1V17.5h6.6zM60.9 36c0 10.1 0 10.5-.5 10-.8-.8-1.9-.6-3.7.8L54.9 48l-.1-11.3V25.5h6.1zM44.8 49v10.5h-6.2v-21h6.2zm-16.3 4.4.1 8.7c.1.2 0 .5-.2.5s-.5-.9-.8-2.8a12 12 0 0 0-.9-3.1c-.2-.2-1-.5-2.3-.5l-2-.1v-11h6.1zm46.8-6.3 2.1.2-.2 1.5-.2 3.6c0 2 0 2.3.7 3.1.9 1.3 2.4 2 4.1 2 1.5 0 2.3-.3 4.8-2.3 1-.8 2-1.4 2-1.3l3.5 4.9-2.2 1.9a9.5 9.5 0 0 0-2.7 2.7 5.7 5.7 0 0 0 0 4.8c.9 1.9 2.1 2.4 6 2.9 2.1.3 2.2.3 2.2.9l-.5 3a9.3 9.3 0 0 1-.6 2.6l-1.9-.2c-2.3-.3-4.5-.3-5.5.1-1 .5-2.3 2.1-2.6 2.9a5 5 0 0 0-.2 1.2c-.2 1 .6 3 2.1 5l1.6 2.1-2.4 1.9a9.8 9.8 0 0 1-2.7 1.6L81 90c-.8-1-1.9-2.2-2.3-2.4-2.8-1.4-6-.5-7.1 2.1-.2.6-.6 2.2-.8 3.6-.3 2.3-.3 2.6-.8 2.4l-3.1-.5-2.6-.3.1-1.2c.5-3.9.5-5.3-.1-6.4-.6-1-1.7-2.2-2.8-2.6a8 8 0 0 0-3.8.2L55 86.6 53.1 88l-1.7-2.3c-.9-1.3-1.7-2.4-1.7-2.6 0-.2.8-.8 1.7-1.5 3-2.2 3.6-3.3 3.6-5.3a5 5 0 0 0-2.1-4.1c-.8-.5-1.7-.7-3.8-1-2-.2-2.8-.5-2.8-.7l.9-5.7 2.6.2c1.3.2 2.9.2 3.5.2a4.9 4.9 0 0 0 4.1-4.9c0-1.4-.3-2.2-2.2-4.8-.8-1-1.3-2-1.2-2.1.8-.7 4.4-3.4 4.6-3.4l1.9 2.2c1.9 2.4 3 3.3 5 3.3 1.6 0 2.7-.5 3.7-1.6.9-1 1.3-1.9 1.6-4.9l.3-2.3.9.1c.8-.1 2.2.1 3.3.3zM24.5 62c.5 2.7.9 3.4 2.2 3.9 1.4.7 2.6.3 4.8-1.2l1.9-1.3 1.4 1.4 1.4 1.4-1.3 2c-.7 1-1.4 2.2-1.4 2.6-.1 1.7.5 3.1 1.6 3.6.5.2 1.7.6 2.8.8l2 .5-.1 1.9-.1 1.9-2.1.5c-3.3.6-4.3 1.6-4.3 3.7 0 .9.2 1.5 1.4 3.1l1.4 2-1.4 1.4-1.4 1.4-1.7-1.4c-2.2-1.5-3.4-1.9-4.6-1.2-1.3.7-1.9 1.5-2.3 3.9l-.7 2.2h-1.9l-1.9.1-.5-2c-.6-2.7-1-3.6-2-4.1-1.6-.8-2.7-.6-4.9.9l-2 1.4L9.4 90 8 88.5l1.3-1.9c1.4-2.1 1.7-3.1 1.3-4.5-.3-1.3-1.3-2-3-2.3-.8-.1-1.9-.3-2.4-.6l-.9-.2v-3.4l2-.3c2.7-.6 3.6-1 4.2-2 .9-1.4.7-2.4-.9-4.9l-1.4-2.1 1.4-1.4 1.4-1.4 1.9 1.3c2.7 1.9 4.2 2.1 5.7.6.7-.7.9-1.4 1.5-4.2l.3-1.5 1.9.1 1.9.1zM44 63.1l-1.4 9.3c-.1.1-5.3-1-5.5-1.2l1.5-2.3c2-2.8 2-3.3.5-4.9l-1-1.2h3l2.9.3z"/>
  <path fill="#82c55b" d="M55.2 7.4A9 9 0 0 0 55 9c0 1.4 0 1.4 2 1.6l1.2.3c0 .1-9.7 5.8-21.4 12.5C24.9 30.2 15.2 35.7 15 36c-.2.2 1.4 3.1 1.7 3l22.1-12.7c12-7 21.9-12.5 21.9-12.5l-.2 1.7c-.6 2.6-.6 2.4 1.2 2.8 1 0 1.6.2 1.7 0l1-4.2c.6-3.5.7-4.3.4-4.9-.3-.8-.2-.7-5-1.7-4.5-.7-4.4-.7-4.6 0Z"/>
  <path fill="#04202e" d="M67.4 58.3c-2.1.6-3.8 1.6-5.7 3.5a12 12 0 0 0-3.8 9.3 13 13 0 0 0 22.3 9.3 13.1 13.1 0 0 0-5.9-21.9c-1.8-.7-5.1-.7-6.9-.2Zm6.6 3.6c2.4.9 4.4 2.8 5.6 5.2.6 1.2.7 1.7.7 3.8 0 2.1-.1 2.7-.7 3.9-.9 1.9-2.9 3.9-4.8 4.8-1.3.6-1.7.7-3.9.7-2.1 0-2.7-.1-3.9-.7-3.8-1.9-6.3-6-5.6-10.1 1-5.9 7.1-9.6 12.6-7.6z" class="st0"/>
  <path id="path8" fill="#04202e" fill-opacity="1" d="M18.8 68.1a9.6 9.6 0 0 0-6.4 9.9c.1 2.6.9 4.3 2.4 6.2 2.8 3 7.9 3.9 11.7 2.1 1.6-.8 3.8-3 4.5-4.6 2.2-5 0-10.9-4.9-13.2-1.9-.9-5.2-1.2-7.3-.4zm5.1 3.3c2.7.8 4.5 3.1 4.5 6 0 1.9-.5 3.3-1.7 4.5a6.2 6.2 0 0 1-9.5-.8c-2.7-3.5-.8-8.6 3.5-9.8 1.4-.4 1.5-.4 3.2.1z"/>
</svg>