<?xml version="1.0" encoding="utf-8"?>
<!-- Generator: Adobe Illustrator 27.1.1, SVG Export Plug-In . SVG Version: 6.00 Build 0)  -->
<svg version="1.1" id="Capa_1" xmlns="http://www.w3.org/2000/svg" xmlns:xlink="http://www.w3.org/1999/xlink" x="0px" y="0px"
	 viewBox="0 0 100 100" style="enable-background:new 0 0 100 100;" xml:space="preserve">
<style type="text/css">
	.st0{fill:#181818;}
	.st1{fill:#FAB315;}
	.st2{fill:#4775E5;}
	.st3{fill:#8E53E9;}
</style>
<g>
	<path class="st0" d="M1.5,1.5C1.1,1.8,1,5,1,32v30.2l0.6,0.3c0.5,0.2,1.2,0.3,2.7,0.3h2.1l-0.8,0.8c-0.9,0.9-1.4,1.7-1.4,2.3
		c0,0.2,0.7,1.5,1.6,2.8l1.6,2.4l-2.3,0.5c-2.7,0.6-3.6,0.8-3.8,1.3C1.1,73.2,1,75.2,1,77.4c0,3.3,0.1,4.2,0.3,4.4
		c0.1,0.1,1.5,0.6,3.1,0.9c1.5,0.3,2.8,0.6,2.8,0.7s-0.7,1.2-1.5,2.4c-0.9,1.3-1.5,2.6-1.5,2.9c0,0.5,0.7,1.4,2.9,3.6
		c3.6,3.6,3.5,3.6,6.7,1.4c1.3-0.8,2.3-1.5,2.3-1.5s0.2,0.9,0.5,2.1c0.6,3,0.9,3.7,1.4,4.1c0.2,0.1,2.2,0.2,4.2,0.2
		c4.6,0,4.6,0,5.3-3.7c0.2-1.4,0.6-2.6,0.6-2.6c0.1-0.1,1.2,0.6,2.3,1.4c3.1,2.2,3.1,2.2,6.6-1.4c2.3-2.3,2.9-3,2.9-3.6
		c0-0.5-0.6-1.5-1.5-3c-1-1.5-1.4-2.3-1.2-2.4c0.2-0.1,1.4-0.3,2.8-0.6c3.4-0.7,3.4-0.7,3.4-5.5c0-2.1,0.1-3.7,0.2-3.7
		c0.1,0.1,1.5,0.3,3.1,0.6c4.2,0.6,4.3,0.7,4.8,1.3c0.6,0.9,0.2,1.5-2.3,3.4c-3.3,2.4-3.7,2.9-3.7,3.7c0,1,6.2,9.3,7.1,9.5
		c0.9,0.2,1.5-0.1,4.4-2.3c1.5-1.2,2.9-2.1,3.1-2.1c0.7,0,1.6,1.3,1.5,1.9c-0.3,1.7-0.9,6.5-0.8,7.1c0.1,0.3,0.3,0.7,0.6,0.8
		c0.6,0.2,9.2,1.5,10.6,1.5c1.5,0,1.7-0.5,2.3-4.4c0.3-2.8,0.6-3.7,1-4.1c0.9-0.9,1.6-0.5,3.9,2.8c2.2,2.9,2.9,3.5,3.9,3.1
		c0.8-0.2,8.5-6.2,8.7-6.9c0.5-0.9,0.1-1.5-2.3-4.8c-1.6-2.2-2.1-2.9-1.9-3.4c0.2-1.2,0.9-1.3,4.8-0.7c3.7,0.6,4.6,0.5,5-0.5
		c0.2-0.8,1.4-9.3,1.4-10.3c0-1.6-0.1-1.7-5.1-2.4c-2.3-0.3-3-0.5-3.4-0.9c-0.7-0.8-0.6-1.4,0.8-2.6l1.3-1h2.4c2.2,0,2.6,0,3-0.6
		l0.7-0.6V32c0-26.5,0-29.8-0.3-30.3l-0.3-0.6H49.9C6.6,1,1.8,1.1,1.5,1.5z M95.2,30.5c0,14.4,0,26.1-0.1,26.1c0,0-1.2-1.5-2.6-3.4
		c-1.4-1.9-2.7-3.4-2.9-3.5c-0.9-0.3-1.5,0-4.4,2.2c-1.7,1.3-3.3,2.3-3.4,2.3s-0.5-0.2-0.9-0.6L80.2,53l0.6-3.7
		c0.3-2.8,0.5-3.9,0.2-4.3c-0.2-0.3-0.2-5.5-0.2-15.4V14.7l-0.6-0.5c-0.5-0.3-1.5-0.5-6-0.5c-4.8,0-5.5,0-6,0.5
		c-0.5,0.5-0.6,0.6-0.6,17.8c0,13.1-0.1,17.5-0.5,18.3c-0.3,1.2-1.3,1.6-2.1,1.2c-0.5-0.2-0.5-0.7-0.5-14.4c0-12.3,0-14.2-0.3-14.6
		c-0.5-0.3-0.5-0.3-6.2-0.3c-4.9,0-5.8,0-6.2,0.5c-0.3,0.3-0.3,2-0.3,14.3v13.9l-0.9,0.8c-0.6,0.6-0.9,1.2-0.9,1.5
		c0,0.3,0.8,1.6,2,3.4c1,1.5,2.1,2.9,2.3,3.3c0.3,0.7,0,1.6-0.7,1.9c-0.5,0.2-2.7,0-4.3-0.3l-0.6-0.1V48.6V36.2l-0.7-0.6
		c-0.6-0.7-0.6-0.7-6-0.7s-5.5,0-6,0.6L35,36.1v11.6v11.6h-1.4h-1.4v-8.1c0-6-0.1-8.4-0.3-8.8l-0.5-0.6h-5.8c-5.8,0-5.9,0-6.4,0.5
		c-0.5,0.5-0.5,1.3-0.5,7.3v6.7l-0.6,0.1c-0.7,0.2-0.9,0.8-1.6,4.1l-0.3,2.2l-2.4-1.6l-2.4-1.6H7.9H4.4V31.9V4.4h45.4h45.4
		L95.2,30.5L95.2,30.5L95.2,30.5z M77.4,30.6v13.1l-1.2-0.2c-0.7-0.1-2.1-0.2-3.3-0.5l-2.1-0.1V30.2V17.5h3.3h3.3
		C77.4,17.5,77.4,30.6,77.4,30.6z M60.9,36c0,10.1,0,10.5-0.5,10c-0.8-0.8-1.9-0.6-3.7,0.8C55.8,47.5,55,48,54.9,48
		c-0.1,0-0.1-5.1-0.1-11.3V25.5h3.1h3V36L60.9,36z M44.8,49v10.5h-3.1h-3.1V49V38.5h3.1h3.1V49z M28.5,53.4c0,4.5,0.1,8.5,0.1,8.7
		c0.1,0.2,0,0.5-0.2,0.5c-0.2,0-0.5-0.9-0.8-2.8c-0.3-1.5-0.7-2.9-0.9-3.1c-0.2-0.2-1-0.5-2.3-0.5l-2-0.1v-5.5v-5.5h3.1h3V53.4
		L28.5,53.4z M75.3,47.1l2.1,0.2l-0.2,1.5c-0.1,0.8-0.2,2.4-0.2,3.6c0,2,0,2.3,0.7,3.1c0.9,1.3,2.4,2,4.1,2c1.5,0,2.3-0.3,4.8-2.3
		c1-0.8,2-1.4,2-1.3c0.8,1,3.5,4.8,3.5,4.9c0,0.1-1,0.9-2.2,1.9c-1.4,1-2.4,2.1-2.7,2.7c-0.7,1.4-0.7,3.4,0,4.8
		c0.9,1.9,2.1,2.4,6,2.9c2.1,0.3,2.2,0.3,2.2,0.9c-0.1,0.2-0.2,1.6-0.5,3c-0.2,1.4-0.5,2.6-0.6,2.6s-0.9-0.1-1.9-0.2
		c-2.3-0.3-4.5-0.3-5.5,0.1c-1,0.5-2.3,2.1-2.6,2.9c-0.1,0.3-0.2,0.9-0.2,1.2c-0.2,1,0.6,3,2.1,5l1.6,2.1l-2.4,1.9
		c-1.4,1-2.6,1.7-2.7,1.6c-0.1-0.1-0.9-1.2-1.7-2.2c-0.8-1-1.9-2.2-2.3-2.4c-2.8-1.4-6-0.5-7.1,2.1c-0.2,0.6-0.6,2.2-0.8,3.6
		c-0.3,2.3-0.3,2.6-0.8,2.4c-0.3,0-1.6-0.2-3.1-0.5l-2.6-0.3l0.1-1.2c0.5-3.9,0.5-5.3-0.1-6.4c-0.6-1-1.7-2.2-2.8-2.6
		c-1-0.3-3-0.1-3.8,0.2c-0.3,0.2-1.5,1-2.7,1.7L53.1,88l-1.7-2.3c-0.9-1.3-1.7-2.4-1.7-2.6s0.8-0.8,1.7-1.5c3-2.2,3.6-3.3,3.6-5.3
		c0-1.6-0.8-3.3-2.1-4.1c-0.8-0.5-1.7-0.7-3.8-1c-2-0.2-2.8-0.5-2.8-0.7c0-0.6,0.8-5.6,0.9-5.7c0-0.1,1.2,0,2.6,0.2
		c1.3,0.2,2.9,0.2,3.5,0.2c2.3-0.3,4.1-2.4,4.1-4.9c0-1.4-0.3-2.2-2.2-4.8c-0.8-1-1.3-2-1.2-2.1c0.8-0.7,4.4-3.4,4.6-3.4
		c0.1,0,0.9,0.9,1.9,2.2c1.9,2.4,3,3.3,5,3.3c1.6,0,2.7-0.5,3.7-1.6c0.9-1,1.3-1.9,1.6-4.9l0.3-2.3l0.9,0.1
		C72.8,46.7,74.2,46.9,75.3,47.1z M24.5,62c0.5,2.7,0.9,3.4,2.2,3.9c1.4,0.7,2.6,0.3,4.8-1.2l1.9-1.3l1.4,1.4l1.4,1.4l-1.3,2
		c-0.7,1-1.4,2.2-1.4,2.6c-0.1,1.7,0.5,3.1,1.6,3.6c0.5,0.2,1.7,0.6,2.8,0.8l2,0.5l-0.1,1.9l-0.1,1.9l-2.1,0.5
		c-3.3,0.6-4.3,1.6-4.3,3.7c0,0.9,0.2,1.5,1.4,3.1l1.4,2l-1.4,1.4l-1.4,1.4l-1.7-1.4c-2.2-1.5-3.4-1.9-4.6-1.2
		c-1.3,0.7-1.9,1.5-2.3,3.9L24,95.1h-1.9l-1.9,0.1l-0.5-2c-0.6-2.7-1-3.6-2-4.1c-1.6-0.8-2.7-0.6-4.9,0.9l-2,1.4l-1.4-1.4l-1.4-1.5
		l1.3-1.9c1.4-2.1,1.7-3.1,1.3-4.5c-0.3-1.3-1.3-2-3-2.3c-0.8-0.1-1.9-0.3-2.4-0.6l-0.9-0.2v-1.7v-1.7l2-0.3c2.7-0.6,3.6-1,4.2-2
		c0.9-1.4,0.7-2.4-0.9-4.9l-1.4-2.1l1.4-1.4l1.4-1.4l1.9,1.3c2.7,1.9,4.2,2.1,5.7,0.6c0.7-0.7,0.9-1.4,1.5-4.2l0.3-1.5l1.9,0.1
		l1.9,0.1L24.5,62z M44,63.1c0,0.5-1.3,9.2-1.4,9.3c-0.1,0.1-5.3-1-5.5-1.2c0,0,0.6-1,1.5-2.3c2-2.8,2-3.3,0.5-4.9l-1-1.2h3
		C42.6,63,44,63.1,44,63.1z"/>
	<path class="st1" d="M58,6.4c-0.1,0.2-0.2,0.9-0.3,1.6c-0.1,1.4-0.1,1.4,1.9,1.6c0.6,0.1,1.2,0.2,1.2,0.3c0,0.1-9.5,5.8-21.1,12.5
		c-11.6,6.9-21.2,12.4-21.4,12.7c-0.2,0.2,1.4,3.1,1.7,3c0.1-0.1,10-5.8,21.8-12.8c11.8-6.9,21.6-12.5,21.6-12.5s-0.1,0.8-0.2,1.7
		c-0.6,2.6-0.6,2.4,1.2,2.8c0.9,0.1,1.6,0.2,1.7,0.1s0.5-2.1,0.9-4.3c0.7-3.5,0.8-4.3,0.5-4.9c-0.3-0.8-0.2-0.7-5-1.7
		C58.1,5.8,58.2,5.8,58,6.4z"/>
	<path class="st2" d="M88.7,17.3v1.9h1.7h1.9v-1.9v-1.9h-1.9h-1.7V17.3z"/>
	<path class="st2" d="M88.7,34.3v12.2h1.7h1.9V34.3V22.2h-1.9h-1.7V34.3z"/>
	<path class="st2" d="M7.4,40.2v1.7H9h1.6v-1.7v-1.9H9H7.4V40.2z"/>
	<path class="st2" d="M7.4,50.5v5.8H9h1.6v-5.8v-5.8H9H7.4V50.5z"/>
	<path class="st0" d="M67.4,58.3c-2.1,0.6-3.8,1.6-5.7,3.5c-2.7,2.7-3.8,5.5-3.8,9.3c0,3.6,1.3,6.6,3.7,9.2
		c5.1,5.2,13.5,5.2,18.6,0.1c7.1-7.1,3.8-19.4-5.9-21.9C72.5,57.8,69.2,57.8,67.4,58.3z M74,61.9c2.4,0.9,4.4,2.8,5.6,5.2
		c0.6,1.2,0.7,1.7,0.7,3.8c0,2.1-0.1,2.7-0.7,3.9c-0.9,1.9-2.9,3.9-4.8,4.8c-1.3,0.6-1.7,0.7-3.9,0.7c-2.1,0-2.7-0.1-3.9-0.7
		c-3.8-1.9-6.3-6-5.6-10.1C62.4,63.6,68.5,59.9,74,61.9z"/>
	<path class="st0" d="M18.8,68.1c-4.2,1.5-6.6,5.3-6.4,9.9c0.1,2.6,0.9,4.3,2.4,6.2c2.8,3,7.9,3.9,11.7,2.1c1.6-0.8,3.8-3,4.5-4.6
		c2.2-5,0-10.9-4.9-13.2C24.2,67.6,20.9,67.3,18.8,68.1z M23.9,71.4c2.7,0.8,4.5,3.1,4.5,6c0,1.9-0.5,3.3-1.7,4.5
		c-2.8,2.8-7.1,2.4-9.5-0.8c-2.7-3.5-0.8-8.6,3.5-9.8C22.1,70.9,22.2,70.9,23.9,71.4z"/>
	<path class="st3" d="M38.3,95.3v1.6h1.9h1.7v-1.6v-1.6h-1.7h-1.9V95.3z"/>
	<path class="st3" d="M44.8,95.3v1.6h1.7h1.7v-1.6v-1.6h-1.7h-1.7V95.3z"/>
	<path class="st3" d="M51.4,95.3v1.6H53h1.6v-1.6v-1.6H53h-1.6V95.3z"/>
</g>
</svg>
