<svg xmlns="http://www.w3.org/2000/svg" viewBox="0 0 100 100"><path d="m15.3 34 .9 9.4-7.8 14.8c-1.4 2.7-.4 6 2.2 7.4 1.3.6 2.7.8 4.1.4a5.5 5.5 0 0 0 3.2-2.6l8.6-16.1c.3-.6.5-1.1.6-1.8l.9.3 1.5 10.7c.2 1.4 1 2.7 2.1 3.6 1.2.9 2.6 1.2 4 1 2.9-.4 5-3.2 4.6-6.1l-2-14c-.3-2-1.7-3.7-3.6-4.3l-8.5-2.9-.4-4.7 3 .8c1.4.4 3 .2 4.2-.6l7.8-4.6a5.4 5.4 0 0 0 1.9-7.4 5.5 5.5 0 0 0-7.4-1.9l-5.8 3.5-8.4-2.2a5.4 5.4 0 0 0-4.1.5c-1.2.7-2.1 2-2.5 3.3l-.2 1.2-11 7.5a5.3 5.3 0 0 0-1.4 7.5c1.7 2.5 5 3.2 7.5 1.5zm2.2-12.7c.1-.6.5-1 1-1.3a2 2 0 0 1 1.1-.3l.6.1 9 2.4c.4.1.9 0 1.2-.2l6.4-3.8c1-.6 2.4-.3 3 .8.6 1 .3 2.4-.8 3l-7.8 4.6a2 2 0 0 1-1.7.2l-5.2-1.4a2 2 0 0 0-1.5.3c-.4.3-.6.9-.6 1.4l.7 8c.1.6.5 1.2 1.1 1.4l9.5 3.2c.8.3 1.3.9 1.5 1.8l2 14c.2 1.2-.7 2.3-1.8 2.5-.6.1-1.2-.1-1.6-.4-.5-.3-.8-.9-.9-1.4L31 44.5c-.1-.6-.5-1.1-1.1-1.3l-4-1.4c-.5-.2-1.1-.1-1.5.3-.4.3-.7.9-.6 1.4l.1.9c0 .5-.1.9-.3 1.3v.1L15 61.9c-.6 1.1-1.9 1.5-2.9.9-1.1-.6-1.5-1.9-.9-2.9l8.1-15.2c.2-.3.2-.6.2-.9l-2.1-21.5ZM4.4 34.9c-.7-1-.4-2.4.6-3l9.5-6.5.5 5-7.6 5.1c-1 .7-2.3.4-3-.6zm64.2 13.9V34.1h17.8c.9 0 1.6-.7 1.6-1.6 0-.9-.7-1.6-1.6-1.6H75.1V16.6h11.4c.6 0 1.1-.3 1.4-.9.3-.5.2-1.2-.1-1.7l-2.5-3.6 2.5-3.6c.3-.5.4-1.1.1-1.7-.3-.5-.8-.9-1.4-.9H75.1V4c0-.9-.7-1.6-1.6-1.6-.9 0-1.6.7-1.6 1.6v26.7H67c-.9 0-1.6.7-1.6 1.6V47H47.6c-.9 0-1.6.7-1.6 1.6v14.7H28.2c-.9 0-1.6.7-1.6 1.6v14.7H8.8c-.9 0-1.6.7-1.6 1.6 0 1.1.8 1.8 1.6 1.8h19.4c.9 0 1.6-.7 1.6-1.6V66.7h17.8c.9 0 1.6-.7 1.6-1.6V50.4H67c.9 0 1.6-.7 1.6-1.6zM83.4 7.6l-1.4 2c-.4.5-.4 1.3 0 1.8l1.4 2h-8.3V7.6ZM56.6 86.3c.4.7.1 1.7-.6 2.2l-.8.2c-.6 0-1.1-.3-1.4-.8a24.1 24.1 0 0 1 5.7-31.2c8-6.5 19.1-7.3 27.9-2 0-.7.5-1.3 1.2-1.5.9-.2 1.7.3 2 1.1l1.2 4c.1.5 0 1-.2 1.4-.3.4-.8.6-1.2.7l-4.4.1h-.1c-.9 0-1.6-.7-1.6-1.6 0-.8.5-1.4 1.2-1.6a21 21 0 0 0-31.6 16c-.6 4.6.4 9.1 2.7 13zm42.5-8.1A24.1 24.1 0 0 1 74.9 100l-2.6-.1c-3.6-.4-6.9-1.5-10-3.3 0 .7-.5 1.3-1.2 1.5l-.4.1c-.7 0-1.3-.5-1.5-1.2l-1.1-4c-.1-.5 0-1 .2-1.4.3-.4.7-.6 1.2-.7l4.2-.2c.9 0 1.6.7 1.7 1.6 0 .8-.5 1.4-1.2 1.6a20.8 20.8 0 0 0 23.9-1.8 21 21 0 0 0 5-27c-.4-.8-.2-1.8.6-2.2.8-.4 1.8-.2 2.2.6 2.6 4.4 3.7 9.5 3.2 14.7zm-24.8 6c4.4 0 8.2-4.1 8.2-8.6s-3.9-8.5-8-8.6a8.7 8.7 0 0 0-8.6 8.6c0 4.9 4 8.4 8.4 8.5zm0-14.2a5.6 5.6 0 1 1 0 11.2 5.6 5.6 0 0 1 0-11.2zM59 79.2l1.8.7 1.1 2.7-.8 1.8c-.3.6-.1 1.3.3 1.8l2.9 2.9c.5.5 1.2.6 1.8.3l1.7-.8c.9.5 1.8.8 2.7 1.1l.7 1.8c.2.6.8 1 1.5 1h4.2c.7 0 1.3-.4 1.5-1l.7-1.8 2.7-1.1 1.7.8c.6.3 1.3.1 1.8-.3l2.9-2.9c.5-.5.6-1.2.3-1.8l-.8-1.7c.5-.9.8-1.8 1.1-2.7l1.8-.7c.6-.2 1-.8 1-1.5v-4.2c0-.7-.4-1.3-1-1.5l-1.5-.7-1.1-2.7.8-1.7c.3-.6.1-1.3-.3-1.8l-2.9-2.9c-.5-.5-1.2-.6-1.8-.3l-1.7.8c-.9-.5-1.8-.8-2.7-1.1l-.7-1.8c-.2-.6-.8-1-1.5-1H73c-.7 0-1.3.4-1.5 1l-.7 1.8-2.7 1.1-1.7-.8c-.6-.3-1.3-.1-1.8.3l-2.9 2.9c-.5.5-.6 1.2-.3 1.8l.8 1.7c-.5.9-.8 1.8-1.1 2.7l-1.8.7c-.6.2-1 .8-1 1.5v4.2c-.3.6.1 1.2.7 1.4zm2.2-4.5 1.5-.6c.5-.2.9-.6 1-1.1.3-1.2.7-2.3 1.4-3.4.3-.5.3-1 .1-1.5l-.7-1.5 1.4-1.4 1.5.7c.5.2 1 .2 1.5-.1 1-.6 2.2-1.1 3.4-1.4.5-.1.9-.5 1.1-1l.6-1.5h1.9l.6 1.5c.2.5.6.9 1.1 1 1.2.3 2.3.7 3.4 1.4.5.3 1 .3 1.5.1l1.5-.7 1.4 1.4-.7 1.5c-.2.5-.2 1 .1 1.5.6 1 1.1 2.2 1.4 3.4.1.5.5.9 1 1.1l1.5.6v1.9l-1.5.6c-.5.2-.9.6-1 1.1-.3 1.2-.8 2.3-1.4 3.4-.3.5-.3 1-.1 1.5l.7 1.5L84 86l-1.5-.7c-.5-.2-1-.2-1.5.1-1 .6-2.2 1.1-3.4 1.4-.5.1-.9.5-1.1 1l-.6 1.5H74l-.6-1.5c-.2-.5-.6-.9-1.1-1-1.2-.3-2.3-.7-3.4-1.4-.5-.3-1-.3-1.5-.1l-1.5.7-1.4-1.4.7-1.5c.2-.5.2-1-.1-1.5-.6-1-1.1-2.2-1.4-3.4-.1-.5-.5-.9-1-1.1l-1.5-.6ZM21.4 16a8 8 0 1 0 0-16 8 8 0 0 0 0 16zm0-12.8c2.6 0 4.8 2.1 4.8 4.8 0 2.6-2.1 4.7-4.8 4.7A4.7 4.7 0 0 1 16.7 8c0-2.6 2.1-4.8 4.7-4.8z"/></svg>