<svg viewBox="0 0 368 368" xmlns="http://www.w3.org/2000/svg">
  <rect x="0" y="0" width="368" height="368" fill="#fff"/>
  <path d="m137 104a13 13.1 0 0 0-5.4 2a41 41 0 0 0-11.2 12.2a110.7 111 0 0 0-10.3 25.2c-0.5 2-1.1 3.6-1.5 4a22 22 0 0 1-4 3.6c-0.2 0-0.6-0.6-1-1.3c-0.4-0.8-1-1.7-1.3-2c-1.3-1.7-4.6-2.1-7.1-1a30.3 30.3 0 0 0-10.4 9.8c-3 4.5-5 10.1-5.2 14.6v3.6c0.2 1.3 1.2 3 2.2 3.6c1.3 1 5 0.4 7-0.9a38.2 38.3 0 0 0 8.4-9a77.7 77.9 0 0 0 6-12.4c0.3-0.4 3-1.7 3.5-1.7s0.4 1.4-0.3 5.3c-1.3 7-1 14.1 0.6 16.1c1.3 1.5 3.4 1.7 6 0.7a29.5 29.6 0 0 0 9-7c2.8-2.6 5.1-4.4 5.1-4.4c0.1 0.2 0.4 1.9 0.4 3.9c0.3 4 0.6 5.2 2 6.2c2 1.8 4.1 1.5 8.7-1.1c3.9-2.2 4.2-2.2 6-0.2c2.7 3.1 3.8 3.5 6.7 2.5c1.5-0.5 2-0.8 4-2.3c2.1-1.5 2.4-1.5 4.1 0a9 9 0 0 0 8.9 2.2c5.2-1.5 8.5-4.6 13-12c2.5-4.2 2.9-5 2.5-6.5l-0.4-1.1c-0.2-0.4-1 0.6-2.8 3a41 41 0 0 1-6.5 8c-3.6 2.9-7.2 3.6-9.7 1.6l-0.8-0.8v-1.6a18.8 18.9 0 0 1 2-6c2.6-6 2.9-7 3-10.3c0-2.3 0-3-0.3-3.6c-0.6-1.1-1.4-1.5-2.2-1c-0.6 0.3-1.5 0.5-4.3 0.5c-3.5 0.2-3.7 0.2-5.2 1a27 27 0 0 0-10.3 10.7a22.1 22.2 0 0 1-8.5 10.3c-0.7 0.3-1.6 0.6-2 0.6h-0.7l0.2-4a33.5 33.6 0 0 1 2.4-12.4c0.2-0.6 2.2-3 4.2-5.4c11.7-14 18-23.5 20.7-31.1c1.5-4.4 1.5-7.4 0-9.6c-1.3-2-3.5-2.1-7.5 0a16 16 0 0 0-5 3.9a46 46 0 0 0-6.8 8.4a115 115 0 0 0-12.3 31.9c-0.4 1.7-0.9 3.5-1.2 4a75 75 0 0 1-12.7 12.6a4 4 0 0 1-3.3 1l-0.7-0.1v-3.4c0-1.8 0.1-4.1 0.3-5.1c0.4-3 2-8.8 2.6-10a50.3 50.4 0 0 1 3.3-4c16.6-19.7 23.8-32.3 22-38.7a4 4 0 0 0-3.8-3zm-5 6.7l0.3 0.5c0.7 0.8 0.7 4.5 0 7c-0.6 2.2-3.2 7.7-5.2 10.7c-2 3-5.4 7.6-7 9.3c-1.4 1.5-1.8 1.7-2 1.3a74.9 75 0 0 1 6.8-16.4a211.3 211.8 0 0 1 6.6-12zm22.3 1.3c0.3 0 0.4 1 0.4 3.5c0 4.1-0.3 5.3-3 10.7c-1.6 3.4-6.5 10.9-9.2 14.4c-1.3 1.8-1.7 2.1-2 1.8c-0.3-0.3-0.1-1 0.7-3.6a181 181.4 0 0 1 12.3-26c0.4-0.5 0.6-0.8 0.8-0.8zm-79.1 13c-0.8 0-2.8 2.1-3.2 3.3c-0.9 2.1 0.2 5.9 2 7c1 0.7 1.9 0.7 3 0a6 6 0 0 0 2.6-3.3c0.5-2.2-2.5-7-4.4-7zm1.7 20.7h-1.4c-1.1 0-1.4 0.3-2.1 1c-0.5 0.6-0.8 1.2-0.8 1.6c0 4.1-0.3 8.9-0.6 10.5c-1 5.2-2.4 9.8-3.4 11.3a261.7 262.3 0 0 1-11.2 10.3c-9.6 8-15 13.5-18.9 19.1c-4 6-6.5 11.7-6.5 16.2c0 3.6 1.5 7 3.5 7.8c2 1 4.7 0.5 7.5-1.2a52.5 52.7 0 0 0 9.4-9.4a145 145.2 0 0 0 17-28.5c1.6-4 1.9-4.1 3.7-6c2.4-2.4 2.5-2.7 1.7-4.3c-0.7-1.6-0.8-0.9 1.8-9.3c2.6-7.8 3.1-10 3.3-12.2c0.1-2.6-0.4-4.3-2-5.8zm81.8 6.4c1.4 0 2.3 1 2.3 2.6a49.3 49.4 0 0 1-3.2 9.8a8 8 0 0 1-3.6 3.9c-2.4 1-4.9-0.6-5.4-3.4c-0.4-2.6 1.2-6.4 3.9-9.7c1.8-2.2 4.2-3.3 6-3.2zm-69.6 5c0.2 0 0.6 0.1 1 0.5c1.4 1.2 3.2 1.5 6.2 1c0.5-0.1 0.5 0 0.5 0.9c0 2.2-3.2 7.1-5.5 8.8v-0.1c-3.4 2.3-5.5-0.9-4.4-6.5c0.6-2 1.5-4.2 2-4.5l0.2-0.1zm-26.6 25.2c0.9 0.5-1.1 4.7-5.1 11a55 55 0 0 1-14.7 17.7c-1.3 0.7-2 0.8-3 0.4c-0.7-0.3-1-0.9-1-2.3a8.3 8.3 0 0 1 1.3-4.1a59.7 59.8 0 0 1 22.5-22.7z" />
  <path d="m259.3 149a57.1 57 0 0 1-8.8-9.8c6.6-10.9 21.7-18 26-19.8c2.3 2.3 8.5 7.8 17.1 8.8c-3.6 1.3-26 9.5-34.3 20.9m9.9 24.6c-1 10.7-7.6 19.7-16.7 27a24 24 0 0 0 4.3-11.6c0.8-10.1-6-17.1-12.8-23.8c-6.8-7-13.2-13.4-12.3-23c1-11.4 7.8-21.6 16.1-30a34.3 34.2 0 0 0-4.6 13.2c-1 12.5 7 20.1 14 26.9c6.6 6.3 12.7 12.2 12 21.3m-45.9 44.2a64.1 64 0 0 0 21-25.3a36.4 36.3 0 0 0 3.4-17.7c3.3 4.2 5.6 8.6 5.1 13.9c-1.2 13.5-17.3 23.2-17.5 23.3c-4 2-8 4-12 5.8m46.3-99.5c-6.3 3.2-15.5 9-21 16.8a20.2 20.2 0 0 1-1.5-9.4c1-10.5 12-22.8 13.7-24.7c6.4-4.8 12.6-8.4 16.8-10.8c-3 6.3-7.4 17.2-8 28m66.4-3a2 2 0 0 0-2.5-1.3l-14 5c-6 2-13 4-18.9 5.2c-12.9 2.4-22-8.2-22.1-8.3a2 2 0 0 0-2.2-0.6l-2.7 1.1a86.2 86 0 0 1 10.2-29.6a2 2 0 0 0-2.5-2.7c-0.5 0.2-12.7 6-25.4 16c-17.4 13.5-26.9 27.6-28.1 41.8c-1 11.6 6.4 19 13.5 26l1.2 1.4c2.4 6.4 1.8 14-1.7 21.9a67.1 67 0 0 1-37.5 33.3l-10.2 3.7a2 2 0 0 0 1 3.8a195.9 195.6 0 0 0 43.1-16.5c22.5-12 34.5-26 35.8-41.3c0.9-10-4.7-16.4-11-22.3c7.9-11.3 33.1-20 33.3-20l25-9a278.5 278.1 0 0 0 14.6-5.2a2 2 0 0 0 1-2.4"/>
  <path d="m42.8 254.7c-0.7 0-6.7 0.1-9 4.3a7 7 0 0 0-0.4 6c1.3 3.6 5.8 4.5 9.4 5.5c3.2 1 5.2 1.5 6.5 3.7c0.5 0.8 0.5 2 0 2.9c-1.3 2-3.2 3-6.5 3.1c-3.1 0-5.7-1.6-6.4-4.4l-4.1-0.1c0.5 5.7 6.2 8 10.5 8c4.9 0 9-2 10.5-5.2c1.2-2.7 0.2-5.3 0.1-5.5c-1.5-3.9-5.9-4.7-9.6-5.8c-3-0.9-5.6-1.4-6.3-3.4a4 4 0 0 1 0.2-3.2c1.3-2.4 5-2.4 5-2.4c3.3 0 5 0.7 6.2 3.5h4c-0.3-5.6-5.9-7-10.1-7zm164.8 0c-0.7 0-6.7 0.1-9 4.3a7 7 0 0 0-0.4 6c1.3 3.6 5.8 4.5 9.4 5.5c3.2 1 5.2 1.5 6.5 3.7c0.5 0.8 0.5 2 0 2.9c-1.3 2-3.2 3-6.5 3.1c-3.1 0-5.7-1.6-6.4-4.4l-4.1-0.1c0.4 5 4.9 7.4 8.8 7.9l1.7 0.1c4.9 0 9-2 10.5-5.2c1.2-2.7 0.2-5.3 0-5.5c-1.4-3.9-5.8-4.7-9.5-5.8c-3-0.9-5.6-1.4-6.4-3.4c-0.3-1-0.2-2.3 0.3-3.2c1.3-2.4 5-2.4 5-2.4c3.3 0 5 0.7 6.2 3.5h4c-0.3-5.6-6-7-10.1-7zm84.2 0c-7.2 0-13 6.3-13 14.5c0 7.7 5 13.7 11.6 14.4l1.4 0.1c7 0 12.9-6.3 12.9-14.5s-5.8-14.5-13-14.5zm32.8 0c-0.7 0-6.7 0.1-9 4.3c-1 1.8-1.1 4-0.4 6c1.4 3.6 5.8 4.5 9.4 5.5c3.2 1 5.2 1.5 6.5 3.7c0.5 0.8 0.5 2 0 2.9c-1.3 2-3.1 3-6.5 3.1c-3.1 0-5.7-1.6-6.3-4.4l-4.2-0.1c0.4 5 5 7.4 8.9 7.9l1.6 0.1c4.9 0 9-2 10.5-5.2c1.2-2.7 0.3-5.3 0-5.5c-1.3-3.9-5.8-4.7-9.4-5.8c-3.2-0.9-5.6-1.4-6.4-3.4a4 4 0 0 1 0.3-3.2c1.3-2.4 5-2.4 5-2.4c3.3 0 5 0.7 6 3.5h4.2c-0.3-5.6-6-7-10.2-7zm-249 0.3l-11.6 28.3h4.5l2.8-7.4h11.1l2.9 7.4h4.5l-11.6-28.3zm26.2 0v28.3h4.2v-28.3zm18.4 0v28.3h18.4v-3.3h-14.2v-25zm29 0v28.3h4.2v-12.5h12v-3.5h-12v-8.8h14.5v-3.5zm31.3 0v28.3h4v-28.3zm49.6 0v28.3h4.2v-12.3h13.3v12.4h4.2v-28.4h-4.2v12.4h-13.3v-12.4zm61.7 3.2c5.3 0 8.7 5.3 8.7 11c0 5.8-3.3 11-8.7 11c-5.4 0-8.8-5.2-8.8-11c0-0.7 0-1.4 0.2-2.1c0.7-4.9 3.9-9 8.6-9zm-215 3.1l4.3 11.2h-8.5z"/>
</svg>