<svg xmlns="http://www.w3.org/2000/svg" viewBox="0 0 160 160">
<rect width="160" height="160"/>
<path fill="#FFFFFE" d="M104.138 85.018h-6.078v-16.85h6.078c1.791 0 3.381 0.355 4.77 1.066c1.39 0.71 2.475 1.709 3.256 2.994c0.78 1.286 1.17 2.741 1.17 4.365s-0.39 3.08-1.17 4.365c-0.781 1.285-1.866 2.284-3.255 2.994c-1.39 0.71-2.98 1.066-4.77 1.066m-0.241-22.805h-12.728v28.76h12.727c3.26 0 6.136-0.631 8.627-1.895c2.491-1.263 4.42-2.988 5.787-5.177c1.366-2.187 2.05-4.623 2.05-7.308c0-2.684-0.684-5.12-2.05-7.308c-1.367-2.188-3.296-3.914-5.787-5.177c-2.491-1.263-5.367-1.895-8.627-1.895m33.668 28.765v-9.425l12.348-19.335h-7.578l-8.214 13.246l-8.284-13.246h-7.577l12.417 19.336v9.424h6.888m-80.633-29.977v29.944h6.682v-16.545l22.698 17.73v-29.945h-6.648v16.545l-22.732-17.729m79.538 41.707h1.083v-5.915h-1.238v3.617l-2.615-3.617h-1.084v5.915h1.239v-3.6l2.614 3.6zm-7.863-1.022c-0.946 0-1.187-0.575-1.187-1.116v-1.64c0-0.54 0.241-1.114 1.187-1.114c0.955 0 1.196 0.574 1.196 1.115v1.64c0 0.54-0.241 1.115-1.196 1.115zm0 1.124c1.936 0 2.503-1.141 2.503-2.172v-1.775c0-1.03-0.567-2.172-2.503-2.172c-1.926 0-2.494 1.142-2.494 2.172v1.775c0 1.03 0.568 2.172 2.494 2.172zm-5.307-0.102h1.308v-5.915h-1.308v5.915zm-1.187-4.791v-1.124h-4.843v1.124h1.764v4.791h1.307v-4.79h1.772zm-6.985 2.696v0.236c0 0.414-0.25 0.837-1.118 0.837c-0.886 0-1.127-0.533-1.127-1.048v-1.775c0-0.515 0.24-1.047 1.127-1.047c0.869 0 1.118 0.422 1.118 0.82v0.177h1.29v-0.246c0-0.887-0.567-1.876-2.408-1.876c-1.866 0-2.435 1.142-2.435 2.172v1.775c0 1.03 0.569 2.172 2.435 2.172c1.84 0 2.408-1.006 2.408-1.893v-0.304h-1.29zm-8.954 2.095h4.18v-1.073h-2.873v-1.453h2.546v-1.04h-2.546v-1.276h2.77v-1.073h-4.077v5.915zm-1.566-2.34v-1.1h-2.59v-1.369h2.814v-1.107h-4.12v5.915h1.307v-2.34h2.59zm-7.681 0.338l0.911 2.002h1.394l-1.04-2.23c0.85-0.347 1.134-1.032 1.134-1.733c0-0.997-0.567-1.952-2.511-1.952h-2.357v5.915h1.307v-2.002h1.162zm-0.104-2.84c0.955 0 1.179 0.457 1.179 0.896c0 0.44-0.224 0.887-1.179 0.887h-1.058v-1.783h1.058zm-7.973 4.842h4.181v-1.073h-2.873v-1.453h2.546v-1.04h-2.546v-1.276h2.77v-1.073h-4.078v5.915zm-3.801-4.825c0.963 0 1.195 0.499 1.195 0.997c0 0.49-0.232 0.989-1.195 0.989h-1.033v-1.986h1.033zm0.025 3.067c1.944 0 2.503-1.03 2.503-2.078c0-1.048-0.559-2.079-2.503-2.079h-2.365v5.915h1.307v-1.758h1.058zm-7.372 1.758h1.084v-5.915h-1.238v3.617l-2.615-3.617h-1.084v5.915h1.239v-3.6l2.614 3.6zm-7.862-1.022c-0.946 0-1.187-0.575-1.187-1.116v-1.64c0-0.54 0.241-1.114 1.187-1.114c0.955 0 1.196 0.574 1.196 1.115v1.64c0 0.54-0.24 1.115-1.196 1.115zm0 1.124c1.936 0 2.503-1.141 2.503-2.172v-1.775c0-1.03-0.567-2.172-2.503-2.172c-1.927 0-2.494 1.142-2.494 2.172v1.775c0 1.03 0.567 2.172 2.494 2.172zm-5.307-0.102h1.307v-5.915h-1.307v5.915zm-1.187-4.791v-1.124h-4.843v1.124h1.763v4.791h1.308v-4.79h1.772zm-6.985 2.696v0.236c0 0.414-0.25 0.837-1.118 0.837c-0.886 0-1.127-0.533-1.127-1.048v-1.775c0-0.515 0.241-1.047 1.127-1.047c0.869 0 1.118 0.422 1.118 0.82v0.177h1.29v-0.246c0-0.887-0.568-1.876-2.408-1.876c-1.867 0-2.434 1.142-2.434 2.172v1.775c0 1.03 0.567 2.172 2.434 2.172c1.84 0 2.409-1.006 2.409-1.893v-0.304h-1.29zm-8.955 2.095h4.181v-1.073h-2.873v-1.453h2.546v-1.04h-2.546v-1.276h2.77v-1.073h-4.078v5.915zm-2.744 0h1.085v-5.915h-1.24v3.617l-2.614-3.617h-1.084v5.915h1.239v-3.6l2.614 3.6zm-6.597 0h1.084v-5.915h-1.24v3.617l-2.614-3.617h-1.085v5.915h1.239v-3.6l2.615 3.6zm-7.865-1.022c-0.946 0-1.186-0.575-1.186-1.116v-1.64c0-0.54 0.24-1.114 1.186-1.114c0.955 0 1.196 0.574 1.196 1.115v1.64c0 0.54-0.24 1.115-1.196 1.115zm0 1.124c1.936 0 2.504-1.141 2.504-2.172v-1.775c0-1.03-0.568-2.172-2.504-2.172c-1.926 0-2.494 1.142-2.494 2.172v1.775c0 1.03 0.568 2.172 2.494 2.172zm-5.006-2.197v0.236c0 0.414-0.25 0.837-1.118 0.837c-0.886 0-1.127-0.533-1.127-1.048v-1.775c0-0.515 0.241-1.047 1.127-1.047c0.869 0 1.118 0.422 1.118 0.82v0.177h1.29v-0.246c0-0.887-0.567-1.876-2.408-1.876c-1.867 0-2.435 1.142-2.435 2.172v1.775c0 1.03 0.568 2.172 2.435 2.172c1.84 0 2.408-1.006 2.408-1.893v-0.304h-1.29zm-15.002-9.64h30.144v-6.213h-23.256v-22.547h-6.888v28.76m34.992 0h6.888v-28.76h-6.888z"/>
<path fill="#C7242C" d="M21.652 80.273h18.385v-18.06h-18.385z"/>
</svg>