<svg version="1.1" xmlns="http://www.w3.org/2000/svg" viewBox="11 84 3504 1136">
<path d="M1397.4 568.561l142.02-9.711l-12.506 102.112l-131.651 7.746l1.602 9.923l128.814-7.579l-12.779 104.34l-99.852 3.511 l1.606 9.949l97.016-3.411l-13.054 106.588l-67.018 1.806l1.607 9.959l64.181-1.729l-12.072 98.57l9.926 1.216l12.199-99.608 l59.424 5.779l0.292-10.019l-58.5-5.689l13.097-106.938l48.525 5.535l0.292-10.031l-47.602-5.43l12.751-104.116l37.929 3.933 l0.292-10.023l-37.005-3.837l12.572-102.655l27.462 2.583l0.292-10.016l-26.538-2.497l12.427-101.47l17.082 2.032l0.292-10.036 l-16.159-1.922l27.227-222.313l15.947 2.523v106.193l10 5.662v-25.709l13.657 2.807v30.634l10 5.662v-44.45l-23.657-4.861v-84.481 l-24.731-3.912l0.007-0.06l-0.197 0.03l-0.2-0.032l-0.01 0.063l-150.995 23.072l-58.198 365.811l5.099 31.596L1397.4 568.561z  M1450.142 237.037l131.144-20.038l-12.919 105.489l-134.101 14.342L1450.142 237.037z M1432.638 347.061l134.481-14.383 l-12.807 104.571l-137.849 11.484L1432.638 347.061z M1414.845 458.904l138.225-11.516l-12.413 101.354l-141.645 9.685 L1414.845 458.904z M1848.086 679.413c3.073-17.606 6.578-34.218 10.56-50.028c11.861 54.898 47.87 118.688 82.959 180.821 c2.15 3.807 4.303 7.621 6.455 11.438c0.215-0.159 0.431-0.319 0.643-0.474c1.987-1.463 3.864-2.845 5.506-4.28 c0.085-0.245 0.167-0.568 0.236-0.914c-1.478-2.596-2.433-5.425-2.826-8.374c-0.435-0.771-0.871-1.543-1.306-2.313 c-39.533-70.003-80.269-142.152-85.225-199.416c1.424-4.793 2.896-9.52 4.422-14.179c0.59-0.288 1.205-0.561 1.815-0.837 c7.476 51.398 42.614 114.19 79.574 180.229c2.302 4.113 4.607 8.233 6.91 12.358c0.76-4.083 2.757-7.714 5.58-10.515 c-1.255-2.244-2.51-4.487-3.764-6.727c-35.459-63.358-72.005-128.661-78.679-178.978c11.385-3.536 25.309-5.512 41.951-5.978 c6.015 15.087 16.517 34.863 28.855 58.089c27.548 51.859 63.105 118.803 76.996 184.648c0.243 8.543 0.402 17.403 0.494 26.444 c0.902 1.386 1.64 2.885 2.179 4.472c1.668 4.908 1.341 10.373-0.889 15.049l8.804 0.417c0.005-31.034-0.656-61.083-2.47-85.317 c-5.633-75.254-15.512-134.612-31.27-186.164c1.357-0.11 2.665-0.765 3.561-1.929c1.684-2.189 1.274-5.329-0.916-7.012 c-2.179-1.676-4.518-3.234-7.01-4.682c-0.028-0.083-0.056-0.164-0.083-0.247c0.212 0.027 0.425 0.051 0.638 0.051 c1.499 0 2.982-0.672 3.967-1.953c1.684-2.189 1.274-5.328-0.916-7.011c-2.689-2.068-5.631-3.95-8.821-5.657 c-1.688-4.576-3.424-9.105-5.223-13.577c-8.35-20.77-19.147-41.631-29.623-57.235c-4.466-6.653-18.056-26.897-30.001-26.897v10 c2.288 0 9.766 4.696 21.698 22.471c10.104 15.051 20.545 35.24 28.647 55.392c0.589 1.465 1.167 2.94 1.743 4.416 c-13.902-4.635-31.279-6.914-52.469-6.914c-20.754 0-37.846 2.189-51.602 6.635c0.541-1.382 1.081-2.764 1.633-4.136 c8.102-20.151 18.543-40.341 28.647-55.392c11.932-17.774 19.411-22.471 21.698-22.471v-10c-2.954 0-11.944 0-30.001 26.897 c-10.475 15.604-21.272 36.465-29.623 57.235c-1.733 4.31-3.408 8.671-5.039 13.077c-3.532 1.822-6.762 3.857-9.698 6.108 c-2.191 1.68-2.605 4.819-0.925 7.01c1.242 1.62 3.281 2.262 5.146 1.81c-2.723 1.542-5.268 3.212-7.625 5.019 c-2.192 1.68-2.606 4.818-0.926 7.01c1.051 1.371 2.672 2.046 4.275 1.949c-4.564 14.928-8.632 30.517-12.25 46.951 L1848.086 679.413z M2026.241 777.455c-17.394-51.909-43.967-101.973-65.659-142.811c-11.282-21.238-20.992-39.521-26.938-53.491 c4.689 0.045 9.174 0.203 13.458 0.474c4.256 9.594 10.104 21.311 16.811 34.736c18.046 36.126 43.376 86.853 60.767 143.116 C2025.229 765.368 2025.751 771.355 2026.241 777.455z M1992.963 592.135c11.762 36.013 20.452 75.849 26.678 122.512 c-15.439-39.992-33.159-75.482-46.782-102.754c-5.506-11.022-10.427-20.875-14.303-29.214 C1972.433 584.389 1983.857 587.52 1992.963 592.135z M1874.492 577.193c13.659-6.101 32.231-9.094 56.293-9.094 c24.611 0 43.468 3.139 57.207 9.524c0.211 0.586 0.416 1.178 0.625 1.766c-15.005-5.54-34.138-8.262-57.834-8.262 c-23.238 0-42.089 2.617-56.962 7.943C1874.045 578.444 1874.267 577.818 1874.492 577.193z M1624.165 467.471l1.159 10.667 l111.771-41.245l0.326-0.121l0.035-11.107l-112.925 41.67L1624.165 467.471z M1661.019 394.301l0.036-11.107l-44.273 16.337 l1.159 10.667l42.753-15.776L1661.019 394.301z M1622.854 361.957l-9.764 3.604l1.159 10.667l8.57-3.163L1622.854 361.957z  M1622.319 450.487l1.159 10.667l94.517-34.878l0.326-0.121l0.035-11.107l-95.671 35.304L1622.319 450.487z M1641.954 372.575 l-27.019 9.971l1.159 10.667l25.824-9.53L1641.954 372.575z M1680.12 404.918l0.035-11.106l-61.527 22.704l1.159 10.667 l60.007-22.144L1680.12 404.918z M1593.383 330.612V969.27h10.008V434.753l9.391 97.724v476.05h10V804.115h16.878v204.411h10 V759.615l110.217-11.594v48.608h10v-47.477l57.036 16.803l2.826-9.593l-59.862-17.635V587.249l51.095 18.274l15.228 142.564 c0.938-1.399 1.932-2.641 2.876-3.719c0.061-0.54 0.115-1.078 0.16-1.573c0.41-4.583 2.309-8.665 5.196-11.8l-29.715-278.198 l-0.345 0.352l-221.074-123.422L1593.383 330.612z M1639.66 794.114h-16.878V643.314h16.878 C1639.66 643.314 1639.66 794.114 1639.66 794.114z M1639.66 633.314h-16.878v-99.766l16.878-6.453 C1639.66 527.095 1639.66 633.314 1639.66 633.314z M1759.877 737.965L1649.66 749.56V597.297l110.217-11.594 C1759.877 585.703 1759.877 737.965 1759.877 737.965z M1759.877 575.649l-110.217 11.594v-58.447l110.217-14.13 C1759.877 514.666 1759.877 575.649 1759.877 575.649z M1819.793 594.481l-49.916-17.853v-63.739l37.148-37.942L1819.793 594.481z  M1764.608 503.977l-97.014 12.438l135.594-51.842L1764.608 503.977z M1798.412 455.693l-176.478 67.473l-16.857-175.41 L1798.412 455.693z M1699.22 415.536l0.035-11.107l-78.416 28.937l-0.366 0.135l1.159 10.667l77.262-28.511L1699.22 415.536z  M1626.011 484.457l1.159 10.667l129.025-47.612l0.326-0.121l0.035-11.107l-130.179 48.038L1626.011 484.457z M1627.75 500.087 v12.61l146.69-54.395l0.326-0.121v-11.733l-146.688 53.519L1627.75 500.087z M1763.444 499.116l0.166-0.023l23.832-23.832 l-86.172 32.571L1763.444 499.116z M3311.663 1186.314l11.537-4.59h36.476l13.918 14.542h12.775l7.44-6.601h31.925 c-6.479-3.154-13.738-6.525-21.735-10h-13.987l-7.44 6.601h-4.707l-13.918-14.542h-42.664l-9.527 3.791L3311.663 1186.314z  M2553.809 1045.004l4.415-0.85v-12.093l-4.415 0.851V1045.004z M2547.853 1034.005l-4.415 0.851v12.093l4.415-0.85V1034.005z  M2542.925 834.809v8.274l3.966 9.387l4.901-1.895l-3.883-9.034v-8.626L2542.925 834.809z M2555.703 830.118v8.274l3.966 9.387 l4.901-1.895l-3.883-9.034v-8.626L2555.703 830.118z M2558.45 1003.505l-4.867 0.95v20.279l4.867-0.97V1003.505z M2620.726 929.266 v25.289l8.766 1.262v-25.263L2620.726 929.266z M2260.228 966.611v52.139h9.924l0.02-43.765l24.531-9.514l-0.091 44.835l0.091-0.031 l17.771 0.062l0 0v-45.651l68.201 14.297v41.973l0.109 0.017h17.662v-50.155h-18.019l-67.92-13.985l-17.502-0.011l-25.073 9.79 h-9.704V966.611z M2283.198 924.483v5.307l2.523 5.972l2.177-0.842l-2.555-5.945v-5.307L2283.198 924.483z M2360.093 1017.753 v-26.208l-6.302-0.926v26.152L2360.093 1017.753z M2671.983 936.58v25.354l8.766 1.262v-25.328L2671.983 936.58z M2372.376 1019.665 v-18.216l-6.302-0.926v18.161L2372.376 1019.665z M2353.791 929.166v26.91l6.302 1.495v-26.928L2353.791 929.166z M2341.508 926.338 v26.91l6.302 1.495v-26.928L2341.508 926.338z M2280.955 955.161l3.499-1.463V941.85l-3.499 1.223V955.161z M2553.583 933.099 v21.425l4.867-1.134v-21.708L2553.583 933.099z M2274.012 927.855v5.307l2.523 5.972l2.177-0.842l-2.555-5.945v-5.307 L2274.012 927.855z M2654.897 922.802v36.67l8.766 1.262v-36.645L2654.897 922.802z M2637.812 920.364v36.649l8.766 1.262v-36.623 L2637.812 920.364z M2335.527 1013.927v-17.736l-6.302-0.925v17.681L2335.527 1013.927z M2347.81 1015.839v-26.047l-6.302-0.926 v25.992L2347.81 1015.839z M2416.644 1159.587c3.354-5.58 10.203-15.982 18.024-22.249c8.878-7.114 19.794-9.757 23.367-10.468 c0.857 0.33 2.041 0.81 3.528 1.351c1.611 0.593 3.568 1.313 5.813 2.139c2.239 0.833 4.769 1.764 7.578 2.694 c2.793 0.951 5.819 1.98 9.019 3.07c3.195 1.138 6.568 2.125 10.059 3.184c3.49 1.058 7.096 2.152 10.761 3.263l1.377 0.417 l0.744 0.228l0.711 0.179c0.948 0.238 1.899 0.477 2.851 0.716c1.902 0.478 3.812 0.957 5.722 1.436 c1.901 0.517 3.831 0.844 5.739 1.257c1.909 0.394 3.811 0.785 5.698 1.174c3.77 0.78 7.51 1.355 11.108 2.014 c3.596 0.67 7.102 1.129 10.408 1.666c3.306 0.533 6.445 0.945 9.338 1.348c2.891 0.412 5.545 0.759 7.9 1.045 c2.354 0.289 4.406 0.541 6.096 0.748c3.383 0.382 5.316 0.601 5.316 0.601s-1.909-0.373-5.249-1.025 c-1.666-0.342-3.69-0.757-6.011-1.233c-2.321-0.473-4.934-1.032-7.778-1.673c-2.845-0.632-5.931-1.293-9.173-2.087 c-3.241-0.797-6.682-1.533-10.192-2.484c-3.512-0.94-7.168-1.807-10.824-2.876c-1.827-0.533-3.668-1.069-5.517-1.608 c-1.841-0.556-3.719-1.032-5.527-1.685c-1.82-0.615-3.64-1.231-5.453-1.844c-0.905-0.306-1.808-0.611-2.709-0.916l-0.674-0.228 l-0.618-0.246l-1.339-0.527c-3.564-1.402-7.071-2.781-10.465-4.116c-3.394-1.335-6.697-2.599-9.703-3.955 c-3.034-1.313-5.902-2.555-8.549-3.702c-2.65-1.12-5.058-2.233-7.19-3.228c-2.133-0.986-3.992-1.845-5.523-2.553 c-1.537-0.702-2.693-1.292-3.505-1.676c-0.804-0.389-1.233-0.597-1.233-0.597l-0.012 0.026l-1.421-0.499l-1.372 0.086v0.008 c-0.596 0.087-4.695 0.731-10.218 2.592c-0.082-4.466-0.146-8.916-0.19-13.061l0.051-14.528h-0.098 c0.017-1.832 0.045-3.353 0.089-4.432c0.715-0.284 1.641-0.591 2.459-0.806c2.859-0.495 38.095-6.515 64.685-7.216 c24.934-0.655 88.45 1.682 101.824 2.192v22.119l22.247 14.486h102.604l10.086-8.333l30.08-0.942c0.3 3.389 0.706 8.486 0.89 13.071 c0.308 7.657 0.001 19.224-0.002 19.34l-0.055 2.303l1.702 1.543c0.027 0.025 2.772 2.528 4.911 5.735 c1.698 2.547 3.569 5.583 4.562 7.212v25.449c0 2.761 2.239 5 5 5s5-2.239 5-5v-28.227l-0.71-1.186 c-0.119-0.199-2.952-4.926-5.532-8.796c-1.646-2.469-3.515-4.575-4.832-5.944c0.077-3.812 0.189-11.82-0.052-17.831 c-0.183-4.568-0.567-9.512-0.869-12.983l152.741-4.782v-10.004l-194.772 6.098h-120.497l-2.505-1.631v-1.784l317.771-16.142v-10.013 l-317.771 16.142v-5.676l317.771-18.771v-10.017l-21.694 1.281v-15.885c7.363 1.034 14.603 1.882 21.694 2.576v-10.041 c-7.092-0.707-14.333-1.57-21.694-2.625v-37.052c13.069 3.177 26.075 6.074 38.792 8.715v-9.382 c-47.054-9.993-97.6-23.535-140.014-41.394c-37.551-15.811-73.176-36.88-104.237-58.191c-3.374-2.315-6.694-4.632-9.957-6.947 c-1.596-1.132-3.176-2.263-4.744-3.392c-1.575-1.134-3.134-2.267-4.68-3.396c-0.1-0.073-0.2-0.146-0.299-0.219 c-1.554-1.137-3.094-2.271-4.617-3.402c-33.826-25.116-60.135-48.63-74.45-62.059c-1.403-1.316-2.69-2.535-3.859-3.65 c-0.01-0.009-0.019-0.019-0.029-0.028c-0.567-0.541-1.104-1.056-1.614-1.545c-0.02-0.019-0.04-0.039-0.059-0.057 c-1.53-1.471-2.795-2.705-3.791-3.684c-0.06-0.059-0.119-0.117-0.177-0.174c-0.245-0.241-0.471-0.464-0.68-0.671 c-0.066-0.065-0.138-0.136-0.2-0.198c-0.239-0.237-0.461-0.458-0.646-0.643c-0.046-0.046-0.113-0.114-0.194-0.197 c-0.027-0.027-0.062-0.064-0.093-0.095c-0.061-0.062-0.124-0.127-0.198-0.203c-0.046-0.047-0.097-0.101-0.147-0.152 c-0.07-0.072-0.141-0.146-0.219-0.226c-0.065-0.067-0.133-0.138-0.203-0.21c-0.065-0.068-0.132-0.137-0.2-0.208 c-0.106-0.11-0.214-0.222-0.327-0.34c-0.014-0.015-0.029-0.03-0.044-0.045c-0.139-0.146-0.283-0.295-0.43-0.448 c-0.037-0.039-0.074-0.078-0.112-0.116c-0.125-0.13-0.25-0.261-0.377-0.393c-0.039-0.041-0.078-0.081-0.116-0.121 c-1.476-1.539-3.034-3.168-3.218-3.363v-55.123l87.098 26.991v53.774l-23.442-6.43l2.547-6.027v-8.338l-4.984-1.431v8.497 l-2.628 5.91l-6.196-1.7l2.586-6.12v-8.338l-4.984-1.431v8.497l-2.669 6.002l-6.599-1.811l2.591-6.131v-8.337l-4.984-1.432v8.497 l-2.674 6.014l-13.686-3.754c4.183 3.956 9.617 8.984 16.137 14.795l48.987 13.437l-0.021 22.217l1.238 5.788 c4.314 3.295 8.773 6.633 13.36 9.992l1.65-9.289l2.141 12.048c3.352 2.425 6.766 4.857 10.246 7.291v-7.784l3.862-18.046v-0.822 h0.012v-5.457c7.185 9.202 19.915 25.03 35.699 42.617c10.957 12.209 21.584 23.293 31.859 33.252 c10.45 5.462 21.136 10.621 31.998 15.341c-30.209-25.095-58.938-57.414-77.373-79.641c33.615 28.65 91.405 73.079 156.094 101.812 c10.499 4.663 20.621 8.979 30.334 12.971c10.657 2.602 21.277 5.012 31.739 7.253v-5.458c-17.628-6.69-37.046-14.592-58.013-23.905 c-92.496-41.085-170.802-114.944-182.335-126.101v-57.085h3.88v-10h-3.88v-35.259l2.754 1.48v-6.174l-2.062-1.194l-1.875-3.552 l-12.551-43.53v-2.804l0.482-0.839v-1.385l0.939-0.889v-1.131l-1.917-0.999v-3.11l2.013 1.362l1.534-1.748l-2.396-1.725l3.355-1.452 l-1.41-3.268l-3.263 1.471v-5.352c0 0 1.072-0.295 1.072-1.478s-1.107-1.378-1.107-1.378v-1.776l-1.625-0.829l-1.625 0.829v1.776 c0 0-1.107 0.196-1.107 1.378s1.072 1.478 1.072 1.478v5.352l-3.263-1.471l-1.41 3.268l3.355 1.452l-2.396 1.725l1.534 1.748 l2.013-1.362v3.11l-1.917 0.999v1.131l0.939 0.889v1.385l0.482 0.839v2.804l-12.551 43.53l-1.478 2.8h-0.076v0.144l-0.321 0.608 l-1.99 1.152l-3.179-6.542H2681l-1.583 5.083l-4.5-1.333l-7.874-16.395v43.625l7.462 2.462v-3.465l3.335 1.134v3.432l4.847 1.6 v-3.583l3.335 1.134v3.55l2.384 0.787v6.899l-87.098-26.991v-8.65l4.607 1.52v-4.558l3.335 1.134v4.524l4.847 1.599v-4.676 l3.335 1.134v4.643l4.847 1.599v-4.794l3.335 1.134v4.761l4.061 1.34v-53.339l5.428-2.71l6.68 2.71l7.88-10.255l7.541 15.955 l2.517 1.104l-23.307-48.532v-4.37c0 0 2.469-0.818 2.469-2.112s-1.378-1.77-1.378-1.77s-1.214-0.501-3.137-1.296v-2.235 l-2.103-3.257v-11.018l-1.33-1.73l-1.52 1.558v8.192l-8.956-17.493v-9.092l0.642-2.063l-1.211-2.153v-5.797l0.826-1.172 l-1.548-2.178l-1.483 2.209l0.925 1.116v5.865l-1.213 2.171l0.688 2.001v8.581l-9.227 9.739v-10.584l-1.561-1.764l-1.594 1.595 v13.223l-1.642 1.874v2.079l-2.27 1.271c0 0-1.802 0.747-1.752 2.227c0.051 1.479 2.34 1.858 2.34 1.858v4.513l-10.134 19.937 l-4.673-17.111v-2.96l0.482-0.886v-1.462l0.939-0.938v-1.194l-1.917-1.054v-3.283l2.013 1.438l1.534-1.845l-2.396-1.821l3.355-1.533 l-1.41-3.451l-3.263 1.553v-5.651c0 0 1.072-0.312 1.072-1.56s-1.107-1.455-1.107-1.455v-1.875l-1.625-0.875l-1.625 0.875v1.875 c0 0-1.107 0.207-1.107 1.455s1.072 1.56 1.072 1.56v5.651l-3.263-1.553l-1.41 3.451l3.355 1.533l-2.396 1.821l1.534 1.845 l2.013-1.438v3.283l-1.917 1.054v1.194l0.939 0.938v1.462l0.482 0.886v2.96l-12.551 45.959l-1.478 2.956h-0.086v0.152l-0.321 0.642 l-0.682 0.417l-14.994-5.365l1.71 4.461l2.117-0.261l3.076 1.174l-0.088 8.452l2.927 4.737l-0.008 34.289l6.264-3.066v9.616 l-31.165 14.404l-0.051-43.294l4.982-18.343l-1.568 0.113l-7.068-23.954v-2.74l0.482-0.82v-1.353l0.939-0.869v-1.105l-1.917-0.976 v-3.039l2.013 1.331l1.534-1.708l-2.396-1.686l3.355-1.419l-1.41-3.194l-3.263 1.438v-5.23c0 0 1.072-0.288 1.072-1.444 c0-1.155-1.107-1.347-1.107-1.347v-1.735l-1.625-0.81l-1.625 0.81v1.735c0 0-1.107 0.191-1.107 1.347 c0 1.156 1.072 1.444 1.072 1.444v5.23l-3.263-1.438l-1.41 3.194l3.355 1.419l-2.396 1.686l1.534 1.708l2.013-1.331v3.039 l-1.917 0.976v1.105l0.939 0.869v1.353l0.482 0.82v2.74l-12.551 42.536l-1.478 2.736h-0.076v0.141l-0.321 0.594l-2.062 1.167v6.208 l2.383-1.252v34.974h-3.597v10h3.597v12.135l-117.366 61.294l-6.464-22.42v-2.016l0.346-0.604v-0.996l0.675-0.639v-0.813 l-1.378-0.718v-2.235l1.447 0.979l1.103-1.256l-1.723-1.24l2.412-1.044l-1.013-2.35l-2.346 1.058v-3.848 c0 0 0.771-0.212 0.771-1.062c0-0.851-0.796-0.991-0.796-0.991v-1.276l-1.168-0.596l-1.168 0.596v1.276c0 0-0.796 0.141-0.796 0.991 s0.771 1.062 0.771 1.062v3.848l-2.346-1.058l-1.013 2.35l2.412 1.044l-1.723 1.24l1.103 1.256l1.447-0.979v2.235l-1.378 0.718 v0.813l0.675 0.639v0.996l0.346 0.604v2.016l-9.023 31.294l-0.699 1.324l-2.456 1.283l-1.909-3.928h-1.378l-1.138 3.654 l-3.235-0.958l-5.66-11.787v19.976l-3.559 1.858v-6.498l-6.302-1.947v11.736l-10.154 5.303l-27.242-8.442v-6.219l3.312 1.093v-3.276 l2.398 0.815v3.252l3.484 1.15v-3.362l2.398 0.815v3.338l3.484 1.149v-3.446l2.398 0.815v3.423l2.919 0.963v-38.346l3.902-1.948 l4.803 1.948l5.665-7.372l5.422 11.47l1.81 0.794l-16.756-34.89v-3.142c0 0 1.775-0.588 1.775-1.519s-0.99-1.272-0.99-1.272 s-0.873-0.36-2.255-0.932v-1.606l-1.512-2.341v-7.921l-0.956-1.244l-1.093 1.12v5.889l-6.439-12.576v-6.536l0.462-1.483 l-0.871-1.548v-4.167l0.594-0.843l-1.113-1.565l-1.066 1.588l0.665 0.803v4.216l-0.872 1.561l0.494 1.439v6.168l-6.634 7.001v-7.609 l-1.122-1.269l-1.146 1.146v9.506l-1.18 1.347v1.495l-1.632 0.914c0 0-1.296 0.537-1.259 1.601c0.037 1.063 1.682 1.335 1.682 1.335 v3.244l-7.285 14.333l-3.359-12.302v-2.128l0.346-0.637v-1.051l0.675-0.675v-0.859l-1.378-0.758v-2.36l1.447 1.034l1.103-1.326 l-1.723-1.31l2.412-1.102l-1.013-2.481l-2.346 1.117v-4.062c0 0 0.771-0.224 0.771-1.122s-0.796-1.046-0.796-1.046v-1.348 l-1.168-0.629l-1.168 0.629v1.348c0 0-0.796 0.148-0.796 1.046s0.771 1.122 0.771 1.122v4.062l-2.346-1.117l-1.013 2.481 l2.412 1.102l-1.723 1.31l1.103 1.326l1.447-1.034v2.36l-1.378 0.758v0.859l0.675 0.675v1.051l0.346 0.637v2.128l-9.023 33.041 l-1.063 2.125h-0.055v0.11l-0.231 0.461l-0.491 0.3l-10.78-3.857l1.229 3.207l1.522-0.188l2.211 0.844l-0.063 6.076l2.104 3.406 l0.037 24.594l4.461-2.155v6.92l-22.276 10.328l-0.165-28.746v-2.352l1.228-4.521l2.354-8.666l-1.127 0.081l-5.081-17.22v-1.97 l0.346-0.589v-0.973l0.675-0.625v-0.795l-1.378-0.701v-2.185l1.447 0.957l1.103-1.228l-1.723-1.212l2.412-1.02l-1.013-2.296 l-2.346 1.033v-3.76c0 0 0.771-0.207 0.771-1.038s-0.796-0.968-0.796-0.968v-1.248l-1.168-0.582l-1.168 0.582v1.248 c0 0-0.796 0.138-0.796 0.968c0 0.831 0.771 1.038 0.771 1.038v3.76l-2.346-1.033l-1.013 2.296l2.412 1.02l-1.723 1.212l1.103 1.228 l1.447-0.957v2.185l-1.378 0.701v0.795l0.675 0.625v0.973l0.346 0.589v1.97l-9.023 30.579l-1.063 1.967h-0.055v0.101l-0.231 0.427 l-1.483 0.839v4.463l1.714-0.9v25.143h-2.586v7.189h2.586v54.073h-0.015v4.988l2.644 6.498l-1.32-0.512 c-0.177 0.455-17.835 45.888-34.963 78.05c-1.879 3.527-3.832 7.048-5.818 10.526v19.593c4.945-8.05 10.01-16.716 14.645-25.419 c2.978-5.593 5.97-11.574 8.884-17.649c-0.984 3.17-2.019 6.396-3.107 9.658c-5.945 17.82-14.004 36.951-20.422 51.316v23.819 c5.01-10.44 20.198-42.867 29.908-71.97c8.825-26.453 14.27-50.686 16.441-61.154v6.599h9.857l0.094-0.039l0.007-15.668 l-3.881-9.453v-14.731l-0.009-1.994l2.85-1.298l-0.032-0.08l22.79-9.319v4.423h-0.015v5.39l2.816 13.894l-0.037 18.596l0.038-0.016 l7.188 0.026v-17.614l1.676-9.96l1.716 10.198v17.388l7.189 0.026v-18.843l2.776-13.697v-0.624h0.009v-8.606l62.615 16.091v10.808 h-0.015v5.105l2.816 13.159v10.655l0.507 0.104h6.682v-9.818l1.676-9.434l1.716 9.658v9.594h7.189v-10.946l2.776-12.972v-0.591 h0.009v-18.949l123.311-37.241v-3.58h14.042l0.02-21.396l-5.399-13.148v-20.492l-0.013-2.774l3.964-1.805l-0.045-0.111l31.7-12.962 v6.152h-0.021v7.498l3.917 19.326v26.59h10v-25.208l2.332-13.855l2.387 14.186v24.878h8.511l1.489 0.299v-27.164l3.861-19.052 v-0.868h0.012v-3.472c6.158 11.566 18.801 33.083 39.617 58.918c3.269 4.057 6.83 8.317 10.668 12.727l-56.642-11.389h-21.342 l-34.915 13.122h-13.932v71.053h12.844l0.958-0.263l0.029-60.64l34.123-12.315v63.781h23.09l0.354 0.051l1.274 0.184v-66.299 l63.707 13.354c9.061 9.774 19.436 20.102 31.16 30.598v36.008l2.782 0.4h21.925v-15.743c12.04 9.396 25.176 18.727 39.472 27.722 v45.472c3.304 1.903 6.638 3.77 10 5.6V983.37c8.407 5.005 17.182 9.884 26.341 14.584c3.597 1.846 7.217 3.6 10.85 5.302v42.833 c3.325 1.356 6.66 2.648 10 3.895v-42.217c14.097 6.078 28.374 11.145 42.61 15.367v33.995l-139.273 8.227v-90.099h-22.653 l-0.354-0.051l-98.922-14.24h-21.701l-34.438 9.437h-14.19v98.792c-3.92 0.004-7.462 0.042-10.476 0.122 c-28.329 0.747-64.801 7.125-66.339 7.396l-0.34 0.072c-7.422 1.848-8.858 4.515-9.329 5.389c-0.414 0.769-0.835 1.571-0.961 9.593 h-37.122l-1.739 0.243v-63.851l-17.596-0.033l-68.464-10.369l-17.432-0.029l-0.357 0.12v0.006l-0.614 0.199l-23.571 7.889h-10.184 v78.342h-46.349v10h92.415v5.859l5.944 5.887v61.082c0 2.761 2.239 5 5 5s5-2.239 5-5v-34.2h86.754 c-2.031 3.284-3.242 5.56-3.381 5.822l-0.578 1.095v57.255h10v-47.714l115.642-4.926L2416.644 1159.587z M2698.396 721.06h12.488 v35.708h-12.488V721.06z M2698.396 766.768h12.488v55.135h-12.488V766.768z M2698.396 831.902h12.488v5.337h-12.488V831.902z  M2291.902 899.357l-25.406 10.389l0.169-37.705l2.666-1.127l0.02 0.043l22.55-10.455L2291.902 899.357L2291.902 899.357z  M2308.069 877.118l-4.113 2.148v10.708l-4.865 2.486V852.05h8.978V877.118L2308.069 877.118z M2308.069 844.861h-8.978v-26.506 h8.978V844.861z M2515.208 839.077l-113.979 45.2v-5.031l113.957-49.039v1.826h-0.021v6.939L2515.208 839.077z M2476.12 800.634 l39.066-20.402V787l-39.066 19.307V800.634z M2427.621 825.964l38.499-20.106v5.392l-38.499 19.027V825.964z M2384.792 848.332 l32.83-17.146v4.032l-32.83 16.225V848.332z M2344.797 869.218l29.995-15.665v2.832l-29.995 14.824V869.218z M2315.258 858.221 l18.197 5.639l-18.197 9.503V858.221z M2313.955 886.452v-1.126l20.841-10.884v1.711L2313.955 886.452z M2327.691 899.516 l-11.552-2.988l199.047-98.374v21.16l-187.295 80.251L2327.691 899.516z M2394.04 882.339v4.789l-8.978 3.56v-4.485L2394.04 882.339 z M2365.321 906.981l-5.585 2.17v1.741l-19.802-5.268l37.94-16.327v4.242l-12.553 4.978V906.981z M2394.04 929.107h-8.978v-3.837 h8.978V929.107z M2524.752 872.509l-141.885 44.713l-8.221-2.165l146.912-53.517l3.194 10.767V872.509L2524.752 872.509z  M2568.81 795.858l-5.089 2.081l-3.034-7.264v-8.743l-4.984 2.294v8.225l3.159 7.475l-8.177 3.343l-2.776-6.663v-8.754l-4.984 2.333 v8.221l2.895 6.853l-12.35 5.05l0.236-52.446l3.709-1.569l0.028 0.06l31.367-14.542V795.858L2568.81 795.858z M2591.298 804.877 h-12.488v-5.752h12.488V804.877L2591.298 804.877z M2591.298 789.125h-12.488v-59.068h12.488V789.125L2591.298 789.125z  M2578.81 720.056v-36.87h12.476l0.012 36.87H2578.81z M2599.984 672.109l-3.669-13.436l10.471-34.3L2599.984 672.109z  M2756.482 965.372c-50.266-32.584-85.466-69.112-107.541-96.46c-14.941-18.511-25.654-34.925-32.66-46.773 c18.284 16.869 51.227 45.559 92.337 74.051h-14.401l-9.623-1.935c10.317 10.456 21.127 20.4 32.416 29.812V901.93 c12.531 8.44 25.744 16.791 39.472 24.738V965.372z M2798.818 948.88l-12.127 6.481l-13.344-19.283 C2781.693 940.555 2790.196 944.841 2798.818 948.88z M2766.482 943.731l11.332 16.375l-11.332 6.056V943.731z M2797.388 989.057 c-8.972-4.604-17.568-9.382-25.802-14.285l11.955-6.389l14.55 21.024C2797.858 989.288 2797.622 989.175 2797.388 989.057z  M2803.673 979.9l-11.253-16.261l11.253-6.014V979.9z M2912.441 1017.623l-13.245-13.75l13.245-8.373V1017.623z M2905.115 1024.431 c-9.456-1.711-19.044-3.749-28.697-6.161l14.148-8.943L2905.115 1024.431z M2907.889 986.546l-15.776 9.972l-18.978-19.702 C2884.587 980.292 2896.227 983.529 2907.889 986.546z M2866.283 984.118l17.2 17.856l-17.2 10.873V984.118z M2866.283 1025.968 c15.603 4.207 31.085 7.425 46.158 9.856v17.988l-46.158 2.727V1025.968z M2813.673 996.835v-41.311 c0.626 0.267 1.249 0.541 1.876 0.805c12.932 5.445 26.621 10.487 40.734 15.152v41.213 C2842.018 1008.346 2827.738 1003.11 2813.673 996.835z M2675.474 1067.81l-40.49 2.392v-20.517c0-4.146-0.97-20.286-15.171-29.399 c6.088-6.636 16.273-8.282 23.311-8.542l0.181-0.01c0.341-0.026 0.693-0.039 1.057-0.039l0.742 0.013l0.663-0.013 c0.364 0 0.716 0.013 1.057 0.039l0.18 0.01c25.697 0.952 28.471 18.445 28.471 25.922v30.144H2675.474z M2597.425 970.003 l94.867 13.657v83.157l-7.227 0.427v-29.579c0-5.691-1.814-34.13-37.619-35.502c-0.706-0.05-1.463-0.07-2.188-0.05l-0.153 0.004 l-0.232-0.004c-0.724-0.02-1.481 0-2.188 0.05c-34.907 1.331-37.619 25.337-37.619 32.667v36.248 c-2.339-0.084-4.898-0.173-7.641-0.267V970.003z M2538.545 979.596l34.161-9.295v99.737c-1.869-0.053-3.754-0.104-5.647-0.155 c-1.038-7.15-3.809-18.961-10.746-17.951c-5.994 0.873-8.588 10.239-9.703 17.487c-2.76-0.05-5.471-0.093-8.108-0.128 L2538.545 979.596z M2294.703 1104.283h-24.59l0.032-70.091l24.558-7.964V1104.283L2294.703 1104.283z M2405.135 1101.767h32.152 c0.013 1.832 0.032 3.832 0.061 6.044l-0.001 0.29l-32.212-0.44V1101.767z M2312.473 1104.008v-78.322l68.201 10.101v58.702 l-4.938 0.689v-21.417c0-4.091-1.305-24.537-27.046-25.523c-0.39-0.027-0.792-0.042-1.206-0.042l-0.475 0.01l-0.535-0.01 c-0.415 0-0.816 0.015-1.206 0.042c-25.096 0.957-27.046 18.215-27.046 23.485v31.482L2312.473 1104.008z M2330.919 1059.383 c4.379-3.218 10.349-4.097 14.667-4.257l0.128-0.007c0.246-0.018 0.499-0.027 0.761-0.027l0.535 0.009l0.475-0.009 c0.262 0 0.516 0.009 0.761 0.027l0.128 0.007c18.474 0.685 20.468 13.261 20.468 18.636v22.379l-23.439 3.272v-17.01 C2345.403 1079.108 2344.543 1065.276 2330.919 1059.383z M2318.894 1118.547l-2.601-2.576v-2.404l78.841-11.045v5.844 L2318.894 1118.547z M2335.963 1142.912c6.794-3.438 15.644-7.667 25.654-11.848c21.218-8.862 38.361-12.926 40.611-13.442 l35.084 0.479l-0.02 5.652c-2.97 1.575-5.994 3.473-8.876 5.782c-4.71 3.773-9.013 8.672-12.584 13.377H2335.963z M2663.663 768.342 l-8.766-2.709v20.423l8.766 2.709V768.342z M2670.401 770.345v20.423l8.766 2.709v-20.423L2670.401 770.345z M2281.363 850.638 v-15.651l-3.499 1.624v15.606L2281.363 850.638z M2279.613 823.383c-4.03 2.206-4.221 10.992-4.221 10.992l8.394-4.085 C2283.786 830.291 2283.643 821.177 2279.613 823.383z M2642.195 695.051c-5.381-2.031-6.659 8.349-6.659 8.349l13.406 4.288 C2648.942 707.689 2647.576 697.083 2642.195 695.051z M2622.308 755.65v20.423l8.766 2.709v-20.423L2622.308 755.65z  M2646.578 734.63v-20.423l-8.766-2.709v20.423L2646.578 734.63z M2646.578 763.069l-8.766-2.709v20.423l8.766 2.709V763.069z  M2650.996 708.354l13.406 4.288c0 0-1.366-10.606-6.747-12.637C2652.275 697.974 2650.996 708.354 2650.996 708.354z  M2554.15 728.089v-21.77l-4.867 2.258v21.708L2554.15 728.089z M2662.082 739.341v-20.423l-8.766-2.709v20.423L2662.082 739.341z  M2554.15 758.569l-4.867 2.258v21.708l4.867-2.197V758.569z M2551.717 690.181c-5.605 3.069-5.872 15.289-5.872 15.289 l11.676-5.682C2557.52 699.788 2557.322 687.11 2551.717 690.181z M2281.363 872.549l-3.499 1.624v15.606l3.499-1.579V872.549z  M2347.81 855.339v-14.682l-6.302-1.948v14.683L2347.81 855.339z M2355.774 830.446c-3.868-1.46-4.788 6.002-4.788 6.002 l9.638 3.083C2360.624 839.531 2359.642 831.906 2355.774 830.446z M2568.594 1030.021l-4.415 0.851v12.093l4.415-0.85V1030.021z  M2553.583 872.953l4.867-1.795v-16.192l-4.867 1.701V872.953z M2344.659 826.885c-3.868-1.46-4.788 6.002-4.788 6.002l9.638 3.083 C2349.51 835.971 2348.527 828.346 2344.659 826.885z M3078.843 888.122l15.428 2.735v-10.156l-20.052-3.555l-97.347 2.511v33.576 h10v-23.831l81.972-2.114v20.073h10L3078.843 888.122L3078.843 888.122z M3094.27 863.862l-42.401-39.168l-63.163 48.555 l84.905-2.526l20.659 3.806L3094.27 863.862L3094.27 863.862z M3019.313 862.335l28.813-22.15l3.247-2.527l17.677 23.411 L3019.313 862.335z M2841.8 865.702l60.716-8.064v75.352c3.33 1.557 6.678 3.087 10 4.574V831.36l9.426 1.655v24.484l8.36 1.876 v85.904c3.516 1.48 6.872 2.869 10 4.146v-98.056l-8.36-1.876v-24.877l-23.119-4.059l-77.023 10.787v61.777l10 6.429V865.702z  M2841.8 840.043l60.716-8.503v16.011l-60.716 8.064V840.043z M3072.948 1103.121V916.003l-99.991 3.367v111.713h-16.814v97.618 h-26.896v30.454h10v-20.454h26.896v-97.618h16.814V929.039l79.991-2.693v176.775H3072.948z M3216.599 842.755v-53.577l-29.346-1.321 l-0.002 0.042l-4.107 2.443v-2.765l-36.16-1.364l-0.049-0.167l-22.68 6.668v66.973h8.719v-60.448l13.55-3.984v57.28h8.719v-57.286 l19.183 0.724v35.114l14.06 0.568V796.64l19.395 0.873v45.242L3216.599 842.755L3216.599 842.755z M3158.166 917.133 c1.414-20.335 2.863-37.703 3.8-48.392l-34.737-1.625l-0.044-0.148l-0.43 0.126l-0.041-0.002v0.014l-25.542 7.51v217.164h10V882.1 l15.542-4.57v291.783h10V877.571l15.825 0.74v38.595L3158.166 917.133z M629.526 851.729l-14.001 5.382l3.588 9.334l14.001-5.382 L629.526 851.729z M706.168 556.576l3.335 14.625l9.75-2.224l-3.335-14.625L706.168 556.576z M676.984 844.2l-3.588-9.334 l-14.001 5.382l3.588 9.334L676.984 844.2z M685.262 924.748l-8.064-5.912l-8.869 12.097l8.064 5.912L685.262 924.748z  M671.726 779.034l-14.688-3.042l-2.028 9.792l14.688 3.042L671.726 779.034z M740.15 660.626l-3.334-14.625l-9.75 2.223 l3.334 14.625L740.15 660.626z M666.941 698.262l-10.712-10.5l-7 7.142l10.712 10.5L666.941 698.262z M716.617 602.4l3.334 14.625 l9.75-2.223l-3.334-14.625L716.617 602.4z M713.051 886.842l-8.064-5.912l-8.869 12.098l8.064 5.913L713.051 886.842z  M700.505 731.163l-10.712-10.5l-7 7.142l10.712 10.5L700.505 731.163z M734.069 764.063l-10.712-10.5l-7 7.142l10.712 10.5 L734.069 764.063z M625.703 769.502l-14.688-3.042l-2.028 9.792l14.688 3.042L625.703 769.502z M622.666 654.86l-7 7.142 l10.712 10.5l7-7.142L622.666 654.86z M740.84 848.939l-8.065-5.913l-8.869 12.097l8.064 5.913L740.84 848.939z M648.604 974.75 l8.869-12.097l-8.064-5.912l-8.869 12.097L648.604 974.75z M620.814 1012.654l8.869-12.097l-8.064-5.913l-8.869 12.097 L620.814 1012.654z M701.033 795.316l14.688 3.042l2.028-9.792l-14.688-3.042L701.033 795.316z M750.598 706.45l-3.334-14.625 l-9.75 2.223l3.334 14.625L750.598 706.45z M717.267 818.002l-14.001 5.382l3.588 9.334l14.001-5.382L717.267 818.002z  M761.047 752.273l-3.335-14.625l-9.75 2.224l3.335 14.625L761.047 752.273z M953.481 897.638l-13.236-7.057l-4.705 8.824 l13.236 7.057L953.481 897.638z M967.26 645.367l-11.918 9.108l6.072 7.945l11.918-9.108L967.26 645.367z M975.359 792.279 l-0.813-9.967l-14.95 1.22l0.813 9.967L975.359 792.279z M929.918 673.906l-11.917 9.108l6.072 7.945l11.917-9.108L929.918 673.906z  M811.492 893.005l7.32 13.093l8.729-4.88l-7.32-13.093L811.492 893.005z M815.824 824.245l-4.705 8.824l13.236 7.057l4.705-8.824 L815.824 824.245z M913.564 797.319l14.951-1.219l-0.812-9.967l-14.951 1.219L913.564 797.319z M591.409 638.225l1.404 1.376 l7-7.142l-10.712-10.5l-4.958 5.058C587.715 629.772 590.332 633.702 591.409 638.225z M977.013 921.517l13.236 7.057l4.705-8.824 l-13.236-7.057L977.013 921.517z M1007.912 563.597c45.002 45.002 75.808 100.408 90.222 160.788 c3.754 1.244 7.156 2.731 10.069 4.077c0.447 0.207 0.851 0.412 1.225 0.609c-1.217-5.569-2.562-11.11-4.051-16.615 c2.098 0.638 4.399 0.689 6.657 0.011c6.093-1.831 9.548-8.254 7.717-14.347c-1.831-6.093-8.254-9.548-14.347-7.717 c-2.255 0.677-4.145 1.986-5.543 3.672c-2.938-8.876-6.224-17.659-9.891-26.329c-2.788-6.591-5.788-13.062-8.953-19.437 c2.188 0.221 4.464-0.178 6.552-1.287c5.619-2.984 7.754-9.958 4.77-15.577s-9.958-7.754-15.577-4.77 c-2.086 1.108-3.689 2.767-4.731 4.701c-8.154-14.378-17.317-28.134-27.444-41.222c2.205-0.203 4.375-1.042 6.219-2.547 c4.929-4.023 5.663-11.28 1.639-16.208c-4.023-4.929-11.28-5.663-16.208-1.64c-1.846 1.507-3.104 3.468-3.743 5.59 c-5.586-6.459-11.423-12.737-17.51-18.824c-5.653-5.653-11.478-11.08-17.453-16.301c2.132-0.627 4.106-1.875 5.626-3.718 c4.049-4.907 3.353-12.168-1.554-16.217c-4.907-4.049-12.168-3.353-16.217 1.554c-1.512 1.833-2.361 3.994-2.578 6.193 c-13.035-10.196-26.739-19.428-41.067-27.655c1.934-1.032 3.597-2.623 4.714-4.699c3.014-5.603 0.915-12.588-4.688-15.602 s-12.588-0.915-15.602 4.688c-1.119 2.081-1.53 4.351-1.322 6.539c-6.901-3.472-13.923-6.74-21.08-9.767 c-8.099-3.425-16.292-6.534-24.572-9.324c1.686-1.388 3-3.267 3.687-5.511c1.863-6.083-1.559-12.525-7.642-14.388 s-12.525 1.559-14.388 7.642c-0.689 2.25-0.651 4.548-0.027 6.647c-15.911-4.396-32.106-7.651-48.533-9.741 c1.406-1.699 2.342-3.818 2.581-6.178c0.64-6.33-3.972-11.98-10.302-12.62s-11.98 3.972-12.62 10.302 c-0.24 2.371 0.258 4.647 1.307 6.6c-8.512-0.614-17.078-0.93-25.692-0.93c-8 0-15.956 0.288-23.87 0.817 c1.065-1.951 1.579-4.231 1.351-6.611c-0.607-6.333-6.233-10.975-12.566-10.368c-6.333 0.607-10.975 6.233-10.368 12.566 c0.226 2.362 1.152 4.487 2.551 6.194c-16.444 2.003-32.656 5.182-48.588 9.493c0.638-2.098 0.689-4.399 0.01-6.657 c-1.831-6.093-8.254-9.548-14.347-7.717s-9.548 8.254-7.717 14.347c0.677 2.255 1.987 4.146 3.673 5.543 c-8.876 2.938-17.659 6.225-26.33 9.892c-6.591 2.788-13.062 5.788-19.437 8.953c0.221-2.189-0.178-4.464-1.287-6.553 c-2.984-5.619-9.958-7.754-15.577-4.77s-7.754 9.959-4.77 15.578c1.108 2.086 2.767 3.689 4.701 4.731 c-14.361 8.144-28.099 17.294-41.173 27.407v12.742c60.318-48.964 134.981-75.588 213.743-75.588 C858.354 464.041 943.712 499.397 1007.912 563.597z M655.934 1135.676c-1.686 1.388-3 3.267-3.687 5.511 c-1.863 6.083 1.559 12.525 7.642 14.388c6.083 1.863 12.525-1.559 14.388-7.642c0.689-2.25 0.651-4.548 0.027-6.647 c15.911 4.396 32.106 7.652 48.533 9.741c-1.406 1.699-2.342 3.818-2.581 6.178c-0.64 6.33 3.972 11.98 10.302 12.62 c6.33 0.64 11.98-3.972 12.62-10.302c0.24-2.371-0.258-4.647-1.306-6.6c8.512 0.614 17.078 0.93 25.691 0.93 c8 0 15.957-0.288 23.87-0.817c-1.065 1.951-1.579 4.231-1.351 6.611c0.607 6.333 6.233 10.975 12.566 10.368 s10.975-6.233 10.368-12.566c-0.226-2.362-1.152-4.487-2.551-6.194c16.444-2.003 32.656-5.182 48.588-9.493 c-0.638 2.098-0.689 4.399-0.011 6.657c1.831 6.093 8.254 9.548 14.347 7.717c6.093-1.831 9.548-8.254 7.717-14.347 c-0.678-2.255-1.987-4.146-3.673-5.543c8.137-2.694 16.191-5.695 24.156-8.999c0.103-0.923 0.288-1.915 0.604-2.952 c-0.279-0.896-0.504-1.819-0.67-2.766c-0.295-1.672-0.356-3.321-0.208-4.917c-20.761 8.882-42.41 15.667-64.682 20.241 l-5.812-31.815c58.027-12.069 111.35-40.71 154.234-83.594c1.465-1.465 2.901-2.95 4.332-4.439 c-0.347-0.197-0.695-0.394-1.032-0.615c-1.363-0.894-2.596-1.954-3.775-3.242c-0.396-0.433-0.774-0.875-1.148-1.32 c-0.106-0.127-0.211-0.255-0.321-0.378c-0.373-0.394-0.719-0.809-1.058-1.23c-1.342 1.395-2.697 2.781-4.069 4.154 c-18.464 18.464-38.938 34.184-60.912 46.996l-5.112-9.144l-8.729 4.88l5.124 9.166c-24.877 13.395-51.546 23.12-79.332 28.925 L778.887 820.73l2.781-1.555l-1.435-2.567l2.646 1.411l4.705-8.824l-2.596-1.384l2.99-0.244l-0.812-9.967l-2.931 0.239l2.383-1.822 l-6.072-7.945l-2.337 1.786l1.02-2.821l-9.404-3.401l-1 2.765l-0.667-2.923l-9.75 2.223l0.654 2.869l-2.143-2.101l-7 7.142 l2.1 2.059l-2.937-0.608l-2.028 9.792l2.88 0.597l-2.8 1.076l3.588 9.334l2.746-1.056l-1.774 2.42l4.568 3.349l-50.164 274.625 c-39.754-8.306-77.219-24.652-110.425-48.247l6.22-8.484l-8.064-5.913l-6.202 8.459c-2.432-1.854-4.837-3.752-7.22-5.685v12.769 c36.681 28.231 78.87 47.58 123.894 56.944l-5.812 31.815c-42.198-8.666-82.159-25.26-118.083-49.044v11.854 c4.269 2.707 8.589 5.331 12.976 7.85c-1.934 1.032-3.597 2.623-4.714 4.699c-3.014 5.603-0.915 12.588 4.688 15.602 s12.588 0.915 15.602-4.688c1.119-2.081 1.53-4.351 1.322-6.539c6.901 3.472 13.923 6.74 21.079 9.767 C639.46 1129.778 647.654 1132.887 655.934 1135.676z M755.788 913.64l-0.242 3.937l9.981 0.614l0.921-14.972l-8.659-0.533 l9.774-53.507l45.467 248.909c-14.913 2.273-30.099 3.443-45.467 3.443c-4.447 0-8.877-0.112-13.292-0.305l0.637-10.363 l-9.981-0.613l-0.638 10.379c-7.457-0.573-14.858-1.423-22.193-2.542L755.788 913.64z M720.298 1107.929 c15.5 2.376 31.287 3.602 47.264 3.602s31.764-1.226 47.265-3.602l5.81 31.808c-17.4 2.712-35.128 4.116-53.075 4.116 s-35.675-1.403-53.075-4.116L720.298 1107.929z M1007.206 627.422c16.119 21.786 29.057 45.492 38.586 70.539l0.171 0.223 c1.557 2.026 3.155 4.231 5.03 6.941c2.698 3.9 4.145 7.91 4.999 10.586c0.715 2.243 1.402 4.46 1.937 6.907 c0.113 0.52 0.213 1.026 0.302 1.518c0.93-0.449 1.927-0.88 2.999-1.27l0.553-0.199c0.761-0.351 1.534-0.654 2.316-0.924 c-13.962-50.673-40.865-97.117-79.04-135.292c-58.095-58.095-135.336-90.09-217.495-90.09c-71.544 0-139.354 24.271-194.045 68.902 c2.289 2.536 3.945 5.648 4.7 9.102c34.773-28.784 75.119-48.993 118.433-59.534l2.404 10.545l9.75-2.223l-2.398-10.518 c19.897-4.135 40.361-6.274 61.156-6.274c33.434 0 66.019 5.497 96.745 16.025l-3.674 10.16l9.404 3.4l3.677-10.168 c38.667 14.738 74.134 37.605 104.272 67.743c8.267 8.267 15.972 16.945 23.129 25.97l-8.43 6.443l6.072 7.945L1007.206 627.422z  M1121.064 758.494c-2.362 0.227-4.487 1.152-6.194 2.551c-0.033-0.273-0.073-0.545-0.107-0.818c-1.347 1.537-3.007 2.804-4.9 3.693 c-0.152 0.073-0.306 0.144-0.459 0.211c-0.572 0.586-1.203 1.161-1.9 1.714c-0.644 0.83-1.3 1.526-1.923 2.125 c1.241 11.872 1.889 23.874 1.889 35.977c0 53.006-12.071 104.151-34.877 150.324c0.091 1.439 0.008 2.902-0.283 4.357 c0.007 0.087 0.014 0.175 0.019 0.263c1.375 0.177 3.102 0.446 5.035 1.036c0.239 0.073 0.477 0.135 0.713 0.199 c0.544 0.147 1.088 0.297 1.627 0.461c0.238 0.073 0.463 0.162 0.694 0.244c0.013-0.026 0.026-0.053 0.04-0.08v-0.352h0.174 c3.318-6.636 6.452-13.38 9.359-20.252c3.426-8.099 6.534-16.292 9.323-24.572c1.388 1.686 3.266 3 5.511 3.687 c6.083 1.863 12.525-1.559 14.388-7.642c1.863-6.083-1.559-12.525-7.642-14.388c-2.25-0.689-4.548-0.651-6.647-0.027 c4.396-15.911 7.651-32.105 9.741-48.533c1.699 1.407 3.818 2.342 6.177 2.581c6.33 0.64 11.98-3.972 12.62-10.302 c0.64-6.33-3.972-11.98-10.302-12.62c-2.371-0.24-4.647 0.258-6.6 1.306c0.614-8.512 0.93-17.078 0.93-25.691 c0-8-0.288-15.956-0.817-23.87c1.951 1.065 4.231 1.579 6.61 1.351c6.333-0.607 10.975-6.233 10.368-12.566 C1133.024 762.528 1127.397 757.887 1121.064 758.494z M763.563 950.13l-9.981-0.614l-0.921 14.972l9.981 0.614L763.563 950.13z  M760.678 997.042l-9.981-0.614l-0.921 14.972l9.981 0.614L760.678 997.042z M912.007 875.526l-13.236-7.057l-4.704 8.824 l13.236 7.057L912.007 875.526z M757.793 1043.953l-9.981-0.614l-0.921 14.972l9.981 0.614L757.793 1043.953z M870.534 853.414 l-13.236-7.057l-4.705 8.824l13.236 7.057L870.534 853.414z M873.411 983.267l-7.32-13.093l-8.729 4.88l7.32 13.093L873.411 983.267 z M849.75 562.64l-5.102 14.106l9.404 3.401l5.102-14.106L849.75 562.64z M880.857 789.955l-14.95 1.219l0.812 9.967l14.95-1.219 L880.857 789.955z M896.346 1024.291l-7.32-13.093l-8.729 4.88l7.32 13.093L896.346 1024.291z M898.648 710.393l-6.072-7.945 l-11.918 9.108l6.072 7.945L898.648 710.393z M855.233 730.986l-11.917 9.109l6.072 7.945l11.917-9.109L855.233 730.986z  M804.605 860.193l-7.32-13.093l-8.729 4.88l7.32 13.093L804.605 860.193z M811.2 698.635l-9.404-3.401l-5.102 14.106l9.404 3.401 L811.2 698.635z M785.811 739.433l-5.102 14.106l9.404 3.401l5.102-14.106L785.811 739.433z M823.963 767.473l-6.072-7.945 l-11.918 9.109l6.072 7.945L823.963 767.473z M827.185 654.438l-9.404-3.401l-5.102 14.105l9.404 3.401L827.185 654.438z  M850.476 942.243l-7.32-13.093l-8.729 4.88l7.32 13.093L850.476 942.243z M843.169 610.238l-9.404-3.4l-5.101 14.106l9.404 3.4 L843.169 610.238z M834.013 793.775l-14.951 1.219l0.812 9.967l14.951-1.219L834.013 793.775z M429.574 984.91h1.54v-2.926 l-3.695-9.546l-1.848-14.011l-1.848 14.011l-3.695 9.546v2.926h1.54v4.559h8.006L429.574 984.91L429.574 984.91z M340.86 923.88 c0 0-1.731-12.274-11.331-12.274c-9.599 0-11.331 12.274-11.331 12.274v22.504h22.661V923.88H340.86z M550.293 1034.863 c0-2.761-2.239-5-5-5s-5 2.239-5 5v47.254h10V1034.863z M113.847 832.872l-1.779-17.31l-1.778 17.31v2.283h3.557V832.872z  M334.494 1016.504c0-2.761-2.239-5-5-5s-5 2.239-5 5v44.703h10V1016.504z M350.977 1016.504c0-2.761-2.239-5-5-5s-5 2.239-5 5 v44.703h10V1016.504z M550.293 943.826c0-2.761-2.239-5-5-5s-5 2.239-5 5v58.876h10V943.826z M528.81 938.826c-2.761 0-5 2.239-5 5 v58.876h10v-58.876C533.81 941.065 531.571 938.826 528.81 938.826z M528.81 859.41c-2.761 0-5 2.239-5 5v58.876h10V864.41 C533.81 861.649 531.571 859.41 528.81 859.41z M528.81 773.48c-2.761 0-5 2.239-5 5v66.813h10V778.48 C533.81 775.718 531.571 773.48 528.81 773.48z M528.81 1029.863c-2.761 0-5 2.239-5 5v47.254h10v-47.254 C533.81 1032.103 531.571 1029.863 528.81 1029.863z M550.293 864.41c0-2.761-2.239-5-5-5s-5 2.239-5 5v58.876h10V864.41z  M550.293 778.48c0-2.761-2.239-5-5-5s-5 2.239-5 5v66.813h10V778.48z M133.608 1016.504c0-2.761-2.239-5-5-5s-5 2.239-5 5v44.703 h10V1016.504z M123.463 923.88c0 0-1.731-12.274-11.331-12.274c-9.6 0-11.331 12.274-11.331 12.274v22.504h22.661V923.88H123.463z  M117.125 1016.504c0-2.761-2.239-5-5-5s-5 2.239-5 5v44.703h10V1016.504z M100.641 1016.504c0-2.761-2.239-5-5-5s-5 2.239-5 5 v44.703h10V1016.504z M581.91 1144.404h-16.502V766.737l3.833-3.833v-18.667l7.669-1.667v-69.187 c0.013-0.145 0.044-0.285 0.044-0.434v-30.093c0-2.761-2.239-5-5-5s-5 2.239-5 5v4.276h-6.679v-12.896h3.467v-26h-0.055v-29.604 c0-2.761-2.239-5-5-5s-5 2.239-5 5v29.152c-1.17-2.399-6.77-13.932-9.213-19.814c-2.735-6.586-6.567-18.068-6.567-18.068v-52.238 h2.242v-4.942c0-0.02 0.006-0.038 0.006-0.058v-35.763c0-2.761-2.239-5-5-5s-5 2.239-5 5v14.071c-2-6.038-4.137-13.127-6.081-20.905 c-4.205-15.214-7.059-37.738-8.917-57.667h1.888c2.761 0 5-2.239 5-5s-2.239-5-5-5h-2.76c-1.539-18.893-2.127-33.417-2.127-33.417 l-0.001 0.024v-0.024c0 0-0.589 14.525-2.127 33.417h-2.76c-2.761 0-5 2.239-5 5s2.239 5 5 5h1.888 c-1.859 19.929-4.713 42.453-8.917 57.667c-1.878 7.512-3.936 14.387-5.876 20.288v-13.454c0-2.761-2.239-5-5-5s-5 2.239-5 5v35.763 c0 0.063 0.016 0.122 0.019 0.184v4.816h2.024v52.238c0 0-3.832 11.481-6.567 18.068c-2.499 6.018-8.303 17.95-9.287 19.967v-29.222 c0-2.761-2.239-5-5-5s-5 2.239-5 5v35.763c0 0.066 0.017 0.127 0.02 0.192v19.565h3.467v12.896h-6.717v-4.276c0-2.761-2.239-5-5-5 s-5 2.239-5 5v30.093c0 0.276 0.038 0.542 0.081 0.807v68.813l7.669 1.667v18.667l3.833 3.833v222.73h-29.331v26.041h5.742v-10.598 h1.686v10.598h3.903v-6.712h3.549l0.941-3.265l1.01-10.379l1.01 10.379l0.941 3.265h3.549v6.712h3.904v-10.598h1.686v10.598h1.411 v128.896h-5.578v-35.131c0-2.761-2.239-5-5-5s-5 2.239-5 5v35.131h-3.188v-35.131c0-2.761-2.239-5-5-5s-5 2.239-5 5v35.131h-8.405 v-35.131c0-2.761-2.239-5-5-5s-5 2.239-5 5v35.131h-5.461v-128.896h15.294v-26.041h-15.145l-2.595-2.233v-29.138l2.986-4.285 l-7.4-15.839l-1.688-26.485l-1.688 26.485l-7.4 15.839l2.986 4.285v18.635l-9.145-7.87v-67.417h3.656c2.761 0 5-2.239 5-5 s-2.239-5-5-5h-3.656v-57.207l2.605-5.812h-2.006l0.13-8.439h-3.246v-12.204l2.986-4.285l-7.4-15.839l-1.688-26.485l-1.688 26.485 l-7.4 15.839l2.986 4.285v12.204h-3.246l0.13 8.439h-2.006l2.605 5.812v25.181h-4.706l-8-24.264h-3.043l-1.141-11.11l-1.142 11.11 h-15.68v1.866l1.186 1.186v6.402l1.897 1.186v31.716h5.749v-5.418h3.355l1.969-2.286l1.78-10.317l1.78 10.317l1.969 2.286h3.355 v5.418h17.908v13.934h-20.036v-6.997c0-2.761-2.239-5-5-5s-5 2.239-5 5v6.997h-25.262v-6.997c0-2.761-2.239-5-5-5s-5 2.239-5 5 v6.997h-20.036v-13.934h17.842v-5.418h3.355l1.969-2.286l1.78-10.317l1.78 10.317l1.969 2.286h3.355v5.418h5.694v-31.716 l1.897-1.186v-6.402l1.186-1.186v-1.866h-15.758l-1.142-11.11l-1.141 11.11h-2.9l-8 24.264h-4.64v-25.181l2.605-5.812h-2.006 l0.13-8.439h-3.246v-12.204l2.986-4.285l-7.4-15.839l-1.688-26.485l-1.688 26.485l-7.4 15.839l2.986 4.285v12.204h-3.246l0.13 8.439 h-2.006l2.605 5.812v25.181h-0.01v32.026h-4.222c-2.761 0-5 2.239-5 5s2.239 5 5 5h4.222v18.293h-34.907l0.258 3.145l3.129 5.331 v1.66h-1.339v24.698h10.201v-7.501h3.355l1.969-2.286l1.78-10.317l1.78 10.317l1.969 2.286h3.355v7.501h8.449v11.584h-10.241v-4.163 c0-2.761-2.239-5-5-5s-5 2.239-5 5v4.163h-29.655v-4.163c0-2.761-2.239-5-5-5s-5 2.239-5 5v4.163h-30.081v-4.163 c0-2.761-2.239-5-5-5s-5 2.239-5 5v4.163H164.79v-11.584h10.175v-7.501h3.355l1.969-2.286l1.78-10.317l1.78 10.317l1.969 2.286 h3.355v7.501h9.341v-24.698h-1.339v-1.66l3.129-5.331l0.258-3.145h-35.773v-18.293h3.184c2.761 0 5-2.239 5-5s-2.239-5-5-5h-3.184 v-26.04h0.003v-31.167l2.605-5.812h-2.006l0.13-8.439h-3.246v-12.204l2.986-4.285l-7.4-15.839l-1.688-26.485l-1.688 26.485 l-7.4 15.839l2.986 4.285v12.204h-3.246l0.13 8.439h-2.006l2.605 5.812v25.181h-4.706l-8-24.264h-3.043l-1.141-11.11l-1.142 11.11 h-15.68v1.866l1.186 1.186v6.402l1.897 1.186v31.716h5.749v-5.418h3.355l1.969-2.286l1.78-10.317l1.78 10.317l1.969 2.286h3.355 v5.418h17.905v13.934h-19.909v-6.997c0-2.761-2.239-5-5-5s-5 2.239-5 5v6.997H99.616v-6.997c0-2.761-2.239-5-5-5s-5 2.239-5 5v6.997 H69.353v-13.934h17.944v-5.418h3.355l1.969-2.286l1.78-10.317l1.78 10.317l1.969 2.286h3.355v5.418h5.694v-31.716l1.897-1.186 v-6.402l1.186-1.186v-1.866H94.524l-1.142-11.11l-1.141 11.11h-2.9l-8 24.264h-4.64v-25.181l2.605-5.812H77.3l0.13-8.439h-3.246 v-12.204l2.986-4.285l-7.4-15.839l-1.688-26.485l-1.688 26.485l-7.4 15.839l2.986 4.285v12.204h-3.246l0.13 8.439h-2.006 l2.605 5.812v40.254h-0.112v16.953h-4.595c-2.761 0-5 2.239-5 5s2.239 5 5 5h4.595v68.364c-0.121 0.431-0.207 0.877-0.207 1.347 s0.086 0.916 0.207 1.347v22.055c-0.121 0.431-0.207 0.877-0.207 1.347s0.086 0.916 0.207 1.347v187.429H42.273v21.903H0v10.5 h606.98v-42.958h-25.079v-29.719H581.91z M164.793 976.155h112.352v14.749H164.793V976.155z M164.793 1000.904h112.352v139.333 h-7.536v-53.277c0-2.761-2.239-5-5-5s-5 2.239-5 5v53.277h-6.483v-53.277c0-2.761-2.239-5-5-5s-5 2.239-5 5v53.277h-7.958v-53.277 c0-2.761-2.239-5-5-5s-5 2.239-5 5v53.277h-6.483v-53.277c0-2.761-2.239-5-5-5s-5 2.239-5 5v53.277h-7.906v-53.277 c0-2.761-2.239-5-5-5s-5 2.239-5 5v53.277h-6.483v-53.277c0-2.761-2.239-5-5-5s-5 2.239-5 5v53.277h-9.502L164.793 1000.904 L164.793 1000.904z M164.793 1150.238h112.352v34.442h-14.109v-18.195h-10v18.195h-26.1v-18.195h-10v18.195h-26.1v-18.195h-10 v18.195h-16.043L164.793 1150.238L164.793 1150.238z M69.36 901.444h85.433v64.711h-24.474v-11.584h-10v11.584h-3.187v-11.584h-10 v11.584h-3.187v-11.584h-10v11.584H69.36V901.444z M69.36 976.155h85.433v14.749H69.36V976.155z M69.36 1000.904h85.433v139.333 h-21.185v-53.277c0-2.761-2.239-5-5-5s-5 2.239-5 5v53.277h-6.483v-53.277c0-2.761-2.239-5-5-5s-5 2.239-5 5v53.277h-6.483v-53.277 c0-2.761-2.239-5-5-5s-5 2.239-5 5v53.277H69.361L69.36 1000.904L69.36 1000.904z M69.36 1150.238h85.433v34.442h-24.474v-18.195 h-10v18.195h-16.374v-18.195h-10v18.195H69.36V1150.238z M372.479 1206.584H52.282v-11.903h320.197V1206.584z M372.48 1184.681 h-24.763v-18.195h-10v18.195h-16.374v-18.195h-10v18.195h-24.197v-34.442h85.334V1184.681z M372.48 1140.238h-21.502v-53.277 c0-2.761-2.239-5-5-5s-5 2.239-5 5v53.277h-6.483v-53.277c0-2.761-2.239-5-5-5s-5 2.239-5 5v53.277h-6.483v-53.277 c0-2.761-2.239-5-5-5s-5 2.239-5 5v53.277h-20.865v-139.333h85.334L372.48 1140.238L372.48 1140.238z M372.48 990.904h-85.334 v-14.749h85.334V990.904z M372.48 966.155h-24.763v-11.584h-10v11.584h-3.187v-11.584h-10v11.584h-3.187v-11.584h-10v11.584h-24.197 v-64.711h85.334V966.155z M509.91 472.617c0.795-2.89 1.544-6.017 2.247-9.319c0.703 3.303 1.451 6.43 2.246 9.319 c3.753 14.983 8.165 27.45 11.104 35.051h-26.701C501.745 500.067 506.157 487.6 509.91 472.617z M496.405 517.668h31.503v34.498 h-3.904v-15.167c0-2.761-2.239-5-5-5s-5 2.239-5 5v15.167h-3.605v-15.167c0-2.761-2.239-5-5-5s-5 2.239-5 5v15.167h-3.993 L496.405 517.668L496.405 517.668z M489.074 591.808c2.839-6.838 6.656-18.254 6.817-18.737l0.514-1.542v-9.364h31.503v9.364 l0.514 1.542c0.161 0.482 3.978 11.899 6.817 18.737c1.887 4.544 5.457 12.069 7.699 16.728H527.49V596.6c0-2.761-2.239-5-5-5 s-5 2.239-5 5v11.936h-10.601V596.6c0-2.761-2.239-5-5-5s-5 2.239-5 5v11.936h-15.516 C483.616 603.877 487.187 596.353 489.074 591.808z M470.571 618.536h83.172v5.703h-3.467v22.896h-6.146v-17.003 c0-2.761-2.239-5-5-5s-5 2.239-5 5v17.003h-3.605v-17.003c0-2.761-2.239-5-5-5s-5 2.239-5 5v17.003h-3.606v-17.003 c0-2.761-2.239-5-5-5s-5 2.239-5 5v17.003h-3.605v-17.003c0-2.761-2.239-5-5-5s-5 2.239-5 5v17.003h-3.606v-17.003 c0-2.761-2.239-5-5-5s-5 2.239-5 5v17.003h-5.668v-22.896h-3.467v-5.703H470.571z M457.402 734.512v-14.676h8.082v-10h-8.082 v-13.963h8.082v-10h-8.082v-25.967h16.635v-2.771h76.238v2.771h16.635v25.967h-8.223v10h8.223v13.963h-8.223v10h8.223v14.676 l-7.669 1.667v19.937h-8.946v-3.214c0-2.761-2.239-5-5-5s-5 2.239-5 5v3.214h-3.187v-3.214c0-2.761-2.239-5-5-5s-5 2.239-5 5v3.214 h-3.187v-3.214c0-2.761-2.239-5-5-5s-5 2.239-5 5v3.214h-3.187v-3.214c0-2.761-2.239-5-5-5s-5 2.239-5 5v3.214h-3.187v-3.214 c0-2.761-2.239-5-5-5s-5 2.239-5 5v3.214h-3.188v-3.214c0-2.761-2.239-5-5-5s-5 2.239-5 5v3.214h-9.287v-19.937L457.402 734.512z  M528.841 1099.714c-2.761 0-5 2.239-5 5v39.595h-6.483v-39.595c0-2.761-2.239-5-5-5s-5 2.239-5 5v39.595h-6.483v-39.595 c0-2.761-2.239-5-5-5s-5 2.239-5 5v39.595h-21.969V766.115h86.503v378.194h-21.567v-39.595 C533.841 1101.953 531.602 1099.714 528.841 1099.714z M406.273 1154.404h165.636v18.5h-34.802v-9.343h-10v9.343h-29.561v-9.343h-10 v9.343h-47.407v-9.343h-10v9.343h-23.866V1154.404z M382.48 982.057l13.794 11.871v11.759l-13.794-12.053V982.057z M382.48 1006.914 l13.794 12.053v124.387l-13.794-2.339V1006.914z M382.48 1151.158l13.794 2.339v21.634l-13.794 6.61V1151.158z M596.989 1184.126 v22.458h-214.51v-13.754l18.794-9.006v0.302H596.989z M235.168 1016.504c0-2.761-2.239-5-5-5s-5 2.239-5 5v45.117h10V1016.504z  M253.126 1016.504c0-2.761-2.239-5-5-5s-5 2.239-5 5v45.117h10V1016.504z M269.609 1016.504c0-2.761-2.239-5-5-5s-5 2.239-5 5 v45.117h10V1016.504z M184.295 1016.504c0-2.761-2.239-5-5-5s-5 2.239-5 5v45.117h10V1016.504z M200.779 1016.504 c0-2.761-2.239-5-5-5s-5 2.239-5 5v45.117h10V1016.504z M218.685 1016.504c0-2.761-2.239-5-5-5s-5 2.239-5 5v45.117h10V1016.504z  M318.011 1016.504c0-2.761-2.239-5-5-5s-5 2.239-5 5v44.703h10V1016.504z M205.755 928.214v1.66h-1.339v24.698h10.312v-7.501h3.355 l1.969-2.286l1.78-10.317l1.78 10.317l1.969 2.286h3.355v7.501h9.452v-24.698h-1.339v-1.66l3.129-5.331l0.258-3.145h-10.318V904.63 h-16.42v15.107h-11.33l0.258 3.145L205.755 928.214z M416.734 1041.348c-2.761 0-5 2.239-5 5v35.964h10v-35.964 C421.734 1043.586 419.495 1041.348 416.734 1041.348z M516.917 571.457c0-2.761-2.239-5-5-5s-5 2.239-5 5v14.523h10V571.457z  M525.7 685.07l-14.364 12.024l-9.887-3.993c-2.559-1.032-5.474 0.204-6.508 2.764s0.204 5.474 2.764 6.508l12.668 5.116 c0.022 0.009 0.044 0.011 0.066 0.02c0.268 0.104 0.541 0.187 0.821 0.243c0.045 0.009 0.09 0.014 0.135 0.022 c0.268 0.046 0.538 0.075 0.809 0.077c0.013 0 0.026 0.004 0.04 0.004c0.269 0 0.536-0.026 0.799-0.069 c0.085-0.014 0.167-0.039 0.252-0.057c0.175-0.038 0.348-0.08 0.517-0.135c0.101-0.034 0.199-0.075 0.299-0.115 c0.155-0.062 0.306-0.13 0.453-0.208c0.092-0.048 0.183-0.099 0.273-0.153c0.164-0.1 0.32-0.21 0.472-0.329 c0.047-0.037 0.1-0.063 0.146-0.102l16.665-13.949c2.117-1.772 2.397-4.926 0.625-7.043 C530.972 683.578 527.817 683.298 525.7 685.07z M550.481 664.619H474.01v76.471h76.471V664.619z M512.245 730.87 c-15.448 0-28.016-12.568-28.016-28.016s12.568-28.016 28.016-28.016s28.016 12.568 28.016 28.016 C540.261 718.301 527.693 730.87 512.245 730.87z M201.467 908.747l-0.901 10.992h1.802L201.467 908.747z M479.359 1029.863 c-2.761 0-5 2.239-5 5v47.254h10v-47.254C484.359 1032.103 482.12 1029.863 479.359 1029.863z M241.337 908.747l-0.901 10.992h1.802 L241.337 908.747z M512.326 773.48c-2.761 0-5 2.239-5 5v66.813h10V778.48C517.326 775.718 515.088 773.48 512.326 773.48z  M331.531 832.872l-1.779-17.31l-1.778 17.31v2.283h3.557V832.872z M440.139 1046.348c0-2.761-2.239-5-5-5s-5 2.239-5 5v35.964h10 V1046.348z M453.327 1046.348c0-2.761-2.239-5-5-5s-5 2.239-5 5v35.964h10V1046.348z M512.326 938.826c-2.761 0-5 2.239-5 5v58.876 h10v-58.876C517.326 941.065 515.088 938.826 512.326 938.826z M512.326 1029.863c-2.761 0-5 2.239-5 5v47.254h10v-47.254 C517.326 1032.103 515.088 1029.863 512.326 1029.863z M479.359 938.826c-2.761 0-5 2.239-5 5v58.876h10v-58.876 C484.359 941.065 482.12 938.826 479.359 938.826z M495.843 773.48c-2.761 0-5 2.239-5 5v66.813h10V778.48 C500.843 775.718 498.604 773.48 495.843 773.48z M512.326 859.41c-2.761 0-5 2.239-5 5v58.876h10V864.41 C517.326 861.649 515.088 859.41 512.326 859.41z M495.843 1029.863c-2.761 0-5 2.239-5 5v47.254h10v-47.254 C500.843 1032.103 498.604 1029.863 495.843 1029.863z M495.843 859.41c-2.761 0-5 2.239-5 5v58.876h10V864.41 C500.843 861.649 498.604 859.41 495.843 859.41z M479.359 773.48c-2.761 0-5 2.239-5 5v66.813h10V778.48 C484.359 775.718 482.12 773.48 479.359 773.48z M479.359 859.41c-2.761 0-5 2.239-5 5v58.876h10V864.41 C484.359 861.649 482.12 859.41 479.359 859.41z M495.843 938.826c-2.761 0-5 2.239-5 5v58.876h10v-58.876 C500.843 941.065 498.604 938.826 495.843 938.826z M1753.553 969.627c-1.162 0-4.328 6.987-4.328 9.652s0 15.741 0 15.741 l8.656-1.984c0 0 0-12.983 0-15.741C1757.881 974.537 1754.715 969.627 1753.553 969.627z M1770.921 965.406 c-1.162 0-4.328 6.987-4.328 9.652s0 15.742 0 15.742l8.656-1.984c0 0 0-12.983 0-15.741S1772.083 965.406 1770.921 965.406z  M1788.289 961.188c-1.162 0-4.328 6.987-4.328 9.652s0 15.741 0 15.741l8.656-1.984c0 0 0-12.983 0-15.741 S1789.452 961.188 1788.289 961.188z M1745.679 877.519h-5.435v11.142h5.435V877.519z M1736.185 973.847 c-1.162 0-4.328 6.987-4.328 9.652s0 15.741 0 15.741l8.656-1.984c0 0 0-12.983 0-15.742 C1740.513 978.755 1737.347 973.847 1736.185 973.847z M1805.658 956.967c-1.162 0-4.328 6.987-4.328 9.652s0 15.741 0 15.741 l8.656-1.984c0 0 0-12.983 0-15.741S1806.82 956.967 1805.658 956.967z M1875.026 847.018h6.123v-12.552h-6.123V847.018z  M1855.451 847.018h6.123v-12.552h-6.123V847.018z M1855.451 875.126h6.123v-12.552h-6.123V875.126z M1875.026 875.126h6.123 v-12.552h-6.123V875.126z M1835.123 1158.28v28.711h8.295v-28.711H1835.123z M1731.873 1158.28v28.711h8.295v-28.711H1731.873z  M1822.853 1158.28v28.711h8.295v-28.711H1822.853z M1894.074 1154.732h-8.295v24.518h8.295V1154.732z M1732.556 877.519h-5.435 v11.142h5.435V877.519z M1719.603 1158.28v28.711h8.295v-28.711H1719.603z M1939.163 1017.73v71.143h10v-64.226l1.795-75.548 l3.005-2.253v-16.361l1.273-1.462l0.82 0.04l1.18 1.898v16.151l2.518 2.494l1.2 51.605c2.941-2.628 6.293-4.504 9.874-5.53 l-1.17-50.341l-2.421-2.398v-14.836l-5.456-8.779l-10.902-0.527l-6.915 7.941v15.104l-2.887 2.165l-1.301 54.776 c-4.267-3.875-9.809-6.572-16.265-6.572c-7.025 0-13.66 3.104-18.683 8.741c-4.365 4.899-6.971 11.17-6.971 16.775v11.611h10 v-11.611c0-6.248 6.573-15.516 15.653-15.516C1932.708 1002.214 1939.163 1012.279 1939.163 1017.73z M2211.816 1138.138h-6.599 V909.156l-8.232-0.361v-9.627l-11.716-0.465v-74.529l3.329-2.725l-10.965-6.344c0 0 0.261-6.298-4.906-12.295 c-5.167-5.998-6.908-5.048-14.074-11.548s-6.5-17-6.5-17v-5c0 0 4.167-2.167 4.333-4.5c0.167-2.333-4.833-6.333-5.667-7.833 c-0.833-1.5-1.5-9-1.5-9s-0.667 7.5-1.5 9s-5.833 5.5-5.667 7.833s4.333 4.5 4.333 4.5v5c0 0 0.667 10.5-6.5 17 s-14.542 9.732-17.618 17.695c-3.077 7.963-1.715 11.305-1.715 11.305l-4.159 1.681l-6.841 4.766l5.062 3.292v63.797l-12.766-0.605 v10.77l-5.781-0.259v-10.731l-21.679-1.027v10.788l-5.781-0.259v-10.75l-21.679-1.027v10.807l-5.781-0.259V890.48l-21.679-1.027 v10.825l-5.781-0.259v-10.786l-3.828-0.181v-22.676l2.522-5.043l-4.039-1.962c0 0 0-9.579-7.579-17.392 c-5.513-5.683-6.908-4.481-14.074-10.981c-7.166-6.5-6.5-17.567-6.5-17.567v-5c0 0 3.316-1.316 3.483-3.65 c0.167-2.333-3.983-4.349-4.816-5.849c-0.833-1.5-1.5-11.834-1.5-11.834s-0.667 10.334-1.5 11.834c-0.833 1.5-4.7 3.516-4.533 5.849 s3.199 3.65 3.199 3.65v5c0 0 0.667 11.35-6.5 17.85c-7.167 6.5-14.96 9.971-18.654 16.895c-4.017 7.532-2.885 11.541-2.885 11.541 l-4.155 2.077l2.764 5.655c0 0 0.044-0.012 0.113-0.031v18.677l-8.118-0.385v10.88l-5.781-0.259v-10.841l-21.679-1.027v10.898 l-5.781-0.259v-10.86l-8.84-0.419v-63.001l3.329-2.725l-10.965-6.344c0 0 0.261-6.298-4.906-12.295 c-5.167-5.998-6.908-5.048-14.074-11.548s-6.5-17-6.5-17v-5c0 0 4.167-2.167 4.333-4.5c0.167-2.333-4.833-6.333-5.667-7.833 c-0.833-1.5-1.5-9-1.5-9s-0.667 7.5-1.5 9s-5.833 5.5-5.667 7.833s4.333 4.5 4.333 4.5v5c0 0 0.667 10.5-6.5 17 s-14.542 9.732-17.618 17.695c-3.077 7.963-1.715 11.305-1.715 11.305l-4.159 1.681l-6.841 4.766l5.062 3.292v65.746l-7.341 2.25 v8.837l-4.002 1.205v-8.895l-8.227 2.521v8.85l-4.002 1.205v-8.907l-8.227 2.521v8.862l-4.002 1.205v-8.919l-8.227 2.521v8.875 l-4.002 1.205v-8.932l-8.227 2.521v8.887l-4.002 1.205v-8.944l-4.529 1.388v-45.514l4.094-3.351l-4.094-2.369v-0.109h-0.188 l-5.45-3.153c0 0 0.232-5.59-4.355-10.914s-6.131-4.481-12.493-10.251c-6.362-5.77-5.77-15.09-5.77-15.09v-4.438 c0 0 3.698-1.923 3.846-3.994c0.148-2.071-4.29-5.622-5.03-6.954c-0.74-1.331-1.331-7.988-1.331-7.988s-0.592 6.657-1.331 7.988 c-0.74 1.332-5.178 4.882-5.03 6.954c0.148 2.072 3.846 3.994 3.846 3.994v4.438c0 0 0.592 9.32-5.77 15.09 c-6.361 5.77-12.907 8.639-15.639 15.707c-2.732 7.068-1.522 10.034-1.522 10.034l-3.691 1.492l-6.073 4.231l3.931 2.557v170.108h10 v-166.26l4.976-1.698v33.585h10v-35.444h27.074v44.329l-5.926 1.816v8.912l-4.002 1.205v-8.969l-8.227 2.521v8.923l-4.002 1.205 v-8.981l-8.227 2.521v8.936l-4.242 1.277v135.495l-8.925 1.079v-13.002l-22.354 2.835v12.869l-7.451 0.9v-12.919l-9.704 2.834 v11.257l-0.02 0.002v14.971h-41.927v11.954h-4.589v-11.954h-55.97v11.954h-4.589v-11.954h-50.97v10h40.97v11.954h24.605v-11.954 h35.954v11.954h24.605v-11.954h35.954v11.954h24.605v-11.954h35.954v11.954h24.605v-11.954h35.953v11.954h24.605v-11.954h36.041 v17.786h-287.358v10h287.358v78.271h-208.712c-8.337-7.479-42.382-37.875-55.294-47.141c-45.683-32.787-95.36-56.447-147.652-70.325 c-5.918-1.571-12.026-2.913-18.296-4.042l-75.796-682.473l-11.603 37.614l-25.291-204.912l0 0l-14.904-140.186l-6.183 34.449 l-11.27-44.661l1.008 89.975l-14.744-14.449V95.117l-20.367 29.459l-0.098-0.325l-0.04 0.524l-0.043 0.062l0.012 0.347 l-12.895 167.952l-21.712 49.953l-87.642 749.403c0.95 0.134 1.9 0.263 2.849 0.401c1.861 0.271 3.625 0.528 5.359 0.744 c0.196-0.002 0.394-0.013 0.591-0.02c0.38-0.013 0.76-0.018 1.14-0.024l87.464-747.874l0.554-1.274l-59.288 757.031l-0.196 0.04 c1.373 0.828 2.519 1.76 3.458 2.738c2.154 1.575 3.897 3.591 5.133 5.937l46.034-1.98v17.141h-44.841 c0.65 2.713 0.672 5.622-0.013 8.545c-0.116 0.494-0.252 0.978-0.399 1.455h80.007v18.169h-86.527 c-0.16 0.492-0.335 0.983-0.539 1.47c-0.049 0.118-0.092 0.223-0.129 0.315c0.111 1.44 0.059 2.638 0.023 3.438l-0.014 0.341 c0.006 0.341 0.023 0.68 0.039 1.02c0.02 0.431 0.038 0.861 0.051 1.292c0.364 0.692 0.666 1.404 0.937 2.124h86.159v16.771h-84.094 c0.042 0.784 0.057 1.578 0.041 2.379c0.798 2.471 1.034 5.053 0.701 7.621h83.352v16.288H1140.36 c0.699-1.333 1.39-2.671 1.963-4.057c0.416-1.006 0.946-1.694 2.026-1.9c0.418-0.08 0.831-0.2 1.252-0.242 c0.996-0.101 1.654-0.611 2.038-1.527c0.163-0.388 0.354-0.775 0.599-1.115c1.299-1.801 1.917-3.765 1.659-6.007 c-0.075-0.658-0.089-1.453 0.211-1.996c0.717-1.298 0.64-2.43-0.223-3.576c-0.45-0.597-0.321-1.211-0.24-1.926 c0.161-1.426 0.183-2.903-0.007-4.324c-0.177-1.328-0.72-2.604-1.07-3.913c-0.208-0.78-0.294-1.598-0.548-2.361 c-0.181-0.544-0.124-0.953 0.146-1.444c1.034-1.878 0.836-3.514-0.612-5.018c-0.541-0.562-0.805-1.163-0.783-1.947 c0.031-1.069-0.01-2.14-0.037-3.21c-0.023-0.934-0.088-1.867-0.101-2.8c-0.015-1.067 0.147-2.158-0.016-3.199 c-0.383-2.445 0.396-4.656 1.294-6.807c0.407-0.976 0.362-1.725-0.177-2.497c-0.314-0.45-0.422-0.89-0.439-1.424 c-0.038-1.167 0.361-2.237 0.569-3.348c0.244-1.308 0.31-2.648 0.61-3.979c0.372-1.648 1.138-2.76 2.683-3.458 c1.751-0.791 2.988-2.065 3.451-4.037c0.309-1.317 0.088-2.336-1.039-3.151c-1.12-0.81-2.198-1.678-3.335-2.552 c0.135-0.535 0.527-0.827 1.016-1.031c1.503-0.63 2.522-1.788 3.197-3.203c0.941-1.972 0.976-3.832-1.451-4.708 c-0.217-0.079-0.495-0.278-0.545-0.474c-0.23-0.895-0.951-1.162-1.685-1.412c-1.45-0.494-2.909-0.962-4.455-1.471 c0.033-0.754-0.378-1.396-1.059-1.802c-0.651-0.388-1.352-0.73-2.073-0.954c-1.221-0.378-2.536-0.507-3.696-1.008 c-0.915-0.395-1.685-0.79-2.619-0.18c-0.126 0.083-0.332 0.059-0.5 0.059c-1.618 0.001-3.235-0.004-4.853-0.003 c-1.284 0-2.583 0.137-3.848-0.017c-3.562-0.434-7.106-1.017-10.664-1.484c-4.32-0.567-8.651-1.051-12.972-1.616 c-4.833-0.632-9.658-1.32-14.489-1.968c-0.563-0.075-0.923-0.283-1.161-0.834c-0.801-1.854-2.219-3.085-4.025-3.948 c-0.506-0.242-1.004-0.668-1.3-1.14c-0.448-0.715-0.767-1.526-1.047-2.329c-0.261-0.75-0.683-1.237-1.454-1.479 c-0.338-0.105-0.681-0.346-0.911-0.619c-2.437-2.881-4.113-6.141-4.925-9.847c-0.896-4.089-0.994-8.219-0.735-12.369 c0.029-0.463 0.341-0.922 0.574-1.354c0.489-0.909 1.529-1.017 2.301-1.517c1.394-0.902 1.714-1.785 1.22-3.37 c-0.47-1.505-0.89-3.026-1.344-4.537c-0.378-1.255-1.016-2.254-2.454-2.476c-0.676-0.105-0.984-0.535-1.114-1.219 c-0.141-0.749-0.418-1.474-0.671-2.197c-0.672-1.921-1.364-3.836-2.07-5.816c0.366-0.154 0.671-0.287 0.98-0.412 c0.796-0.324 0.892-0.413 0.635-1.224c-0.529-1.668-1.094-3.326-1.715-4.962c-0.173-0.456-0.519-0.935-0.92-1.2 c-1.098-0.725-1.652-1.792-2.192-2.924c-0.8-1.678-2.099-2.645-4.05-2.617c-0.587 0.008-1.2-0.102-1.755-0.293 c-0.313-0.108-0.674-0.448-0.769-0.758c-0.659-2.15 1.271-4.644 3.522-4.611c0.599 0.009 1.199 0.053 1.795 0.025 c0.639-0.029 1.134-0.321 1.428-0.929c0.454-0.94 0.198-2.276-0.498-3.087c-0.374-0.436-0.668-0.981-0.855-1.525 c-0.315-0.92-0.474-1.894-0.777-2.819c-0.393-1.197-1.164-2.068-2.419-2.432c-0.902-0.262-1.796-0.566-2.712-0.769 c-1.185-0.262-2.267-0.715-3.316-1.325c-0.695-0.404-1.13-0.942-1.256-1.68c-0.179-1.046-0.291-2.109-0.362-3.168 c-0.097-1.451 0.009-1.522 1.444-1.279c0.168 0.029 0.335 0.118 0.499 0.109c0.755-0.042 1.642 0.121 2.227-0.223 c0.724-0.425 1.319-0.37 2.055-0.296c0.894 0.09 1.749-0.056 2.363-0.919c0.659-0.926 1.631-1.432 2.717-1.807 c0.99-0.343 1.864-0.826 2.46-1.884c0.483-0.857 1.33-1.689 2.661-1.193c0.494 0.184 1.117 0.156 1.654 0.063 c0.969-0.167 1.867-0.48 2.445-1.428c0.37-0.606 0.941-1.09 1.418-1.632c0.31-0.352 0.759-0.661 0.895-1.072 c0.595-1.805 1.978-2.805 3.487-3.754c0.857-0.54 1.689-1.181 2.372-1.924c1.507-1.638 2.018-4.927 0.451-7.591 c-0.685-1.166-1.574-2.213-2.425-3.389c0.155-0.24 0.374-0.502 0.508-0.802c0.984-2.211 0.866-3.717-0.965-4.807 c-0.447-0.266-1.042-0.384-1.571-0.392c-1.306-0.02-2.613 0.063-3.898 0.104c-0.055-0.131-0.129-0.217-0.114-0.283 c0.068-0.289 0.164-0.571 0.245-0.856c0.241-0.842 0.018-1.306-0.788-1.552c-0.776-0.237-1.568-0.424-2.344-0.661 c-2.488-0.76-5.195-0.468-7.611-1.613c-0.617-0.292-0.929-0.077-1.184 0.68c-0.146 0.434-0.385 0.666-0.809 0.683 c-0.465 0.019-0.943 0.041-1.397-0.04c-1.847-0.326-3.687-0.7-5.532-1.037c-0.69-0.126-1.3-0.342-1.795-0.885 c-1.788-1.958-2.716-4.378-3.823-6.811c0.334-0.02 0.548-0.069 0.749-0.038c1.531 0.239 2.881-0.323 4.141-1.05 c0.851-0.491 1.529-1.223 1.533-2.342c0.002-0.544 0.015-1.093 0.09-1.63c0.081-0.585-0.06-0.985-0.631-1.24 c-0.779-0.347-1.536-0.745-2.303-1.121c-0.337-0.166-0.726-0.296-0.547-0.883c0.807 0 1.616 0.017 2.423-0.005 c0.696-0.019 1.086-0.462 1.271-1.081c0.231-0.772 0.012-1.482-0.55-1.833c-1.081-0.674-2.15-1.369-3.263-1.986 c-0.984-0.546-1.642-1.337-2.108-2.334c-0.524-1.123-1.053-2.244-1.612-3.349c-1.195-2.364-2.422-4.714-3.266-7.235 c-0.256-0.764-0.513-1.517-0.315-2.365c0.092-0.396 0.042-0.872-0.09-1.262c-0.178-0.531-0.148-0.982 0.086-1.479 c0.361-0.77 0.376-1.582 0.079-2.376c-0.378-1.012-0.657-2.024-0.527-3.128c0.07-0.598-0.202-1.144-0.755-1.377 c-0.699-0.295-1.442-0.55-2.189-0.646c-0.539-0.069-0.977-0.149-1.349-0.573c-0.393-0.448-0.879-0.673-1.424-0.362 c-0.233 0.49-0.44 0.925-0.66 1.387c-0.931-0.673-1.108-1.005-1.441-2.56c0.17-0.021 0.337-0.062 0.504-0.059 c0.813 0.017 1.545-0.089 2.322-0.493c0.957-0.497 2.07-0.827 3.146-0.938c2.317-0.238 4.127-1.273 5.582-3.027 c0.736-0.887 1.445-1.79 2.479-2.38c1.416-0.807 1.67-1.91 0.734-3.297c-0.449-0.666-1.006-1.268-1.565-1.849 c-0.97-1.009-1.006-1.61-0.1-2.651c0.547-0.63 1.19-0.954 2.043-0.765c0.32 0.071 0.649 0.098 1.016 0.151 c0.248-0.749-0.086-1.327-0.327-1.893c-0.714-1.675-1.332-1.987-3.074-1.625c-0.25 0.052-0.493 0.18-0.743 0.188 c-0.444 0.015-0.891-0.034-1.377-0.058c0-0.484 0.032-0.823-0.009-1.152c-0.04-0.32-0.053-0.774-0.256-0.92 c-0.926-0.666-1.361-1.6-1.717-2.625c-0.106-0.306-0.366-0.587-0.618-0.808c-0.639-0.56-1.299-1.098-1.977-1.61 c-0.974-0.735-1.049-1.53-0.135-2.318c0.68-0.586 1.362-1.192 2.125-1.652c0.67-0.404 0.855-0.859 0.691-1.588 c-0.336-1.493-0.624-2.997-0.937-4.495c-0.052-0.25-0.134-0.495-0.193-0.745c-0.166-0.706-0.587-1.07-1.326-1.188 c-0.428-0.068-0.936-0.263-1.204-0.575c-0.694-0.811-1.454-1.438-2.533-1.618c-0.583-0.097-0.672-0.516-0.72-1.039 c-0.093-1.014-0.277-2.02-0.412-3.031c-0.045-0.337-0.091-0.681-0.075-1.02c0.062-1.319 0.158-2.637 0.219-3.956 c0.014-0.294-0.027-0.602-0.104-0.886c-0.716-2.65-0.341-5.246 0.269-7.86c0.416-1.786 0.68-3.61 0.954-5.426 c0.306-2.026 0.512-4.068 0.827-6.093c0.318-2.045 0.509-4.077-0.071-6.104c-0.282-0.985-0.563-1.973-0.896-2.942 c-0.463-1.346-0.765-2.697-0.703-4.142c0.049-1.151-0.071-2.31-0.125-3.464c-0.071-1.546 0.034-3.061 0.415-4.581 c0.737-2.94 1.681-5.838 1.972-8.879c0.027-0.283 0.149-0.557 0.204-0.752c0.675-0.178 1.289-0.248 1.819-0.497 c1.52-0.714 3.138-0.866 4.763-0.854c2.91 0.021 5.82 0.155 8.73 0.216c1.508 0.032 2.838 0.577 4.07 1.37 c0.412 0.265 0.854 0.674 1.009 1.113c0.553 1.566 0.989 3.174 1.465 4.767c0.023 0.078 0.022 0.172 0.004 0.252 c-0.26 1.204-0.466 2.424-0.802 3.607c-0.363 1.278-0.089 1.692 1.236 1.516c0.354-0.047 0.703-0.264 1.015-0.464 c0.357-0.229 0.643-0.573 1.007-0.788c1.225-0.724 1.756-1.829 1.812-3.195c0.037-0.898 0.017-1.798 0.029-2.698 c0.019-1.506 0.482-2.833 1.475-3.998c1.009-1.185 1.8-2.452 1.636-4.159c-0.153-1.584-0.934-2.313-2.525-2.068 c-1.58 0.244-3.153 0.296-4.708-0.154c-0.491-0.142-0.975-0.306-1.463-0.458c-2.079-0.648-4.171-1.259-6.234-1.954 c-1.496-0.504-2.912-1.335-4.439-1.637c-2.765-0.545-5.583-0.739-8.361 0.113c-0.342 0.105-0.726 0.071-1.319 0.122 c0.274-0.703 0.442-1.217 0.671-1.703c0.473-1.004 1.023-1.974 1.461-2.992c0.685-1.594 1.098-3.245 0.69-4.998 c-0.087-0.373-0.241-0.74-0.265-1.116c-0.02-0.314-0.005-0.783 0.188-0.93c0.697-0.529 1.44-1.027 2.232-1.395 c1.038-0.481 1.945-1.042 2.476-2.106c0.619-1.243 0.765-1.299 1.9-0.564c1.783 1.156 3.755 1.836 5.782 2.374 c2.89 0.766 5.784 1.496 8.762 1.898c2.212 0.298 4.369 0.544 6.62 0.219c2.36-0.341 4.149-1.486 5.646-3.198 c0.396-0.454 0.634-1.097 0.793-1.693c0.193-0.722 0.443-1.356 0.997-1.888c1.111-1.067 1.652-2.412 1.489-3.936 c-0.111-1.033 0.185-1.822 0.854-2.563c0.833-0.923 1.029-2.033 0.813-3.234c-0.083-0.463-0.206-0.924-0.232-1.39 c-0.021-0.366-0.021-0.793 0.144-1.1c0.765-1.422 0.936-2.901 0.656-4.475c-0.08-0.451-0.112-0.972 0.035-1.391 c0.616-1.755-0.091-3.568 0.293-5.326c0.033-0.151-0.047-0.341-0.113-0.496c-0.473-1.105-0.392-2.243-0.317-3.408 c0.055-0.852 0.305-1.474 1.057-1.904c0.289-0.165 0.605-0.395 0.751-0.676c0.322-0.619 0.804-0.882 1.451-1.103 c2.451-0.835 3.765-2.66 3.901-5.243c0.007-0.126 0.05-0.25 0.044-0.224c0.971-0.665 1.849-1.254 2.713-1.861 c0.839-0.591 1.623-1.204 1.988-2.257c0.133-0.384 0.601-0.719 0.994-0.934c1.254-0.688 2.18-1.621 2.623-3.008 c0.084-0.263 0.25-0.59 0.472-0.703c0.922-0.466 1.807-1.223 2.961-0.609c0.047 0.025 0.148-0.053 0.256-0.095 c0.02-0.103 0.098-0.244 0.059-0.337c-0.319-0.769-0.384-1.472 0.334-2.088c0.126-0.108 3.386-0.718 3.41-1.993 c0.024-1.275-1.819-1.842-3.273-2.698c-0.753-0.413-1.408-0.824-2.104-1.146c-3.413-1.578-6.869-3.05-10.497-4.078 c-0.985-0.279-1.97-0.562-2.962-0.813c-1.403-0.356-2.845-0.59-4.214-1.044c-3.264-1.083-6.536-1.699-9.947-0.757 c-0.321 0.088-0.683 0.082-1.02 0.05c-1.871-0.173-3.656 0.108-5.359 0.922c-0.5 0.239-1.032 0.412-1.554 0.602 c-2.796 1.018-5.161 2.815-7.72 4.262c-0.143 0.081-0.231 0.253-0.361 0.363c-2.125 1.792-4.257 3.577-6.379 5.373 c-2.038 1.726-3.827 3.662-5.113 6.033c-0.197 0.363-0.592 0.619-0.958 0.987c-0.498-0.807-0.39-1.477-0.305-2.152 c0.187-1.483 0.415-2.965 0.517-4.455c0.079-1.149-0.009-2.311-0.019-3.467c-0.022-2.443-0.155-4.869-0.758-7.258 c-0.407-1.611-0.728-3.247-1.02-4.884c-0.353-1.979-0.544-3.989-0.972-5.949c-0.409-1.874-0.988-3.716-1.572-5.546 c-0.741-2.324-1.648-4.591-3.044-6.609c-1.483-2.144-2.999-4.268-4.586-6.334c-2.214-2.881-4.4-5.796-6.798-8.521 c-2.625-2.983-5.44-5.803-8.247-8.619c-1.325-1.33-2.811-2.502-4.255-3.708c-0.454-0.379-0.98-0.706-1.523-0.937 c-1.625-0.691-3.334 0.177-3.825 1.867c-0.352 1.211-0.188 2.391 0.248 3.524c0.536 1.392 1.165 2.748 1.738 4.125 c0.089 0.214 0.095 0.461 0.173 0.864c-0.583-0.113-1.025-0.22-1.474-0.281c-1.416-0.19-2.241 0.496-2.215 1.899 c0.014 0.723 0.049 1.478 0.263 2.158c0.537 1.71 0.99 3.433 1.389 5.181c0.421 1.845 1.308 3.519 2.396 5.073 c0.241 0.344 0.564 0.656 0.348 1.123c-0.095 0.049-0.164 0.111-0.241 0.122c-1.577 0.219-2.138 0.788-2.395 2.326 c-0.417 2.495-0.019 4.841 1.149 7.081c0.354 0.678 0.653 1.396 0.877 2.126c0.667 2.184 1.572 4.246 2.897 6.117 c0.233 0.329 0.381 0.717 0.607 1.15c-0.401 0.103-0.682 0.197-0.97 0.245c-0.732 0.121-1.01 0.599-0.991 1.274 c0.049 1.719 0.268 3.408 0.868 5.037c0.338 0.916 0.691 1.839 0.89 2.79c0.474 2.272 1.496 4.146 3.495 5.432 c0.336 0.216 0.651 0.595 0.787 0.968c0.389 1.07 0.857 2.135 0.506 3.345c-0.112 0.386-0.055 0.867 0.062 1.264 c0.194 0.658 0 1.148-0.406 1.646c-1.032 1.265-1.357 2.716-1.07 4.317c0.56 3.123 3.736 6.315 6.986 6.665 c0.449 0.048 0.896 0.263 1.309 0.469c0.434 0.217 0.457 0.71 0.011 0.874c-1.175 0.432-1.796 1.384-2.418 2.354 c-0.345 0.537-0.811 0.682-1.436 0.565c-0.494-0.092-1.011-0.083-1.517-0.083c-2.086-0.002-3.737 1.173-5.385 2.188 c-1.314 0.81-2.627 1.588-4.029 2.229c-1.783 0.814-2.346 2.25-1.448 3.969c0.551 1.056 1.224 2.07 1.979 2.991 c0.794 0.969 1.956 1.328 3.193 1.426c0.589 0.046 0.96-0.199 1.225-0.724c0.226-0.448 0.45-0.97 0.829-1.252 c0.883-0.658 1.852-1.203 2.799-1.771c0.346-0.207 0.72-0.271 1.126 0.213c-0.692 1.415-0.529 3.001-0.507 4.573 c0.007 0.512 0.035 1.028 0.113 1.534c0.137 0.89-0.031 1.567-0.921 2.025c-0.379 0.195-0.788 0.632-0.883 1.031 c-0.481 2.015-0.656 4.066-0.165 6.106c0.276 1.146 1.226 1.755 2.368 1.664c0.882-0.07 1.169 0.125 1.247 1.027 c0.081 0.935 0.19 1.895 0.065 2.813c-0.254 1.866 0.298 3.65 0.392 5.476c0.017 0.338 0.083 0.685 0.193 1.004 c0.836 2.421 1.659 4.846 2.554 7.246c0.231 0.618 0.104 1.06-0.221 1.547c-0.401 0.603-0.833 1.194-1.153 1.84 c-0.872 1.758-0.456 3.311 1.128 4.484c0.235 0.174 0.527 0.353 0.638 0.599c0.78 1.719 2.069 3.006 3.444 4.238 c0.269 0.241 0.527 0.61 0.581 0.953c0.16 1.022 0.655 1.843 1.324 2.585c0.394 0.437 0.586 0.91 0.519 1.516 c-0.102 0.934-0.154 1.873-0.216 2.811c-0.076 1.152-0.159 2.305-0.203 3.458c-0.054 1.412 0.1 2.857-0.15 4.23 c-0.302 1.66 0.1 3.134 0.618 4.634c0.181 0.524 0.388 1.041 0.606 1.551c0.676 1.578 0.735 3.214 0.609 4.903 c-0.085 1.141 0.015 2.298 0.075 3.446c0.053 1.022 0.16 2.042 0.253 3.062c0.078 0.851 0.14 1.704 0.262 2.548 c0.268 1.857 0.666 3.702 0.834 5.567c0.231 2.577-0.069 5.119-0.945 7.577c-0.17 0.478-0.397 1.01-0.334 1.483 c0.152 1.15-0.187 2.202-0.411 3.287c-0.181 0.877-0.418 1.764-0.428 2.649c-0.013 1.193-0.222 2.248-0.953 3.234 c-0.38 0.513-0.713 0.852-1.374 0.991c-1.225 0.258-2.337 0.773-3.14 1.835c-0.229 0.303-0.684 0.587-1.049 0.606 c-1.016 0.052-1.444 0.628-1.629 1.505c-0.361 1.707-0.707 3.417-1.062 5.125c-0.117 0.562 0.032 0.96 0.546 1.302 c0.782 0.52 1.518 1.111 2.241 1.712c0.986 0.819 0.931 1.654-0.122 2.389c-0.104 0.072-0.236 0.106-0.339 0.18 c-1.125 0.807-2.125 1.7-2.583 3.088c-0.15 0.456-0.484 0.906-0.851 1.224c-0.562 0.486-0.877 0.947-0.736 1.754 c0.138 0.792-0.216 1.066-1.067 0.954c-0.589-0.078-1.16-0.295-1.75-0.369c-0.362-0.045-0.789-0.036-1.106 0.118 c-1.015 0.492-1.784 2.297-1.543 3.529c0.327-0.05 0.668-0.064 0.985-0.158c0.925-0.276 1.934 0.35 2.529 1.552 c0.433 0.876-0.271 1.406-0.767 1.988c-0.579 0.68-1.206 1.339-1.661 2.099c-0.649 1.084-0.321 2.237 0.785 2.827 c1.057 0.564 1.817 1.422 2.533 2.321c1.519 1.907 3.412 3.06 5.888 3.168c0.293 0.013 0.599 0.068 0.87 0.175 c1.728 0.686 3.41 1.546 5.364 1.308c0.059-0.007 0.129 0.085 0.272 0.185c-0.476 0.765-0.294 1.925-1.556 2.378 c-0.248-0.508-0.481-0.985-0.693-1.419c-0.642-0.177-1.037 0.113-1.437 0.478c-0.238 0.217-0.548 0.399-0.857 0.486 c-0.729 0.206-1.489 0.306-2.215 0.522c-0.818 0.244-1.278 0.818-1.135 1.634c0.174 0.996-0.151 1.845-0.423 2.746 c-0.157 0.521-0.341 1.141-0.198 1.623c0.371 1.251 0.209 2.484 0.215 3.739c0.004 0.788-0.035 1.535-0.302 2.249 c-0.494 1.319-1.006 2.635-1.598 3.912c-0.935 2.014-1.917 4.007-2.93 5.983c-0.445 0.867-0.857 1.854-1.565 2.459 c-1.153 0.986-2.51 1.748-3.831 2.519c-0.832 0.485-1.169 0.943-1.009 1.837c0.142 0.794 0.717 1.246 1.661 1.269 c0.707 0.018 1.414 0.003 2.109 0.003c0.108 0.668-0.315 0.752-0.649 0.918c-0.728 0.36-1.439 0.759-2.183 1.081 c-0.64 0.277-0.755 0.717-0.646 1.345c0.086 0.492 0.065 1.001 0.111 1.501c0.027 0.29 0.022 0.614 0.154 0.856 c0.413 0.758 0.93 1.446 1.772 1.781c1.23 0.488 2.448 1.048 3.838 0.773c0.172-0.034 0.368 0.052 0.596 0.09 c-0.321 0.771-0.554 1.458-0.884 2.094c-0.823 1.589-1.529 3.265-2.823 4.55c-0.405 0.402-0.946 0.79-1.486 0.911 c-2.081 0.465-4.184 0.831-6.284 1.202c-0.367 0.065-0.78 0.036-1.138-0.066c-0.241-0.068-0.503-0.302-0.617-0.532 c-0.479-0.962-0.657-1.03-1.624-0.669c-0.716 0.267-1.45 0.577-2.197 0.648c-2.437 0.23-4.808 0.75-7.15 1.43 c-1.096 0.319-1.267 0.662-0.985 1.758c0.086 0.333 0.102 0.684 0.154 1.056c-0.87-0.063-1.548-0.13-2.228-0.156 c-0.684-0.026-1.372-0.039-2.056-0.011c-1.76 0.07-3.119 1.71-2.746 3.407c0.205 0.936 0.608 1.828 0.926 2.75 c-0.763 1.054-1.646 2.106-2.342 3.27c-1.352 2.26-1.195 5.863 0.505 7.59c0.767 0.779 1.687 1.43 2.609 2.03 c1.203 0.783 2.336 1.648 2.938 2.956c0.296 0.644 0.644 1.176 1.117 1.676c0.553 0.586 1.044 1.231 1.589 1.827 c0.28 0.306 0.591 0.6 0.936 0.827c0.917 0.602 1.996 0.714 2.971 0.407c1.385-0.437 2.236 0.316 2.771 1.234 c0.633 1.086 1.604 1.446 2.594 1.935c0.786 0.389 1.659 0.771 2.225 1.397c0.926 1.024 1.89 1.504 3.254 1.15 c0.303-0.079 0.724-0.051 0.982 0.106c1.01 0.616 2.045 0.703 3.172 0.417c0.465-0.117 0.973-0.062 1.521-0.087 c0.132 1.743 0.092 3.318-0.482 4.814c-0.184 0.479-0.587 0.951-1.013 1.247c-1.059 0.737-2.246 1.205-3.529 1.466 c-1.001 0.204-1.984 0.525-2.945 0.876c-0.417 0.152-0.788 0.479-1.13 0.782c-1.017 0.901-1.387 2.168-1.602 3.413 c-0.181 1.049-0.424 1.919-1.211 2.718c-0.73 0.742-0.729 1.789-0.316 2.77c0.384 0.91 1.182 1.028 2.031 1.019 c0.299-0.004 0.598-0.042 0.897-0.053c1.653-0.063 3.064 0.742 3.627 2.289c0.841 2.312 0.33 3.362-2.106 3.36 c-2.241-0.001-3.59 1.077-4.451 3.016c-0.417 0.94-0.912 1.809-1.844 2.396c-0.44 0.278-0.838 0.78-1.028 1.268 c-0.648 1.669-1.189 3.38-1.783 5.07c-0.214 0.609-0.039 0.983 0.584 1.175c0.346 0.107 0.674 0.27 1.06 0.428 c-0.755 2.085-1.472 4.04-2.169 6.001c-0.214 0.602-0.447 1.212-0.536 1.837c-0.112 0.782-0.44 1.258-1.239 1.407 c-1.281 0.239-1.972 1.085-2.314 2.294c-0.43 1.52-0.859 3.04-1.334 4.546c-0.576 1.832-0.279 2.696 1.34 3.64 c0.258 0.15 0.522 0.302 0.801 0.405c1.379 0.504 1.976 1.527 1.978 2.945c0.004 2.822 0.157 5.65-0.277 8.458 c-0.242 1.56-0.276 3.199-0.803 4.658c-1.086 3.01-2.33 5.987-4.58 8.379c-0.303 0.322-0.698 0.608-1.106 0.769 c-0.649 0.256-1.086 0.637-1.284 1.313c-0.132 0.45-0.279 0.905-0.494 1.319c-0.464 0.893-0.771 1.872-1.875 2.316 c-1.85 0.746-3.264 2.026-4.06 3.894c-0.23 0.539-0.564 0.789-1.141 0.862c-2.629 0.334-5.252 0.711-7.88 1.051 c-2.969 0.383-5.942 0.732-8.91 1.116c-3.05 0.395-6.097 0.816-9.146 1.223c-2.754 0.368-5.512 0.708-8.261 1.104 c-2.24 0.323-4.464 0.767-6.749 0.619c-1.408-0.091-2.819-0.155-4.229-0.18c-0.634-0.011-1.385 0.346-1.884 0.113 c-1.21-0.566-2.206-0.3-3.237 0.322c-0.135 0.082-0.338 0.043-0.503 0.087c-1.237 0.33-2.5 0.588-3.699 1.023 c-1.033 0.375-2.04 0.882-2.204 2.221c-0.025 0.201-0.468 0.41-0.754 0.509c-1.372 0.473-2.77 0.873-4.128 1.38 c-0.451 0.168-0.996 0.502-1.167 0.902c-0.254 0.597-0.668 0.797-1.176 1.043c-1.348 0.655-1.769 1.453-1.515 2.892 c0.373 2.118 1.578 3.653 3.447 4.68c0.518 0.285 1.122 0.462 1.287 1.224c-0.517 0.341-0.985 0.62-1.418 0.944 c-0.539 0.403-1.048 0.847-1.574 1.268c-0.735 0.588-1.646 1.141-1.552 2.207c0.132 1.496 0.432 3 1.755 3.986 c0.678 0.506 1.409 0.946 2.137 1.379c1.099 0.653 2.028 1.414 2.222 2.792c0.071 0.503 0.113 1.072 0.378 1.471 c0.348 0.521 0.305 1.038 0.349 1.588c0.066 0.834 0.112 1.645 0.356 2.493c0.36 1.252 0.592 2.643-0.267 3.944 c-0.313 0.475-0.401 1.252-0.279 1.825c0.201 0.942 0.734 1.809 0.985 2.745c0.295 1.101 0.648 2.252 0.597 3.364 c-0.077 1.667-0.102 3.322-0.08 4.99c0.026 2.001-0.104 4.008-0.258 6.005c-0.035 0.453-0.37 0.941-0.691 1.305 c-1.389 1.575-1.607 3.195-0.66 5.045c0.18 0.352 0.337 0.824 0.255 1.183c-0.475 2.068-0.967 4.136-1.57 6.169 c-0.491 1.658-0.414 3.298-0.055 4.928c0.134 0.608 0.087 1.075-0.21 1.574c-0.218 0.367-0.398 0.758-0.629 1.116 c-0.364 0.565-0.383 1.141-0.042 1.696c0.621 1.009 0.633 2.097 0.534 3.224c-0.18 2.049 0.436 3.878 1.598 5.546 c0.194 0.279 0.46 0.541 0.553 0.853c0.402 1.336 1.288 1.856 2.655 1.98c0.889 0.081 1.922 0.263 2.409 1.237 c0.687 1.373 1.318 2.774 1.989 4.155c0.316 0.651 0.622 1.315 1.019 1.916c0.492 0.745 1.18 1.208 2.141 1.193 c0.682-0.01 1.379-0.005 2.047 0.115c2.736 0.489 3.639 1.126 3.514 3.451c-0.068 1.264 0.648 1.767 1.89 1.497 c0.331-0.072 0.651-0.211 0.964-0.347c1.293-0.562 2.554-0.568 3.81 0.128c1.654 0.917 3.45 1.428 5.255 1.98 c3.482 1.065 7.055 1.331 10.632 1.4l147.26 0.005c1.042-0.016 2.086-0.043 3.129-0.096h1119.145v-73.999h0.075v-12.984h-19.583 L2211.816 1138.138L2211.816 1138.138z M982.262 1168.076l-46.768 5.103v-42.725l46.768-6.52V1168.076z M1073.654 1168.076h-76.25 v-44.142h76.25V1168.076z M1135.726 1173.177l-46.768-5.103v-44.142l46.768 6.52V1173.177z M1248.817 1125.355h-24.753v-17.571 l24.591-1.058v17.184l0.162 0.026V1125.355z M1272.489 884.264l-15.659 212.102l-78.408 3.373l70.362-916.429l23.706 88.908 L1272.489 884.264L1272.489 884.264z M1342.139 451.779l70.153 631.663c-9.795-1.352-19.962-2.187-30.446-2.503l-40.86-470.313 l-7.224-99.456L1342.139 451.779z M1294.641 193.752l32.215 261.007l-14.593 49.547l-0.476 1.618l0.08 1.685l27.441 574.739 c-13.775 1.278-26.014 3.178-35.95 5.06l-5.372-65.462l-9.551-852.793L1294.641 193.752z M1282.572 1102.355 c10.66-2.841 46.874-11.564 89.641-11.564c23.846 0 46.07 2.689 66.054 7.992c13.629 3.617 27.072 7.937 40.316 12.904 c-8.437-0.233-16.967-0.4-25.554-0.465c-76.594-0.577-145.597 3.517-171.946 5.321L1282.572 1102.355z M1286.743 1134.981 l16.483-1.231l0.133-8.589c33.552-1.937 89.187-4.4 149.592-3.939c17.785 0.136 35.358 0.674 52.224 1.455 c15.517 7.028 30.711 15.011 45.547 23.915c-29.302-2.161-63.123-3.917-97.695-4.182c-72.778-0.549-138.698 3.12-167.69 5.034 L1286.743 1134.981z M1291.286 1179.651l1.351-22.658c31.477-1.975 92.944-5.1 160.314-4.583 c42.046 0.321 82.963 2.864 115.896 5.647c4.647 3.091 9.266 6.252 13.835 9.531c3.741 2.685 9.481 7.353 15.885 12.752 c-35.96-2.04-89.776-4.505-145.54-4.931c-66.122-0.498-126.56 2.484-158.81 4.47L1291.286 1179.651z M1297.897 1206.584 l0.935-16.969c32.915-1.968 90.892-4.686 154.119-4.206c62.863 0.479 123.234 3.56 158.169 5.686 c6.422 5.574 12.68 11.094 17.631 15.489L1297.897 1206.584L1297.897 1206.584z M2124.715 835.394l6.871-2.345v72.241l-6.871-0.308 V835.394z M1955.305 865.377c5.692-0.913 13.405-1.782 22.149-1.782c8.873 0 16.735 0.654 22.504 1.331v23.649l-7.851-0.372v10.843 l-5.781-0.259v-10.805l-21.679-1.027v10.862l-5.781-0.259v-10.823l-3.561-0.168V865.377L1955.305 865.377z M1775.921 1090.526 h-30.047v11.954h-4.589v-11.954h-55.97v11.954h-4.589v-11.954h-4.299v-6.339l42.067-5.113h57.426L1775.921 1090.526 L1775.921 1090.526z M1832.839 1090.526h-9.119v-12.658c0-2.758-3.944-7.667-5.392-7.667s-5.392 5.002-5.392 7.667v12.658h-6.487 v11.954h-4.605v-11.954h-15.923v-30.133h46.918V1090.526z M1832.839 1050.394h-46.918v-5.12h46.918V1050.394z M1919.989 1206.584 h-57.5v-128.819h57.5V1206.584z M1919.989 1067.765h-57.5v-4.421h57.5V1067.765z M1919.989 1053.343h-3.504v-12.17h-19.583v12.17 h-11.325v-12.17h-19.583v12.17h-3.504v-12.17h-10v49.353h-9.65v-57.807h-0.04v-9.871h-16.084v12.425h-9.301v-12.425h-16.084v12.425 h-9.301v-12.425h-16.085v9.871h-0.024v23.072h-13.302v13.538h-17.046v-13.538h-20.436V941.638l99.414-29.925v78.163l10-1.929 V832.039l6.872-2.345v171.173h10V827.852h33.683v173.015h10v-96.154l246.48 11.033v-84.292l33.683 1.515v84.882l19.948 0.874v96.711 c-4.36-4.256-10.18-7.287-17.027-7.287c-7.025 0-13.661 3.104-18.683 8.741c-1.65 1.852-3.047 3.9-4.149 6.034 c-1.739 2.612-2.733 5.484-2.733 7.906v1.082c-0.054 0.589-0.089 1.176-0.089 1.753v86.433h10v-86.433 c0-6.248 6.573-15.516 15.653-15.516c9.198 0 17.027 10.066 17.027 15.516v96.433h-10.826v8.037h-7.841v-8.037h-19.583v8.037h-7.841 v-8.037h-19.583v8.037h-7.841v-8.037h-19.583v8.037h-7.841v-8.037h-19.583v8.037h-7.841v-8.037h-19.583v8.037h-7.841v-8.037h-19.583 v8.037h-7.841v-8.037h-19.585v8.037h-7.841v-8.037h-19.583v8.037h-7.841v-8.037h-19.585v8.037h-7.581v-96.964h-10V1053.343z  M2221.431 1206.584h-291.442v-26.959h34.579v11.954h24.605v-11.954h35.953v11.954h24.605v-11.954h35.954v11.954h24.605v-11.954 h35.954v11.954h24.605v-11.954h35.954v11.954h14.628L2221.431 1206.584L2221.431 1206.584z M2221.431 1181.579h-4.612v-11.954 h-55.97v11.954h-4.589v-11.954h-55.97v11.954h-4.589v-11.954h-55.97v11.954h-4.589v-11.954h-55.969v11.954h-4.605v-11.954h-44.579 v-21.593h291.441L2221.431 1181.579L2221.431 1181.579z M1913.084 1154.732h-8.295v24.518h8.295V1154.732z M1664.373 1158.28v28.711 h8.295v-28.711H1664.373z M1652.103 1158.28v28.711h8.295v-28.711H1652.103z M2185.419 967.052c0-1.946-2.115-5.21-5.246-5.21 c-3.131 0-5.246 3.05-5.246 5.21c0 2.161 0 17.099 0 17.099l10.491 0.567C2185.419 984.717 2185.419 968.999 2185.419 967.052z  M2052.834 1081.517c-4.074 0-6.825 3.968-6.825 6.78v19.824l13.65 0.27v-20.094 C2059.659 1085.765 2056.908 1081.517 2052.834 1081.517z M2116.504 1082.672c-4.074 0-6.825 3.968-6.825 6.78v19.928l13.65 0.27 v-20.198C2123.329 1086.92 2120.577 1082.672 2116.504 1082.672z M2186.999 1090.607c0-2.532-2.751-6.78-6.825-6.78 s-6.825 3.968-6.825 6.78v20.032l13.65 0.27V1090.607L2186.999 1090.607z M2121.749 1029.129c0-1.946-2.115-5.211-5.246-5.211 c-3.131 0-5.246 3.05-5.246 5.211s0 17.099 0 17.099l10.491 0.567C2121.749 1046.794 2121.749 1031.075 2121.749 1029.129z  M2165.19 840.388l-6.123-0.284v12.552l6.123 0.283V840.388z M1994.409 1024.55c0-1.946-2.115-5.211-5.246-5.211 c-3.131 0-5.246 3.05-5.246 5.211s0 17.099 0 17.099l10.491 0.567C1994.409 1042.215 1994.409 1026.497 1994.409 1024.55z  M1989.164 1080.361c-4.074 0-6.825 3.968-6.825 6.78v19.719l13.65 0.27v-19.989 C1995.989 1084.609 1993.238 1080.361 1989.164 1080.361z M2185.419 1031.701c0-1.946-2.115-5.21-5.246-5.21 c-3.131 0-5.246 3.05-5.246 5.21c0 2.161 0 17.099 0 17.099l10.491 0.567C2185.419 1049.367 2185.419 1033.647 2185.419 1031.701z  M1975.487 867.447h-6.123v12.552h6.123V867.447z M2058.079 1026.839c0-1.946-2.115-5.211-5.246-5.211s-5.246 3.05-5.246 5.211 s0 17.099 0 17.099l10.491 0.567C2058.079 1044.505 2058.079 1028.786 2058.079 1026.839z M1968.497 1006.34 c-1.754 1.969-3.219 4.162-4.35 6.441c-1.573 2.501-2.465 5.204-2.465 7.499v0.449c-0.1 0.804-0.156 1.602-0.156 2.385v96.985h10 v-96.985c0-6.248 6.573-15.516 15.653-15.516c9.198 0 15.653 10.066 15.653 15.516v96.985h10v-92.271l1.795-75.548l3.004-2.253 v-16.361l1.273-1.462l0.82 0.04l1.18 1.898v16.152l2.519 2.494l1.185 50.97c2.942-2.622 6.294-4.494 9.874-5.514l-1.156-49.722 l-2.422-2.398V931.29l-5.455-8.778l-10.903-0.528l-6.915 7.941v15.105l-2.886 2.165l-1.353 56.932 c-4.26-3.85-9.783-6.524-16.214-6.524C1980.154 997.601 1973.519 1000.705 1968.497 1006.34z M1930.74 957.634 c0-1.946-2.115-5.211-5.246-5.211s-5.246 3.05-5.246 5.211s0 17.098 0 17.098l10.491 0.567 C1930.74 975.299 1930.74 959.581 1930.74 957.634z M2058.079 962.475c0-1.946-2.115-5.211-5.246-5.211s-5.246 3.05-5.246 5.211 s0 17.098 0 17.098l10.491 0.567C2058.079 980.14 2058.079 964.421 2058.079 962.475z M1994.409 960.186 c0-1.946-2.115-5.211-5.246-5.211c-3.131 0-5.246 3.05-5.246 5.211s0 17.098 0 17.098l10.491 0.567 C1994.409 977.851 1994.409 962.131 1994.409 960.186z M2121.749 964.764c0-1.946-2.115-5.21-5.246-5.21 c-3.131 0-5.246 3.05-5.246 5.21c0 2.161 0 17.099 0 17.099l10.491 0.567C2121.749 982.429 2121.749 966.71 2121.749 964.764z  M2032.167 1008.914c-1.681 1.887-3.098 3.978-4.209 6.156c-1.688 2.58-2.648 5.4-2.648 7.784v0.785 c-0.074 0.69-0.114 1.375-0.114 2.049v94.413h10v-94.413c0-6.248 6.573-15.516 15.653-15.516c9.198 0 15.653 10.066 15.653 15.516 v94.413h10v-89.371l1.795-75.549l3.004-2.254v-16.36l1.273-1.462l0.82 0.04l1.179 1.897v16.152l2.519 2.494l1.252 53.854 c2.875-2.99 6.228-5.189 9.851-6.503l-1.2-51.618l-2.422-2.398v-14.835l-5.456-8.779l-10.902-0.527l-6.915 7.941v15.105 l-2.886 2.165l-1.345 56.61c-4.261-3.854-9.787-6.531-16.221-6.531C2043.824 1000.172 2037.189 1003.276 2032.167 1008.914z  M2095.837 1013.187c-4.365 4.899-6.971 11.17-6.971 16.775v90.139h10v-90.139c0-6.248 6.573-15.516 15.653-15.516 c9.198 0 15.653 10.066 15.653 15.516v90.139h10v-86.471l1.795-75.549l3.004-2.253v-16.361l1.273-1.462l0.82 0.04l1.18 1.898v16.152 l2.519 2.494l1.234 53.084c2.945-2.606 6.297-4.464 9.875-5.471l-1.206-51.88l-2.422-2.398v-14.835l-5.455-8.778l-10.903-0.528 l-6.915 7.941v15.105l-2.886 2.165l-1.377 57.956c-4.257-3.838-9.771-6.502-16.19-6.502 C2107.494 1004.445 2100.859 1007.55 2095.837 1013.187z M2165.19 901.919l-6.123-0.283v12.552l6.123 0.284V901.919z  M968.8 1140.354l-19.843 3.156v13.249l19.843-2.716V1140.354z M1053.821 1138.918h-36.583v14.173h36.583V1138.918z  M1122.264 1143.509l-19.843-3.156v13.688l19.843 2.716V1143.509z M3481.066 1206.584l2.918-4.059 c-0.497-0.357-12.423-8.888-34.825-20.75c-1.224-0.648-2.497-1.314-3.812-1.996v-0.113h-0.217 c-15.663-8.104-37.751-18.457-65.135-28.555l30.764-106.021c0.77-2.652-0.756-5.426-3.408-6.195 c-2.652-0.769-5.426 0.757-6.195 3.408l-30.588 105.416c-0.901-0.315-1.809-0.631-2.72-0.945l21.25-89.197 c0.64-2.686-1.019-5.383-3.705-6.022c-2.688-0.639-5.383 1.019-6.022 3.705l-21.04 88.315c-2.327-0.762-4.679-1.519-7.067-2.269 c-3.941-1.238-7.814-2.421-11.619-3.554l24.781-104.435c0.638-2.687-1.023-5.382-3.71-6.019c-2.687-0.638-5.381 1.023-6.019 3.71 l-24.665 103.949c-1.812-0.515-3.611-1.02-5.388-1.511l13.535-66.777c0.548-2.706-1.201-5.345-3.907-5.894 c-2.703-0.548-5.345 1.201-5.894 3.907l-5.941 29.311c-0.99 19.933-1.944 37.141-2.439 45.859 c8.742 2.404 17.904 5.088 27.465 8.091c43.622 13.7 77.314 29.569 97.896 40.468c15.435 8.173 25.868 14.747 31.043 18.172 h-174.915l0.485-55.634l7.482-1.986l0.211-3.611c0.053-0.892 5.238-89.685 5.97-135.254c1.179-73.449-5.031-130.126-8.479-149.833 l-0.628-3.591l-3.612-0.5c-1.912-0.265-47.073-6.475-69.409-6.475c-22.301 0-54.822 3.996-56.195 4.167l-3.979 0.493l-0.383 3.991 c-0.117 1.218-11.658 122.537-8.525 184.865c1.016 20.202 3.152 42.887 6.532 69.352l9.919-1.267 c-2.924-22.892-4.906-42.904-6.029-60.892c10.999-0.902 48.231-3.779 70.363-3.323c20.582 0.429 48.156 2.306 59.19 3.104 c-1.493 37.261-3.807 78.683-4.509 90.967l-7.851 2.085l-0.553 63.343h-41.313v-17.028c10.925-2.423 19.122-12.183 19.122-23.827 c0-6.531-2.527-19.091-5.877-29.216c-5.174-15.632-11.235-23.231-18.532-23.231c-7.297 0-13.359 7.599-18.533 23.231 c-3.351 10.125-5.877 22.685-5.877 29.216c0 11.671 8.235 21.45 19.198 23.844v17.011h-59.467v-17.028 c10.925-2.423 19.122-12.183 19.122-23.827c0-13.459-10.95-24.41-24.41-24.41c-13.459 0-24.41 10.95-24.41 24.41 c0 11.671 8.235 21.45 19.198 23.844v17.011h-86.181v-23.679c13.481-2.498 23.726-14.336 23.726-28.53 c0-16.003-13.02-29.023-29.023-29.023s-29.023 13.02-29.023 29.023c0 14.227 10.293 26.087 23.821 28.547v23.662h-62.8v-17.028 c10.925-2.423 19.122-12.183 19.122-23.827c0-10.891-8.657-43.75-24.41-43.75c-15.752 0-24.41 32.859-24.41 43.75 c0 11.671 8.235 21.45 19.198 23.844v17.011H2883.96v10.5h631.009v-10.5h-33.903V1206.584z M3182.53 863.322 c9.467-1.073 33.773-3.624 50.976-3.624c18.052 0 52.991 4.393 64.366 5.889c0.985 6.577 3.075 21.984 4.86 44.715 c-11.616-1.686-34.373-4.62-55.348-5.168c-24.656-0.639-57.89 2.229-68.539 3.23C3180.389 887.345 3181.862 870.643 3182.53 863.322 z M3245.416 1037.087c-22.705-0.473-59.604 2.379-71.112 3.329c-1.459-33.522 1.113-83.113 3.817-121.935 c8.021-0.769 43.735-4.01 69.002-3.349c21.619 0.564 45.84 3.835 56.354 5.396c1.596 23.728 2.727 53.965 2.158 89.41 c-0.141 8.781-0.448 19.181-0.853 30.252C3293.435 1039.373 3266.004 1037.516 3245.416 1037.087z M2991.027 1165.729 c0-4.231 1.825-13.098 5.206-21.195c4.11-9.84 7.752-12.055 8.704-12.055c1.418 0 5.036 3.273 8.704 12.055 c3.381 8.097 5.206 16.963 5.206 21.195c0 7.67-6.24 13.91-13.91 13.91C2997.267 1179.639 2991.027 1173.399 2991.027 1165.729z  M3059.704 1154.376c0-10.214 8.31-18.523 18.523-18.523s18.523 8.31 18.523 18.523s-8.31 18.523-18.523 18.523 C3068.013 1172.898 3059.704 1164.589 3059.704 1154.376z M3161.007 1165.729c0-7.67 6.24-13.91 13.91-13.91 c7.67 0 13.91 6.24 13.91 13.91s-6.24 13.91-13.91 13.91C3167.247 1179.639 3161.007 1173.399 3161.007 1165.729z  M3230.974 1165.729c0-4.475 1.849-14.927 4.942-24.671c4.046-12.747 7.791-16.725 8.968-17.245 c1.177 0.521 4.921 4.498 8.968 17.245c3.093 9.745 4.942 20.196 4.942 24.671c0 7.67-6.24 13.91-13.91 13.91 C3237.214 1179.639 3230.974 1173.399 3230.974 1165.729z M893.137 1207.338l-0.061 0.028c-2.879 1.191-5.54 1.747-8.375 1.747 c-5.444 0-9.487-2.466-9.703-2.599c-6.39-3.72-12.919-14.104-13.973-22.22l-0.215-1.651l-9.435-0.501l-0.41 1.581 c-2.628 10.12-10.981 19.077-15.601 22.326c-0.621 0.421-1.328 0.831-2.151 1.248l-0.07 0.032c-2.896 1.181-5.595 1.763-8.212 1.778 c-2.711-0.031-5.369-0.624-8.305-1.839l-0.112-0.05c-1.31-0.647-2.684-1.55-4.056-2.662c-1.122-0.94-2.235-2.037-3.282-3.23 c-3.245-3.853-7.319-10.623-8.125-17.024l-0.209-1.658l-9.219-0.49l-0.411 1.58c-2.633 10.118-10.982 19.069-15.597 22.314 c-0.69 0.467-1.43 0.901-2.188 1.286l-0.067 0.031c-2.881 1.191-5.543 1.747-8.377 1.747c-5.444 0-9.487-2.466-9.703-2.599 c-6.389-3.721-12.918-14.104-13.973-22.22l-0.215-1.651l-7.411-0.394l-1.696-0.072v0.001l-0.33-0.018l-0.411 1.579 c-2.635 10.116-10.982 19.065-15.597 22.31c-1.148 0.777-2.404 1.445-3.735 1.986l-0.054 0.02c-2.17 0.702-4.335 1.058-6.434 1.058 c-2.773 0-5.499-0.595-8.578-1.871l-0.05-0.022c-7.735-3.827-14.779-14.091-15.701-22.881l-0.179-1.697l-9.011-0.482l-0.412 1.581 c-2.635 10.116-10.982 19.064-15.596 22.309c-5.277 3.572-11.976 4.495-18.182 2.298l-2.154-0.768l-1.728 8.171l1.578 0.617 c3.36 1.315 6.891 1.982 10.492 1.982c5.853 0 11.307-1.751 15.771-5.064c8.027-5.956 10.76-9.409 13.851-14.897l0.759-1.349 l0.71 1.376c3.119 6.045 7.638 11.437 13.05 15.576c0.263 0.206 6.531 5.036 14.646 5.036c8.969 0 13.991-3.117 18.366-6.309 c4.448-3.245 9.341-8.669 12.463-13.818l0.761-1.255l0.689 1.295c3.558 6.68 8.735 12.437 14.973 16.646l0.108 0.068 c1.349 0.834 5.454 3.372 12.39 3.372c8.971 0 14.184-3.257 18.366-6.309c4.448-3.245 9.341-8.669 12.463-13.818l0.761-1.255 l0.689 1.295c3.559 6.681 8.735 12.437 15.047 16.694c3.38 2.064 8.033 3.398 11.854 3.398c0.198 0 0.396-0.004 0.554-0.011 l0.285 0.005c8.937-0.012 13.947-3.123 18.313-6.309c4.447-3.244 9.339-8.668 12.463-13.818l0.761-1.254l0.689 1.294 c1.93 3.621 4.375 7.013 7.248 10.058c2.253 2.465 4.729 4.645 7.36 6.478l0.86 0.417l0.04 0.024 c3.397 2.038 7.373 3.084 11.793 3.107l0.214 0.003c8.943-0.011 14.146-3.263 18.321-6.309l-7.191-6.67 C894.644 1206.516 893.904 1206.95 893.137 1207.338z M2383.562 1207.335l-0.067 0.031c-2.881 1.191-5.543 1.747-8.377 1.747 c-5.444 0-9.487-2.466-9.703-2.599c-6.389-3.721-12.918-14.104-13.973-22.22l-0.215-1.651l-7.411-0.394l-1.696-0.072v0.001 l-0.33-0.018l-0.411 1.579c-2.635 10.116-10.982 19.065-15.597 22.31c-1.148 0.777-2.404 1.445-3.735 1.986l-0.054 0.02 c-2.17 0.702-4.335 1.058-6.434 1.058c-2.773 0-5.499-0.595-8.578-1.871l-0.05-0.022c-7.735-3.827-14.779-14.091-15.701-22.881 l-0.179-1.697l-9.011-0.482l-0.412 1.581c-2.635 10.116-10.982 19.064-15.596 22.309c-5.277 3.572-11.976 4.495-18.182 2.298 l-2.154-0.768l-1.728 8.171l1.578 0.617c3.36 1.315 6.891 1.982 10.492 1.982c5.853 0 11.307-1.751 15.771-5.064 c8.027-5.956 10.76-9.409 13.851-14.897l0.759-1.349l0.71 1.376c3.119 6.045 7.638 11.437 13.05 15.576 c0.263 0.206 6.531 5.036 14.646 5.036c8.969 0 13.991-3.117 18.366-6.309c4.448-3.245 9.341-8.669 12.463-13.818l0.761-1.255 l0.689 1.295c3.558 6.68 8.735 12.437 14.973 16.646l0.108 0.068c1.349 0.834 5.454 3.372 12.39 3.372 c8.971 0 14.184-3.257 18.366-6.309l-7.191-6.67C2385.059 1206.516 2384.32 1206.951 2383.562 1207.335z M2866.217 1207.338 l-0.061 0.028c-2.879 1.191-5.54 1.747-8.375 1.747c-5.444 0-9.487-2.466-9.703-2.599c-6.39-3.72-12.919-14.104-13.973-22.22 l-0.215-1.651l-9.435-0.501l-0.41 1.581c-2.628 10.12-10.981 19.077-15.601 22.326c-0.621 0.421-1.328 0.831-2.151 1.248 l-0.07 0.032c-2.896 1.181-5.595 1.763-8.212 1.778c-2.711-0.031-5.369-0.624-8.305-1.839l-0.112-0.05 c-1.31-0.647-2.684-1.55-4.056-2.662c-1.122-0.94-2.235-2.037-3.282-3.23c-3.245-3.853-7.319-10.623-8.125-17.024l-0.209-1.658 l-9.219-0.49l-0.411 1.58c-2.633 10.118-10.982 19.069-15.597 22.314c-0.69 0.467-1.43 0.901-2.188 1.286l-0.067 0.031 c-2.881 1.191-5.543 1.747-8.377 1.747c-5.444 0-9.487-2.466-9.703-2.599c-6.389-3.721-12.918-14.104-13.973-22.22l-0.215-1.651 l-7.411-0.394l-1.696-0.072v0.001l-0.33-0.018l-0.411 1.579c-2.635 10.116-10.982 19.065-15.597 22.31 c-0.953 0.645-1.993 1.194-3.075 1.678c-2.119 0.788-4.142 1.226-6.229 1.347c-0.162 0.008-0.324 0.017-0.485 0.021 c-0.192 0.007-0.384 0.013-0.577 0.014c-2.724-0.02-5.409-0.613-8.435-1.867l-0.05-0.022c-1.345-0.666-2.666-1.536-3.94-2.549 c-5.477-4.63-10.495-13.349-11.407-20.376l-0.215-1.651l-9.435-0.501l-0.41 1.581c-2.628 10.12-10.981 19.077-15.601 22.326 c-0.621 0.421-1.328 0.831-2.151 1.248l-0.07 0.032c-2.896 1.181-5.595 1.763-8.212 1.778c-2.711-0.031-5.369-0.624-8.305-1.839 l-0.112-0.05c-1.31-0.647-2.684-1.55-4.056-2.662c-1.122-0.94-2.235-2.037-3.282-3.23c-3.245-3.853-7.319-10.623-8.125-17.024 l-0.209-1.658l-9.219-0.49l-0.411 1.58c-2.633 10.118-10.982 19.069-15.597 22.314c-0.69 0.467-1.43 0.901-2.188 1.286l-0.067 0.031 c-2.881 1.191-5.543 1.747-8.377 1.747c-5.444 0-9.487-2.466-9.703-2.599c-6.389-3.721-12.918-14.104-13.973-22.22l-0.215-1.651 l-7.411-0.394l-1.696-0.072v0.001l-0.33-0.018l-0.411 1.579c-2.635 10.116-10.982 19.065-15.597 22.31 c-1.148 0.777-2.404 1.445-3.735 1.986l-0.054 0.02c-2.17 0.702-4.335 1.058-6.434 1.058c-2.773 0-5.499-0.595-8.578-1.871 l-0.05-0.022c-7.735-3.827-14.779-14.091-15.701-22.881l-0.179-1.697l-9.011-0.482l-0.412 1.581 c-2.635 10.116-10.982 19.064-15.596 22.309c-5.277 3.572-11.976 4.495-18.182 2.298l-2.154-0.768l-1.728 8.171l1.578 0.617 c3.36 1.315 6.891 1.982 10.492 1.982c5.853 0 11.307-1.751 15.771-5.064c8.027-5.956 10.76-9.409 13.851-14.897l0.759-1.349 l0.71 1.376c3.119 6.045 7.638 11.437 13.05 15.576c0.263 0.206 6.531 5.036 14.646 5.036c8.969 0 13.991-3.117 18.366-6.309 c4.448-3.245 9.341-8.669 12.463-13.818l0.761-1.255l0.689 1.295c3.558 6.68 8.735 12.437 14.973 16.646l0.108 0.068 c1.349 0.834 5.454 3.372 12.39 3.372c8.971 0 14.184-3.257 18.366-6.309c4.448-3.245 9.341-8.669 12.463-13.818l0.761-1.255 l0.689 1.295c3.559 6.681 8.735 12.437 15.047 16.694c3.38 2.064 8.033 3.398 11.854 3.398c0.198 0 0.396-0.004 0.554-0.011 l0.285 0.005c8.937-0.012 13.947-3.123 18.313-6.309c4.447-3.244 9.339-8.668 12.463-13.818l0.761-1.254l0.689 1.294 c1.93 3.621 4.375 7.013 7.248 10.058c2.253 2.465 4.729 4.645 7.36 6.478l0.86 0.417l0.04 0.024 c3.397 2.038 7.373 3.084 11.793 3.107l0.214 0.003c0.013 0 0.025-0.001 0.038-0.001c0.009 0 0.017 0.001 0.025 0.001 c8.969 0 13.991-3.117 18.366-6.309c4.448-3.245 9.341-8.669 12.463-13.818l0.761-1.255l0.689 1.295 c3.558 6.68 8.735 12.437 14.973 16.646l0.108 0.068c1.349 0.834 5.454 3.372 12.39 3.372c8.971 0 14.184-3.257 18.366-6.309 c4.448-3.245 9.341-8.669 12.463-13.818l0.761-1.255l0.689 1.295c3.559 6.681 8.735 12.437 15.047 16.694 c3.38 2.064 8.033 3.398 11.854 3.398c0.198 0 0.396-0.004 0.554-0.011l0.285 0.005c8.937-0.012 13.947-3.123 18.313-6.309 c4.447-3.244 9.339-8.668 12.463-13.818l0.761-1.254l0.689 1.294c1.93 3.621 4.375 7.013 7.248 10.058 c2.253 2.465 4.729 4.645 7.36 6.478l0.86 0.417l0.04 0.024c3.397 2.038 7.373 3.084 11.793 3.107l0.214 0.003 c8.943-0.011 14.146-3.263 18.321-6.309l-7.191-6.67C2867.724 1206.516 2866.985 1206.95 2866.217 1207.338z M2948.262 354.077 h132.139c29.135-0.062 52.737-23.665 52.799-52.799c-0.066-5.758-1.018-11.473-2.823-16.941c-0.036-0.095-0.078-0.188-0.115-0.283 h71.549c16.232-0.205 29.224-13.53 29.019-29.761c-0.195-15.396-12.238-28.033-27.607-28.967 c-4.4-13.961-18.261-22.685-32.752-20.611c-7.369-16.724-26.901-24.308-43.625-16.939c-11.045 4.867-18.565 15.362-19.621 27.386 c-7.414 2.508-13.759 7.451-18.006 14.022c-13.119-23.592-42.825-32.25-66.579-19.311c-10.283 5.601-18.234 14.684-22.425 25.618 c-3.066-0.654-6.184-1.032-9.318-1.129c-19.999-0.111-37.435 13.58-42.07 33.035h-0.282c-23.936-0.078-43.404 19.263-43.482 43.199 C2904.985 334.531 2924.326 353.999 2948.262 354.077z M3095.083 246.219c1.127-10.477 8.883-19.031 19.2-21.176l4.8-0.847 l-0.282-5.929c0.044-12.022 9.826-21.733 21.849-21.689c10.004 0.037 18.695 6.888 21.068 16.607l1.412 6.211l5.929-2.259 c1.976-0.783 4.087-1.167 6.212-1.129c9.256-0.056 17.058 6.893 18.07 16.094l0.565 5.647l5.647-0.847 c0.847 0 1.694-0.283 2.259-0.283c9.98 0 18.07 8.09 18.07 18.07s-8.09 18.07-18.07 18.07h-77.27 c-6.811-10.56-17.145-18.369-29.176-22.023c0-1.412-0.282-2.823-0.282-4.235c-0.72-5.03-2.21-9.912-4.399-14.487 C3092.976 236.446 3094.477 241.251 3095.083 246.219z M2948.262 278.407c1.694 0.282 3.106 0.282 4.235 0.564l5.647 0.847 l0.565-5.647c1.91-16.198 15.596-28.43 31.905-28.517c3.853-0.032 7.68 0.638 11.294 1.976l5.929 2.259l1.412-6.211 c5.077-20.35 25.689-32.731 46.038-27.655c16.96 4.231 28.842 19.493 28.784 36.973l-0.282 6.776l4.8 0.847 c22.47 4.451 37.079 26.274 32.628 48.745c-3.856 19.471-20.967 33.48-40.816 33.418h-132.139 c-17.777 0-32.188-14.411-32.188-32.188S2930.485 278.407 2948.262 278.407z M1001.656 300.889l0.03 0.12h91.15 c21.305 0.202 38.741-16.905 38.943-38.21c0.16-16.805-10.578-31.779-26.545-37.021c-1.71-19.87-19.205-34.591-39.075-32.881 c-13.18 1.135-24.686 9.385-29.987 21.506c-1.721-0.284-3.462-0.425-5.206-0.421c-14.144-0.003-26.617 9.267-30.694 22.81 c-17.7 0.382-31.738 15.041-31.356 32.74C969.298 287.232 983.956 301.271 1001.656 300.889z M1000.103 248.889 c0.518-0.02 1.036-0.02 1.553 0c0.896 0.012 1.791 0.083 2.678 0.211l6.018 0.782l0.692-6.018 c1.24-10.949 11.121-18.819 22.07-17.579c1.632 0.185 3.235 0.571 4.772 1.148l6.319 2.347l1.625-6.53 c2.661-10.762 12.326-18.315 23.412-18.296c13.296 0 24.074 10.778 24.074 24.074l-0.301 6.349l5.055 1.023 c14.359 2.946 23.611 16.975 20.665 31.334c-2.528 12.32-13.355 21.175-25.932 21.207h-91.15 c-11.06 0.429-20.374-8.189-20.803-19.25C980.424 258.632 989.043 249.318 1000.103 248.889z M2183.693 354.091h83.01 c6.836 14.202 21.226 23.21 36.988 23.152h100.234c18.913-0.117 34.302-15.256 34.729-34.164 c0.048-13.856-8.312-26.354-21.132-31.603c0.025 0.01 0.05 0.019 0.075 0.029c2.934-7.762 4.628-16.315 4.681-24.613 c-0.118-30.037-20.187-56.335-49.129-64.375c-0.687-25.787-17.178-48.49-41.488-57.118c-32.463-11.521-68.119 5.456-79.64 37.918 c-4.332-1.136-8.792-1.705-13.27-1.694c-25.682-0.065-47.919 17.819-53.364 42.917h-1.696c-30.252 0-54.775 24.525-54.775 54.777 C2128.917 329.568 2153.441 354.092 2183.693 354.091z M2427.356 343.076c0.002 12.631-10.235 22.872-22.866 22.874h-100.234 c-14.488 0.056-26.976-10.181-29.763-24.398c-3.21-16.374 7.461-32.25 23.834-35.46l4.8-0.847l-0.282-6.212 c0.016-15.12 12.268-27.372 27.388-27.388c12.558 0.15 23.447 8.722 26.541 20.894l1.412 6.212l5.929-2.259 c2.54-0.902 5.211-1.379 7.906-1.412c11.692-0.046 21.546 8.713 22.87 20.33l0.565 5.647c0 0 7.924-1.134 9.035-0.847 C2417.118 320.211 2427.354 330.448 2427.356 343.076z M2183.693 255.834c1.894 0.048 3.781 0.237 5.647 0.564l5.647 0.847 l0.565-5.647c2.32-21.923 20.872-38.522 42.917-38.399c5.112 0.091 10.171 1.045 14.964 2.823l5.929 2.259l1.412-6.211 c5.684-22.726 26.114-38.661 49.54-38.641c28.178 0.024 51.001 22.887 50.977 51.064v1.412l-0.282 5.929l4.8 0.847 c25.989 5.159 44.686 27.998 44.611 54.494c-0.023 7.294-1.423 14.862-3.822 21.752c-0.044-0.003-0.087-0.008-0.131-0.011 c-0.258-0.022-0.876 0.005-1.328 0.061c-4.095-14.861-17.704-25.492-33.119-25.473c-2.081 0.048-4.156 0.237-6.212 0.565 c-5.655-13.416-18.335-22.544-32.852-23.649c-21.395-1.628-40.059 14.396-41.688 35.791c-17.092 5.625-28.683 21.535-28.8 39.529 c0.036 2.362 0.225 4.72 0.565 7.059h-79.34c-24.014 0-43.482-19.467-43.482-43.482 C2140.212 275.301 2159.679 255.834 2183.693 255.834z"/>
</svg>