<svg xmlns="http://www.w3.org/2000/svg" viewBox="0 0 83.1 83.1">
  <defs>
    <clipPath id="a" clipPathUnits="userSpaceOnUse">
      <path fill="#fff" d="M.5.58h72v72H.5z" style="stroke-width:1"/>
    </clipPath>
    <radialGradient id="b" cx="0" cy="0" r="1" gradientTransform="matrix(-17.87 -21.09 19.95 -16.91 59.44 31.09)" gradientUnits="userSpaceOnUse">
      <stop offset=".1" stop-color="#00AEFF"/>
      <stop offset=".77" stop-color="#2253CE"/>
      <stop offset="1" stop-color="#0736C4"/>
    </radialGradient>
    <radialGradient id="c" cx="0" cy="0" r="1" gradientTransform="matrix(16 19.23 -18.88 15.7 15.36 50.97)" gradientUnits="userSpaceOnUse">
      <stop offset="0" stop-color="#FFB657"/>
      <stop offset=".63" stop-color="#FF5F3D"/>
      <stop offset=".92" stop-color="#C02B3C"/>
    </radialGradient>
    <linearGradient id="d" x1="17.68" x2="21.25" y1="10.67" y2="52.96" gradientUnits="userSpaceOnUse">
      <stop offset=".16" stop-color="#0D91E1"/>
      <stop offset=".49" stop-color="#52B471"/>
      <stop offset=".65" stop-color="#98BD42"/>
      <stop offset=".94" stop-color="#FFC800"/>
    </linearGradient>
    <linearGradient id="e" x1="20.95" x2="22.9" y1="5.08" y2="51.21" gradientUnits="userSpaceOnUse">
      <stop offset="0" stop-color="#3DCBFF"/>
      <stop offset=".25" stop-color="#0588F7" stop-opacity="0"/>
    </linearGradient>
    <radialGradient id="f" cx="0" cy="0" r="1" gradientTransform="matrix(-20.74 57.85 -70.65 -25.33 64.84 17.44)" gradientUnits="userSpaceOnUse">
      <stop offset=".07" stop-color="#8C48FF"/>
      <stop offset=".5" stop-color="#F2598A"/>
      <stop offset=".9" stop-color="#FFB152"/>
    </radialGradient>
    <linearGradient id="g" x1="66.92" x2="66.89" y1="19.14" y2="31.7" gradientUnits="userSpaceOnUse">
      <stop offset=".06" stop-color="#F8ADFA"/>
      <stop offset=".71" stop-color="#A86EDD" stop-opacity="0"/>
    </linearGradient>
  </defs>
  <rect width="77.56" height="77.56" x="2.77" y="2.77" rx="7.39" ry="7.39" fill="#fff"/>
  <g clip-path="url(#a)" transform="matrix(.97 0 0 .97 5.98 5.9)">
    <path fill="url(#b)" d="M53.16 10.31A7.5 7.5 0 0 0 46 5.08h-2.47a7.5 7.5 0 0 0-7.38 6.12L32.5 30.92l1.1-3.64a7.5 7.5 0 0 1 7.18-5.33h11.48l6.58 2.3 3.5-2.29a7.51 7.51 0 0 1-7.15-5.24z" style="fill:url(#b)"/>
    <path fill="url(#c)" d="M20.61 62.8a7.5 7.5 0 0 0 7.17 5.28h4.86a7.5 7.5 0 0 0 7.5-7.4l.26-18.1-.99 3.28a7.5 7.5 0 0 1-7.18 5.34H20.75l-5.94-2.7-3.33 2.7a7.5 7.5 0 0 1 7.16 5.27z" style="fill:url(#c)"/>
    <path fill="url(#d)" d="M45.5 5.08H19.25c-7.5 0-12 9.67-15 19.34C.7 35.88-3.95 51.21 9.5 51.21h11.43a7.5 7.5 0 0 0 7.2-5.4c1.98-6.73 5.42-18.44 8.13-27.36 1.38-4.54 2.53-8.44 4.3-10.87a5.96 5.96 0 0 1 4.94-2.5Z" style="fill:url(#d)"/>
    <path fill="url(#e)" d="M45.5 5.08H19.25c-7.5 0-12 9.67-15 19.34C.7 35.88-3.95 51.21 9.5 51.21h11.43a7.5 7.5 0 0 0 7.2-5.4c1.98-6.73 5.42-18.44 8.13-27.36 1.38-4.54 2.53-8.44 4.3-10.87a5.96 5.96 0 0 1 4.94-2.5Z" style="fill:url(#e)"/>
    <path fill="url(#f)" d="M27.5 68.08h26.24c7.5 0 12-9.67 15-19.34 3.56-11.46 8.21-26.78-5.25-26.78H52.06a7.5 7.5 0 0 0-7.2 5.39c-1.97 6.73-5.42 18.44-8.13 27.36-1.38 4.54-2.53 8.44-4.29 10.87a5.96 5.96 0 0 1-4.95 2.5z" style="fill:url(#f)"/>
    <path fill="url(#g)" d="M27.5 68.08h26.24c7.5 0 12-9.67 15-19.34 3.56-11.46 8.21-26.78-5.25-26.78H52.06a7.5 7.5 0 0 0-7.2 5.39c-1.97 6.73-5.42 18.44-8.13 27.36-1.38 4.54-2.53 8.44-4.29 10.87a5.96 5.96 0 0 1-4.95 2.5z" style="fill:url(#g)"/>
    <rect width="48.38" height="21.38" x="24.13" y="51.2" fill="#000" rx="3.79"/>
    <path fill="#fff" fill-rule="evenodd" d="M27.07 55.29v13.03h2.4v-9.39l2.65 5.2h1.6l2.6-5.2v9.39h2.48V55.29h-2.78L33 61.33l-3-6.04zm18.01 13.2a5 5 0 0 1-3.35-1.03c-.8-.69-1.19-1.72-1.19-3.1h2.38c0 .66.19 1.17.56 1.54.38.37.91.55 1.6.55.6 0 1.06-.15 1.39-.46.32-.31.49-.8.49-1.48 0-.64-.2-1.1-.6-1.4-.4-.3-.9-.44-1.54-.44h-.78V60.7h.85a1.9 1.9 0 0 0 1.35-.47c.34-.3.5-.71.5-1.22 0-.52-.15-.9-.45-1.15a1.9 1.9 0 0 0-1.23-.37c-.57 0-1.02.17-1.33.49-.32.32-.48.75-.48 1.3h-2.37c0-.87.18-1.58.54-2.14.37-.56.87-.98 1.5-1.26a5.58 5.58 0 0 1 4.15-.07 2.99 2.99 0 0 1 2.06 2.98c0 .78-.18 1.4-.55 1.86-.37.46-.87.78-1.5.97a3 3 0 0 1 1.72.97c.46.5.69 1.2.69 2.1 0 1.22-.4 2.16-1.2 2.82a4.9 4.9 0 0 1-3.2.96zm7.8-.65c.71.44 1.52.65 2.43.65.92 0 1.7-.18 2.33-.54a3.59 3.59 0 0 0 1.45-1.49c.33-.64.5-1.37.5-2.2a4.4 4.4 0 0 0-.49-2.16 3.22 3.22 0 0 0-1.32-1.32 3.78 3.78 0 0 0-1.86-.46 3.87 3.87 0 0 0-2.8 1.15c.04-1.25.23-2.2.56-2.84.39-.75.93-1.13 1.64-1.13.44 0 .8.13 1.07.37.28.24.46.6.56 1.1h2.38a4.1 4.1 0 0 0-1.28-2.59c-.68-.6-1.59-.9-2.73-.9-.92 0-1.74.23-2.45.7a4.57 4.57 0 0 0-1.69 2.16c-.4.97-.6 2.2-.6 3.72 0 1.53.2 2.76.61 3.71.41.95.98 1.64 1.69 2.07zm.25-4.51c.17-.17.36-.32.57-.46a3.08 3.08 0 0 1 1.77-.53c.5 0 .88.17 1.16.52.28.34.42.82.42 1.43 0 .63-.15 1.15-.44 1.56-.28.41-.71.62-1.3.62-.37 0-.73-.12-1.07-.36a2.59 2.59 0 0 1-.82-1.19 5.56 5.56 0 0 1-.3-1.59zm9.78 4.74A5.8 5.8 0 0 0 67.4 68a3.79 3.79 0 0 0 1.58-1.47 4.8 4.8 0 0 0 .58-2.47c0-.99-.19-1.79-.56-2.4a3.27 3.27 0 0 0-1.42-1.32 4.28 4.28 0 0 0-1.89-.42c-.51 0-.96.08-1.34.25-.38.16-.66.35-.85.57l.23-2.98h4.85v-2.12h-6.86l-.55 7.02h2.22a2.05 2.05 0 0 1 1.7-.79c.57 0 1.03.18 1.39.52.36.35.54.9.54 1.67 0 .83-.17 1.44-.51 1.83-.34.39-.78.58-1.34.58a2.1 2.1 0 0 1-1.44-.5 1.72 1.72 0 0 1-.56-1.37H60.7c0 .87.2 1.6.59 2.18.4.57.94 1 1.62 1.29z" clip-rule="evenodd"/>
  </g>
</svg>