<svg viewBox="0 0 16 16" xmlns="http://www.w3.org/2000/svg">
  <defs>
    <linearGradient
       id="lowershadow"
       x1="8"
       y1="8"
       x2="8"
       y2="15"
       gradientUnits="userSpaceOnUse">
      <stop
         stop-color="#000"
         stop-opacity="0.6"
         offset="0" />
      <stop
         stop-color="#000"
         stop-opacity="0"
         offset="1" />
    </linearGradient>
  </defs>
  <rect
     fill="#a2e566"
     fill-opacity="1"
     width="16"
     height="16"
     x="0"
     y="0"
     rx="3.4" />
  <path
     fill="#000"
     fill-opacity="0.7"
     d="m3.4 0a3.4 3.4 0 0 0-3.4 3.4v9.2a3.4 3.4 0 0 0 3.4 3.4h9.2a3.4 3.4 0 0 0 3.4-3.4v-9.2a3.4 3.4 0 0 0-3.4-3.4zm-2 3.4a2 2 0 0 1 2-2h9.2a2 2 0 0 1 2 2v9.2a2 2 0 0 1-2 2h-9.2a2 2 0 0 1-2-2z" />
  <path
     fill="#fff"
     fill-opacity="0.9"
     d="m1.4 3.4a2 2 0 0 1 2-2h9.2a2 2 0 0 1 2 2v9.2a2 2 0 0 1-2 2h-9.2a2 2 0 0 1-2-2zm2-1.4a1.4 1.4 0 0 0-1.4 1.4v9.2a1.4 1.4 0 0 0 1.4 1.4h9.2a1.4 1.4 0 0 0 1.4-1.4v-9.2a1.4 1.4 0 0 0-1.4-1.4z" />
  <path
     fill="url(#lowershadow)"
     fill-opacity="0.5"
     d="m2 8v4.6a1.4 1.4 0 0 0 1.4 1.4h9.2a1.4 1.4 0 0 0 1.4-1.4v-4.6h-1.2v0.3a0.58 0.58 0 0 1-0.58 0.58a0.58 0.58 0 0 1-0.41-0.17l-0.71-0.71h-1.3v3a1.8 1.8 0 0 1-1.8 1.8h-3a1.8 1.8 0 0 1-1.8-1.8v-3z" />
  <path
     fill="#fff"
     fill-opacity="0.9"
     d="m12.2 3.8h-4.4l1.2 1.2h2v2l1.2 1.2z" />
  <path
     fill="#000"
     fill-opacity="0.7"
     d="m12.8 3.2v5.1a0.58 0.58 0 0 1-0.58 0.58a0.58 0.58 0 0 1-0.41-0.17l-1.41-1.41v-1.7h-1.7l-1.41-1.41a0.58 0.58 0 0 1-0.17-0.41a0.58 0.58 0 0 10.58-0.58zm-0.6 0.6h-4.4l1.2 1.2h2v2l1.2 1.2z" />
  <path
     fill="#fff"
     fill-opacity="0.9"
     d="m8 6.8a1.2 1.2 0 0 1 1.2 1.2v3a1.2 1.2 0 0 1-1.2 1.2h-3a1.2 1.2 0 0 1-1.2-1.2v-3a1.2 1.2 0 0 1 1.2-1.2zm0 1.6a0.4 0.4 0 0 0-0.4-0.4h-2.2a0.4 0.4 0 0 0-0.4 0.4v2.2a0.4 0.4 0 0 0 0.4 0.4h2.2a0.4 0.4 0 0 0 0.4-0.4z" />
  <path
     fill="#000"
     fill-opacity="0.7"
     d="m8 8.4a0.4 0.4 0 0 0-0.4-0.4h-2.2a0.4 0.4 0 0 0-0.4 0.4v2.2a0.4 0.4 0 0 0 0.4 0.4h2.2a0.4 0.4 0 0 0 0.4-0.4zm-0.4 0v2.2h-2.2v-2.2z" />
  <path
     fill="#000"
     fill-opacity="0.7"
     d="m9.8 8a1.8 1.8 0 0 0-1.8-1.8h-3a1.8 1.8 0 0 0-1.8 1.8v3a1.8 1.8 0 0 0 1.8 1.8h3a1.8 1.8 0 0 0 1.8-1.8zm-1.8-1.2a1.2 1.2 0 0 1 1.2 1.2v3a1.2 1.2 0 0 1-1.2 1.2h-3a1.2 1.2 0 0 1-1.2-1.2v-3a1.2 1.2 0 0 1 1.2-1.2z" />
</svg>
