<svg xmlns="http://www.w3.org/2000/svg" viewBox="2.15 1.1 15.4 16.3">
  <defs>
    <filter id="a" width="15.4" height="16.3" x="2.15" y="1.1" filterUnits="userSpaceOnUse">
      <feColorMatrix values="1 0 0 0 0 0 1 0 0 0 0 0 1 0 0 0 0 0 1 0"/>
    </filter>
  </defs>
  <mask id="b" width="15.4" height="16.3" x="2.15" y="1.1" maskUnits="userSpaceOnUse">
    <path fill="#fff" d="M7.9 1.1c-0.2 0 -0.4 0.1 -0.6 0.4l-1.7 3.2c-0.2 0.4 0.1 0.9 0.6 0.9h6.6c0.7 0 1.4 0.3 1.7 0.8h-8.9c-0.4 0 -0.9 0.3 -1.1 0.8l-2.2 4.5c-0.2 0.3 -0.2 0.7 0 1.1l2 4.2c0.2 0.5 0.9 0.5 1.1 0l3 -5.9h4.4c1 0 1.7 -0.8 2.2 -1.6l2.4 -4.9l0.1 -0.4c0.3 -1.6 -0.9 -3.1 -2.5 -3.1h-7z" filter="url(#a)"/>
  </mask>
  <g mask="url(#b)">
    <linearGradient id="c" x1="4.9" x2="6.7" y1="9.5" y2="2.7" gradientTransform="matrix(1 0 0 -1 0 20)" gradientUnits="userSpaceOnUse">
      <stop offset="0" stop-color="#159455"/>
      <stop offset="1" stop-color="#3fbda9"/>
    </linearGradient>
    <path fill="url(#c)" d="M3.3 11h5.1l-3 6c-.2.5-.9.5-1.1 0l-2.1-4.2c-.4-.8.2-1.8 1.1-1.8z"/>
    <linearGradient id="d" x1="5.9" x2="16.2" y1="18.3" y2="13.8" gradientTransform="matrix(1 0 0 -1 0 20)" gradientUnits="userSpaceOnUse">
      <stop offset="0" stop-color="#23a794"/>
      <stop offset=".6" stop-color="#007a84"/>
      <stop offset="1" stop-color="#005158"/>
    </linearGradient>
    <path fill="url(#d)" d="M7.9 1.1h7c2 0 3.3 2.1 2.4 3.8L15 9.5l-.4.8.4-.8c.8-1.8-.4-3.8-2.4-3.8H6.2c-.5 0-.8-.5-.6-.9l1.7-3.3c.2-.3.4-.4.6-.4z"/>
    <linearGradient id="e" x1="13.2" x2="11.3" y1="11.6" y2="16.5" gradientTransform="matrix(1 0 0 -1 0 20)" gradientUnits="userSpaceOnUse">
      <stop offset="0" stop-color="#004a8b"/>
      <stop offset=".4" stop-color="#105da8" stop-opacity=".5"/>
      <stop offset="1" stop-color="#2170c6" stop-opacity="0"/>
    </linearGradient>
    <path fill="url(#e)" d="M7.9 1.1h7c2 0 3.3 2.1 2.4 3.8L15 9.5l-.2.5.2-.5c.9-1.8-.4-3.8-2.4-3.8H6.2c-.5 0-.8-.5-.6-.9l1.7-3.3c.2-.3.4-.4.6-.4z"/>
    <path fill-opacity=".2" d="M12.6 11.1H3.3c-.5 0-.9.3-1.1.7l2.3-4.6c.2-.4.7-.7 1.1-.7h9.3c1 0 1.9-.6 2.4-1.5l.2-.3L15 9.6c-.5.9-1.4 1.5-2.4 1.5z"/>
    <path fill-opacity=".3" d="M12.6 11.4H3.3c-.5 0-.9.3-1.1.7l2.3-4.6c.2-.5.7-.7 1.1-.7h9.3c1 0 1.9-.6 2.4-1.5l.1-.3L15 9.9c-.5.9-1.4 1.5-2.4 1.5z"/>
    <linearGradient id="f" x1="5.1" x2="14.4" y1="14.1" y2="9.5" gradientTransform="matrix(1 0 0 -1 0 20)" gradientUnits="userSpaceOnUse">
      <stop offset="0" stop-color="#7fd9a2"/>
      <stop offset=".2" stop-color="#47bf79"/>
      <stop offset=".7" stop-color="#009280"/>
      <stop offset="1" stop-color="#007a84"/>
    </linearGradient>
    <path fill="url(#f)" d="M12.6 11H3.3c-.5 0-.9.3-1.1.7l2.3-4.6c.2-.4.7-.7 1.1-.7h9.3c1 0 1.9-.6 2.4-1.5l.2-.3-2.5 5c-.5.9-1.4 1.4-2.4 1.4z"/>
    <linearGradient id="g" x1="5.1" x2="7.2" y1="14" y2="12.9" gradientTransform="matrix(1 0 0 -1 0 20)" gradientUnits="userSpaceOnUse">
      <stop offset="0" stop-color="#a8e47c" stop-opacity=".9"/>
      <stop offset=".4" stop-color="#87d152" stop-opacity=".2"/>
      <stop offset="1" stop-color="#58be5a" stop-opacity="0"/>
    </linearGradient>
    <path fill="url(#g)" d="M12.6 11H3.4c-.5 0-.9.3-1.1.7l2.3-4.6c.2-.4.7-.7 1.1-.7H15c1 0 1.9-.5 2.3-1.4L15 9.6c-.5.9-1.4 1.4-2.4 1.4z" enable-background="new" opacity=".7"/>
  </g>
</svg>