<svg xmlns="http://www.w3.org/2000/svg" viewBox="73.8 50.7 95 86">
<linearGradient id="a" x1="73.8" x2="155" y1="93.5" y2="93.5" gradientUnits="userSpaceOnUse">
<stop offset=".2" stop-color="#a33191"/>
<stop offset=".3" stop-color="#9b2c8b"/>
<stop offset=".6" stop-color="#7a1673"/>
<stop offset=".8" stop-color="#650963"/>
<stop offset="1" stop-color="#5e045e"/>
</linearGradient>
<path fill="url(#a)" d="m152.3 100l-31.4 31.4a9.2 9.2 0 0 1 -13 0l-31.4 -31.4a9.2 9.2 0 0 1 0 -13l31.4 -31.4a9.2 9.2 0 0 1 13 0l31.4 31.4a9.4 9.4 0 0 1 0 13z"/>
<path id="b" fill="#d861bc" d="M110.5 69.7 128 51.6c1.1-1.1 2.8-1.1 3.8.1L168 90.9c.9 1 .9 2.5 0 3.5l-36.3 41a2.6 2.6 0 0 1-3.9 0l-17-18.9c-.9-1-.9-2.5 0-3.5l16.8-18.4c.9-1 .9-2.6 0-3.6l-17.1-17.7c-1-1-1-2.6 0-3.6"/>
<clipPath id="c">
<path d="M110.5 69.7 128 51.6c1.1-1.1 2.8-1.1 3.8.1L168 90.9c.9 1 .9 2.5 0 3.5l-36.3 41a2.6 2.6 0 0 1-3.9 0l-17-18.9c-.9-1-.9-2.5 0-3.5l16.8-18.4c.9-1 .9-2.6 0-3.6l-17.1-17.7c-1-1-1-2.6 0-3.6"/>
</clipPath>
<g clip-path="url(#c)">
<path fill="#f4a6da" d="m168.8 94.1l-18 20c-0.7 0.7 -1.7 0.7 -2.4 0l-18 -20c-0.7 -0.7 -0.7 -1.7 0 -2.4l18 -20c0.7 -0.7 1.7 -0.7 2.4 0l18 20c0.7 0.7 0.7 1.7 0 2.4z"/>
</g>
</svg>