<?xml version="1.0" encoding="UTF-8" standalone="no"?> <svg xmlns="http://www.w3.org/2000/svg" version="1.1" viewBox="0 0 864 288"><defs><linearGradient id="a" x1="-960.60602" y1="283.397" x2="-1032.511" y2="70.972" gradientTransform="matrix(1.0142056,0,0,-1.0142056,1110.8044,336.19198)" gradientUnits="userSpaceOnUse"><stop offset="0" stop-color="#114a8b"/><stop offset="1" stop-color="#0669bc"/></linearGradient><linearGradient id="b" x1="-938.14398" y1="184.40199" x2="-954.77802" y2="178.778" gradientTransform="matrix(1.0142056,0,0,-1.0142056,1110.8044,336.19198)" gradientUnits="userSpaceOnUse"><stop offset="0" stop-opacity=".3"/><stop offset=".071" stop-opacity=".2"/><stop offset=".321" stop-opacity=".1"/><stop offset=".623" stop-opacity=".05"/><stop offset="1" stop-opacity="0"/></linearGradient><linearGradient id="c" x1="-947.29199" y1="289.59399" x2="-868.36298" y2="79.307999" gradientTransform="matrix(1.0142056,0,0,-1.0142056,1110.8044,336.19198)" gradientUnits="userSpaceOnUse"><stop offset="0" stop-color="#3ccbf4"/><stop offset="1" stop-color="#2892df"/></linearGradient></defs><path fill="#fff" d="M 42 0 A 42 42 0 0 0 0 42 L 0 246 A 42 42 0 0 0 42 288 L 822 288 A 42 42 0 0 0 864 246 L 864 42 A 42 42 0 0 0 822 0 L 42 0 z"/><path fill="#333" d="m 786.95247,35.354 c -6.84499,0 -12.30001,2.08172 -16.66494,6.34746 -4.26573,4.26575 -6.44821,9.72195 -6.44821,16.36856 v 8.82949 H 753.22343 V 79.1023 h 10.61589 v 50.99092 h 15.0781 V 79.1023 h 22.12306 l 0.0988,32.43873 c 0,6.74582 1.48727,11.70715 4.66177,15.08007 3.0753,3.27371 7.83822,4.96017 14.08803,4.96017 2.18246,0 4.26572,-0.29877 6.44818,-0.69559 1.58725,-0.29761 3.1737,-0.79362 4.66174,-1.48804 v -12.30161 c -0.99203,0.59521 -2.08247,1.09124 -3.1737,1.48805 -0.99203,0.39681 -1.98366,0.59676 -3.07489,0.59676 -2.97608,0 -5.25894,-0.794 -6.64778,-2.38126 -1.38885,-1.58726 -2.08289,-4.36573 -2.08289,-8.23466 V 79.00348 H 830.999 V 66.80069 H 815.92093 V 48.05087 l -14.97927,4.56297 V 66.80069 H 778.8186 v -7.63788 c 0,-3.76972 0.79363,-6.64779 2.48008,-8.63186 1.88486,-1.98406 4.56411,-3.07568 7.2426,-2.87728 1.48804,0 2.87573,0.19996 4.26457,0.59677 0.89282,0.29761 1.78526,0.69403 2.57889,1.09085 V 36.44485 c -1.19044,-0.39682 -2.3801,-0.596 -3.66974,-0.7944 -1.58725,-0.19841 -3.17527,-0.29645 -4.76253,-0.29645 z m -336.69368,4.76061 c -2.38086,0 -4.66293,0.89282 -6.34938,2.48008 -1.78566,1.58725 -2.67964,3.77088 -2.67964,6.15176 0,2.28168 0.99357,4.46339 2.58083,6.14984 1.78565,1.68645 4.06733,2.57929 6.44819,2.48009 2.38088,0 4.66255,-0.89284 6.44821,-2.48009 1.78565,-1.48805 2.6777,-3.76935 2.6777,-6.05102 0,-2.38088 -0.89244,-4.56451 -2.57889,-6.15177 -1.78566,-1.68646 -4.16614,-2.6781 -6.54702,-2.57889 z M 332.9996,41.99986 v 88.19217 h 14.18682 v -69.1459 h 0.19763 l 28.07524,69.1459 h 10.11794 l 27.37966,-69.1459 h 0.19957 v 69.1459 h 15.27766 V 41.99986 h -21.03221 l -26.78483,65.3754 h -0.3972 l -25.29679,-65.3754 z m 169.34081,23.51041 c -10.91233,0 -19.3446,3.27411 -25.29678,9.82153 -5.95218,6.54741 -8.92829,14.98049 -8.92829,25.09922 0,9.1267 2.87575,16.6654 8.72872,22.51839 5.85297,5.85299 13.39281,8.82949 22.71789,8.82949 3.37291,0 6.64661,-0.39642 9.9203,-1.09085 2.77769,-0.59522 5.45579,-1.68607 8.03507,-3.07491 v -13.78966 c -2.18247,1.68645 -4.66293,3.07492 -7.34141,4.06694 -2.38088,0.89284 -4.85941,1.38885 -7.33948,1.48806 -5.95218,0 -10.71471,-1.78605 -14.18682,-5.35737 -3.4721,-3.57133 -5.15779,-8.63031 -5.15779,-14.97932 0,-6.44821 1.88487,-11.50759 5.45617,-15.37652 3.57131,-3.86893 8.33191,-5.75457 14.18488,-5.75457 2.48008,0 4.96054,0.4964 7.34142,1.38923 2.48007,0.99203 4.86056,2.28207 7.04303,3.86932 V 69.08314 c -2.08326,-1.09123 -4.36378,-1.98406 -6.74465,-2.48008 -2.77769,-0.69443 -5.55538,-1.09279 -8.43226,-1.09279 z m 97.31783,0 c -10.51552,0 -18.75017,2.97728 -24.60314,9.12788 -5.85297,6.05139 -8.82946,14.3845 -8.82946,24.80083 0,10.01954 2.87806,17.85701 8.63183,23.71 5.75376,5.75379 13.49162,8.62992 23.31272,8.62992 10.21791,0 18.25221,-3.07453 24.10518,-9.12594 5.85298,-6.05139 8.82946,-14.28645 8.82946,-24.50439 0,-10.01953 -2.77807,-17.95582 -8.33344,-23.80881 -5.55537,-5.85298 -13.19286,-8.82949 -23.11315,-8.82949 z m 62.89513,0 c -7.24181,0 -13.09557,1.78567 -17.65891,5.45619 -4.36494,3.37292 -6.84579,8.63187 -6.74659,14.08804 -0.0992,3.86893 1.09123,7.73786 3.47211,10.91237 2.28166,2.8769 6.25057,5.45503 11.70674,7.73671 4.66254,1.78566 7.73783,3.4725 9.42429,4.86134 1.58724,1.19045 2.48007,3.17567 2.48007,5.15974 0.19841,1.88486 -0.79401,3.76857 -2.38126,4.7606 -1.58724,0.89283 -4.06732,1.38923 -7.44023,1.38923 -2.9761,-0.0992 -5.85259,-0.69365 -8.53108,-1.68567 -3.0753,-1.09124 -6.05216,-2.5793 -8.73064,-4.46416 v 14.58212 c 2.57928,1.09124 5.25931,1.88525 8.037,2.38127 2.87689,0.59522 5.85181,0.99204 8.7287,0.99204 7.83704,0 13.98881,-1.88487 18.55214,-5.45619 4.46414,-3.37292 7.04187,-8.7303 6.84346,-14.28568 0.0992,-3.96813 -1.19004,-7.73824 -3.57092,-10.81355 -2.38087,-2.9761 -6.54702,-5.65421 -12.4992,-8.03508 -4.56334,-1.78567 -7.53944,-3.37253 -8.92828,-4.56297 -1.38884,-1.19044 -2.08326,-3.07531 -1.98405,-4.96017 -0.0992,-1.88486 0.79285,-3.57132 2.18168,-4.46415 1.98407,-1.28964 4.3661,-1.78682 6.64778,-1.68762 2.67847,0 5.35735,0.49641 7.83743,1.38923 2.38086,0.79363 4.66099,1.98445 6.84345,3.3733 V 68.09112 c -2.18246,-0.89284 -4.46259,-1.48844 -6.84345,-1.88526 -2.48008,-0.39682 -4.96017,-0.69559 -7.44024,-0.69559 z m 57.6366,0 c -10.51552,0 -18.75016,2.97728 -24.60313,9.12788 -5.85298,6.05139 -8.82946,14.3845 -8.82946,24.80083 0,10.01954 2.87805,17.85701 8.63183,23.71 5.75376,5.75379 13.49162,8.62992 23.31271,8.62992 10.21791,0 18.25221,-3.07453 24.10519,-9.12594 5.85297,-6.05139 8.82946,-14.28645 8.82946,-24.50439 0,-10.01953 -2.77809,-17.95582 -8.33344,-23.80881 -5.55537,-5.85298 -13.19286,-8.82949 -23.11316,-8.82949 z m -160.31178,0.3972 c -3.5713,-0.0992 -7.04341,0.89322 -9.92031,2.87729 -2.77769,1.98407 -4.96131,4.76138 -6.15174,8.03508 h -0.19764 v -9.92033 h -14.88046 v 63.19371 H 543.6085 V 98.14857 c 0,-6.34901 1.28848,-11.10961 3.76855,-14.18492 2.18248,-2.87689 5.55616,-4.5649 9.22667,-4.5649 1.88485,0 3.67051,0.19918 5.45617,0.7944 1.19043,0.29761 2.28205,0.89245 3.37329,1.58687 V 66.70188 c -0.79363,-0.29761 -1.58764,-0.49563 -2.38127,-0.59483 -0.99202,-0.0992 -2.08248,-0.19958 -3.17372,-0.19958 z m -117.05963,1.09086 v 63.1937 h 14.88047 v -63.1937 z m 156.24485,11.01312 c 5.25776,0 9.32354,1.68568 12.29963,5.1578 2.87688,3.47212 4.36532,8.5315 4.36532,15.37652 0,6.84503 -1.48689,12.00322 -4.26457,15.47534 -2.87689,3.47212 -6.94422,5.25855 -12.40038,5.25855 -5.65457,0 -9.92032,-1.78643 -12.8964,-5.25855 -2.9761,-3.47212 -4.46414,-8.43152 -4.46414,-15.07814 0,-6.64661 1.48727,-11.90401 4.66177,-15.47534 2.97609,-3.67052 7.2426,-5.45618 12.69877,-5.45618 z m 120.63054,0 c 5.25777,0 9.32548,1.68568 12.30157,5.1578 2.87689,3.47212 4.36339,8.5315 4.36339,15.37652 0,6.84503 -1.48689,12.00322 -4.26457,15.47534 -2.87689,3.47212 -6.94421,5.25855 -12.40039,5.25855 -5.65456,0 -9.9203,-1.78643 -12.8964,-5.25855 -2.97608,-3.47212 -4.46414,-8.43152 -4.46414,-15.07814 -0.0992,-6.64661 1.48728,-11.90401 4.66177,-15.47534 2.9761,-3.67052 7.24261,-5.45618 12.69877,-5.45618 z M 360.97603,163.2256 327.743,251.41777 h 16.76377 l 7.54098,-21.92356 h 34.72108 l 7.83549,21.92356 h 16.86453 L 378.23582,163.2256 Z m 8.13388,16.26974 h 0.49601 l 12.8964,37.10243 h -26.38763 z m 245.1304,7.34142 c -8.33305,-0.1984 -16.2697,3.27334 -21.72586,9.52315 -5.65457,6.349 -8.53107,14.38488 -8.53107,24.20601 0,10.21793 2.6781,18.15422 8.03506,23.8088 5.25775,5.65458 12.79875,8.5311 22.42144,8.5311 4.26573,0 8.5303,-0.49601 12.69683,-1.48805 3.37291,-0.69442 6.64777,-1.9829 9.62387,-3.76856 v -12.20279 c -2.57929,1.78566 -5.55693,3.27448 -8.53302,4.26652 -3.2737,1.09123 -6.74465,1.58687 -10.21676,1.58687 -5.45615,0 -9.82148,-1.29042 -13.29359,-3.7705 -3.47211,-2.4801 -5.4554,-6.94464 -6.14982,-13.29364 h 43.25215 v -7.24069 c 0,-9.42431 -2.38166,-16.76615 -7.2426,-22.12312 -4.86095,-5.35699 -11.60677,-8.0351 -20.33663,-8.0351 z m -36.60631,0.2984 c -3.47211,-0.0992 -6.94422,0.89127 -9.92032,2.87534 -2.77768,1.98407 -4.95937,4.76331 -6.14981,8.03702 h -0.19763 v -9.92034 h -14.88047 v 63.19178 h 14.88047 v -31.94271 c 0,-6.349 1.28848,-11.11155 3.76856,-14.18686 2.18246,-2.87689 5.55614,-4.56296 9.22666,-4.56296 1.88485,0 3.67051,0.19724 5.45616,0.79246 1.19044,0.29761 2.28206,0.89438 3.37329,1.5888 v -15.08007 c -0.79362,-0.29761 -1.58763,-0.49563 -2.38126,-0.59483 -0.99203,-0.0992 -2.08442,-0.19763 -3.17565,-0.19763 z m -158.72492,0.99202 v 11.80366 h 30.35768 l -32.6382,44.34506 v 7.04306 h 52.97484 v -11.80559 h -33.33378 l 33.13421,-45.43399 v -5.9522 z m 57.24133,0 v 38.39094 c 0,8.72989 1.8837,15.17811 5.75262,19.34465 3.86891,4.16654 9.42469,6.25059 16.76571,6.25059 3.86892,0.0992 7.6398,-0.69481 11.1119,-2.38127 3.1745,-1.48805 5.95219,-3.86971 7.93624,-6.7466 h 0.19763 v 8.33347 h 14.97929 v -63.19178 h -15.0781 v 36.6045 c 0,4.76175 -1.19121,8.63185 -3.77049,11.60796 -2.48007,2.9761 -6.24902,4.56336 -10.11794,4.46414 -4.26573,0 -7.43984,-1.38845 -9.5231,-4.06695 -2.08327,-2.67848 -3.17567,-6.64817 -3.17567,-12.00515 v -36.6045 z m 138.0899,10.11798 c 4.16653,0 7.34219,1.29002 9.62387,3.86932 2.28166,2.57928 3.37135,6.24865 3.37135,11.20882 l -28.27287,0.10075 c 0.89282,-4.96016 2.87804,-8.73029 5.65573,-11.30957 2.57928,-2.48009 6.05061,-3.86932 9.62192,-3.86932 z"/><g><path d="m 110.9579,32.200077 h 70.22156 L 108.28547,248.18327 a 11.197844,11.197844 0 0 1 -10.60961,7.61669 H 43.02742 A 11.179588,11.179588 0 0 1 32.434043,241.04529 L 100.34829,39.816762 a 11.19683,11.19683 0 0 1 10.60961,-7.616685 z" fill="url(#a)"/><path d="M 212.99915,177.06718 H 101.64546 a 5.1552071,5.1552071 0 0 0 -3.517264,8.92501 l 71.554234,66.78239 a 11.248554,11.248554 0 0 0 7.67449,3.02538 h 63.05012 z" fill="#0078d4"/><path d="m 110.9579,32.200077 a 11.105551,11.105551 0 0 0 -10.63192,7.76273 L 32.518222,240.86274 a 11.166404,11.166404 0 0 0 10.540638,14.93722 h 56.059201 a 11.981825,11.981825 0 0 0 9.197829,-7.82358 l 13.51936,-39.84814 48.30154,45.04898 a 11.427054,11.427054 0 0 0 7.18971,2.62274 h 62.81685 l -27.55191,-78.73278 -80.31494,0.0182 49.15854,-144.885353 z" fill="url(#b)"/><path d="m 200.64815,39.804591 a 11.179588,11.179588 0 0 0 -10.59236,-7.604514 h -78.26016 a 11.180603,11.180603 0 0 1 10.59338,7.604514 l 67.9183,201.239689 a 11.180603,11.180603 0 0 1 -10.59337,14.75568 h 78.26016 a 11.180603,11.180603 0 0 0 10.59236,-14.75568 z" fill="url(#c)"/></g></svg>