<svg xmlns="http://www.w3.org/2000/svg" viewBox="4.3 7 32.7 25.9">
  <defs>
    <mask id="a" width="34.7" height="26" x="2.6" y="7" maskUnits="userSpaceOnUse">
      <path fill="#fff" d="M25.2 7c.4 0 .7.2 1 .5L36.5 19c.5.5.5 1.3 0 1.8L26.2 32.4c-.3.3-.6.5-1 .5H5.7a1.4 1.4 0 0 1-1-2.3l9.5-10.7L4.7 9.3c-.8-1-.2-2.3 1-2.3h19.5Z"/>
    </mask>
    <linearGradient id="b" x1="19" x2="14.2" y1="19.7" y2="35" gradientTransform="matrix(1 0 0 -1 0 42)" gradientUnits="userSpaceOnUse">
      <stop offset="0" stop-color="#0d36a5"/>
      <stop offset="1" stop-color="#1152d4"/>
    </linearGradient>
    <linearGradient id="c" x1="20" x2="20" y1="35" y2="9.1" gradientTransform="matrix(1 0 0 -1 0 42)" gradientUnits="userSpaceOnUse">
      <stop offset="0" stop-color="#84caff"/>
      <stop offset="1" stop-color="#61b1fb"/>
    </linearGradient>
    <linearGradient id="d" x1="17.1" x2="17.1" y1="35" y2="9.1" gradientTransform="matrix(1 0 0 -1 0 42)" gradientUnits="userSpaceOnUse">
      <stop offset="0" stop-color="#3b90f5"/>
      <stop offset="1" stop-color="#2a78ee"/>
    </linearGradient>
  </defs>
  <g mask="url(#a)">
    <path fill="url(#b)" d="M25.8 7l-11.6 13 -11.6 -13h23.2z"/>
    <path fill="url(#c)" d="M2.6 32.9l23.2 -25.9 11.6 13 -11.6 12.9h-23.2z"/>
    <path fill="url(#d)" d="M2.5 32.9l23.3 -26 5.9 6.6 -17.4 19.4h-11.6z"/>
  </g>
</svg>