<svg viewBox="0 0 16 16" xmlns="http://www.w3.org/2000/svg">
  <defs>
    <linearGradient
       id="lowershadow"
       x1="8"
       y1="8"
       x2="8"
       y2="15"
       gradientUnits="userSpaceOnUse">
      <stop
         stop-color="#000"
         stop-opacity="0.6"
         offset="0" />
      <stop
         stop-color="#000"
         stop-opacity="0"
         offset="1" />
    </linearGradient>
  </defs>
  <rect
     fill="#e5bb66"
     fill-opacity="1"
     width="16"
     height="16"
     x="0"
     y="0"
     rx="3.4" />
  <path
     fill="#000"
     fill-opacity="0.75"
     d="m3.4 0a3.4 3.4 0 0 0-3.4 3.4v9.2a3.4 3.4 0 0 0 3.4 3.4h9.2a3.4 3.4 0 0 0 3.4-3.4v-9.2a3.4 3.4 0 0 0-3.4-3.4zm-2 3.4a2 2 0 0 1 2-2h9.2a2 2 0 0 1 2 2v9.2a2 2 0 0 1-2 2h-9.2a2 2 0 0 1-2-2z" />
  <path
     fill="#fff"
     fill-opacity="0.9"
     d="m1.4 3.4a2 2 0 0 1 2-2h9.2a2 2 0 0 1 2 2v9.2a2 2 0 0 1-2 2h-9.2a2 2 0 0 1-2-2zm2-1.4a1.4 1.4 0 0 0-1.4 1.4v9.2a1.4 1.4 0 0 0 1.4 1.4h9.2a1.4 1.4 0 0 0 1.4-1.4v-9.2a1.4 1.4 0 0 0-1.4-1.4z" />
  <path
     fill="url(#lowershadow)"
     fill-opacity="0.5"
     d="m2 8v4.6a1.4 1.4 0 0 0 1.4 1.4h9.2a1.4 1.4 0 0 0 1.4-1.4v-4.6zm1.2 3.2a1 1 0 0 1 1-1h7.6a1 1 0 0 1 1 1v0.6a1 1 0 0 1-1 1h-7.6a1 1 0 0 1-1-1z" />
  <rect
     fill="#fff"
     fill-opacity="0.9"
     width="8.4"
     height="1.4"
     x="3.8"
     y="10.8"
     rx="0.4" />
  <path
     fill="#000"
     fill-opacity="0.75"
     d="m3.2 11.2a1 1 0 0 1 1-1h7.6a1 1 0 0 1 1 1v0.6a1 1 0 0 1-1 1h-7.6a1 1 0 0 1-1-1zm1-0.4a0.4 0.4 0 0 0-0.4 0.4v0.6a0.4 0.4 0 0 0 0.4 0.4h7.6a0.4 0.4 0 0 0 0.4-0.4v-0.6a0.4 0.4 0 0 0-0.4-0.4z" />
</svg>
