<?xml version="1.0" encoding="UTF-8" standalone="no"?>
<svg xmlns="http://www.w3.org/2000/svg" xmlns:xlink="http://www.w3.org/1999/xlink" viewBox="0 0 440 440">
  <defs>
    <linearGradient id="a" x1="236.58" x2="252.47" y1="169.89" y2="141.11" gradientTransform="matrix(2 0 0 2 44.1 -200.6)" gradientUnits="userSpaceOnUse">
      <stop offset="0" style="stop-color:#fff"/>
      <stop offset=".01" style="stop-color:#94cbee"/>
      <stop offset=".21" style="stop-color:#76b7e5"/>
      <stop offset=".66" style="stop-color:#008ecf"/>
      <stop offset=".85" style="stop-color:#007fc5"/>
    </linearGradient>
    <linearGradient id="b" x1="299.1" x2="295.45" y1="198.21" y2="165.62" gradientTransform="matrix(2.1 0 0 2.1 12.7 -242)" gradientUnits="userSpaceOnUse">
      <stop offset="0" style="stop-color:#f4a656"/>
      <stop offset=".29" style="stop-color:#fcca25"/>
      <stop offset=".49" style="stop-color:#fcca25"/>
    </linearGradient>
    <linearGradient id="c" x1="273.4" x2="262.5" y1="328.33" y2="332.73" gradientTransform="matrix(4.4 0 0 4.4 -942 -1189.2)" gradientUnits="userSpaceOnUse">
      <stop offset=".04" style="stop-color:#3e5ba6"/>
      <stop offset=".47" style="stop-color:#6d7cbc"/>
      <stop offset=".53" style="stop-color:#6373b6"/>
      <stop offset=".66" style="stop-color:#4f66ad"/>
      <stop offset=".77" style="stop-color:#435ea7"/>
      <stop offset=".87" style="stop-color:#3e5ba6"/>
      <stop offset="1" style="stop-color:#3e5ba6"/>
    </linearGradient>
    <linearGradient id="d" x1="271.27" x2="315.62" y1="143.95" y2="143.95" gradientTransform="matrix(4.4 0 0 4.4 -973.3 -484.7)" gradientUnits="userSpaceOnUse">
      <stop offset=".02" style="stop-color:#f4a656"/>
      <stop offset=".54" style="stop-color:#e95a2f"/>
    </linearGradient>
    <linearGradient id="e" x1="273.09" x2="311.65" y1="165.34" y2="165.34" gradientTransform="matrix(4.4 0 0 4.4 -973.3 -484.7)" gradientUnits="userSpaceOnUse">
      <stop offset=".29" style="stop-color:#f4a656"/>
      <stop offset="1" style="stop-color:#e95a2f"/>
    </linearGradient>
    <linearGradient id="f" x1="280.25" x2="261.95" y1="201.64" y2="173.46" gradientTransform="matrix(4.4 0 0 4.4 -970.9 -486.7)" gradientUnits="userSpaceOnUse">
      <stop offset=".1" style="stop-color:#00a94f"/>
      <stop offset=".24" style="stop-color:#00b156"/>
      <stop offset=".49" style="stop-color:#61bd65"/>
      <stop offset=".7" style="stop-color:#86c772"/>
      <stop offset=".88" style="stop-color:#9ace7b"/>
      <stop offset="1" style="stop-color:#a1d07e"/>
    </linearGradient>
    <linearGradient id="g" x1="254.39" x2="274.77" y1="160.92" y2="181.3" gradientTransform="matrix(4.4 0 0 4.4 -970.9 -486.7)" gradientUnits="userSpaceOnUse">
      <stop offset="0" style="stop-color:#007fc5"/>
      <stop offset=".09" style="stop-color:#0088b2"/>
      <stop offset=".25" style="stop-color:#00968d"/>
      <stop offset=".39" style="stop-color:#009f6c"/>
      <stop offset=".48" style="stop-color:#00a555"/>
      <stop offset=".53" style="stop-color:#00a94f"/>
    </linearGradient>
    <filter id="h" width="1.1" height="1.11" x="-.05" y="-.06" style="color-interpolation-filters:sRGB">
      <feGaussianBlur stdDeviation="7.8"/>
    </filter>
    <linearGradient xlink:href="#a" id="i" x1="236.58" x2="252.47" y1="169.89" y2="141.11" gradientTransform="matrix(4.4 0 0 4.4 -965 -481.6)" gradientUnits="userSpaceOnUse"/>
    <linearGradient xlink:href="#b" id="l" x1="299.1" x2="295.45" y1="198.21" y2="165.62" gradientTransform="matrix(4.4 0 0 4.4 -965 -481.6)" gradientUnits="userSpaceOnUse"/>
    <linearGradient xlink:href="#c" id="o" x1="273.4" x2="262.5" y1="328.33" y2="332.73" gradientTransform="matrix(4.4 0 0 4.4 -936.1 -1184.1)" gradientUnits="userSpaceOnUse"/>
    <linearGradient xlink:href="#d" id="n" x1="271.27" x2="315.62" y1="143.95" y2="143.95" gradientTransform="matrix(4.4 0 0 4.4 -967.5 -479.6)" gradientUnits="userSpaceOnUse"/>
    <linearGradient xlink:href="#e" id="m" x1="273.09" x2="311.65" y1="165.34" y2="165.34" gradientTransform="matrix(4.4 0 0 4.4 -967.5 -479.6)" gradientUnits="userSpaceOnUse"/>
    <linearGradient xlink:href="#f" id="k" x1="280.25" x2="261.95" y1="201.64" y2="173.46" gradientTransform="matrix(4.4 0 0 4.4 -965 -481.6)" gradientUnits="userSpaceOnUse"/>
    <linearGradient xlink:href="#g" id="j" x1="254.39" x2="274.77" y1="160.92" y2="181.3" gradientTransform="matrix(4.4 0 0 4.4 -965 -481.6)" gradientUnits="userSpaceOnUse"/>
  </defs>
  <rect width="440" height="440" fill="#fff"/>
  <path d="M239.4 380c6.2 3.4 12 4.3 18.2 1.3 4-2 6.4-6.5 7.5-9.2a151 151 0 0 0 9.4-49.9c15 14.8 32.7 27.8 52.6 37.7 3.4 1.7 7.8 3 11.5 3 6 0 11.5-2.3 16.4-6.3a133 133 0 0 0 45.8-131.5c16.4-45.6 28.1-106.4 4.4-156.6a47.3 47.3 0 0 0-15.8-19.3 39 39 0 0 0-21.2-5.5c-7.6 0-15.6 2.1-23.5 6-50.5 24-103.4 67.2-119.6 119.8l.2.3-2.9-4.3c-3-4.4-7.4-6.6-10.8-5.2-3.7 1.4-5.1 6.4-4.4 12l.2 2a344.7 344.7 0 0 0-126.1-71.9C69.8 99 55.6 96.8 48 105.2c-6 6.8-4.2 19.6 2.7 35.2 23.6 53.8 67.2 111 110.2 144.5 17.4 44.5 43.7 76.3 78.5 95.1z" style="opacity:.15;fill:#000;stroke:none;stroke-width:4.35085;filter:url(#h)"/>
  <path d="M197.6 202.6c-1-5.4-1.8-10.7-2.5-16a344.7 344.7 0 0 0-126.2-71.8c-11.5-3.4-25.7-5.6-33.2 2.8-6 6.7-4.3 19.5 2.6 35.1 23.6 53.9 67.3 111 110.3 144.5-9.5-44.6 6.7-83.7 49-94.6z" style="fill:url(#i);stroke:none;stroke-width:4.35084px"/>
  <path d="M227.7 289.4a291.7 291.7 0 0 1-30-86.8c-42.4 11-58.6 50-49.1 94.6 5.6 4.4 11.9 8.7 16.8 11.2 22.8 11.9 37.8 9.5 50.8 2.2a59 59 0 0 0 15.1-15.2l-3.6-6z" style="fill:url(#j);stroke:none;stroke-width:4.35084px"/>
  <path d="M216.2 310.6c-13 7.3-28 9.7-50.8-2.2-5-2.5-11.2-6.8-16.8-11.2 17.4 44.6 43.6 76.3 78.4 95.2 6.3 3.3 12 4.2 18.2 1.3 4.1-2 6.4-6.5 7.5-9.2 5.5-13 8.2-28.7 9.4-50-11.7-12-22-25.1-30.8-39.1a58.7 58.7 0 0 1-15 15.2z" style="fill:url(#k);stroke:none;stroke-width:4.35084px"/>
  <path d="M388.4 237.4c-3.5 9.8-6.8 17-13.7 28.5a65.1 65.1 0 0 1-50.2 30 152.9 152.9 0 0 1-66.8-9.8c3.2 15.6 4.8 31.8 4.4 48.5a209 209 0 0 0 52.6 37.7 28 28 0 0 0 11.6 2.9c5.9 0 11.4-2.3 16.4-6.2a133 133 0 0 0 45.7-131.6z" style="fill:url(#l);stroke:none;stroke-width:4.35084px"/>
  <path d="M220.7 194.6a341.8 341.8 0 0 1 34.9 82.2l2 9.3a152.9 152.9 0 0 0 66.9 9.7 65.1 65.1 0 0 0 50.2-30 145.6 145.6 0 0 0 13.7-28.4c-33.8-62.6-120.4-62.1-167.7-42.8z" style="fill:url(#m);stroke:none;stroke-width:4.35084px"/>
  <path d="M392.8 80.9A47.3 47.3 0 0 0 377 61.5c-12.7-7.7-28.8-7-44.6.5-50.6 24-103.5 67.3-119.7 119.8a313 313 0 0 1 8 12.8c47.3-19.3 133.9-19.8 167.7 42.8 16.4-45.6 28.2-106.4 4.4-156.5z" style="fill:url(#n);stroke:none;stroke-width:4.35084px"/>
  <path d="M194.8 184.6c-.7-5.6.7-10.6 4.4-12 3.5-1.3 7.9.9 10.9 5.2a343.2 343.2 0 0 1 45.5 99c4.6 18.4 7 37.8 6.5 57.8-13.4-13.7-25-29-34.4-45.2-15.6-27-28.4-68.7-32.9-104.8z" style="clip-rule:evenodd;fill:url(#o);fill-rule:evenodd;stroke:none;stroke-width:4.35084px"/>
</svg>