<svg viewBox="0 0 632 776" xmlns="http://www.w3.org/2000/svg">
<defs>
<linearGradient id="k" x1="24" x2="24" y1="16.525" y2="13.285" gradientTransform="matrix(21.931,0,0,20.183,-212.13,-142.67)" gradientUnits="userSpaceOnUse">
<stop stop-color="#fff" offset="0"/>
<stop stop-color="#729fcf" offset="1"/>
</linearGradient>
<linearGradient id="l" x1="16.071" x2="15.786" y1="19.5" y2="30" gradientTransform="matrix(21.143 0 0 21.143 -195.82 -121.04)" gradientUnits="userSpaceOnUse">
<stop stop-color="#fff" offset="0"/>
<stop stop-color="#fff" stop-opacity="0" offset="1"/>
</linearGradient>
<linearGradient id="j" x1="17.16" x2="37.969" y1="14.004" y2="56.576" gradientTransform="matrix(21.143,0,0,21.143,-193.21,-177.32)" gradientUnits="userSpaceOnUse">
<stop stop-color="#3977c3" offset="0"/>
<stop stop-color="#89aedc" stop-opacity="0" offset="1"/>
</linearGradient>
<linearGradient id="h" x1="9.3031" x2="38.826" y1="26.719" y2="26.719" gradientTransform="matrix(21.143,0,0,21.143,-193.21,-177.32)" gradientUnits="userSpaceOnUse">
<stop stop-color="#729fcf" offset="0"/>
<stop stop-color="#babdb6" offset=".31579"/>
<stop stop-color="#3465a4" offset="1"/>
</linearGradient>
<linearGradient id="i" x1="49.137" x2="747.1" y1="467.26" y2="467.26" gradientTransform="matrix(.90134 0 0 1.1095 -43.246 -130.81)" gradientUnits="userSpaceOnUse">
<stop stop-color="#729fcf" offset="0"/>
<stop stop-color="#204a87" offset="1"/>
</linearGradient>
</defs>
<g transform="translate(.4115 .4045)" stroke-miterlimit="10" stroke-width="21.143">
<path d="m312.9 10.987c-166.17 0-301.29 59.253-301.29 132.14v488.93c0 72.89 135.12 132.14 301.29 132.14s306.67-59.253 306.67-132.14v-488.93c0-72.89-140.5-132.14-306.67-132.14z" display="block" fill="url(#h)" overflow="visible" stroke="url(#i)"/>
<path d="m313.08 27.464c-154.93 0-280.9 55.245-280.9 123.2v467.81c0 67.959 125.98 123.2 280.9 123.2 154.93 0 285.92-55.245 285.92-123.2v-467.81c0-67.959-130.99-123.2-285.92-123.2z" display="block" fill="none" opacity=".5443" overflow="visible" stroke="url(#j)"/>
<path d="m596.2 141.34c0 61.309-126.24 111.01-281.97 111.01s-281.97-49.7-281.97-111.01c0-61.309 126.24-111.01 281.97-111.01s281.97 49.7 281.97 111.01z" display="block" fill="#3465a4" overflow="visible" stroke="url(#k)"/>
</g>
<path d="m98.68 594.8 97.966 27.184v-369.04c-28.139-5.3702-68.461-16.629-97.966-28.188z" display="block" fill="url(#l)" opacity=".49367" overflow="visible"/>
<path d="m387.2 341.04c-4.3319-0.0644-8.1091 1.567-10.059 6.3477-3.342 8.0452 4.9503 15.966 7.7969 20.051 2.105 2.8466 4.8271 6.0646 6.3125 9.2832 0.86657 2.1027 1.1139 4.3328 1.9805 6.5606 1.9808 5.4447 3.8359 11.509 6.4355 16.584 1.3619 2.5989 2.8469 5.3227 4.5801 7.6738 0.98999 1.3612 2.7218 1.9813 3.0938 4.209-1.7323 2.4754-1.8568 6.1889-2.8477 9.2832-4.4555 13.986-2.7222 31.313 3.5898 41.586 1.98 3.0935 6.684 9.9024 12.996 7.3027 5.5697-2.2278 4.3326-9.2821 5.9414-15.471 0.37194-1.4862 0.12473-2.4748 0.86719-3.4648 7.8e-4 0.12343 0 0.2461 0 0.2461 1.7331 3.4654 3.4653 6.8081 5.0742 10.273 3.8374 6.0644 10.52 12.377 16.09 16.586 2.9716 2.227 5.322 6.0638 9.0352 7.4258v-0.37109h-0.24805c-0.7431-1.1143-1.8557-1.61-2.8457-2.4766-2.2277-2.2277-4.7032-4.9504-6.4355-7.4258-5.1978-6.9317-9.779-14.604-13.863-22.525-1.98-3.8366-3.7134-8.0462-5.3223-11.883-0.7431-1.4862-0.74277-3.7128-1.9805-4.4551-1.8566 2.7224-4.5794 5.074-5.9414 8.416-2.3504 5.322-2.5983 11.882-3.4648 18.689-0.49463 0.1241-0.24856 1.8e-4 -0.49609 0.24805-3.9601-0.99081-5.3212-5.0748-6.8066-8.541-3.7131-8.7874-4.3318-22.898-1.1133-33.047 0.86656-2.5997 4.5792-10.767 3.0938-13.242-0.74229-2.352-3.2189-3.7138-4.5801-5.5703-1.6089-2.352-3.3416-5.3222-4.4551-7.9219-2.9708-6.9309-4.4561-14.605-7.6738-21.537-1.4854-3.2185-4.0852-6.5593-6.1894-9.5293-2.3512-3.342-4.95-5.6934-6.8066-9.6543-0.61806-1.3612-1.4861-3.5888-0.49609-5.0742 0.24786-0.99 0.7436-1.3617 1.7344-1.6094 1.6089-1.3619 6.188 0.37095 7.7969 1.1133 4.5797 1.8558 8.4165 3.5906 12.254 6.1894 1.7323 1.2377 3.5887 3.5882 5.8164 4.207h2.5996c3.9609 0.8658 8.4158 0.24767 12.129 1.3613 6.5605 2.1035 12.501 5.199 17.824 8.541 16.215 10.273 29.581 24.879 38.617 42.33 1.4854 2.8458 2.1029 5.446 3.4648 8.416 2.5997 6.0651 5.8171 12.254 8.416 18.195 2.5989 5.8166 5.074 11.759 8.7871 16.586 1.8573 2.5981 9.283 3.9603 12.625 5.3223 2.4754 1.1135 6.3133 2.1037 8.541 3.4648 4.2078 2.5981 8.4161 5.5695 12.377 8.416 1.9807 1.4846 8.1685 4.5801 8.541 7.0547-9.9017-0.24685-17.575 0.7425-24.012 3.4648-1.8566 0.7423-4.8285 0.7445-5.0762 3.0957 0.99081 0.9908 1.1158 2.5997 1.9824 3.9609 1.4862 2.4746 4.0836 5.8157 6.4356 7.5488 2.5989 1.98 5.1976 3.9602 7.9199 5.6934 4.8274 2.9708 10.275 4.703 14.979 7.6738 2.7239 1.7315 5.4448 3.9618 8.168 5.8184 1.362 0.98926 2.2278 2.5979 3.9609 3.2168v-0.37109c-0.86653-1.1142-1.1147-2.7232-1.9805-3.9609-1.2369-1.2377-2.4752-2.3502-3.7129-3.5879-3.5897-4.8266-8.0457-9.0365-12.873-12.502-3.9601-2.7231-12.623-6.4359-14.232-11.016 7.7e-4 0-0.12462-0.12266-0.24805-0.24609 2.7231-0.24787 5.9413-1.2393 8.541-1.9824 4.2085-1.1143 8.045-0.86505 12.377-1.9785 1.98-0.49541 3.9594-1.1155 5.9394-1.7344v-1.1133c-2.2269-2.2285-3.8355-5.1984-6.1875-7.3027-6.312-5.447-13.243-10.767-20.422-15.223-3.8374-2.4754-8.7888-4.086-12.873-6.1894-1.4846-0.74387-3.9604-1.1138-4.8262-2.3516-2.2285-2.7231-3.4673-6.3127-5.0762-9.5312-3.5881-6.8082-7.0542-14.357-10.148-21.535-2.2269-4.8274-3.5894-9.6559-6.3125-14.111-12.748-21.041-26.612-33.788-47.9-46.289-4.5797-2.5989-10.024-3.715-15.842-5.0762-3.0935-0.12411-6.1889-0.36991-9.2832-0.49414-1.98-0.86657-3.9602-3.2178-5.6934-4.332-4.4085-2.7852-13.169-7.6016-20.389-7.709zm30.537 30.605c-2.1043 0-3.5888 0.24804-5.0742 0.61914v0.24805h0.24804c0.99081 1.98 2.7212 3.3419 3.959 5.0742 0.9908 1.98 1.8568 3.9606 2.8476 5.9414 0.12343-0.12411 0.2461-0.24804 0.2461-0.24804 1.7339-1.2385 2.5996-3.2175 2.5996-6.1875-0.7431-0.86657-0.86555-1.733-1.4844-2.5996-0.74233-1.2385-2.3518-1.8569-3.3418-2.8477zm-330.88 123.99c-2.5741 0.0909-5.4136 0.58539-8.5078 1.5137-5.0744 1.6089-7.5488 4.579-7.5488 10.768v63.742h16.09v-63.742l25.125 55.574c2.8476 6.6832 6.9326 9.1582 14.854 9.1582 7.9217 0 11.758-2.475 14.729-9.1582l25.002-55.574v63.742h16.213v-63.742c0-6.1886-2.4753-9.1586-7.6738-10.768-12.253-3.7131-20.422-0.49516-24.135 7.7969l-24.631 54.955-23.764-54.955c-2.6922-6.219-8.0297-9.5831-15.752-9.3105zm170.1 23.916v41.836c-0.24767 0-30.573 0.12276-35.152 0-8.7875-0.12346-9.5297-4.5805-9.4062-6.5606v-35.027h-16.213c0.37096 0.25421 0 35.398 0 36.141 0.1235 8.0452 10.396 15.101 26.363 15.225h34.285v4.209c0 1.7332 1.2369 6.9314-9.1602 8.0449h-51.117v10.768h50.994c8.1686-0.12346 25.621-3.2186 25.621-17.328v-57.307z" fill="#204a87"/>
<path d="m285.54 571.67h46.539c5.4455 0 10.644-1.1135 14.852-3.0943 7.056-3.2177 10.397-7.5497 10.397-13.244v-11.883c0-4.5789-3.8374-8.9109-11.511-11.882-3.9601-1.4846-8.9117-2.3512-13.739-2.3512h-19.555c-6.5605 0-9.6548-1.9808-10.521-6.3128-0.12411-0.49463-0.12411-0.99003-0.12411-1.4846v-7.3029c0-0.37113 0-0.86653 0.12411-1.3612 0.86656-3.342 2.5989-4.2085 8.2929-4.8274h47.653v-10.768h-45.302c-6.5597 0-10.025 0.37117-13.12 1.362-9.5306 2.9693-13.739 7.6732-13.739 15.966v9.4071c0 7.302 8.1694 13.491 22.032 14.976 1.4854 0.12343 3.0943 0.12343 4.7032 0.12343h16.709c0.61887 0 1.2377 0 1.7331 0.12411 5.0743 0.49459 7.302 1.3612 8.7874 3.2177 0.99003 0.98922 1.2377 1.8566 1.2377 2.9708l7.8e-4 9.4056c0 1.1142-0.74311 2.6004-2.2285 3.8382-1.4847 1.2377-3.8374 2.1043-6.9317 2.2277-0.61806 0-0.99 0.12343-1.6089 0.12343l-44.681-7.7e-4v10.769l7e-5 7e-5zm172.54-18.689c0 11.014 8.2929 17.204 24.878 18.441 1.6089 0.1241 3.0943 0.24787 4.7032 0.24787h42.084v-10.769h-42.454c-9.4063 0-12.997-2.3504-12.997-8.0444l7.7e-4 -55.697h-16.215v55.821l4e-5 3e-5zm-90.478 0.49442v-38.369c0-9.7775 6.9309-15.719 20.422-17.576 1.4862-0.1241 2.9708-0.24686 4.332-0.24686l30.695-7.8e-4c1.6104 0 2.9708 0.12411 4.5797 0.24754 13.491 1.8558 20.299 7.7982 20.299 17.576l8.1e-4 38.369c0 7.921-2.8474 12.13-9.5314 14.977l15.843 14.357h-18.689l-12.873-11.635-12.996 0.74229h-17.329c-2.8458 0-6.0651-0.37036-9.4063-1.2369-10.274-2.8466-15.348-8.2929-15.348-17.205l-7e-5 -4e-5zm17.451-0.86653c0 0.49459 0.24753 0.9908 0.37194 1.6097 0.86576 4.4554 5.0743 6.9309 11.511 6.9309h14.605l-13.367-12.13h18.69l11.758 10.645c2.2293-1.2385 3.5897-2.9701 4.0851-5.1978 0.12343-0.49537 0.12343-1.1142 0.12343-1.6096v-36.76c0-0.49463 0-0.99003-0.12343-1.4846-0.86653-4.2086-5.0751-6.5605-11.387-6.5605h-24.383c-7.1786 0-11.883 3.0943-11.883 8.0452v36.513zm152.12 19.184h2.352v-9.0351h3.0943v-1.8573h-8.6648v1.8573h3.2185zm17.948 0h2.2269v-10.892h-3.3412l-2.7239 7.4263-2.9692-7.4263h-3.2185v10.892h2.1043v-8.2929h0.12343l3.0943 8.2929h1.6097l3.0943-8.2929v8.2929z" fill="#f57900"/>
</svg>
