<svg viewBox="0 0 224 224" xmlns="http://www.w3.org/2000/svg">
<path d="m2.1924 80v66h191.6v-23.977h20.236v-20.047h-20.219v-3.9512h28v-20.025h-219.62v2z" fill="#fff"/>
<path d="m4.1924 120 3e-5 24h22.485l-3e-5 -24zm26.912 0 7.2466 24h28.399l-2e-5 -24zm41.979 0-4.4628 24h24.201l1.5039-8h15.928l1.4876 8h24.205l-4.4629-24h-34.178zm64.787 0 4e-5 24h25.212l-2e-5 -24zm29.259 0 3e-5 24h24.662l-2e-5 -24z" fill="#a00c30"/>
<path d="m4.1924 80v16h33.225l-4.846-16zm40.072 0v16h22.485v-16zm36.257 0-2.9793 16h49.474l-2.9752-16zm57.349 0v16h25.212v-16zm29.259 0v16h52.678v-16z" fill="#fcb53b"/>
<path d="m4.1924 96v24h22.465v-8.0102h2.0052l2.4413 8.0102h35.646v-24h-22.485v16.01h-2.0012l-4.846-16.01zm73.35 0-4.4588 24h24.201l4.4628-24zm25.273 0 4.4628 24h24.205l-4.4669-24zm35.055 0v24h25.212v-24zm29.28 0v24h44.877v-16h-20.219v-8z" fill="#f57e29"/>
</svg>
