<?xml version="1.0" encoding="UTF-8" standalone="no"?> <svg xmlns="http://www.w3.org/2000/svg" version="1.1" viewBox="0 0 864 244"><path fill="#fff" d="M 42,0 C 18.804041,0 0,18.804041 0,42 v 160 c 0,23.19596 18.804041,42 42,42 h 780 c 23.19596,0 42,-18.80404 42,-42 V 42 C 864,18.804041 845.19596,0 822,0 z"/><path fill-rule="evenodd" clip-rule="evenodd" d="m 821.20548,85.153605 h -2.1093 v 2.562525 h 2.1093 c 0.9844,0 1.6144,-0.440044 1.6144,-1.255387 0,-0.86715 -0.5906,-1.307138 -1.6144,-1.307138 z m -4.7081,-2.368463 h 4.7644 c 2.5931,0 4.3144,1.397757 4.3144,3.584982 0,1.358943 -0.6863,2.368687 -1.7213,3.002624 l 1.8619,2.666251 v 0.530437 h -2.7 l -1.8113,-2.56275 h -2.1093 v 2.56275 h -2.5988 z m 13.2862,5.073357 c 0,-5.228662 -3.5268,-9.201881 -8.9325,-9.201881 -5.2987,0 -8.8256,3.7791 -8.8256,9.201881 0,5.176687 3.5269,9.201937 8.8256,9.201937 5.4057,0 8.9325,-3.973499 8.9325,-9.201937 z m 2.2163,0 c 0,6.147562 -4.1681,11.285437 -11.1319,11.285437 -6.9131,0 -11.0419,-5.176688 -11.0419,-11.285437 0,-6.147562 4.1176,-11.285606 11.0419,-11.285606 6.9638,0.01294 11.1319,5.138044 11.1319,11.285606 z m -624.12526,21.885191 -21.49369,12.26925 21.49369,12.23044 c 5.42925,3.09318 7.27819,9.92643 4.14394,15.2848 -3.13426,5.33194 -10.05862,7.15669 -15.46144,4.07644 l -38.50256,-21.93693 c -2.57007,-1.47544 -4.35375,-3.77888 -5.14012,-6.38044 -0.38081,-1.19081 -0.55125,-2.41988 -0.51188,-3.63656 0.0264,-0.88032 0.1575,-1.76007 0.39375,-2.64038 0.77343,-2.73094 2.57006,-5.17669 5.24531,-6.71681 l 38.48963,-21.911064 c 5.40281,-3.080475 12.34012,-1.2555 15.46087,4.102312 3.16069,5.345438 1.31175,12.165752 -4.1175,15.258942 z M 187.52169,169.187 149.04556,147.28887 c -2.07225,-1.19025 -4.35375,-1.64362 -6.55706,-1.4625 -5.87475,0.41456 -10.4777,5.25488 -10.4777,11.14369 v 43.848 c 0,6.18637 5.04844,11.18194 11.31695,11.18194 6.2685,0 11.33044,-5.00851 11.33044,-11.18194 V 176.2925 l 21.546,12.26924 c 5.4163,3.10613 12.34068,1.26844 15.46143,-4.07699 3.12132,-5.34488 1.28532,-12.20457 -4.14393,-15.29775 z m -44.40376,-42.89006 -15.99862,15.7635 c -0.459,0.46574 -1.33762,0.84093 -2.00644,0.84093 h -1.15425 -2.36025 -1.18069 c -0.64237,0 -1.54743,-0.37519 -2.00643,-0.84093 l -15.99863,-15.7635 c -0.459,-0.44044 -0.82631,-1.33313 -0.82631,-1.96707 v -1.16493 -2.32988 -1.15144 c 0,-0.64743 0.36731,-1.54012 0.82631,-1.9935 l 15.98569,-15.7635 c 0.459,-0.46575 1.36406,-0.828 2.00644,-0.828 h 1.18012 2.36082 1.16718 c 0.65532,0 1.54744,0.36225 2.00644,0.828 l 15.99862,15.7635 c 0.45901,0.45338 0.82632,1.34607 0.82632,1.9935 v 1.15144 2.32988 1.16493 c 0,0.621 -0.36731,1.51369 -0.82632,1.96707 z m -12.78562,-4.37457 c 0,-0.63393 -0.39375,-1.52719 -0.85275,-1.99293 l -4.62937,-4.55569 c -0.45901,-0.45338 -1.35057,-0.82856 -2.00644,-0.82856 h -0.18338 c -0.64237,0 -1.54744,0.37518 -1.9935,0.82856 l -4.62881,4.55569 c -0.459,0.46575 -0.81337,1.359 -0.81337,1.99293 v 0.18113 c 0,0.63394 0.35437,1.51425 0.81337,1.96706 l 4.62881,4.56862 c 0.459,0.45338 1.35113,0.82857 1.9935,0.82857 h 0.18338 c 0.64293,0 1.54743,-0.37519 2.00644,-0.82857 l 4.62937,-4.56862 c 0.459,-0.45281 0.85275,-1.33312 0.85275,-1.96706 z M 58.008927,74.786899 96.497937,96.711123 c 2.07225,1.177313 4.367253,1.643625 6.570563,1.4625 5.86181,-0.427499 10.47769,-5.267811 10.47769,-11.156343 V 43.169112 C 113.54619,37.008629 108.47131,32 102.22869,32 95.960747,32 90.898807,37.008629 90.898807,43.169112 V 67.707499 L 69.339307,55.41243 c -5.40292,-3.093186 -12.32707,-1.255386 -15.46127,4.089713 -3.13425,5.371031 -1.28514,12.191568 4.13089,15.284756 z M 142.4885,98.173623 c 2.20331,0.181125 4.49831,-0.285187 6.55706,-1.4625 l 38.47613,-21.924224 c 5.41631,-3.093188 7.26525,-9.926662 4.14393,-15.284756 -3.12075,-5.345099 -10.04513,-7.169962 -15.46143,-4.089713 l -21.546,12.295069 V 43.169112 C 154.65819,37.008629 149.59625,32 143.32775,32 137.05924,32 132.0108,37.008629 132.0108,43.169112 V 87.01728 c -0.0135,5.888532 4.60295,10.728844 10.4777,11.156343 z m -39.42,47.652747 c -2.21625,-0.18112 -4.511253,0.27225 -6.570563,1.4625 L 58.008927,169.187 c -5.41603,3.09318 -7.26514,9.95287 -4.14399,15.29775 3.13419,5.3325 10.05834,7.17018 15.46126,4.07699 l 21.55911,-12.26924 v 24.52556 c 0,6.18637 5.06194,11.18194 11.330443,11.18194 6.24206,0 11.3175,-5.00851 11.3175,-11.18194 v -43.848 c 0.0129,-5.88881 -4.60294,-10.72913 -10.46475,-11.14369 z M 92.629617,125.28725 c 0.38025,-1.19081 0.53775,-2.41988 0.51132,-3.63656 -0.0394,-0.88032 -0.1575,-1.76007 -0.40669,-2.64038 -0.7605,-2.73094 -2.57006,-5.17669 -5.27153,-6.71681 L 48.999647,90.382436 c -5.42914,-3.080475 -12.35328,-1.2555 -15.46127,4.102312 -3.14733,5.345438 -1.28516,12.165752 4.14399,15.258942 l 21.49369,12.26925 -21.50679,12.23044 c -5.42916,3.09318 -7.27822,9.92643 -4.144,15.2848 3.1211,5.33194 10.03214,7.15669 15.46127,4.07644 l 38.46308,-21.93693 c 2.60938,-1.4625 4.36719,-3.77888 5.18,-6.38044 z M 570.01498,59.761005 h -1.0626 c -0.144,0 -0.2751,0.01294 -0.4196,0.02588 -0.1311,-0.01294 -0.2622,-0.02588 -0.4067,-0.02588 -2.7276,0 -5.3893,0.310613 -7.8683,1.125957 -2.439,0.802406 -4.6946,2.122537 -6.4389,4.141519 l -0.013,-0.01294 v 0.01294 0.01294 c -1.8096,1.980169 -2.9897,4.348575 -3.7243,7.040531 -0.7211,2.70495 -1.0226,5.746332 -1.0491,9.214874 v 6.704045 h -7.488 c -2.5965,0.01294 -4.6687,2.070506 -4.6687,4.555631 -0.013,1.333125 0.5113,2.56275 1.364,3.455438 0.8652,0.867374 2.0458,1.449561 3.357,1.514249 h 7.4357 v 54.538301 l -0.013,0.12938 c 0,1.28138 0.5372,2.45925 1.4158,3.30075 0.8657,0.82801 2.0852,1.31963 3.4099,1.31963 2.5177,-0.0129 4.59,-2.04469 4.6029,-4.63332 V 97.500311 h 8.0522 c 1.2983,-0.06469 2.4913,-0.608063 3.3441,-1.475437 0.8786,-0.866813 1.4158,-2.083501 1.4158,-3.403688 v -0.181125 c -0.026,-2.45925 -2.1111,-4.465068 -4.7076,-4.465068 h -8.1045 v -6.67817 c 0.052,-2.950818 0.3673,-5.163974 0.8128,-6.768786 0.4332,-1.61775 1.0362,-2.627269 1.561,-3.261431 0.5242,-0.556538 1.2065,-1.022457 2.3079,-1.397757 1.1149,-0.362363 2.6623,-0.582412 4.7475,-0.582412 h 0.2486 c 0.1182,0 0.2492,-0.02587 0.3674,-0.02587 0.1445,0 0.2885,0.02587 0.4331,0.02587 h 0.603 0.446 c 2.6753,0 4.8257,-2.135476 4.8257,-4.762688 0.039,-2.640206 -2.111,-4.762744 -4.7863,-4.762744 z m 166.0213,35.371181 c 0.945,-0.919125 1.4568,-2.14875 1.4568,-3.364875 0,-1.190812 -0.5118,-2.394563 -1.4681,-3.261937 h 0.011 c -0.011,-0.02587 -0.028,-0.02587 -0.028,-0.02587 0,-0.02587 -0.023,-0.02587 -0.023,-0.02587 h -0.017 c -0.9169,-0.8928 -2.0812,-1.371655 -3.3019,-1.371655 -1.2206,0 -2.4243,0.504731 -3.33,1.39753 l -37.0631,35.642811 V 64.226084 c 0,-2.575519 -2.1881,-4.685118 -4.8769,-4.685118 -1.2993,0 -2.4806,0.530662 -3.33,1.384818 -0.8381,0.841275 -1.4062,2.018981 -1.4062,3.3003 v 87.696106 c 0,1.28138 0.5681,2.45926 1.4062,3.28725 0.8494,0.82857 2.0307,1.38488 3.33,1.38488 2.6888,0 4.8769,-2.0835 4.8769,-4.65919 V 137.453 l 12.0656,-11.89405 24.6038,29.28825 c 0.4556,0.6733 1.0856,1.13906 1.7156,1.38487 0.7088,0.25875 1.4063,0.36225 2.0194,0.36225 0.855,0 2.0475,-0.18112 3.0937,-0.99619 l 0.056,-0.0388 0.062,-0.0647 c 0.9844,-0.95793 1.5525,-2.23931 1.5525,-3.53363 0,-1.09968 -0.4106,-2.21287 -1.17,-3.10611 v -0.0129 l -25.0482,-30.03868 24.7837,-23.658186 h 0.028 z m -66.9207,-6.031125 c 0.8775,0.840937 1.4175,2.044688 1.4175,3.351937 v 59.469182 c 0,1.28138 -0.5512,2.45926 -1.3893,3.28725 -0.855,0.82857 -2.0363,1.38488 -3.3469,1.38488 -1.2938,0 -2.5031,-0.55631 -3.3413,-1.38488 -0.855,-0.82799 -1.4062,-2.00587 -1.4062,-3.28725 v -5.79768 c -5.9625,6.35456 -14.3438,10.46981 -23.6138,10.46981 -9.2362,0 -17.5331,-3.90825 -23.49,-10.18519 -5.9681,-6.23812 -9.6243,-14.832 -9.6243,-24.21506 0,-9.38306 3.6562,-17.98931 9.6243,-24.227437 5.9569,-6.264562 14.2538,-10.159874 23.49,-10.159874 9.27,0 17.6513,3.986438 23.6138,10.315124 v -5.655937 c 0,-1.30725 0.54,-2.510999 1.4175,-3.351937 0.8775,-0.828563 2.0587,-1.30725 3.33,-1.30725 1.26,0 2.4525,0.478687 3.3187,1.294312 z m -8.0662,33.092999 c 0,-7.02731 -2.6888,-13.33013 -6.9863,-17.88581 -4.2918,-4.529814 -10.1925,-7.286626 -16.6275,-7.299564 -6.39,0 -12.2625,2.76975 -16.605,7.299564 -4.3031,4.55568 -7.0312,10.84556 -7.0312,17.88581 0,7.02787 2.7281,13.27893 7.0312,17.79581 4.3144,4.51687 10.2038,7.23432 16.605,7.23432 6.4632,0 12.3525,-2.71745 16.6388,-7.22138 4.2862,-4.51688 6.975,-10.78088 6.975,-17.80875 z m -381.45488,-1.6695 c -3.8295,-1.78594 -8.16976,-3.09319 -12.49763,-4.51687 -3.98644,-1.33313 -8.02575,-2.45869 -10.91081,-3.94707 -1.45576,-0.76387 -2.58356,-1.57893 -3.31763,-2.48512 -0.74756,-0.90619 -1.11487,-1.83769 -1.12781,-3.09319 0.0129,-1.72125 0.51131,-3.10612 1.3635,-4.34869 1.29825,-1.83768 3.47512,-3.274309 5.84888,-4.193434 2.34731,-0.9315 4.89149,-1.371375 6.71455,-1.371375 5.37638,0.01294 8.77332,1.773 11.38275,3.610689 1.28532,0.91912 2.37376,1.86356 3.40988,2.62744 0.52426,0.40106 1.02263,0.76331 1.59975,1.035 0.53775,0.25875 1.18013,0.47925 1.87537,0.47925 0.4455,0 0.87863,-0.0776 1.28476,-0.24638 0.43312,-0.16819 0.79987,-0.414 1.15424,-0.71156 0.34088,-0.32344 0.64238,-0.71156 0.85219,-1.13906 0.18394,-0.43988 0.27563,-0.90563 0.27563,-1.34607 0,-0.828 -0.26213,-1.604809 -0.65587,-2.342247 -0.72114,-1.281375 -1.8225,-2.510999 -3.22594,-3.753562 -2.08519,-1.837687 -4.8392,-3.571875 -7.80244,-4.892063 -2.97732,-1.320187 -6.16388,-2.212931 -9.19294,-2.212931 -7.0425,0 -12.91725,1.578994 -17.17931,4.47812 -2.22919,1.514249 -4.18331,3.170812 -5.56032,5.461311 -1.40343,2.291063 -2.18981,5.125502 -2.29499,8.813812 v 0.49163 c -0.0129,3.57243 1.15425,6.52275 2.99025,8.83968 2.77987,3.48132 6.91088,5.55244 10.96312,7.02788 4.03875,1.47487 8.091,2.35519 10.63518,3.19669 3.59325,1.17731 7.40926,2.45868 10.20263,4.15406 1.38994,0.86737 2.50481,1.79887 3.26532,2.8215 0.73462,1.0485 1.15424,2.13525 1.18012,3.50719 v 0.1035 c -0.0129,1.99349 -0.603,3.54656 -1.58681,4.87969 -1.48162,1.99293 -3.93413,3.44249 -6.54356,4.37399 -2.5965,0.90619 -5.31113,1.28138 -7.04251,1.28138 -6.13687,0 -10.24143,-1.4625 -13.23168,-2.925 -1.49513,-0.73744 -2.70168,-1.46251 -3.80306,-2.0835 -0.53775,-0.29756 -1.04907,-0.56925 -1.58682,-0.77681 -0.52424,-0.20701 -1.0755,-0.34932 -1.70493,-0.34932 -0.38025,0 -0.79988,0.0647 -1.19307,0.21994 -0.39375,0.16819 -0.74756,0.38869 -1.04906,0.67331 -0.40668,0.38813 -0.77399,0.84094 -1.02319,1.34607 -0.24919,0.50456 -0.36675,1.04793 -0.36675,1.6048 0,0.91857 0.34088,1.74713 0.83926,2.51045 0.77343,1.10024 1.91419,2.07112 3.33055,3.05437 1.46869,0.97087 3.213,1.91587 5.21944,2.86031 4.47188,2.0835 10.18969,3.17082 14.54344,3.2355 h 0.0129 c 6.76687,0 12.60281,-1.54012 17.52019,-5.112 v -0.0129 h 0.0129 c 4.8133,-3.57187 7.80299,-8.89143 7.80299,-14.89668 0,-3.30019 -0.78693,-6.09581 -2.15043,-8.38632 -2.07225,-3.45543 -5.42925,-5.74649 -9.23231,-7.54537 z M 589.56748,59.540956 c -1.2983,0 -2.4914,0.530662 -3.3441,1.384818 -0.8522,0.841275 -1.4029,2.018981 -1.4029,3.3003 v 87.696106 c 0,1.28138 0.5372,2.45926 1.4029,3.28725 0.8527,0.82857 2.0458,1.38488 3.3441,1.38488 2.6887,0 4.8656,-2.0835 4.8785,-4.65919 V 64.226074 c -0.013,-2.588456 -2.1769,-4.685118 -4.8785,-4.685118 z m 218.2044,60.440234 v 0.46575 c 0,1.29431 -0.5906,2.45925 -1.485,3.22256 -0.8775,0.77681 -2.0306,1.17787 -3.2794,1.19081 h -53.19 c 1.35,12.81263 11.7281,22.27332 24.0919,22.36388 h 3.1331 c 4.095,0.0129 8.0775,-1.38488 11.5931,-3.68831 3.5157,-2.29107 6.5588,-5.48775 8.6963,-9.00788 0.4444,-0.75038 1.0744,-1.32019 1.755,-1.6695 0.7087,-0.37519 1.4569,-0.55631 2.2162,-0.55631 0.8381,0 1.6819,0.21994 2.4132,0.64687 l 0.056,0.0259 0.051,0.0388 c 1.3387,0.97088 2.1656,2.43337 2.1656,4.05112 0,0.82801 -0.225,1.65656 -0.6694,2.41988 l -0.017,0.0259 -0.011,0.0129 c -2.9756,4.65919 -7.0312,8.91731 -11.8406,11.99756 -4.8263,3.09319 -10.4119,5.04732 -16.4081,5.04732 h -3.1838 c -9.3375,-0.0647 -17.7694,-3.96 -23.8556,-10.1852 -6.0694,-6.1993 -9.81,-14.71555 -9.81,-24.08568 0,-9.52537 3.7631,-18.15806 9.8887,-24.409124 6.1257,-6.238125 14.6194,-10.107618 24.0357,-10.107618 8.9831,0 17.0606,3.533118 23.0456,9.305493 5.9794,5.772379 9.8831,13.796439 10.5806,22.817249 z m -10.3894,-4.42632 c -2.7,-10.79381 -12.3019,-18.481497 -23.265,-18.468559 -11.2387,0 -20.7056,7.519499 -23.6419,18.468559 z M 330.13511,87.923186 c -7.42218,0 -14.20199,2.860313 -19.25099,7.416 v -2.718 c -0.0129,-1.2555 -0.47194,-2.419875 -1.31119,-3.274313 -0.79987,-0.841499 -1.9935,-1.410693 -3.29175,-1.410693 -1.35056,0 -2.57006,0.530381 -3.40988,1.397756 -0.83924,0.854438 -1.33762,2.03175 -1.33762,3.28725 v 60.711744 l 0.19688,0.19407 0.0135,0.0259 c 0.0523,0.19406 0.18337,0.4275 0.31443,0.63451 0.64237,1.12555 1.70494,1.98 3.01613,2.35518 l 0.18394,0.0517 h 1.02262 c 0.68175,0 1.36406,-0.14231 2.01937,-0.43987 0.53776,-0.25876 1.04907,-0.67276 1.45575,-1.20375 h 0.0129 c 0.0529,-0.0517 0.0658,-0.11644 0.11812,-0.16819 0.0264,-0.0129 0.0394,-0.0259 0.0523,-0.0517 0.24918,-0.32344 0.459,-0.64688 0.59063,-0.95794 0.13106,-0.36225 0.22275,-0.71156 0.28856,-0.97031 l 0.0388,-0.16819 v -36.45847 c 0.13163,-5.2155 2.3085,-9.92643 5.79656,-13.356 3.46219,-3.430121 8.20912,-5.539497 13.455,-5.539497 5.337,0 10.09744,2.122313 13.54669,5.539497 3.46219,3.41663 5.56031,8.11463 5.56031,13.30425 v 35.79806 c 0,1.30725 0.56363,2.52395 1.41637,3.35194 0.87863,0.82857 2.0717,1.32019 3.31763,1.32019 1.27181,0 2.45251,-0.49162 3.33113,-1.32019 0.87863,-0.82799 1.41581,-2.04469 1.41581,-3.35194 v -35.79806 c 0.0394,-15.44006 -12.74625,-28.175002 -28.56207,-28.200934 z m 94.26317,10.08225 c 5.9929,6.264004 9.6255,14.857314 9.6385,24.188624 -0.013,9.31837 -3.6591,17.91225 -9.6385,24.17625 -5.94111,6.264 -14.24191,10.21106 -23.47423,10.21106 -9.15356,0 -17.46787,-3.95999 -23.43431,-10.21106 -5.967,-6.264 -9.66487,-14.85788 -9.66487,-24.17625 0,-9.31837 3.69787,-17.92462 9.66487,-24.188624 5.96644,-6.251063 14.28075,-10.211625 23.43431,-10.211625 9.23232,0.01294 17.53312,3.960562 23.47423,10.211625 z m 0.1311,24.188624 c 0,-6.96262 -2.7146,-13.27837 -7.02901,-17.83406 -4.34081,-4.568627 -10.20263,-7.351314 -16.58925,-7.351314 -6.3737,0 -12.26138,2.795625 -16.58925,7.351314 -4.31438,4.55569 -7.029,10.87144 -7.029,17.83406 0,6.96319 2.71462,13.21425 7.029,17.74406 4.32787,4.54219 10.21555,7.28607 16.58925,7.28607 6.37312,0 12.27431,-2.74388 16.58925,-7.28607 4.31441,-4.52981 7.02901,-10.78087 7.02901,-17.74406 z m 102.3407,-33.869811 -0.026,-0.01294 c 0,0 -0.013,-0.01294 -0.026,-0.01294 -0.5378,-0.232819 -1.1413,-0.362194 -1.705,-0.362194 -0.9309,0.01294 -1.823,0.284681 -2.5965,0.763819 -0.7869,0.491624 -1.4557,1.216124 -1.8489,2.122312 v 0.02588 l -18.1108,48.895314 -13.9528,-32.76956 -0.026,-0.0129 c -0.3932,-0.91857 -1.0885,-1.61775 -1.8883,-2.12232 -0.7999,-0.49162 -1.7309,-0.76387 -2.7147,-0.76387 -0.9438,0 -1.836,0.29812 -2.6094,0.77681 -0.774,0.49163 -1.4687,1.19081 -1.8624,2.10938 l -0.013,0.0129 -13.9793,32.79544 -18.189,-48.882381 h -0.014 c -0.3144,-0.945001 -0.9703,-1.682438 -1.7308,-2.174063 -0.7869,-0.492075 -1.692,-0.763818 -2.6359,-0.776756 -0.6036,0 -1.2066,0.116437 -1.7837,0.362194 h -0.026 l -0.026,0.02587 c -1.6914,0.776812 -2.7275,2.45925 -2.741,4.284 0,0.56925 0.1181,1.139062 0.3414,1.708312 l 22.3852,59.326864 v 0.0259 c 0.1705,0.44043 0.4197,0.88031 0.787,1.30725 0.2621,0.3105 0.6424,0.56981 1.0491,0.77681 0.079,0.0647 0.1833,0.16818 0.3673,0.27169 0.1833,0.11644 0.4325,0.19407 0.6688,0.23288 0.3932,0.12937 0.9309,0.32343 1.6391,0.32343 0.9051,0 1.7443,-0.32343 2.5048,-0.80213 0.7082,-0.46631 1.3376,-1.16493 1.6785,-2.05818 l 0.052,-0.0388 14.1632,-33.40349 14.1761,33.26118 h 0.013 c 0.328,0.89326 0.9051,1.57894 1.5604,2.07113 0.7082,0.5175 1.4951,0.84094 2.3214,0.97031 h 0.5901 c 0.5636,0 1.1149,-0.1035 1.5739,-0.28462 0.4848,-0.18112 0.8786,-0.42694 1.206,-0.67276 0.761,-0.56981 1.3511,-1.35899 1.7184,-2.23931 v -0.0259 l 22.2407,-59.068119 c 0.2233,-0.56925 0.3279,-1.126125 0.3279,-1.708312 0,-1.785938 -1.0749,-3.507188 -2.8586,-4.258125 z" fill="#249edc"/></svg>