<svg xmlns="http://www.w3.org/2000/svg" viewBox="0 0 640 640">
  <rect width="640" height="640" fill="#5214dc" rx="128"/>
  <path fill="#fff" d="M444.91 97.82a56 56 0 0 0-22.3 6.35c-22.98 12.74-37.25 27.78-47.81 50.26c-5.14 11.17-6.28 27.64-5.14 38.38a50 50 0 0 0 4.57 16.04c-18.84 1.72-38.11 1.72-56.8 1.72c-23.13 0-43.68-1.3-60.95-3.58a48 48 0 0 0 4.85-8.88c6.57-15.04 5.71-32.5-2.43-50.7c-8.42-18.9-22.83-33.65-42.81-43.67c-8-4.01-19.99-8.16-31.4-4.44c-17.13 5.44-24.27 24.92-25.12 41.38c-0.72 13.75 1.57 25.2 7.27 35.8c8.57 15.76 25.27 29.79 44.82 37.52c4.14 1.58 8.57 3.01 13.13 4.3c-20.98 23.63-43.24 51.7-57.66 84.49c-24.4 55.56-18.98 115.28 14.13 155.95a131 131 0 0 0 17.7 17.9c8.7 13.89 12.27 25.92 15.27 35.65c4.71 15.33 9.14 29.93 31.12 29.93h22.97c1.72 0 3.43-0.14 5-0.71a16.45 16.45 0 0 0 11.56-17.33l-0.85-8.74c23.12 3.87 48.24 3.3 72.5-1.14l-0.86 9.88a16.45 16.45 0 0 0 11.57 17.33c1.57 0.57 3.28 0.71 5 0.71h22.97c22.12 0 26.55-14.46 31.11-29.93c3-9.73 6.57-21.62 15.13-35.37a3.05 3.05 0 0 0-0.42-3.72l-9-8.16c-1-1-2.57-1-3.7-0.15l-4.86 3.87c-36.68 27.64-98.34 39.24-146.72 27.64c-15.85-3.73-55.67-16.04-82.21-48.69c-29.12-35.66-33.55-88.64-11.71-138.19c14.7-33.5 38.97-62.58 60.52-86.5l0.57-0.57c24.4 4.3 51.8 5.44 73.5 5.44c22.13 0 44.82 0 67.23-2.72c5.57 6.88 12.13 12.9 17.84 18.33c25.83 24.2 43.96 48.7 55.66 74.76c9.14 20.62 13.13 38.09 12.85 56.7c-0.29 16.76-4 31.22-14.85 57.57c-5.85 14.18-5.13 28.21 1.72 37.52c4 5.44 11.84 11.6 26.54 11.46a44 44 0 0 0 8.28 6.3c9 5.58 19.56 9.02 28.26 9.3c1.71 0 3-1.28 3-3l-1-11.46a2.8 2.8 0 0 0-2.57-2.72c-4.28-0.43-10.42-2-16.41-5.3a34 34 0 0 0 5.85-6.16c4.57-6.15 6.42-13.17 5.14-19.62a21.6 21.6 0 0 0-17.7-17.18c-8.85-1.43-17.13 2.44-21.84 10.31a26 26 0 0 0-3.14 18.76l-0.85-0.86c-3.14-4.3-3-12.46 0.43-20.76c11.7-28.64 15.84-44.68 16.12-63.87c0.29-21.34-4-40.96-14.27-64.01c-12.56-28.21-32.11-54.42-59.52-80.34c-3.14-3-6.42-6.01-9.42-9.02q7.07-1.5 14.13-3.44c17.99-5.15 30.83-12.46 40.68-23.2c12.99-14.17 19.98-34.65 19.13-56.27c-0.58-16.47-7.85-36.95-26.4-40.67c-2.3-0.47-4.8-0.6-7.4-0.48m1.54 17.09c0.86 0 1.57 0 2.28 0.14c8.14 1.58 12.28 13.75 12.56 24.35c0.57 16.9-4.85 33.22-14.7 43.96c-7.56 8.3-17.98 14.03-32.68 18.18c-7 2.3-14.42 3.87-21.7 5.16c-3-4.87-5-10.02-5.7-15.75c-1-8.45 0.14-21.77 3.56-29.21c9-19.2 20.7-31.5 40.54-42.54c4.56-2.57 11.27-4.3 15.84-4.3m-252.77 0.14c4.14 0 9.13 1.43 14.41 4.01c16.42 8.3 28.12 20.2 34.97 35.52c4.28 9.45 8.14 23.62 2.43 36.8c-1.86 4.44-4.85 8.45-8.14 12.46c-7.42-1.72-14.13-3.58-19.7-5.88c-15.7-6.15-29.54-17.6-36.1-29.78c-4.29-7.88-5.86-15.9-5.28-26.64c0.57-11.02 5-23.34 13.13-25.92a13 13 0 0 1 4.28-0.57m130.47 184.13a84 84 0 0 0-7.01 0.03c-21.7 0.86-42.4 9.6-57.1 23.91c-19.4 19.05-27.11 48.12-19.26 72.47c8.99 28.06 37.96 49.83 70.22 52.98q3.86 0.43 7.7 0.43c20.42 0 41.4-7.88 57.24-21.62c15.99-13.9 25.26-32.51 26.12-52.27c1.57-36.09-27.83-63.87-57.66-72.6a82 82 0 0 0-20.25-3.33m-6.44 17.21h2.71c6.57 0 12.99 0.86 18.98 2.72c30.97 9.17 46.25 34.66 45.4 55.42c-0.72 15.04-7.86 29.22-20.13 39.96c-14.42 12.46-33.83 18.9-51.96 17.18c-25.69-2.58-48.52-19.47-55.66-41.24c-5.85-18.33 0.14-40.38 14.84-54.85c11.7-11.6 28.4-18.47 45.82-19.19m-21.13 36.38c-5 0-9.13 9.16-9.13 20.48c0 11.3 4.14 20.47 9.13 20.47s9.14-9.16 9.14-20.47c0-11.32-4.14-20.48-9.14-20.48m43.25 0c-5 0-9.13 9.16-9.13 20.48c0 11.3 4.14 20.47 9.13 20.47s9.14-9.16 9.14-20.47c0-11.32-4.14-20.48-9.14-20.48m153.58 95.66h0.85a4.4 4.4 0 0 1 3.71 3.58c0.43 1.86-0.28 4-2 6.15c-1.42 2-3.28 3.44-5.13 4.44c-2.29-4-3-8.3-0.86-12.03q1.29-2.14 3.43-2.14m-79.93 46.54c-1.57 4.44-2.86 8.59-4 12.17c-4.7 15.75-5.85 17.76-14.7 17.76h-19.27c-1.7 0-3-1.44-2.85-3.15l1.14-11.46a186 186 0 0 0 39.68-15.32m-186.83 0.57a183 183 0 0 0 39.68 16.04l1 10.3a2.86 2.86 0 0 1-2.86 3.16h-19.4c-8.86 0-10-2-14.71-17.76c-1-3.43-2.28-7.45-3.71-11.74"/>
</svg>