<?xml version="1.0" encoding="UTF-8" standalone="no"?> <svg xmlns="http://www.w3.org/2000/svg" version="1.1" viewBox="0 0 300 300"><path d="M139.785,97.723c0.315-1.074,0.537-2.192,0.537-3.368c0-6.668-5.424-12.097-12.097-12.097h-18.44
				c6.929-7.713,11.182-17.874,11.182-29.032V51.62c8.477-3.319,14.516-11.531,14.516-21.174c0-8.685-4.824-16.495-12.595-20.376
				C109.718,3.479,94.969,0,80.245,0h-5.652C59.869,0,45.121,3.479,31.95,10.069c-7.771,3.881-12.595,11.69-12.595,20.376
				c0,9.639,6.039,17.85,14.516,21.174v1.606c0,11.158,4.253,21.319,11.182,29.032h-18.44c-6.673,0-12.097,5.429-12.097,12.097
				c0,1.185,0.223,2.308,0.542,3.392C5.569,105.977,0,117.948,0,130.645v48.387c0,16.011,13.021,29.032,29.032,29.032V300h96.774
				v-91.935c16.011,0,29.032-13.021,29.032-29.032v-48.387C154.839,117.91,149.289,105.948,139.785,97.723z M128.226,91.935
				c1.33,0,2.419,1.084,2.419,2.42c0,1.335-1.089,2.419-2.419,2.419h-15.063l-1.611-4.839H128.226z M33.873,30.281v10.248
				c-2.929-2.405-4.841-6.01-4.841-10.084c0-4.998,2.773-9.489,7.244-11.719c11.835-5.923,25.089-9.048,38.318-9.048h5.652
				c13.229,0,26.482,3.126,38.318,9.048c4.471,2.231,7.244,6.721,7.244,11.719c0,4.074-1.911,7.679-4.839,10.084V30.281l-3.435-1.04
				c-0.682-0.208-16.935-5.047-40.113-5.047s-39.431,4.839-40.113,5.047L33.873,30.281z M43.548,37.621
				c5.739-1.345,18.194-3.75,33.871-3.75s28.132,2.405,33.871,3.75v4.292c-1.974,2.424-6.019,6.474-9.677,6.474
				c-2.632,0-4.64-0.716-7.418-1.708c-3.919-1.394-8.797-3.131-16.776-3.131s-12.856,1.737-16.776,3.131
				c-2.777,0.992-4.785,1.708-7.418,1.708c-3.658,0-7.713-4.055-9.677-6.474V37.621z M43.635,54.944c2.758,1.766,6,3.121,9.59,3.121
				c4.306,0,7.539-1.152,10.665-2.269c3.552-1.263,7.219-2.569,13.529-2.569s9.982,1.306,13.529,2.569
				c3.126,1.118,6.358,2.269,10.665,2.269c3.59,0,6.832-1.355,9.59-3.121c-0.905,17.874-15.687,32.153-33.784,32.153
				S44.54,72.818,43.635,54.944z M101.144,129.367l-19.011,21.726L95.71,96.774h7.253l2.41,7.229l-9.397,4.698L101.144,129.367z
				 M49.466,104.003l2.405-7.229h7.181l10.418,45.14l-15.653-13.045l5.047-20.173L49.466,104.003z M68.985,96.774h16.757
				l-8.71,34.848L68.985,96.774z M26.613,91.935h16.674l-1.611,4.839H26.613c-1.331,0-2.419-1.084-2.419-2.419
				C24.194,93.02,25.282,91.935,26.613,91.935z M9.677,169.355h19.355v9.677H9.677V169.355z M29.033,198.387
				c-7.133,0-13.307-3.919-16.665-9.677h16.665V198.387z M29.033,159.678H9.677v-29.032c0-9.823,4.283-19.094,11.594-25.491
				c1.621,0.803,3.416,1.297,5.342,1.297h11.835L37.63,108.9l9.958,4.979l-4.631,18.537l28.031,23.366l-3.102,12.402L67.77,188.71
				H38.71v-67.742h-9.677V159.678z M72.581,290.323H38.71v-9.677h33.871V290.323z M116.129,290.323H82.258v-9.677h33.871V290.323z
				 M116.129,270.968H82.258v-53.226h-9.677v53.226H38.71v-72.581h77.419V270.968z M125.806,198.387v-9.677h16.665
				C139.113,194.468,132.939,198.387,125.806,198.387z M145.161,179.032h-19.355v-9.677h19.355V179.032z M145.159,159.677h-19.353
				v-38.71h-9.677v67.742h-38.71v-17.535l34.34-39.247l-4.51-18.044l9.958-4.979l-0.818-2.453h11.835
				c1.931,0,3.735-0.498,5.356-1.306c7.311,6.397,11.579,15.653,11.579,25.5V159.677z"/><rect x="87.097" y="169.355" width="24.194" height="9.677"/><rect x="43.548" y="169.355" width="24.194" height="9.677"/><path d="M290.323,102.745v-10.81h-9.677v5.003l-9.677-5.806v-8.874h-9.677v3.068l-9.677-5.806V50.25
				c0-14.7-2.768-29.071-8.226-42.711C241.563,2.961,237.194,0,232.258,0c-4.936,0-9.305,2.961-11.129,7.534
				c-5.458,13.645-8.226,28.016-8.226,42.716v29.269l-9.677,5.806v-3.068h-9.677v8.874l-9.677,5.806v-5.003h-9.677v10.81
				l-9.677,5.806v28.602l48.387-14.516v20.105l-19.355,14.516v24.765l25.335-12.668h8.535v4.839h9.677v-4.839h8.535l25.335,12.668
				v-24.765l-19.355-14.516v-20.11L300,137.148v-28.602L290.323,102.745z M212.903,112.53l-38.709,11.612v-10.108l28.761-17.26
				h0.271V96.61l9.677-5.806V112.53z M212.903,161.526l-9.677,4.839v-4.268l9.677-7.258V161.526z M241.935,159.677h-4.839v-24.194
				h-9.677v24.194h-4.839V50.25c0-13.461,2.535-26.623,7.539-39.126c0.702-1.756,3.581-1.766,4.282,0.005
				c4.998,12.498,7.534,25.66,7.534,39.121V159.677z M251.613,154.839l9.677,7.258v4.268l-9.677-4.839V154.839z M251.613,90.803
				l9.677,5.806v0.165h0.271l28.761,17.255v10.113l-38.709-11.613V90.803z"/><rect x="164.516" y="285.484" width="9.677" height="9.677"/><rect x="164.516" y="150" width="9.677" height="125.806"/><rect x="193.548" y="193.548" width="9.677" height="77.419"/><rect x="227.419" y="246.774" width="9.677" height="9.677"/><rect x="227.419" y="193.548" width="9.677" height="43.548"/><rect x="290.323" y="150" width="9.677" height="116.129"/><rect x="290.323" y="275.806" width="9.677" height="14.516"/><rect x="261.29" y="203.226" width="9.677" height="62.903"/></svg>