<svg xmlns="http://www.w3.org/2000/svg" viewBox="0 0 512 512"><path d="M32 28A32 32 0 0 0 0 60v32a32 32 0 0 0 32 32h448a32 32 0 0 0 32-32V60a32 32 0 0 0-32-32zm56 16a32 32 0 0 1 32 32 32 32 0 0 1-32 32 32 32 0 0 1-32-32 32 32 0 0 1 32-32zm336 0a32 32 0 0 1 32 32 32 32 0 0 1-32 32 32 32 0 0 1-32-32 32 32 0 0 1 32-32zM32 140a32 32 0 0 0-32 32 32 32 0 0 0 0 2v280a32 32 0 0 0 32 30h448a32 32 0 0 0 31.9-30h.1V174h-.1a32 32 0 0 0 .1-2 32 32 0 0 0-32-32zm16 24h416a24 24 0 0 1 24 24v248a24 24 0 0 1-24 24H48a24 24 0 0 1-24-24V188a24 24 0 0 1 24-24zm336 16a8 8 0 0 0-8 8v38a8 8 0 0 0 8 8h80a8 8 0 0 0 8-8v-38a8 8 0 0 0-8-8zM48 250a8 8 0 0 0-8 8v38a8 8 0 0 0 8 8h80a8 8 0 0 0 8-8v-38a8 8 0 0 0-8-8zm112 0a8 8 0 0 0-8 8v38a8 8 0 0 0 8 8h80a8 8 0 0 0 8-8v-38a8 8 0 0 0-8-8zm112 0a8 8 0 0 0-8 8v38a8 8 0 0 0 8 8h80a8 8 0 0 0 8-8v-38a8 8 0 0 0-8-8zm112 0a8 8 0 0 0-8 8v38a8 8 0 0 0 8 8h80a8 8 0 0 0 8-8v-38a8 8 0 0 0-8-8zM48 320a8 8 0 0 0-8 8v38a8 8 0 0 0 8 8h80a8 8 0 0 0 8-8v-38a8 8 0 0 0-8-8zm112 0a8 8 0 0 0-8 8v38a8 8 0 0 0 8 8h80a8 8 0 0 0 8-8v-38a8 8 0 0 0-8-8zm112 0a8 8 0 0 0-8 8v38a8 8 0 0 0 8 8h80a8 8 0 0 0 8-8v-38a8 8 0 0 0-8-8zm112 0a8 8 0 0 0-8 8v38a8 8 0 0 0 8 8h80a8 8 0 0 0 8-8v-38a8 8 0 0 0-8-8zM48 390a8 8 0 0 0-8 8v38a8 8 0 0 0 8 8h80a8 8 0 0 0 8-8v-38a8 8 0 0 0-8-8zm112 0a8 8 0 0 0-8 8v38a8 8 0 0 0 8 8h80a8 8 0 0 0 8-8v-38a8 8 0 0 0-8-8z"/></svg>