<svg viewBox="0 0 32 32" xmlns="http://www.w3.org/2000/svg">
<path d="M18 2A14.041 14.041 0 0 0 4 16l17.737 3.737z" fill="#ed6c47"/>
<path d="M18 2a14.041 14.041 0 0 1 14 14l-7 4.758L18 16z" fill="#ff8f6b"/>
<path d="M18 30a14.041 14.041 0 0 0 14-14H4a14.041 14.041 0 0 0 14 14z" fill="#d35230"/>
<path d="M7.306 7a13.9 13.9 0 0 0 .93 19h5.43A3.337 3.337 0 0 0 17 22.667V9.333A2.337 2.337 0 0 0 14.667 7z" opacity=".1"/>
<path d="M6.546 8a13.9 13.9 0 0 0 1.69 18h5.43A2.337 2.337 0 0 0 16 23.667V9.333A1.337 1.337 0 0 0 14.667 8z" opacity=".2"/>
<path d="M6.54 8a13.9 13.9 0 0 0 .766 17h6.361A2.337 2.337 0 0 0 16 22.667V9.333A1.337 1.337 0 0 0 14.666 8z" opacity=".2"/>
<path d="M6.54 8a13.9 13.9 0 0 0 .766 17h6.361A2.337 2.337 0 0 0 16 22.667V9.333A1.337 1.337 0 0 0 14.666 8z" opacity=".2"/>
<path d="M6.54 8a13.9 13.9 0 0 0 .766 17h6.361A1.337 1.337 0 0 0 15 23.667V9.333A1.337 1.337 0 0 0 13.666 8z" opacity=".4"/>
<path d="M1.333 8h12.334A1.333 1.333 0 0 1 15 9.333v13.334A1.333 1.333 0 0 1 13.667 24H1.333A1.333 1.333 0 0 1 0 22.667V9.333A1.333 1.333 0 0 1 1.333 8z" fill="#c43e1c"/>
<path d="M7.5 11a3.75 3.25 0 0 1 3.75 3.25 3.75 3.25 0 0 1-3.75 3.25h-1.5v3.5h-2v-10zm-1.5 1.625v3.25h1.25a1.875 1.625 0 0 0 1.875-1.625a1.875 1.625 0 0 0-1.875-1.625z" fill="#fff"/>
<path d="M0 0h32v32H0z" fill="none"/>
</svg>