<svg xmlns="http://www.w3.org/2000/svg" viewBox="0 0 146.3 123"><path d="M38.5 73.5a5.2 5.2 0 0 1-5.2-5.2V54.5c0-2.9 2.3-5.2 5.2-5.2 2.9 0 5.2 2.3 5.2 5.2v13.8c0 2.9-2.4 5.2-5.2 5.2zm20.6-.5V49.2c0-2.9-2.3-5.2-5.2-5.2a5.2 5.2 0 0 0-5.2 5.2V73c0 2.9 2.3 5.2 5.2 5.2 2.9 0 5.2-2.3 5.2-5.2zm15.4 5.3V44.2c0-2.9-2.3-5.2-5.2-5.2a5.2 5.2 0 0 0-5.2 5.2v34.1c0 2.9 2.3 5.2 5.2 5.2 2.9 0 5.2-2.3 5.2-5.2zm15.4 4.9V38.7c0-2.9-2.3-5.2-5.2-5.2a5.2 5.2 0 0 0-5.2 5.2v44.4c0 2.9 2.3 5.2 5.2 5.2a5 5 0 0 0 5.2-5.1z"/><path d="M112.8 27 43.2 6.7c-.5-.2-1-.2-1.6-.2a5.5 5.5 0 0 0-5.5 5.5v32.9h4.2V12c0-.9.7-1.4 1.4-1.4l.4.1L111.6 31c.6.2 1 .7 1 1.3v43.8c0 .9-.7 1.4-1.4 1.4l-.4-.1-15.9-4.6v4.3l14.7 4.3c.5.2 1 .2 1.6.2 2.9 0 5.5-2.4 5.5-5.5V32.3c0-2.4-1.6-4.6-3.9-5.3zM15.2 88.7c-1.7-1.5-4.3-2.3-7.8-2.3-2.9 0-5.2.2-6.9.5v27.5h3.6v-11.2c.8.2 1.8.2 2.9.2 3.5 0 6.6-1 8.5-3.1a8 8 0 0 0 2.1-5.9 7 7 0 0 0-2.4-5.7zm-8.1 11.9c-1.2 0-2.2-.1-3-.3V89.5a13 13 0 0 1 3.4-.3c4 0 6.6 1.8 6.6 5.5 0 3.8-2.7 5.9-7 5.9zM29.8 94c-5.5 0-9.9 3.9-9.9 10.6 0 6.3 4.2 10.3 9.6 10.3 4.8 0 10-3.2 10-10.6-.1-6.2-4-10.3-9.7-10.3zm-.2 18.1c-3.6 0-6.1-3.3-6.1-7.7 0-3.8 1.9-7.8 6.2-7.8s6 4.3 6 7.7c0 4.6-2.6 7.8-6.1 7.8zm15.6-17.7 2.6 10.2 1.5 6.4h.1l1.8-6.3 3.3-10.2h3.1l3.1 10a176 176 0 0 1 1.8 6.5h.1c.3-2 .9-4.1 1.5-6.5l2.9-10h3.6l-6.4 20h-3.3l-3.1-9.5c-.7-2.2-1.3-4.2-1.8-6.6h-.1c-.5 2.4-1.1 4.5-1.8 6.6l-3.2 9.5h-3.3l-6-20 3.6-.1zm44.7 9c0-3.7-1.7-9.4-8.3-9.4-5.8 0-9.4 4.8-9.4 10.8s3.7 10.1 9.8 10.1c3.2 0 5.4-.7 6.7-1.2l-.6-2.6c-1.4.6-2.9 1-5.5 1-3.6 0-6.8-2-6.9-6.9h14a9 9 0 0 0 .2-1.8zm-14.1-.9c.3-2.5 1.9-5.9 5.6-5.9 4.1 0 5.1 3.6 5 5.9H75.8zm18.6-1.9c0-2.4 0-4.4-.2-6.2h3.2l.1 3.9h.2c.9-2.7 3.1-4.4 5.5-4.4l1 .1v3.4l-1.2-.1c-2.6 0-4.4 1.9-4.9 4.7l-.2 1.7v10.7h-3.6l.1-13.8zm34.2-1.1c2.9-1.2 4.7-3.5 4.7-6.2a6 6 0 0 0-2.3-4.9c-1.7-1.4-4-2-7.6-2-2.5 0-5 .2-6.6.6v27.4c1.2.2 3.1.3 5.6.3 4.5 0 7.7-.8 9.6-2.6a7.7 7.7 0 0 0 2.4-5.6c0-4.2-3.1-6.3-5.8-7zm-8.2-10.1a19 19 0 0 1 3.2-.2c3.6 0 6.1 1.3 6.1 4.5 0 2.7-2.2 4.7-6 4.7h-3.3v-9zm3 22.4c-1.3 0-2.3 0-3-.2V101h3c3.9 0 7.2 1.6 7.2 5.4 0 4.1-3.5 5.4-7.2 5.4z"/><rect width="3.6" height="27.8" x="139.2" y="86.6"/></svg>