<svg xmlns="http://www.w3.org/2000/svg" xml:space="preserve" viewBox="0 0 512 512"><path fill="#04202e" d="M503.8 234.2H8.2a8.2 8.2 0 0 0-8.2 8.2V286c0 2.7 1.4 5.2 3.6 6.8l163.7 110c5.1 3.8 9.7 13 9.7 19.3v81.7c0 4.5 3.7 8.2 8.2 8.2h141.6c4.5 0 8.2-3.7 8.2-8.2v-81.7c0-6.3 4.6-15.5 9.7-19.3l163.7-110a8.5 8.5 0 0 0 3.6-6.8v-43.6c0-4.5-3.7-8.2-8.2-8.2zm-8.2 43.6H158a8.2 8.2 0 1 0 0 16.4h319l-141.6 95.1-.3.2c-9.4 7-16.5 21-16.5 32.6v73.6H193.4V422a44.3 44.3 0 0 0-16.8-32.8L35 294.2h90.3a8.2 8.2 0 1 0 0-16.4h-109v-27.2h479.3v27.2z"/><path fill="#04202e" d="M296.5 397.6h-81a8.2 8.2 0 1 0 0 16.4h81a8.2 8.2 0 1 0 0-16.4z"/><path fill="#00aeef" d="M100.7 214a63.5 63.5 0 0 0 82.3-37 63.4 63.4 0 0 0-37.2-82.3c-3.3-1.3-7 .4-8.2 3.7l-18 47.8-48-18.2c-3.3-1.2-7 .4-8.2 3.7a63.4 63.4 0 0 0 37.2 82.3zm-27.1-71.6 47.4 18a6.4 6.4 0 0 0 8.2-3.8l17.9-47.4a50.7 50.7 0 0 1 24 63.2 50.8 50.8 0 0 1-66 29.8 50.7 50.7 0 0 1-31.5-59.8z"/><path fill="#00aeef" d="M106.1 133.8c2.6 0 5-1.5 6-4.1l20.4-53.8a6.4 6.4 0 0 0-3.8-8.2A63.4 63.4 0 0 0 46.5 105c-1.3 3.3.4 7 3.7 8.2l53.8 20.3a5 5 0 0 0 2.1.4zM61 103.6a51.1 51.1 0 0 1 57-25.8l-15.6 41.4z"/><path fill="#04202e" d="m299.8 65.7-20.6-32.3-17-27a12.7 12.7 0 0 0-8-5.6c-3.5-.8-6.9-.1-9.7 1.7l-64.7 41.1a12.8 12.8 0 0 0-4 17.6l17.2 27 20.5 32.4 17.1 27a12.7 12.7 0 0 0 17.7 3.8l64.6-41a13 13 0 0 0 4-17.7zm-48.5-52.4L265 34.8l-5.7 3.7a6.4 6.4 0 0 0 6.8 10.8l5.7-3.7 13.7 21.6-64.6 41-13.7-21.5 41.6-26.4c3-2 3.8-5.9 2-8.9a6.4 6.4 0 0 0-8.8-2L200.3 76l-13.6-21.5Zm-9.9 127.3L227.8 119l64.6-41 13.7 21.5z"/><path fill="#e3294a" d="M204.3 64.7c1.1 0 2.3-.3 3.4-1l10.8-6.8c3-2 3.8-5.9 2-8.9-2-3-5.9-3.8-8.9-2L201 53a6.2 6.2 0 0 0-2 8.7c1.2 2 3.3 3 5.4 3zm27.9 13.7-10.8 6.9a6.4 6.4 0 0 0 6.8 10.8l10.8-6.9c3-1.9 3.8-5.8 2-8.8a6.3 6.3 0 0 0-8.8-2zm29.3 34.3a6.4 6.4 0 0 0-8.8-2l-10.7 6.9a6.4 6.4 0 0 0 6.8 10.8l10.7-6.9c3-1.9 4-5.8 2-8.8z"/><path fill="#82c55b" d="M35.2 66.6c.5 0 1 0 1.6-.2A6.4 6.4 0 0 0 41 63l25.6-51A6.4 6.4 0 0 0 55 6.2L32.7 51l-13.1-9a6.4 6.4 0 0 0-7.1 10.6l19.1 12.8c1.1.7 2.3 1 3.6 1z"/><path fill="#ffc425" d="M363.2 5.5c-13 0-21.5 9.4-21.5 22.3 0 13 10.6 22.1 22.5 22.2 11.8 0 20.9-10.6 20.9-22.4a22.6 22.6 0 0 0-22-22.1zm.4 31.8a9.6 9.6 0 1 1 0-19.2 9.6 9.6 0 0 1 0 19.2z"/><path fill="#e3294a" d="M483.6 87.4c3.4.8 6.8-1.3 7.6-4.7a6.4 6.4 0 0 0-4.7-7.7c-.6-.1-9-2-20 .8a44.5 44.5 0 0 0-17.3-9.6 6.4 6.4 0 0 0-3 12.4c.2 0 3.1 1 6.8 3.1a52 52 0 0 0-7.9 6.1 6.4 6.4 0 0 0-.3 9 6.3 6.3 0 0 0 9 .4c3-2.8 6.2-4.9 9.2-6.4 2 2.7 3.9 5.9 5.3 9.8a6.4 6.4 0 0 0 8.2 3.8c3.3-1.3 5-5 3.8-8.2A56 56 0 0 0 476 87c4.3-.3 7.2.2 7.6.3z"/><path fill="#82c55b" d="m333.1 179.5 30.7 8.7c.6.2 1.2.2 1.8.2 2.7 0 5.3-1.8 6-4.6l8.8-30.7c1-3.4-1-7-4.4-7.9l-30.7-8.7c-3.4-1-7 1-7.9 4.4l-8.7 30.7c-.5 1.6-.3 3.3.6 4.8a6.4 6.4 0 0 0 3.8 3zm14.9-29 18.4 5.2-5.2 18.4-18.4-5.2zm46.8-18a6.5 6.5 0 0 0-3 3.9l-14 49.1c-.4 1.6-.2 3.4.7 4.8a6.6 6.6 0 0 0 3.8 3l30.7 8.8c.6.2 1.2.2 1.8.2 2.7 0 5.3-1.8 6-4.6l14-49.1c1-3.5-1-7-4.4-8l-30.7-8.6a6.5 6.5 0 0 0-4.9.5zm26 18.7-10.5 36.9-18.4-5.3 10.5-36.8zm43.1 65c2.8 0 5.3-1.8 6-4.6l19.2-67.5a6 6 0 0 0-.6-4.9 6.6 6.6 0 0 0-3.8-3l-30.7-8.7c-3.4-1-7 1-7.9 4.4L427 199.4a6 6 0 0 0 .6 4.9 6.6 6.6 0 0 0 3.8 3l30.7 8.7c.6.2 1.2.2 1.8.2zM441 196.8l15.7-55.3 18.4 5.2-15.7 55.3z"/></svg>