<svg xmlns="http://www.w3.org/2000/svg" viewBox="0 0 300 120"><path fill="#00407a" d="M14 10v100h100V10zm22.91 10a18.99 18.99 0 0 1 18.98 19.1c.06 4.22-2.01 8.56-3.05 10.05l7.84 7.96H50.12L32.9 39.17h10.17l2.72 2.79c.4-.91.65-1.95.65-3.5 0-5.5-4.66-9.72-9.97-9.72-5.31 0-9.59 4.53-9.59 9.85a9.75 9.75 0 0 0 9.78 9.71c.58 0 1.12 0 1.75-.2.09-.02 7.11 7.55 7.06 7.59-2 1.42-5.83 2.13-8.81 2.13-10.5 0-18.66-8.92-18.66-19.1A18.81 18.81 0 0 1 36.91 20zm20.78 0h9.33v26.06c0 .58 0 2.98 4.96 2.98 4.78 0 4.74-2.43 4.74-2.92V22.13l9.2 9.63v15.35c0 1.85-1.91 10.5-13.91 10.5s-14.3-8.67-14.3-10.56zm19.76 0H110v9.28h-7.67v27.78h-9.57V29.27H86.4zm54.92 0c-2.24 0-8.14.97-8.14 8.92s5.9 8.91 8.14 8.91c1 0 2.74-.19 4.34-1.13l2 1.9 1.87-1.9-1.84-1.75c1.04-1.32 1.77-3.25 1.77-6.03 0-7.95-5.9-8.92-8.14-8.92zm0 3c1.92 0 4.6 1.18 4.6 5.92 0 1.57-.3 2.75-.77 3.63l-1.8-1.68-1.81 1.91 1.7 1.6c-.6.3-1.25.46-1.91.45-1.92 0-4.6-1.17-4.6-5.91 0-4.75 2.68-5.93 4.6-5.93zm78.98-2.55v16.93h3.3V20.45zm42.15 0v6.01h-.05a4.02 4.02 0 0 0-3.63-1.96c-2.76 0-5.21 2.13-5.21 6.47 0 3.44 1.55 6.75 5.28 6.75 1.37 0 2.83-.5 3.63-1.92h.05v1.58h3.23V20.45zm-90.98 4.05c-5.5 0-6.01 4.84-6.01 6.35 0 5.16 2.7 6.86 6.25 6.86 2.14 0 4.64-.99 5.52-4h-3.4c-.26.9-1.2 1.36-2.12 1.36-2.67 0-2.86-2.12-2.95-3.06h8.6v-.6c0-5.73-3.41-6.9-5.89-6.9zm13.12 0c-5.5 0-6.02 4.84-6.02 6.35 0 5.16 2.71 6.86 6.25 6.86 2.15 0 4.65-.99 5.52-4H178c-.25.9-1.2 1.36-2.12 1.36-2.67 0-2.85-2.12-2.95-3.06h8.61v-.6c0-5.73-3.42-6.9-5.9-6.9zm27.2 0c-3.92 0-5.08 2.36-5.08 4.2 0 4.7 7.79 3.12 7.79 5.22 0 .47-.4 1.3-2.1 1.3-2.08 0-2.74-.78-2.74-1.85h-3.4c.1 3.35 3.19 4.34 6.04 4.34 1.96 0 5.5-.66 5.5-4.31 0-4.63-7.85-3.19-7.85-5.17 0-.54.23-1.23 2.02-1.23 1.8 0 2.08.85 2.22 1.66h3.23c-.26-3.54-3.18-4.16-5.64-4.16zm20.14 0c-2.57 0-5.24.55-5.61 4.4h3.18c.1-.74.37-1.75 2.03-1.75.85 0 2.17.07 2.17 1.46 0 .7-.64.92-1.16.99l-2.97.45c-2.1.3-3.66 1.55-3.66 4 0 2.6 1.94 3.66 3.83 3.66a5.1 5.1 0 0 0 4.05-1.81c.08.7.12.9.31 1.48h3.56v-.5c-.4-.13-.73-.47-.73-1.95v-6.8c0-3.08-3.23-3.63-5-3.63zm-32.27 0a4.05 4.05 0 0 0-3.78 2.18h-.04v-1.84h-3.16v12.54h3.3V30.2c0-1.91 1.14-2.9 2.6-2.9 2.1 0 2.15 1.56 2.15 2.48v7.61h3.3V28.7c0-2.75-1.91-4.2-4.37-4.2zm47.2 0a4.04 4.04 0 0 0-3.77 2.18h-.05v-1.84h-3.16v12.54h3.3V30.2c0-1.91 1.13-2.9 2.59-2.9 2.1 0 2.15 1.56 2.15 2.48v7.61h3.3V28.7c0-2.75-1.91-4.2-4.36-4.2zm-94.8.33v8.26c0 3.2 1.79 4.62 4.26 4.62 1.75 0 3.07-.75 3.83-2.1h.05v1.77h3.16V24.83h-3.3v7.25c0 2.24-1.47 2.85-2.55 2.85-1.02 0-2.15-.38-2.15-2.31v-7.79zm19.36 2.39c1.06 0 2.36.61 2.55 2.64h-5.12c.2-1.65 1.02-2.64 2.57-2.64zm13.12 0c1.06 0 2.35.61 2.54 2.64h-5.11c.18-1.65 1.01-2.64 2.57-2.64zm75.22.14c2.27 0 2.84 2.03 2.84 4.03 0 1.87-.83 3.61-2.93 3.61-2.12 0-2.71-2.31-2.71-3.8 0-1.98.7-3.84 2.8-3.84zm-26.06 3.91v1.61c0 1.53-1.49 2.48-2.95 2.48-.64 0-1.53-.36-1.53-1.51 0-1.37 1.01-1.68 2.24-1.9 1.37-.2 1.91-.42 2.24-.68zm-68.48 12.6v3.07h3.3v-3.07zm54.73 0v3.07h3.3v-3.07zm-86.1.17v11.22c.04 1.7.4 3.07 1.32 4.1 1.5 1.68 3.82 2.06 5.38 2.06 4.26 0 6.95-1.91 6.95-6.37V44.04h-3.6v11.15c0 2.06-1 3.23-3.42 3.23-1.66 0-3.02-1.03-3.02-3.4V44.05zm92.96.99v3.4h-1.7v2.35h1.7v7.62c0 1.63.52 2.71 3.37 2.71h.43c.51 0 1.04-.02 1.55-.04v-2.5c-.23.02-.47.05-.68.05-1.34 0-1.37-.29-1.37-1.02v-6.82h2.05v-2.36h-2.05v-3.4zm-37 3.06c-5.49 0-6 4.84-6 6.35 0 5.16 2.7 6.86 6.25 6.86 2.15 0 4.64-.99 5.52-4v-.01h-3.4c-.26.9-1.2 1.37-2.12 1.37-2.67 0-2.86-2.12-2.95-3.07h8.6V55c0-5.73-3.41-6.9-5.89-6.9zm21.62 0c-3.92 0-5.07 2.36-5.07 4.2 0 4.7 7.78 3.11 7.78 5.21 0 .48-.4 1.3-2.1 1.3-2.07 0-2.73-.78-2.73-1.84h-3.4c.1 3.35 3.18 4.34 6.04 4.34 1.96 0 5.5-.66 5.5-4.32 0-4.62-7.86-3.18-7.86-5.16 0-.55.24-1.23 2.03-1.23 1.79 0 2.07.85 2.22 1.65h3.23c-.26-3.53-3.18-4.15-5.64-4.15zm-53.73 0a4.04 4.04 0 0 0-3.78 2.17h-.05v-1.84h-3.16v12.55h3.3v-7.2c0-1.9 1.13-2.9 2.6-2.9 2.1 0 2.14 1.56 2.14 2.48v7.62h3.3V52.3c0-2.76-1.9-4.2-4.36-4.2zm46.84 0c-2 0-2.76 1.23-3.45 2.5h-.04v-2.17h-3.15v12.55h3.3v-6.53c0-1.4.47-3 3.04-3 .3 0 .66 0 .94.05v-3.35c-.2-.02-.43-.05-.64-.05zm28.43.33 4.62 13.07c-.3 1.72-.97 1.89-2.17 1.89-.28 0-.5-.02-.63-.05v2.64c.46.02 1.03.05 1.48.05 2.88 0 3.3-.61 4.86-5.26l4.31-12.34H233l-2.57 9.25h-.04l-2.69-9.25zm-67.75 0v12.55h3.3V48.42zm5.23 0 4.51 12.55h3.47L174 48.42h-3.52l-2.67 9.25h-.05l-2.59-9.25zm49.5 0v12.55h3.3V48.42zm-30.18 2.39c1.06 0 2.36.6 2.55 2.64h-5.12c.2-1.65 1.01-2.64 2.57-2.64zm-37.48 16.6c-2.26 0-3.68 1-3.68 3.59v1.01h-1.82v2.36h1.82v10.2h3.3v-10.2h2.15v-2.36h-2.15v-.49c0-1.04.03-1.4 1.16-1.4h.92v-2.66c-.28-.02-.73-.04-1.7-.04zm9.01.22v3h5.12v13.94H161V70.63h5.12v-3zm41.85 0v16.93h3.3v-7.2c0-1.9 1.13-2.9 2.6-2.9 2.1 0 2.14 1.56 2.14 2.49v7.61h3.3v-8.68c0-2.75-1.9-4.2-4.36-4.2-1.8 0-3.2.92-3.63 1.96h-.05v-6.01zm43.33 0v16.93h3.3V67.63zm-51.16 4.05c-4.25 0-6.02 2.9-6.02 6.96 0 2.64 1.08 6.25 5.8 6.25 4.6 0 5.62-3.6 5.74-4.9h-3.35c0 .59-.57 2.2-2.25 2.2-2.5 0-2.54-2.72-2.54-4.09 0-1.56.54-3.63 2.62-3.63 1.53-.1 2.05 1.2 2.19 2.03h3.35c-.3-3.92-3.56-4.82-5.54-4.82zm76.66 0c-2.76 0-5.21 2.12-5.21 6.46 0 4.4 2.38 6.5 5.4 6.5 1.98 0 2.8-.93 3.35-1.9l.05.05v1.51c0 2.03-.85 2.88-2.62 2.88-1.91 0-2.17-.64-2.31-1.27h-3.59c.14 2.67 2.88 3.77 5.47 3.77 6.19 0 6.35-3.6 6.35-5.78V72.01h-3.16v1.87h-.05a3.78 3.78 0 0 0-3.68-2.2zm-132.61 0c-3.38 0-6.42 2.08-6.42 6.6 0 4.54 3.04 6.62 6.42 6.62 3.37 0 6.41-2.08 6.41-6.61s-3.04-6.6-6.41-6.6zm42.57 0c-5.5 0-6.01 4.84-6.01 6.35 0 5.17 2.71 6.86 6.25 6.86 2.14 0 4.65-.99 5.52-4h-3.4c-.26.9-1.2 1.36-2.12 1.36-2.67 0-2.85-2.12-2.95-3.06h8.61v-.6c0-5.73-3.42-6.9-5.9-6.9zm42.6 0a4.05 4.05 0 0 0-3.77 2.18h-.05V72h-3.16v12.55h3.3v-7.2c0-1.9 1.13-2.9 2.6-2.9 2.1 0 2.14 1.56 2.14 2.49v7.61h3.3v-8.68c0-2.75-1.9-4.2-4.36-4.2zm13.12 0c-3.38 0-6.42 2.08-6.42 6.6 0 4.54 3.04 6.62 6.42 6.62 3.37 0 6.42-2.08 6.42-6.61s-3.05-6.6-6.42-6.6zm20.97 0c-3.37 0-6.42 2.08-6.42 6.6 0 4.54 3.05 6.62 6.42 6.62s6.41-2.08 6.41-6.61-3.04-6.6-6.41-6.6zm21.84.33 4.62 13.07c-.3 1.73-.97 1.9-2.17 1.9-.28 0-.49-.03-.63-.06v2.65c.47.02 1.04.04 1.48.04 2.88 0 3.3-.61 4.86-5.26L284 72.02h-3.5l-2.57 9.24h-.03l-2.7-9.24zm-98.57 2.39c1.06 0 2.36.61 2.54 2.64h-5.11c.18-1.65 1.01-2.64 2.57-2.64zm-42.53.07c2.54 0 3.01 2.22 3.01 3.82 0 1.6-.47 3.82-3.01 3.82-2.55 0-3.02-2.21-3.02-3.82 0-1.6.47-3.82 3.02-3.82zm98.3 0c2.53 0 3 2.22 3 3.82 0 1.6-.47 3.82-3 3.82-2.56 0-3.03-2.21-3.03-3.82 0-1.6.47-3.82 3.02-3.82zm20.96 0c2.55 0 3.02 2.22 3.02 3.82 0 1.6-.47 3.82-3.02 3.82s-3.02-2.21-3.02-3.82c0-1.6.47-3.82 3.02-3.82zm14.13.07c1.84 0 2.83 1.65 2.83 3.68 0 1.72-.57 3.63-2.8 3.63-1.97 0-2.63-1.88-2.62-3.49 0-2.92 1.36-3.82 2.59-3.82z"/></svg>