<svg xmlns="http://www.w3.org/2000/svg" viewBox="0 0 300 120">
  <path fill="#ba122b" d="M84.81 88.09c-17.86 18.7-44.33 21.3-59.14 5.78-14.8-15.51-12.34-43.25 5.52-61.96 17.86-18.7 44.33-21.3 59.14-5.78 14.8 15.51 12.34 43.25-5.52 61.96z"/>
  <path fill="#335882" d="M86.46 87.3c-15.93 18.47-39.58 21.01-52.8 5.66C20.41 77.61 22.6 50.2 38.53 31.71c15.93-18.48 39.58-21.02 52.8-5.67 13.24 15.35 11.05 42.77-4.88 61.25z"/>
  <path fill="#ffcb15" d="M67 89.75c-.63-1.98-.37-4.14-.8-6.16-.36-1.68-.7-3.4-1.48-4.93-.77-1.54-2.03-2.78-3.1-4.13-1.3-1.67-3.02-3.05-4.03-4.9-1.09-2-1.79-4.24-2.08-6.49-.29-2.24.6-4.53.36-6.78-.17-1.57-.66-3.1-1.25-4.56-.44-1.1-1.55-1.93-1.68-3.1-.04-.33 0-.77.27-.97.31-.22.8-.07 1.15.1 1.13.5 1.87 1.62 2.7 2.54 1.28 1.44 2.68 2.86 3.5 4.6.58 1.23.56 2.66.92 3.97.57 2.02.93 4.16 1.94 6 1.19 2.15 3.2 3.74 4.72 5.67 1.27 1.63 2.8 3.12 3.7 4.98.58 1.2.79 2.57 1.03 3.89.3 1.66.22 3.37.52 5.02.3 1.6.54 3.25 1.23 4.73a16.88 16.88 0 0 0 2.84 3.96c.9 1.01 2.14 1.7 3.03 2.73a40.48 40.48 0 0 1 2.97 4.45L76.94 104s-1.02-2.43-1.78-3.5c-1.5-2.1-3.86-3.46-5.38-5.54-1.16-1.6-2.52-3.26-2.78-5.21zm29.29 8.27c-.9-1.47-1.9-2.9-3.12-4.11-1.22-1.2-2.88-1.9-4.13-3.07a21.17 21.17 0 0 1-3.73-4.49c-.81-1.37-1.23-2.94-1.75-4.45-.72-2.05-.9-4.31-1.91-6.24a20.25 20.25 0 0 0-3.6-4.54c-1.6-1.63-3.68-2.71-5.24-4.36a17.3 17.3 0 0 1-3.14-4.24c-.89-1.84-.9-4-1.57-5.93-.7-1.99-1.3-4.1-2.55-5.8-1.14-1.56-2.95-2.52-4.38-3.83-1.44-1.31-3.08-2.46-4.22-4.04A17.49 17.49 0 0 1 54 36.86c-.4-1.64.13-3.39-.13-5.06-.22-1.42-.6-2.85-1.2-4.16-.58-1.3-2.03-2.2-2.33-3.59-.06-.28-.07-.66.14-.86.23-.23.64-.22.95-.14 1.36.34 2.34 1.56 3.39 2.49 1.52 1.34 3.08 2.72 4.17 4.43 1.36 2.15 1.54 4.89 2.8 7.1a18.9 18.9 0 0 0 3.02 3.82c1.38 1.38 3.22 2.24 4.62 3.6 1.48 1.42 3 2.9 3.95 4.72.93 1.8.96 3.95 1.57 5.88.63 1.98.97 4.12 2.13 5.84 1.65 2.44 4.56 3.76 6.56 5.93a27.02 27.02 0 0 1 3.91 5.12c1.13 2.03 1.5 4.41 2.44 6.54.81 1.84 1.6 3.71 2.76 5.35a28.74 28.74 0 0 0 4.08 4.39c1.32 1.22 3.11 1.96 4.22 3.38.83 1.05 1.68 3.65 1.68 3.65l-5.26 5.2s-.7-1.69-1.18-2.47zM49.02 96.6s-.42-2.79-.46-4.2c-.06-2.09.36-4.17.33-6.27-.02-1.56.09-3.19-.39-4.69-.47-1.5-1.63-2.7-2.4-4.1-.77-1.41-1.64-2.8-2.2-4.3-.53-1.42-.94-2.9-1.07-4.4-.16-1.98.16-3.97.43-5.93.2-1.6.82-3.12.93-4.72-.3-1.4-1.07-2.65-1.46-4.02-.18-.66-.48-1.33-.4-2 .02-.23.08-.5.28-.62.17-.1.4-.04.57.04.93.44 1.43 1.47 2.08 2.26.72.88 1.46 1.77 2.02 2.76a22.41 22.41 0 0 1 2.93 9.31c.15 1.55-.2 3.13.05 4.67.25 1.7.87 3.32 1.48 4.92a35.03 35.03 0 0 0 1.68 3.6c.9 1.74 2.31 3.23 2.91 5.08.64 1.95.64 4.07.66 6.12.02 2.2-.62 4.4-.57 6.6.02 1.22.47 3.62.47 3.62zm49.2-23.44c-1.18-1.46-2-2.1-2.62-4.59-.35-1.4-.86-2.98-1.78-4.08-1.12-1.35-2-3.07-3.4-4.1-1.62-1.19-3.76-1.68-5.29-2.96a17.95 17.95 0 0 1-3.27-3.66 15.2 15.2 0 0 1-1.85-3.98c-.5-1.54-.91-3.06-1.39-4.61a11.08 11.08 0 0 0-1.44-3.28c-.65-.9-1.8-1.36-2.48-2.25-.28-.36-.66-.75-.63-1.2.01-.15.12-.3.26-.35.89-.31 1.87.35 2.72.75a19 19 0 0 1 4.09 2.88 21.68 21.68 0 0 1 3.87 4.4c.8 1.18 1.14 2.9 2.48 4.56 1.05 1.3 2.95 1.86 4.3 2.83 1.4 1 2.27 1.02 3.39 2.33a22.92 22.92 0 0 1 3.23 4.61c.78 1.55 1.08 3.3 1.86 4.84.7 1.4 1.42 2.87 2.53 3.98 1.07 1.06 2.67 1.44 3.8 2.43.74.65 1.9 2.26 1.9 2.26l-3.19 5.7c-1.15-1.16-1.75-2.59-2.99-3.64-1.24-1.05-3.13-1.67-4.1-2.87z"/>
  <path fill="#335882" d="M124 22.2v42.24h8.31v-17.6c.49.04.93.16 1.34.36.73.37 1.54 1.22 2.43 2.55.93 1.34 2.44 3.93 4.55 7.77a362.6 362.6 0 0 0 3.94 6.92h10.02c-5.26-9.02-8.64-14.48-10.14-16.39a12.06 12.06 0 0 0-1.76-1.76c2.6-.04 4.8-1.19 6.62-3.46a12.62 12.62 0 0 0 2.79-8.19c0-3.72-1.13-6.71-3.4-8.98-2.27-2.26-5.26-3.4-8.98-3.4zm8.38 6.86h2.97c2.5 0 4.33.32 5.46.97 1.58.85 2.37 2.45 2.37 4.8 0 1.81-.53 3.21-1.58 4.18-1.05.97-3.2 1.46-6.43 1.46h-2.86l.06-11.41zm26.66-6.86v42.24h13.29c2.3 0 4.1-.04 5.4-.12 3.52-.2 6.29-1.48 8.31-3.83a11.55 11.55 0 0 0 2.73-7.82c0-5.39-2.79-8.92-8.37-10.62a9.97 9.97 0 0 0 3.88-2.19 9.51 9.51 0 0 0 2.85-7.1c0-3-1.15-5.5-3.46-7.52-2.3-2.03-5.76-3.04-10.37-3.04zm32.27.06L201.4 64.8h9.65l3.46-17.3c1.09-6.1 1.78-10.15 2.06-12.13l2 12.26 3.76 17.17h9.29l10.2-42.54h-8.93l-3.46 16.02a126.2 126.2 0 0 0-2.3 14.02c-.73-5.02-1.34-8.74-1.82-11.17l-3.89-18.87h-9.28l-3.76 17.05c-.93 4.17-1.66 8.66-2.19 13.48-.36-4-1.11-8.64-2.24-13.9l-3.65-16.63h-8.98zm55.5 0v42.18h8.44V45.63h12.13v18.8H276V22.27h-8.62v16.39h-12.13v-16.4h-8.44zm-79.4 7.16h4.92c1.57 0 2.75.18 3.52.55 1.61.77 2.42 2.18 2.42 4.25a5.8 5.8 0 0 1-.66 2.6 4.44 4.44 0 0 1-1.58 1.83c-.6.32-1.8.48-3.58.48h-5.04zm.12 16.7h5.28c1.46 0 2.55.11 3.28.35a4.2 4.2 0 0 1 2.18 1.95c.61.93.91 2 .91 3.21 0 2.23-.72 3.87-2.18 4.92-.89.65-2.2.97-3.94.97h-5.53V46.11zm24.98 23.9s.3.3 0 0zm14.03.98-2.54.59c.11.46.17 1.23.17 2.33v8.76c0 .98-.08 1.65-.24 2.02h2.22c.14-.32.23-.55.25-.69.53.58 1.24.87 2.11.87 1.23 0 2.2-.55 2.92-1.66.6-.96.9-2.1.9-3.42 0-1.48-.33-2.65-1-3.51a3.27 3.27 0 0 0-2.74-1.3c-.88 0-1.55.25-2.02.76.04-.15.06-.43.06-.83v-2.24c0-.58-.03-1.14-.1-1.68zm-41.57.02-2.53.57c.08.8.13 1.74.13 2.85v7.06c0 1.02.07 1.73.22 2.13.32.86 1.05 1.3 2.2 1.3.54 0 1.03-.1 1.48-.27l-.43-1.48a1 1 0 0 1-.27.04.57.57 0 0 1-.52-.28c-.1-.18-.15-.88-.15-2.09v-7.37c0-1.16-.04-1.98-.13-2.46zm108.22 0v3.25c0 .67.03 1.14.07 1.4a2.6 2.6 0 0 0-1.68-.53c-1.2 0-2.17.46-2.92 1.39a5.53 5.53 0 0 0-1.13 3.6c0 1.47.35 2.64 1.06 3.52.71.86 1.67 1.3 2.86 1.3a3.2 3.2 0 0 0 2.18-.8c.04.24.09.43.15.55H276c-.23-.52-.35-1.67-.35-3.46v-9.83zm-81.11.07c-.43 0-.8.16-1.11.46-.29.29-.45.67-.44 1.08a1.52 1.52 0 0 0 2.6 1.09c.3-.31.45-.67.45-1.1 0-.42-.15-.79-.45-1.08a1.4 1.4 0 0 0-1.05-.45zm-68.08.74V84.7h2.53v-5.36c.15.01.29.05.41.1.22.12.47.38.74.79.28.4.75 1.2 1.39 2.36l1.2 2.11h3.05a62.61 62.61 0 0 0-3.09-5 3.87 3.87 0 0 0-.54-.53 2.56 2.56 0 0 0 2.02-1.05c.57-.7.85-1.54.85-2.5a3.7 3.7 0 0 0-1.03-2.73 3.7 3.7 0 0 0-2.74-1.04zm49.85 0V84.7h4.05c.7 0 1.25-.01 1.65-.04a3.45 3.45 0 0 0 2.53-1.16 3.5 3.5 0 0 0 .83-2.39c0-1.64-.85-2.71-2.55-3.23.5-.16.89-.38 1.19-.67a2.9 2.9 0 0 0 .87-2.16c0-.91-.36-1.68-1.06-2.3-.7-.61-1.76-.92-3.16-.92zm-47.3 2.1h.9c.77 0 1.33.09 1.67.29.48.26.72.74.72 1.46 0 .55-.16.98-.48 1.27-.32.3-.97.45-1.96.45h-.87l.02-3.48zm49.86.1h1.5c.47 0 .83.06 1.07.17.49.23.74.66.74 1.3 0 .25-.07.52-.2.79-.14.26-.3.44-.49.55-.18.1-.55.15-1.09.15h-1.53zm22.25.94c-1.1 0-1.98.29-2.66.85a2.8 2.8 0 0 0-1 2.24c0 .7.18 1.27.54 1.7.4.5.98.83 1.74.96l1.1.2c.98.18 1.46.57 1.46 1.17 0 .3-.13.6-.37.78-.23.2-.53.3-.88.3a6.2 6.2 0 0 1-3.15-1.08l-.88 1.82a8.37 8.37 0 0 0 3.82 1.09c1.21 0 2.19-.3 2.93-.91a2.9 2.9 0 0 0 1.12-2.38c0-.63-.17-1.17-.51-1.61a3.33 3.33 0 0 0-1.89-1.08l-1.15-.3c-.79-.2-1.18-.52-1.18-.95 0-.62.4-.93 1.2-.93.66 0 1.43.23 2.33.69l.82-1.67a7.74 7.74 0 0 0-3.39-.88zm26.84.02-2.2.63c.22.63.33 1.37.33 2.22v6.86h2.48V78c.63-.56 1.2-.84 1.72-.84.37 0 .6.14.72.42.07.17.11.5.11.96v6.16h2.44v-6.92a4 4 0 0 0-.18-1.35c-.15-.4-.43-.73-.85-.98a2.67 2.67 0 0 0-1.43-.38 3.6 3.6 0 0 0-1.7.4l-1.09.7c0-.37-.12-.77-.35-1.18zm34.49 0-2.2.63c.22.63.33 1.37.33 2.22v6.86h2.48V78c.63-.56 1.2-.84 1.72-.84.37 0 .6.14.72.42.07.17.1.5.1.96v6.16h2.45v-6.92c0-.56-.06-1.01-.19-1.35-.15-.4-.43-.73-.85-.98a2.63 2.63 0 0 0-1.42-.38c-.63 0-1.2.13-1.7.4l-1.1.7c0-.37-.11-.77-.34-1.18zm-73.36.02-2.22.6c.23.61.35 1.53.35 2.77v6.32h2.48V78c.45-.52.96-.79 1.51-.79.25 0 .49.06.72.19l.69-2.18c-.3-.13-.6-.2-.93-.2-.33 0-.6.04-.8.14-.55.26-1.02.66-1.41 1.2a3.2 3.2 0 0 0-.4-1.35zm6.65 0-2.48.4v9.3h2.48zm-36.15.02a6.9 6.9 0 0 0-2.59.56c-.53.2-1.05.47-1.53.77l1.05 1.78a5.17 5.17 0 0 1 2.74-1.07c.44 0 .74.1.88.29.15.2.23.57.23 1.11v.39a7.82 7.82 0 0 0-.56-.02c-3.03 0-4.55 1.08-4.55 3.25 0 .95.28 1.69.84 2.2.56.5 1.37.76 2.42.76a3.2 3.2 0 0 0 1.9-.52c.12-.08.32-.25.57-.5.25.5.7.88 1.34 1.15l1.3-1.51a2.18 2.18 0 0 1-.73-.84c-.1-.24-.15-.61-.15-1.1v-.17l.06-3.18a5.39 5.39 0 0 0-.17-1.7c-.38-1.1-1.4-1.65-3.05-1.65zm61 0a6.9 6.9 0 0 0-2.6.56c-.53.2-1.05.47-1.53.77l1.05 1.78a5.17 5.17 0 0 1 2.74-1.07c.44 0 .74.1.89.29.14.2.22.57.22 1.11v.39a7.8 7.8 0 0 0-.56-.02c-3.03 0-4.55 1.08-4.55 3.25 0 .95.28 1.69.84 2.2.56.5 1.37.76 2.42.76a3.2 3.2 0 0 0 1.9-.52c.13-.08.32-.25.58-.5.24.5.69.88 1.33 1.15l1.31-1.51a2.18 2.18 0 0 1-.74-.84c-.1-.24-.15-.61-.15-1.1v-.17l.06-3.18a5.4 5.4 0 0 0-.17-1.7c-.38-1.1-1.4-1.65-3.05-1.65zm34.48 0a6.9 6.9 0 0 0-2.6.56c-.53.2-1.04.47-1.53.77l1.06 1.78a5.17 5.17 0 0 1 2.73-1.07c.45 0 .74.1.9.29.14.2.21.57.21 1.11v.39a7.8 7.8 0 0 0-.55-.02c-3.03 0-4.55 1.08-4.55 3.25 0 .95.28 1.69.83 2.2.57.5 1.38.76 2.42.76a3.2 3.2 0 0 0 1.9-.52c.13-.08.32-.25.58-.5.25.5.7.88 1.33 1.15l1.32-1.51a2.18 2.18 0 0 1-.74-.84c-.1-.24-.15-.61-.15-1.1v-.17l.05-3.18a5.4 5.4 0 0 0-.16-1.7c-.38-1.1-1.4-1.65-3.05-1.65zm-114.44.02c-1.28 0-2.31.46-3.09 1.37a5.3 5.3 0 0 0-1.16 3.58c0 1.5.38 2.68 1.16 3.57a3.9 3.9 0 0 0 3.09 1.33c1.3 0 2.35-.43 3.12-1.3a5.32 5.32 0 0 0 1.19-3.67c0-1.45-.37-2.6-1.1-3.46a4 4 0 0 0-3.21-1.42zm98.8 0c-1.22 0-2.22.43-3 1.3-.78.86-1.16 2.1-1.16 3.73 0 1.49.4 2.68 1.22 3.57a4.2 4.2 0 0 0 3.25 1.33c1.3 0 2.5-.44 3.57-1.32l-.96-1.47a3.7 3.7 0 0 1-2.4.94c-1.34 0-2-.77-2-2.3v-.07h5.47v-.57c0-1.9-.42-3.28-1.26-4.14-.65-.67-1.56-1-2.73-1zm-91.43.05-2.54.3 2.24 6.64a217.2 217.2 0 0 1 .68 2.12c.1.21.16.4.2.54h.64a6.7 6.7 0 0 1-.54 1.11c-.2.33-.44.6-.7.78-.3.22-.82.43-1.54.62l.85 1.63c.9-.1 1.67-.4 2.3-.87.63-.45 1.23-1.5 1.8-3.12l3.45-9.6h-2.6l-1.43 4.5c-.14.44-.26.88-.37 1.3l-.3 1.52c-.22-.95-.39-1.6-.5-1.96zM237 76.86c.5 0 .86.19 1.1.56.2.3.29.78.29 1.42v.11h-2.87v-.04c0-1.36.5-2.05 1.48-2.05zm-98.8.02c.46 0 .82.17 1.08.5.33.43.5 1.27.5 2.53 0 2.13-.52 3.2-1.54 3.2-.61 0-1.03-.25-1.26-.76-.2-.5-.3-1.3-.3-2.4 0-.9.08-1.6.25-2.1.22-.65.65-.97 1.27-.97zm69.87.17c.71 0 1.16.4 1.35 1.2.07.32.1.85.1 1.6 0 .78-.03 1.35-.1 1.7-.2.82-.65 1.23-1.37 1.23-.47 0-.93-.2-1.39-.61V77.8c.46-.5.93-.75 1.4-.75zm63.8.07c.45 0 .9.2 1.36.61v4.51c-.34.4-.74.61-1.22.61-.66 0-1.1-.2-1.35-.59-.25-.4-.37-1.1-.37-2.1 0-2.03.53-3.04 1.59-3.04zm-95.43 2h1.61c.45 0 .78.03 1 .1.27.1.5.3.67.6.18.28.27.6.27.98 0 .68-.22 1.18-.66 1.5-.27.2-.68.3-1.2.3h-1.69zm-18.68 1.44h.1l-.03 2.03c-.4.43-.82.65-1.3.65-.31 0-.58-.11-.79-.33-.2-.24-.3-.54-.3-.9 0-.56.17-.94.5-1.14.34-.2.94-.31 1.82-.31zm60.99 0h.11l-.04 2.03c-.4.43-.82.65-1.29.65-.32 0-.59-.11-.8-.33-.2-.24-.3-.54-.3-.9 0-.56.17-.94.5-1.14.34-.2.94-.31 1.82-.31zm34.49 0h.1l-.03 2.03c-.4.43-.83.65-1.3.65-.31 0-.58-.11-.79-.33-.2-.24-.3-.54-.3-.9 0-.56.17-.94.5-1.14.34-.2.94-.31 1.82-.31zm12.27 7.46-2.53.57c.09.8.13 1.74.13 2.85v7.06c0 1.02.07 1.73.22 2.13.32.86 1.05 1.3 2.2 1.3.54 0 1.04-.1 1.48-.27l-.43-1.48a1 1 0 0 1-.27.04.57.57 0 0 1-.52-.28c-.1-.18-.15-.88-.15-2.09v-7.37c0-1.16-.04-1.98-.13-2.46zm-20.66.07c-.44 0-.8.16-1.11.46-.3.29-.45.67-.45 1.08a1.52 1.52 0 0 0 2.61 1.09c.3-.31.44-.67.44-1.1 0-.42-.14-.79-.44-1.08a1.4 1.4 0 0 0-1.05-.45zm-61.48.52v2.6l1 2.61h.33l1-2.6V88.6zm-59.37.24 3.07 12.96h2.94l1.05-5.27c.34-1.86.55-3.1.63-3.7l.61 3.74 1.15 5.23h2.83l3.1-12.96h-2.71l-1.06 4.88c-.36 1.68-.6 3.1-.7 4.27-.22-1.53-.4-2.66-.56-3.4l-1.18-5.75h-2.83l-1.14 5.2a37.6 37.6 0 0 0-.67 4.1 35.96 35.96 0 0 0-.68-4.23l-1.11-5.07zm79.85 0v12.85h2.57v-5.73h3.7v5.73h2.63V88.85h-2.63v5h-3.7v-5zm47.13.52-2.5.63c-.07.46-.1 1.22-.1 2.25h-.95v1.61h.95v5.21c0 .66.05 1.14.16 1.46.15.42.45.76.91 1.02.47.25 1.02.37 1.65.37a5.3 5.3 0 0 0 2.01-.42l-.31-1.48a3.7 3.7 0 0 1-.9.18c-.41 0-.7-.1-.84-.3-.15-.2-.22-.61-.22-1.21v-4.83h1.59l.63-1.65h-2.22c0-.97.05-1.92.14-2.84zm-60.38 2.6c-1.1 0-1.98.29-2.66.85a2.8 2.8 0 0 0-1 2.24c0 .7.18 1.27.54 1.7.4.5.98.83 1.73.96l1.11.2c.98.18 1.46.57 1.46 1.17 0 .3-.13.6-.37.78-.23.2-.53.3-.88.3a6.2 6.2 0 0 1-3.15-1.08l-.88 1.82a8.38 8.38 0 0 0 3.82 1.09c1.21 0 2.18-.3 2.92-.91.76-.6 1.13-1.4 1.13-2.38a2.5 2.5 0 0 0-.52-1.61 3.33 3.33 0 0 0-1.88-1.08l-1.15-.3c-.79-.2-1.18-.52-1.18-.95 0-.62.4-.93 1.2-.93.65 0 1.43.23 2.33.69l.81-1.67a7.74 7.74 0 0 0-3.38-.88zm37.36 0c-1.1 0-1.99.29-2.66.85a2.8 2.8 0 0 0-1 2.24c0 .7.18 1.27.53 1.7.41.5.99.83 1.74.96l1.11.2c.97.18 1.46.57 1.46 1.17 0 .3-.13.6-.37.78-.23.2-.53.3-.89.3a6.2 6.2 0 0 1-3.14-1.08l-.89 1.82a8.38 8.38 0 0 0 3.83 1.09c1.2 0 2.18-.3 2.92-.91.75-.6 1.13-1.4 1.13-2.38a2.5 2.5 0 0 0-.52-1.61 3.33 3.33 0 0 0-1.88-1.08l-1.15-.3c-.79-.2-1.18-.52-1.18-.95 0-.62.4-.93 1.2-.93.65 0 1.43.23 2.33.69l.81-1.67a7.73 7.73 0 0 0-3.38-.88zm-51.93.02-2.2.63c.22.63.34 1.37.34 2.22v6.86h2.47V95c.63-.56 1.2-.84 1.72-.84.37 0 .61.14.72.42.08.17.11.5.11.96v6.16h2.44v-6.92c0-.56-.06-1.01-.18-1.35-.15-.4-.43-.73-.85-.98a2.63 2.63 0 0 0-1.42-.38c-.6-.01-1.18.13-1.7.4-.51.31-.87.55-1.1.7 0-.37-.11-.77-.35-1.18zm70.02.02-2.48.4v9.3h2.48zm11.62.02a6.9 6.9 0 0 0-2.58.56c-.54.2-1.05.47-1.54.77l1.05 1.78a5.17 5.17 0 0 1 2.74-1.07c.44 0 .74.1.89.29.15.2.22.57.22 1.11v.39a7.82 7.82 0 0 0-.55-.02c-3.04 0-4.55 1.08-4.55 3.25 0 .95.27 1.69.83 2.2.57.5 1.37.76 2.42.76a3.2 3.2 0 0 0 1.9-.52c.13-.08.32-.25.58-.5.25.5.69.88 1.33 1.15l1.31-1.51a2.18 2.18 0 0 1-.74-.84c-.1-.24-.14-.61-.14-1.1v-.17l.05-3.18a5.4 5.4 0 0 0-.17-1.7c-.38-1.1-1.4-1.65-3.05-1.65zm-113.28.02a3.9 3.9 0 0 0-3.1 1.37 5.3 5.3 0 0 0-1.16 3.58c0 1.5.4 2.68 1.17 3.57a3.9 3.9 0 0 0 3.09 1.33c1.3 0 2.34-.43 3.12-1.3a5.32 5.32 0 0 0 1.18-3.67c0-1.45-.36-2.6-1.09-3.46a4 4 0 0 0-3.21-1.42zm24 0c-1.21 0-2.21.43-2.99 1.3-.77.86-1.16 2.1-1.16 3.73 0 1.49.4 2.68 1.22 3.57a4.2 4.2 0 0 0 3.25 1.33c1.3 0 2.5-.44 3.57-1.32l-.96-1.47c-.75.63-1.55.94-2.4.94-1.34 0-2-.77-2-2.3v-.07h5.47v-.57c0-1.9-.42-3.28-1.26-4.14-.65-.67-1.56-1-2.73-1zm50.46 0c-1.28 0-2.3.46-3.09 1.37A5.3 5.3 0 0 0 214.6 97c0 1.5.39 2.68 1.16 3.57a3.9 3.9 0 0 0 3.1 1.33c1.3 0 2.34-.43 3.12-1.3a5.31 5.31 0 0 0 1.18-3.67c0-1.45-.36-2.6-1.1-3.46a4 4 0 0 0-3.2-1.42zm16.74 0-2.2.39c.1.6.15 1.4.15 2.38v10.95l2.38-.63v-2.96c0-.38 0-.64-.03-.78.56.34 1.22.5 1.98.5 1 0 1.84-.35 2.53-1.07.5-.52.83-1.08 1.02-1.68a8 8 0 0 0 .3-2.44c0-1.94-.6-3.3-1.77-4.09a3.27 3.27 0 0 0-1.86-.57c-1.07 0-1.85.3-2.33.89-.02-.3-.08-.6-.17-.9zm-83.26.02-2.24.6c.24.43.35 1.23.35 2.43v6.6h2.42v-6.9a2.47 2.47 0 0 1 1.63-.72c.4 0 .65.16.76.47.06.16.1.49.1 1v6.15h2.34v-6.8c.6-.53 1.14-.8 1.65-.8.37 0 .6.14.7.43.05.13.07.44.07.92v6.25h2.4v-6.73c0-1.08-.2-1.82-.6-2.22a2.7 2.7 0 0 0-1.96-.68 3.7 3.7 0 0 0-2.68 1.24 2.57 2.57 0 0 0-2.3-1.24 3.2 3.2 0 0 0-2.3.96c-.1-.42-.2-.74-.34-.96zm16.1 1.8c.5 0 .86.18 1.1.55.2.3.3.78.3 1.42v.11h-2.87v-.04c0-1.36.49-2.05 1.48-2.05zm-24 .01c.45 0 .8.17 1.06.5.34.43.5 1.27.5 2.53 0 2.13-.5 3.2-1.53 3.2-.62 0-1.04-.25-1.26-.76-.2-.5-.31-1.3-.31-2.4 0-.9.08-1.6.26-2.1.22-.65.64-.97 1.27-.97zm74.46 0c.45 0 .81.17 1.07.5.33.43.5 1.27.5 2.53 0 2.13-.51 3.2-1.53 3.2-.62 0-1.04-.25-1.26-.76-.21-.5-.32-1.3-.32-2.4 0-.9.09-1.6.26-2.1.22-.65.65-.97 1.28-.97zm18.7.19c.64 0 1.06.35 1.27 1.05.1.36.15.97.15 1.83a5 5 0 0 1-.39 2.31c-.26.46-.7.68-1.3.68-.48 0-.93-.18-1.38-.55v-4.6c.46-.48 1-.72 1.65-.72zm20.71 3.49h.11l-.03 2.03c-.4.43-.83.65-1.3.65-.32 0-.58-.11-.8-.33a1.4 1.4 0 0 1-.29-.9c0-.56.17-.94.5-1.14.33-.2.94-.31 1.81-.31z"/>
</svg>