<svg xmlns="http://www.w3.org/2000/svg" viewBox="0 0 696 696">
  <circle fill="#fff" cx="348" cy="348" r="348"/>
  <path fill="#ee1b2c" d="M348 0A348 348 0 0 0 21.3 228h653.4A348 348 0 0 0 348 0zM21.3 468A348 348 0 0 0 348 696a348 348 0 0 0 326.7-228H21.3z"/>
  <path fill="#ee1b2c" d="M32.5 305V383h48.2l42.9-78.2zm98.4 0L88 383h41l42.7-78.2zm48.2 0L136.2 383h28.3l43-78.2zm35.7 0L172 383h18.8l43.1-78.2h-19Zm26.2 0L198.1 383h12.7l42.9-78.2zm20 0L218 383h9.5l43-78.2z"/>
  <path d="M362 292.2h-65.3l8.3 13-42.5 77.8h35l18.1-33.3c.4-1.3 2-2.3 3.5-2.3 1.8 0 3.2 1 3.6 2.8.1.8 0 1.3-.1 1.7l-14 26.2-.2.4c-.3.4-.4 1.2-.4 1.8 0 1.6 1.3 2.8 3 2.8h39.2l-7.6-11.8 13.2-24.5s.5-1 .5-2.2c0-2.8-1.7-5.1-4-6.1.6.2 2.5.9 3.6.9 2.6 0 5-1.5 6-3.9l13.7-25.4c.6-1.9.8-3.2.8-4a14.4 14.4 0 0 0-14.3-13.9zm63.9 13h-26l-6.7.1c-5 0-9.7 2.8-11.7 7l-29 53.5c-.4 1.2-.7 2.2-.7 3.7 0 8.2 6.9 13.6 15.1 13.6h33.7c5.8 0 8.5-2.2 10.7-5.7l12-22.1h-26.8l-4.8 8.4c-.5 1.2-2 2.7-3.3 2.7-2 0-3.3-1.6-3.3-3.5 0-.5.1-1 .3-1.3l6.4-11.8h34.7l12.4-22.6a14.6 14.6 0 0 0-13-22zm18.8 0 7.5 10.8-47.7 87.8H436l40.9-75.2 2.8-5.5a3.3 3.3 0 0 1 3.2-2.2 3.4 3.4 0 0 1 2.8 5.2l-31 57h14.4c7.1 0 12.9-2.8 16.8-8.2l1.1-1.5 26-47.7a17 17 0 0 0 1.7-6.6c0-7.7-6.1-13.8-13.8-13.8zm100.2 0-5.7.2c-6.8 0-11.2 4.1-14 10l-24.1 45.8a20 20 0 0 0-2 6.1c-.6 7.4 5.7 14.3 16.5 15.6h27c7.2 0 13-2.7 16.9-8l1-1.6 14-25.8h-26.7L537.1 367c-.9 1.2-2.2 1.6-3.7 1.6-3 0-5-2-5-4.4 0-.6 0-1.2.2-1.7l23.4-43.1c.7-1.2 2.6-2 4.1-2 3.2 0 4.5 2.6 4.6 4.7 0 .7-.1 1.2-.6 2.5l-8.3 15.3 27-.1 7.7-14.3a37 37 0 0 0 3.3-7.8c1.2-6-5.4-12.3-12-12.3zm6.9 34.6zm62.1-34.4a16 16 0 0 0-14.9 10l-24.2 44.4-.6 1.3c-.5 1.7-1 2.8-1 4.6 0 10.2 5 16 16 17.3h27.1c7.1 0 12.9-2.7 16.7-8l1-1.5 28.7-52.8c.2-.8.8-2.6.8-3.4.1-6.6-5.3-11.9-11.7-11.9zm-273.1 1.7a3.7 3.7 0 0 1 3.5 4.9l-9.5 17.4h-8.3l11-20.3c.7-1.3 1.8-2 3.3-2zm287.6 10.3c2.4 0 4 2 4 4.4.1.7 0 1.4-.5 2.1l-23.3 43c-.8 1-2 2-3.5 1.9-2.7-.2-4.5-2.4-4.4-4.5 0-.6 0-1.2.3-1.7l23.3-43.2c.8-1.2 2.6-2 4-2zm-218 1.8c1.8 0 3.3 1.5 3.3 3.4l-.2 1-5.2 9.5h-7.7l6.5-11.8a3.3 3.3 0 0 1 3.2-2.1z"/>
</svg>