<svg xmlns="http://www.w3.org/2000/svg" viewBox="0 0 512 512"><path d="M130.2 3c-23.5 0-42.5 19-42.5 42.6V60H73.2c-23.5 0-42.6 19-42.6 42.6v316.2a42.6 42.6 0 0 0 42.6 42.6h166.4a137.4 137.4 0 0 1-15.2-34H73.2a8.6 8.6 0 0 1-8.6-8.6V102.7c0-4.8 3.8-8.6 8.6-8.6h219.7c4.8 0 8.6 3.8 8.6 8.6v159.8c10.7-4.7 22.1-8 34-9.9v-150c0-23.4-19-42.5-42.6-42.5H121.6V45.6c0-4.8 3.9-8.6 8.6-8.6H350c4.7 0 8.6 3.8 8.6 8.6v205.3a135 135 0 0 1 34 4.9V45.6A42.7 42.7 0 0 0 350 3zm-5 145.8a17 17 0 0 0 0 34h88.4a17 17 0 1 0 0-34zm0 68a17 17 0 1 0 0 34h115.6a17 17 0 0 0 0-34zm334.1 34a22 22 0 0 0-18.7 10.4l-87.9 141-29.4-41.9a22 22 0 0 0-36.2 25.4l48.6 69.3a22.1 22.1 0 0 0 18.1 9.4h.6a22.1 22.1 0 0 0 18.2-10.4L478 284.5a22 22 0 0 0-7-30.4 22 22 0 0 0-11.7-3.3zm-102.4 17a121.2 121.2 0 0 0-121.1 121.1c0 66.8 54.3 121.1 121 121.1a121.2 121.2 0 0 0 109.3-173l-17.7 28.6A94.2 94.2 0 0 1 357 483.5a94.7 94.7 0 0 1 0-189.2 95 95 0 0 1 37.4 7.7l14-22.5c-15.6-7.4-33-11.7-51.4-11.7zm-231.6 17a17 17 0 1 0 0 34H238a138.8 138.8 0 0 1 18-24.1c-2.6-5.8-8.4-10-15.3-10zm0 68a17 17 0 1 0 0 34h93.6c.2-11.8 1.9-23.2 4.8-34z"/></svg>