<?xml version="1.0" encoding="UTF-8" standalone="no"?> <svg xmlns="http://www.w3.org/2000/svg" version="1.1" viewBox="0 0 80 80"><defs><style>.a{fill:none;stroke-width:2px;stroke-linejoin:round;stroke-linecap:round;stroke-miterlimit:10;stroke:#000}</style></defs><path class="a" d="M53.07,22.23H26.78a17.72,17.72,0,0,1,.45-5c.53-1.86,1.48-4.09,2.53-4.89a8,8,0,0,1,5-1.55s-.61-6.58,5.05-6.58c5,0,4.89,6.58,4.89,6.58a7.89,7.89,0,0,1,5,1.55c1.42,1.09,2.26,3.58,2.75,4.89A20.56,20.56,0,0,1,53.07,22.23Z"/><path class="a" d="M63.72,12.38v34l-.58.5L63,47l-2.35,2-1.87,1.6V17.27H52.38c-.49-1.31-1.33-3.8-2.75-4.89Z"/><path class="a" d="M38.12,71.66l.42.49H16.18V12.38H29.76c-1.05.8-2,3-2.53,4.89H20.67V67H40.34l-2.43,4.46Z"/><polygon class="a" points="63.72 57.01 63.72 72.15 45.9 72.15 45.48 71.66 46.68 71.66 52.15 66.96 58.8 66.96 58.8 61.24 63.72 57.01"/><path class="a" d="M58.8,17.27V50.64l-2.57,2.21-1.17,1-7.73,6.65-2,1.73-4.55,3.92h0l-.43.79H20.67V17.27h6.56a17.72,17.72,0,0,0-.45,5H53.07a20.56,20.56,0,0,0-.69-5Z"/><polygon class="a" points="58.8 61.24 58.8 66.96 52.15 66.96 52.88 66.33 56.23 63.45 57.46 62.39 58.8 61.24"/><polygon class="a" points="65.9 55.13 63.72 57.01 58.8 61.24 57.46 62.39 56.23 63.45 52.88 66.33 52.15 66.96 46.68 71.66 45.48 71.66 41.45 66.96 40.77 66.17 40.77 66.16 45.32 62.24 47.33 60.51 55.06 53.86 56.23 52.85 58.8 50.64 60.67 49.04 63.72 52.59 65.9 55.13"/><polygon class="a" points="40.77 66.16 40.77 66.17 40.76 66.16 40.77 66.16"/><polygon class="a" points="46.68 71.66 46.11 72.15 46 72.24 45.99 72.25 45.9 72.15 45.48 71.66 46.68 71.66"/><path class="a" d="M68.25,53.11l-2.35,2-2.18-2.54-3-3.55L63,47l.7.82Z"/><path class="a" d="M72.68,49.3l-2,1.68-2.48,2.13-4.53-5.27L63,47l.12-.1.58-.5L65.34,45a9.12,9.12,0,0,1,3.21-2.09c1.73-.39,2.88,1.52,3.76,2.76C73.73,47.7,73.15,48.89,72.68,49.3Z"/><polygon class="a" points="45.99 72.25 40.37 74.28 38.54 72.15 38.12 71.66 37.91 71.42 40.34 66.96 40.77 66.17 41.45 66.96 45.48 71.66 45.9 72.15 45.99 72.25"/><polyline class="a" points="37.91 71.42 37.78 71.66 35.38 76.08 40.37 74.28"/><line class="a" x1="46" y1="72.24" x2="45.99" y2="72.25"/><polygon class="a" points="40.37 74.28 35.38 76.08 37.51 72.15 37.78 71.66 37.91 71.42 38.12 71.66 38.54 72.15 40.37 74.28"/><line class="a" x1="38.14" y1="41.9" x2="53.02" y2="41.9"/><line class="a" x1="38.14" y1="53.32" x2="53.55" y2="53.32"/><line class="a" x1="38.14" y1="30.61" x2="53.02" y2="30.61"/><polyline class="a" points="26.41 32.25 27.96 34.4 33.55 29.72"/><polyline class="a" points="26.41 43.84 27.96 45.98 33.55 41.31"/><polyline class="a" points="26.41 55.43 27.96 57.57 33.55 52.9"/><line class="a" x1="38.11" y1="46.76" x2="48.4" y2="46.76"/><line class="a" x1="38.11" y1="58.18" x2="48.76" y2="58.18"/><line class="a" x1="38.11" y1="35.47" x2="48.4" y2="35.47"/></svg>