<?xml version="1.0" encoding="UTF-8" standalone="no"?>
<svg xmlns="http://www.w3.org/2000/svg" viewBox="0 0 45 45">
<path d="m25.5 0c-0.6 0-1.1 0.5-1.1 1.1c0 0.6 0.5 1.1 1.1 1.1c9.5 0 17.3 7.8 17.3 17.3c0 0.6 0.5 1.1 1.1 1.1c0.6 0 1.1-0.5 1.1-1.1c0-10.7-8.8-19.5-19.5-19.5zm-17.5 1.2c-1.5 0-3 0.5-4.1 1.6a13.4 13.4 0 0 0-3.8 8.7c-1 15.6 18.2 34.7 33.6 33.4c3.3-0.3 6.4-1.4 8.7-3.8c1-1.1 1.6-2.7 1.5-4.3c-0.1-1.6-0.7-3-1.9-4.2c-5.2-5-9.4-5.8-13.1-2.1l-2.6 2.6a44 44 0 0 1-14.2-14.2l2.6-2.6c3.7-3.7 3-8-2.2-13.2a6.3 6.3 0 0 0-4.5-1.9zm0.3 2.7c0.9 0 1.8 0.4 2.5 1.1c4.1 4.3 4.8 7 2.2 9.7l-3.2 3.3c-0.4 0.4-0.5 1-0.3 1.4a40.3 40.3 0 0 0 16.6 16.5c0.5 0.2 1 0.1 1.4-0.3c4.2-4.3 4.8-5 6.5-4.8c2.2 0.1 4 1.8 5.7 3.2c1.5 1.2 2.3 3.5 1 5c-2.2 2.8-6.2 3.6-9.6 3.3c-13.6-1-27.6-16.3-28.4-28.2c-0.2-3.3 0.4-6.6 3-9.2c0.7-0.7 1.6-1 2.5-1zm17.2 1.3c-0.6 0-1.1 0.5-1.1 1.1c0 0.6 0.5 1.1 1.1 1.1c6.6 0 12.1 5.5 12.1 12.1c0 0.6 0.5 1.1 1.1 1.1c0.6 0 1.1-0.5 1.1-1.1c0-7.9-6.4-14.3-14.3-14.3zm0 5.3c-0.6 0-1.1 0.5-1.1 1.1c0 0.6 0.5 1.1 1.1 1.1c3.7 0 6.8 3.1 6.8 6.8c0 0.6 0.5 1.1 1.1 1.1c0.6 0 1.1-0.5 1.1-1.1c0-5-4-9-9-9z"/>
</svg>
