<svg xmlns="http://www.w3.org/2000/svg" viewBox="0 0 96 96" fill="#FFF" stroke-miterlimit="10" stroke-width="2">
<g transform="translate(8,0)">
<path d="M60.9579,8h-42.688C17.5685,8,17,8.5685,17,9.2698v77.4603C17,87.4315,17.5685,88,18.2698,88h59.6825 c0.7013,0,1.2698-0.5685,1.2698-1.2698V26.2643c0-0.7858-0.3122-1.5395-0.8678-2.0951L63.053,8.8678 C62.4974,8.3122,61.7437,8,60.9579,8z"/>
<path fill="#979593" d="M79.1211,24.707L61.293,6.8789C60.7266,6.312,59.9736,6,59.1719,6H19c-1.6543,0-3,1.3457-3,3v78 c0,1.6543,1.3457,3,3,3h58c1.6543,0,3-1.3457,3-3V26.8281C80,26.0273,79.6875,25.2739,79.1211,24.707z M60,8.4141L77.5857,26H61 c-0.5518,0-1-0.4482-1-1V8.4141z M77,88H19c-0.5518,0-1-0.4482-1-1V9c0-0.5518,0.4482-1,1-1h39v17c0,1.6543,1.3457,3,3,3h17v59 C78,87.5518,77.5518,88,77,88z"/>
<path fill="#C8C6C4" d="M46,61H25c-0.5523,0-1-0.4477-1-1l0,0c0-0.5523,0.4477-1,1-1h21c0.5523,0,1,0.4477,1,1l0,0 C47,60.5523,46.5523,61,46,61z"/>
<path fill="#0078D7" d="M71,55H25c-0.5523,0-1-0.4477-1-1l0,0c0-0.5523,0.4477-1,1-1h46c0.5523,0,1,0.4477,1,1l0,0 C72,54.5523,71.5523,55,71,55z"/>
<path fill="#69AFE5" d="M71 49H44c-.5523 0-1-.4477-1-1l0 0c0-.5523.4477-1 1-1h27c.5523 0 1 .4477 1 1l0 0C72 48.5523 71.5523 49 71 49zM71 43H44c-.5523 0-1-.4477-1-1l0 0c0-.5523.4477-1 1-1h27c.5523 0 1 .4477 1 1l0 0C72 42.5523 71.5523 43 71 43z"/>
<path fill="#C8C6C4" d="M46 67H25c-.5523 0-1-.4477-1-1l0 0c0-.5523.4477-1 1-1h21c.5523 0 1 .4477 1 1l0 0C47 66.5523 46.5523 67 46 67zM46 73H25c-.5523 0-1-.4477-1-1l0 0c0-.5523.4477-1 1-1h21c.5523 0 1 .4477 1 1l0 0C47 72.5523 46.5523 73 46 73z"/>
<path fill="#0078D7" d="M40,49h-3.5024l-1.3923-3.6344h-6.3739L27.4154,49H24l6.2107-16h3.4045L40,49z M34.0721,42.6698 l-2.1971-5.9372l-2.1536,5.9372H34.0721z"/>
<path fill="#69AFE5" d="M70,73H53c-1.1046,0-2-0.8954-2-2V61c0-1.1046,0.8954-2,2-2h17c1.1046,0,2,0.8954,2,2v10 C72,72.1046,71.1046,73,70,73z"/>
</g>
</svg>