<?xml version="1.0" encoding="UTF-8"?>
<svg xmlns="http://www.w3.org/2000/svg" viewBox="0 0 24 24">
  <path d="m5 2a1 1 0 0 0-1 1v8.9a9 9 0 0 0 3.8 7.3l3.6 2.6c0.4 0.3 0.8 0.3 1.2 0l3.6-2.6a9 9 0 0 0 3.8-7.2v-9a1 1 0 0 0-1-1a1 1 0 0 0-0.6 0.2c-2 1.5-4 1.2-5.8 0a1 1 0 0 0-1.2 0c-1.8 1.2-3.8 1.5-5.8 0a1 1 0 0 0-0.6-0.2zm7 2.2c2 1 4 1.2 6 0.2v7.5a7 7 0 0 1-3 5.7l-3 2.2l-3-2.2a7 7 0 0 1-3-5.7v-7.5c2 1 4 0.8 6-0.2z"/>
  <path d="m11 11.4l-1-1c-1.1-1-2.7 0.5-1.6 1.6l1.8 1.8c0.4 0.5 1.1 0.5 1.6 0l3.8-3.8c1.1-1.1-0.5-2.7-1.6-1.6z"/>
</svg>