<svg viewBox="-4 -14 56 56" xmlns="http://www.w3.org/2000/svg">
  <rect x="-4" y="-14" rx="8" ry="8" width="56" height="56" fill="#1e1e1e"/>
  <g clip-path="url(#a)">
    <path fill-rule="evenodd" clip-rule="evenodd" d="M81.9882 9.24549C83.5998 9.24549 84.8645 9.74735 85.7863 10.7527C86.7089 11.7564 87.2011 13.1889 87.2678 15.0478C87.2818 15.2285 87.2892 15.4716 87.2913 15.7781L87.2919 15.9696C87.2919 16.3679 87.2847 16.6835 87.2678 16.9155C87.2011 18.7102 86.7025 20.121 85.7743 21.1504C84.8436 22.1799 83.5805 22.6946 81.9882 22.6946C80.3766 22.6946 79.1722 22.1461 78.3764 21.0509V26.5545C78.3764 26.7376 78.3178 26.8869 78.2014 27.0025C78.0857 27.1198 77.9364 27.1776 77.7533 27.1776H74.5406C74.3591 27.1776 74.2041 27.1198 74.0805 27.0025C73.9552 26.8869 73.8926 26.7376 73.8926 26.5545V10.1167C73.8926 9.93444 73.9552 9.78428 74.0805 9.66946C74.2041 9.55222 74.3591 9.49361 74.5406 9.49361H77.5044C77.6867 9.49361 77.8368 9.55222 77.9516 9.66946C78.0697 9.78428 78.1267 9.93444 78.1267 10.1167V11.0136C79.0244 9.83407 80.31 9.24549 81.9882 9.24549ZM33.9197 4.76222C35.3819 4.76222 36.6466 5.01516 37.7186 5.52184C38.789 6.02851 39.612 6.65885 40.1829 7.41365C40.7571 8.17006 41.059 8.91281 41.0935 9.64352C41.0935 9.79288 41.0421 9.92135 40.9434 10.0298C40.8438 10.1382 40.7201 10.192 40.5708 10.192H37.0826C36.7181 10.192 36.4354 10.0418 36.2371 9.74309C36.1375 9.3946 35.8782 9.09991 35.4646 8.85901C35.0495 8.61812 34.5348 8.49767 33.9197 8.49767C33.2227 8.49767 32.6839 8.62214 32.3009 8.87106C31.9195 9.12078 31.7292 9.48534 31.7292 9.96712C31.7292 10.4497 31.9765 10.8263 32.476 11.1009C32.9738 11.3747 33.9045 11.6534 35.2639 11.9352C36.8249 12.2179 38.0671 12.5704 38.9873 12.9935C39.9099 13.4167 40.5909 13.9651 41.0309 14.6372C41.4709 15.3101 41.6917 16.1605 41.6917 17.1899C41.6917 18.3197 41.3673 19.2993 40.7201 20.1288C40.0721 20.9599 39.176 21.595 38.0294 22.0343C36.8835 22.4743 35.5722 22.6943 34.0948 22.6943C32.4832 22.6943 31.1133 22.4615 29.9843 21.9973C28.8553 21.5324 27.9994 20.9181 27.4204 20.1537C26.8383 19.3909 26.5299 18.5598 26.4978 17.6637C26.4978 17.5143 26.5532 17.3899 26.66 17.2903C26.7676 17.1899 26.8969 17.1401 27.0454 17.1401H30.3593C30.5576 17.1401 30.7198 17.173 30.8435 17.2405C30.9696 17.3063 31.1053 17.4228 31.2546 17.589C31.4698 17.9873 31.8071 18.3157 32.2648 18.5718C32.7201 18.8312 33.3303 18.9581 34.0948 18.9581C34.9901 18.9581 35.6798 18.8216 36.1616 18.5477C36.6426 18.2739 36.8835 17.8965 36.8835 17.4147C36.8835 17.0654 36.7598 16.7796 36.5109 16.5556C36.2612 16.3307 35.8621 16.1316 35.3153 15.9581C34.7677 15.7831 33.9775 15.5888 32.9489 15.372C30.9383 14.9737 29.4367 14.3674 28.4418 13.5532C27.4445 12.7406 26.9459 11.5779 26.9459 10.0675C26.9459 9.03727 27.2333 8.12027 27.805 7.31489C28.3792 6.5103 29.1918 5.88318 30.2453 5.43511C31.302 4.98545 32.5257 4.76222 33.9197 4.76222ZM127.318 9.24549C128.746 9.24549 129.955 9.53135 130.941 10.1047C131.931 10.6772 132.669 11.4657 133.158 12.4702C133.647 13.4756 133.892 14.6166 133.892 15.8958V16.5173C133.892 16.7003 133.831 16.8537 133.706 16.979C133.582 17.1026 133.428 17.1653 133.245 17.1653H125.351V17.3146C125.367 18.0622 125.542 18.6644 125.875 19.1205C126.205 19.5774 126.679 19.8054 127.293 19.8054C127.692 19.8054 128.01 19.7268 128.252 19.5678C128.492 19.4112 128.722 19.2072 128.936 18.9575C129.086 18.7929 129.206 18.6893 129.297 18.6476C129.389 18.6058 129.535 18.5857 129.733 18.5857H132.997C133.146 18.5857 133.274 18.6307 133.383 18.7222C133.491 18.8138 133.543 18.9254 133.543 19.0579C133.543 19.4907 133.299 19.9958 132.81 20.5779C132.319 21.1585 131.605 21.6571 130.668 22.0715C129.729 22.4866 128.621 22.6946 127.344 22.6946C125.317 22.6946 123.723 22.1501 122.56 21.0637C121.398 19.9757 120.801 18.3946 120.768 16.3181V15.5457C120.833 13.5711 121.447 12.0262 122.61 10.9133C123.772 9.80195 125.341 9.24549 127.318 9.24549ZM148.437 4.7623C148.62 4.7623 148.774 4.82092 148.897 4.93655C149.021 5.05298 149.084 5.20153 149.084 5.3838V21.8232C149.084 22.0062 149.021 22.1556 148.897 22.2712C148.774 22.3877 148.62 22.4455 148.437 22.4455H145.472C145.306 22.4455 145.161 22.3836 145.036 22.2592C144.913 22.1347 144.849 21.9894 144.849 21.8232V21.0507C143.954 22.146 142.667 22.6944 140.991 22.6944C139.379 22.6944 138.113 22.1877 137.192 21.1752C136.27 20.1626 135.775 18.7181 135.711 16.8415L135.684 15.9695L135.711 15.0741C135.775 13.2634 136.274 11.8397 137.205 10.8023C138.132 9.76485 139.395 9.24533 140.991 9.24533C142.484 9.24533 143.688 9.72711 144.6 10.6891V5.3838C144.6 5.20153 144.663 5.05298 144.786 4.93655C144.913 4.82092 145.059 4.7623 145.225 4.7623H148.437ZM47.5448 9.49345C47.7271 9.49345 47.8821 9.55206 48.0049 9.6693C48.1286 9.78412 48.192 9.93428 48.192 10.1166V21.8232C48.192 22.0062 48.1286 22.1556 48.0049 22.2712C47.8821 22.3877 47.7271 22.4447 47.5448 22.4447H44.4317C44.2654 22.4447 44.1193 22.3836 43.9956 22.2592C43.8704 22.1347 43.8077 21.9894 43.8077 21.8232V10.1166C43.8077 9.93428 43.8704 9.78412 43.9956 9.6693C44.1193 9.55206 44.2654 9.49345 44.4317 9.49345H47.5448ZM66.5715 9.24533C67.9334 9.24533 69.0423 9.70543 69.8975 10.6281C70.751 11.5491 71.1782 12.923 71.1782 14.7489V21.8232C71.1782 21.9894 71.122 22.1347 71.0048 22.2592C70.8883 22.3836 70.739 22.4447 70.5567 22.4447H67.4941C67.3111 22.4447 67.1577 22.3877 67.0316 22.2712C66.908 22.1556 66.8453 22.0062 66.8453 21.8232V14.9232C66.8453 14.1604 66.6831 13.5999 66.3603 13.2426C66.0359 12.886 65.6007 12.707 65.0531 12.707C64.5384 12.707 64.1184 12.886 63.7948 13.2426C63.4704 13.5999 63.3082 14.1604 63.3082 14.9232V21.8232C63.3082 21.9894 63.2512 22.1347 63.134 22.2592C63.0183 22.3836 62.8682 22.4447 62.6859 22.4447H59.6234C59.4411 22.4447 59.2869 22.3877 59.1616 22.2712C59.0372 22.1556 58.9745 22.0062 58.9745 21.8232V14.9232C58.9745 14.1604 58.8083 13.5999 58.4783 13.2426C58.1459 12.886 57.7139 12.707 57.1831 12.707C56.6684 12.707 56.2444 12.886 55.912 13.2426C55.5804 13.5999 55.4141 14.1515 55.4141 14.8983V21.8232C55.4141 21.9894 55.3547 22.1347 55.2391 22.2592C55.1235 22.3836 54.9741 22.4447 54.791 22.4447H51.6538C51.4876 22.4447 51.3414 22.3836 51.2178 22.2592C51.0925 22.1347 51.0299 21.9894 51.0299 21.8232V10.1166C51.0299 9.93428 51.0925 9.78412 51.2178 9.6693C51.3414 9.55206 51.4876 9.49345 51.6538 9.49345H54.5421C54.7244 9.49345 54.8745 9.55206 54.9894 9.6693C55.1058 9.78412 55.1644 9.93428 55.1644 10.1166V10.9629C55.5635 10.4819 56.0782 10.0756 56.7085 9.74317C57.3389 9.41154 58.0551 9.24533 58.8509 9.24533C60.6769 9.24533 61.9303 9.95917 62.6104 11.3869C63.0103 10.7565 63.566 10.2418 64.2814 9.84354C64.9945 9.44446 65.7581 9.24533 66.5715 9.24533ZM93.4461 4.76206C93.6283 4.76206 93.7777 4.82068 93.8941 4.93631C94.009 5.05274 94.0684 5.20209 94.0684 5.38437V21.8229C94.0684 21.9891 94.009 22.1345 93.8941 22.2589C93.7777 22.3842 93.6283 22.4452 93.4461 22.4452H90.3321C90.1506 22.4452 89.9957 22.3882 89.8728 22.271C89.7468 22.1554 89.6841 22.006 89.6841 21.8229V5.38437C89.6841 5.20209 89.7468 5.05274 89.8728 4.93631C89.9957 4.82068 90.1506 4.76206 90.3321 4.76206H93.4461ZM100.643 9.49345C100.826 9.49345 100.98 9.55206 101.103 9.6693C101.227 9.78412 101.291 9.93428 101.291 10.1166V21.8232C101.291 22.0062 101.227 22.1556 101.103 22.2712C100.98 22.3877 100.826 22.4447 100.643 22.4447H97.5302C97.364 22.4447 97.2178 22.3836 97.0942 22.2592C96.9689 22.1347 96.9063 21.9894 96.9063 21.8232V10.1166C96.9063 9.93428 96.9689 9.78412 97.0942 9.6693C97.2178 9.55206 97.364 9.49345 97.5302 9.49345H100.643ZM117.806 4.01529C117.987 4.01529 118.136 4.0723 118.253 4.18954C118.369 4.30597 118.427 4.45532 118.427 4.6376V6.77994C118.427 6.94616 118.369 7.09069 118.253 7.21516C118.136 7.34042 117.987 7.40145 117.806 7.40145H111.404C110.871 7.40145 110.494 7.5227 110.269 7.76279C110.046 8.00368 109.935 8.37385 109.935 8.8717V9.49321H117.806C117.987 9.49321 118.136 9.55263 118.253 9.66906C118.369 9.78469 118.427 9.93484 118.427 10.1171V21.8229C118.427 21.9891 118.369 22.1345 118.253 22.2589C118.136 22.3842 117.987 22.4452 117.806 22.4452H114.764C114.583 22.4452 114.43 22.3882 114.305 22.271C114.181 22.1554 114.118 22.006 114.118 21.8229V12.8818H109.935V21.8229C109.935 21.9891 109.876 22.1345 109.761 22.2589C109.643 22.3842 109.492 22.4452 109.31 22.4452H106.272C106.089 22.4452 105.935 22.3882 105.812 22.271C105.686 22.1554 105.626 22.006 105.626 21.8229V12.8818H103.756C103.575 12.8818 103.42 12.824 103.297 12.7075C103.171 12.5903 103.11 12.4417 103.11 12.2587V10.1171C103.11 9.93484 103.171 9.78469 103.297 9.66906C103.42 9.55263 103.575 9.49321 103.756 9.49321H105.626V8.74644C105.626 7.08668 106.105 5.88302 107.068 5.13625C108.032 4.38787 109.409 4.01529 111.204 4.01529H117.806ZM142.434 12.7078C141.688 12.7078 141.15 12.927 140.828 13.367C140.504 13.807 140.318 14.4165 140.266 15.197L140.242 15.9695L140.266 16.7419C140.318 17.5224 140.504 18.1327 140.828 18.5719C141.15 19.0127 141.688 19.2336 142.434 19.2336C143.147 19.2336 143.68 19.0047 144.029 18.5478C144.378 18.0909 144.568 17.5144 144.6 16.8174C144.635 16.3517 144.651 16.0361 144.651 15.8699C144.651 15.6876 144.635 15.3809 144.6 14.9497C144.568 14.3017 144.374 13.7653 144.016 13.3421C143.658 12.9189 143.131 12.7078 142.434 12.7078ZM80.5429 12.7071C79.829 12.7071 79.2982 12.9352 78.9498 13.3921C78.6013 13.8482 78.411 14.4263 78.3764 15.1233C78.3624 15.3033 78.355 15.5519 78.3529 15.8704L78.3523 16.07C78.3523 16.4683 78.3596 16.7758 78.3764 16.991C78.411 17.639 78.6053 18.1738 78.9618 18.597C79.3191 19.0209 79.8459 19.2329 80.5429 19.2329C81.2912 19.2329 81.826 19.0129 82.1504 18.5721C82.474 18.1328 82.6611 17.5218 82.7093 16.7421C82.7262 16.5767 82.7358 16.3181 82.7358 15.9696C82.7358 15.6203 82.7262 15.3634 82.7093 15.1972C82.6611 14.4167 82.474 13.8064 82.1504 13.3672C81.826 12.9271 81.2912 12.7071 80.5429 12.7071ZM127.318 12.0599C126.686 12.0599 126.201 12.2799 125.862 12.7192C125.521 13.1592 125.351 13.7783 125.351 14.5748V14.6246H129.31V14.5748C129.31 13.7783 129.135 13.1592 128.787 12.7192C128.438 12.2799 127.949 12.0599 127.318 12.0599ZM47.5448 4.0894C47.7271 4.0894 47.8821 4.15204 48.0049 4.2765C48.1286 4.40096 48.192 4.55433 48.192 4.7366V7.0532C48.192 7.23708 48.1286 7.38964 48.0049 7.51411C47.8821 7.63857 47.7271 7.7012 47.5448 7.7012H44.4317C44.247 7.7012 44.0992 7.63857 43.9812 7.51411C43.8664 7.38964 43.8077 7.23708 43.8077 7.0532V4.7366C43.8077 4.55433 43.8704 4.40096 43.9956 4.2765C44.1193 4.15204 44.2654 4.0894 44.4317 4.0894H47.5448ZM100.643 4.0894C100.826 4.0894 100.98 4.15204 101.103 4.2765C101.227 4.40096 101.291 4.55433 101.291 4.7366V7.0532C101.291 7.23708 101.227 7.38964 101.103 7.51411C100.98 7.63857 100.826 7.7012 100.643 7.7012H97.5302C97.3455 7.7012 97.1977 7.63857 97.0797 7.51411C96.9649 7.38964 96.9063 7.23708 96.9063 7.0532V4.7366C96.9063 4.55433 96.9689 4.40096 97.0942 4.2765C97.2178 4.15204 97.364 4.0894 97.5302 4.0894H100.643Z" fill="#fff"></path>
    <path fill-rule="evenodd" clip-rule="evenodd" d="M21.5756 10.0257V19.1098L21.0079 19.6775L16.4655 24.2208L13.6269 27.0593C12.3719 28.3136 10.3387 28.3136 9.08449 27.0593C7.83024 25.8051 7.83024 23.7711 9.08449 22.5169L11.923 19.6775L16.4655 15.1359L17.0332 14.5682L21.5756 10.0257ZM20.4404 8.89009L15.8979 13.4325L15.3302 14.0002L10.7878 18.5427L10.2201 19.1104H1.13517L6.24532 14.0002L10.7878 9.45779L11.3555 8.89009H20.4404ZM7.94868 0.940689C9.20293 -0.313563 11.2369 -0.313563 12.4911 0.940689C13.7454 2.19494 13.7454 4.22888 12.4911 5.48313L4.54164 13.4326L0 17.9743V8.89017L0.567705 8.32166L5.10935 3.78002L7.94868 0.940689Z" fill="#FFAD00"></path>
  </g>
  <defs>
    <clipPath id="a">
      <rect width="51" height="28" fill="white"></rect>
    </clipPath>
  </defs>
</svg>