<svg xmlns="http://www.w3.org/2000/svg" viewBox="0 0 202 192">
  <path fill="#96d7fa" stroke="#fff" stroke-width="2.25" d="m136.46 77.84 38.04-12.36v-40l-32.36-23.5-38.04 12.35v40z"/>
  <path fill="#c9dfe5" stroke="#fff" stroke-width="2.25" d="m126.02 121.78 23.51 32.36 38.04-12.36 12.36-38.04-23.51-32.36-38.04 12.36z"/>
  <path fill="#bef6fd" stroke="#fff" stroke-width="2.25" d="M81 190.15h40l23.51-32.36L121 125.43H81L57.49 157.8z"/>
  <path fill="#d5effd" stroke="#fff" stroke-width="2.25" d="M75.98 121.78 63.62 83.73 25.58 71.37 2.07 103.73l12.36 38.04 38.04 12.36z"/>
  <path fill="#add0d8" stroke="#fff" stroke-width="2.25" d="M97.9 54.33v-40L59.86 1.97 27.5 25.48v40l38.04 12.36z"/>
  <path fill="#ececee" stroke="#fff" stroke-width="2.25" d="M81 120.15h40l12.36-38.04L101 58.61 68.64 82.1z"/>
</svg>