<svg xmlns="http://www.w3.org/2000/svg" viewBox="0 0 256 256">
  <path fill="#fff" d="M147.6 9.7a104.4 104.4 0 0 1-36.3.6c-3.5-.7-7-1.7-10.5-2.6.8 3.8 1.8 7.6 2.4 11.5 1 7.1 1.2 14.3.7 21.4-.2 3.4-.7 6.8-1.8 10l-1.6 5.7 7.7-1.1c-1.8 2.3-3 5-4 7.7a8 8 0 0 0-1.8 3.4l-2.1.1a14.3 14.3 0 0 0-15.5-6.8 14.3 14.3 0 0 0-20-4.5A14.3 14.3 0 0 0 43 57.4 14.3 14.3 0 0 0 23 68 14.3 14.3 0 0 0 8.7 86.1a14.3 14.3 0 0 0-4.9 22.5 14.3 14.3 0 0 0 4 22.4 14.3 14.3 0 0 0 17.4 18.8c.4 0 1-.7 1.2 0l5 9.8c-1.2 4.6.6 9.9 4.5 12.7l1.6 1.1 2.1 5.6a14 14 0 0 0-3.5 7.2 11.7 11.7 0 0 0 8.6 14.2c.7 0 0 .6-.1 1-2 4.4-2.8 9.4-1.7 14.2.8 3.6 3.1 6.9 6.5 8.5 2.9 2.9 6.8 4.3 10.5 5.6a142 142 0 0 0 25 5 380.1 380.1 0 0 0 95.4-1.4 92 92 0 0 0 19.8-5c1.7-.8 3.3-1.7 4.8-2.8 3.6-.7 6.3-3.7 7.5-7a21.4 21.4 0 0 0-.2-14.9l-1.5-3c2.8-.8 5.8-2.2 7.4-4.9 1.9-2.7 2.4-6.1 1.8-9.3-.3-2.5-1.4-4.8-3-6.7-.5-.4-.6-1-.2-1.5a248 248 0 0 1 1.8-4.9c4.3-2.2 7-7.2 6.4-12l-.2-1.8 5-10a14.3 14.3 0 0 0 19-17c0-.5-.5-1.1-.4-1.5a14.3 14.3 0 0 0 3.9-22.4 14.3 14.3 0 0 0-4.9-22.5A14.3 14.3 0 0 0 233 68a14.3 14.3 0 0 0-20-10.5 14.3 14.3 0 0 0-21.8-2.3 14.3 14.3 0 0 0-20 4.5 14.3 14.3 0 0 0-15.5 6.8h-2.1c-.3-1.4-1-2.7-1.9-3.7-.8-2.7-2.2-5.3-3.9-7.5l7.6.9c-.7-3-1.7-6-2.3-9a98.7 98.7 0 0 1-1.2-20c.2-4.4.8-8.7 2-12.8l1.8-6.7-8.1 2z"/>
  <path fill="#ffe116" stroke="#1a1a1a" stroke-width="2" d="m 111.38672,49.53125 c 11.07668,-1.01761 22.22215,-1.01761 33.29883,0 -4.71845,-4.289495 -9.5102,-8.432152 -11.59766,-13.4375 5.85392,1.927467 9.87335,6.615868 14.61133,10.40625 -0.4,-9.3 -1.2,-18.699609 0,-28.099609 -5,4.7 -9.19961,10.299609 -15.59961,13.099609 0.5,-6.3 7.59961,-10.8 12.59961,-16 -11.07668,1.017601 -22.22215,1.017601 -33.29883,0 5.5,5 11.10039,9.8 12.40039,16 -6.3,-1.8 -10.7,-7.700781 -15.5,-12.800781 0.8,9.4 1,18.90039 0,28.40039 4.91019,-4.222765 9.24069,-9.120714 15.17188,-11.189453 c -1.80357,5.106553 -7.73834,9.099587 -12.08594,13.621094 z"/>
  <circle cx="128" cy="32.7" r="7.4" fill="#ccc"/>
  <ellipse cx="127.5" cy="31.7" fill="#e6e6e6" rx="5.7" ry="5.6"/>
  <circle cx="126.5" cy="30.8" r="4.2" fill="#fff"/>
  <circle cx="128" cy="32.7" r="7.4" fill="none" stroke="#1a1a1a" stroke-width="2"/>
  <circle cx="128" cy="70.3" r="20" fill="#ffe116" stroke="#1a1a1a" stroke-width="2"/>
  <ellipse cx="124.5" cy="64.4" fill="#ffea5c" rx="11.4" ry="11.1"/>
  <path fill="#ffe116" d="M127.2 48.3a3.3 3.3 0 0 0-3.3 3.3v13.2h-13.4a3.4 3.4 0 0 0-3.4 3.4v1.5c0 1.8 1.6 3.3 3.4 3.3h35c1.9 0 3.3-1.5 3.3-3.3v-1.5c0-1.9-1.4-3.4-3.3-3.4h-13.3V51.6c0-1.9-1.5-3.3-3.3-3.3z"/>
  <path fill="#ffea5c" d="m128.1 48.1-3.8 1.2-.3 15.8-14-.2-2.7 3v1l20-.2zm4 16.5-.5.9V69h17.1v-1.8l-2.8-2.5z"/>
  <path fill="none" stroke="#1a1a1a" stroke-width="2" d="M127.2 48.3a3.3 3.3 0 0 0-3.3 3.3v13.2h-13.4a3.4 3.4 0 0 0-3.4 3.4v1.5c0 1.8 1.6 3.3 3.4 3.3h35c1.9 0 3.3-1.5 3.3-3.3v-1.5c0-1.9-1.4-3.4-3.3-3.4h-13.3V51.6c0-1.9-1.5-3.3-3.3-3.3z"/>
  <path fill="#d71e1e" d="m129.7 185 51.2 5.5 20.8-5.5 16.1-30.7-4.4-15.3s1.9-5.3 1.8-8c0-4.8-.5-10-3.2-14a22 22 0 0 0-10.6-7.7c-10.5-2.5-18.4 1.8-27.4 7.8 0 0-6.5-4-14.4-7.2-2.8-1-7.2-2-9.4-2.7-5.8-1.8-19.7-3-19.7-3h-5s-14 1.2-19.7 3c-2.2.7-6.6 1.7-9.4 2.7-7.9 3.2-14.4 7.2-14.4 7.2-9-6-17-10.3-27.4-7.8a22 22 0 0 0-10.6 7.8 24.4 24.4 0 0 0-1.4 21.9l-4.4 15.3 16 30.7 20.9 5.5 51.2-5.5z"/>
  <path fill="#de4f40" d="m117 112.6-.2-.3s-14.2 1.6-20 4.2c-6.7 3.2-10.6 6.6-16.8 10.8-3.7 2.4-8.1 5.7-12.4 6.8-3 .8-7.2.3-10.1-.7a12 12 0 0 1-5.8-4.5c-1.4-2-2-4.2-2-6.6 0-2.9.4-4.4 1.9-6.9 1.7-3 7.8-6.6 11.3-6.4l2.1.1 5.2 1.4L82 117l8.1-3.8 6.7-3.5 9-2.6 10.8-1.4h23l10.9 1.4 8.9 2.6 6.7 3.5 8.1 3.8 11.7-6.5 5.2-1.4 2-.1c3.6-.2 9.7 3.5 11.4 6.4 1.5 2.5 1.8 4 1.8 7 0 2.3-.5 4.6-1.9 6.5a12 12 0 0 1-5.8 4.5c-3 1-7.1 1.5-10.1.7-4.3-1-8.7-4.4-12.4-6.8-6.2-4.2-10.1-7.6-16.9-10.8a96 96 0 0 0-19.9-4.2l-.2.3z"/>
  <path fill="#97141c" d="M63.7 115.7c-2 0-4.3.5-5.4 1.4-3.1 2.4-4.3 5.8-.6 9.5 2.3 2.2 6.6 1.8 9.8 1.2 2.7-.5 5.5-2.1 7.7-3.8l8.2-6.6-6.9 2.2-2.1-.2c-2.3-.2-4.7-3-7.5-3.5-.8-.2-2-.3-3.2-.2zm127.4 0c-.8 0-1.5 0-2 .2-2.8.5-5.2 3.3-7.5 3.5l-2.2.2-6.8-2.2 8.2 6.6c2.2 1.7 5 3.3 7.7 3.8 3.2.6 7.5 1 9.8-1.2 3.7-3.7 2.5-7.1-.6-9.5-1.4-1-4.3-1.5-6.6-1.4z"/>
  <path fill="#ba1b24" d="m122.9 177-33.3 8.5-33.4-.3-13.8-28-1.1-23.7c6.5 8.8 11.4 14.2 31 12.2 8.2-1 22.7-10.8 30.2-14.2a168 168 0 0 1 21-7.2h9s12.8 3.5 21 7.2c7.5 3.4 22 13.1 30.1 14.2 19.7 2 24.6-3.4 31.1-12.2l-1 23.7-14 28-33.3.3-33.3-8.5z"/>
  <path fill="#97141c" d="m122.6 177.3-37 9.3-28.8-.9-14.1-27-1.2-4.6s18 12.4 26.7 13.8a61 61 0 0 0 28.3-3c11-3.1 31.5-17.6 31.5-17.6s20.4 14.5 31.5 17.6a61 61 0 0 0 28.3 3c8.6-1.4 26.7-13.8 26.7-13.8l-1.2 4.5-14 27.1-28.9.9-37-9.3"/>
  <path fill="none" stroke="#1a1a1a" stroke-width="2" d="M126.3 185 75 190.5 54.3 185l-16.1-30.7 4.4-15.3s-1.9-5.3-1.8-8c0-4.8.5-10 3.2-14a22 22 0 0 1 10.6-7.7c10.5-2.5 18.4 1.8 27.4 7.8 0 0 6.5-4 14.4-7.2 2.8-1 7.2-2 9.4-2.7 5.8-1.8 19.7-3 19.7-3h5s14 1.2 19.7 3c2.2.7 6.6 1.7 9.4 2.7 7.9 3.2 14.4 7.2 14.4 7.2 9-6 17-10.3 27.4-7.8a22 22 0 0 1 10.6 7.8 24.4 24.4 0 0 1 1.4 21.9l4.4 15.3-16 30.7-21 5.5-51-5.5z"/>
  <path fill="#ffe116" d="M125.4 101.3s-4.5.4-10.1.6a75 75 0 0 1-17.6-1c-14-3.2-23-13.6-33-14.4-26.8-2.1-37.2 21.8-24.5 43.1 2.1 4.2 4 7.5 4 7.5l-9.4 5.5s-2.1-3.5-4.4-8a67 67 0 0 1-6-13.7 39 39 0 0 1 .2-20.9 30.8 30.8 0 0 1 11.2-17c3.7-3 9-6 14.4-7.3a37.8 37.8 0 0 1 16.8 0c14 3 23.2 12.2 33.1 14.4 3.1.7 9.6 1 14.9.8 5.2-.2 9.4-.6 9.4-.6h7.2s4.2.4 9.4.6c5.3.1 11.8 0 14.9-.8 10-2.2 19.1-11.3 33.1-14.4a40.4 40.4 0 0 1 16.8 0 38.2 38.2 0 0 1 14.4 7.3c6.4 5.2 8.8 9.6 11.2 17a39 39 0 0 1 .1 20.9 67 67 0 0 1-5.9 13.7c-2.3 4.5-4.4 8-4.4 8l-9.5-5.5s2-3.3 4.1-7.5c12.7-21.3 2.2-45.2-24.4-43.1-10.2.8-19.2 11.2-33.1 14.4a75 75 0 0 1-17.6 1c-5.6-.2-10.1-.6-10.1-.6z" color="#000" font-family="Bitstream Vera Sans" font-weight="400" overflow="visible" style="line-height:normal;-inkscape-font-specification:&quot;Bitstream Vera Sans&quot;;text-indent:0;text-align:start;text-decoration-line:none;text-transform:none;marker:none"/>
  <path fill="#ffea5c" d="M131 96.2c31.7 5 39-9.8 58.9-14.7 32.7-5.2 38.3 22.2 35.9 35.5-2.3 12.2-11.5 24-9.3 23l4.7 2.6s2.1-3.5 4.4-8a67 67 0 0 0 6-13.7 39 39 0 0 0-.2-20.9 30.8 30.8 0 0 0-11.2-17c-3.7-3-9-6-14.4-7.3a37.8 37.8 0 0 0-16.8 0c-14 3-23.2 12.2-33.1 14.4-3.1.7-9.6 1-14.9.8-5.2-.2-9.4-.6-9.4-.6h-7.2s-4.2.4-9.4.6c-5.3.1-11.8 0-14.9-.8C90.1 88 81 78.8 67 75.7a40.4 40.4 0 0 0-16.8 0A38.2 38.2 0 0 0 35.8 83a30.8 30.8 0 0 0-11.2 17 39 39 0 0 0-.1 20.9 67 67 0 0 0 5.9 13.7c2.3 4.5 4.4 8 4.4 8l4.7-2.7c2.2 1-7-10.7-9.3-22.9-2.4-13.3 3.2-40.7 36-35.5 19.8 5 27 19.6 58.8 14.7z" color="#000" font-family="Bitstream Vera Sans" font-weight="400" overflow="visible" style="line-height:normal;-inkscape-font-specification:&quot;Bitstream Vera Sans&quot;;text-indent:0;text-align:start;text-decoration-line:none;text-transform:none;marker:none"/>
  <path fill="none" stroke="#1a1a1a" stroke-width="2" d="M125.4 101.3s-4.5.4-10.1.6a75 75 0 0 1-17.6-1c-14-3.2-23-13.6-33-14.4-26.8-2.1-37.2 21.8-24.5 43.1 2.1 4.2 4 7.5 4 7.5l-9.4 5.5s-2.1-3.5-4.4-8a67 67 0 0 1-6-13.7 39 39 0 0 1 .2-20.9 30.8 30.8 0 0 1 11.2-17c3.7-3 9-6 14.4-7.3a37.8 37.8 0 0 1 16.8 0c14 3 23.2 12.2 33.1 14.4 3.1.7 9.6 1 14.9.8 5.2-.2 9.4-.6 9.4-.6h7.2s4.2.4 9.4.6c5.3.1 11.8 0 14.9-.8 10-2.2 19.1-11.3 33.1-14.4a40.4 40.4 0 0 1 16.8 0 38.2 38.2 0 0 1 14.4 7.3c6.4 5.2 8.8 9.6 11.2 17a39 39 0 0 1 .1 20.9 67 67 0 0 1-5.9 13.7c-2.3 4.5-4.4 8-4.4 8l-9.5-5.5s2-3.3 4.1-7.5c12.7-21.3 2.2-45.2-24.4-43.1-10.2.8-19.2 11.2-33.1 14.4a75 75 0 0 1-17.6 1c-5.6-.2-10.1-.6-10.1-.6z" color="#000" font-family="Bitstream Vera Sans" font-weight="400" overflow="visible" style="line-height:normal;-inkscape-font-specification:&quot;Bitstream Vera Sans&quot;;text-indent:0;text-align:start;text-decoration-line:none;text-transform:none;marker:none"/>
  <rect width="29.1" height="36.5" x="113.2" y="85.1" fill="#f3d948" stroke="#333" stroke-width="2" ry="5.1"/>
  <rect width="8" height="41.8" x="111.5" y="83.3" fill="#ffe116" stroke="#1a1a1a" stroke-width="2" ry="4"/>
  <rect width="8" height="41.8" x="136.5" y="83.3" fill="#ffe116" stroke="#1a1a1a" stroke-width="2" ry="4"/>
  <circle cx="128" cy="89.6" r="9.4" fill="#ccc"/>
  <ellipse cx="127.3" cy="88.4" fill="#e6e6e6" rx="7.3" ry="7.1"/>
  <circle cx="126" cy="87.2" r="5.4" fill="#fff"/>
  <circle cx="128" cy="89.6" r="9.4" fill="none" stroke="#1a1a1a" stroke-width="2"/>
  <circle cx="128" cy="102" r="9.4" fill="#ccc"/>
  <ellipse cx="127.3" cy="100.8" fill="#e6e6e6" rx="7.3" ry="7.1"/>
  <circle cx="126" cy="99.6" r="5.4" fill="#fff"/>
  <circle cx="128" cy="102" r="9.4" fill="none" stroke="#1a1a1a" stroke-width="2"/>
  <circle cx="128" cy="115.6" r="9.4" fill="#ccc"/>
  <ellipse cx="127.3" cy="114.4" fill="#e6e6e6" rx="7.3" ry="7.1"/>
  <circle cx="126" cy="113.1" r="5.4" fill="#fff"/>
  <circle cx="128" cy="115.6" r="9.4" fill="none" stroke="#1a1a1a" stroke-width="2"/>
  <path fill="#ffe116" d="M55.1 209.7s-9.6-31.6-16.6-46.5a593.8 593.8 0 0 0-10.3-20.8l14.2-8.2 7.3-1c-3.6 9.6-3.4 16.3-3.4 23.2 7.5-1.3 11-7 15-11l4.8 20.2c-7.6-3.3-12.6-1.6-17.5.4 0 0 3.2 6 5.5 8.2a18 18 0 0 0 9.2 4.4c3.4.6 7.2.8 10.3-.7 6.4-3.1 9.8-10 8.8-9.5 0 0 .7-6-1-8.2-1.2-1.7-3.8-3-5.8-2.4-3.1.8-4.8 7.8-4.8 7.8s-3-6-3.7-9.2c-.7-2.9-1.7-6.2-.4-8.9 1-2 3.3-3.3 5.5-3.7 2.9-.6 8.2 2 8.2 2s-1.6-5.3-2-8.2c-.3-1.4 0-3.4.6-4.7 1.3-3.2 5.1-5.9 4.7-5.9-.5 0 4 1.7 6 4.4a12 12 0 0 1 1.8 4.4c.2 3 0 8.5 0 8.5s4.5-3.8 7.4-4c2.2-.2 4.8.6 6.3 2.3 1.9 2.2 1.7 5.7 1.8 8.7 0 3.3-1.4 9.8-1.4 9.8s-3.3-6.3-6.5-6.4c-2 0-4.3 1.9-5 3.7-1.2 2.6 1 8.2 1 8.2 12.7 10 26-.2 28.7-10.2v-3.7c-5.4.7-7.7 1.6-13 7.8l-1.7-25c5 4.7 9.5 6.4 14.7 5.5-.5-7.2-4.2-10.4-10-16.8l5.7-1.7H137l5.8 1.7c-6 6.4-10 9.6-10.5 16.8 5.2.9 9.6-.8 14.7-5.4l-1.7 25c-5.3-6.3-7.6-7.2-13-8v3.8c2.8 10 16 20.2 28.7 10.2 0 0 2.2-5.6 1-8.2-.7-1.8-3-3.8-5-3.7-3.2 0-6.5 6.4-6.5 6.4s-1.5-6.5-1.4-9.8c0-3 0-6.5 1.8-8.7 1.5-1.7 4-2.5 6.3-2.3 2.9.2 7.4 4 7.4 4s-.2-5.6 0-8.5c.2-1.4 1-3.2 1.9-4.4 2-2.7 6.4-4.4 5.9-4.4s3.4 2.7 4.7 5.9c.5 1.3.9 3.3.7 4.7-.5 2.9-2.1 8.2-2.1 8.2s5.3-2.6 8.2-2a8 8 0 0 1 5.5 3.7c1.3 2.7.3 6-.4 9-.7 3.2-3.7 9.1-3.7 9.1s-1.7-7-4.8-7.8c-2-.6-4.6.7-5.8 2.4-1.7 2.1-1 8.2-1 8.2-1-.5 2.3 6.4 8.8 9.5a17 17 0 0 0 10.3.7 18 18 0 0 0 9.2-4.4c2.3-2.2 5.5-8.2 5.5-8.2-4.9-2-10-3.7-17.5-.4l4.8-20.1c4 3.9 7.5 9.6 15 11 0-7 .2-13.7-3.4-23.3l6.7 1.2 14.8 8s-7 13.5-10.3 20.8c-7 14.9-16.6 46.5-16.6 46.5l-.3.8c-49.5-11-97.8-9.8-145.5-.8Z"/>
  <path fill="#f0d100" d="M79 205.9c-8 1-16 2.3-23.9 3.8 0 0-9.6-31.6-16.6-46.5a593.8 593.8 0 0 0-10.3-20.8l14.2-8.2 7.3-1c-3.6 9.6-3.4 16.3-3.4 23.2 7.5-1.3 11-7 15-11l4.8 20.2c-7.6-3.3-12.6-1.6-17.5.4 0 0 3.2 6 5.5 8.2a18 18 0 0 0 9.2 4.4c3.4.6 7.2.8 10.3-.7zm103.4-28a17 17 0 0 0 10.3.7 18 18 0 0 0 9.2-4.4c2.3-2.2 5.5-8.2 5.5-8.2-4.9-2-10-3.7-17.5-.4l4.8-20.1c4 3.9 7.5 9.6 15 11 0-7 .2-13.7-3.4-23.3l6.7 1.2 14.8 8s-7 13.5-10.3 20.8c-7 14.9-16.6 46.5-16.6 46.5l-.3.8c-9-2-17.8-3.6-26.7-4.8l-.8.7z"/>
  <path fill="#e3c500" d="M69.2 207.3c-4.7.7-9.4 1.5-14 2.4 0 0-9.7-31.6-16.7-46.5a593.8 593.8 0 0 0-10.3-20.8l14.2-8.2 7.3-1c-3.6 9.6-3.4 16.3-3.4 23.2 7.5-1.3 11-7 15-11l4.8 20.2c-7.6-3.3-12.6-1.6-17.5.4 0 0 3.2 6 5.5 8.2a18 18 0 0 0 9.2 4.4zm123.5-28.7a18 18 0 0 0 9.2-4.4c2.3-2.2 5.5-8.2 5.5-8.2-4.9-2-10-3.7-17.5-.4l4.8-20.1c4 3.9 7.5 9.6 15 11 0-7 .2-13.7-3.4-23.3l6.7 1.2 14.8 8s-7 13.5-10.3 20.8c-7 14.9-16.6 46.5-16.6 46.5l-.3.8-14.5-2.9-.6-.6z"/>
  <path fill="#ffea5c" d="m119.3 122.7-5.8 1.7c6 6.3 9.8 9.4 10.2 16.6-5 .9-9.5-.8-14.6-5.4l1.7 24.9c5.3-6.2 7.6-7.1 13-7.8v3.7a20.4 20.4 0 0 1-13.6 13.7l2 32.8a370 370 0 0 1 31.6 0l1.9-32.8a20.4 20.4 0 0 1-13.5-13.7v-3.7c5.4.7 7.7 1.6 13 7.8l1.7-24.9c-5 4.6-9.5 6.3-14.7 5.4.5-7.2 4.4-10.3 10.3-16.6l-5.8-1.7zm52.5 3.4-5.2 4.4-2 3.9-.1 9.4-4.8-3.4-3.6-.6-5 1.9-2.1 4.6.8 14.6 4-5s-.8-4.3.2-6c.8-1.5 2.4-2.8 4-2.9 3.3 0 8.3 5.5 8.3 5.5s.7-9.7 2.5-14.1c.6-1.5 2.7-4 2.7-4s1.4 3.8 1.5 5.7c.3 4.2-1.5 12.6-1.5 12.6s6.7-4.7 10.2-3.8c1.3.4 2.3 2 2.7 3.3.8 2.5-.8 7.8-.8 7.8l1.2 4.9 4.5-10.2.5-6.9-3.2-3.7-3.9-.6-7.2 2 2.4-8.6-1.4-5.1zm-87.7.5-4.6 5.6-1.4 5.1 2.4 8.8-7.2-2.1-4 .5-3.2 3.8.5 6.9 4.5 10.2 1.2-4.9s-1.5-5.3-.7-7.8c.4-1.4 1.4-3 2.7-3.3 3.5-1 10.2 3.8 10.2 3.8s-1.8-8.4-1.5-12.6c.1-2 1.5-5.8 1.5-5.8s2.1 2.6 2.7 4c1.8 4.5 2.5 14.1 2.5 14.1s5-5.5 8.3-5.4c1.6 0 3.2 1.4 4 2.8 1 1.8.3 6 .3 6l3.9 5 .8-14.5-2-4.6-5.1-2-3.6.7-4.8 3.4-.1-9.5-2-3.9z"/>
  <path fill="#c5ab00" d="M219.5 157.5c-1.7 3.3-.8 3.1-2 5.7-7 14.9-16.6 46.5-16.6 46.5l-.3.8-7.2-1.5h-.3l20.2-54.4c-2.4 0 8 3 6.2 2.9zm-157.8 51-6.6 1.2s-9.6-31.6-16.6-46.5c-1.4-3.1-.7-1.4-2.6-5.2l7.5-2.8z"/>
  <path fill="#d2b225" d="m51.5 165.4-3.3-9.4 4.2-1.7 8.3-8.3 5.2 20-7.5-2.3h-3.8z"/>
  <path fill="#d2b225" d="m204 165.2 3.4-9.4-4.2-1.7-8.3-8.3-5.2 20 7.5-2.3h3.8z"/>
  <path fill="#f0d100" d="m43.5 133.5-16 9.2 5 8.6 14-5.7 3.4-12zm162.4.1 3 11.7 14.4 6.1 5-8.6-16-9.2zm-11 12L190 166l6.4-3 3.8-10.9zm-133.4.1-5.6 6.4 4 10.8 6.3 3z"/>
  <path fill="#ffea5c" d="m206 133.5 1.1 4.4 18.6 7.5 2.5-2.8-15.2-8.1zm-163.6 0-14.7 9.2 2.5 2.7 18.5-7.4 1.2-4.5z"/>
  <path fill="#fff08b" d="m140.2 126.4 2.7-1.8-5.9-2.2-16.6.5-6.7 1.4 3.1 3 7.4-1.2.3 27.2V194l8.7.3-1.9-68.7z"/>
  <path fill="none" stroke="#1a1a1a" stroke-width="2" d="M55.1 209.7s-9.6-31.6-16.6-46.5a593.8 593.8 0 0 0-10.3-20.8l14.2-8.2 7.3-1c-3.6 9.6-3.4 16.3-3.4 23.2 7.5-1.3 11-7 15-11l4.8 20.2c-7.6-3.3-12.6-1.6-17.5.4 0 0 3.2 6 5.5 8.2a18 18 0 0 0 9.2 4.4c3.4.6 7.2.8 10.3-.7 6.4-3.1 9.8-10 8.8-9.5 0 0 .7-6-1-8.2-1.2-1.7-3.8-3-5.8-2.4-3.1.8-4.8 7.8-4.8 7.8s-3-6-3.7-9.2c-.7-2.9-1.7-6.2-.4-8.9 1-2 3.3-3.3 5.5-3.7 2.9-.6 8.2 2 8.2 2s-1.6-5.3-2-8.2c-.3-1.4 0-3.4.6-4.7 1.3-3.2 3.4-4.8 4.7-6.6 1.7 1.7 4 2.4 6 5 .8 1.3 1.6 3 1.8 4.5.2 3 0 8.5 0 8.5s4.5-3.8 7.4-4c2.2-.2 4.8.6 6.3 2.3 1.9 2.2 1.7 5.7 1.8 8.7 0 3.3-1.4 9.8-1.4 9.8s-3.3-6.3-6.5-6.4c-2 0-4.3 1.9-5 3.7-1.2 2.6 1 8.2 1 8.2 12.7 10 26-.2 28.7-10.2v-3.7c-5.4.7-7.7 1.6-13 7.8l-1.7-25c5 4.7 9.5 6.4 14.7 5.5-.5-7.2-4.4-10.3-10.3-16.6l5.8-1.7h17.4l5.8 1.7c-6 6.3-9.8 9.4-10.3 16.6 5.2.9 9.6-.8 14.7-5.4l-1.7 25c-5.3-6.3-7.6-7.2-13-8v3.8c2.8 10 16 20.2 28.7 10.2 0 0 2.2-5.6 1-8.2-.7-1.8-3-3.8-5-3.7-3.2 0-6.5 6.4-6.5 6.4s-1.5-6.5-1.4-9.8c0-3 0-6.5 1.8-8.7 1.5-1.7 4-2.5 6.3-2.3 2.9.2 7.4 4 7.4 4s-.2-5.6 0-8.5c.2-1.4 1-3.2 1.9-4.4 2-2.7 3.3-4 5.3-6 1.5 2 4 4.3 5.3 7.5.5 1.3.9 3.3.7 4.7-.5 2.9-2.1 8.2-2.1 8.2s5.3-2.6 8.2-2a8 8 0 0 1 5.5 3.7c1.3 2.7.3 6-.4 9-.7 3.2-3.7 9.1-3.7 9.1s-1.7-7-4.8-7.8c-2-.6-4.6.7-5.8 2.4-1.7 2.1-1 8.2-1 8.2-1-.5 2.3 6.4 8.8 9.5a17 17 0 0 0 10.3.7 18 18 0 0 0 9.2-4.4c2.3-2.2 5.5-8.2 5.5-8.2-4.9-2-10-3.7-17.5-.4l4.8-20.1c4 3.9 7.5 9.6 15 11 0-7 .2-13.7-3.4-23.3l6.7 1.2 14.8 8-5.9 11.7-4.4 9c-7 15-16.6 46.6-16.6 46.6l-.3.8c-49.5-11-97.8-9.8-145.5-.8Z"/>
  <ellipse cx="128" cy="218.4" fill="#ccc" stroke="#1a1a1a" stroke-width="2" rx="76.1" ry="13.7"/>
  <ellipse cx="128" cy="218.4" fill="#757369" rx="58.4" ry="6.8"/>
  <path fill="#fff" d="M55.2 220.5c50.3-11 98.8-10 146.3 0 8.2 2.7 10-16 2-20-49.5-14.6-137.4-6.2-151.3 0-4.1-.7-9.9 19.5 3 20z" color="#000" font-family="Bitstream Vera Sans" font-weight="400" overflow="visible" style="line-height:normal;-inkscape-font-specification:&quot;Bitstream Vera Sans&quot;;text-indent:0;text-align:start;text-decoration-line:none;text-transform:none;marker:none"/>
  <path fill="#e6e6e6" d="M55.2 220.5c50.3-11 98.8-10 146.3 0 2.7 1 5.6-4.7 6.8-7.1-68-17-108.6-12.4-161 0-.5-1.9-.8 1 1.4 3.6 1.5 1.8 5.3 3.2 6.5 3.5z" color="#000" font-family="Bitstream Vera Sans" font-weight="400" overflow="visible" style="line-height:normal;-inkscape-font-specification:&quot;Bitstream Vera Sans&quot;;text-indent:0;text-align:start;text-decoration-line:none;text-transform:none;marker:none"/>
  <path fill="none" stroke="#1a1a1a" stroke-width="2" d="M55.2 220.5c50.3-11 98.8-10 146.3 0 8.2 2.7 10-16 2-20-49.5-14.6-137.4-6.2-151.3 0-4.1-.7-9.9 19.5 3 20z" color="#000" font-family="Bitstream Vera Sans" font-weight="400" overflow="visible" style="line-height:normal;-inkscape-font-specification:&quot;Bitstream Vera Sans&quot;;text-indent:0;text-align:start;text-decoration-line:none;text-transform:none;marker:none"/>
  <path fill="#333" d="M121.7 198c-2.2.2-4.7.9-4.7.9l6.3 1.6s-1.8.4-3.2.9l-3.7 1.8h7.2s-2 1-3 1.9c-.6.6-1.5 2-1.5 2s6.5-2.6 9.9-3.2c3.5-.7 10.6-.6 10.6-.6l-4-2s-3.8-.6-7-1.6c-2-.6-4-1.6-6-1.6h-.9zm-29.1 1.4h-.7c-2.4.3-5.6 1.6-5.6 1.6l6.5.8-3 1.3c-1 .5-3.5 2.3-3.5 2.3l7.2-.9s-2 1.3-2.7 2.2c-.6.6-1.3 2.3-1.3 2.3s6-3.5 9.3-4.6c3.4-1 10.5-2 10.5-2l-4.2-1.4s-3.9 0-7.2-.6c-1.7-.3-3.6-1-5.3-1zm59.6.3a25 25 0 0 0-4.8.6l6.2 2-3.3.7c-1 .3-3.8 1.6-3.8 1.6l7.3.5s-2.2.8-3 1.5c-.8.6-1.7 2-1.7 2s6.6-2.2 10-2.6c3.5-.5 10.7 0 10.7 0l-4-2.2s-3.7-.8-6.9-2c-1.8-.7-4-1.8-5.8-2h-.9zm-89 3-1.4.1c-2.4.5-5.4 2.2-5.4 2.2H63l-3 1.7-3.1 2.7 7-1.7s-1.8 1.5-2.4 2.4c-.5.7-1 2.4-1 2.4s5.6-4.1 8.8-5.6a70.6 70.6 0 0 1 10.2-3.1l-4.4-1s-3.9.4-7.3.2c-1.4 0-3-.3-4.6-.3zm116.8.6-2 .1 6 2.6-3.4.4-4 1.2 7.2 1.2s-2.2.7-3.2 1.3a12 12 0 0 0-1.8 1.9s6.7-1.6 10.2-1.7a75 75 0 0 1 10.6 1.2l-3.6-2.7s-3.7-1.2-6.8-2.7c-1.7-.9-3.6-2.2-5.5-2.6-1.1-.2-2.6-.3-3.7-.2z"/>
  <rect width="24" height="13.9" x="116" y="172.7" fill="#1d369e" ry="4.4"/>
  <path fill="#4163ef" d="m119.3 183.8-.1-6.4 1.7-1.5h15l2 3.1-.2 4h2.2l.1-6.6-2.7-3.9-17.8.2-3.3 2.5.2 7.6 1 1.3 2-.3z"/>
  <path fill="#2545cb" d="m116.7 180.7 4 2.7 14.2.1 1.8-1.8.1-4 2.4-3.7 1.3 2.5-.6 7.4-2.3 3-17.4-.3-3.6-2.4-.6-1.4.7-2.1z"/>
  <rect width="24" height="13.9" x="116" y="172.7" fill="none" stroke="#1a1a1a" stroke-width="2" ry="4.4"/>
  <rect width="7.5" height="3.1" x="120.7" y="177" fill="#5674f1" ry="1.5"/>
  <ellipse cx="88.4" cy="183.3" fill="#2ca02c" rx="11.4" ry="7"/>
  <path fill="#237f23" d="M77.2 185.6c9.7 1.7 17.7 1 20.6-6.6l2 2.2v3.3l-5 3.8-6.1 2-7.7-1.2z"/>
  <path fill="#32b532" d="M77.3 183.9a33.8 33.8 0 0 1 16.9-6.6l-5.5-1.3-6.3 1.5-3.8 3.2z"/>
  <ellipse cx="88.4" cy="183.3" fill="none" stroke="#1a1a1a" stroke-width="2" rx="11.4" ry="7"/>
  <ellipse cx="85" cy="181.4" fill="#6cd66c" rx="3.5" ry="1.8"/>
  <path fill="#d71e1e" d="m50.3 196.6 11.7-8.8-17.6-6.7s-2.7 2.6-3.2 4.8c-.7 3.1-.7 5.2 1.3 7.7 1.7 2.2 7.8 3 7.8 3z"/>
  <path fill="#9b1616" d="m40.9 191.4 2.5 3.4 7.4 1.9 11.2-8.9c-6.5 1.8-11.5 5.4-21.1 3.6z"/>
  <path fill="#e43a3a" d="M40.4 187.4c7-4 13.8-.7 20.7-.2l-16.6-6.1-3 3.2z"/>
  <ellipse cx="44.9" cy="186.9" fill="#ed7676" rx="2.7" ry="2"/>
  <path fill="none" stroke="#1a1a1a" stroke-width="2" d="m50.3 196.6 11.7-8.8-17.6-6.7s-2.7 2.6-3.2 4.8c-.7 3.1-.7 5.2 1.3 7.7 1.7 2.2 7.8 3 7.8 3z"/>
  <ellipse cx="167.6" cy="183.3" fill="#2ca02c" rx="11.4" ry="7"/>
  <path fill="#237f23" d="M178.8 185.6c-17.8 3.3-18.7-1.2-22.6-4.4v3.3l5 3.8 6.1 2 7.7-1.2z"/>
  <path fill="#32b532" d="M178.7 183.9c-4.3-3.7-13.9-4-20.5-5l9.1-2.9 6.3 1.5 3.8 3.2z"/>
  <ellipse cx="167.6" cy="183.3" fill="none" stroke="#1a1a1a" stroke-width="2" rx="11.4" ry="7"/>
  <ellipse cx="164.4" cy="180.9" fill="#6cd66c" rx="3.5" ry="1.8"/>
  <path fill="#d71e1e" d="m205.7 196.6-11.7-8.8 17.6-6.7s2.7 2.6 3.2 4.8c.7 3.1.7 5.2-1.3 7.7-1.7 2.2-7.8 3-7.8 3z"/>
  <path fill="#9b1616" d="m215.1 191.4-2.5 3.4-7.4 1.9-11.2-8.9c6.5 1.8 11.5 5.4 21.1 3.6z"/>
  <path fill="#e43a3a" d="M215.6 187.4c-7-4-13.8-.7-20.7-.2l16.6-6.1 3 3.2z"/>
  <ellipse cx="211.1" cy="186.9" fill="#ed7676" rx="2.7" ry="2"/>
  <path fill="none" stroke="#1a1a1a" stroke-width="2" d="m205.7 196.6-11.7-8.8 17.6-6.7s2.7 2.6 3.2 4.8c.7 3.1.7 5.2-1.3 7.7-1.7 2.2-7.8 3-7.8 3z"/>
  <circle cx="128" cy="146.6" r="7.4" fill="#ccc"/>
  <ellipse cx="127.5" cy="145.7" fill="#e6e6e6" rx="5.7" ry="5.6"/>
  <circle cx="126.5" cy="144.7" r="4.2" fill="#fff"/>
  <circle cx="128" cy="146.6" r="7.4" fill="none" stroke="#1a1a1a" stroke-width="2"/>
  <circle cx="212.7" cy="162.5" r="7.4" fill="#ccc"/>
  <ellipse cx="212.2" cy="161.5" fill="#e6e6e6" rx="5.7" ry="5.6"/>
  <circle cx="211.2" cy="160.6" r="4.2" fill="#fff"/>
  <circle cx="212.7" cy="162.5" r="7.4" fill="none" stroke="#1a1a1a" stroke-width="2"/>
  <circle cx="43.3" cy="162.5" r="7.4" fill="#ccc"/>
  <ellipse cx="42.7" cy="161.5" fill="#e6e6e6" rx="5.7" ry="5.6"/>
  <circle cx="41.7" cy="160.6" r="4.2" fill="#fff"/>
  <circle cx="43.3" cy="162.5" r="7.4" fill="none" stroke="#1a1a1a" stroke-width="2"/>
  <circle cx="102" cy="80.6" r="9.4" fill="#ccc"/>
  <ellipse cx="101.3" cy="79.4" fill="#e6e6e6" rx="7.3" ry="7.1"/>
  <circle cx="100.1" cy="78.2" r="5.4" fill="#fff"/>
  <circle cx="102" cy="80.6" r="9.4" fill="none" stroke="#1a1a1a" stroke-width="2"/>
  <circle cx="21.1" cy="136.1" r="9.4" fill="#ccc"/>
  <ellipse cx="20.4" cy="134.9" fill="#e6e6e6" rx="7.3" ry="7.1"/>
  <circle cx="19.1" cy="133.7" r="5.4" fill="#fff"/>
  <circle cx="21.1" cy="136.1" r="9.4" fill="none" stroke="#1a1a1a" stroke-width="2"/>
  <circle cx="87.9" cy="73.6" r="9.4" fill="#ccc"/>
  <ellipse cx="87.2" cy="72.4" fill="#e6e6e6" rx="7.3" ry="7.1"/>
  <circle cx="85.9" cy="71.1" r="5.4" fill="#fff"/>
  <circle cx="87.9" cy="73.6" r="9.4" fill="none" stroke="#1a1a1a" stroke-width="2"/>
  <circle cx="72.6" cy="67.1" r="9.4" fill="#ccc"/>
  <ellipse cx="71.9" cy="65.9" fill="#e6e6e6" rx="7.3" ry="7.1"/>
  <circle cx="70.6" cy="64.6" r="5.4" fill="#fff"/>
  <circle cx="72.6" cy="67.1" r="9.4" fill="none" stroke="#1a1a1a" stroke-width="2"/>
  <circle cx="54.9" cy="65.3" r="9.4" fill="#ccc"/>
  <ellipse cx="54.2" cy="64.1" fill="#e6e6e6" rx="7.3" ry="7.1"/>
  <circle cx="52.9" cy="62.9" r="5.4" fill="#fff"/>
  <circle cx="54.9" cy="65.3" r="9.4" fill="none" stroke="#1a1a1a" stroke-width="2"/>
  <circle cx="37" cy="70.4" r="9.4" fill="#ccc"/>
  <ellipse cx="36.3" cy="69.2" fill="#e6e6e6" rx="7.3" ry="7.1"/>
  <circle cx="35.1" cy="68" r="5.4" fill="#fff"/>
  <circle cx="37" cy="70.4" r="9.4" fill="none" stroke="#1a1a1a" stroke-width="2"/>
  <circle cx="22.4" cy="82.2" r="9.4" fill="#ccc"/>
  <ellipse cx="21.7" cy="81" fill="#e6e6e6" rx="7.3" ry="7.1"/>
  <circle cx="20.4" cy="79.7" r="5.4" fill="#fff"/>
  <circle cx="22.4" cy="82.2" r="9.4" fill="none" stroke="#1a1a1a" stroke-width="2"/>
  <circle cx="14.6" cy="99.1" r="9.4" fill="#ccc"/>
  <ellipse cx="13.9" cy="97.9" fill="#e6e6e6" rx="7.3" ry="7.1"/>
  <circle cx="12.6" cy="96.7" r="5.4" fill="#fff"/>
  <circle cx="14.6" cy="99.1" r="9.4" fill="none" stroke="#1a1a1a" stroke-width="2"/>
  <circle cx="14.3" cy="118.3" r="9.4" fill="#ccc"/>
  <ellipse cx="13.6" cy="117.1" fill="#e6e6e6" rx="7.3" ry="7.1"/>
  <circle cx="12.3" cy="115.9" r="5.4" fill="#fff"/>
  <circle cx="14.3" cy="118.3" r="9.4" fill="none" stroke="#1a1a1a" stroke-width="2"/>
  <circle cx="154" cy="80.6" r="9.4" fill="#ccc"/>
  <ellipse cx="153.3" cy="79.4" fill="#e6e6e6" rx="7.3" ry="7.1"/>
  <circle cx="152" cy="78.2" r="5.4" fill="#fff"/>
  <circle cx="154" cy="80.6" r="9.4" fill="none" stroke="#1a1a1a" stroke-width="2"/>
  <circle cx="234.9" cy="136.1" r="9.4" fill="#ccc"/>
  <ellipse cx="234.2" cy="134.9" fill="#e6e6e6" rx="7.3" ry="7.1"/>
  <circle cx="233" cy="133.7" r="5.4" fill="#fff"/>
  <circle cx="234.9" cy="136.1" r="9.4" fill="none" stroke="#1a1a1a" stroke-width="2"/>
  <circle cx="168.1" cy="73.6" r="9.4" fill="#ccc"/>
  <ellipse cx="167.4" cy="72.4" fill="#e6e6e6" rx="7.3" ry="7.1"/>
  <circle cx="166.1" cy="71.1" r="5.4" fill="#fff"/>
  <circle cx="168.1" cy="73.6" r="9.4" fill="none" stroke="#1a1a1a" stroke-width="2"/>
  <circle cx="183.4" cy="67.1" r="9.4" fill="#ccc"/>
  <ellipse cx="182.7" cy="65.9" fill="#e6e6e6" rx="7.3" ry="7.1"/>
  <circle cx="181.5" cy="64.6" r="5.4" fill="#fff"/>
  <circle cx="183.4" cy="67.1" r="9.4" fill="none" stroke="#1a1a1a" stroke-width="2"/>
  <circle cx="201.1" cy="65.3" r="9.4" fill="#ccc"/>
  <ellipse cx="200.4" cy="64.1" fill="#e6e6e6" rx="7.3" ry="7.1"/>
  <circle cx="199.2" cy="62.9" r="5.4" fill="#fff"/>
  <circle cx="201.1" cy="65.3" r="9.4" fill="none" stroke="#1a1a1a" stroke-width="2"/>
  <circle cx="219" cy="70.4" r="9.4" fill="#ccc"/>
  <ellipse cx="218.3" cy="69.2" fill="#e6e6e6" rx="7.3" ry="7.1"/>
  <circle cx="217" cy="68" r="5.4" fill="#fff"/>
  <circle cx="219" cy="70.4" r="9.4" fill="none" stroke="#1a1a1a" stroke-width="2"/>
  <circle cx="233.6" cy="82.2" r="9.4" fill="#ccc"/>
  <ellipse cx="232.9" cy="81" fill="#e6e6e6" rx="7.3" ry="7.1"/>
  <circle cx="231.6" cy="79.7" r="5.4" fill="#fff"/>
  <circle cx="233.6" cy="82.2" r="9.4" fill="none" stroke="#1a1a1a" stroke-width="2"/>
  <circle cx="241.4" cy="99.1" r="9.4" fill="#ccc"/>
  <ellipse cx="240.8" cy="97.9" fill="#e6e6e6" rx="7.3" ry="7.1"/>
  <circle cx="239.5" cy="96.7" r="5.4" fill="#fff"/>
  <circle cx="241.4" cy="99.1" r="9.4" fill="none" stroke="#1a1a1a" stroke-width="2"/>
  <circle cx="241.7" cy="118.3" r="9.4" fill="#ccc"/>
  <ellipse cx="241" cy="117.1" fill="#e6e6e6" rx="7.3" ry="7.1"/>
  <circle cx="239.8" cy="115.9" r="5.4" fill="#fff"/>
  <circle cx="241.7" cy="118.3" r="9.4" fill="none" stroke="#1a1a1a" stroke-width="2"/>
</svg>