<?xml version="1.0" encoding="UTF-8" standalone="no"?> <svg xmlns="http://www.w3.org/2000/svg" version="1.1" viewBox="0 0 80 80"><defs><style>.cls-1{fill:none;stroke:#000;stroke-linecap:round;stroke-linejoin:round;stroke-width:2px}</style></defs><path class="cls-1" d="M40,39.11l4.06,10.11S37.82,64.33,36,64.33s-5.41.4-4.94-4.25L36.5,49c-1.53-1.37-4.21-5-4.21-8.24,0-3-2-13.57-2-14.84a.43.43,0,0,0,0-.22.28.28,0,0,0-.2-.17c-6.88-1.21-9.16-6.14-10.93-12-.79-2.63-2.15-6.76,1-8C23.78,4,24.28,9.2,25.55,12.63c.72,2,1.74,4.84,4.15,5.13A9.6,9.6,0,0,0,34,17.19"/><path class="cls-1" d="M48.23,53.12l.57,2c.35,1,2,2.63,3,2.49a4,4,0,0,0,2.74-1.49,4.35,4.35,0,0,0,.62-3.29,14.71,14.71,0,0,0-1.12-3.25"/><path class="cls-1" d="M51.87,32.8l-2.71-2.17-4.3-5.15,2.28,10"/><path class="cls-1" d="M42.06,17.19a29.26,29.26,0,0,1,5.16,2.34,13.55,13.55,0,0,1,4.12,4.07c1.82,2.38,4.47,4,7.06,5.47"/><path class="cls-1" d="M31.78,64.15c-2.43,1.92-3,2.59-3.57,3.5a14.45,14.45,0,0,1-9.78-6.4A21.1,21.1,0,0,1,17,58.55c-1.12-2.51-1.95-5.47-.74-7.94,0,0,7.81-4,15.86-8.06"/><path class="cls-1" d="M40.62,39.63C46,37,63.94,23.24,77.16,26.22,76.42,33.19,52.64,49,40.78,57"/><path class="cls-1" d="M36.21,18.35a4.94,4.94,0,0,1-3.37-4.23h0l-.5-2.88a5,5,0,0,1,1.75-4.71h0a5,5,0,0,1,4.49-1h0a5,5,0,0,1,3.58,4l.53,3h0a5,5,0,0,1-6.44,5.81Z"/><polyline class="cls-1" points="29.21 43.54 20.68 40.76 7.43 46.45 15.66 50.83"/><polyline class="cls-1" points="40.62 57.64 40.32 67.65 30.23 76.2 28.21 67.65"/><path class="cls-1" d="M67.7,27.21a7.42,7.42,0,0,1-3.31,7.34c-2.19,1.59-4.24,2.43-5.46,1.58a24.82,24.82,0,0,1-4.67-4.47"/><path class="cls-1" d="M16.57,57.68c-2.78-.78-7.4.45-8.56,3.1l4.33.94c-4,3.29-5.79,9.54-5.71,9.73s6.91-.55,11.29-3.8c-.32,1.88-.57,3.14-.81,4.92,3.28,0,5.61-4.12,6.67-6.19"/></svg>