<svg viewBox="0 0 128 128" xmlns="http://www.w3.org/2000/svg">
<path fill="#fff" d="m74.769 41.428c-4.8215 0.15912-9.6411 1.5447-13.634 4.2944-5.5805 3.755-9.8569 9.0776-13.779 14.463-5.6912 8.2002-9.6638 17.441-13.104 26.768-0.20286 0.57636-0.30227 1.2436-1.0042 1.3817-2.9963 1.5657-5.8894 3.3288-8.6664 5.2563-1.0148-2.6777-2.0969-5.5242-4.3223-7.4414-1.4444-1.2708-3.7086-1.4385-5.2773-0.29492-2.3554 1.6936-3.505 4.5021-4.5645 7.1016-2.0864 5.6515-3.4021 11.567-4.2948 17.516-0.25554 1.1909-0.17779 2.6254 0.88295 3.4138 1.1388 0.93753 2.8947 0.6759 3.8583-0.39322 3.2434-2.7495 6.5552-5.4262 10.048-7.8552 0.69144 1.9586 1.3214 3.9932 1.8465 5.8534 0.82995 2.8976 1.5444 5.837 2.1828 8.7755 0.62072 1.8746 3.3647 2.3219 4.6195 0.83753 0.86072-1.0158 0.86358-2.4491 1.3104-3.6588 1.9285-6.7558 3.8521-13.54 6.5578-20.034 0.07286-0.69944 0.77691-0.71682 1.306-0.91425 3.2871-1.0693 6.6836-1.8023 10.12-2.1757 0.3623-0.03372 1.1814-0.1223 1.7216-0.1504 10.013-0.74208 20.172 1.9299 28.747 7.0928 4.9062 3.1564 9.1962 7.1547 13.448 11.122 2.208 2.0458 4.2663 4.2544 6.5194 6.2482 4.0699 3.3956 10.135 4.1207 14.878 1.7473 4.9048-2.3109 8.1536-7.7114 7.806-13.135-0.11543-3.0463-1.1196-5.9576-1.8293-8.8978-3.0581-11.167-7.0172-22.157-12.623-32.314-4.0296-7.1813-8.9559-14.091-15.653-19.017-4.9144-3.6367-10.943-5.8284-17.1-5.5898zm-9.5527 26.244c4.3195-0.11964 8.3309 2.1149 11.347 5.0612 2.9248 2.8167 5.235 6.204 7.2256 9.7259-8.7521-2.175-17.896-2.7239-26.856-1.7648-4.0532 0.55744-8.0567 1.4724-11.953 2.7219 3.4547-5.0916 7.4643-10.011 12.734-13.312 2.2685-1.3703 4.8243-2.3727 7.502-2.4316zm-48.939 29.359c0.6652 0.42697 1.1175 1.1046 1.541 1.7559-1.3636 1.1517-2.6932 2.3439-3.9883 3.5723 0.62489-1.8306 1.1468-3.8478 2.4473-5.3281zm13.189 4.5449c-0.49004 1.675-0.96982 3.3531-1.4355 5.0352-0.33388-1.6134-0.69033-3.2222-1.0742-4.8242 0.96202-0.55446 1.9374-1.0859 2.9258-1.5918-0.13867 0.46029-0.27734 0.92058-0.41602 1.3809z" fill="#fff"/>
<path fill="#15397f" d="m29.068 4.2623c-1.2288 0.59251-1.6199 2.0066-2.375 3.041-0.98245-0.75616-1.9518-1.602-3.0577-2.1323-1.4218-0.52483-3.1294 0.38907-3.4529 1.8826-0.28667 0.82002-0.52784 1.656-0.71789 2.5037-1.3888-0.68005-2.8036-1.7231-4.4338-1.3641-1.3088 0.27533-2.1028 1.6264-2.0677 2.9051-0.02445 1.1174-0.15218 2.2288-0.23492 3.3438-1.4578 0.02466-2.9363-0.0999-4.3828 0.06445-1.4676 0.32406-2.4186 1.9-2.1523 3.3574 0.25147 1.7872 1.1467 3.4117 2.1699 4.8711-1.2189 0.74534-2.508 1.4242-3.6094 2.3262-0.8323 0.81765-0.84481 2.0757-0.65039 3.1398-0.00119 0.55354 0.64936 0.86244 0.96484 1.2898 2.1628 1.9313 4.9801 2.864 7.7422 3.5625-0.06134 1.3142 0.60379 2.7249 1.8848 3.2148 0.73525 0.36652 1.5375 0.59032 2.3535 0.67969v3.7832l-4.9863-5.793h-6.125v18.09h7.207v-5.6602l4.873 5.6602h6.2402c-0.13739-0.73496 0.06473-0.90981 0.68729-0.49979 2.4571 0.93336 5.2796 1.0262 7.758 0.12674 1.343-0.54416 2.5374-1.5234 3.1992-2.8262l0.85742 3.1992h6.3164l0.6543-2.6875 0.6875 2.6875h6.3066l4.8691-18.297-7.5469 0.26172-0.63672 2.6484-0.625-2.6152c0.40004-0.64484 0.63825-1.4084 0.64258-2.1719 2.8094-0.73885 5.7236-1.767 7.7773-3.9121 0.53602-0.55172 0.77842-1.3377 0.78588-2.093-0.02894-1.2047-0.90371-2.149-1.9204-2.686-0.70521-0.61264-1.519-1.104-2.3518-1.5354 1.1178-1.6179 2.0743-3.4727 2.207-5.459 0.02237-1.6923-1.6394-3.0847-3.2988-2.8516-1.1653-0.0074-2.3335-5e-3 -3.4922 0.125-0.09111-1.4126-0.2115-2.8325-0.21484-4.2402-0.23427-1.4625-1.8451-2.7233-3.3233-2.1941-0.58156 0.11751-0.85774 0.6172-1.407 0.74677-0.55986 0.16762-1.0594 0.48996-1.5783 0.75394-0.39274-1.2799-0.52729-2.753-1.4706-3.77-0.90585-0.89443-2.5425-0.96933-3.4716-0.089418-0.82072 0.52137-1.6036 1.0996-2.3684 1.6993-0.77975-1.2307-1.3162-2.9179-2.877-3.3418-0.47822 0.012609-0.96408-0.096347-1.3555 0.25586z" fill="#fff"/>
<path fill="#15397f" d="m49.636 36.938-2.1766 9.05-2.2911-9.05h-2.9785l-2.2911 8.9355-2.062-8.9355h-3.3222l3.7804 14.091h3.2076l2.1766-8.9355 2.2911 8.9355h3.2076c1.206-4.7394 2.5114-9.4751 3.7804-14.205zm-30.701 9.05-7.7899-9.05h-3.2076v14.091h3.2076v-9.05l7.7899 9.05h3.3222v-14.091h-3.2076v9.05zm4.1241 3.093 1.9475-2.2911c1.1456 1.031 2.7494 1.7184 4.3532 1.7184 1.2601 0 2.062-0.57279 2.062-1.3747 0-0.8019-0.45823-1.2601-2.8639-1.8329-2.8639-0.68734-4.8114-1.4892-4.8114-4.3532 0-2.6348 2.062-4.3532 5.0405-4.3532 1.9475 0 3.7804 0.57279 5.3842 1.7184l-1.6038 2.4057c-1.031-0.8019-2.4057-1.3747-3.7804-1.3747-1.2601 0-1.8329 0.57279-1.8329 1.2601 0 0.91646 0.57279 1.2601 3.093 1.8329 2.9785 0.8019 4.5823 1.8329 4.5823 4.3532 0 2.8639-2.1766 4.4677-5.2696 4.4677-2.4057 0.11456-4.5823-0.68734-6.3007-2.1766z"/>
<path fill="#e3173e" d="m30.047 6.0065s-0.23001 0.1159-0.34457 0.23046c-0.11456 0.11456-0.11366 0.22777-0.22822 0.34233l-0.6869 1.1456c-0.45823 0.68734-1.0315 1.7197-1.6043 3.0944-0.11456 0.22912-0.22956 0.57144-0.45868 0.91512-0.57279 1.1456-1.0301 2.4075-1.3738 3.5531 2.062 1.9475 3.5504 4.1227 4.8105 6.643 1.1456-2.4057 2.7494-4.4673 4.5823-6.4148-0.57279-1.6038-1.1451-3.093-1.8325-4.5823s-1.4892-2.863-2.2911-4.2377l-0.22822-0.34457c-0.20048-0.30071-0.31727-0.33987-0.34233-0.34457zm-7.3321 1.0315c-0.22911 0-0.45823 0.115-0.57279 0.45868-0.45823 1.2601-0.80235 2.6348-1.0315 4.0095 0.11456 0 0.1159 0.11411 0.23046 0.11411l3.4367 2.4053c0.45823-1.2601 1.0315-2.5189 1.6042-3.7791l0.22822-0.45868c-0.68734-0.57279-1.4897-1.1456-2.177-1.7184-0.68734-0.57279-1.3738-0.91735-1.3738-0.91735-0.11456-0.11456-0.1159-0.11411-0.23046-0.11411zm14.55 0c-0.11456 0-0.1159-4.475e-4 -0.23046 0.11411 0 0-0.57189 0.34457-1.3738 0.91735-0.45823 0.34367-1.2606 0.91646-2.177 1.7184 0.11456 0.11456 0.11366 0.34412 0.22822 0.45868 0.57279 1.2601 1.146 2.5189 1.6042 3.7791l3.4367-2.4053 0.23046-0.11411c-0.22912-1.3747-0.57323-2.6348-1.0315-4.0095-0.11456-0.22911-0.22912-0.45868-0.57279-0.45868zm7.1017 2.8639c-0.11456 0-0.22822-4.47e-4 -0.22822 0.11411-0.11456 0-0.23001 0.1159-0.34457 0.23046-0.22912 0.11456-0.57324 0.22956-1.0315 0.45868h-0.11411c-1.2601 0.57279-2.5194 1.2588-3.6649 2.0607h-0.11635l-0.34233 0.34457c0.34367 0.22912 0.6869 0.57323 0.6869 1.0315 0.45823 2.4057 0.6869 4.8101 0.6869 7.2158 0 2.1766-0.22777 4.4686-0.91512 6.6452-0.45823 1.4892-1.2619 2.7485-2.4075 3.6649-0.11456 0.11456-0.22777 0.23046-0.34233 0.23046 0.57279 0 1.1456-0.11545 1.7184-0.34457 2.062-0.8019 3.7799-2.2903 4.6964-4.2377 1.9475-3.3222 2.4048-7.4467 2.5194-10.769v-1.2597c0-1.2601 8.95e-4 -2.407-0.22822-3.6672 0.11456-0.68734 0-1.1456 0-1.1456-0.11456-0.34367-0.22912-0.57279-0.57279-0.57279zm-28.753 0.23046c-0.34367 0-0.45823 0.22732-0.57279 0.45644 0 0-0.11411 0.57413-0.11411 1.376 0 0.8019-0.23046 2.0616-0.23046 3.5508v1.2597c0 3.6658 0.9178 7.3326 2.5216 10.655 1.031 1.9475 2.7485 3.4358 4.8105 4.2377 0.57279 0.22911 1.1451 0.34457 1.8325 0.34457l-0.34233-0.23046c-1.1456-1.031-2.0634-2.2903-2.5216-3.6649-0.68734-2.1766-0.91512-4.3541-0.91512-6.6452 0-2.4057 0.22822-4.8101 0.80101-7.2158 0.11456-0.45823 0.34278-0.80235 0.80101-1.0315-0.11456-0.11456-0.34188-0.23001-0.45644-0.34457-1.6038-1.031-3.209-1.8316-4.8128-2.6335l-0.57279-0.11411zm6.4036 3.7791c-0.11097 0.01355-0.2224 0.23359-0.33338 0.34457 0 0.11456 4.47e-4 0.22912-0.11411 0.57279-0.11456 0.34367-0.11366 0.80056-0.22822 1.4879-0.22912 1.6038-0.34457 3.3231-0.34457 4.9269 0 2.1766 0.23046 4.2386 0.80324 6.3007 0.57279 1.8329 1.8325 3.3217 3.5508 4.1236 0.11456 0 0.11366-4.47e-4 0.22822 0.11411 0.68734 0.34367 1.4892 0.57279 2.2911 0.57279 0.34367 0 0.68779 4.47e-4 1.0315-0.11411 0.11456 0 0.34412-0.11366 0.45868-0.22822-0.11456-0.22912-0.23001-0.34367-0.34457-0.57279-0.34367-0.91646-0.57279-1.8334-0.57279-2.7498 0-1.6038 0.34457-3.2067 0.91736-4.8105 0-0.11456 0.11411-0.34412 0.11411-0.45868v-0.23046c-1.9475-4.8114-6.4148-8.4759-6.9876-8.9341l-0.23046-0.23046c-0.11456 0-0.11366-0.11411-0.22822-0.11411-0.0036 0-0.0076-4.37e-4 -0.01123 0zm15.935 0c-0.11456 0-0.1159-4.47e-4 -0.23046 0.11411l-0.22822 0.23046-0.57279 0.57279c-0.8019 0.68734-1.4897 1.3733-2.177 2.0607-1.9475 2.062-3.4354 4.5832-4.3518 7.218-0.45823 1.4892-0.80324 2.9789-0.80324 4.4682 0 0.8019 0.11501 1.6038 0.45868 2.2911 0.22912 0.57279 0.68645 1.0306 1.3738 1.2597 0.22912 0.34367 0.57413 0.34457 0.80324 0.34457 0.68734 0 1.3733-0.22956 2.0607-0.45868l0.45868-0.23046c1.6038-0.91646 2.7498-2.2907 3.3226-4.1236 0.57279-2.062 0.91556-4.1241 0.80101-6.3007 0-2.1766-0.22912-4.3523-0.57279-6.5289 0-0.34367-0.11411-0.57279-0.11411-0.57279 0-0.22912-0.11366-0.34457-0.22822-0.34457zm11.57 2.4053c-0.45823 0-1.261 0.0018-2.0629 0.11635-0.34367 0-0.68556-4.47e-4 -1.0292 0.11411v0.57279c0 1.3747-0.11545 2.6353-0.34457 3.8954 1.031 0.45823 2.0629 0.91512 3.2085 1.4879 2.2911-2.7494 2.5189-4.6969 2.6335-5.1551 0-0.22912 4.48e-4 -0.34367-0.11411-0.57279-0.11456-0.22912-0.45778-0.45868-0.6869-0.45868zm-40.554 0.11635c-0.34367 0-0.57234 0.22732-0.6869 0.45644-0.11456 0.11456-0.11411 0.34367-0.11411 0.57279 0 0.45823 0.34233 2.4057 2.6335 5.1551 0-0.11456 0.0018-0.22822 0.11635-0.22822 1.031-0.57279 2.1752-1.0301 3.2063-1.3738-0.22911-1.2601-0.34233-2.6348-0.34233-4.0095v-0.57279c-0.57279 0.11456-0.91825 0-1.2619 0zm5.2692 5.6115c-1.031 0.34367-1.9457 0.80369-2.7476 1.2619-0.11456 0.11456-0.34412 0.11366-0.45868 0.22822-1.4892 0.8019-2.8653 1.6029-4.24 2.5194-0.22911 0.11456-0.34233 0.23046-0.34233 0.23046-0.34367 0.11456-0.45868 0.45733-0.45868 0.80101 0 0.11456-4.475e-4 0.22956 0.11411 0.45868v0.11411l0.11411 0.11411c0.11456 0.22912 0.34412 0.34412 0.45868 0.45868 0.8019 0.68734 1.7193 1.146 2.6357 1.6042 3.4367 1.3747 6.9884 2.0625 10.769 2.177l-0.57279-0.45868c-1.2601-0.91646-2.4066-2.1761-3.2085-3.5508-1.031-1.8329-1.7193-3.8963-2.0629-5.9583zm31.62 0c-0.34367 2.062-1.146 4.1254-2.177 5.9583-0.8019 1.3747-1.8338 2.6344-3.2085 3.5508l-0.57279 0.34457c10.539-0.57279 13.632-4.0104 13.861-4.3541 0-0.11456 0.11635-0.11366 0.11635-0.22822 0-0.11456 0.11411-0.23001 0.11411-0.34457 0-0.22912-0.11545-0.57234-0.34457-0.6869l-0.34233-0.23046c-0.22912-0.11456-0.46002-0.22732-0.68913-0.45644-0.11456 0-0.22822-0.1159-0.22822-0.23046-0.45823-0.22912-1.031-0.68779-1.7184-1.0315l-0.22822-0.11411-1.4901-0.80101-0.34457-0.11411c-0.91646-0.45823-1.8311-0.91825-2.7476-1.2619zm-30.244 10.655c-0.57279 0-0.80324 0.11545-0.80324 0.34457v0.34233c0 0.22911 0.1159 0.45778 0.23046 0.6869 0 0.11456 0.11366 0.1159 0.22822 0.23046 1.031 0.57279 2.177 0.80145 3.3226 0.6869 1.3747 0 2.6353-0.22912 3.8954-0.57279a15.122 15.122 0 0 1 6.1865-0.57279h0.22822c-0.11456-0.22912-0.11366-0.23001-0.22822-0.34457-0.22912-0.11456-0.46002-0.11411-0.68913-0.11411-0.68734-0.11456-1.4875-0.22822-2.1748-0.22822h-5.1551c-0.68734 0-1.3756 4.46e-4 -2.0629-0.11411-0.22912 0-0.34367-0.0018-0.57279-0.11635-0.68734-0.11456-1.6034-0.22822-2.4053-0.22822zm28.868 0c-0.8019 0-1.7175 0.11366-2.5194 0.22822-0.22912 0-0.34367 0.0018-0.57279 0.11635-0.68734 0.11456-1.3756 0.11411-2.0629 0.11411h-5.1551c-0.68734 0-1.4897 0.11366-2.177 0.22822l-0.6869 0.11411c-0.11456 0-0.11411 0.11635-0.11411 0.11635h0.22822c0.57279 0 1.1456-0.11635 1.7184-0.11635 1.4892 0 3.093 0.2309 4.5823 0.68913 1.2601 0.34367 2.5207 0.57279 3.8954 0.57279 1.2601 0.11456 2.4057-0.23046 3.4367-0.80324l0.11411-0.11411c0.11456-0.22912 0.23046-0.45778 0.23046-0.6869v-0.23046c-0.11456-0.11456-0.34457-0.22822-0.91736-0.22822z"/>
<linearGradient id="c" x1="66.5" x2="112.63" y1="-1780.9" y2="-1780.9" gradientTransform="matrix(2.3829 0 0 2.3829 -150.46 4344.8)" gradientUnits="userSpaceOnUse">
<stop stop-color="#ed1a3b" offset="0"/>
<stop stop-color="#ee223a" offset=".02"/>
<stop stop-color="#f0532e" offset=".23"/>
<stop stop-color="#f26825" offset=".4"/>
<stop stop-color="#f37021" offset=".5"/>
<stop stop-color="#fdb913" offset="1"/>
</linearGradient>
<linearGradient id="b" x1="66.5" x2="74.93" y1="12.42" y2="12.42" gradientTransform="matrix(2.3829 0 0 -2.3829 -150.46 133.11)" gradientUnits="userSpaceOnUse">
<stop stop-color="#8dc63f" offset="0"/>
<stop stop-color="#84c442" offset=".17"/>
<stop stop-color="#68bd49" offset=".44"/>
<stop stop-color="#1cb254" offset=".78"/>
<stop stop-color="#00ac5b" offset="1"/>
</linearGradient>
<linearGradient id="a" x1="74.33" x2="113.47" y1="21.56" y2="21.56" gradientTransform="matrix(2.3829 0 0 -2.3829 -150.46 133.11)" gradientUnits="userSpaceOnUse">
<stop stop-color="#00b3f0" offset="0"/>
<stop stop-color="#00a5e5" offset=".1"/>
<stop stop-color="#0092d6" offset=".29"/>
<stop stop-color="#0084ca" offset=".47"/>
<stop stop-color="#007ac2" offset=".65"/>
<stop stop-color="#0074bd" offset=".83"/>
<stop stop-color="#0072bc" offset="1"/>
</linearGradient>
<path d="m65.189 88.072c0.23829 0 0.23829-0.47658 0-0.47658-0.23829 0.23829-0.23829 0.47658 0 0.47658z"/>
<path d="m9.4285 111.9c-0.081885 0.39453-0.52448 0.60816-0.85727 0.54532-0.31786-0.06-0.61048-0.30855-0.57247-0.78361 0.43871-5.4838 10.065-56.75 20.239 7.3621 0.12117 0.76355-0.34587 0.90637-0.70317 0.96704-0.31735 0.0539-0.67796-0.2244-0.72657-0.49046 0-0.22467-5.2264-24.757-10.707-24.519-2.1446 0.23829-4.0983 4.5176-6.6721 16.919z" fill="url(#b)"/>
<path d="m8.237 111.1c-0.23829 0.23828-0.32334 0.86415-0.066038 1.1484 0.22817 0.25211 0.69267 0.32038 1.0192 0.043 10.286-8.7381 26.212-21.357 47.658-20.165 7.974 0.54764 15.717 2.9114 22.638 6.9104 7.1487 4.051 18.185 15.362 20.332 17.414 2.1724 2.0752 5.1649 3.3332 8.2626 3.3332 5.7392 0 10.677-3.9266 9.7699-10.501-0.23829-2.8595-1.668-5.719-4.2892-8.1019-0.47658-0.47656-19.54-21.923-55.76-18.587-23.829 3.0978-40.271 17.783-49.564 28.506" fill="url(#c)"/>
<path d="m119.52 104.04c-0.71488-2.8595-15.251-68.628-50.279-59.811-7.8636 1.9063-14.059 8.8168-19.063 15.489-13.583 17.872-21.356 51.951-23.363 59.311-0.1402 0.51405 0.08696 0.8098 0.40293 0.92507 0.36257 0.13225 0.90163 7.2e-4 1.0372-0.51446 1.0591-4.0245 3.8126-13.493 5.2424-17.306 4.2892-13.106 17.634-36.697 32.169-36.458 19.063 0.23829 28.357 35.744 30.978 45.514 1.6238 5.6202 7.0877 9.2301 12.894 8.5191s10.238-5.5326 10.458-11.379c0-0.71487 0-2.3829-0.47658-4.2892z" fill="url(#a)"/>
<path d="m116.9 108.09c0 4.7658-4.0509 8.8168-8.8168 8.8168s-8.8168-4.0509-8.8168-8.8168c0-4.7658 4.0509-8.8168 8.8168-8.8168s8.8168 4.0509 8.8168 8.8168z" fill="#00b3f0"/>
</svg>
