<svg xmlns="http://www.w3.org/2000/svg" viewBox="0 0 512 512"><path d="M206.7 3a7.9 7.9 0 0 0-7.8 7.9v27a7.9 7.9 0 0 0 7.8 7.8h18v27.5A219.3 219.3 0 0 0 32 290.7 219.3 219.3 0 0 0 251.4 510a219.3 219.3 0 0 0 219.4-219.3A219.3 219.3 0 0 0 424.2 156l9.3-9.3 7.3 7.2a7.9 7.9 0 0 0 5.5 2.3c2 0 4-.7 5.6-2.3l25.7-25.6a7.9 7.9 0 0 0 0-11.2l-41.3-41.3a7.9 7.9 0 0 0-11.2 0l-25.6 25.7a7.9 7.9 0 0 0 0 11.1l7.2 7.3-8.3 8.3A219.3 219.3 0 0 0 272 72.5V45.7h18a7.9 7.9 0 0 0 7.8-7.9V11a7.9 7.9 0 0 0-7.8-8zm50.5 98.5a188.5 188.5 0 0 1 120.3 48.2L362 165.4a8.8 8.8 0 0 0 0 12.5 8.8 8.8 0 0 0 6.2 2.6 8.8 8.8 0 0 0 6.3-2.6L390 162c29.6 32 48.4 74 50.4 120.4H418a8.8 8.8 0 1 0 0 17.7h22.3a188 188 0 0 1-51 119.7L373.6 404a8.8 8.8 0 0 0-12.5 0 8.8 8.8 0 0 0 0 12.5l15.6 15.7a188.4 188.4 0 0 1-119.6 47.5V455a8.8 8.8 0 0 0-17.6 0v24.5c-45-2.8-85.7-21.3-116.7-50.1l16.6-16.7a8.8 8.8 0 0 0 0-12.5 8.8 8.8 0 0 0-12.5 0l-16.5 16.6c-28-31.3-45.8-72-48-116.6h23.7a8.8 8.8 0 1 0 0-17.7H62.4c2-44.8 19.5-85.7 47.4-117.2l15.7 15.6a8.8 8.8 0 0 0 6.2 2.6 8.8 8.8 0 0 0 6.3-2.6 8.8 8.8 0 0 0 0-12.5l-15.8-15.8c31.1-29.2 72.1-48 117.3-50.8v21.3a8.8 8.8 0 0 0 17.7 0zm-8.9 54.6-20.7 31v103.5a20.7 20.7 0 0 0 6 14.6l73.2 73.2 36.6 7.3-7.3-36.6L269 282v-94.9z"/></svg>