<svg
  xmlns="http://www.w3.org/2000/svg" viewBox="0 0 720 720">
  <defs>
    <style> .cls-1 { fill: #929497; } .cls-2 { fill: #3fac49; } .cls-3 { fill: #58595b; } </style>
  </defs>
  <rect width="720" height="720" x="0" y="0" rx="120" ry="120" fill="#fff"/>
  <g>
    <path class="cls-2" d="m313.85,335.73c.03-.2.07-.41.11-.62.16-.96.33-1.93.51-2.9.18-1,.38-2,.59-3,.2-.98.42-1.96.65-2.94.23-1.01.48-2.02.74-3.04.25-.99.52-1.99.8-2.99.29-1.02.59-2.05.9-3.07.31-1,.63-2.01.96-3.01.34-1.04.7-2.07,1.08-3.11.36-1.01.74-2.02,1.13-3.03.4-1.05.83-2.09,1.26-3.14.42-1.02.86-2.03,1.31-3.05.47-1.05.96-2.11,1.46-3.16.48-1.02.97-2.03,1.49-3.05.54-1.06,1.1-2.12,1.67-3.19.55-1.01,1.1-2.03,1.68-3.04.61-1.07,1.25-2.13,1.89-3.2.61-1.01,1.23-2.02,1.88-3.03.27-.42.51-.85.79-1.27.81-1.24,1.65-2.48,2.52-3.72-16.55-27.96-20.24-53.87-21.03-66.45-3.82-61.19,28.12-103.35,35.05-111.73h-152.78v205.74c23.52,17.34,62.5,36.48,115.34,30.01Z"/>
    <path class="cls-2" d="m323.2,415.76s-.46-1-1.18-2.82c-.04-.09-.06-.16-.1-.25-.13-.34-.29-.75-.44-1.15-.07-.19-.13-.35-.21-.55-.14-.38-.29-.81-.44-1.22-.1-.27-.19-.52-.29-.81-.14-.41-.29-.86-.45-1.31-.12-.35-.23-.69-.36-1.06-.15-.44-.3-.93-.45-1.4-.14-.43-.27-.84-.41-1.29-.15-.48-.3-.99-.44-1.5-.14-.49-.29-.97-.43-1.48-.15-.53-.3-1.08-.45-1.63-.15-.54-.29-1.07-.44-1.63-.15-.57-.29-1.16-.44-1.75-.15-.59-.29-1.18-.44-1.79-.14-.6-.28-1.23-.42-1.85-.14-.65-.29-1.28-.43-1.95-.13-.64-.26-1.31-.39-1.97-.13-.69-.27-1.37-.4-2.07-.12-.68-.24-1.38-.36-2.08-.12-.73-.25-1.45-.36-2.2-.11-.72-.21-1.46-.32-2.2-.11-.76-.21-1.52-.31-2.3-.09-.76-.18-1.53-.26-2.3-.09-.8-.18-1.6-.25-2.41-.07-.78-.14-1.59-.2-2.39-.07-.83-.13-1.67-.18-2.52-.05-.82-.09-1.65-.13-2.48-.04-.86-.08-1.72-.1-2.6-.02-.85-.04-1.71-.05-2.57-.01-.89-.02-1.78-.01-2.68,0-.33,0-.64,0-.97-.02,0-.03,0-.05,0-49.59,5.24-89.3-11.74-113.52-26.53v92.93h127.64c-.85-2.14-2.07-5.2-2.94-7.22h0Z"/>
    <path class="cls-2" d="m367.35,315.22c-.48-.44-.96-.88-1.43-1.32-1.16-1.1-2.28-2.2-3.38-3.3-.29-.29-.59-.57-.87-.86-1.35-1.37-2.66-2.74-3.93-4.11h0c-2.64-2.87-5.11-5.75-7.43-8.64-.19.32-.41.64-.59.96-.4.69-.76,1.38-1.15,2.07-.76,1.35-1.51,2.71-2.2,4.05-.41.79-.78,1.58-1.17,2.37-.61,1.24-1.21,2.48-1.76,3.71-.37.83-.72,1.65-1.07,2.47-.51,1.19-1,2.38-1.46,3.56-.33.83-.63,1.66-.94,2.49-.43,1.16-.83,2.32-1.22,3.47-.27.82-.54,1.65-.79,2.47-.36,1.15-.69,2.29-1,3.43-.22.8-.45,1.6-.65,2.4-.07.27-.12.53-.19.79,8-2.24,16.58-5.32,25.42-9.43,1.38-.64,2.77-1.34,4.15-2.03.94-.47,1.88-.92,2.82-1.41.47-.24.94-.52,1.4-.77-.88-.78-1.73-1.57-2.58-2.36Z"/>
    <path class="cls-2" d="m336.16,198.6c0,17.23,3.82,39.89,15.1,62.22.18-.2.37-.38.55-.57.72-.76,1.44-1.49,2.17-2.23.95-.97,1.91-1.93,2.87-2.86.29-.28.58-.59.87-.87l.03.03c32.19-30.48,69.31-37.83,92.99-38.99,8.44-33.93,6.7-74.25-15.02-115.35h-56.65c-8.12,7.72-42.92,43.98-42.92,98.62Z"/>
    <path class="cls-2" d="m471.31,215.78c7.97.82,27.91,4,50.19,15.37V99.98h-62.26c18.89,46.12,18.43,85.89,12.07,115.8Z"/>
    <path class="cls-2" d="m446.91,273.92c-.8,1.04-1.63,2.14-2.49,3.28-.21.28-.43.57-.65.86-.77,1.03-1.56,2.07-2.38,3.17-.81,1.08-1.65,2.19-2.51,3.32-.26.34-.52.68-.79,1.03-.79,1.03-1.6,2.08-2.44,3.15-.18.23-.36.46-.54.7-.99,1.25-2.01,2.52-3.07,3.81-.26.32-.53.64-.79.95-.92,1.12-1.87,2.25-2.85,3.38-.22.26-.44.51-.66.77-1.17,1.34-2.38,2.7-3.63,4.06-.27.29-.54.59-.82.88-1.08,1.16-2.18,2.32-3.32,3.49-.29.3-.57.59-.87.89-1.37,1.38-2.78,2.76-4.24,4.14-.27.26-.56.52-.84.77-1.26,1.17-2.56,2.34-3.89,3.51-.37.32-.72.64-1.1.96-.66.57-1.34,1.13-2.02,1.7.84.48,1.66.97,2.51,1.44,5.15,2.82,10.35,5.22,15.58,7.28,33.05,12.99,67.04,11.2,95.29,1.36.36-.13.73-.25,1.1-.37v-73.98c-19.51-12.1-39.68-16.42-55.88-18.07-1.52,4.44-3.12,8.52-4.73,12.25-5.98,13.88-11.99,22.69-13.99,25.28Z"/>
    <path class="cls-2" d="m393.38,335.42s-.03-.02-.04-.03c-1.69-1.1-3.34-2.21-4.96-3.33-.95.58-1.93,1.15-2.91,1.72-.54.31-1.09.63-1.64.94-2.14,1.21-4.31,2.39-6.58,3.53-.06.03-.13.06-.2.09-2.19,1.1-4.47,2.16-6.8,3.19-.32.14-.62.3-.94.44v-.03c-10.72,4.68-22.81,8.62-36.53,11.41-.08,1.48-.15,2.95-.17,4.4-.01.6,0,1.19,0,1.79,0,1.1,0,2.19.02,3.26.02.67.05,1.33.07,2,.04.97.08,1.94.14,2.89.04.69.1,1.37.15,2.05.07.9.14,1.79.23,2.67.07.68.15,1.36.22,2.03.1.85.2,1.68.32,2.51.09.66.19,1.32.28,1.97.12.8.25,1.59.39,2.38.11.63.22,1.27.34,1.88.15.77.3,1.52.45,2.27.12.59.24,1.19.37,1.77.16.74.34,1.45.51,2.17.13.55.26,1.12.4,1.65.18.72.37,1.41.56,2.11.13.49.27,1,.4,1.48.23.8.46,1.57.7,2.33.24.78.48,1.53.72,2.26.19.58.38,1.17.57,1.72.18.51.35.99.53,1.48.16.45.32.91.48,1.34.18.49.36.94.54,1.41.15.38.3.77.44,1.13.18.46.36.89.54,1.32.13.31.26.63.39.93.18.42.35.82.52,1.21.11.25.22.5.33.73.17.38.34.75.5,1.1.08.18.17.35.25.52.17.35.33.69.48.99.05.1.1.2.14.29.75,1.52,1.22,2.34,1.22,2.34,1.76,2.97,3.34,5.54,4.39,7.22h171.31v-73.06c-12.99,4.19-25.57,6.38-37.47,7.12-45.28,2.82-80.64-15.12-90.65-21.62Z"/>
    <path class="cls-2" d="m362.58,279.36c3.11,4.29,6.55,8.5,10.36,12.59.22.23.43.47.65.7,4.42,4.69,9.34,9.2,14.76,13.5.42-.3.84-.57,1.27-.88,1.33-.97,2.65-2.01,3.98-3.03,1-.77,2.01-1.51,3.01-2.32,1.37-1.1,2.72-2.3,4.08-3.46.94-.81,1.9-1.58,2.83-2.42,1.51-1.36,3-2.81,4.49-4.25.77-.74,1.55-1.43,2.31-2.2,2.25-2.25,4.47-4.59,6.66-7.03,10.42-11.62,20.02-26.76,27.04-44.36-26.59,2.75-55.99,16.48-75.35,36.34-.5.51-1.03,1.01-1.51,1.53-1.47,1.58-2.89,3.19-4.23,4.84-.12.15-.23.3-.35.45Z"/>
  </g>
  <g>
    <g>
      <path class="cls-3" d="m66.42,536.71v-45.05h-16.42v-16.15h51.29v16.15h-16.33v45.05h-18.53Z"/>
      <path class="cls-3" d="m101.92,506.16c0-18.81,14.59-31.66,33.49-31.66s33.49,12.85,33.49,31.66-14.59,31.65-33.49,31.65-33.49-12.84-33.49-31.65Zm48.17,0c0-8.53-5.78-15.32-14.68-15.32s-14.68,6.79-14.68,15.32,5.78,15.32,14.68,15.32,14.68-6.79,14.68-15.32Z"/>
      <path class="cls-3" d="m172.32,506.08c0-18.81,14.59-31.66,33.49-31.66s33.49,12.85,33.49,31.66-14.59,31.65-33.49,31.65-33.49-12.84-33.49-31.65Zm48.17,0c0-8.53-5.78-15.32-14.68-15.32s-14.68,6.79-14.68,15.32,5.78,15.32,14.68,15.32,14.68-6.79,14.68-15.32Z"/>
      <path class="cls-3" d="m289.86,536.63l-7.89-34.68-7.89,34.68h-19.45l-17.53-61.2h20.74l7.89,37.44,9.27-37.44h13.95l9.27,37.44,7.8-37.44h20.83l-17.52,61.2h-19.45Z"/>
      <path class="cls-3" d="m324.63,506.08c0-18.81,14.59-31.66,33.49-31.66s33.49,12.85,33.49,31.66-14.59,31.65-33.49,31.65-33.49-12.84-33.49-31.65Zm48.17,0c0-8.53-5.78-15.32-14.68-15.32s-14.68,6.79-14.68,15.32,5.78,15.32,14.68,15.32,14.68-6.79,14.68-15.32Z"/>
      <path class="cls-3" d="m395.75,506.08c0-18.81,14.59-31.66,33.49-31.66s33.49,12.85,33.49,31.66-14.59,31.65-33.49,31.65-33.49-12.84-33.49-31.65Zm48.17,0c0-8.53-5.78-15.32-14.68-15.32s-14.68,6.79-14.68,15.32,5.78,15.32,14.68,15.32,14.68-6.79,14.68-15.32Z"/>
      <path class="cls-3" d="m521.16,536.63v-36.79l-13.67,36.79h-8.26l-13.67-36.79v36.79h-18.53v-61.2h25.6l10.73,29.36,10.74-29.36h25.6v61.2h-18.53Z"/>
      <path class="cls-3" d="m545.03,536.63v-61.2h37.16c12.66,0,18.17,8.44,18.17,15.6,0,7.62-4.5,12.75-10.46,14.04,6.61,1.01,11.65,7.07,11.65,14.96,0,8.53-5.78,16.61-18.08,16.61h-38.45Zm36.52-42.3c0-2.11-1.74-3.49-3.67-3.49h-14.31v7.16h14.31c1.93,0,3.67-1.47,3.67-3.67Zm1.19,23.03c0-2.2-1.65-3.95-4.31-3.95h-14.86v7.8h14.86c2.66,0,4.31-1.56,4.31-3.85Z"/>
      <path class="cls-3" d="m648.99,536.63l-2.2-7.16h-22.02l-2.2,7.16h-21.01l22.57-61.2h23.31l22.57,61.2h-21.01Zm-13.21-43.03l-6.06,19.73h12.11l-6.06-19.73Z"/>
    </g>
    <g>
      <path class="cls-1" d="m227.57,618.92l-8.44-19.27h-6.7v19.27h-18.53v-61.2h32.67c14.31,0,22.02,9.54,22.02,21.01,0,10.55-6.15,16.15-11.01,18.53l11.1,21.65h-21.1Zm2.2-40.28c0-3.3-2.94-4.77-6.06-4.77h-11.29v9.63h11.29c3.12,0,6.06-1.47,6.06-4.86Z"/>
      <path class="cls-1" d="m253.97,618.92v-61.2h46.43v16.15h-27.89v6.06h27.25v16.15h-27.25v6.7h27.89v16.15h-46.43Z"/>
      <path class="cls-1" d="m305.38,588.36c0-19.64,15.14-31.66,33.67-31.66,14.59,0,23.03,8.07,26.88,15.97l-15.6,7.98c-1.74-3.76-5.78-7.62-11.29-7.62-8.9,0-14.86,6.79-14.86,15.32s5.96,15.32,14.86,15.32c3.49,0,7.62-1.28,9.54-2.75v-2.2h-11.38v-16.15h29.82v25.05c-6.79,7.52-15.97,12.39-27.99,12.39-18.53,0-33.67-12.11-33.67-31.65Z"/>
      <path class="cls-1" d="m372.38,618.92v-61.2h18.53v61.2h-18.53Z"/>
      <path class="cls-1" d="m395.37,588.36c0-18.81,14.59-31.66,33.49-31.66s33.49,12.85,33.49,31.66-14.59,31.65-33.49,31.65-33.49-12.85-33.49-31.65Zm48.17,0c0-8.53-5.78-15.32-14.68-15.32s-14.68,6.79-14.68,15.32,5.78,15.32,14.68,15.32,14.68-6.79,14.68-15.32Z"/>
      <path class="cls-1" d="m508.31,618.92l-22.57-31.01v31.01h-18.53v-61.2h19.08l21.29,28.99v-28.99h18.53v61.2h-17.8Z"/>
    </g>
  </g>
</svg>