<svg xmlns="http://www.w3.org/2000/svg" viewBox="0 0 32 32">
  <path d="M16 3c-2.68 0-5 2.5-5 5.6 0 7-4 7.7-4 12.6 0 5.41 4.03 9.8 9 9.8s9-4.39 9-9.8c0-4.9-4-5.6-4-12.6C21 5.5 18.68 3 16 3z" opacity=".2"/>
  <path fill="#4f4f4f" d="M16 2c-2.68 0-5 2.5-5 5.6 0 7-4 7.7-4 12.6 0 5.41 4.03 9.8 9 9.8s9-4.39 9-9.8c0-4.9-4-5.6-4-12.6C21 4.5 18.68 2 16 2z"/>
  <path d="M16 11c-1.79 0-3 1.52-3 3.4 0 4.25-3 4.67-3 7.65A5.98 5.98 0 0 0 16 28c3.31 0 6-2.66 6-5.95 0-2.98-3-3.4-3-7.65 0-1.88-1.21-3.4-3-3.4z" opacity=".1"/>
  <path fill="#fff" d="M16 10c-1.79 0-3 1.52-3 3.4 0 4.25-3 4.67-3 7.65A5.98 5.98 0 0 0 16 27c3.31 0 6-2.66 6-5.95 0-2.98-3-3.4-3-7.65 0-1.88-1.21-3.4-3-3.4z"/>
  <path d="M11.52 30.98c-.3-.05-.57-.14-1.15-.4-.87-.37-1.28-.49-2.87-.85-.8-.18-1.09-.26-1.78-.48a9.43 9.43 0 0 0-.74-.23 1.89 1.89 0 0 1-.7-.3.76.76 0 0 1-.27-.72c.02-.18.09-.36.27-.73.23-.5.83-.68.86-1.17.03-.3 0-.62-.07-1.3-.04-.4-.05-.55-.05-.8 0-.28 0-.08.03-.19.1-.4.19-.63.57-.72.1-.03-.12-.04.4-.05.31 0 .5-.01.54-.02.22-.06.38-.14.54-.28.14-.14.24-.88.42-1.21.3-.52.87-.51 1.34-.53.13.03.18.05.32.13.15.08.2.12.32.25.32.35.47.56 1.2 1.65.57.86.74 1.14.97 1.55.25.44.7 1.15.87 1.36l.39.5.37.48c.35.48.59 1.04.68 1.59.03.2.03.22.01.45a1.53 1.53 0 0 1-.13.6 2.2 2.2 0 0 1-1.69 1.42c-.16.03-.48.03-.65 0z" opacity=".2"/>
  <path fill="#eab108" d="M11.52 29.98c-.3-.05-.57-.14-1.15-.39a12.9 12.9 0 0 0-2.87-.86c-.8-.18-1.09-.26-1.78-.48a9.43 9.43 0 0 0-.74-.23 1.89 1.89 0 0 1-.7-.3.76.76 0 0 1-.27-.72c.02-.18.09-.36.27-.73.23-.5.83-.68.86-1.17.03-.3 0-.62-.07-1.3-.04-.4-.05-.54-.05-.8 0-.28 0-.08.03-.19.1-.4.19-.62.57-.72.1-.03-.12-.04.4-.05.31 0 .5-.01.54-.02.22-.06.38-.14.54-.28.14-.14.24-.88.42-1.21.3-.52.87-.51 1.34-.53.13.03.18.05.32.13a1 1 0 0 1 .32.26c.32.34.47.55 1.2 1.64.57.86.74 1.14.97 1.55.25.44.7 1.15.87 1.36l.39.5.37.48c.35.48.59 1.04.68 1.59.03.2.03.22.01.45a1.53 1.53 0 0 1-.13.6 2.2 2.2 0 0 1-1.69 1.42c-.16.03-.48.03-.65 0z"/>
  <path d="M23.21 30.65c.23-.17.42-.35.8-.79.56-.66.55-.92 1.71-1.86.59-.47.8-.66 1.28-1.12a28 28 0 0 1 .52-.49c.3-.27.38-.35.46-.52a.67.67 0 0 0-.07-.7 2.7 2.7 0 0 0-.53-.48c-.4-.3-.52-.57-.76-.95-.14-.23.04-.8-.18-1.38a5.76 5.76 0 0 0-.49-1 .87.87 0 0 0-.89-.3c-.1.02-.16.04-.6.24-.26.13-.5.23-.54.24a.99.99 0 0 1-.56 0c-.18-.06-.32.3-.6.11-.2-.13-.43-.3-.58-.33-.21-.06-.21-.06-.41-.04a.92.92 0 0 0-.5.2.8.8 0 0 0-.2.24.96.96 0 0 0-.17.33c-.12.4-.16.64-.3 1.82-.12.93-.15 1.23-.17 1.65a14.66 14.66 0 0 1-.38 2.56c-.09.53-.06 1.08.1 1.56.05.17.07.2.17.37a1.38 1.38 0 0 0 .36.44c.53.49 1.3.67 1.99.46.14-.04.41-.18.54-.27z" opacity=".2"/>
  <path fill="#eab108" d="M23.21 29.65c.23-.17.42-.35.8-.79.56-.66.55-.92 1.71-1.86.59-.47.8-.66 1.28-1.12a28 28 0 0 1 .52-.49c.3-.27.38-.35.46-.52a.67.67 0 0 0-.07-.7 2.7 2.7 0 0 0-.53-.48c-.4-.3-.52-.57-.76-.95-.14-.23.04-.8-.18-1.38a5.76 5.76 0 0 0-.49-1 .87.87 0 0 0-.89-.3c-.1.02-.16.04-.6.24a8.2 8.2 0 0 1-.54.24.99.99 0 0 1-.56 0c-.18-.06-.32.3-.6.11-.2-.13-.43-.3-.58-.33-.21-.06-.21-.06-.41-.04a.92.92 0 0 0-.5.2.8.8 0 0 0-.2.24.96.96 0 0 0-.17.33c-.12.4-.16.64-.3 1.82-.12.93-.15 1.23-.17 1.65a14.66 14.66 0 0 1-.38 2.56c-.09.53-.06 1.08.1 1.56.05.17.07.2.17.37a1.38 1.38 0 0 0 .36.44c.53.49 1.3.67 1.99.46.14-.04.41-.18.54-.27z"/>
  <circle cx="14" cy="8" r="2" opacity=".1"/>
  <circle cx="14" cy="7" r="2" fill="#fff"/>
  <circle cx="14" cy="7" r="1" fill="#323232"/>
  <path d="M19 10.5c0 1.93-1.34 3.5-3 3.5s-3-1.57-3-3.5z" opacity=".1"/>
  <path fill="#f77d00" d="M19 9.5c0 1.93-1.34 3.5-3 3.5s-3-1.57-3-3.5z"/>
  <circle cx="18" cy="8" r="2" opacity=".1"/>
  <circle cx="18" cy="7" r="2" fill="#fff"/>
  <circle cx="18" cy="7" r="1" fill="#323232"/>
  <path fill="#eab108" d="M19 9.67C19 10 17.66 12 16 12s-3-2-3-2.33C13 8.75 14.34 8 16 8s3 .75 3 1.67z"/>
  <path fill="#fff" d="M25.31 20.03c-.08 0-.16 0-.25.02-.1.03-.16.05-.6.25-.26.13-.5.23-.54.24a.99.99 0 0 1-.56 0c-.18-.06-.31.3-.6.11-.2-.13-.42-.3-.58-.33-.21-.06-.21-.06-.41-.04a.92.92 0 0 0-.5.2.8.8 0 0 0-.2.24.96.96 0 0 0-.17.33c-.12.4-.16.64-.3 1.82-.12.93-.15 1.23-.17 1.65-.02.46-.1 1.22-.16 1.46l-.11.56-.11.54c-.06.37-.06.74 0 1.1v-.1l.1-.54.12-.56c.05-.24.14-1 .16-1.46.02-.42.05-.72.17-1.65.14-1.18.18-1.41.3-1.82.05-.16.07-.2.16-.33a.8.8 0 0 1 .22-.24c.15-.12.3-.18.49-.2.2-.02.2-.02.41.03.16.05.37.21.57.34.3.2.43-.17.6-.12a1 1 0 0 0 .57.01c.04 0 .28-.11.55-.24.43-.2.49-.22.6-.25.35-.07.63.02.88.3.07.08.1.11.2.34.11.2.16.33.3.67.21.58.04 1.15.17 1.38.24.38.35.64.76.95.24.18.36.3.45.4a.9.9 0 0 0 .14-.22.67.67 0 0 0-.06-.7 2.7 2.7 0 0 0-.53-.48c-.4-.3-.52-.57-.76-.95-.13-.23.04-.8-.18-1.38a5.88 5.88 0 0 0-.49-1 .88.88 0 0 0-.64-.33z" opacity=".2"/>
  <path fill="#4f4f4f" d="M23.45 23.05c-1.15 0-1.16-.96-1.39-2.09-.25-1.25-.42-1.98 1.59-2.08 1.73-.57 2 4.1-.2 4.17z"/>
  <path fill="#fff" d="M16 2c-2.69 0-5 2.5-5 5.6 0 7-4 7.7-4 12.6 0 .18.02.35.03.52C7.28 16.26 11 15.36 11 8.6 11 5.5 13.31 3 16 3s5 2.5 5 5.6c0 6.76 3.72 7.66 3.98 12.12l.02-.52c0-4.9-4-5.6-4-12.6C21 4.5 18.69 2 16 2z" opacity=".1"/>
  <path fill="#fff" d="M8.86 20c-.47.02-1.05.02-1.34.53-.18.33-.28 1.07-.42 1.2-.15.15-.32.23-.54.29l-.55.02c-.51.01-.28.02-.4.05-.37.1-.45.32-.56.72-.03.1-.03-.09-.03.19 0 .24.01.4.05.76.1-.36.2-.58.55-.67.1-.03-.12-.04.4-.05.31 0 .5-.01.54-.02.22-.06.39-.14.54-.28.14-.14.24-.88.42-1.21.3-.52.87-.51 1.34-.53.13.03.18.05.32.13a1 1 0 0 1 .32.26c.32.34.48.55 1.2 1.64.57.86.74 1.14.97 1.55.25.44.7 1.15.87 1.36l.39.5.37.48c.3.43.53.91.63 1.4.02-.07.04-.14.06-.36.02-.23.02-.26-.01-.45a3.79 3.79 0 0 0-.68-1.6l-.37-.48-.39-.49c-.17-.21-.62-.92-.87-1.36-.23-.4-.4-.69-.97-1.55-.73-1.1-.88-1.3-1.2-1.65a1.06 1.06 0 0 0-.32-.25.86.86 0 0 0-.32-.13zm-3.75 5.24c-.12.39-.62.58-.83 1.03a2.3 2.3 0 0 0-.27.73c-.03.22.02.42.13.57l.14-.3c.23-.5.83-.68.86-1.17.02-.21 0-.5-.03-.86z" opacity=".2"/>
</svg>