<svg xmlns="http://www.w3.org/2000/svg" viewBox="0 0 300 90"><path fill="#005eb8" d="M106.2 53.4V17.8H17.8v35.6zM53.34 21.24l-6.1 28.65h-9.58l-6.02-19.83h-.08l-4 19.83h-7.27l6.15-28.66h9.61l5.9 19.88h.08l4.05-19.88zm27.4 0-5.99 28.65h-7.71l2.56-12.27h-9.12l-2.56 12.27H50.2l5.98-28.65h7.7L61.64 32.2h9.12l2.27-10.96zm22.15.78-1.86 5.7a14.6 14.6 0 0 0-6.35-1.3c-3.05 0-5.53.44-5.53 2.74 0 4.06 11.18 2.54 11.18 11.25 0 7.92-7.4 9.98-14.07 9.98-2.97 0-6.4-.7-8.91-1.49l1.81-5.83c1.52.99 4.58 1.65 7.1 1.65 2.39 0 6.14-.46 6.14-3.41 0-4.6-11.18-2.88-11.18-10.96 0-7.4 6.52-9.6 12.83-9.6 3.56 0 6.9.37 8.84 1.27z"/><path d="M124 25.33c0 3.5 1.99 4.94 5.34 4.94 3.35 0 5.34-1.44 5.34-4.94v-8.36h-2.62v7.55c0 2.23-.71 3.7-2.72 3.7s-2.71-1.47-2.71-3.7v-7.55H124zm13.4 4.72h2.5v-4.72c0-1.24.4-3.2 2.21-3.2 1.61 0 1.63 1.59 1.63 2.77v5.15h2.51v-6.09c0-2.17-.99-3.78-3.27-3.78a3.6 3.6 0 0 0-3.17 1.53h-.04V20.4h-2.37v9.65zm11.5 0h2.5V20.4h-2.5zm0-11.41h2.5v-2.4h-2.5zm7.65 11.4h2.83l3.56-9.64h-2.51l-2.32 7.03h-.04l-2.4-7.03h-2.7zm9.69-5.76c.11-1.3.82-2.27 2.23-2.27 1.4 0 1.96 1.05 2.04 2.27zm5.95 3.18c-.93.52-1.98.97-3.2.97-1.55 0-2.64-.88-2.75-2.43h6.67c0-3.37-1.02-5.83-4.6-5.83-2.99 0-4.47 2.3-4.47 5.1 0 3.17 1.85 5 5.04 5 1.35 0 2.4-.26 3.31-.77zm2.74 2.59h2.51V26.5c0-1.39 0-3.93 2.04-3.93.45 0 .9.07 1.13.2v-2.53c-.27-.07-.53-.07-.77-.07-1.5 0-2.53 1.52-2.64 2.42h-.04v-2.2h-2.23v9.65zm13.13-9.52c-.79-.17-1.56-.36-2.74-.36-1.96 0-3.78.92-3.78 3 0 3.48 4.37 2.19 4.37 4.08 0 .94-1.02 1.18-1.65 1.18-.87 0-1.7-.24-2.47-.64l-.15 2.06c.91.25 1.89.41 2.84.41 2.04 0 4.05-.9 4.05-3.14 0-3.48-4.37-2.51-4.37-4.05 0-.82.81-1.07 1.48-1.07.92 0 1.48.15 2.25.41zm2.47 9.52h2.51V20.4h-2.51zm0-11.41h2.51v-2.4h-2.51zm5.98 8.5c0 1.91 1.08 3.13 3.05 3.13a6.6 6.6 0 0 0 1.85-.22l-.07-1.99c-.27.17-.7.27-1.14.27-.96 0-1.18-.77-1.18-1.6v-4.5h2.22V20.4h-2.22v-2.73l-2.51.8v1.93h-1.86v1.84h1.86zm8.14-6.74h-2.77l3.7 10.14c0 1.03-.63 1.72-1.64 1.72-.61 0-.97-.06-1.29-.17l-.17 1.85a6.45 6.45 0 0 0 1.78.27c2.62 0 3.2-2.1 4.01-4.24l3.62-9.57h-2.55l-2.32 7.05h-.04zm23.57 7.27c-.62.31-1.84.54-2.87.54-2.79 0-4.44-2-4.44-4.66 0-2.68 1.69-4.74 4.39-4.74.93 0 1.83.13 2.82.7l.2-2.22a8.63 8.63 0 0 0-2.97-.54c-4.44 0-7.17 2.5-7.17 6.98 0 4.42 2.94 6.54 7.17 6.54 1 0 2.03-.18 2.98-.4zm1.2-2.38a4.76 4.76 0 0 0 5.04 4.98c3.2 0 5.05-2.2 5.05-4.98a4.83 4.83 0 0 0-5.05-5.11c-2.85 0-5.04 1.92-5.04 5.11zm2.62-.3c0-1.44.79-2.87 2.42-2.87 1.65 0 2.43 1.39 2.43 2.87 0 1.6-.5 3.33-2.43 3.33-1.92 0-2.42-1.74-2.42-3.33zm9.5 5.06h2.5V16h-2.5zm5.2 0h2.51V16h-2.5zm6.93-5.77c.12-1.3.83-2.27 2.23-2.27s1.97 1.05 2.04 2.27zm5.96 3.18c-.93.52-1.99.97-3.2.97-1.56 0-2.64-.88-2.76-2.43h6.67c0-3.37-1.01-5.83-4.59-5.83-3 0-4.47 2.3-4.47 5.1 0 3.17 1.85 5 5.04 5 1.34 0 2.4-.26 3.31-.77zm6.82.64c-1.45 0-2.14-1.61-2.14-2.92 0-1.48.55-3.06 2.25-3.06 1.46 0 2.1 1.35 2.1 3 0 1.61-.64 2.98-2.21 2.98zm2.32-7.7v1.31h-.04c-.7-1.1-1.68-1.53-2.95-1.53-2.89 0-4.09 2.68-4.09 5 0 2.58 1.09 4.87 3.93 4.87 1.41 0 2.53-.71 3-1.53h.04c0 1.66-.13 3.74-2.9 3.74-.8 0-2.04-.43-2.81-.84l-.21 2.13a8.5 8.5 0 0 0 3.33.66c4.05 0 5.1-2.47 5.1-5.1v-8.7h-2.4zm6.76 3.88c.12-1.3.83-2.27 2.23-2.27s1.97 1.05 2.04 2.27zm5.96 3.18c-.94.52-1.99.97-3.2.97-1.56 0-2.64-.88-2.76-2.43h6.67c0-3.37-1.01-5.83-4.59-5.83-3 0-4.48 2.3-4.48 5.1 0 3.17 1.86 5 5.04 5a6.6 6.6 0 0 0 3.32-.77zM124 54.05h7.7v-2.06h-5.08V40.97H124zm8.52-4.76a4.76 4.76 0 0 0 5.04 4.98c3.2 0 5.06-2.2 5.06-4.98 0-3.19-2.2-5.11-5.06-5.11-2.85 0-5.04 1.93-5.04 5.11zm2.62-.3c0-1.44.8-2.86 2.42-2.86 1.65 0 2.44 1.38 2.44 2.86 0 1.61-.51 3.33-2.44 3.33-1.91 0-2.42-1.74-2.42-3.33zm9.44 5.06h2.51v-4.72c0-1.24.4-3.2 2.21-3.2 1.61 0 1.63 1.59 1.63 2.77v5.15h2.51v-6.09c0-2.17-.99-3.78-3.27-3.78A3.6 3.6 0 0 0 147 45.7h-.04v-1.3h-2.37v9.65zm13.45-4.85c0-1.3.45-3.08 2.08-3.08 1.61 0 2.25 1.73 2.25 3.08 0 1.36-.54 3.12-2.21 3.12-1.65 0-2.12-1.8-2.12-3.12zm4.42 4.85h2.44V40h-2.51v5.53h-.04a3.43 3.43 0 0 0-2.89-1.35c-2.95 0-4.04 2.36-4.04 5.02 0 2.64 1.08 5.07 4.04 5.07 1.18 0 2.21-.37 2.96-1.31h.04v1.09zm4.4-4.76a4.76 4.76 0 0 0 5.04 4.98c3.2 0 5.06-2.2 5.06-4.98a4.83 4.83 0 0 0-5.06-5.11c-2.85 0-5.04 1.93-5.04 5.11zm2.63-.3c0-1.44.78-2.86 2.41-2.86 1.65 0 2.44 1.38 2.44 2.86 0 1.61-.5 3.33-2.44 3.33-1.9 0-2.41-1.74-2.41-3.33zm9.44 5.06h2.5v-4.72c0-1.24.4-3.2 2.22-3.2 1.6 0 1.63 1.59 1.63 2.77v5.15h2.5v-6.09c0-2.17-.98-3.78-3.27-3.78a3.6 3.6 0 0 0-3.17 1.53h-.03V44.4h-2.38v9.65zm16.87 0h2.62V48.3h5.25v5.74h2.62V40.98h-2.62v5.28h-5.25v-5.28h-2.62zm12.68-4.76a4.76 4.76 0 0 0 5.04 4.98c3.2 0 5.06-2.2 5.06-4.98a4.83 4.83 0 0 0-5.06-5.11c-2.85 0-5.04 1.93-5.04 5.11zm2.63-.3c0-1.44.78-2.86 2.41-2.86 1.65 0 2.44 1.38 2.44 2.86 0 1.61-.5 3.33-2.44 3.33-1.9 0-2.41-1.74-2.41-3.33zm15.34-4.46c-.8-.16-1.56-.35-2.74-.35-1.97 0-3.78.92-3.78 3 0 3.47 4.36 2.18 4.36 4.08 0 .93-1.01 1.18-1.65 1.18-.86 0-1.68-.25-2.47-.64l-.15 2.06c.92.24 1.9.4 2.85.4 2.04 0 4.05-.89 4.05-3.14 0-3.48-4.37-2.5-4.37-4.04 0-.83.8-1.07 1.48-1.07.92 0 1.48.15 2.25.4zm2.41 13.45h2.51v-5.04h.04a3.3 3.3 0 0 0 2.83 1.33c3.02 0 4.1-2.43 4.1-5.07 0-2.67-1.08-5.02-4.04-5.02-1.48 0-2.44.65-3 1.59h-.04V44.4h-2.4v13.58zm4.78-11.86c1.63 0 2.08 1.78 2.08 3.08 0 1.33-.47 3.12-2.12 3.12-1.66 0-2.2-1.76-2.2-3.12 0-1.35.63-3.08 2.24-3.08zm6.72 7.93h2.52V44.4h-2.52zm0-11.4h2.52v-2.4h-2.52zm5.98 8.5c0 1.9 1.08 3.12 3.05 3.12a6.6 6.6 0 0 0 1.85-.22l-.07-1.99c-.27.17-.7.27-1.14.27-.96 0-1.18-.77-1.18-1.6v-4.49h2.23V44.4h-2.23v-2.73l-2.51.8v1.93h-1.86v1.84h1.86zm6.97-4.09a5.04 5.04 0 0 1 2.97-1.05c1.48 0 2.18.53 2.18 2.08h-1.39c-1.05 0-2.28.1-3.24.56a2.84 2.84 0 0 0-1.65 2.76c0 1.84 1.67 2.87 3.38 2.87 1.14 0 2.4-.6 2.97-1.67h.04c.02.3.02.93.11 1.44h2.21a43.28 43.28 0 0 1-.11-2.15 80.65 80.65 0 0 1-.04-2.42v-1.24c0-2.84-1.22-4.06-4.16-4.06-1.06 0-2.37.28-3.35.73zm1.27 4.2c0-1.48 1.66-1.67 2.79-1.67h1.08c0 .75-.1 1.44-.52 1.99-.4.52-1 .86-1.76.86-.9 0-1.6-.36-1.6-1.18zm8.69 2.79h2.51V40h-2.5zm11.05-9.51c-.79-.17-1.55-.36-2.73-.36-1.97 0-3.79.92-3.79 3 0 3.48 4.37 2.18 4.37 4.08 0 .93-1.01 1.18-1.65 1.18a5.5 5.5 0 0 1-2.47-.64l-.15 2.06c.92.24 1.9.4 2.85.4 2.04 0 4.04-.89 4.04-3.14 0-3.48-4.36-2.5-4.36-4.04 0-.83.8-1.07 1.48-1.07.92 0 1.48.15 2.25.4z"/><path fill="#005eb8" d="M124 73.37h1.67v-6.52h.03l3.33 6.52h2.14v-8.72h-1.68v6.52h-.02l-3.32-6.52H124zm9.1 0h1.75v-3.82h3.5v3.82h1.75v-8.72h-1.75v3.52h-3.5v-3.52h-1.75zm13.86-8.56a6.55 6.55 0 0 0-2.08-.3c-1.54 0-3.04.7-3.04 2.65 0 2.89 3.82 2.2 3.82 3.86 0 .79-.9 1.12-1.55 1.12-.7 0-1.38-.2-1.98-.53l-.16 1.57c.86.21 1.28.34 2.23.34 1.76 0 3.27-.73 3.27-2.64 0-2.92-3.82-2.28-3.82-3.8 0-.94.78-1.2 1.38-1.2.6 0 1.22.13 1.77.37zm5.57 8.56h1.75v-3.82h2.95v-1.38h-2.95v-2.14h3.1v-1.38h-4.85zm5.69-3.18a3.18 3.18 0 0 0 3.36 3.33 3.19 3.19 0 0 0 3.37-3.33 3.22 3.22 0 0 0-3.37-3.4 3.21 3.21 0 0 0-3.36 3.4zm1.74-.2c0-.96.53-1.9 1.61-1.9 1.1 0 1.63.92 1.63 1.9 0 1.08-.34 2.23-1.63 2.23-1.27 0-1.6-1.16-1.6-2.23zm12.2-3.05h-1.67v3.14c0 .83-.26 2.14-1.47 2.14-1.08 0-1.09-1.06-1.09-1.85v-3.43h-1.67v4.05c0 1.45.66 2.52 2.18 2.52.88 0 1.6-.4 2.11-1.02h.03v.87h1.58zm1.73 6.43h1.67v-3.15c0-.82.26-2.13 1.47-2.13 1.08 0 1.09 1.06 1.09 1.84v3.44h1.67V69.3c0-1.45-.66-2.52-2.18-2.52a2.4 2.4 0 0 0-2.11 1.02h-.03v-.87h-1.58zm8.96-3.24c0-.86.3-2.04 1.39-2.04 1.07 0 1.5 1.15 1.5 2.04 0 .92-.36 2.1-1.47 2.1-1.1-.01-1.42-1.21-1.42-2.1zm2.95 3.24h1.62V64h-1.67v3.68h-.02c-.5-.6-1.1-.9-1.93-.9-1.97 0-2.7 1.58-2.7 3.35 0 1.76.73 3.38 2.7 3.38.79 0 1.47-.25 1.98-.87h.02zm3.69-4.66c.56-.43 1.27-.7 1.98-.7.99 0 1.45.35 1.45 1.39H192c-.7 0-1.53.06-2.16.37-.64.31-1.1.88-1.1 1.84 0 1.22 1.1 1.9 2.24 1.9.77 0 1.6-.4 2-1.1h.01c.02.2.02.62.08.96h1.47c-.04-.5-.06-.95-.07-1.44a54.23 54.23 0 0 1-.03-1.6v-.83c0-1.9-.8-2.71-2.77-2.71-.71 0-1.58.19-2.23.49zm.84 2.8c0-.99 1.12-1.11 1.86-1.11h.73c0 .5-.08.96-.35 1.32a1.42 1.42 0 0 1-1.18.57c-.6 0-1.06-.24-1.06-.78zm6.3-.08c0 1.27.73 2.08 2.04 2.08.5 0 .9-.05 1.24-.15l-.05-1.32a1.5 1.5 0 0 1-.76.17c-.64 0-.79-.5-.79-1.06v-3h1.49v-1.22h-1.49v-1.82l-1.67.54v1.28h-1.24v1.22h1.24zm4.36 1.94h1.67v-6.43h-1.67zm0-7.6h1.67v-1.6h-1.67zm3.02 4.42a3.18 3.18 0 0 0 3.36 3.33 3.18 3.18 0 0 0 3.37-3.33 3.22 3.22 0 0 0-3.37-3.4 3.21 3.21 0 0 0-3.36 3.4zm1.74-.2c0-.96.53-1.9 1.61-1.9 1.1 0 1.63.92 1.63 1.9 0 1.08-.34 2.23-1.63 2.23-1.27 0-1.6-1.16-1.6-2.23zm6.3 3.38h1.67v-3.15c0-.82.26-2.13 1.47-2.13 1.08 0 1.09 1.06 1.09 1.84v3.44h1.67V69.3c0-1.45-.66-2.52-2.18-2.52a2.4 2.4 0 0 0-2.11 1.02h-.03v-.87h-1.58zm12.83 0h1.75v-7.35h2.5v-1.37h-6.74v1.37h2.5v7.35zm4.1 0h1.68V71c0-.93 0-2.63 1.36-2.63.3 0 .6.05.75.14v-1.68c-.18-.05-.35-.05-.51-.05-1 0-1.69 1-1.76 1.6h-.03v-1.46H229v6.44zm10.73-6.43h-1.67v3.14c0 .83-.27 2.14-1.48 2.14-1.07 0-1.08-1.06-1.08-1.85v-3.43h-1.67v4.05c0 1.45.66 2.52 2.18 2.52.87 0 1.6-.4 2.1-1.02h.03v.87h1.59zm5.66.08c-.53-.11-1.04-.23-1.83-.23-1.31 0-2.52.6-2.52 2 0 2.32 2.91 1.45 2.91 2.71 0 .63-.67.8-1.1.8a3.7 3.7 0 0 1-1.65-.43l-.1 1.37a7.44 7.44 0 0 0 1.9.27c1.36 0 2.7-.6 2.7-2.1 0-2.32-2.91-1.67-2.91-2.7 0-.54.54-.7.98-.7.61 0 .99.1 1.5.27zm2.16 4.41c0 1.27.72 2.08 2.03 2.08.5 0 .9-.05 1.24-.15l-.05-1.32a1.5 1.5 0 0 1-.76.17c-.64 0-.8-.5-.8-1.06v-3h1.5v-1.22h-1.5v-1.82l-1.66.54v1.28h-1.24v1.22h1.24z"/></svg>