<svg xmlns="http://www.w3.org/2000/svg" viewBox="0 0 26 26">
  <path d="m3.84 0.13a4.94 4.94 0 0 0-3.69 2c-0.05 0.1-0.04 0.22 0.04 0.3l0.81 0.88c0.04 0.04 0.1 0.09 0.16 0.1c0.1 0 0.2-0.04 0.25-0.13c0.26-0.43 0.8-0.88 1.34-1.1c0.34-0.12 0.64-0.16 0.9-0.12c0.43 0.06 0.73 0.35 0.91 0.81c0.27 0.7 0.13 1.47-0.25 2.57a4.38 4.38 0 0 0 0.13 3.47l0.18 0.4c0.04 0.07 0.11 0.12 0.2 0.13h0.12l1.31-0.53c0.06-0.03 0.13-0.07 0.16-0.13c0.02-0.06 0-0.16-0.04-0.22l-0.17-0.36c-0.37-0.8-0.36-1.6 0-2.66c0.44-1.33 0.75-2.44 0.28-3.62a2.73 2.73 0 0 0-2.64-1.79zm9.16 0.05c-1.56 0-2.98 0.27-4.37 0.78a1 1 0 0 0 0.37 1.94c0.38 0 1.37-0.72 4-0.71a10.8 10.8 0 0 1 10.81 10.81a10.8 10.8 0 0 1-10.81 10.81a10.8 10.8 0 0 1-10.81-10.81c0-1.38 0.28-2.45 0.54-3.11c0.25-0.66 0.27-0.79 0.27-0.89a1 1 0 0 0-1-1c-0.38 0-0.72 0.21-0.82 0.42l-0.14 0.3a11.72 11.72 0 0 0-0.84 4.28c0 7.06 5.75 12.81 12.81 12.81c7.06 0 12.81-5.74 12.81-12.81s-5.76-12.81-12.82-12.81z"/>
  <path d="m17.5 15c-4.3 0-7.08 3.81-7.3 4.1c-0.09 0.11-0.2 0.3-0.2 0.4c0 0.3 0.3 0.5 0.5 0.5c0.1 0 0.23-0.04 0.5-0.2c0.24-0.15 2.6-1.8 6.5-1.8c0.8 0 1.5-0.7 1.5-1.5c0-0.7-0.45-1.5-1.5-1.5z"/>
  <ellipse cx="11" cy="9" rx="2" ry="3"/>
  <ellipse cx="18" cy="9" rx="2" ry="3"/>
  <circle cx="6.5" cy="11.5" r="1.3"/>
</svg>