<svg xmlns="http://www.w3.org/2000/svg" viewBox="0 0 40 40">
<path fill="#fff" d="m20 2a18 18 0 0 0-18 18a18 18 0 0 0 18 18a18 18 0 0 0 11.08-3.87l1.72 1.72l2.83-2.83l-1.69-1.68a18 18 0 0 0 4.06-11.34a18 18 0 0 0-18-18z"/>
<path d="m20 3.12a16.88 16.88 0 0 0-16.88 16.88a16.88 16.88 0 0 0 16.88 16.88a16.88 16.88 0 0 0 11.09-4.16l1.71 1.72l1.42-1.42l-1.72-1.71a16.88 16.88 0 0 0 4.38-11.3a16.88 16.88 0 0 0-16.88-16.9zm0 1.77a15.11 15.11 0 0 1 15.11 15.11a15.11 15.11 0 0 1-3.88 10.04l-1.26-1.26l-1.41 1.42l1.24 1.24a15.11 15.11 0 0 1-9.8 3.66a15.11 15.11 0 0 1-15.11-15.1a15.11 15.11 0 0 1 15.1-15.12z"/>
<path fill="#b200ff" d="m17.64 18.89-4.86 5.56h6.66l4.87-5.56z"/>
<path fill="#f51400" d="m8.89 28.89h6.67l3.89-4.45h-6.67z"/>
<path fill="#0052ff" d="m31.11 11.11h-6.67l-6.8 7.78h6.67z"/>
</svg>