<svg viewBox="-1 -8 60 60" fill="none" xmlns="http://www.w3.org/2000/svg">
<!--
    <path d="M76.6884 31.3796L66 10.5H71.9656L78.3662 24.544L84.7668 10.5H90.7324L80.044 31.3796H76.6884Z" fill="black"/>
    <path d="M102.298 31.9967C100.061 31.9967 98.0103 31.4996 96.2081 30.5674C94.406 29.6353 92.9768 28.3304 91.9204 26.6525C90.864 24.9747 90.3047 23.0483 90.3047 20.8734C90.3047 18.6984 90.864 16.772 91.9204 15.0942C92.9768 13.4164 94.406 12.1114 96.2081 11.1793C98.0103 10.2471 100.061 9.75 102.298 9.75C104.535 9.75 106.586 10.2471 108.388 11.1793C110.19 12.1114 111.619 13.4164 112.676 15.0942C113.732 16.772 114.291 18.6984 114.291 20.8734C114.291 23.0483 113.732 24.9747 112.676 26.6525C111.619 28.3304 110.19 29.6353 108.388 30.5674C106.586 31.5617 104.535 31.9967 102.298 31.9967ZM102.298 27.6468C103.541 27.6468 104.722 27.3361 105.716 26.7768C106.71 26.2175 107.518 25.4097 108.139 24.4154C108.699 23.4212 109.009 22.2405 109.009 20.9355C109.009 19.6305 108.699 18.4498 108.139 17.4556C107.58 16.4613 106.772 15.6535 105.716 15.0942C104.722 14.5349 103.541 14.2242 102.298 14.2242C101.055 14.2242 99.8745 14.5349 98.8802 15.0942C97.886 15.6535 97.0781 16.4613 96.4567 17.4556C95.8353 18.4498 95.5867 19.6305 95.5867 20.9355C95.5867 22.2405 95.8974 23.4212 96.4567 24.4154C97.0781 25.4097 97.8238 26.2175 98.8802 26.7768C99.8745 27.3361 101.055 27.6468 102.298 27.6468Z" fill="black"/>
    <path d="M116.773 31.376V10.4964H121.869V13.5414C122.615 12.3607 123.547 11.4285 124.603 10.8071C125.722 10.1857 126.903 9.875 128.27 9.875C128.953 9.875 129.637 9.99928 130.382 10.1857C131.128 10.3721 131.75 10.6207 132.247 10.9314L130.134 15.2192C129.699 14.9085 129.202 14.722 128.58 14.5978C127.959 14.4735 127.462 14.3492 126.965 14.3492C126.095 14.3492 125.287 14.5978 124.479 15.0328C123.671 15.4677 123.05 16.027 122.615 16.7727C122.118 17.4563 121.869 18.2641 121.869 19.072V31.5003H116.773V31.376Z" fill="black"/>
    <path d="M143.431 31.9967C141.194 31.9967 139.143 31.4996 137.341 30.5674C135.539 29.6353 134.11 28.3304 133.053 26.6525C131.997 24.9747 131.438 23.0483 131.438 20.8734C131.438 18.6984 131.997 16.772 133.053 15.0942C134.11 13.4164 135.539 12.1114 137.341 11.1793C139.143 10.2471 141.194 9.75 143.431 9.75C145.668 9.75 147.719 10.2471 149.521 11.1793C151.323 12.1114 152.752 13.4164 153.808 15.0942C154.865 16.772 155.424 18.6984 155.424 20.8734C155.424 23.0483 154.865 24.9747 153.808 26.6525C152.752 28.3304 151.323 29.6353 149.521 30.5674C147.719 31.5617 145.73 31.9967 143.431 31.9967ZM143.431 27.6468C144.674 27.6468 145.854 27.3361 146.849 26.7768C147.843 26.2175 148.651 25.4097 149.272 24.4154C149.831 23.4212 150.142 22.2405 150.142 20.9355C150.142 19.6305 149.831 18.4498 149.272 17.4556C148.713 16.4613 147.905 15.6535 146.849 15.0942C145.854 14.5349 144.674 14.2242 143.431 14.2242C142.188 14.2242 141.007 14.5349 140.013 15.0942C139.019 15.6535 138.211 16.4613 137.59 17.4556C136.968 18.4498 136.72 19.6305 136.72 20.9355C136.72 22.2405 137.03 23.4212 137.59 24.4154C138.211 25.4097 138.957 26.2175 140.013 26.7768C141.069 27.3361 142.188 27.6468 143.431 27.6468Z" fill="black"/>
    <path d="M157.711 31.3756V10.4961H162.807V12.9817C163.552 12.0496 164.484 11.3039 165.727 10.6825C166.908 10.0611 168.275 9.8125 169.829 9.8125C171.444 9.8125 172.873 10.1232 174.054 10.8068C175.235 11.4903 176.167 12.4846 176.851 13.7274C177.534 14.9703 177.845 16.4617 177.845 18.1395V31.2514H172.749V19.258C172.749 17.5181 172.314 16.1509 171.444 15.2188C170.574 14.2867 169.394 13.7896 167.84 13.7896C166.784 13.7896 165.851 13.976 165.106 14.411C164.36 14.846 163.801 15.4052 163.366 16.1509C162.931 16.8345 162.744 17.6423 162.744 18.5123V31.3135H157.711V31.3756Z" fill="black"/>
    <path d="M192.392 31.9967C190.155 31.9967 188.104 31.4996 186.302 30.5674C184.5 29.6353 183.071 28.3304 182.014 26.6525C180.958 24.9747 180.398 23.0483 180.398 20.8734C180.398 18.6984 180.958 16.772 182.014 15.0942C183.071 13.4164 184.5 12.1114 186.302 11.1793C188.104 10.2471 190.155 9.75 192.392 9.75C194.629 9.75 196.68 10.2471 198.482 11.1793C200.284 12.1114 201.713 13.4164 202.769 15.0942C203.826 16.772 204.385 18.6984 204.385 20.8734C204.385 23.0483 203.826 24.9747 202.769 26.6525C201.713 28.3304 200.284 29.6353 198.482 30.5674C196.68 31.5617 194.691 31.9967 192.392 31.9967ZM192.392 27.6468C193.635 27.6468 194.815 27.3361 195.81 26.7768C196.804 26.2175 197.612 25.4097 198.233 24.4154C198.792 23.4212 199.103 22.2405 199.103 20.9355C199.103 19.6305 198.792 18.4498 198.233 17.4556C197.674 16.4613 196.866 15.6535 195.81 15.0942C194.815 14.5349 193.635 14.2242 192.392 14.2242C191.149 14.2242 189.968 14.5349 188.974 15.0942C187.98 15.6535 187.172 16.4613 186.55 17.4556C185.929 18.4498 185.68 19.6305 185.68 20.9355C185.68 22.2405 185.991 23.4212 186.55 24.4154C187.172 25.4097 187.918 26.2175 188.974 26.7768C190.03 27.3361 191.149 27.6468 192.392 27.6468Z" fill="black"/>
    <path d="M209.552 6.21416C208.993 6.21416 208.496 6.08988 207.999 5.77917C207.564 5.53061 207.191 5.15776 206.88 4.66062C206.632 4.16349 206.445 3.66636 206.445 3.10708C206.445 2.54781 206.57 2.05067 206.88 1.55354C207.191 1.05641 207.502 0.7457 207.999 0.434992C208.496 0.124284 208.993 0 209.552 0C210.112 0 210.609 0.124284 211.106 0.434992C211.603 0.7457 211.914 1.05641 212.224 1.55354C212.535 2.05067 212.659 2.54781 212.659 3.10708C212.659 3.66636 212.535 4.22563 212.224 4.66062C211.976 5.15776 211.603 5.53061 211.106 5.77917C210.671 6.08988 210.112 6.21416 209.552 6.21416ZM207.005 31.3815V10.5019H212.1V31.3815H207.005Z" fill="black"/>
-->
    <g filter="url(#filter0_dd_15828_38092)">
        <mask id="mask0_15828_38092" style="mask-type:luminance" maskUnits="userSpaceOnUse" x="4" y="2" width="50" height="44">
            <path d="M52.2272 14.4968L35.945 41.6372C34.5533 43.9288 32.118 45.361 29.5434 45.361H28.3605C25.7164 45.361 23.281 43.9288 21.8894 41.6372L5.74636 14.4968C2.61517 9.26917 6.23344 2.60938 12.1479 2.60938H45.7561C51.7401 2.60938 55.3584 9.34078 52.2272 14.4968Z" fill="white"/>
        </mask>
        <g mask="url(#mask0_15828_38092)">
            <path d="M59.324 2.61719L33.7178 66.6372L29.682 73.0822L24.1155 66.6372L-1.35156 2.61719H59.324Z" fill="url(#paint0_linear_15828_38092)"/>
            <path fill-rule="evenodd" clip-rule="evenodd" d="M-1.85802 2.26072C-1.74539 2.088 -1.55654 1.98438 -1.35442 1.98438H59.3212C59.5235 1.98438 59.7125 2.08821 59.8251 2.26121C59.9377 2.43422 59.959 2.65362 59.882 2.84617L34.2758 66.8662C34.2618 66.9012 34.2447 66.9349 34.2248 66.9667L30.189 73.4117C30.0863 73.5757 29.9149 73.6809 29.7259 73.6959C29.5368 73.7109 29.3518 73.6341 29.2259 73.4882L23.6593 67.0433C23.6138 66.9906 23.5773 66.9303 23.5513 66.8651L-1.91572 2.84506C-1.9923 2.65255 -1.97066 2.43344 -1.85802 2.26072ZM-0.450747 3.23276L24.6347 66.2935L29.602 72.0446L33.1752 66.3383L58.4156 3.23276H-0.450747Z" fill="white"/>
        </g>
        <mask id="mask1_15828_38092" style="mask-type:luminance" maskUnits="userSpaceOnUse" x="4" y="2" width="50" height="44">
            <path d="M52.2272 14.4968L35.945 41.6372C34.5533 43.9288 32.118 45.361 29.5434 45.361H28.3605C25.7164 45.361 23.281 43.9288 21.8894 41.6372L5.74636 14.4968C2.61517 9.26917 6.23344 2.60938 12.1479 2.60938H45.7561C51.7401 2.60938 55.3584 9.34078 52.2272 14.4968Z" fill="white"/>
        </mask>
        <g mask="url(#mask1_15828_38092)">
            <path d="M20.5015 2.60938L18.4141 13.9239L25.7202 26.7422L32.3305 23.9494L54.5272 14.64L59.3283 2.60938H20.5015Z" fill="url(#paint1_linear_15828_38092)"/>
            <path fill-rule="evenodd" clip-rule="evenodd" d="M19.9028 2.49213C19.9571 2.19756 20.2073 1.98438 20.4987 1.98438H59.3255C59.5277 1.98438 59.7166 2.08812 59.8293 2.26101C59.9419 2.4339 59.9633 2.65318 59.8865 2.84571L55.0853 14.8763C55.0235 15.0312 54.9038 15.154 54.7532 15.2172L32.558 24.526L32.5565 24.5266L25.9477 27.3188C25.6682 27.4369 25.347 27.3253 25.1942 27.0572L17.8881 14.2389C17.8138 14.1086 17.788 13.955 17.8153 13.8066L19.9028 2.49213ZM21.0009 3.23276L19.0495 13.8093L25.9741 25.9582L32.0973 23.3711L32.0987 23.3705L54.0599 14.1599L58.4207 3.23276H21.0009Z" fill="white"/>
        </g>
        <mask id="mask2_15828_38092" style="mask-type:luminance" maskUnits="userSpaceOnUse" x="4" y="2" width="50" height="44">
            <path d="M52.2272 14.4968L35.945 41.6372C34.5533 43.9288 32.118 45.361 29.5434 45.361H28.3605C25.7164 45.361 23.281 43.9288 21.8894 41.6372L5.74636 14.4968C2.61517 9.26917 6.23344 2.60938 12.1479 2.60938H45.7561C51.7401 2.60938 55.3584 9.34078 52.2272 14.4968Z" fill="white"/>
        </mask>
        <g mask="url(#mask2_15828_38092)">
            <path d="M32.9556 2.60938H-0.304688L18.4129 13.9239L32.9556 2.60938Z" fill="url(#paint2_linear_15828_38092)"/>
            <path fill-rule="evenodd" clip-rule="evenodd" d="M-0.884939 2.44476C-0.813121 2.17299 -0.573352 1.98438 -0.299684 1.98438H32.9606C33.2212 1.98438 33.4527 2.15575 33.5356 2.41005C33.6185 2.66436 33.5342 2.94473 33.3263 3.10649L18.7837 14.421C18.5879 14.5733 18.3223 14.5892 18.1107 14.4613L-0.606858 3.14679C-0.842832 3.00415 -0.956757 2.71654 -0.884939 2.44476ZM1.93048 3.23277L18.3755 13.1735L31.1525 3.23277H1.93048Z" fill="white"/>
        </g>
        <mask id="mask3_15828_38092" style="mask-type:luminance" maskUnits="userSpaceOnUse" x="4" y="2" width="50" height="44">
            <path d="M52.2272 14.4968L35.945 41.6372C34.5533 43.9288 32.118 45.361 29.5434 45.361H28.3605C25.7164 45.361 23.281 43.9288 21.8894 41.6372L5.74636 14.4968C2.61517 9.26917 6.23344 2.60938 12.1479 2.60938H45.7561C51.7401 2.60938 55.3584 9.34078 52.2272 14.4968Z" fill="white"/>
        </mask>
        <g mask="url(#mask3_15828_38092)">
            <path d="M32.3281 23.95L44.9225 42.9985L60.5784 29.8221L54.5248 14.6406L32.3281 23.95Z" fill="url(#paint3_linear_15828_38092)"/>
            <path fill-rule="evenodd" clip-rule="evenodd" d="M54.2931 14.0619C54.6027 13.9321 54.9561 14.0846 55.0831 14.403L61.1367 29.5845C61.238 29.8385 61.1661 30.1308 60.9595 30.3047L45.3036 43.481C45.1719 43.5919 45.001 43.6407 44.8326 43.6156C44.6643 43.5905 44.5139 43.4937 44.4182 43.349L31.8238 24.3005C31.7208 24.1447 31.6917 23.9494 31.7446 23.769C31.7975 23.5886 31.9268 23.4425 32.0964 23.3713L54.2931 14.0619ZM33.2485 24.2362L45.0484 42.0831L59.844 29.6309L54.1905 15.453L33.2485 24.2362Z" fill="white"/>
        </g>
        <mask id="mask4_15828_38092" style="mask-type:luminance" maskUnits="userSpaceOnUse" x="4" y="2" width="50" height="44">
            <path d="M52.2272 14.4968L35.945 41.6372C34.5533 43.9288 32.118 45.361 29.5434 45.361H28.3605C25.7164 45.361 23.281 43.9288 21.8894 41.6372L5.74636 14.4968C2.61517 9.26917 6.23344 2.60938 12.1479 2.60938H45.7561C51.7401 2.60938 55.3584 9.34078 52.2272 14.4968Z" fill="white"/>
        </mask>
        <g mask="url(#mask4_15828_38092)">
            <path d="M19.1803 54.3161L48.3352 40.0655L57.6592 39.2778L45.6215 41.4261L32.3313 23.9531L25.721 26.7459L16.2578 46.7969L19.1803 54.3161Z" fill="url(#paint4_linear_15828_38092)"/>
            <path fill-rule="evenodd" clip-rule="evenodd" d="M32.0981 23.3827C32.3494 23.2766 32.6386 23.3553 32.806 23.5754L45.778 40.6301L48.0721 39.5088C48.1383 39.4764 48.2096 39.4567 48.2827 39.4505L57.6067 38.6628C57.93 38.6355 58.2169 38.8748 58.2579 39.2059C58.299 39.5371 58.0795 39.8428 57.7599 39.8999L45.7222 42.0482C45.7134 42.0498 45.7046 42.0512 45.6957 42.0523L19.4376 54.887C19.2863 54.9609 19.1121 54.9672 18.9561 54.9043C18.8002 54.8414 18.6765 54.715 18.6143 54.5549L15.6918 47.0358C15.6284 46.8726 15.6348 46.6894 15.7094 46.5313L25.1726 26.4803C25.2377 26.3423 25.3499 26.2338 25.4878 26.1756L32.0981 23.3827ZM44.655 41.179L32.1339 24.7171L26.1626 27.24L16.9177 46.8284L19.5006 53.4741L44.655 41.179Z" fill="white"/>
        </g>
        <mask id="mask5_15828_38092" style="mask-type:luminance" maskUnits="userSpaceOnUse" x="4" y="2" width="50" height="44">
            <path d="M52.2272 14.4968L35.945 41.6372C34.5533 43.9288 32.118 45.361 29.5434 45.361H28.3605C25.7164 45.361 23.281 43.9288 21.8894 41.6372L5.74636 14.4968C2.61517 9.26917 6.23344 2.60938 12.1479 2.60938H45.7561C51.7401 2.60938 55.3584 9.34078 52.2272 14.4968Z" fill="white"/>
        </mask>
        <g mask="url(#mask5_15828_38092)">
            <path d="M16.2527 46.7932L25.7159 26.7422L18.4097 13.9239L-0.307831 2.60938H-1.35156L16.2527 46.7932Z" fill="url(#paint5_linear_15828_38092)"/>
            <path fill-rule="evenodd" clip-rule="evenodd" d="M-1.85031 2.26086C-1.73768 2.08806 -1.54879 1.98438 -1.34661 1.98438H-0.302879C-0.194876 1.98438 -0.088832 2.01406 0.00429506 2.07035L18.7219 13.3848C18.8111 13.4388 18.8855 13.5154 18.9379 13.6072L26.244 26.4256C26.3466 26.6056 26.355 26.8264 26.2664 27.0141L16.8032 47.0651C16.6987 47.2865 16.4776 47.424 16.2386 47.4163C15.9995 47.4085 15.7872 47.2569 15.6965 47.0292L-1.90778 2.84538C-1.98448 2.65286 -1.96293 2.43367 -1.85031 2.26086ZM-0.434319 3.25302L16.3044 45.2646L25.0335 26.7691L17.9714 14.379L-0.434319 3.25302Z" fill="white"/>
        </g>
    </g>
    <path fill-rule="evenodd" clip-rule="evenodd" d="M12.1614 3.24839C6.72454 3.24839 3.39252 9.36975 6.27615 14.184L6.27714 14.1857L22.4172 41.3212C22.4177 41.322 22.4182 41.3228 22.4186 41.3236C23.7028 43.4363 25.9457 44.7516 28.374 44.7516H29.5569C31.913 44.7516 34.1577 43.4387 35.4434 41.3225C35.4436 41.3221 35.4439 41.3217 35.4441 41.3212L51.7246 14.1837L51.7264 14.1808C54.6027 9.44435 51.2816 3.24839 45.7695 3.24839H12.1614ZM5.24305 14.8383C1.86519 9.19752 5.76963 2 12.1614 2H45.7695C52.225 2 56.1403 9.26558 52.7559 14.8409C52.7556 14.8414 52.7553 14.8419 52.755 14.8424L36.4745 41.98L36.4728 41.9829C34.9751 44.4491 32.3494 46 29.5569 46H28.374C25.515 46 22.8879 44.4518 21.3886 41.9829L21.3856 41.9779L21.3856 41.9779L5.24355 14.8391C5.24339 14.8388 5.24322 14.8386 5.24305 14.8383Z" fill="white"/>
<!--
    <path d="M109.872 43.02C110.056 42.708 110.328 42.448 110.688 42.24C111.056 42.024 111.5 41.916 112.02 41.916C112.564 41.916 113.04 42.044 113.448 42.3C113.856 42.556 114.172 42.916 114.396 43.38C114.628 43.844 114.744 44.384 114.744 45C114.744 45.616 114.628 46.156 114.396 46.62C114.164 47.084 113.844 47.444 113.436 47.7C113.028 47.956 112.556 48.084 112.02 48.084C111.532 48.084 111.116 47.988 110.772 47.796C110.436 47.604 110.172 47.372 109.98 47.1L109.896 48H108.864V39.36H109.992V43.056L109.872 43.02ZM113.52 45C113.52 44.384 113.356 43.888 113.028 43.512C112.708 43.136 112.288 42.948 111.768 42.948C111.432 42.948 111.132 43.032 110.868 43.2C110.604 43.36 110.392 43.592 110.232 43.896C110.072 44.2 109.992 44.568 109.992 45C109.992 45.432 110.072 45.804 110.232 46.116C110.392 46.42 110.604 46.652 110.868 46.812C111.132 46.972 111.432 47.052 111.768 47.052C112.288 47.052 112.708 46.864 113.028 46.488C113.356 46.112 113.52 45.616 113.52 45ZM120.034 42H121.21L117.73 50.4H116.614L117.67 47.88L115.294 42H116.542L118.282 46.548L120.034 42ZM131.525 39.6H132.785L129.629 48H128.249L125.105 39.6H126.377L128.945 46.764L131.525 39.6ZM134.157 42H135.297V48H134.157V42ZM134.733 40.944C134.517 40.944 134.337 40.872 134.193 40.728C134.049 40.584 133.977 40.408 133.977 40.2C133.977 39.984 134.049 39.804 134.193 39.66C134.337 39.508 134.517 39.432 134.733 39.432C134.941 39.432 135.117 39.508 135.261 39.66C135.413 39.804 135.489 39.984 135.489 40.2C135.489 40.408 135.413 40.584 135.261 40.728C135.117 40.872 134.941 40.944 134.733 40.944ZM137.86 46.104C137.916 46.344 138.012 46.532 138.148 46.668C138.284 46.804 138.444 46.904 138.628 46.968C138.82 47.024 139.02 47.052 139.228 47.052C139.588 47.052 139.868 46.98 140.068 46.836C140.268 46.692 140.368 46.512 140.368 46.296C140.368 46.112 140.304 45.968 140.176 45.864C140.056 45.752 139.892 45.664 139.684 45.6C139.484 45.536 139.268 45.476 139.036 45.42C138.828 45.364 138.6 45.3 138.352 45.228C138.112 45.156 137.884 45.06 137.668 44.94C137.46 44.812 137.288 44.652 137.152 44.46C137.016 44.26 136.948 44.008 136.948 43.704C136.948 43.344 137.044 43.032 137.236 42.768C137.436 42.496 137.708 42.288 138.052 42.144C138.404 41.992 138.8 41.916 139.24 41.916C139.752 41.916 140.2 42.028 140.584 42.252C140.976 42.468 141.26 42.796 141.436 43.236L140.416 43.572C140.36 43.42 140.268 43.296 140.14 43.2C140.012 43.104 139.864 43.04 139.696 43.008C139.536 42.968 139.376 42.948 139.216 42.948C138.912 42.948 138.66 43.008 138.46 43.128C138.26 43.248 138.16 43.424 138.16 43.656C138.16 43.784 138.192 43.892 138.256 43.98C138.32 44.06 138.408 44.128 138.52 44.184C138.64 44.232 138.78 44.276 138.94 44.316C139.1 44.356 139.272 44.4 139.456 44.448C139.696 44.52 139.94 44.6 140.188 44.688C140.436 44.768 140.664 44.872 140.872 45C141.08 45.128 141.248 45.296 141.376 45.504C141.504 45.712 141.572 45.968 141.58 46.272C141.58 46.624 141.48 46.936 141.28 47.208C141.088 47.48 140.812 47.696 140.452 47.856C140.1 48.008 139.68 48.084 139.192 48.084C138.6 48.084 138.096 47.952 137.68 47.688C137.264 47.424 136.984 47.016 136.84 46.464L137.86 46.104ZM147.97 48H146.938L146.854 47.292C146.662 47.548 146.418 47.744 146.122 47.88C145.834 48.016 145.51 48.084 145.15 48.084C144.686 48.084 144.282 47.988 143.938 47.796C143.594 47.596 143.326 47.308 143.134 46.932C142.95 46.548 142.858 46.072 142.858 45.504V42H143.998V45.36C143.998 45.912 144.11 46.332 144.334 46.62C144.566 46.908 144.914 47.052 145.378 47.052C145.834 47.052 146.19 46.904 146.446 46.608C146.71 46.312 146.842 45.872 146.842 45.288V42H147.97V48ZM153.34 48L153.244 47.124C153.06 47.428 152.82 47.664 152.524 47.832C152.236 47.992 151.86 48.072 151.396 48.072C150.964 48.072 150.596 48.004 150.292 47.868C149.988 47.724 149.752 47.528 149.584 47.28C149.424 47.024 149.344 46.728 149.344 46.392C149.344 45.888 149.532 45.472 149.908 45.144C150.284 44.808 150.828 44.6 151.54 44.52L153.244 44.328V43.86C153.244 43.604 153.14 43.388 152.932 43.212C152.724 43.028 152.424 42.936 152.032 42.936C151.664 42.936 151.352 43.024 151.096 43.2C150.84 43.368 150.668 43.62 150.58 43.956L149.572 43.596C149.724 43.068 150.02 42.656 150.46 42.36C150.908 42.064 151.448 41.916 152.08 41.916C152.832 41.916 153.404 42.104 153.796 42.48C154.188 42.856 154.384 43.352 154.384 43.968V48H153.34ZM153.244 45.252L151.6 45.456C151.248 45.504 150.984 45.604 150.808 45.756C150.632 45.9 150.544 46.092 150.544 46.332C150.544 46.556 150.628 46.744 150.796 46.896C150.972 47.04 151.216 47.112 151.528 47.112C151.912 47.112 152.232 47.04 152.488 46.896C152.744 46.752 152.932 46.552 153.052 46.296C153.18 46.032 153.244 45.728 153.244 45.384V45.252ZM156.009 39.36H157.137V48H156.009V39.36ZM161.835 43.8C161.835 43.168 161.943 42.592 162.159 42.072C162.375 41.544 162.675 41.092 163.059 40.716C163.443 40.332 163.887 40.036 164.391 39.828C164.903 39.62 165.455 39.516 166.047 39.516C166.887 39.516 167.635 39.712 168.291 40.104C168.955 40.496 169.459 41.06 169.803 41.796L168.843 42.144C168.651 41.768 168.407 41.464 168.111 41.232C167.815 41 167.491 40.828 167.139 40.716C166.787 40.604 166.431 40.548 166.071 40.548C165.503 40.548 164.987 40.68 164.523 40.944C164.067 41.208 163.707 41.584 163.443 42.072C163.187 42.56 163.059 43.136 163.059 43.8C163.059 44.456 163.187 45.028 163.443 45.516C163.707 46.004 164.067 46.384 164.523 46.656C164.987 46.92 165.503 47.052 166.071 47.052C166.439 47.052 166.803 46.992 167.163 46.872C167.523 46.752 167.859 46.56 168.171 46.296C168.483 46.024 168.739 45.672 168.939 45.24L169.899 45.576C169.539 46.424 169.023 47.056 168.351 47.472C167.679 47.88 166.911 48.084 166.047 48.084C165.455 48.084 164.903 47.98 164.391 47.772C163.887 47.564 163.443 47.268 163.059 46.884C162.675 46.5 162.375 46.048 162.159 45.528C161.943 45 161.835 44.424 161.835 43.8ZM175.044 48L174.948 47.124C174.764 47.428 174.524 47.664 174.228 47.832C173.94 47.992 173.564 48.072 173.1 48.072C172.668 48.072 172.3 48.004 171.996 47.868C171.692 47.724 171.456 47.528 171.288 47.28C171.128 47.024 171.048 46.728 171.048 46.392C171.048 45.888 171.236 45.472 171.612 45.144C171.988 44.808 172.532 44.6 173.244 44.52L174.948 44.328V43.86C174.948 43.604 174.844 43.388 174.636 43.212C174.428 43.028 174.128 42.936 173.736 42.936C173.368 42.936 173.056 43.024 172.8 43.2C172.544 43.368 172.372 43.62 172.284 43.956L171.276 43.596C171.428 43.068 171.724 42.656 172.164 42.36C172.612 42.064 173.152 41.916 173.784 41.916C174.536 41.916 175.108 42.104 175.5 42.48C175.892 42.856 176.088 43.352 176.088 43.968V48H175.044ZM174.948 45.252L173.304 45.456C172.952 45.504 172.688 45.604 172.512 45.756C172.336 45.9 172.248 46.092 172.248 46.332C172.248 46.556 172.332 46.744 172.5 46.896C172.676 47.04 172.92 47.112 173.232 47.112C173.616 47.112 173.936 47.04 174.192 46.896C174.448 46.752 174.636 46.552 174.756 46.296C174.884 46.032 174.948 45.728 174.948 45.384V45.252ZM178.72 46.98L178.84 46.944V50.4H177.712V42H178.744L178.828 42.9C179.02 42.628 179.284 42.396 179.62 42.204C179.964 42.012 180.38 41.916 180.868 41.916C181.396 41.916 181.864 42.044 182.272 42.3C182.68 42.556 183 42.916 183.232 43.38C183.472 43.836 183.592 44.376 183.592 45C183.592 45.616 183.476 46.156 183.244 46.62C183.02 47.084 182.704 47.444 182.296 47.7C181.888 47.956 181.412 48.084 180.868 48.084C180.348 48.084 179.904 47.98 179.536 47.772C179.176 47.556 178.904 47.292 178.72 46.98ZM182.368 45C182.368 44.384 182.204 43.888 181.876 43.512C181.556 43.136 181.136 42.948 180.616 42.948C180.28 42.948 179.98 43.028 179.716 43.188C179.452 43.348 179.24 43.58 179.08 43.884C178.92 44.188 178.84 44.56 178.84 45C178.84 45.432 178.92 45.8 179.08 46.104C179.24 46.408 179.452 46.644 179.716 46.812C179.98 46.972 180.28 47.052 180.616 47.052C181.136 47.052 181.556 46.864 181.876 46.488C182.204 46.112 182.368 45.616 182.368 45ZM185.134 42H186.274V48H185.134V42ZM185.71 40.944C185.494 40.944 185.314 40.872 185.17 40.728C185.026 40.584 184.954 40.408 184.954 40.2C184.954 39.984 185.026 39.804 185.17 39.66C185.314 39.508 185.494 39.432 185.71 39.432C185.918 39.432 186.094 39.508 186.238 39.66C186.39 39.804 186.466 39.984 186.466 40.2C186.466 40.408 186.39 40.584 186.238 40.728C186.094 40.872 185.918 40.944 185.71 40.944ZM188.549 42V40.32H189.689V42H191.189V43.008H189.689V45.96C189.689 46.328 189.761 46.588 189.905 46.74C190.057 46.892 190.245 46.98 190.469 47.004C190.701 47.02 190.941 47.012 191.189 46.98V47.952C190.861 48.024 190.537 48.044 190.217 48.012C189.905 47.988 189.621 47.9 189.365 47.748C189.117 47.596 188.917 47.376 188.765 47.088C188.621 46.792 188.549 46.416 188.549 45.96V43.008H187.685V42H188.549ZM196.114 48L196.018 47.124C195.834 47.428 195.594 47.664 195.298 47.832C195.01 47.992 194.634 48.072 194.17 48.072C193.738 48.072 193.37 48.004 193.066 47.868C192.762 47.724 192.526 47.528 192.358 47.28C192.198 47.024 192.118 46.728 192.118 46.392C192.118 45.888 192.306 45.472 192.682 45.144C193.058 44.808 193.602 44.6 194.314 44.52L196.018 44.328V43.86C196.018 43.604 195.914 43.388 195.706 43.212C195.498 43.028 195.198 42.936 194.806 42.936C194.438 42.936 194.126 43.024 193.87 43.2C193.614 43.368 193.442 43.62 193.354 43.956L192.346 43.596C192.498 43.068 192.794 42.656 193.234 42.36C193.682 42.064 194.222 41.916 194.854 41.916C195.606 41.916 196.178 42.104 196.57 42.48C196.962 42.856 197.158 43.352 197.158 43.968V48H196.114ZM196.018 45.252L194.374 45.456C194.022 45.504 193.758 45.604 193.582 45.756C193.406 45.9 193.318 46.092 193.318 46.332C193.318 46.556 193.402 46.744 193.57 46.896C193.746 47.04 193.99 47.112 194.302 47.112C194.686 47.112 195.006 47.04 195.262 46.896C195.518 46.752 195.706 46.552 195.826 46.296C195.954 46.032 196.018 45.728 196.018 45.384V45.252ZM198.782 39.36H199.91V48H198.782V39.36ZM201.81 42H202.95V48H201.81V42ZM202.386 40.944C202.17 40.944 201.99 40.872 201.846 40.728C201.702 40.584 201.63 40.408 201.63 40.2C201.63 39.984 201.702 39.804 201.846 39.66C201.99 39.508 202.17 39.432 202.386 39.432C202.594 39.432 202.77 39.508 202.914 39.66C203.066 39.804 203.142 39.984 203.142 40.2C203.142 40.408 203.066 40.584 202.914 40.728C202.77 40.872 202.594 40.944 202.386 40.944ZM205.513 46.104C205.569 46.344 205.665 46.532 205.801 46.668C205.937 46.804 206.097 46.904 206.281 46.968C206.473 47.024 206.673 47.052 206.881 47.052C207.241 47.052 207.521 46.98 207.721 46.836C207.921 46.692 208.021 46.512 208.021 46.296C208.021 46.112 207.957 45.968 207.829 45.864C207.709 45.752 207.545 45.664 207.337 45.6C207.137 45.536 206.921 45.476 206.689 45.42C206.481 45.364 206.253 45.3 206.005 45.228C205.765 45.156 205.537 45.06 205.321 44.94C205.113 44.812 204.941 44.652 204.805 44.46C204.669 44.26 204.601 44.008 204.601 43.704C204.601 43.344 204.697 43.032 204.889 42.768C205.089 42.496 205.361 42.288 205.705 42.144C206.057 41.992 206.453 41.916 206.893 41.916C207.405 41.916 207.853 42.028 208.237 42.252C208.629 42.468 208.913 42.796 209.089 43.236L208.069 43.572C208.013 43.42 207.921 43.296 207.793 43.2C207.665 43.104 207.517 43.04 207.349 43.008C207.189 42.968 207.029 42.948 206.869 42.948C206.565 42.948 206.313 43.008 206.113 43.128C205.913 43.248 205.813 43.424 205.813 43.656C205.813 43.784 205.845 43.892 205.909 43.98C205.973 44.06 206.061 44.128 206.173 44.184C206.293 44.232 206.433 44.276 206.593 44.316C206.753 44.356 206.925 44.4 207.109 44.448C207.349 44.52 207.593 44.6 207.841 44.688C208.089 44.768 208.317 44.872 208.525 45C208.733 45.128 208.901 45.296 209.029 45.504C209.157 45.712 209.225 45.968 209.233 46.272C209.233 46.624 209.133 46.936 208.933 47.208C208.741 47.48 208.465 47.696 208.105 47.856C207.753 48.008 207.333 48.084 206.845 48.084C206.253 48.084 205.749 47.952 205.333 47.688C204.917 47.424 204.637 47.016 204.493 46.464L205.513 46.104ZM210.99 42V40.32H212.13V42H213.63V43.008H212.13V45.96C212.13 46.328 212.202 46.588 212.346 46.74C212.498 46.892 212.686 46.98 212.91 47.004C213.142 47.02 213.382 47.012 213.63 46.98V47.952C213.302 48.024 212.978 48.044 212.658 48.012C212.346 47.988 212.062 47.9 211.806 47.748C211.558 47.596 211.358 47.376 211.206 47.088C211.062 46.792 210.99 46.416 210.99 45.96V43.008H210.126V42H210.99Z" fill="black"/>
-->
    <defs>
        <filter id="filter0_dd_15828_38092" x="1.59375" y="0.609375" width="54.7852" height="48.752" filterUnits="userSpaceOnUse" color-interpolation-filters="sRGB">
            <feFlood flood-opacity="0" result="BackgroundImageFix"/>
            <feColorMatrix in="SourceAlpha" type="matrix" values="0 0 0 0 0 0 0 0 0 0 0 0 0 0 0 0 0 0 127 0" result="hardAlpha"/>
            <feOffset dy="1"/>
            <feGaussianBlur stdDeviation="1"/>
            <feColorMatrix type="matrix" values="0 0 0 0 0 0 0 0 0 0 0 0 0 0 0 0 0 0 0.06 0"/>
            <feBlend mode="normal" in2="BackgroundImageFix" result="effect1_dropShadow_15828_38092"/>
            <feColorMatrix in="SourceAlpha" type="matrix" values="0 0 0 0 0 0 0 0 0 0 0 0 0 0 0 0 0 0 127 0" result="hardAlpha"/>
            <feOffset dy="1"/>
            <feGaussianBlur stdDeviation="1.5"/>
            <feColorMatrix type="matrix" values="0 0 0 0 0 0 0 0 0 0 0 0 0 0 0 0 0 0 0.1 0"/>
            <feBlend mode="normal" in2="effect1_dropShadow_15828_38092" result="effect2_dropShadow_15828_38092"/>
            <feBlend mode="normal" in="SourceGraphic" in2="effect2_dropShadow_15828_38092" result="shape"/>
        </filter>
        <linearGradient id="paint0_linear_15828_38092" x1="29.0083" y1="73.0559" x2="29.0083" y2="2.63473" gradientUnits="userSpaceOnUse">
            <stop stop-color="#78B5BE"/>
            <stop offset="0.2392" stop-color="#1E818D"/>
        </linearGradient>
        <linearGradient id="paint1_linear_15828_38092" x1="38.8685" y1="26.7199" x2="38.8685" y2="2.62699" gradientUnits="userSpaceOnUse">
            <stop stop-color="#D4E782"/>
            <stop offset="1" stop-color="#B2D327"/>
        </linearGradient>
        <linearGradient id="paint2_linear_15828_38092" x1="16.303" y1="13.9572" x2="16.303" y2="2.62699" gradientUnits="userSpaceOnUse">
            <stop stop-color="#FAEC6A"/>
            <stop offset="1" stop-color="#DEC527"/>
        </linearGradient>
        <linearGradient id="paint3_linear_15828_38092" x1="46.4455" y1="42.9662" x2="46.4455" y2="14.6088" gradientUnits="userSpaceOnUse">
            <stop stop-color="#A4DE9B"/>
            <stop offset="1" stop-color="#63BF53"/>
        </linearGradient>
        <linearGradient id="paint4_linear_15828_38092" x1="36.9401" y1="54.2965" x2="36.9401" y2="23.9708" gradientUnits="userSpaceOnUse">
            <stop stop-color="#7BD0BA"/>
            <stop offset="1" stop-color="#1F8961"/>
        </linearGradient>
        <linearGradient id="paint5_linear_15828_38092" x1="12.1949" y1="46.8065" x2="12.1949" y2="2.62699" gradientUnits="userSpaceOnUse">
            <stop stop-color="#B9DBED"/>
            <stop offset="0.5638" stop-color="#97C9E7"/>
            <stop offset="1" stop-color="#79B9E1"/>
        </linearGradient>
    </defs>
</svg>
