<?xml version="1.0" encoding="UTF-8"?>
<svg xmlns="http://www.w3.org/2000/svg" viewBox="0 0 400 452.3">
<style type="text/css">
	.st0{fill:#FFFFFF;}
	.st1{fill:none;stroke:#13202B;stroke-width:0.1;stroke-miterlimit:10;}
	.st2{fill:none;stroke:#1D3C6A;stroke-width:0.4;stroke-miterlimit:10;}
	.st3{fill:#CDD1D6;}
	.st4{fill:#1D3C6A;}
	.st5{fill:#1B3B68;}
	.st6{fill:#1C3A68;}
</style>
<g id="Layer_3">
	<path class="st0" d="M213.4,26.7l-1.4-14.8l-3-1l0.9-0.9l7.1-6.8h-1.2l-1.7-0.4c0.2-0.8,0-1.6-0.5-2.3c-0.9-0.8-2.9,0.7-2.9,0.7   L207.1,2l-1.2,1l-0.4,0.8l-3.6,2v1.4l1.8,3.3l2.6-0.3l2.4,0.5l-0.4,0.7l-1,1.1l-5.4,5.4l-0.8,0.3l0.6,0.4l2.5-2.4l-2.9,5l-1.3,3.6   l-4.4,3.3l-2.2-1.9v-5.2l7.9-2.7l-3.2-2.1l-5.5-5V5.7H189v3.9l-1.4,0.3l-0.5,1v2v1.6l-0.2,1.7l0.4,1.4l-1-0.5l-1.1,2.9l2.1,2.7   l-0.3,9.1l-2.3-0.2l-0.8,2.7l2.9,3.2l-0.3,7.8l-2.9-0.2l-0.4,3.9l2.9,3.2l-0.4,10.4l6.3-0.3c0,0,2.7-26,3.5-27.7   c0.9-1.3,2.1-2.3,3.6-2.9l0.4,3.1v2.9l1,4c-0.4,1.1-0.6,2.3-0.8,3.4c-0.2,1.7,3.2,5.4,3.2,5.4l8.1,5.8l-5.4-11.5l1.2-0.3   L213.4,26.7z"></path>
	<path class="st0" d="M232.8,122.3c-1.5-0.8-3.3-1.1-5-0.9l0.3-0.2c-2.6,0.1-5.2-0.3-7.6-1.1c-2.1-1.2-3.5-4.4-3.6-10.2l-2.4-0.6   c0.3,3.6,1,7.1,2.3,10.5c0.4,0.6,0.9,1.2,1.5,1.7c-4,2.6-10.2,9.9-9,13.9c0,0-0.8,7-4.7,4.8c0,0-7.9,13.5-21.5,13.7   c-12.1,0.3-12.6-13.8-12.6-13.8c-2.2,1.1-4.7,1.4-7,0.8c0,0,6.8-11.7,6.8-5.8l13.5-0.2l26.2-5.8l1.3-44.2l-3.6,0.8   c0.4,2.3-0.2,4.7-1.7,6.5c-2.3,2.3-10.1,5.3-27.1,5.4c-4.1,0.1-8.2-0.2-12.2-1.1c1.3-1,2.5-2.2,3.6-3.4c10.3,1.6,20.8,0.9,30.9-1.8   l2.3-19.8c9,2,12.2,1.1,12.2,1.1s8.2,3.4,12.1,2.3c2.6-0.8,3.5-6.4,0.8-9c-1.9-1.6-4.4-2.2-6.8-1.7c-3.9-2.4-8.6-3.1-13-1.8   c-4.2-1.5-8.7-1.7-13-0.7c-8.3-2-12.6,0.7-12.6,0.7c-9.4-0.7-13,3.9-13,8.1c-0.3,2.1,1.1,4.1,3.1,4.6c-3.2,4.6-6.7,8.9-10.4,13.1   c-1.8,1.7-3.7,3.3-5.8,4.7c0,0,0.6,3.5,6.4,5.8c7.6,5.2,13.2,12.8,15.9,21.6c-11,2.2-18.9,11.9-18.8,23.1c2.4,0.8,5,0.9,7.5,0.5   c0.7,7.6,7.1,13.3,14.7,13.1c12,0,18.7-7.7,22.8-13.2c2.6,1.2,5.6,1.4,8.3,0.7c0,0,4.6-20.6,14.7-20.6c10.1,0,6.9,14.1,6.9,14.1   c-2.8,0.4-5.6-0.3-7.9-2c-1.6,4.7-4.2,9-7.8,12.4c1.1,0.3,2.3,0.5,3.5,0.6c2.4-2.8,4.3-5.9,5.8-9.3c2.8,1.4,6,1.9,9.1,1.4   C238.1,141.3,241.7,126.8,232.8,122.3"></path>
	<path class="st1" d="M232.8,122.3c-1.5-0.8-3.3-1.1-5-0.9l0.3-0.2c-2.6,0.1-5.2-0.3-7.6-1.1c-2.1-1.2-3.5-4.4-3.6-10.2l-2.4-0.6   c0.3,3.6,1,7.1,2.3,10.5c0.4,0.6,0.9,1.2,1.5,1.7c-4,2.6-10.2,9.9-9,13.9c0,0-0.8,7-4.7,4.8c0,0-7.9,13.5-21.5,13.7   c-12.1,0.3-12.6-13.8-12.6-13.8c-2.2,1.1-4.7,1.4-7,0.8c0,0,6.8-11.7,6.8-5.8l13.5-0.2l26.2-5.8l1.3-44.2l-3.6,0.8   c0.4,2.3-0.2,4.7-1.7,6.5c-2.3,2.3-10.1,5.3-27.1,5.4c-4.1,0.1-8.2-0.2-12.2-1.1c1.3-1,2.5-2.2,3.6-3.4c10.3,1.6,20.8,0.9,30.9-1.8   l2.3-19.8c9,2,12.2,1.1,12.2,1.1s8.2,3.4,12.1,2.3c2.6-0.8,3.5-6.4,0.8-9c-1.9-1.6-4.4-2.2-6.8-1.7c-3.9-2.4-8.6-3.1-13-1.8   c-4.2-1.5-8.7-1.7-13-0.7c-8.3-2-12.6,0.7-12.6,0.7c-9.4-0.7-13,3.9-13,8.1c-0.3,2.1,1.1,4.1,3.1,4.6c-3.2,4.6-6.7,8.9-10.4,13.1   c-1.8,1.7-3.7,3.3-5.8,4.7c0,0,0.6,3.5,6.4,5.8c7.6,5.2,13.2,12.8,15.9,21.6c-11,2.2-18.9,11.9-18.8,23.1c2.4,0.8,5,0.9,7.5,0.5   c0.7,7.6,7.1,13.3,14.7,13.1c12,0,18.7-7.7,22.8-13.2c2.6,1.2,5.6,1.4,8.3,0.7c0,0,4.6-20.6,14.7-20.6c10.1,0,6.9,14.1,6.9,14.1   c-2.8,0.4-5.6-0.3-7.9-2c-1.6,4.7-4.2,9-7.8,12.4c1.1,0.3,2.3,0.5,3.5,0.6c2.4-2.8,4.3-5.9,5.8-9.3c2.8,1.4,6,1.9,9.1,1.4   C238.1,141.3,241.6,126.9,232.8,122.3z"></path>
	<path class="st0" d="M247.8,292.5c-1.2-1.9-0.7-4.4,1.2-5.6c0.1,0,0.2-0.1,0.2-0.1c4.1-2,8.5-3.3,13.1-3.8   c4.2-0.2,8.3-0.8,12.4-1.8c4.7-1.3,16.2-6.6,16.2-6.6c0.4,1.5,0.4,3.1,0,4.6c-1.6,2.6-3.5,5.1-5.6,7.4l7.9,0.6l4.2-0.3   c-2.3,3.1-5.1,5.7-8.3,7.9c-4.6,1.7-9.4,3.1-14.2,4.1c-1.5,0.1-2.9,0.1-4.4,0l-1.7-7.4L247.8,292.5z"></path>
	<path class="st0" d="M131,298.3c1.9,2.4,4.3,4.4,7,5.8c3.9,2.1,8,3.9,12.1,5.5c7.6,2.1,15.3,3.6,23.1,4.6c9.5,1.3,19,2,28.6,1.9   c11.1-0.8,22.2-2.1,33.1-4.1c4.5-1.3,19.8-6.4,19.8-6.4l9.8-5.8l3.8-5.2l4.6,18.6c0,0-0.4,3.4-1.6,4.2   c-13.4,8.8-28.6,14.3-44.5,16.2c-14.7,1.4-29.4,2-44.2,1.7c-2.5-0.2-29.4-3.8-37.7-7.2c-6.1-2.6-12-5.6-17.7-8.9l-1.2-2.9l2.1-8.7   l0.6-7l0.6-4L131,298.3z"></path>
	<path class="st0" d="M107.3,278.2c4,2.1,8.2,3.7,12.5,4.9l8.9,1.6c4.7-0.1,9.3,0.2,13.9,1c2.9,1.1,8.1,2.4,8.4,4.9   c0.4,2.5,1.5,4-1.8,5c-2.9,0.7-6,0.7-8.9,0c-2.4-0.7-4.9-1-7.4-0.9c-1.6,0.2-3,0.9-4,2.1c-1.1,1.3-0.8,4.7-0.8,4.7   s-16.1-2-19.3-4.6c-2.6-2.3-5.2-4.6-7.6-7.2H115c0,0-8.4-5.4-7.7-11.9"></path>
	<path class="st0" d="M309.8,166.8c-1.4-3.4-3.7-6.4-6.7-8.7c0.4-1.4,0.9-2.7,1.5-4c0,0,6.2,5.8,12.7,1.9c-2.2-3.5-3.1-7.7-2.6-11.8   c1-10.4,1.4-24.9-11.5-27.4c-2.9-4.1-7.8-6.4-12.8-6c-4.4,0.3-8.6,1.6-12.4,3.8c4.9-6.4,2.9-14.4,3.5-24c0.3-7,4.9-8.7,4.9-8.7   c-1.5-3.3-5.1-5.2-8.7-4.4c-2.5,0.4-4.7,1.8-6.2,3.7c-0.8-1.2-1.9-2.3-3.1-3.1c3.2-2.1,5.4-5.5,5.9-9.3c0.5-5.5-2-7.1-2-7.1   c-3.4,4-9.4,1.7-15.4,6.1c-5.1,3.6-8.1,9.5-8.2,15.7c0.2,3.1,1.3,6.2,3.2,8.7c-4,1.5-6.7,5.5-6.5,9.8c-0.2,2.2,0.6,4.4,2,6l0,0   c0.5,0.5,1,0.9,1.7,1.1c0.6-2.4,2.8-4,5.3-3.9c6.2,0,7.5,8.7,2.3,13.8c-1.7,1.5-3.9,2.5-6.1,2.9c-6.5-0.4-12.4-4.2-15.5-10   c-8.3-14.2-1.8-27.1-7.5-36.8l-5.1-1.1c-2.8-1.1-5.7-1.7-8.7-1.8c-2.9,0.3-5.8,0.1-8.7-0.5c1.6,1.6,3,3.4,4.2,5.3   c2.2,4.5,3.2,9.5,2.9,14.4c0,2.4,4-0.4,4-0.4l-2.4,7.2c-1.4,4-0.8,8.5,1.7,11.9c0,0,0.5,2.4,1.3,6.4s4.2,5.1,10.8,5.3   c6.6,0.2,8.4,3.6,9.4,8.1c0.6,3.3,0.6,6.6-0.2,9.9c-2.9,0.1-5.7-0.4-8.4-1.5c-1.7,3.7-3.6,7.2-5.8,10.6l-24.7,0.3   c0,0-12.7,8.3-19.5,5.3c-6.8-2.9-8.7-11.8-8.8-11.7c-0.1,0.1-7.4,0-7.4,0s-2.9-0.3,2.5-10.6c0.8-1.4,1.8-2.8,2.9-4   c0.3-0.5,0.6-0.9,0.9-1.4c1.1-1.3,2.5-2.3,4-3c2.3-1.4,4.8-2.4,7.4-2.9c-0.6-5.8-9.2-16.4-9.6-16.4l0.2,0.2   c-0.6,14.4-21.1,21.7-28.2,14.4c-5.2-5.3-4-13.8,2.3-13.8c2.3-0.3,4.5,1.2,5.1,3.5l0,0c0,0,3.7-1.1,3.7-7.2   c0.1-4.3-2.5-8.3-6.5-9.8c1.9-2.5,3-5.5,3.2-8.7c0-6.2-3-12.1-8.1-15.8c-6-4.4-12-2-15.4-6.1c0,0-2.5,1.6-2,7.1   c0.6,3.8,2.7,7.2,5.9,9.3c-1.2,0.8-2.3,1.9-3.1,3.1c-1.7-2-4-3.3-6.6-3.6c-3.6-0.8-7.2,1.1-8.7,4.4c0,0,4.5,1.6,4.9,8.7   c0.5,9.5-1.4,17.7,3.5,24c-3.8-2.2-8-3.5-12.4-3.8c-5-0.4-9.9,1.9-12.8,6.1c-12.8,2.5-12.4,17-11.5,27.4c0.5,4.1-0.4,8.3-2.6,11.8   c6.4,3.9,12.7-1.9,12.7-1.9c0.6,1.4,1.2,2.9,1.6,4.4c-3,2-5.3,4.8-6.7,8c-2.6,4.9-3.8,10.5-3.4,16.1c0.3,1.6,0.7,3.1,1.3,4.6   c-2.1,5.6-1.1,11.9,2.7,16.6c3.1,3.1,5.4,6.9,6.6,11c0.9,2.6,0.9,5.4,0,8c10.2,0.9,11.5-6.9,11.5-6.9c3,1.1,5.5,3.4,6.8,6.4   c0.3,0.8,0.5,1.6,0.5,2.5c-4.8,5.8-12.4,8.6-19.9,7.4c-1.7,11.7,8.7,12.2,8.7,12.2c-1.5,3.7-2.9,13.5,2,19.7s13.7,10.3,25.8,12.6   c7.7,1.5,9.6,3.9,9.6,3.9c1.8-1.5,2.8-3.8,2.5-6.2c-0.2-4.5-3.8-10.4-11.5-13.5c-7.7-3.1-10-4.9-10.8-6.3c1.3-2.3,3.3-4.2,5.6-5.4   c0,0,1.8,6.8,11.3,5.8c4.5,14.4,11.7,24,19.4,33.6c9.6,12.1,26.3,20.8,35.6,25c1.7,0.2,3.5,0.4,5.3,0.5c-1.1-0.7-3.1-1.9-5.8-3.6   c-10.2-5.1-19.4-11.8-27.3-19.9c-3.6-3.1-7.2-6.3-10.5-9.5c-18-17.9-18.9-51.8-18.9-64.3v-67.3h36.2c2.1,3.8,6,6.2,10.3,6.4   c5.5-0.5,10.8-2.5,15.4-5.8H263v62.8c0,29.6-3.4,53.5-23.4,73.5c-11.5,11.5-24.8,20.9-39.5,27.8c1.3,0.1,2.6,0.1,3.9,0l1.8-0.2   c9.2-4.2,26.4-13,36.1-25.2c7.6-9.6,14.8-19.2,19.3-33.3c9.1,0.8,10.9-5.8,10.9-5.8c2.3,1.2,4.3,3.1,5.6,5.4c-3,3-6.7,5.1-10.8,6.1   c-6.3,1.8-10.8,7.1-11.5,13.6c-0.3,2.3,0.6,4.7,2.5,6.2c0,0,1.8-2.4,9.5-3.9c12.1-2.3,20.8-6.4,25.8-12.6s3.5-16,2-19.7   c0,0,10.3-0.5,8.7-12.2c-7.5,1.2-15-1.6-19.9-7.4c0.1-0.8,0.2-1.7,0.5-2.5c1.3-3,3.9-5.3,7-6.5c0,0,1.2,7.8,11.5,6.9   c-0.9-2.6-0.9-5.4,0-8c1.3-4.3,3.6-8.3,6.8-11.5c3.7-4.5,4.7-10.7,2.5-16.1c0.5-1.5,0.9-3,1.1-4.6c0.4-5.5-0.7-11.1-3.3-16"></path>
	<path class="st2" d="M309.8,166.8c-1.4-3.4-3.7-6.4-6.7-8.7c0.4-1.4,0.9-2.7,1.5-4c0,0,6.2,5.8,12.7,1.9c-2.2-3.5-3.1-7.7-2.6-11.8   c1-10.4,1.4-24.9-11.5-27.4c-2.9-4.1-7.8-6.4-12.8-6c-4.4,0.3-8.6,1.6-12.4,3.8c4.9-6.4,2.9-14.4,3.5-24c0.3-7,4.9-8.7,4.9-8.7   c-1.5-3.3-5.1-5.2-8.7-4.4c-2.5,0.4-4.7,1.8-6.2,3.7c-0.8-1.2-1.9-2.3-3.1-3.1c3.2-2.1,5.4-5.5,5.9-9.3c0.5-5.5-2-7.1-2-7.1   c-3.4,4-9.4,1.7-15.4,6.1c-5.1,3.6-8.1,9.5-8.2,15.7c0.2,3.1,1.3,6.2,3.2,8.7c-4,1.5-6.7,5.5-6.5,9.8c-0.2,2.2,0.6,4.4,2,6l0,0   c0.5,0.5,1,0.9,1.7,1.1c0.6-2.4,2.8-4,5.3-3.9c6.2,0,7.5,8.7,2.3,13.8c-1.7,1.5-3.9,2.5-6.1,2.9c-6.5-0.4-12.4-4.2-15.5-10   c-8.3-14.2-1.8-27.1-7.5-36.8l-5.1-1.1c-2.8-1.1-5.7-1.7-8.7-1.8c-2.9,0.3-5.8,0.1-8.7-0.5c1.6,1.6,3,3.4,4.2,5.3   c2.2,4.5,3.2,9.5,2.9,14.4c0,2.4,4-0.4,4-0.4l-2.4,7.2c-1.4,4-0.8,8.5,1.7,11.9c0,0,0.5,2.4,1.3,6.4s4.2,5.1,10.8,5.3   c6.6,0.2,8.4,3.6,9.4,8.1c0.6,3.3,0.6,6.6-0.2,9.9c-2.9,0.1-5.7-0.4-8.4-1.5c-1.7,3.7-3.6,7.2-5.8,10.6l-24.7,0.3   c0,0-12.7,8.3-19.5,5.3c-6.8-2.9-8.7-11.8-8.8-11.7c-0.1,0.1-7.4,0-7.4,0s-2.9-0.3,2.5-10.6c0.8-1.4,1.8-2.8,2.9-4   c0.3-0.5,0.6-0.9,0.9-1.4c1.1-1.3,2.5-2.3,4-3c2.3-1.4,4.8-2.4,7.4-2.9c-0.6-5.8-9.2-16.4-9.6-16.4l0.2,0.2   c-0.6,14.4-21.1,21.7-28.2,14.4c-5.2-5.3-4-13.8,2.3-13.8c2.3-0.3,4.5,1.2,5.1,3.5l0,0c0,0,3.7-1.1,3.7-7.2   c0.1-4.3-2.5-8.3-6.5-9.8c1.9-2.5,3-5.5,3.2-8.7c0-6.2-3-12.1-8.1-15.8c-6-4.4-12-2-15.4-6.1c0,0-2.5,1.6-2,7.1   c0.6,3.8,2.7,7.2,5.9,9.3c-1.2,0.8-2.3,1.9-3.1,3.1c-1.7-2-4-3.3-6.6-3.6c-3.6-0.8-7.2,1.1-8.7,4.4c0,0,4.5,1.6,4.9,8.7   c0.5,9.5-1.4,17.7,3.5,24c-3.8-2.2-8-3.5-12.4-3.8c-5-0.4-9.9,1.9-12.8,6.1c-12.8,2.5-12.4,17-11.5,27.4c0.5,4.1-0.4,8.3-2.6,11.8   c6.4,3.9,12.7-1.9,12.7-1.9c0.6,1.4,1.2,2.9,1.6,4.4c-3,2-5.3,4.8-6.7,8c-2.6,4.9-3.8,10.5-3.4,16.1c0.3,1.6,0.7,3.1,1.3,4.6   c-2.1,5.6-1.1,11.9,2.7,16.6c3.1,3.1,5.4,6.9,6.6,11c0.9,2.6,0.9,5.4,0,8c10.2,0.9,11.5-6.9,11.5-6.9c3,1.1,5.5,3.4,6.8,6.4   c0.3,0.8,0.5,1.6,0.5,2.5c-4.8,5.8-12.4,8.6-19.9,7.4c-1.7,11.7,8.7,12.2,8.7,12.2c-1.5,3.7-2.9,13.5,2,19.7s13.7,10.3,25.8,12.6   c7.7,1.5,9.6,3.9,9.6,3.9c1.8-1.5,2.8-3.8,2.5-6.2c-0.2-4.5-3.8-10.4-11.5-13.5c-7.7-3.1-10-4.9-10.8-6.3c1.3-2.3,3.3-4.2,5.6-5.4   c0,0,1.8,6.8,11.3,5.8c4.5,14.4,11.7,24,19.4,33.6c9.6,12.1,26.3,20.8,35.6,25c1.7,0.2,3.5,0.4,5.3,0.5c-1.1-0.7-3.1-1.9-5.8-3.6   c-10.2-5.1-19.4-11.8-27.3-19.9c-3.6-3.1-7.2-6.3-10.5-9.5c-18-17.9-18.9-51.8-18.9-64.3v-67.3h36.2c2.1,3.8,6,6.2,10.3,6.4   c5.5-0.5,10.8-2.5,15.4-5.8H263v62.8c0,29.6-3.4,53.5-23.4,73.5c-11.5,11.5-24.8,20.9-39.5,27.8c1.3,0.1,2.6,0.1,3.9,0l1.8-0.2   c9.2-4.2,26.4-13,36.1-25.2c7.6-9.6,14.8-19.2,19.3-33.3c9.1,0.8,10.9-5.8,10.9-5.8c2.3,1.2,4.3,3.1,5.6,5.4c-3,3-6.7,5.1-10.8,6.1   c-6.3,1.8-10.8,7.1-11.5,13.6c-0.3,2.3,0.6,4.7,2.5,6.2c0,0,1.8-2.4,9.5-3.9c12.1-2.3,20.8-6.4,25.8-12.6s3.5-16,2-19.7   c0,0,10.3-0.5,8.7-12.2c-7.5,1.2-15-1.6-19.9-7.4c0.1-0.8,0.2-1.7,0.5-2.5c1.3-3,3.9-5.3,7-6.5c0,0,1.2,7.8,11.5,6.9   c-0.9-2.6-0.9-5.4,0-8c1.3-4.3,3.6-8.3,6.8-11.5c3.7-4.5,4.7-10.7,2.5-16.1c0.5-1.5,0.9-3,1.1-4.6   C313.6,177.3,312.4,171.7,309.8,166.8z"></path>
	<path class="st3" d="M135.2,65.8c-4.2-0.5-7.2-1.1-8.5-2.4c-1.2,1.8-1.6,4-1.1,6.1c0.8,3.7,5.8,8.3,5.8,8.3s7.7-3.6,9.4-9.6   C139.3,66.8,137.3,65.9,135.2,65.8"></path>
	<path class="st3" d="M267.2,77.8c0,0,5-4.6,5.8-8.3c0.5-2.1,0.1-4.3-1.1-6.1c-1.3,1.3-4.3,1.9-8.5,2.4c-2.1,0.1-4.1,1-5.6,2.5   C259.4,74.3,267.1,77.8,267.2,77.8"></path>
	<path class="st3" d="M95.7,175.2c0,0,8.9,3.3,13.8-6.7c0,0,1,1.2,2.7,2.9c-1.1-1.3-1.7-2.9-2-4.6c3.7,6.1,9.7,4.6,14.4,12   c0,0,5.8-3.6,0.7-16.5c-0.3-0.8-0.6-1.6-0.8-2.4c-0.4-0.4-0.8-0.8-1.2-1.2c3.3,0.1,6.7-0.4,9.8-1.7c3.1-1.9,0.4-7.2-1.8-8.7   c-2.2-1.5-10-6-10-6s4.7-4.9,5.1-8.3c0.4-3.3-1.2-4-1.2-4c-4.1,2.1-9.1,2.1-13.2,0c-4.6-2.9-8.3-10.9-3.9-14.6l-1,0.2   c-3.3-0.7-6.8,0.6-8.7,3.4c-3.3,5.3-3.8,11.9-1.2,17.5c2.4,5.3-2.6-5-2.6-5c-0.3-1.8-0.6-3.5-0.7-5.3c0-1.8,0.1-3.5,0.3-5.3v0.3   c0,0-9.2,2-8.9,17.8l-1.1-1.9l1.8-12l5.5-6.4l3.4-0.7l0.2-0.5c-4.8,0.5-8.8,4-9.9,8.7c-2.9,8.7-0.2,17.9-1.1,21.8   c-0.6,2.5-1.4,4.9-2.4,7.3c0,0,7.7,2,11.8-2.9C97.8,159.3,98.5,167.6,95.7,175.2"></path>
	<path class="st3" d="M134.3,225.1c-0.6-4.7-1.5-10.8-2.5-16.2c-0.9-2.9-2.6-5.4-4.8-7.4c4,5.1,5.9,11.6,5.3,18   c-0.1,2.5-1.3,4.9-3.2,6.6c3.7-14.8-5-21.4-5-21.4l-0.2-6c0.7,0.4,1.3,0.9,1.9,1.4c-1.2-1.2-2.6-2.3-3.9-3.4   c4.3,10.5-1,23.6-8,30.7c-7,7-18.4,6.4-18.4,6.4c-0.3,5.2,3.7,9.6,8.8,9.9c0,0,0,0,0.1,0c-0.3,0.8-0.5,1.6-0.7,2.3   c0.4-1.4,0.8-1.4,0.7,2.2c-0.3,14.2,10.3,16.3,10.3,16.3c0.3-4.7,2.4-9.1,5.8-12.3c-0.6,1.2-1.1,2.5-1.4,3.8c1.8-3.3,4.4-6,7.7-7.7   c0,5.3,7.3,5.6,9.5,5.6s1.6-1,1.6-1c-1.9-3.5-2.9-23.1-3.6-27.8"></path>
	<path class="st3" d="M284.8,227.3c-7-7-12.4-20.2-8-30.7c-1.4,1-2.7,2.2-3.9,3.3c0.6-0.5,1.2-1,1.9-1.4l-0.2,6c0,0-9,6.6-5.3,21.4   c-2-1.6-3.1-4-3.2-6.6c-0.6-6.5,1.3-12.9,5.3-18c-2.2,2-3.8,4.6-4.7,7.4c-1,5.5-1.8,11.5-2.5,16.2c-0.6,4.6-1.5,24.3-3.5,27.8   c0,0-0.6,1,1.6,1c2.2,0,9.5-0.3,9.5-5.6c3.3,1.7,6,4.4,7.7,7.7c-0.4-1.3-0.9-2.5-1.4-3.8c3.4,3.3,5.4,7.6,5.8,12.3   c0,0,10.6-2.2,10.4-16.3c0-3.6,0.3-3.6,0.7-2.2c-0.2-0.8-0.4-1.5-0.7-2.3c5.2-0.3,9.2-4.7,8.9-9.8c0-0.1,0-0.1,0-0.2   c0,0-11.3,0.5-18.3-6.6"></path>
	<path class="st3" d="M314,148.1c-0.9-4,1.8-13-1.1-21.8c-1.1-4.7-5.1-8.2-9.9-8.7l0.2,0.5l3.6,0.6l5.5,6.4l1.8,12l-1.1,1.9   c0.3-15.8-8.9-17.8-8.9-17.8v-0.3c0.2,1.8,0.3,3.5,0.3,5.3c-0.1,1.8-0.4,3.6-0.7,5.3c0,0-5,10.3-2.6,5c2.6-5.7,2.2-12.3-1.2-17.5   c-1.9-2.8-5.3-4.2-8.7-3.4l-1-0.2c4.4,3.7,0.8,11.8-3.9,14.6c-4.1,2.1-9.1,2.1-13.2,0c0,0-1.6,0.7-1.2,4c0.4,3.3,4.9,8.2,4.9,8.2   s-7.8,4.5-10,6c-2.2,1.5-4.8,6.8-1.8,8.7c3.1,1.3,6.4,1.8,9.8,1.7c-0.4,0.4-0.8,0.7-1.2,1.2c-0.1,0.5-0.4,1.3-0.8,2.4   c-5.1,12.9,0.7,16.5,0.7,16.5c4.9-7.3,10.9-5.8,14.4-12c-0.2,1.7-0.9,3.3-2,4.6c1.6-1.6,2.7-2.9,2.7-2.9   c4.9,10.1,13.8,6.7,13.8,6.7c-2.8-7.5-2.2-15.8,1.8-22.8c4,4.9,11.8,2.9,11.8,2.9c-1-2.4-1.8-4.8-2.4-7.3"></path>
	<path class="st3" d="M286.1,286.5c3.4-2.7,5.7-6.7,6.2-11.1c0-2.1-0.3-2.6-0.3-2.6c-6.8,5-14.7,8-23.1,8.7   c-11.8,1.2-17.5,2-20.5,5.3c-3,3.3-1.1,6.6,0.3,8.8c1.8,3,3.3,6.1,4.5,9.4c0,0-16.1,7.3-43.3,9.5c-1.9,0.4-3.8,0.6-5.8,0.6   c-4.6,0.3-6.4,0.2-11,0c-2,0-1.4,0-1.4,0c-33.5-2-45.5-8.4-45.5-8.4c0.9-3.3,2.3-6.5,4-9.5c1.3-2.3,3-5.2-0.4-8.7   c-3.5-3.4-9.5-4.4-21.2-5c-8.1-0.2-15.9-2.8-22.5-7.4c-0.1,1-0.1,1.9,0,2.9c0.6,4.2,2.9,7.9,6.4,10.2c-3.9,0.4-7.9,0.4-11.8,0   c0,0,4.5,11.5,27.3,12.8c-0.2,3.6-0.7,7.2-1.6,10.7c-1.4,2.4-0.8,5.5,1.4,7.2c2.7,2.4,26.3,16.6,72.2,16.2h1.3   c47.3-1,67.7-15.9,70.4-18.3c2.6-2.4,3.1-3.7,1.8-6.8c-1.1-3.6-1.8-7.4-2.3-11.1c23.9-2.5,27.2-14.3,27.2-14.3   C294.1,286.3,290.2,286.6,286.1,286.5 M123.1,286.5c-10.4-1.5-12.8-4.6-12.8-4.6c2,3.6,4.8,6.8,8.1,9.3c-4.1,1.4-14.1,1.9-16.2,0.5   l-0.8-1.7h12.4c-2.2-2.5-4.3-5.2-6.3-7.9c-1.1-1.4-1.5-3.3-1.1-5.1c0,0,5.8,2.9,10.8,5.1s12.6,1.8,19.6,2.5   c3.9,0.2,7.8,1.2,11.4,2.9c1.3,0.9,2.4,2.2,3.1,3.6l-0.7-0.2c-7.7-5.3-16.4-2.7-27.6-4.3 M199.9,319c-32.2,0.5-62.7-9.5-66.8-17.5   c0,0,26.9,15.9,67.3,15.2c22.4-0.8,44.4-6.4,64.4-16.6c-4.9,7.7-35.8,18.2-64.9,18.6 M296.5,288.6c-2.1,1.5-12,1.3-16.2,0   c3.2-2.6,5.9-5.8,7.8-9.5c0,0-2.3,3.1-12.6,5c-11.1,2-19.9-0.3-27.4,5.2l-1.2,0.5c0.9-1.6,2.1-3,3.5-4.1c3.5-1.8,7.4-2.9,11.3-3.3   c7-1,14.4-0.8,19.5-3.1c5.1-2.3,10.7-5.2,10.7-5.2c0.5,1.8,0.2,3.7-0.9,5.2c-1.9,2.8-3.9,5.5-6,8.1l12.4-0.6L296.5,288.6z"></path>
	<path class="st3" d="M186.3,53.6c0.1,3.1,0,6.2-0.3,9.3c3.3,0.2,6.6,0.1,9.9-0.1c0-0.4,0.4-0.6,0.7-0.6c0.2,0,0.4,0,0.7,0   c0.2,0,0.3-0.1,0.4-0.2c0.2-0.2,0.5-0.3,0.8-0.1c0.2-0.1,0.4-0.1,0.6,0c1.4,0.3,2.9-0.2,4.3,0c1.3,0.3,2.5,0.6,3.7,1.1   c1.6,0.3,3.2,0.3,4.9,0.2c2.5-1.2,4.2-3.5,4.8-6.2c0.3-2,0.7-3.9,1.4-5.8c-1.2-1.1-2.1-2.6-2.4-4.2c0,0,1.7,1.6,2.3-2.4   c0.3-2.6-0.2-5.2-1.5-7.4c-0.7-9.9,3.1-13.6,3.1-13.6c0.7-4.8-0.4-9.7-3.1-13.8c-1.2-2.7,0.6-3.1,0.6-4.8s-1.2-1.7-1.2-1.7   s-1.5,0-1.8-0.7c-1,0.2-1.9,0.3-2.9,0.3c-3.1,0-4,0.6-4,1.1c0,1,0.6,0.7,0.6,0.7c-1.1,0.6-2.2,1.1-3.4,1.5c-0.6,0.2-1.3,0.3-2,0.3   c-0.2-0.1-0.3-0.2-0.5-0.4l-0.3,0.2c0.2,1.7,1,3.2,2.2,4.4c1.7-0.1,3.4-0.1,5,0.2c0,0.8-1.2,2.1-2.4,3.3l1.1-0.9   c0.7-0.6,1.2-1.2,1.7-2c0,2.1-0.5,3.2-3.2,6.1c-1.4,1.4-2.4,3.2-2.9,5.1c1.6-1,3.3-1.9,5.1-2.6c-2.6,1.7-4.9,3.7-6.9,6.1   c-0.8,1-2.3,1.3-4.3,2.6c-2,1.3-1.9,2.1-4.4,2.7c-1.6,0.4-1.5,1.4-1.5,1.4s-0.8,1.3-1.2,0.8c-0.3-0.8-0.2-1.6,0.1-2.4   c0.3-0.2,3.3-1.5,4.2-2.2l0.9-0.7l-1.7-0.8v-6c1.7,1.6,3.5,3,5.5,4.1l-0.8,0.5c1.4-0.8,2.7-1.8,4-2.9c-0.5,0.3-1.1,0.7-1.1,0.7   c0,0.1-0.4,0-0.4-1.3c0.2-1.5,0.8-2.9,1.6-4.1c0.6-1,1.3-1.8,2.1-2.6l0,0c-1.5,1.2-2.3,2.7-2.9,2.9s-4.6-2.9-5.8-4.4   c-1.1-1.1-2.2-2.1-3.3-3.1c-0.3-0.5,0-3.6,0-4.7c0-0.4-0.3-0.7-0.7-0.8c0,0,0,0,0,0c0.2,0,0.3,0.3,0.2,0.7   c-0.4,0.8-1.7,0.9-1.7,0.9v0.7c0,0.7,0,2.9,0,2.9l-0.2-0.2l-0.9-0.7c0,0-0.4-3.4-0.5-3.5c-0.1-0.1,0.5-0.5,0.8-0.7   c-1.5,0-1,1.6-0.8,2.7c0.1,1.1,0,1.2-0.7,1.4c-0.7,0.3-0.8,2.6-0.8,3.2c-0.2,1-0.2,2,0,3.1c0.3,1.4,0,1.5-0.8,0.8   c-0.8-0.7-0.9,1.8-1.1,2.9s1.6,1.4,2.1,2.7c0,0.1,0,0.1,0,0.2c-0.2-1.2-0.5-2.2-0.5-2.2c2.5,1.5,2.5,4.2,2.6,7.8s-0.3,5.3-1.2,5.8   c-0.8,0.5-3.1-1.4-3.1-1.4v-1.3c-0.2,0-0.4,0.1-0.5,0.3c-0.9,1.4-0.6,3.2,0.6,4.2c1.6,1.4,1.4,5.6,1.4,8c0.1,0.5,0,1-0.3,1.4   l0.3-0.2c0,0,0.3-4.3,0.3-5.8c0-1-0.2-2.1-0.5-3c1.7,1.7,2.5,4.1,2.2,6.5c0,3.7-0.3,5-1.1,5.5c-0.8,0.5-2.9-1.4-2.9-1.4l-0.2-1.8   l0,0c-1.3-0.5-1.6,3.7-1,4.2c1.4,1.1,2.5,2.6,2.9,4.4 M199.6,31.9v-0.2l2.2-0.6c-0.9,3.3-0.7,6.9,0.6,10.1c0.7-0.4,1.3-1,1.6-1.7   c0.3-0.9,0.8-1.8,1.3-2.6c0.4,2-0.3,4.1-1.8,5.6c-2.1,2-2.2,2.1-0.7,6.6c0.4,1.1,0.5,1.6,0.4,1.7l1,0.8c1.4,1.2,0.7,1.6,0.2,3   c-1.2,2.2-3.4,3.8-5.9,4c-1.2-0.2-2.5,0.5-3,1.6c-0.1-2.2,0-4.3,0.5-6.4c0.7-1.1,2.6-0.5,2.5-2.9s-0.8-2.1-2.3-1.7   c-1.5,0.3-1.9-0.5-2-2.9c-0.1-1.8,0.5-3.6,1.7-5c0.8-0.9,1.8-1.3,1.1-3.1c-0.7-1.9-1.9-1.3-1.9-1.3c1.4-4.1,4-4.6,4.4-4.7    M193.7,35c-0.4,0.4-0.3,1.1,0.1,1.5c0.1,0.1,0.1,0.1,0.2,0.1c0.6,0.4-0.5,0.6-0.7,0.6c-0.1,0-0.8-0.8-0.9-0.8   c-0.1-0.4-0.2-0.7-0.3-1.1l1.8-1.9C194.1,34,194,34.5,193.7,35 M190.8,33l1.9-1.4c0.2,0.5,0,1.1-0.4,1.4c-0.7,0.7-1.5,1.1-0.6,2.3   c0.8,1.2-1.1,0.3-1.1,0.3l-0.5-1.5L190.8,33z M187.6,14.5l1.6,0.6c0,0-2,0.6-1.4,1.8c0,0,0.9,0.5,0.4,0.5c-0.5-0.2-0.9-0.6-0.9-1.2   c0.1-0.5,0.1-1,0-1.5c-0.2-0.5-0.2-1.1,0-1.6c0.3-0.5,0-0.7,0.1-1.4c0.1-0.7,0-1.1,0.4-1.3c0.8-0.1,1.6,0.2,2,0.9   c0,0-2.2-0.3-1.9,0.9l1.7,1.3c0,0-2.7-0.2-2,1.1 M189,56.7c0,1.7,0,3.4-0.3,5.1l-2.1,0.2V50.9C187.9,52.1,189.1,51.9,189,56.7"></path>
	<path class="st3" d="M198.8,62.7L198.8,62.7c-0.6,0.4-1.3,0.7-2,0.6h-0.4c-1.5,1-2.7,2.5-3.4,4.2c-0.4,0.8-0.6,1.7-0.5,2.5   c3.4,0.8,6.9,0.9,10.4,0.4c0.7-0.3,1.3-0.8,1.7-1.5c1-1.7,2.1-3.2,3.4-4.7c-1.6-0.7-3.3-1.2-5.1-1.4   C201.4,62.8,200.1,62.8,198.8,62.7"></path>
	<path class="st3" d="M173.5,65.6c-3.4,2.9-3.3,7.4-0.2,8.2c2.8-0.4,5.4-1.5,7.7-3.1l-0.5-0.2c0.8-2.1,2.1-7,2.1-7   C179.5,63,176.2,63.8,173.5,65.6"></path>
	<path class="st3" d="M222.6,65.1c-3.4,0.3-6.8,6.3-6.8,6.3c7.5,3.5,13.2,2.9,13.3-0.9c0-3-2.4-5.5-5.5-5.5   C223.3,65,222.9,65.1,222.6,65.1"></path>
	<path class="st3" d="M237,130.1c-1.1-4.5-2.9-7.9-9.4-8.1c-6.6-0.2-10.1-1.3-10.8-5.3c-0.4-2.3-0.8-4-1-5.1c0,0.1-0.3,0.6-0.3,0.5   c-1.9-1.9-3.1-4.4-3.4-7.1c-0.2-4.3,0.7-8.5,2.7-12.3c-0.6,0.2-1.2,0.5-1.8,0.8c-1.8,0.8-1.8-4.7-1.8-4.7c-1-11.4-5.6-15.8-7-16.9   c-1.6-0.3-3.3-0.3-4.9,0c-3.1,0.6-6.4-0.8-9.4,0c-1.7,0.5-3.5,0.6-5.3,0.3c-0.9,0.1-1.8,0.1-2.7-0.1h-0.6   c-1.2,9.3-13.8,21.7-16.7,24.6c0.9,0.5,1.5,1.2,0.7,2.2c1.8,1.5,3.4,3.2,4.9,5c0.4,0,0.9,1.1,1.5,1.4c4.1,4.5,6.9,10,8.3,15.9   c-2.6,0.5-5.1,1.4-7.4,2.9c2.7-1.2,5.5-2,8.4-2.5c-1.6-4.7-3.5-9.3-5.9-13.7c-1.9-2.9-4.2-5.6-6.6-8l13.6-0.2   c0.5,0,8.1,0.9,3.2,1.3c-8.7,0.7-6.7,3.4-6.7,3.4c10.5,18.1,5,30.8,5,30.8c-0.1-0.6-0.2-1.1-0.4-1.7c0,0-0.9-5.5-1.6-9.6   c-0.1-0.7-0.3-1.4-0.5-2.1l-1.6,3.6c-11.5,1.8-16.4,16.3-16.4,16.3l-0.9-0.5c1.4-4.4,3.1-8.6,5.2-12.6c-1.1,1.2-2.1,2.6-2.9,4   c-5.5,10.2-2.5,10.6-2.5,10.6s7.3,0.1,7.4,0c0.1-0.1,2,8.7,8.7,11.7c4.2,1.8,10.6-0.6,15-2.9h-0.1c2.6-1.7,5.1-3.6,7.3-5.8h23.9   c1.7-2.4,3.2-5,4.4-7.7c2.7,1,5.5,1.5,8.4,1.4C237.5,136.6,237.5,133.3,237,130.1 M195.3,131.6l-3.5,1.7v-1.2   c0.8-7.5-1.1-15.1-5.3-21.4c9.2,7.3,8.9,21,8.9,21 M185.4,92.5c-0.2,0-13.9-1.9-14.1-1.8c-0.1,0.1,1.7-2.9,1.7-2.9l4.8-6.8   c0,0-3.2,6.1-2,7.4s18.2,1.2,26-0.4C201.8,88,185.6,92.6,185.4,92.5 M205,126.6c-4.3-8.4-2-19.4-2-19.4l3.6,15   c0.1,0.7,0.1,1.4,0,2.1L205,126.6z M215,134.9l-2.5,5.8l-1.1,1.5c-0.1-7.6,3.3-14.8,9.1-19.6l5.2-0.3   C221.1,125.5,217.4,129.9,215,134.9"></path>
	<path class="st4" d="M148,320.8L148,320.8l-1.1,1.5c-0.2,0.2-0.3,0.4-0.4,0.7c0,0.1,0,0.2,0,0.3c0.1,0.1,0.2,0.2,0.3,0.2h0.2   c0,0,0.2,0,0.1,0c0,0,0,0-0.2,0l-1.3-0.4l-1.4-0.3c-0.1,0-0.2,0-0.2-0.2c0-0.2,0,0,0.2,0h0.4c0.3,0,0.5,0,0.7-0.1   c0.1-0.1,0.2-0.2,0.3-0.3l0.3-0.3l5-6.4c0.2-0.3,0.4-0.4,0.5-0.4c0.1,0,0.2,0.2,0.2,0.5c0.3,2,0.6,4.6,1,7.9c0,0.4,0.2,0.8,0.3,1.2   c0.1,0.2,0.2,0.3,0.4,0.4l0.5,0.2c0,0,0.1,0,0,0s0,0,0,0h-0.5l-2.3-0.6c-0.2,0-0.3,0-0.3-0.2s0,0,0.2,0c0.2,0,0.2,0,0.2-0.2   l-0.3-2.7l0,0L148,320.8z M150.6,320.8L150.6,320.8l-0.3-3.1l0,0l0,0l-1.9,2.5l0,0L150.6,320.8z"></path>
	<path class="st4" d="M158.8,323.2c-0.2,0.8-0.3,1.3-0.3,1.7c-0.1,0.3-0.1,0.6,0,0.8c0.1,0.1,0.3,0.2,0.4,0.3c0.3,0.1,0.6,0.2,1,0.3   h0.9c0.2,0,0.4,0,0.6-0.1c0.2-0.2,0.4-0.4,0.5-0.6c0.1,0,0.1,0,0.2,0c0,0,0,0,0,0.2l-0.2,0.6c-0.1,0.3-0.2,0.5-0.3,0.7   c0,0.1-0.1,0.2-0.2,0.2c-0.2,0-0.4,0-0.6,0l-3.5-0.8l-1.5-0.3c-0.2,0-0.2,0-0.2-0.2s0,0,0.2,0h0.4c0.1,0,0.2-0.1,0.3-0.2   c0.1-0.1,0.2-0.3,0.2-0.4c0.2-0.5,0.3-1.4,0.6-2.5l0.4-2c0.3-1.5,0.5-2.3,0.5-2.5c0-0.2,0-0.3,0-0.5c-0.1-0.2-0.2-0.3-0.3-0.3h-0.4   c0,0-0.2,0-0.2-0.1c0-0.1,0,0,0.3,0l1.6,0.4l1.6,0.3c0.2,0,0.2,0,0.2,0.1c0,0.1,0,0-0.2,0h-0.5c-0.1,0-0.3,0-0.4,0   c-0.1,0.1-0.2,0.3-0.2,0.5l-0.2,0.7l-0.4,1.8L158.8,323.2z"></path>
	<path class="st4" d="M167.2,319.8l-1.8-0.3h-0.8c-0.2,0-0.3,0.1-0.5,0.2c-0.1,0.1-0.2,0.2-0.3,0.4c0,0,0,0-0.2,0s0,0,0-0.2v-0.3   l0.1-0.4l0.3-0.6c0,0,0-0.2,0.2-0.2h0.2h0.3l1.2,0.3l4.9,0.8c0.4,0.1,0.8,0.1,1.2,0c0,0,0,0,0,0.3l-0.3,1.4c0,0,0,0.2-0.1,0.2   s0,0,0-0.3l0,0c0-0.2-0.1-0.4-0.2-0.5c-0.3-0.1-0.6-0.2-1-0.2l-1.5-0.3l-0.8,4.8c-0.2,1.1-0.3,2-0.3,2.5c0,0.1,0,0.3,0,0.4   c0,0.1,0.2,0.3,0.3,0.3l0.6,0.1c0,0,0.2,0,0.2,0c0,0,0,0-0.3,0l-1.9-0.3l-1.6-0.2c-0.2,0-0.2,0-0.2-0.1c0-0.1,0,0,0.2,0h0.5   c0.1,0,0.2-0.1,0.3-0.2c0.1-0.1,0.1-0.3,0.1-0.4c0-0.5,0.3-1.4,0.5-2.5L167.2,319.8z"></path>
	<path class="st4" d="M175.4,323.8c0.2-1.6,0.3-2.4,0.3-2.5s0-0.6-0.3-0.7h-0.4c0,0-0.2,0-0.2,0s0,0,0.3,0l1.6,0.2h1.5   c0.2,0,0.3,0,0.3,0s0,0-0.2,0h-0.4c-0.1,0-0.3,0-0.4,0.1c-0.1,0.1-0.2,0.3-0.2,0.5c0,0.2,0,0.4,0,0.7c0,0.3,0,0.9-0.2,1.8l-0.2,2.1   c0,1.2-0.2,2-0.3,2.6c0,0.1,0,0.3,0,0.4c0.1,0.1,0.2,0.2,0.3,0.2h0.6c0,0,0.2,0,0.2,0s0,0-0.3,0l-1.9-0.3l-1.6-0.1   c-0.2,0-0.2,0-0.2,0s0,0,0.2,0h0.5c0.2,0,0.4-0.2,0.4-0.5c0.1-0.3,0.2-1.4,0.3-2.6L175.4,323.8z"></path>
	<path class="st4" d="M185.5,330.5c-1.5,0-2.8-0.6-3.8-1.8c-1.6-2-1.2-5,0.8-6.6c1-0.8,2.3-1.1,3.6-1c3.3,0.2,4.9,1.8,4.8,4.7   c0,1.3-0.6,2.5-1.6,3.4C188.2,330.1,186.9,330.6,185.5,330.5 M186,329.9c0.3,0,0.6,0,0.8,0c0.4-0.1,0.7-0.2,1-0.5   c0.4-0.3,0.7-0.7,0.8-1.1c0.3-0.6,0.4-1.3,0.4-2c0.1-1.1-0.2-2.3-0.9-3.2c-0.6-0.8-1.5-1.3-2.5-1.3c-0.4-0.1-0.7-0.1-1.1,0   c-0.4,0.1-0.7,0.3-1,0.5c-0.3,0.3-0.6,0.7-0.8,1.1c-0.2,0.6-0.4,1.2-0.4,1.8c-0.1,1.1,0.2,2.3,0.8,3.2   C183.9,329.3,184.9,329.9,186,329.9"></path>
	<path class="st4" d="M193.8,324.9c0-1.5,0-2.3,0-2.5c0-0.2,0-0.3,0-0.5c-0.1-0.1-0.3-0.2-0.4-0.2h-0.5c-0.1,0-0.2,0-0.2,0   c0,0,0,0,0.3,0h1.7h1.7h1.2c0.4,0.1,0.8,0.2,1.1,0.4c0.2,0.1,0.4,0.3,0.6,0.6c0.2,0.3,0.3,0.7,0.3,1c0,0.5-0.1,0.9-0.3,1.3   c-0.3,0.5-0.8,1-1.3,1.4c1.1,1.3,2,2.3,2.9,3.1c0.3,0.3,0.6,0.5,0.9,0.6l0.5,0.1h0.3c0,0,0.1,0,0.2,0s0,0-0.2,0h-2   c-0.2,0-0.4-0.1-0.5-0.1c-0.7-0.4-1.3-1-1.7-1.7l-0.8-1l-0.5-0.6c-0.1,0-0.2,0-0.2,0h-1.1l0,0v0.2c0,1.2,0,2,0,2.6   c0,0.1,0,0.3,0,0.4c0.1,0.1,0.2,0.2,0.4,0.2h0.6h0.1c0,0,0,0-0.2,0h-1.8h-1.5c-0.2,0-0.3,0-0.3,0s0,0,0.2,0h0.4   c0.1,0,0.2-0.1,0.3-0.2c0-0.1,0-0.3,0-0.4c0-0.5,0-1.4,0-2.6L193.8,324.9z M195.3,325.9c0,0,0,0.2,0,0.2c0.3,0,0.6,0,1,0h0.5   c0.1,0,0.2-0.1,0.3-0.2c0.2-0.2,0.4-0.4,0.5-0.6c0.1-0.4,0.2-0.8,0.2-1.2c0-0.4-0.1-0.7-0.2-1.1c-0.1-0.3-0.3-0.5-0.5-0.7   c-0.2-0.2-0.4-0.3-0.6-0.3c-0.2,0-0.4,0-0.6,0h-0.7L195.3,325.9z"></path>
	<path class="st4" d="M205.5,327.1L205.5,327.1l-0.5,1.8c0,0.2,0,0.5,0,0.8c0,0.1,0,0.2,0,0.2c0.1,0.1,0.3,0.1,0.4,0h0.2h0.2   c0,0,0,0-0.2,0h-1.3h-1.4c-0.1,0-0.2,0-0.2,0s0,0,0.1,0h0.4c0.3,0,0.5-0.2,0.6-0.4c0.1-0.1,0.2-0.2,0.2-0.3l0.1-0.4l2.7-7.7   c0-0.3,0.2-0.5,0.3-0.5s0.2,0,0.3,0.3l3.4,7.4c0.2,0.4,0.4,0.7,0.7,1c0.1,0.1,0.3,0.2,0.5,0.2h0.5h0.2l0,0h-0.5h-2.3   c-0.2,0-0.4,0-0.4,0s0,0,0.2,0s0.1,0,0-0.3l-1.2-2.5l0,0L205.5,327.1z M208,326.4L208,326.4l-1.3-2.9l0,0l0,0l-1,2.9l0,0H208z"></path>
	<path class="st4" d="M219.1,323.5c-0.2-1.6-0.3-2.4-0.3-2.5c0-0.2-0.1-0.3-0.2-0.4c-0.1-0.1-0.3-0.2-0.4-0.2h-0.5c0,0-0.2,0-0.2,0   c0,0,0,0,0.3,0l1.8-0.2l1.8-0.3c0.3,0,0.7,0,1,0h0.7l0.5,0.2l0.2,0.1c0.2,0.1,0.4,0.3,0.5,0.5c0.2,0.3,0.3,0.5,0.3,0.8   c0.1,0.8-0.1,1.6-0.6,2.2c-0.5,0.6-1.3,1-2.1,1.1h-0.3c0,0,0,0-0.1,0l0,0h0.3c0.4-0.1,0.8-0.3,1-0.7c0.3-0.4,0.5-1,0.4-1.5   c0-0.1,0-0.3,0-0.4c0-0.1-0.1-0.3-0.1-0.4c-0.1-0.2-0.2-0.3-0.3-0.5c-0.1-0.2-0.3-0.3-0.5-0.4c-0.2-0.2-0.5-0.3-0.7-0.3h-0.6h-0.5   c0,0,0,0,0,0.2l0.6,4.7c0,1.1,0.3,2,0.4,2.5c0,0.1,0.1,0.3,0.2,0.4c0.1,0.1,0.2,0.2,0.4,0.2h0.6h0.2c0,0,0,0-0.2,0l-1.9,0.2   l-1.6,0.2c-0.2,0-0.3,0-0.3,0s0,0,0.2,0h0.4c0.1,0,0.2-0.1,0.2-0.3c0-0.1,0-0.3,0-0.4c0-0.5,0-1.4-0.3-2.5L219.1,323.5z"></path>
	<path class="st4" d="M228.1,322.2c-0.3-1.5-0.4-2.4-0.5-2.5c0-0.2-0.1-0.3-0.2-0.4c-0.1-0.1-0.3-0.1-0.5,0h-0.5c0,0-0.2,0-0.2,0   c0,0,0,0,0.3-0.1l1.8-0.3l3.1-0.5l0.5-0.2h0.2l0,0c0,0,0,0.3,0,0.8c0,0.5,0,0.5,0,0.8 M232,319.9c0,0,0,0,0-0.1   c0-0.1-0.1-0.3-0.1-0.4c-0.1-0.1-0.1-0.2-0.3-0.2c-0.2,0-0.4,0-0.6,0h-0.8l-0.9,0.1l0,0l0.5,2.9l0,0l1-0.2l1-0.2   c0.2,0,0.4-0.1,0.5-0.3c0,0,0-0.2,0.2-0.2c0.2,0,0,0,0,0s0,0.3,0,0.9c0,0.5,0,0.6,0,0.8c0,0,0,0.1,0,0.1l0,0l0,0c0-0.1,0-0.3,0-0.4   c0-0.1-0.1-0.2-0.2-0.3c-0.2,0-0.3,0-0.5,0h-0.8l-0.9,0.2l0,0l0.2,0.9c0,0.6,0.2,1.2,0.3,1.8c0,0.3,0.2,0.6,0.4,0.8   c0.4,0.1,0.8,0.1,1.2,0h0.6c0.2,0,0.4-0.1,0.5-0.2c0.3-0.2,0.5-0.6,0.4-1c0,0,0-0.1,0-0.1l0,0c0,0,0,0,0,0.2c0,0.2,0,0.4,0,0.7   c0,0.2,0,0.4,0,0.7c0,0.1,0,0.2,0,0.3h-0.5l-3.4,0.5l-1.5,0.3c-0.2,0-0.3,0-0.3,0s0,0,0.2,0h0.4c0.1,0,0.2-0.1,0.2-0.3   c0-0.1,0-0.3,0-0.4c0-0.5-0.2-1.4-0.4-2.5L232,319.9z"></path>
	<path class="st4" d="M237.5,317.5l-1.8,0.5l-0.8,0.3c-0.2,0.1-0.3,0.2-0.3,0.4c0,0.2,0,0.3,0,0.5c0,0,0,0.1,0,0.2c0,0,0,0-0.1-0.1   c0-0.1,0-0.2,0-0.3v-0.4c0-0.3,0-0.6,0-0.7c0-0.1,0-0.2,0-0.3h0.5l1.2-0.2l4.8-1.2c0.4-0.1,0.8-0.2,1.1-0.4c0,0,0,0,0.1,0.2   l0.3,1.4v0.2c0,0-0.1,0-0.2-0.2l0,0c0-0.2-0.2-0.3-0.4-0.4c-0.4-0.1-0.8-0.1-1.2,0l-1.5,0.3l1.1,4.8c0.3,1.1,0.5,1.9,0.7,2.5   c0.1,0.1,0.1,0.3,0.2,0.4c0.1,0.1,0.3,0.1,0.4,0h0.6c0,0,0.2,0,0.2,0c0,0,0,0-0.2,0.2l-1.9,0.4l-1.5,0.4c-0.2,0-0.3,0-0.3,0   s0,0,0.2,0l0.4-0.1c0.1-0.1,0.2-0.2,0.2-0.3c0-0.1,0-0.3,0-0.4c0-0.5-0.3-1.4-0.5-2.5L237.5,317.5z"></path>
	<path class="st4" d="M251.2,322.6c-1.3,0.5-2.9,0.4-4.1-0.3c-2.2-1.3-3-4.2-1.7-6.4c0.7-1.1,1.8-1.9,3.1-2.2c3.1-0.9,5.2,0,6.1,2.7   c0.4,1.2,0.3,2.6-0.3,3.7C253.6,321.4,252.5,322.3,251.2,322.6 M251.5,321.9c0.3-0.1,0.5-0.2,0.8-0.4c0.3-0.2,0.6-0.5,0.8-0.8   c0.2-0.4,0.4-0.9,0.4-1.4c0-0.7-0.1-1.4-0.3-2c-0.3-1.1-1-2.1-2-2.7c-0.9-0.5-1.9-0.7-2.9-0.3c-0.3,0.1-0.7,0.3-1,0.5   c-0.3,0.2-0.6,0.5-0.8,0.9c-0.2,0.4-0.3,0.8-0.3,1.3c0,0.6,0.1,1.3,0.3,1.8c0.3,1.1,1,2,1.9,2.7   C249.3,322.1,250.4,322.2,251.5,321.9"></path>
	<path class="st4" d="M198.4,62.2h1c0,0-0.6-1.8,0.4-2.1c1.1-0.4,1.1-0.9,1.1-0.9c-0.7,0.6-1.4,0.4-2.2,0.6   C197.3,60.3,198.4,62.2,198.4,62.2"></path>
	<path class="st4" d="M217.7,10.4c-0.5-0.8-0.9-1.7-1.1-2.6l0,0c0-0.4,0.1-0.8,0.3-1.2c0.8-1.2,0.8-2.7,0-3.9   c-0.5-0.2-1-0.3-1.5-0.2c-0.3-0.3-0.8-0.5-1.2-0.6c0.2-0.7,0-1.4-0.6-1.8c-1.1-0.4-2.4,0.1-2.9,1.2c-1.3-0.1-2.7,0.1-3.9,0.6   c-1.4,0.5-1.6,1.3-1.3,2c-1,0.3-1.9,0.6-2.9,1c-1.2,0.6-1.7,0.9-1,2.5c-0.1,0.7,0.3,1.4,0.9,1.8c0.4,1.7,0.9,1.7,2.5,1.7   c1.1-0.2,2.2-0.2,3.2,0c0,0.6-1.4,2-2.7,2.9c-1.4,1-2.7,2.3-3.6,3.8c-1.7-0.9-3.3-2-4.9-3.2c-1.6-1.6-2.5-2.9-3.8-3.6   c0-1.7,0-3.3,0-4.1c0-1.3-0.3-2-2.3-2s-2.6,0.5-2.6,1.5v3.3c-0.2,0-0.4,0.1-0.6,0.2c-0.8,0.6-1.1,1.6-0.8,2.5   c-0.4,0.4-0.5,1-0.4,1.6c0,0.4,0.2,0.8,0.5,1.1c0,0-0.5,0.5,0,1.6c0.1,0.2,0.2,0.3,0.3,0.5l-0.6-0.4c-0.5-0.3-1.2,0-1.5,1   c-0.3,1-0.8,2.9,0.2,3.6c1,0.6,1.6,1.6,1.8,2.7c0,1-0.3,6.4-0.3,6.4c0,1.3-0.8,0.6-1.5,0.5c-1.4-0.3-1.8,3.9-1.2,4.6   c0.7,0.8,1.4,1.6,2,2.4c0.5,2.4,0.5,4.8,0.2,7.2c-0.3,0.3-0.3,0-1.8-0.4c-1.5-0.4-2,2.5-1.8,4c0.1,1.6,1.9,1.1,2.9,3.5   c0.3,3.3,0.2,6.7-0.3,10h1.8c0.5-3.4,0.5-6.8,0.1-10.2c-0.5-1.4-2.9-2.9-2.9-2.9c0.7-1,0.8-2.2,0.3-3.3c0,0,0.8,0.4,1.6,0.6   c0.7,0.3,1,0.8,1.3-1.1c0.2-2.3,0.2-4.7,0-7c0-1.7-1.2-2.1-2.3-3.8c0.5-0.7,0.7-1.6,0.4-2.4c0,0,1.2,0.8,1.6,0.8   c0.4-0.1,0.8-0.6,0.9-1.6c0.1-1,0.2-6.5,0.3-7.9c0-1.8-2.1-3.3-2.1-3.3c0.3-0.7,0.5-1.5,0.4-2.3c0,0,1.2,1,1.9,0.7   c0.7-0.3,0.6-0.4,0.6-1h0.4c0.5-0.3,1-0.7,1.2-1.2c0-0.5-0.2-1-0.7-1.2c0.3-0.2,0.6-0.6,0.7-1c0-0.5-0.3-0.9-0.8-1.2   c0.3-0.2,0.6-0.5,0.8-0.8c0-0.7-0.5-1.4-1.1-1.8l-0.3-0.2c0-1.8,0-3.4,0-3.4c0.9,0.3,2,0.3,2.9,0c0,0,0,7.8,0,9.6   c0,1.8,2.1,0.8,2.1,0.8c-0.1,0.6,0,1.2,0.3,1.8c0,0-1.6,0.8-1.6,1.7c-0.2,2.3-0.1,4.7,0.2,7c0.2,0.4,0.6,0.8,1.1,0.8l-0.4,0.5   c-1.4,1.4-2.4,0.8-3.6,1.7c-1.1,0.9-1.3,2.4-0.5,3.6c0,1.1,0.8,2.1,2,2.3c0.2,0.6,0.5,1.1,0.9,1.5c0.7,0.5,1.6,0.7,3.2-0.8   c0,0-0.3,2.1,0.7,2.4c-1,0.8-1.9,1.8-2.6,2.9c-0.5,1.9-0.5,3.9-0.2,5.8c0.5,2.3,2.3,1.4,3.6,0.7c0,0-0.4,2,0.3,2.9   c0,0-2.1,1.1-2.6,2.3c-0.6,2.7-0.7,5.4-0.3,8.1h1.2c0.5,0,0.9,0.3,0.6-0.6c-0.3-0.8,0-1.7,0.7-2.2c0.6-0.4,1,0.3,3.5-0.7   c1.3-0.7,2.4-1.5,3.3-2.6c1.6-1.8,2-3.4,1.4-4.3c-2.4-2.4-4.3-3.8-4.3-7.8c0-1.2,1.8-2,2.6-2.9c2.9-3.4,1.4-5.8,1.2-5.8   c-0.2,1.8-1.1,3.5-2.5,4.8l-1,0.9c-1.2-2.7-1.5-5.8-0.8-8.7c2.4-0.7,4.8-1,7.2-1.2c1,0,1.8-0.7,2.2-2.3c0.3-1.1,0.8-2.2,1.6-3   c-2.6,0.4-2.9,2.9-3.6,3.5c-0.7,0.6-4.4,0.5-7.8,1.5c-3.4,1-4,1.9-5.8,5c-0.2,0.5-0.7,0.7-1.2,0.8c-0.8-0.4-1.1-1.1-0.3-1.8   s1.1-1.2,1-1.6c-0.5,0.4-1,0.9-1.5,1.4c-0.3,0.3-0.7,0.5-1.2,0.6c-0.6-0.3-0.8-0.9-0.6-1.5c0.1-0.3,0.3-0.5,0.6-0.6   c1-0.5,1.6-1.2,1.4-1.5c-0.8,0.6-1.1,0.4-1.8,0.9c-0.8,0.4-0.7,0.5-0.7,0.5c-0.9-1.7,0.9-2.2,2.3-2.5c1.4-0.3,2.4-1.6,4.3-3   c1.8-1.4,2-0.6,4.5-2.9c2.2-2,4.7-3.6,7.4-4.9c-2.1-0.8-5.8,2.2-7,3.2l-0.4,0.2c0.5-3.3,2.3-6.3,5-8.2c1.3-0.9,2.3-2.1,2.9-3.6   c3.1,0.9,4.6-1.1,4.3-2.1c-0.4,0.6-1,1-1.8,1.2c0.2-0.7,0.3-1.4,0.4-2.1c1.1,0,2.1-0.1,3.2-0.2c0.4,1.1,1,2.1,1.5,3.1   c2.3,3.6,3.1,8,2.2,12.1c-1.8,1.2-3.1,4.6-3.1,12.8c0.1,1,0.4,2,0.9,2.9c0.9,2.1,0.9,4.4,0,6.5c-0.1,0.3-0.5,0.4-0.8,0.4   c-0.6-0.3-1.4-1.1-1.7-3.3c0,0,0,5-3.8,6.5c-1.3,0.5-0.8,1.9,0.3,2.3s1.2,0.5,0.6,2c-0.5,1.5-1.2,2.8-2.2,4   c-1.6,2.1-3.7,3.6-6.1,4.5c-5,1.8,1.7,0.5,1.7,0.5c1.6-0.7,3-1.7,4.3-2.9c2.9-2.9,5.6-8.1,3.2-8.7c-1.1-0.3-1.2-0.2,0-1   c1.3-0.7,2.1-2.1,2-3.6c0.1,0.2,0.3,0.3,0.4,0.4c0.3,1.8,1.2,3.4,2.5,4.6c0.4,0.3,0,0.4-0.5,2.2c-0.6,1.3-0.8,2.7-0.8,4.1   c0,1.6-1.8,3.2-4.5,4.9c-2.7,1.6,1.9,0.9,1.9,0.9s4-2.9,4-5c-0.2-1.7,0.1-3.4,0.8-5c0.8-1.8,0.9-2.3,0-3.3   c-0.7-0.5-1.2-1.3-1.4-2.2c1.1,0,4.2-4,0.5-10.8c-0.4-4.5,0.6-11,2.9-12.5C222.3,18.7,219.4,13.2,217.7,10.4 M188.6,12.9   c1.2,0.3,1.2,0.9,1.2,0.9c-0.3,0.4-0.9,0.7-1.4,0.7C187.2,14.5,187.3,12.5,188.6,12.9 M190.1,15.8c-0.4,0.5-0.9,0.8-1.5,0.8   c-1,0.1-1.2-1.7,0-1.7C189.2,14.9,189.8,15.2,190.1,15.8 M190.1,11.5c-0.4,0.4-1,0.6-1.6,0.5c-1,0-0.8-1.9,0.3-1.7   C189.4,10.4,190,10.9,190.1,11.5 M199.2,32.7c-0.7,3.1-0.3,6.3,1,9.2c-0.3,0.2-0.5,0.5-0.6,0.8c-0.4,3.6,1.1,7.1,4,9.3   c1,1.4-0.8,3.3-2.2,4.4c-0.8,0.7-1.8,1.1-2.9,1.2c-1.2,0-1.3-0.4-2.3,0.4l-0.2,0.3c-0.1-1.1-0.1-2.2,0-3.3c0.3-1.6,1.6-2,2.3-2.6   c0.8-1,1-2.3,0.6-3.5c-0.3-1.8-1.5-1.4-1.8-1.3c-1,0.4-1.9,1-2.2-0.2c-0.3-1.4-0.3-2.9,0-4.3c0.3-1.2,2.2-2.9,2.7-3.6   c0.5-1,0.3-2.2-0.3-3.1c-0.3-0.5-0.9-0.8-1.5-0.8C196.5,34.4,197.7,33.3,199.2,32.7 M195.3,26.9c-0.3-0.1-0.6-0.3-0.9-0.5   c-0.2-1.6-0.3-3.2-0.2-4.9c0-0.1,0-0.1,0-0.2c1,1.4,2.2,2.7,3.6,3.8C196.8,25.6,196,26.2,195.3,26.9 M199.6,24.3   c-2-0.9-3.8-2.3-5-4.2c0.2-0.2,0.4-0.3,0.6-0.5c0.7-0.4,0.5-1.6,0.3-2.5c-0.2-0.9-0.6-1.9-1.5-1.5c-0.9,0.4-0.9,0-0.9,0   s0-1.5,0-3.2c1.1,0.8,2.1,1.8,2.9,2.9c1.6,1.3,3.3,2.5,5,3.6c-0.7,1.8-1.1,3.6-1.4,5.5 M212.6,0.5c0.4,0.1,0.7,0.4,0.7,0.9   c-0.6-0.1-1.2-0.2-1.8-0.2C211.7,0.7,212.2,0.5,212.6,0.5 M204.6,9.8c-0.9,0-1-0.1-1.1-0.6c-0.1-0.4,1.7-0.3,1.8-0.3   c0,0,0.2-0.9-0.6-0.7c-0.5,0.2-1.1,0.3-1.7,0.2c-0.5-0.3-0.5-1.4-0.5-1.4c0.3-0.1,0.6-0.4,0.7-0.7c0,0-0.8,0-0.8-0.4   c0.1-0.4,2.2-1,2.9-1.1c0.6,1.5,0.9,3.1,0.8,4.7h-1.4 M211.1,10.2c-0.7,0.1-1.4,0-2-0.2c-0.7-0.3-1.5-0.5-2.3-0.5   c0-0.6,0-1.3,0-1.9c1.6,0.2,3.2,0.4,4.8,0.4c0,0.7-0.2,1.5-0.3,2.2 M206.4,6.8c-0.1-0.7-0.3-1.4-0.6-2.1h0.6c0,0-0.7-1.5,0.5-1.9   c1.1-0.4,2.3-0.7,3.5-0.8c0.6,1.7,0.9,3.4,0.9,5.2C209.7,7.2,208,7.1,206.4,6.8 M214.4,7.1c-0.6,0-1.4,0-2.3,0.2   c0.1-1.8-0.2-3.6-1-5.3c0.6,0,1.2,0,1.8,0.1c1,0.1,1.2,0.6,1.2,0.6c-1.4,0.6-1.2,1.6-1.2,1.6c0.6-0.9,3-1.3,3.4-0.8   c0.5,1.4-0.3,2.9-1.7,3.4C214.6,7,214.5,7,214.4,7.1"></path>
	<path class="st4" d="M207.2,4.1c0,0.2,0.1,0.4,0.3,0.5c0,0.7,0.3,0.8,0.3,0.8c0.2-0.2,0.5-0.3,0.7-0.4c1-0.5,1.1-1,1.1-1   c-0.2,0-0.5,0-0.7,0C208.2,4,207.4,4,207.2,4.1"></path>
	<path class="st4" d="M193.4,132.7c0.1-6.2-1.4-12.4-4.1-18c-2-4-2.7-4-2.7-4c6.2,15.9,4,23.5,4,23.5L193.4,132.7z"></path>
	<path class="st4" d="M183.6,138.7c-2.6-2-4.4-4.9-5-8.1c-1,2.2-0.7,4.8,0.8,6.7c2.3,3.6,3.9,4.3,3.9,4.3c5.9,0,11.6-2.2,15.9-6.4   c3.5-3.3,6.6-6.9,9.4-10.8c-3.5-7.3-4.5-15.6-2.9-23.6c0,0-2.5,0.6-2.9,6.4c-0.2,5.7,0.9,11.3,3.2,16.5   C205.9,123.7,195.9,140,183.6,138.7"></path>
	<path class="st4" d="M192.5,42c-0.5-1-0.8-2-0.9-3.1c-0.3-2.2-0.6-0.2-0.6,1.4c0,1.6,0,1.8,0,2.3c-0.6,3.3-0.5,6.6,0.3,9.9   c0,0.7-0.3,1.4-0.3,5.4c-0.1,1.5-0.1,3,0,4.5h1.7c-0.6-3-0.4-6.1,0.6-8.9c-2-2.7-1.5-10.9-0.9-11.3"></path>
	<path class="st4" d="M298.4,285.5c-3.8,0.6-7.7,0.8-11.5,0.8c3.4-2.9,5.5-7,5.8-11.4c0-2.1-0.3-2.5-0.3-2.5   c-6.6,5.1-14.5,8.1-22.8,8.7c-11.5,1-18.2,2.4-21.3,5.6c-3.8,3.8-1.3,6.8,0,9c1.8,3,3.3,6.1,4.4,9.4c0,0-19.6,8.6-53.4,9.5   c-33.8,0-52.9-7.9-52.9-7.9c1.1-3.3,2.4-6.5,4.1-9.5c1.3-2.3,3.7-5.3-0.2-9c-3.2-3-9.8-4.3-21.5-4.9c-8.3-0.3-16.4-3.1-23.1-7.9   c0,0-0.4,0.5-0.3,2.5c0.5,4.4,2.7,8.4,6.1,11.2c-3.9,0.1-7.7,0-11.5-0.4c0,0,3.6,12.6,27.5,13.7c-0.2,3.6-0.8,7.2-1.7,10.7   c-1.2,3.2-1.1,4.8,1.3,6.9c2.4,2.1,26.3,18,72.8,17.3l0,0c47.1-0.8,69.3-16.7,72-19.2c2.2-1.7,2.8-4.9,1.3-7.3   c-1-3.5-1.7-7.1-2-10.7C295.2,298.3,298.4,285.5,298.4,285.5 M249.4,294.8c1.8,1.4,5.5,1.2,9.2,0.1s7.7-2.7,8.4-1.1   c0.8,1.6-1,3.9-3.6,5.8c-2.8,2-5.9,3.7-9.1,4.9C253.1,301.1,251.4,297.8,249.4,294.8 M145.1,306.3c-3.1-1.3-6.2-2.9-9.1-4.6   c-3.7-2.4-5.8-5.6-2.6-6.2c2.9-0.1,5.7,0.4,8.4,1.5c2.5,0.9,5.3,0.7,7.7-0.5C147.5,299.4,146,302.8,145.1,306.3 M102.7,290.6   c4.1,0.3,8.3,0.1,12.4-0.5c-7.4-5.8-7.4-11.4-7.4-11.4c9.4,5.8,19.1,6.6,28.9,7c9.7,0.4,14.4,3.9,14.2,6.6c-0.1,1.8-1.7,2.9-5,3.1   c-3.8,0.2-6.3-1.7-10.4-2c-3.2-0.3-6.3,0.5-7.2,3.7c-0.3,1.2-0.5,2.4-0.7,3.6C108.2,299.6,102.8,290.6,102.7,290.6 M271,316.9   c-7.7,5.9-31.8,17.2-70.9,17.9c-39.1,0.7-63.5-9.8-71.4-15.6c-2-1.5-1.6-2.9-0.8-5.4c1-3.5,1.6-7,1.8-10.6   c-0.1-1.8,0.1-3.5,0.6-5.2c1.8,4.9,11.1,9.7,24.9,13.9c17.1,5.2,41.5,5.8,44.7,5.5s27.4-1.2,44.3-6.9c13.7-4.6,22.8-9.8,24.5-14.7   c0.3,0.4,0.4,1.2,0.7,5.1c0.3,3.6,1,7.1,2.1,10.6C272.4,313.9,272.9,315.4,271,316.9 M271.2,298.5c-0.1-1.2-0.3-2.4-0.6-3.6   c-1-3.2-3.3-4.2-7.1-3.4c-3.3,1.1-6.7,1.8-10.1,2.1c-3.2,0-5.3-0.7-5.5-2.9c-0.3-2.9,4.3-6.4,14-7.1c9.7-0.7,19.3-1.9,28.5-7.9   c0,0,0.2,5.8-7,11.5c4.1,0.4,8.3,0.4,12.4,0c0,0-5.3,9.3-24.7,11"></path>
	<path class="st4" d="M170.3,101.5c0,0.1,0,0.3,0,0.4c2.3,16.4-20.5,25.1-28.1,17.3c-5.2-5.3-4-13.8,2.3-13.8   c2.3-0.2,4.5,1.2,5.1,3.5l0,0c0,0,3.7-1.1,3.7-7.2c0.2-4.3-2.5-8.3-6.5-9.8c1.9-2.5,3-5.5,3.2-8.7c0-6.2-3-12.1-8.1-15.8   c-6-4.4-12-2-15.4-6.1c0,0-2.5,1.6-2,7.1c0.6,3.8,2.7,7.2,5.9,9.3c-1.2,0.8-2.2,1.9-3.1,3.1c-1.7-2-4-3.3-6.6-3.6   c-3.6-0.8-7.2,1.1-8.7,4.4c0,0,4.5,1.6,4.9,8.7c0.5,9.5-1.4,17.7,3.5,24c-3.8-2.2-8-3.5-12.4-3.8c-5.1-0.3-10,2-12.9,6.2   c-12.8,2.5-12.4,17-11.5,27.4c0.5,4.1-0.4,8.3-2.6,11.8c6.4,3.9,12.7-1.9,12.7-1.9c0.6,1.4,1.2,2.9,1.6,4.4c-3,2-5.3,4.7-6.7,8   c-2.6,4.9-3.8,10.5-3.4,16.1c0.3,1.6,0.7,3.1,1.3,4.6c-2.1,5.6-1.1,11.9,2.7,16.6c3.1,3.1,5.4,6.9,6.6,11c0.9,2.6,0.9,5.4,0,8   c10.2,0.9,11.5-6.9,11.5-6.9c3,1.1,5.5,3.4,6.8,6.4c0.3,0.8,0.5,1.6,0.5,2.5c-4.8,5.8-12.4,8.6-19.9,7.4   c-1.7,11.7,8.7,12.2,8.7,12.2c-1.5,3.7-2.9,13.5,2,19.7s13.7,10.3,25.8,12.6c7.7,1.5,9.6,3.9,9.6,3.9c1.8-1.5,2.8-3.8,2.5-6.2   c-0.2-4.5-3.8-10.4-11.5-13.5c-7.8-3.1-10-4.9-10.8-6.3c1.3-2.3,3.3-4.2,5.6-5.4c0,0,1.8,6.9,11.5,5.8l-0.2-2.2   c-4.2,1.4-8.7-0.9-10.1-5.1c-0.1-0.4-0.3-0.9-0.3-1.4c-3.1,1.5-5.8,3.7-7.7,6.6c-3.2,5.3-3.9,11.7-2.1,17.6   c-3.6-1.6-6.9-3.8-9.7-6.5c-8-7.9-2.1-21-2.1-21c-11.1-0.9-9-8.5-9-8.5c14.4,0,20.2-8.8,24.2-16.6c3.3-6.3,4.5-12.9,2.9-18   c4.8,4.5,7.6,10.7,7.6,17.3c0,9.6-12,21.7-16.4,27c-2.5,2.5-3.7,6.1-3.2,9.6c0.5-4.3,5.5-10,14.9-20.8c7.3-7.8,8.7-19.4,3.4-28.7   c-4.2-7.8-14.1-13-14.1-13c3.1-4.2,2.2-10.2-2-13.4c-1.1-0.8-2.4-1.4-3.8-1.7c0,5.4-5.8,7.5-10.2,7.3c-5.8,0.2-10.5-4.4-10.7-10.1   c0-0.1,0-0.2,0-0.2c0-4.9,2.4-9.4,6.5-12.1c1,5.1,0.3,10.3-2,15c5.9,2.7,12.8,0,15.5-5.9c0-0.1,0.1-0.1,0.1-0.2   c0.2,1.4,2.9,4.1,7.4,7c3.3,2.6,5.6,6.2,6.7,10.3c5.2-2.4,8.5-7.7,8.3-13.4c0.1-5.3-2-10.4-5.8-14.1c11,0.5,12.7-6.6,7.2-3.8   c-3.7,1.7-7.9,2.2-11.9,1.6c0,0,8.3,7,8.3,15.7c0,7.9-5.2,10.2-5.2,10.2c-2.4-7.1-7.7-8.7-11.2-12c-2.2-1.9-3.5-4.5-3.8-7.3   c-2.6,13.3-12.8,10.5-12.8,10.5s2-2.6,1.4-10.1c-0.6-5.1-2-10-4.4-14.6c-1.7,3.7-5.8,5.7-9.8,4.7c2.9-4.1,2.1-8,1.3-16.7   c-0.8-8.7,1.3-13,3.9-16.2c1.3-1.7,3.1-2.9,5.2-3.3c-0.9,2.2-1.4,4.6-1.3,7c0,12.3,12.1,19.3,16.2,31.5c0-3.1-0.9-6.1-2.7-8.7   c-3.1-4.7-11.5-14.4-11.5-21.7c0-7.2,1.8-11.5,7.3-13.5c3.2-1.2,6.8-1.2,10,0c0,0-7-0.8-7,7.4s10.8,15.6,19.9,11   c0,0,3.2,5.5-7,10.5c0,0,12.2,5.4,15.3,9.3s0.8-1.4,0.8-1.4c-2.5-2.7-5.5-4.9-8.8-6.5c9-4.3,18.7-7.1,28.6-8.3   c0,0-12.5-1.3-30.6,6.5c1.8-1.6,6.7-6.8,3.1-13c-3.6,2.1-7.8,2.7-11.8,1.8c-5.8-1.9-9.7-10.6-6.2-13.8s11.7-0.5,17.8,4.2   c6.1,4.7,8.3,5.8,11.4,5.1c-4.3-2.2-8.2-5-11.5-8.5c-6.1-6-7.3-10.2-7.3-16.4c0-6.2,1.2-17.3-4.2-19.6c0,0,1.1-2.4,5.8-1.9   c3.7,0.4,6.4,3.5,6.3,7.2c1.2-3.1,3.3-5.8,6.1-7.6c3.7-2.2,6.7-5.3,8.7-9.1c1,0.6,1.9,1.4,2.6,2.3c1.2,2.1,1,6.3-3.5,11.3   c-4.4,5-12.4,12.3-11.5,20.4c1.3-5.3,4.1-10,8-13.8c6.1-6.2,9.1-9.8,9.6-13.3c0.5,1.4,0.9,2.7,1.2,4.2c1,5.1-2,8.7-4.2,11.8   c0,0,6.6,1.4,7.4,7.2c0.5,2,0.1,4-0.9,5.8c-1.4-1.8-3.5-2.7-5.8-2.5c-8.1,0-11,10.4-4.9,17.3s19.3,3.6,26-1.7c4-3.2,6.7-7.9,7.4-13   c-0.2-0.4-0.4-0.9-0.7-1.3C171.7,103.5,171,102.5,170.3,101.5 M119.9,256.8c3.3,2.1,6.8,3.8,10.4,5c9.6,3.6,11.9,11.5,10.5,15.4   c-3-1.8-6.3-2.8-9.8-3.2c-3.2-0.4-6.4-1.2-9.4-2.2c-1-0.6-2.9-2.3-2.9-6.9C118.6,262.2,119,259.4,119.9,256.8 M98.9,185.4   c10.8,1.2,12.5-6.1,12.5-6.1c2.8,0.8,4.7,3.5,4.3,6.5c-0.3,2.5-1.4,4.8-3.2,6.6c1.8,0.4,3.6,1.1,5.2,1.9c4.6,3.1,8.2,12.7,0,26.5   c-0.5,0.8-1,1.6-1.6,2.4c0-6.5-10.6-11-10.6-11c0.8,3.6-1.5,7.2-5.2,8c-0.8,0.2-1.5,0.2-2.3,0.1c0.7-11.1-5.9-14.6-8.7-20   c-2.1-3.2-2.7-7.2-1.7-10.9c2.3,4,5.9,7.2,10.1,9c5.7,2.5,11.1,5.5,16.3,8.9c0,0-1.4-3.8-14.4-9.7c-10.9-5-15-13.5-12.1-24   C87.8,180,92.7,184.9,98.9,185.4 M132.1,76.7c-4.5-2.2-6.7-7.3-5.3-12c1.4,1.4,3.7,1.7,7.4,2.1c2.1,0.1,4.1,0.7,5.8,1.9   c-1.5,3.5-4.3,6.4-7.8,8 M310,166.8c-1.4-3.4-3.7-6.4-6.7-8.7c0.4-1.4,0.9-2.7,1.5-4c0,0,6.2,5.8,12.7,1.9   c-2.2-3.5-3.1-7.7-2.6-11.8c1-10.4,1.4-24.9-11.5-27.4c-2.9-4.1-7.8-6.4-12.8-6c-4.4,0.3-8.6,1.6-12.4,3.8c4.9-6.4,2.9-14.4,3.5-24   c0.3-7,4.9-8.7,4.9-8.7c-1.5-3.3-5.1-5.2-8.7-4.4c-2.5,0.4-4.8,1.7-6.4,3.8c-0.8-1.2-1.9-2.2-3.1-3.1c3.2-2.1,5.4-5.5,6-9.2   c0.5-5.5-2-7.1-2-7.1c-3.4,4-9.4,1.7-15.4,6.1c-5,3.6-8.1,9.4-8.2,15.6c0.1,3.1,1.3,6.2,3.2,8.7c-4,1.6-6.6,5.6-6.4,9.9   c-0.2,2.2,0.6,4.4,2,6l0,0c0.5,0.5,1,0.9,1.7,1.1c0.6-2.4,2.8-4,5.3-3.9c6.2,0,7.5,8.7,2.3,13.8c-1.7,1.5-3.9,2.5-6.1,2.9   c-6.5-0.4-12.4-4.2-15.5-10c-8.7-14.8-1.3-28.1-8.2-38l-3.4-0.6c1.6,2,4.9,7.1,4.7,20.7c-0.3,15.3,9.5,26.4,16.3,28.4   c-5.3,0.1-10.5-1.3-15-4c-4.4-2.8-6.9-7.8-6.4-13c0-2.2,2-2.5,2.6-3.7c0.4-1,0.2-2.1-0.5-2.9c-1.6,3.2-7.6,7-9.4,9.8   c-1.5-2.2-2.1-5-1.4-7.7c0.8-4.8,3.2-9.2,6.9-12.4c1.3-1.1,1.5-3,0.4-4.4c-0.1-0.1-0.2-0.3-0.4-0.4c-0.2,1.4-0.9,2.6-2,3.5   c-1.7,1.4-3.6,2.4-5.6,3.1c0,0-0.5-14.4-8-18.8h-2.2c0,0,6.5,3.6,7.7,17c0,0,0,5.6,1.9,4.7c1.9-0.9,1.8-0.8,1.8-0.8   c-2,3.8-3,8.1-2.9,12.4c0.1,2.7,1.4,5.2,3.5,7c1.4-2.1,3.1-3.9,5-5.6c-0.7,6.3,2.7,12.3,8.4,14.9c10,4.9,23.8,6.5,30.1-0.8   c6.4-7.3,3.3-17.3-4.9-17.3c-2.3-0.2-4.5,0.9-5.8,2.7c-1-1.7-1.3-3.7-0.8-5.6c0.8-5.8,7.4-7.2,7.4-7.2c-2.2-3.3-5.1-6.7-4.2-11.8   c0.3-1.4,0.7-2.8,1.2-4.2c0.6,3.5,3.5,7.1,9.6,13.3c3.9,3.7,6.7,8.5,8,13.8c0.8-8.1-7-15.2-11.5-20.4c-4.5-5.1-4.7-9.2-3.5-11.3   c0.6-0.9,1.4-1.7,2.4-2.4c2,3.7,5,6.9,8.7,9c2.8,1.8,4.9,4.5,6.1,7.6c0-3.6,2.7-6.6,6.3-7c4.7-0.5,5.8,1.9,5.8,1.9   c-5.4,2.3-4.2,13.4-4.2,19.6c0,6.2-1.2,10.4-7.3,16.4c-3.4,3.4-7.3,6.3-11.5,8.5c3.1,0.8,5.3-0.4,11.4-5.1   c6.1-4.7,14.2-7.4,17.8-4.2c3.5,3.2-0.5,11.9-6.2,13.8c-4,0.9-8.3,0.3-11.8-1.8c-2.2,4.1-1.3,9.3,2.3,12.3c-17.3-7.2-29.3-6-29.3-6   c9.9,1.2,19.6,4,28.6,8.3c-3.5,1.7-6.7,3.9-9.3,6.8c0,0-2.3,5.4,0.8,1.4c3.1-4,15.3-9.3,15.3-9.3c-10.2-5-7-10.5-7-10.5   c9.1,4.6,19.9-2.9,19.9-11s-7-7.4-7-7.4c3.2-1.2,6.8-1.2,10,0c5.5,2,7.4,6.3,7.4,13.5c0,7.2-8.7,16.9-11.5,21.7   c-1.8,2.5-2.7,5.6-2.7,8.7c4.1-12.2,16.2-19.2,16.2-31.5c0.1-2.4-0.4-4.8-1.3-7c2,0.4,3.8,1.6,5.1,3.2c2.6,3.2,4.7,7.4,3.9,16.1   c-0.8,8.7-1.5,12.6,1.3,16.7c-4,0.9-8.1-1-9.8-4.7c-2.2,4.5-3.7,9.4-4.2,14.3c-0.5,7.4,1.4,10.1,1.4,10.1s-10.2,2.9-12.8-10.4   c-0.2,2.8-1.5,5.4-3.6,7.4c-3.6,3.3-8.9,5-11.2,12c0,0-5.1-2.3-5.2-10.2c0-8.7,8.1-15.8,8.1-15.8c-4,0.7-8.2,0.2-11.9-1.5   c-5.5-2.9-3.7,4.4,7.2,3.8c-3.8,3.7-5.9,8.8-5.8,14.1c-0.3,5.8,2.9,11.2,8.1,13.7c1.1-4,3.4-7.6,6.7-10.3c4.5-2.9,7.2-5.8,7.4-7   c2.7,5.9,9.6,8.5,15.5,5.9c0.1,0,0.1-0.1,0.2-0.1c-2.4-4.8-3.1-10.2-1.9-15.4c4,2.9,6.3,7.6,6.3,12.5c0,5.8-4.6,10.4-10.4,10.5   c0,0,0,0,0,0c-4.4,0.3-10.2-1.8-10.2-7.2c-5.2,1-8.6,6-7.6,11.2c0.3,1.4,0.8,2.7,1.7,3.9c0,0-9.9,5.2-14.1,13   c-5.2,9.3-3.8,20.9,3.4,28.7c9.2,10.7,14.4,16.5,14.8,20.6c0.5-3.5-0.7-7.1-3.2-9.6c-4.4-5.3-16.4-17.3-16.4-27   c0-6.6,2.7-12.9,7.6-17.3c-1.6,5.1-0.3,11.5,2.9,18c4,7.8,9.8,16.7,24.2,16.6c0,0,2,7.6-9,8.5c0,0,5.8,13.1-2.1,21   c-2.8,2.7-6.1,5-9.7,6.5c1.9-5.9,1.1-12.3-2.1-17.6c-1.9-2.8-4.6-5.1-7.7-6.6c-0.7,4.4-4.8,7.4-9.2,6.7c-0.4-0.1-0.9-0.2-1.3-0.3   l-0.2,2.3c9.8,1.3,11.5-5.8,11.5-5.8c2.3,1.2,4.3,3.1,5.6,5.4c-3,3-6.7,5.1-10.8,6.1c-6.3,1.8-10.8,7.1-11.5,13.6   c-0.3,2.3,0.6,4.7,2.5,6.2c0,0,1.8-2.4,9.5-3.9c12.1-2.3,20.8-6.4,25.8-12.6c5-6.3,3.5-16,2-19.7c0,0,10.3-0.5,8.7-12.2   c-7.3,1.3-14.8-1.3-19.7-6.9c0.1-0.8,0.3-1.7,0.5-2.5c1.3-3,3.9-5.3,7-6.5c0,0,1.2,7.8,11.5,6.9c-0.9-2.6-0.9-5.4,0-8   c1.3-4.3,3.6-8.3,6.8-11.5c3.7-4.5,4.7-10.7,2.5-16.1c0.5-1.5,0.9-3,1.1-4.6C313.7,177.3,312.5,171.7,310,166.8 M266.7,76.9   c-3.5-1.6-6.3-4.5-7.8-8c1.7-1.2,3.7-1.8,5.8-1.9c3.8-0.5,6-0.7,7.4-2.1c1.5,4.8-0.8,9.9-5.3,12 M277.1,272c-3.1,1-6.3,1.7-9.5,2.1   c-3.4,0.4-6.8,1.5-9.8,3.2c-1.4-3.9,0.8-11.9,10.5-15.4c3.7-1.2,7.2-2.9,10.4-5c0.9,2.6,1.4,5.4,1.3,8.2   C280,269.8,278.1,271.5,277.1,272 M300.8,198.8c4.3-1.8,7.8-5,10.2-9c1,3.7,0.4,7.7-1.7,10.9c-2.9,5.4-9.4,8.9-8.7,19.9   c-3.7,0.4-7-2.3-7.4-6c-0.1-0.7,0-1.4,0.1-2.1c0,0-10.5,4.5-10.6,11c-0.6-0.8-1.1-1.6-1.6-2.4c-8.2-13.9-4.7-23.5,0-26.5   c1.7-0.8,3.4-1.5,5.2-1.9c-1.9-1.7-3.1-4.1-3.4-6.6c-0.4-2.9,1.5-5.7,4.3-6.5c0,0,1.7,7.3,12.5,6.1c6.2-0.4,11-5.4,11.3-11.5   c2.9,10.5-1.2,19-12.1,24c-12.9,5.9-14.4,9.7-14.4,9.7C289.6,204.3,295.1,201.3,300.8,198.8"></path>
	<path class="st4" d="M232.8,122.3c-1.5-0.8-3.3-1.1-5-0.9l0.3-0.2c-2.6,0.1-5.2-0.3-7.6-1.1c-2.1-1.2-3.5-4.4-3.6-10.2l-2.4-0.6   c0.3,3.6,1,7.1,2.3,10.5c0.4,0.6,0.9,1.2,1.5,1.7c-4,2.6-10.2,9.9-9,13.9c0,0,4.9-10.3,11.2-13c1,0.2,1.9,0.3,2.9,0.3l0.6-0.2   c-3.8,2.1-8.2,8.3-11.8,19.1c-2.7,0.4-5.4-0.1-7.7-1.4c0,0-7.9,13.5-21.5,13.7c-12,0.3-12.6-13.8-12.6-13.8c-2.2,1.1-4.7,1.4-7,0.8   c0,0,1.1-15.6,16.7-17.9v0.6c-3.4,1.3-10.1,5.6-10.1,11.5c0,0,4.4-8.1,10.5-10c0.3,2.1,0.5,4.1,0.5,6.2c0.5,1.4,1.3,2.6,2.5,3.5   c0,0,4.2-16-12.9-34.2c6.4,1.1,27.7,0.7,42.6-7.3l-1.1-3.9l-1-4.1l-3.6,0.8c0.3,2.2-0.3,4.4-1.6,6.1c-2.3,2.3-10.1,5.3-27.1,5.4   c-4.1,0.1-8.2-0.2-12.2-1.1c1.3-1,2.5-2.2,3.6-3.4c10.3,1.6,20.8,0.9,30.9-1.8c0.6-1.2,0.9-2.4,0.9-3.8c-7.6,2.7-23.3,2.9-29.1,2.1   c2.6-3.7,4.7-7.7,6.4-11.9c-2.4,4.1-5.2,8-8.4,11.5c-2.3-0.5-4.2-1.1-4.4-2.1c3.4-3.9,6.5-8,9.4-12.3c1.9-0.4,3.6-1.3,4.9-2.6   c3.6,0.7,7.2,0.4,10.6-1c3.9,0.9,8,0.9,12,0c9,2,12.2,1.1,12.2,1.1s8.2,3.5,12.1,2.3c2.6-0.8,3.5-6.4,0.8-9   c-1.9-1.6-4.4-2.2-6.8-1.7c-3.9-2.4-8.6-3.1-13-1.8c-4.2-1.5-8.7-1.7-13-0.7c-8.3-2-12.6,0.7-12.6,0.7c-9.4-0.7-13,3.9-13,8.1   c-0.4,2.2,1,4.2,3.1,4.8c-3.2,4.6-6.7,8.9-10.4,13.1c-1.8,1.7-3.7,3.3-5.8,4.7c0,0,0.6,3.5,6.4,5.8c7.6,5.2,13.2,12.8,15.9,21.6   c-11,2.2-18.9,11.9-18.8,23.1c2.4,0.8,5,0.9,7.5,0.5c0.7,7.6,7.1,13.3,14.7,13.1c12,0,18.7-7.7,22.8-13.2c2.6,1.2,5.6,1.4,8.3,0.7   c0,0,4.6-20.7,14.7-20.7c10.1,0,6.9,14.1,6.9,14.1c-2.8,0.4-5.6-0.3-7.9-2c-1.6,4.7-4.2,9-7.8,12.4c1.1,0.3,2.3,0.5,3.5,0.6   c2.4-2.8,4.3-5.9,5.8-9.3c2.8,1.4,6,1.9,9.1,1.4C238.1,141.3,241.7,126.8,232.8,122.3 M224,66c4.3-0.3,4.2,5.2,3.2,6.2   c-1.8,1.8-5.3,0.4-9.4-1.2C217.7,71.1,220.6,66.2,224,66 M214.5,63.4c3.8,0.3,4.9,2,4.9,2c-1.6,0.8-2.1,3.8-5.2,4.7   c-2.9,0.9-6,0.7-8.8-0.6c0.5-0.6,1-1.3,1.3-2.1C208.2,64.6,211.3,63,214.5,63.4 M201.5,62.8c1.8-0.2,3.7,0.3,5.1,1.4   c-1.6,1-1.8,3.9-4.8,5.1c-2.8,1-5.9,1-8.7,0c0.4-0.7,0.8-1.4,1.1-2.1c1.3-2.9,4.2-4.7,7.4-4.5 M183.5,65.4   c1.8-2.5,6.5-3.3,10.7-1.8c-0.7,0.8-1.2,1.7-1.6,2.7c-0.8,2-2.5,3.4-4.6,3.9c-2.1,0.3-4.2,0.3-6.4,0   C182.3,69.3,182.3,67,183.5,65.4 M173.2,67.5c2.5-3.5,8.2-2.9,8.2-2.9c-0.8,4.1-2.4,7.5-5.3,8.1S170.9,70.8,173.2,67.5 M160.2,93   c1.5-0.9,2.9-2,4-3.3l-0.2,0.2c0,0.9,1.5,2,3.8,2.9c-1.2,1.2-2.5,2.3-3.8,3.3c-3.6-1.4-3.8-2.9-3.8-2.9"></path>
</g>
<g id="Layer_5">
	<path class="st5" d="M131.9,438c0-0.8,0.6-1.3,2.1-1.3c2.1,0,4.1,0.7,5.8,2l2.7-3.8c-2.2-1.8-5-2.8-7.9-2.7c-5,0-7.7,2.9-7.7,6.2   c0,7.5,11,5.4,11,7.9c0,1-1,1.6-2.7,1.6c-2.3,0-4.6-0.9-6.2-2.6l-2.7,3.9c2.4,2.1,5.5,3.2,8.7,3.1c5.2,0,8.1-2.6,8.1-6.5   c0-7.2-11-5.4-11-7.8"></path>
	<path class="st5" d="M160.6,436.6c1.8,0.1,3.5,1.2,4.2,2.9l4.3-2.1c-1.5-3.3-4.9-5.3-8.5-5.2c-5.6,0-10.1,4.5-10.1,10.1   c0,5.6,4.5,10.1,10.1,10.1l0,0c3.6,0.1,7-2,8.5-5.2l-4.3-2c-0.7,1.7-2.3,2.8-4.2,2.9c-3.1-0.7-5.1-3.8-4.3-6.9   c0.5-2.2,2.2-3.9,4.3-4.3"></path>
	<polygon class="st5" points="190.2,439.8 182.1,439.8 182.1,432.5 177.1,432.5 177.1,452 182.1,452 182.1,444.1 190.2,444.1    190.2,452 195.2,452 195.2,432.5 190.2,432.5  "></polygon>
	<path class="st5" d="M213.9,432.2c-5.6,0.2-9.9,4.8-9.8,10.4c0.2,5.6,4.8,9.9,10.4,9.8c5.4-0.2,9.8-4.6,9.8-10.1   c0.1-5.5-4.2-10-9.7-10.1C214.4,432.2,214.2,432.2,213.9,432.2 M213.9,447.9c-3.2,0.3-6-2.1-6.2-5.3c-0.3-3.2,2.1-6,5.3-6.2   c3.2-0.3,6,2.1,6.2,5.3c0,0.2,0,0.4,0,0.6c0.2,2.9-2,5.4-4.9,5.6C214.2,447.9,214.1,447.9,213.9,447.9"></path>
	<path class="st5" d="M241.8,432.2c-5.6,0.2-9.9,4.8-9.8,10.4c0.2,5.6,4.8,9.9,10.4,9.8c5.4-0.2,9.8-4.6,9.8-10.1   c0.1-5.5-4.2-10-9.7-10.1C242.3,432.2,242.1,432.2,241.8,432.2 M241.8,447.9c-3.2,0.3-6-2.1-6.2-5.3c-0.3-3.2,2.1-6,5.3-6.2   c3.2-0.3,6,2.1,6.2,5.3c0,0.2,0,0.4,0,0.6c0.2,2.9-2,5.4-4.9,5.6C242.1,447.9,241.9,447.9,241.8,447.9"></path>
	<polygon class="st5" points="266.1,432.5 261.1,432.5 261.1,452 273.9,452 273.9,447.6 266.1,447.6  "></polygon>
	<path class="st5" d="M7.4,371.7C6,366.4,3.5,361.5,0,357.3h19.7c-1.5,1.6-2.3,3.6-2.3,5.8c0.1,2.8,0.6,5.5,1.5,8.1l8.3,28.3l8-28.1   c0.6-2,1-4.1,1-6.1c0.1-3-1-5.9-3.1-8h19.6c-1.3,1.6-2,3.7-2,5.8c0.1,2.9,0.7,5.7,1.7,8.3l8.3,28.4l8.3-26.3c1-2.9,1.5-5.9,1.5-8.9   c0.2-2.7-0.9-5.3-2.9-7.1h16c-1.3,1.7-2.4,3.5-3.2,5.5c-1.4,3.4-3.9,9.7-4.9,13.2l-11.9,37.5H53.4l-11.8-38.3l-11.5,38.5h-9.9   L7.4,371.7z"></path>
	<path class="st5" d="M190.1,371.7c-1.3-5.3-3.9-10.3-7.4-14.4h19.7c-1.5,1.6-2.3,3.6-2.3,5.8c0.1,2.8,0.6,5.5,1.5,8.1l8.3,28.3   l8-28.1c0.6-2,1-4.1,1-6.1c0.1-3-1.1-5.9-3.2-8h19.6c-1.3,1.6-2,3.7-2,5.8c0.1,2.9,0.7,5.7,1.7,8.3l8.3,28.2l8.3-26.3   c1-2.9,1.5-5.9,1.5-8.9c0.2-2.7-0.9-5.3-2.9-7.1h16c-1.3,1.7-2.4,3.5-3.2,5.5c-1.5,3.4-3.9,9.7-4.9,13.2l-11.9,37.5h-10l-11.8-38.2   l-11.5,38.5h-10L190.1,371.7z"></path>
	<path class="st5" d="M84.8,398.6l9.3-25.4c1.2-3.1,2-6.3,2.3-9.5c-0.1-2.3-1-4.6-2.4-6.4h17.3c0,0.1,0,0.3,0,0.4   c0.2,0.6,0.6,1.7,1.1,3.4l1.1,3.3l1.5,4.1l10.5,29.5c3.1,8.7,5.3,12.6,8.7,15.5H115c1.3-1.1,1.9-2.7,1.8-4.4   c-0.1-2-0.4-3.9-1.1-5.8l-2.9-9.2h-19l-2.9,8.3c-0.7,1.9-1.1,3.8-1.2,5.8c-0.1,1.9,0.6,3.8,1.8,5.2h-15c3.5-3,5.5-6.6,8.5-14.9    M103.2,366.8l-7.5,21.8h14.9L103.2,366.8z"></path>
	<path class="st5" d="M186.6,413.5h-15c0,0-10.5-20.6-13.9-24.3c-1.5-1.2-3.4-1.9-5.4-1.8h-1.5l0.6,14.1c0,2.4,0.2,4.8,0.5,7.2   c0.3,2,1.5,3.8,3.3,4.9h-18.6c0.9-0.6,1.6-1.3,2.3-2.2c0.5-0.8,0.9-1.7,1-2.7c0.3-2.4,0.4-4.8,0.4-7.2v-32c0-2.4-0.1-4.8-0.4-7.2   c-0.3-2-1.5-3.8-3.3-4.9h25.8c6.7,0,10.5,0.8,13,2.7c3.1,3,4.7,7.2,4.4,11.5c0.2,3.8-1.1,7.5-3.6,10.2c-2.7,2.1-5.9,3.5-9.2,4   c1.2,0.7,2.1,1.7,2.9,2.9c12.7,20.6,13.3,22,16.8,24.7 M158.8,382.6c6.7,0,9.3-3,9.3-11c0.3-2.6-0.3-5.3-1.8-7.5   c-1.8-1.9-3.9-2.2-9.7-2.2c-1.5-0.2-2.9,0-4.3,0.6c-0.6,0.3-0.7,1-0.7,3.2v16.9L158.8,382.6z"></path>
	<path class="st5" d="M271.2,411.3c0.5-0.8,0.9-1.7,1-2.7c0.3-2.4,0.4-4.8,0.4-7.2v-32.1c0-2.4-0.1-4.8-0.4-7.2   c-0.3-2-1.5-3.8-3.3-4.9h18.6c-0.9,0.6-1.7,1.4-2.3,2.3c-0.6,0.8-0.9,1.7-1,2.6c-0.3,2.4-0.5,4.8-0.5,7.2v32c0,2.4,0.2,4.8,0.5,7.2   c0.3,2.1,1.5,3.9,3.3,4.9h-18.6C269.8,413,270.5,412.2,271.2,411.3"></path>
	<path class="st5" d="M339.7,403c0,7-8.2,11.5-20.2,11.5c-7,0.4-13.9-1.9-19.2-6.5c-4.6-4.5-6.6-11.4-6.6-22.5   c0-11.1,1.8-18,5.8-23.1c3.6-4.5,9.4-6.4,19.3-6.4c2.9,0,6.1,0.2,10.3,0.5c2.1,0.2,3.7,0.3,4.9,0.3c1.5,0,3-0.2,4.4-0.8l-0.2,16.8   c-2-2.6-4.3-5.1-6.8-7.2c-3.4-2.8-7.8-4.4-12.2-4.3c-10.1,0-13.8,5-13.8,22.7c0,8.5,1,13.5,3.4,17.3c2.4,3.8,7.1,6.2,13.4,6.2   c6.3,0.1,12.5-1.8,17.8-5.3L339.7,403z"></path>
	<path class="st5" d="M349,411.3c0.5-0.8,0.9-1.7,1-2.7c0.3-2.4,0.4-4.8,0.4-7.2v-32.1c0-2.4-0.1-4.8-0.4-7.2   c-0.3-2-1.5-3.8-3.3-4.9h18.6c-0.9,0.6-1.7,1.4-2.3,2.3c-0.6,0.8-1,1.7-1.1,2.6c-0.3,2.4-0.5,4.8-0.5,7.2V382l13.9-13.7   c2.2-2,3.6-4.8,4-7.8c0.1-1.1-0.3-2.3-0.9-3.2h18.2l-0.6,0.3c-4.8,2.9-9.2,6.2-13.2,10l-13.5,13.1l20.2,24.4   c2.9,3.4,6.5,6.3,10.5,8.4h-18.1l-20.5-25.7v13.7c0,2.4,0.2,4.8,0.5,7.2c0.3,2.1,1.5,3.9,3.3,4.9h-18.6   C347.5,413,348.3,412.2,349,411.3"></path>
</g>
<g id="Layer_2_00000094603687570322742160000003767160011393369251_">
	<path class="st0" d="M165,290.5c-4.2-4.2-7.9-9-10.8-14.3c12.8,13.1,28.2,23.2,45.4,29.6h0.2c17.2-6.4,32.7-16.6,45.6-29.6   c-10.1,22.3-45.6,37.5-45.6,37.5c-2.6-1.1-5-2.3-7.3-3.4c4.1,2.7,6.7,4.2,6.7,4.2c15.1-6.9,28.8-16.4,40.4-28.2   c19.9-19.9,23.3-44,23.3-73.5v-62.6h-65.4c-4.5,3.3-9.8,5.3-15.4,5.8c-4.3-0.2-8.2-2.7-10.3-6.5h-36.2v67.3   c0,12.5,1.1,46.3,19,64.3c3.3,3.3,6.9,6.5,10.5,9.5"></path>
	<path class="st6" d="M262,197.5h-1.4v-0.3H137.5v0.3h-1.6c0,0-8.7,63.5,28.5,96.1l34.6,20.9l5.6-3.4c-2.3,1.3-5.1,1.5-7.6,0.6   c-4.3-1.8-30.4-13.4-45.2-36.2l2.1,3.1c0,0,27.2,29.4,45.8,33.7c0,0,19.1-4.5,42.6-27.5l-8.7,8.9l0,0c37-32.8,28.5-96.1,28.5-96.1"></path>
	<path class="st0" d="M155.9,255.7c-1,0.7-1.4,1.9-1.2,3.1c0.2,2.1,1.8,3.6,4.9,3.6c0,0-1.4-6.1,2.9-6.1h33.2v29.5   c0,4.2-6.1,2.9-6.1,2.9c0,3.1,1.2,4.9,3.6,4.9c1.2,0.1,2.3-0.3,3.1-1.2c-0.8,2.1-0.4,4.6,1.1,6.3c0.7,0.7,1.4,1.5,2,2.3   c0,0,1-1.1,2.1-2.3c1.5-1.7,1.9-4.2,1.1-6.3c0.7,1,1.9,1.5,3.1,1.2c2.1-0.2,3.6-1.8,3.6-4.9c0,0-6.1,1.9-6.1-2.9v-29.5h32.5   c4.8,0,2.9,6.1,2.9,6.1c3.1,0,4.9-1.2,4.9-3.6c0.1-1.2-0.3-2.3-1.2-3.1c2.1,0.8,4.5,0.4,6.2-1.1c0.7-0.7,1.5-1.4,2.3-2   c0,0-1.1-1-2.3-2.1c-1.7-1.5-4.2-1.9-6.3-1.1c1-0.7,1.5-1.9,1.2-3.1c-0.2-2.1-1.8-3.6-4.9-3.6c0,0,1.5,6.1-2.9,6.1h-32.4v-29.5   c0-4.4,6.1-2.9,6.1-2.9c0-3.1-1.2-4.9-3.6-4.9c-1.2-0.1-2.3,0.3-3.1,1.2c0.8-2.1,0.4-4.6-1.1-6.3c-0.7-0.7-1.4-1.5-2-2.3   c0,0-1,1.1-2.1,2.3c-1.5,1.8-1.9,4.2-1,6.4c-0.7-1-1.9-1.5-3.1-1.2c-2.1,0.2-3.6,1.8-3.6,4.9c0,0,6.1-1.5,6.1,2.9v29.4h-33.3   c-4.4,0-2.9-6.1-2.9-6.1c-3.1,0-4.9,1.2-4.9,3.6c-0.1,1.2,0.3,2.3,1.2,3.1c-2.1-0.8-4.6-0.4-6.3,1.1c-0.7,0.7-1.5,1.4-2.3,2   c0,0,1.1,1,2.3,2.1C151.3,256.1,153.7,256.5,155.9,255.7"></path>
	<path class="st0" d="M175,216.2c-5.3,1.6-6.2,9.1-6.2,10.7h1.3c0-6.1,5.5-7.3,6.6-4.3c0.3,1-0.1,2.1-1,2.6c1.4,0.5,2.9,0.1,3.9-1   c1.9-1.7,2.2-4.7,0.5-6.6C178.7,216.2,176.8,215.7,175,216.2"></path>
	<rect x="163.2" y="227.8" class="st0" width="7.4" height="1.4"></rect>
	<path class="st0" d="M172.7,230.3c-1.6,0-1.6,1.6-1.6,1.6s-0.9-0.3-0.9-1.8h-1.4c0,0,0,3.7,2.9,3.7s2.7-3.4,1.1-3.6"></path>
	<path class="st0" d="M165.8,226.9h2.3c0-3.8,0.8-7.6,2.3-11.2c0.8-1.9,1.7-2.9,0.5-4.7s-3.9-6.9-3.9-6.9s-2.6,5-3.8,6.9   s-0.3,2.9,0.5,4.7C165.1,219.3,165.8,223.1,165.8,226.9"></path>
	<path class="st0" d="M163.8,226.9h1.3c0-1.6-0.9-9.1-6.2-10.7c-2.5-0.8-5.1,0.6-5.8,3.1c-0.5,1.8,0,3.7,1.4,4.9   c1,1.1,2.5,1.5,3.9,1c-0.9-0.5-1.3-1.6-1-2.6C158.3,219.8,163.8,220.9,163.8,226.9"></path>
	<path class="st0" d="M165,230.1h-1.4c0,1.5-0.9,1.8-0.9,1.8s0-1.8-1.6-1.6s-1.5,3.5,1.1,3.5s2.9-3.7,2.9-3.7"></path>
	<path class="st0" d="M167.7,230.1h-1.7c0,0.9-0.3,4.5-3.3,5.2c1.5,1.4,2.9,3,4.1,4.6c1.3-1.6,2.6-3.2,4.1-4.6   C168.1,234.6,167.7,231,167.7,230.1"></path>
	<path class="st4" d="M228.7,157.5c-1.5-0.2-2.9,0.7-3.5,2c-0.9-0.1-1.8,0.1-2.6,0.5c0.3,0.3,2.9,1.6,2.9,1.6h-2.9   c0.7,0.7,1.6,1.1,2.6,1.2c0.3,1.5,0.2,3-0.4,4.4c-0.8,1.6-2.6,7.2,1.3,10.8c1.7,1.4,3.7,2.5,5.8,3.1c-0.1,0.6-0.2,1.2-0.4,1.8   c-0.5,1.6-2.9,2.6-2.9,2.6c1.5,0.5,3.1,0.4,4.4-0.4c-0.6,1-1.6,1.8-2.7,2.3c2,0.8,4.2,0.4,5.8-1c0.9,0.9,2.3,1.2,3.5,0.8   c-1.1-1.2-1.7-2.8-1.4-4.4l0,0c2.8,0.7,5.5,2,7.7,3.8c1.8,1.3,3.2,3.1,4.1,5.1c0.6-1.9,0.4-3.9-0.6-5.6c0.4,0,0.7,0,1-0.2   c-0.5-2.3-1-2.2-1-2.2c2.6,0,4.8-1.8,5.2-4.4c-2.9,1.1-6,1.4-9,0.9c-2.3,0.7-4.8,0.9-7.2,0.6c-6.1-0.6-9-4.3-9-6.4   c0-2.1,0.4-2.4,0.4-2.4c0,3.6,3.7,7.7,10.6,7.7c4.2,0.2,8.3-1.8,10.7-5.3c-1.6,0.2-3.2,0.2-4.8,0c1.9-1.4,2-2.7,2-2.7   c-2.2,1-4.6,1.2-6.9,0.7c-0.9-0.8-1.8-1.6-2.7-2.5c-1.8-1.8-3.9-3.2-6.2-4.2C233.4,160.5,231.4,157.5,228.7,157.5"></path>
	<path class="st4" d="M154.1,172.1c0,3.6,3.7,7.7,10.6,7.7c4.3,0.3,8.4-1.7,10.8-5.3c-1.6,0.2-3.2,0.2-4.8,0c1.9-1.4,2-2.7,2-2.7   c-2.2,1-4.6,1.2-6.9,0.7c-0.9-0.8-1.8-1.6-2.7-2.5c-1.8-1.8-3.9-3.2-6.2-4.2c0.7-5.3-1.2-8.3-4-8.3c-1.5-0.1-2.9,0.7-3.4,2   c-0.9-0.1-1.8,0.1-2.6,0.5c0.3,0.3,2.9,1.6,2.9,1.6H147c0.7,0.7,1.6,1.1,2.6,1.2c0.3,1.5,0.1,3-0.5,4.4c-0.8,1.6-2.6,7.2,1.3,10.9   c1.7,1.4,3.7,2.5,5.8,3.1c-0.1,0.6-0.2,1.2-0.4,1.8c-0.5,1.7-2.9,2.6-2.9,2.6c1.5,0.5,3.1,0.3,4.4-0.4c-0.6,1-1.6,1.8-2.7,2.3   c2,0.8,4.2,0.4,5.8-1c0.9,0.9,2.3,1.2,3.5,0.8c-1.1-1.2-1.7-2.8-1.4-4.4l0,0c2.8,0.7,5.4,2,7.7,3.8c1.8,1.3,3.2,3.1,4.1,5.1   c0.6-1.9,0.4-3.9-0.6-5.6c0.4,0,0.7,0,1-0.1c-0.5-2.3-1-2.2-1-2.2c2.6,0,4.8-1.9,5.1-4.4c-2.9,1.1-6,1.4-9,0.9   c-2.3,0.7-4.8,0.9-7.2,0.6c-6.1-0.6-9-4.3-9-6.4C153.7,172.4,154.1,172.1,154.1,172.1"></path>
	<path class="st4" d="M186.4,161.8c0.7,0.7,1.6,1.1,2.6,1.2c0.3,1.5,0.1,3-0.5,4.4c-0.8,1.6-2.6,7.2,1.3,10.9   c1.7,1.4,3.7,2.5,5.8,3.1c-0.1,0.6-0.2,1.2-0.4,1.8c-0.5,1.6-2.9,2.6-2.9,2.6c1.5,0.5,3.1,0.3,4.4-0.4c-0.6,1-1.6,1.8-2.7,2.3   c2,0.8,4.2,0.4,5.8-1c0.9,0.9,2.3,1.2,3.5,0.8c-1.1-1.2-1.7-2.8-1.4-4.4l0,0c2.8,0.7,5.3,2,7.6,3.7c1.8,1.3,3.2,3.1,4.1,5.2   c0.6-1.9,0.4-3.9-0.6-5.6c0.4,0,0.7,0,1-0.1c-0.5-2.3-1-2.2-1-2.2c2.6,0,4.8-1.8,5.2-4.4c-2.9,1.1-6,1.4-9,0.9   c-2.3,0.7-4.8,0.9-7.2,0.6c-6.1-0.7-9-4.3-9-6.4c0-2.1,0.4-2.4,0.4-2.4c0,3.6,3.7,7.7,10.6,7.7c4.3,0.3,8.4-1.7,10.8-5.3   c-1.6,0.2-3.2,0.2-4.8,0c2-1.4,2-2.7,2-2.7c-2.2,1-4.6,1.2-6.9,0.7c-0.9-0.8-1.8-1.6-2.7-2.5c-1.8-1.8-3.9-3.3-6.2-4.3   c0.7-5.3-1.2-8.3-4-8.3c-1.5-0.1-2.9,0.7-3.4,2c-0.9-0.1-1.8,0.1-2.6,0.5c0.3,0.3,2.9,1.6,2.9,1.6L186.4,161.8"></path>
	<path class="st4" d="M200.4,146.3c-2.3,2.1-4.7,4.1-7.3,5.8h67.3v43H138.9V152h35.4c-1.6-1.7-2.9-3.6-3.9-5.8h-37.3v73   c0,37,11.5,53.2,24.1,69.1c13.8,17.3,42.4,27.9,42.4,27.9s28.5-10.3,42.4-27.7c12.7-15.9,24.1-32.1,24.1-69.1v-73.2H200.4z    M260.3,219.8c0,34.2-9.7,49.8-22,63.9c-15.1,17.3-38.7,25.8-38.7,25.8c-14.8-5.2-28.1-14.1-38.7-25.8c-12.2-14.3-22-29.8-22-63.9   v-21.6h121.4V219.8z"></path>
</g>
</svg>
