<svg xmlns="http://www.w3.org/2000/svg" viewBox="0 0 3815 3369">
<path d="m1909 0c-91 0-174 49-220 128l-1655 2862a253 253 0 0 0 220 379h3310c137 0 251-111 251-251c0-49-9-86-34-128l-1655-2862a247 247 0 0 0-217-128zm-1 422l1507 2610h-3016z"/>
<path d="m1841 1971c49-68 66-86 134-131c6-6 14-3 14 6c0 23-3 46-3 68c0 68 6 100 31 163l68 117c3 6-6 17-14 11l-188-120l-43-94c-2-9-2-14 1-20zm-320-445c-9 0-14 3-14 11l-77 265l29 17l177-280c6-6 3-20-9-20zm86 628s-111 291-111 294c-3 11-11 20-20 26l-311 251c-9 9-14 20-17 31v20c0 46 17 88 51 120c3 0 6 6 6 11c0 6-6 14-14 14h-43c-34 0-68-20-86-51l-106-180c-3-3-3-6-3-11c0-9 6-17 14-23l63-29l217-251c9-9 20-14 31-14c9 0 14 3 20 6c14-17 23-31 26-51l106-434l-31-20h-3c-11 9-26 14-43 14c-9 0-17 0-23-6c-20-11-29-20-43-40c-3-3-3-11-3-17v-3c0-17 11-34 29-43c17-11 29-29 29-51c3-77 20-160 49-231c14-31 34-54 66-71c86-40 177-60 271-60h40c29 0 49 9 71 23l106 71c3 3 6 3 11 3c11 0 20-9 20-20v-14c0-68 37-131 97-163c23-14 40-20 66-20c23 0 34 3 54 14c31 11 54 34 74 60c14 20 20 43 20 68c0 66-54 128-117 151l-68 11c-14 0-23 9-23 23c0 6 3 11 9 17l71 71c6 9 9 11 9 23v20c0 80-11 165-34 243c0 11-3 20-3 29c0 14 3 26 9 40l97 240a55 55 0 0 1 0 60l120 77c6-20 14-31 31-43l17-9l74-23c17-6 31-17 40-31l54-91c3 0 3-3 6-6l43-14l86-11h6c29 0 54 14 68 40l419 728h-970c-9 0-17-9-17-17l126-451l-134-86c-9 6-14 6-23 6s-14 0-20-3l-60-29c-14-9-23-20-23-37c0-6 0-9 3-14l-160-97l23 57c20 51 31 106 34 160l20 382l3 37c3 3 3 6 6 6l123 34c11 3 20 14 20 26c0 14-14 26-26 26h-282c-17 0-29-14-31-29c-17-137-34-274-54-414c0-3 0-6 3-9l6-3c6 0 11-6 11-14v-37c0-9-3-14-6-20c-91-106-94-114-148-240c0-3-3-6-6-6c-9 1-12 4-12 4z"/>
</svg>