<svg xmlns="http://www.w3.org/2000/svg" viewBox="0 0 96 96" fill="#FFF" stroke-miterlimit="10" stroke-width="2">
<path stroke="#979593" d="M85,89H33c-1.1046,0-2-0.8954-2-2V14l49.875-6 L87,13v74C87,88.1046,86.1046,89,85,89z"/>
<path stroke="#979593" d="M79,83H27c-1.1046,0-2-0.8954-2-2V15h56v66 C81,82.1046,80.1046,83,79,83z"/>
<path fill="#107C41" d="M81.1716,6H26c-1.1046,0-2,0.8954-2,2v10h2h56v-4.5858c0-0.8909,1.0771-1.3371,1.7071-0.7071L88,17v-4.5858 c0-0.2652-0.1054-0.5196-0.2929-0.7071l-5.1213-5.1213C82.2107,6.2107,81.702,6,81.1716,6z"/>
<path fill="#C8C6C4" d="M73 61H63c-.5523 0-1-.4477-1-1l0 0c0-.5523.4477-1 1-1h10c.5523 0 1 .4477 1 1l0 0C74 60.5523 73.5523 61 73 61zM73 67H63c-.5523 0-1-.4477-1-1l0 0c0-.5523.4477-1 1-1h10c.5523 0 1 .4477 1 1l0 0C74 66.5523 73.5523 67 73 67zM73 55H63c-.5523 0-1-.4477-1-1l0 0c0-.5523.4477-1 1-1h10c.5523 0 1 .4477 1 1l0 0C74 54.5523 73.5523 55 73 55zM73 49H63c-.5523 0-1-.4477-1-1l0 0c0-.5523.4477-1 1-1h10c.5523 0 1 .4477 1 1l0 0C74 48.5523 73.5523 49 73 49zM73 43H63c-.5523 0-1-.4477-1-1l0 0c0-.5523.4477-1 1-1h10c.5523 0 1 .4477 1 1l0 0C74 42.5523 73.5523 43 73 43zM58 61H48c-.5523 0-1-.4477-1-1l0 0c0-.5523.4477-1 1-1h10c.5523 0 1 .4477 1 1l0 0C59 60.5523 58.5523 61 58 61zM58 67H48c-.5523 0-1-.4477-1-1l0 0c0-.5523.4477-1 1-1h10c.5523 0 1 .4477 1 1l0 0C59 66.5523 58.5523 67 58 67zM58 55H48c-.5523 0-1-.4477-1-1l0 0c0-.5523.4477-1 1-1h10c.5523 0 1 .4477 1 1l0 0C59 54.5523 58.5523 55 58 55zM58 49H48c-.5523 0-1-.4477-1-1l0 0c0-.5523.4477-1 1-1h10c.5523 0 1 .4477 1 1l0 0C59 48.5523 58.5523 49 58 49zM58 43H48c-.5523 0-1-.4477-1-1l0 0c0-.5523.4477-1 1-1h10c.5523 0 1 .4477 1 1l0 0C59 42.5523 58.5523 43 58 43z"/>
<path fill="#107C41" d="M12,74h32c2.2091,0,4-1.7909,4-4V38c0-2.2091-1.7909-4-4-4H12c-2.2091,0-4,1.7909-4,4v32 C8,72.2091,9.7909,74,12,74z"/>
<path d="M16.9492,66l7.8848-12.0337L17.6123,42h5.8115l3.9424,7.6486c0.3623,0.7252,0.6113,1.2668,0.7471,1.6236 h0.0508c0.2617-0.58,0.5332-1.1436,0.8164-1.69L33.1943,42h5.335l-7.4082,11.9L38.7168,66H33.041l-4.5537-8.4017 c-0.1924-0.3116-0.374-0.6858-0.5439-1.1215H27.876c-0.0791,0.2684-0.2549,0.631-0.5264,1.0878L22.6592,66H16.9492z"/>
</svg>